0, 0, Header, 1, 9, 480
1, 0, Start_track
1, 0, Time_signature, 4, 2, 24, 8
1, 0, Key_signature, 0, "major"
1, 0, SMPTE_offset, 33, 0, 0, 0, 0
1, 0, Tempo, 468750
1, 0, End_track
2, 0, Start_track
2, 0, Title_t, "CV1- Vampire Killer"
2, 0, Instrument_name_t, "Steinway Grand Piano"
2, 0, Text_t, "By Jorge Fuentes"
2, 0, Text_t, "none"
2, 0, Text_t, "none"
2, 0, Text_t, "Generated by NoteWorthy Composer"
2, 0, End_track
3, 0, Start_track
3, 0, Title_t, "Staff-2"
3, 0, Instrument_name_t, "Sync Lead"
3, 0, Program_c, 10, 84
3, 0, Control_c, 10, 7, 127
3, 0, Control_c, 10, 10, 64
3, 0, Note_on_c, 10, 69, 92
3, 115, Note_on_c, 10, 69, 0
3, 120, Note_on_c, 10, 69, 92
3, 235, Note_on_c, 10, 69, 0
3, 360, Note_on_c, 10, 67, 92
3, 475, Note_on_c, 10, 67, 0
3, 600, Note_on_c, 10, 67, 92
3, 1240, Note_on_c, 10, 67, 0
3, 1320, Program_c, 10, 80
3, 1320, Note_on_c, 10, 62, 92
3, 1555, Note_on_c, 10, 62, 0
3, 1560, Note_on_c, 10, 62, 92
3, 1675, Note_on_c, 10, 62, 0
3, 1680, Note_on_c, 10, 60, 92
3, 1795, Note_on_c, 10, 60, 0
3, 1800, Note_on_c, 10, 60, 92
3, 1915, Note_on_c, 10, 60, 0
3, 1920, Note_on_c, 10, 62, 92
3, 2275, Note_on_c, 10, 62, 0
3, 2280, Note_on_c, 10, 58, 92
3, 2635, Note_on_c, 10, 58, 0
3, 2640, Note_on_c, 10, 62, 92
3, 2875, Note_on_c, 10, 62, 0
3, 2880, Note_on_c, 10, 60, 92
3, 2995, Note_on_c, 10, 60, 0
3, 3000, Note_on_c, 10, 67, 92
3, 3835, Note_on_c, 10, 67, 0
3, 3840, Program_c, 10, 84
3, 3840, Note_on_c, 10, 69, 92
3, 3955, Note_on_c, 10, 69, 0
3, 3960, Note_on_c, 10, 69, 92
3, 4075, Note_on_c, 10, 69, 0
3, 4200, Note_on_c, 10, 67, 92
3, 4315, Note_on_c, 10, 67, 0
3, 4440, Note_on_c, 10, 67, 92
3, 5080, Note_on_c, 10, 67, 0
3, 5160, Program_c, 10, 80
3, 5160, Note_on_c, 10, 62, 92
3, 5395, Note_on_c, 10, 62, 0
3, 5400, Note_on_c, 10, 62, 92
3, 5515, Note_on_c, 10, 62, 0
3, 5520, Note_on_c, 10, 60, 92
3, 5635, Note_on_c, 10, 60, 0
3, 5640, Note_on_c, 10, 60, 92
3, 5755, Note_on_c, 10, 60, 0
3, 5760, Note_on_c, 10, 62, 92
3, 6115, Note_on_c, 10, 62, 0
3, 6120, Note_on_c, 10, 58, 92
3, 6475, Note_on_c, 10, 58, 0
3, 6480, Note_on_c, 10, 62, 92
3, 6715, Note_on_c, 10, 62, 0
3, 6720, Note_on_c, 10, 60, 92
3, 6835, Note_on_c, 10, 60, 0
3, 6840, Note_on_c, 10, 67, 92
3, 7675, Note_on_c, 10, 67, 0
3, 7680, Program_c, 10, 27
3, 7920, Note_on_c, 10, 69, 92
3, 8000, Note_on_c, 10, 69, 0
3, 8280, Note_on_c, 10, 74, 92
3, 8360, Note_on_c, 10, 74, 0
3, 8640, Note_on_c, 10, 73, 92
3, 8720, Note_on_c, 10, 73, 0
3, 8760, Note_on_c, 10, 74, 92
3, 8840, Note_on_c, 10, 74, 0
3, 8880, Note_on_c, 10, 73, 92
3, 8960, Note_on_c, 10, 73, 0
3, 9000, Note_on_c, 10, 72, 92
3, 9080, Note_on_c, 10, 72, 0
3, 9600, Note_on_c, 10, 81, 92
3, 9680, Note_on_c, 10, 81, 0
3, 9840, Note_on_c, 10, 81, 92
3, 9920, Note_on_c, 10, 81, 0
3, 9960, Note_on_c, 10, 80, 92
3, 10040, Note_on_c, 10, 80, 0
3, 10200, Note_on_c, 10, 80, 92
3, 10280, Note_on_c, 10, 80, 0
3, 10320, Note_on_c, 10, 79, 92
3, 10400, Note_on_c, 10, 79, 0
3, 10560, Note_on_c, 10, 81, 92
3, 10640, Note_on_c, 10, 81, 0
3, 10800, Note_on_c, 10, 81, 92
3, 10880, Note_on_c, 10, 81, 0
3, 10920, Note_on_c, 10, 80, 92
3, 11000, Note_on_c, 10, 80, 0
3, 11160, Note_on_c, 10, 80, 92
3, 11240, Note_on_c, 10, 80, 0
3, 11280, Note_on_c, 10, 79, 92
3, 11360, Note_on_c, 10, 79, 0
3, 11760, Note_on_c, 10, 69, 92
3, 11840, Note_on_c, 10, 69, 0
3, 12120, Note_on_c, 10, 74, 92
3, 12200, Note_on_c, 10, 74, 0
3, 12480, Note_on_c, 10, 73, 92
3, 12560, Note_on_c, 10, 73, 0
3, 12600, Note_on_c, 10, 74, 92
3, 12680, Note_on_c, 10, 74, 0
3, 12720, Note_on_c, 10, 73, 92
3, 12800, Note_on_c, 10, 73, 0
3, 12840, Note_on_c, 10, 72, 92
3, 12920, Note_on_c, 10, 72, 0
3, 13440, Note_on_c, 10, 81, 92
3, 13520, Note_on_c, 10, 81, 0
3, 13680, Note_on_c, 10, 81, 92
3, 13760, Note_on_c, 10, 81, 0
3, 13800, Note_on_c, 10, 80, 92
3, 13880, Note_on_c, 10, 80, 0
3, 14040, Note_on_c, 10, 80, 92
3, 14120, Note_on_c, 10, 80, 0
3, 14160, Note_on_c, 10, 79, 92
3, 14240, Note_on_c, 10, 79, 0
3, 14400, Note_on_c, 10, 81, 92
3, 14480, Note_on_c, 10, 81, 0
3, 14640, Note_on_c, 10, 81, 92
3, 14720, Note_on_c, 10, 81, 0
3, 14760, Note_on_c, 10, 80, 92
3, 14840, Note_on_c, 10, 80, 0
3, 15000, Note_on_c, 10, 80, 92
3, 15080, Note_on_c, 10, 80, 0
3, 15120, Note_on_c, 10, 79, 92
3, 15200, Note_on_c, 10, 79, 0
3, 15360, Program_c, 10, 80
3, 15360, Note_on_c, 10, 70, 92
3, 15715, Note_on_c, 10, 70, 0
3, 15720, Note_on_c, 10, 73, 92
3, 16075, Note_on_c, 10, 73, 0
3, 16080, Note_on_c, 10, 76, 92
3, 16195, Note_on_c, 10, 76, 0
3, 16320, Note_on_c, 10, 74, 92
3, 16675, Note_on_c, 10, 74, 0
3, 16680, Note_on_c, 10, 69, 92
3, 17035, Note_on_c, 10, 69, 0
3, 17040, Note_on_c, 10, 65, 92
3, 17155, Note_on_c, 10, 65, 0
3, 17280, Note_on_c, 10, 70, 92
3, 17635, Note_on_c, 10, 70, 0
3, 17640, Note_on_c, 10, 73, 92
3, 17995, Note_on_c, 10, 73, 0
3, 18000, Note_on_c, 10, 76, 92
3, 18115, Note_on_c, 10, 76, 0
3, 18240, Note_on_c, 10, 74, 92
3, 18595, Note_on_c, 10, 74, 0
3, 18600, Note_on_c, 10, 69, 92
3, 18715, Note_on_c, 10, 69, 0
3, 19200, Note_on_c, 10, 70, 92
3, 19555, Note_on_c, 10, 70, 0
3, 19560, Note_on_c, 10, 73, 92
3, 19915, Note_on_c, 10, 73, 0
3, 19920, Note_on_c, 10, 76, 92
3, 20035, Note_on_c, 10, 76, 0
3, 20160, Note_on_c, 10, 74, 92
3, 20515, Note_on_c, 10, 74, 0
3, 20520, Note_on_c, 10, 69, 92
3, 20875, Note_on_c, 10, 69, 0
3, 20880, Note_on_c, 10, 65, 92
3, 20995, Note_on_c, 10, 65, 0
3, 21120, Note_on_c, 10, 70, 92
3, 21475, Note_on_c, 10, 70, 0
3, 21480, Note_on_c, 10, 73, 92
3, 21835, Note_on_c, 10, 73, 0
3, 21840, Note_on_c, 10, 76, 92
3, 21955, Note_on_c, 10, 76, 0
3, 22080, Note_on_c, 10, 73, 92
3, 22435, Note_on_c, 10, 73, 0
3, 22440, Note_on_c, 10, 76, 92
3, 22795, Note_on_c, 10, 76, 0
3, 22800, Note_on_c, 10, 79, 92
3, 22915, Note_on_c, 10, 79, 0
3, 23040, Note_on_c, 10, 81, 92
3, 23155, Note_on_c, 10, 81, 0
3, 23160, Note_on_c, 10, 81, 92
3, 23275, Note_on_c, 10, 81, 0
3, 23280, Note_on_c, 10, 69, 92
3, 23395, Note_on_c, 10, 69, 0
3, 23400, Note_on_c, 10, 69, 92
3, 24840, Note_on_c, 10, 69, 0
3, 24960, Note_on_c, 10, 53, 92
3, 25075, Note_on_c, 10, 53, 0
3, 25200, Note_on_c, 10, 53, 92
3, 25315, Note_on_c, 10, 53, 0
3, 25440, Note_on_c, 10, 58, 92
3, 25555, Note_on_c, 10, 58, 0
3, 25560, Note_on_c, 10, 62, 92
3, 25915, Note_on_c, 10, 62, 0
3, 25920, Note_on_c, 10, 55, 92
3, 26035, Note_on_c, 10, 55, 0
3, 26160, Note_on_c, 10, 55, 92
3, 26275, Note_on_c, 10, 55, 0
3, 26400, Note_on_c, 10, 60, 92
3, 26515, Note_on_c, 10, 60, 0
3, 26520, Note_on_c, 10, 64, 92
3, 26875, Note_on_c, 10, 64, 0
3, 26880, Note_on_c, 10, 81, 92
3, 26995, Note_on_c, 10, 81, 0
3, 27000, Note_on_c, 10, 81, 92
3, 27115, Note_on_c, 10, 81, 0
3, 27120, Note_on_c, 10, 69, 92
3, 27235, Note_on_c, 10, 69, 0
3, 27240, Note_on_c, 10, 69, 92
3, 28680, Note_on_c, 10, 69, 0
3, 28800, Note_on_c, 10, 53, 92
3, 28915, Note_on_c, 10, 53, 0
3, 29040, Note_on_c, 10, 53, 92
3, 29155, Note_on_c, 10, 53, 0
3, 29280, Note_on_c, 10, 58, 92
3, 29395, Note_on_c, 10, 58, 0
3, 29400, Note_on_c, 10, 62, 92
3, 29755, Note_on_c, 10, 62, 0
3, 29760, Note_on_c, 10, 55, 92
3, 29875, Note_on_c, 10, 55, 0
3, 30720, Program_c, 10, 84
3, 30720, Note_on_c, 10, 69, 92
3, 30835, Note_on_c, 10, 69, 0
3, 30840, Note_on_c, 10, 69, 92
3, 30955, Note_on_c, 10, 69, 0
3, 31080, Note_on_c, 10, 67, 92
3, 31195, Note_on_c, 10, 67, 0
3, 31320, Note_on_c, 10, 67, 92
3, 31960, Note_on_c, 10, 67, 0
3, 32040, Program_c, 10, 80
3, 32040, Note_on_c, 10, 62, 92
3, 32275, Note_on_c, 10, 62, 0
3, 32280, Note_on_c, 10, 62, 92
3, 32395, Note_on_c, 10, 62, 0
3, 32400, Note_on_c, 10, 60, 92
3, 32515, Note_on_c, 10, 60, 0
3, 32520, Note_on_c, 10, 60, 92
3, 32635, Note_on_c, 10, 60, 0
3, 32640, Note_on_c, 10, 62, 92
3, 32995, Note_on_c, 10, 62, 0
3, 33000, Note_on_c, 10, 58, 92
3, 33355, Note_on_c, 10, 58, 0
3, 33360, Note_on_c, 10, 62, 92
3, 33595, Note_on_c, 10, 62, 0
3, 33600, Note_on_c, 10, 60, 92
3, 33715, Note_on_c, 10, 60, 0
3, 33720, Note_on_c, 10, 67, 92
3, 34555, Note_on_c, 10, 67, 0
3, 34560, Program_c, 10, 84
3, 34560, Note_on_c, 10, 69, 92
3, 34675, Note_on_c, 10, 69, 0
3, 34680, Note_on_c, 10, 69, 92
3, 34795, Note_on_c, 10, 69, 0
3, 34920, Note_on_c, 10, 67, 92
3, 35035, Note_on_c, 10, 67, 0
3, 35160, Note_on_c, 10, 67, 92
3, 35800, Note_on_c, 10, 67, 0
3, 35880, Program_c, 10, 80
3, 35880, Note_on_c, 10, 62, 92
3, 36115, Note_on_c, 10, 62, 0
3, 36120, Note_on_c, 10, 62, 92
3, 36235, Note_on_c, 10, 62, 0
3, 36240, Note_on_c, 10, 60, 92
3, 36355, Note_on_c, 10, 60, 0
3, 36360, Note_on_c, 10, 60, 92
3, 36475, Note_on_c, 10, 60, 0
3, 36480, Note_on_c, 10, 62, 92
3, 36835, Note_on_c, 10, 62, 0
3, 36840, Note_on_c, 10, 58, 92
3, 37195, Note_on_c, 10, 58, 0
3, 37200, Note_on_c, 10, 62, 92
3, 37435, Note_on_c, 10, 62, 0
3, 37440, Note_on_c, 10, 60, 92
3, 37555, Note_on_c, 10, 60, 0
3, 37560, Note_on_c, 10, 67, 92
3, 38395, Note_on_c, 10, 67, 0
3, 38400, Program_c, 10, 27
3, 38640, Note_on_c, 10, 69, 92
3, 38720, Note_on_c, 10, 69, 0
3, 39000, Note_on_c, 10, 74, 92
3, 39080, Note_on_c, 10, 74, 0
3, 39360, Note_on_c, 10, 73, 92
3, 39440, Note_on_c, 10, 73, 0
3, 39480, Note_on_c, 10, 74, 92
3, 39560, Note_on_c, 10, 74, 0
3, 39600, Note_on_c, 10, 73, 92
3, 39680, Note_on_c, 10, 73, 0
3, 39720, Note_on_c, 10, 72, 92
3, 39800, Note_on_c, 10, 72, 0
3, 40320, Note_on_c, 10, 81, 92
3, 40400, Note_on_c, 10, 81, 0
3, 40560, Note_on_c, 10, 81, 92
3, 40640, Note_on_c, 10, 81, 0
3, 40680, Note_on_c, 10, 80, 92
3, 40760, Note_on_c, 10, 80, 0
3, 40920, Note_on_c, 10, 80, 92
3, 41000, Note_on_c, 10, 80, 0
3, 41040, Note_on_c, 10, 79, 92
3, 41120, Note_on_c, 10, 79, 0
3, 41280, Note_on_c, 10, 81, 92
3, 41360, Note_on_c, 10, 81, 0
3, 41520, Note_on_c, 10, 81, 92
3, 41600, Note_on_c, 10, 81, 0
3, 41640, Note_on_c, 10, 80, 92
3, 41720, Note_on_c, 10, 80, 0
3, 41880, Note_on_c, 10, 80, 92
3, 41960, Note_on_c, 10, 80, 0
3, 42000, Note_on_c, 10, 79, 92
3, 42080, Note_on_c, 10, 79, 0
3, 42480, Note_on_c, 10, 69, 92
3, 42560, Note_on_c, 10, 69, 0
3, 42840, Note_on_c, 10, 74, 92
3, 42920, Note_on_c, 10, 74, 0
3, 43200, Note_on_c, 10, 73, 92
3, 43280, Note_on_c, 10, 73, 0
3, 43320, Note_on_c, 10, 74, 92
3, 43400, Note_on_c, 10, 74, 0
3, 43440, Note_on_c, 10, 73, 92
3, 43520, Note_on_c, 10, 73, 0
3, 43560, Note_on_c, 10, 72, 92
3, 43640, Note_on_c, 10, 72, 0
3, 44160, Note_on_c, 10, 81, 92
3, 44240, Note_on_c, 10, 81, 0
3, 44400, Note_on_c, 10, 81, 92
3, 44480, Note_on_c, 10, 81, 0
3, 44520, Note_on_c, 10, 80, 92
3, 44600, Note_on_c, 10, 80, 0
3, 44760, Note_on_c, 10, 80, 92
3, 44840, Note_on_c, 10, 80, 0
3, 44880, Note_on_c, 10, 79, 92
3, 44960, Note_on_c, 10, 79, 0
3, 45120, Note_on_c, 10, 81, 92
3, 45200, Note_on_c, 10, 81, 0
3, 45360, Note_on_c, 10, 81, 92
3, 45440, Note_on_c, 10, 81, 0
3, 45480, Note_on_c, 10, 80, 92
3, 45560, Note_on_c, 10, 80, 0
3, 45720, Note_on_c, 10, 80, 92
3, 45800, Note_on_c, 10, 80, 0
3, 45840, Note_on_c, 10, 79, 92
3, 45920, Note_on_c, 10, 79, 0
3, 46080, Program_c, 10, 80
3, 46080, Note_on_c, 10, 70, 92
3, 46435, Note_on_c, 10, 70, 0
3, 46440, Note_on_c, 10, 73, 92
3, 46795, Note_on_c, 10, 73, 0
3, 46800, Note_on_c, 10, 76, 92
3, 46915, Note_on_c, 10, 76, 0
3, 47040, Note_on_c, 10, 74, 92
3, 47395, Note_on_c, 10, 74, 0
3, 47400, Note_on_c, 10, 69, 92
3, 47755, Note_on_c, 10, 69, 0
3, 47760, Note_on_c, 10, 65, 92
3, 47875, Note_on_c, 10, 65, 0
3, 48000, Note_on_c, 10, 70, 92
3, 48355, Note_on_c, 10, 70, 0
3, 48360, Note_on_c, 10, 73, 92
3, 48715, Note_on_c, 10, 73, 0
3, 48720, Note_on_c, 10, 76, 92
3, 48835, Note_on_c, 10, 76, 0
3, 48960, Note_on_c, 10, 74, 92
3, 49315, Note_on_c, 10, 74, 0
3, 49320, Note_on_c, 10, 69, 92
3, 49435, Note_on_c, 10, 69, 0
3, 49920, Note_on_c, 10, 70, 92
3, 50275, Note_on_c, 10, 70, 0
3, 50280, Note_on_c, 10, 73, 92
3, 50635, Note_on_c, 10, 73, 0
3, 50640, Note_on_c, 10, 76, 92
3, 50755, Note_on_c, 10, 76, 0
3, 50880, Note_on_c, 10, 74, 92
3, 51235, Note_on_c, 10, 74, 0
3, 51240, Note_on_c, 10, 69, 92
3, 51595, Note_on_c, 10, 69, 0
3, 51600, Note_on_c, 10, 65, 92
3, 51715, Note_on_c, 10, 65, 0
3, 51840, Note_on_c, 10, 70, 92
3, 52195, Note_on_c, 10, 70, 0
3, 52200, Note_on_c, 10, 73, 92
3, 52555, Note_on_c, 10, 73, 0
3, 52560, Note_on_c, 10, 76, 92
3, 52675, Note_on_c, 10, 76, 0
3, 52800, Note_on_c, 10, 73, 92
3, 53155, Note_on_c, 10, 73, 0
3, 53160, Note_on_c, 10, 76, 92
3, 53515, Note_on_c, 10, 76, 0
3, 53520, Note_on_c, 10, 79, 92
3, 53635, Note_on_c, 10, 79, 0
3, 53760, Note_on_c, 10, 81, 92
3, 53875, Note_on_c, 10, 81, 0
3, 53880, Note_on_c, 10, 81, 92
3, 53995, Note_on_c, 10, 81, 0
3, 54000, Note_on_c, 10, 69, 92
3, 54115, Note_on_c, 10, 69, 0
3, 54120, Note_on_c, 10, 69, 92
3, 55560, Note_on_c, 10, 69, 0
3, 55680, Note_on_c, 10, 53, 92
3, 55795, Note_on_c, 10, 53, 0
3, 55920, Note_on_c, 10, 53, 92
3, 56035, Note_on_c, 10, 53, 0
3, 56160, Note_on_c, 10, 58, 92
3, 56275, Note_on_c, 10, 58, 0
3, 56280, Note_on_c, 10, 62, 92
3, 56635, Note_on_c, 10, 62, 0
3, 56640, Note_on_c, 10, 55, 92
3, 56755, Note_on_c, 10, 55, 0
3, 56880, Note_on_c, 10, 55, 92
3, 56995, Note_on_c, 10, 55, 0
3, 57120, Note_on_c, 10, 60, 92
3, 57235, Note_on_c, 10, 60, 0
3, 57240, Note_on_c, 10, 64, 92
3, 57595, Note_on_c, 10, 64, 0
3, 57600, Note_on_c, 10, 81, 92
3, 57715, Note_on_c, 10, 81, 0
3, 57720, Note_on_c, 10, 81, 92
3, 57835, Note_on_c, 10, 81, 0
3, 57840, Note_on_c, 10, 69, 92
3, 57955, Note_on_c, 10, 69, 0
3, 57960, Note_on_c, 10, 69, 92
3, 59400, Note_on_c, 10, 69, 0
3, 59520, Note_on_c, 10, 53, 92
3, 59635, Note_on_c, 10, 53, 0
3, 59760, Note_on_c, 10, 53, 92
3, 59875, Note_on_c, 10, 53, 0
3, 60000, Note_on_c, 10, 58, 92
3, 60115, Note_on_c, 10, 58, 0
3, 60120, Note_on_c, 10, 62, 92
3, 60475, Note_on_c, 10, 62, 0
3, 60480, Note_on_c, 10, 55, 92
3, 60595, Note_on_c, 10, 55, 0
3, 61440, Program_c, 10, 84
3, 61440, Note_on_c, 10, 69, 92
3, 61555, Note_on_c, 10, 69, 0
3, 61560, Note_on_c, 10, 69, 92
3, 61675, Note_on_c, 10, 69, 0
3, 61800, Note_on_c, 10, 67, 92
3, 61915, Note_on_c, 10, 67, 0
3, 62040, Note_on_c, 10, 67, 92
3, 62680, Note_on_c, 10, 67, 0
3, 62760, Program_c, 10, 80
3, 62760, Note_on_c, 10, 62, 92
3, 62995, Note_on_c, 10, 62, 0
3, 63000, Note_on_c, 10, 62, 92
3, 63115, Note_on_c, 10, 62, 0
3, 63120, Note_on_c, 10, 60, 92
3, 63235, Note_on_c, 10, 60, 0
3, 63240, Note_on_c, 10, 60, 92
3, 63355, Note_on_c, 10, 60, 0
3, 63360, Note_on_c, 10, 62, 92
3, 63715, Note_on_c, 10, 62, 0
3, 63720, Note_on_c, 10, 58, 92
3, 64075, Note_on_c, 10, 58, 0
3, 64080, Note_on_c, 10, 62, 92
3, 64315, Note_on_c, 10, 62, 0
3, 64320, Note_on_c, 10, 60, 92
3, 64435, Note_on_c, 10, 60, 0
3, 64440, Note_on_c, 10, 67, 92
3, 65275, Note_on_c, 10, 67, 0
3, 65280, Program_c, 10, 84
3, 65280, Note_on_c, 10, 69, 92
3, 65395, Note_on_c, 10, 69, 0
3, 65400, Note_on_c, 10, 69, 92
3, 65515, Note_on_c, 10, 69, 0
3, 65640, Note_on_c, 10, 67, 92
3, 65755, Note_on_c, 10, 67, 0
3, 65880, Note_on_c, 10, 67, 92
3, 66520, Note_on_c, 10, 67, 0
3, 66600, Program_c, 10, 80
3, 66600, Note_on_c, 10, 62, 92
3, 66835, Note_on_c, 10, 62, 0
3, 66840, Note_on_c, 10, 62, 92
3, 66955, Note_on_c, 10, 62, 0
3, 66960, Note_on_c, 10, 60, 92
3, 67075, Note_on_c, 10, 60, 0
3, 67080, Note_on_c, 10, 60, 92
3, 67195, Note_on_c, 10, 60, 0
3, 67200, Note_on_c, 10, 62, 92
3, 67555, Note_on_c, 10, 62, 0
3, 67560, Note_on_c, 10, 58, 92
3, 67915, Note_on_c, 10, 58, 0
3, 67920, Note_on_c, 10, 62, 92
3, 68155, Note_on_c, 10, 62, 0
3, 68160, Note_on_c, 10, 60, 92
3, 68275, Note_on_c, 10, 60, 0
3, 68280, Note_on_c, 10, 67, 92
3, 69115, Note_on_c, 10, 67, 0
3, 69120, Program_c, 10, 27
3, 69360, Note_on_c, 10, 69, 92
3, 69440, Note_on_c, 10, 69, 0
3, 69720, Note_on_c, 10, 74, 92
3, 69800, Note_on_c, 10, 74, 0
3, 70080, Note_on_c, 10, 73, 92
3, 70160, Note_on_c, 10, 73, 0
3, 70200, Note_on_c, 10, 74, 92
3, 70280, Note_on_c, 10, 74, 0
3, 70320, Note_on_c, 10, 73, 92
3, 70400, Note_on_c, 10, 73, 0
3, 70440, Note_on_c, 10, 72, 92
3, 70520, Note_on_c, 10, 72, 0
3, 71040, Note_on_c, 10, 81, 92
3, 71120, Note_on_c, 10, 81, 0
3, 71280, Note_on_c, 10, 81, 92
3, 71360, Note_on_c, 10, 81, 0
3, 71400, Note_on_c, 10, 80, 92
3, 71480, Note_on_c, 10, 80, 0
3, 71640, Note_on_c, 10, 80, 92
3, 71720, Note_on_c, 10, 80, 0
3, 71760, Note_on_c, 10, 79, 92
3, 71840, Note_on_c, 10, 79, 0
3, 72000, Note_on_c, 10, 81, 92
3, 72080, Note_on_c, 10, 81, 0
3, 72240, Note_on_c, 10, 81, 92
3, 72320, Note_on_c, 10, 81, 0
3, 72360, Note_on_c, 10, 80, 92
3, 72440, Note_on_c, 10, 80, 0
3, 72600, Note_on_c, 10, 80, 92
3, 72680, Note_on_c, 10, 80, 0
3, 72720, Note_on_c, 10, 79, 92
3, 72800, Note_on_c, 10, 79, 0
3, 73200, Note_on_c, 10, 69, 92
3, 73280, Note_on_c, 10, 69, 0
3, 73560, Note_on_c, 10, 74, 92
3, 73640, Note_on_c, 10, 74, 0
3, 73920, Note_on_c, 10, 73, 92
3, 74000, Note_on_c, 10, 73, 0
3, 74040, Note_on_c, 10, 74, 92
3, 74120, Note_on_c, 10, 74, 0
3, 74160, Note_on_c, 10, 73, 92
3, 74240, Note_on_c, 10, 73, 0
3, 74280, Note_on_c, 10, 72, 92
3, 74360, Note_on_c, 10, 72, 0
3, 74880, Note_on_c, 10, 81, 92
3, 74960, Note_on_c, 10, 81, 0
3, 75120, Note_on_c, 10, 81, 92
3, 75200, Note_on_c, 10, 81, 0
3, 75240, Note_on_c, 10, 80, 92
3, 75320, Note_on_c, 10, 80, 0
3, 75480, Note_on_c, 10, 80, 92
3, 75560, Note_on_c, 10, 80, 0
3, 75600, Note_on_c, 10, 79, 92
3, 75680, Note_on_c, 10, 79, 0
3, 75840, Note_on_c, 10, 81, 92
3, 75920, Note_on_c, 10, 81, 0
3, 76080, Note_on_c, 10, 81, 92
3, 76160, Note_on_c, 10, 81, 0
3, 76200, Note_on_c, 10, 80, 92
3, 76280, Note_on_c, 10, 80, 0
3, 76440, Note_on_c, 10, 80, 92
3, 76520, Note_on_c, 10, 80, 0
3, 76560, Note_on_c, 10, 79, 92
3, 76640, Note_on_c, 10, 79, 0
3, 76800, Program_c, 10, 80
3, 76800, Note_on_c, 10, 70, 92
3, 77155, Note_on_c, 10, 70, 0
3, 77160, Note_on_c, 10, 73, 92
3, 77515, Note_on_c, 10, 73, 0
3, 77520, Note_on_c, 10, 76, 92
3, 77635, Note_on_c, 10, 76, 0
3, 77760, Note_on_c, 10, 74, 92
3, 78115, Note_on_c, 10, 74, 0
3, 78120, Note_on_c, 10, 69, 92
3, 78475, Note_on_c, 10, 69, 0
3, 78480, Note_on_c, 10, 65, 92
3, 78595, Note_on_c, 10, 65, 0
3, 78720, Note_on_c, 10, 70, 92
3, 79075, Note_on_c, 10, 70, 0
3, 79080, Note_on_c, 10, 73, 92
3, 79435, Note_on_c, 10, 73, 0
3, 79440, Note_on_c, 10, 76, 92
3, 79555, Note_on_c, 10, 76, 0
3, 79680, Note_on_c, 10, 74, 92
3, 80035, Note_on_c, 10, 74, 0
3, 80040, Note_on_c, 10, 69, 92
3, 80155, Note_on_c, 10, 69, 0
3, 80640, Note_on_c, 10, 70, 92
3, 80995, Note_on_c, 10, 70, 0
3, 81000, Note_on_c, 10, 73, 92
3, 81355, Note_on_c, 10, 73, 0
3, 81360, Note_on_c, 10, 76, 92
3, 81475, Note_on_c, 10, 76, 0
3, 81600, Note_on_c, 10, 74, 92
3, 81955, Note_on_c, 10, 74, 0
3, 81960, Note_on_c, 10, 69, 92
3, 82315, Note_on_c, 10, 69, 0
3, 82320, Note_on_c, 10, 65, 92
3, 82435, Note_on_c, 10, 65, 0
3, 82560, Note_on_c, 10, 70, 92
3, 82915, Note_on_c, 10, 70, 0
3, 82920, Note_on_c, 10, 73, 92
3, 83275, Note_on_c, 10, 73, 0
3, 83280, Note_on_c, 10, 76, 92
3, 83395, Note_on_c, 10, 76, 0
3, 83520, Note_on_c, 10, 73, 92
3, 83875, Note_on_c, 10, 73, 0
3, 83880, Note_on_c, 10, 76, 92
3, 84235, Note_on_c, 10, 76, 0
3, 84240, Note_on_c, 10, 79, 92
3, 84355, Note_on_c, 10, 79, 0
3, 84480, Note_on_c, 10, 81, 92
3, 84595, Note_on_c, 10, 81, 0
3, 84600, Note_on_c, 10, 81, 92
3, 84715, Note_on_c, 10, 81, 0
3, 84720, Note_on_c, 10, 69, 92
3, 84835, Note_on_c, 10, 69, 0
3, 84840, Note_on_c, 10, 69, 92
3, 86280, Note_on_c, 10, 69, 0
3, 86400, Note_on_c, 10, 53, 92
3, 86515, Note_on_c, 10, 53, 0
3, 86640, Note_on_c, 10, 53, 92
3, 86755, Note_on_c, 10, 53, 0
3, 86880, Note_on_c, 10, 58, 92
3, 86995, Note_on_c, 10, 58, 0
3, 87000, Note_on_c, 10, 62, 92
3, 87355, Note_on_c, 10, 62, 0
3, 87360, Note_on_c, 10, 55, 92
3, 87475, Note_on_c, 10, 55, 0
3, 87600, Note_on_c, 10, 55, 92
3, 87715, Note_on_c, 10, 55, 0
3, 87840, Note_on_c, 10, 60, 92
3, 87955, Note_on_c, 10, 60, 0
3, 87960, Note_on_c, 10, 64, 92
3, 88315, Note_on_c, 10, 64, 0
3, 88320, Note_on_c, 10, 81, 92
3, 88435, Note_on_c, 10, 81, 0
3, 88440, Note_on_c, 10, 81, 92
3, 88555, Note_on_c, 10, 81, 0
3, 88560, Note_on_c, 10, 69, 92
3, 88675, Note_on_c, 10, 69, 0
3, 88680, Note_on_c, 10, 69, 92
3, 90120, Note_on_c, 10, 69, 0
3, 90240, Note_on_c, 10, 53, 92
3, 90355, Note_on_c, 10, 53, 0
3, 90480, Note_on_c, 10, 53, 92
3, 90595, Note_on_c, 10, 53, 0
3, 90720, Note_on_c, 10, 58, 92
3, 90835, Note_on_c, 10, 58, 0
3, 90840, Note_on_c, 10, 62, 92
3, 91195, Note_on_c, 10, 62, 0
3, 91200, Note_on_c, 10, 55, 92
3, 91315, Note_on_c, 10, 55, 0
3, 91315, End_track
4, 0, Start_track
4, 0, Title_t, "Staff-3"
4, 0, Instrument_name_t, "Sync Lead"
4, 0, Program_c, 11, 84
4, 0, Control_c, 11, 7, 127
4, 0, Control_c, 11, 10, 64
4, 0, Note_on_c, 11, 74, 92
4, 115, Note_on_c, 11, 74, 0
4, 120, Note_on_c, 11, 74, 92
4, 235, Note_on_c, 11, 74, 0
4, 360, Note_on_c, 11, 72, 92
4, 475, Note_on_c, 11, 72, 0
4, 600, Note_on_c, 11, 71, 92
4, 1240, Note_on_c, 11, 71, 0
4, 1320, Program_c, 11, 80
4, 1320, Note_on_c, 11, 62, 92
4, 1555, Note_on_c, 11, 62, 0
4, 1560, Note_on_c, 11, 64, 92
4, 1675, Note_on_c, 11, 64, 0
4, 1680, Note_on_c, 11, 65, 92
4, 1795, Note_on_c, 11, 65, 0
4, 1800, Note_on_c, 11, 67, 92
4, 1915, Note_on_c, 11, 67, 0
4, 1920, Note_on_c, 11, 69, 92
4, 2275, Note_on_c, 11, 69, 0
4, 2280, Note_on_c, 11, 62, 92
4, 2635, Note_on_c, 11, 62, 0
4, 2640, Note_on_c, 11, 69, 92
4, 2875, Note_on_c, 11, 69, 0
4, 2880, Note_on_c, 11, 67, 92
4, 2995, Note_on_c, 11, 67, 0
4, 3000, Note_on_c, 11, 72, 92
4, 3835, Note_on_c, 11, 72, 0
4, 3840, Program_c, 11, 84
4, 3840, Note_on_c, 11, 74, 92
4, 3955, Note_on_c, 11, 74, 0
4, 3960, Note_on_c, 11, 74, 92
4, 4075, Note_on_c, 11, 74, 0
4, 4200, Note_on_c, 11, 72, 92
4, 4315, Note_on_c, 11, 72, 0
4, 4440, Note_on_c, 11, 71, 92
4, 5080, Note_on_c, 11, 71, 0
4, 5160, Program_c, 11, 80
4, 5160, Note_on_c, 11, 62, 92
4, 5395, Note_on_c, 11, 62, 0
4, 5400, Note_on_c, 11, 64, 92
4, 5515, Note_on_c, 11, 64, 0
4, 5520, Note_on_c, 11, 65, 92
4, 5635, Note_on_c, 11, 65, 0
4, 5640, Note_on_c, 11, 67, 92
4, 5755, Note_on_c, 11, 67, 0
4, 5760, Note_on_c, 11, 69, 92
4, 6115, Note_on_c, 11, 69, 0
4, 6120, Note_on_c, 11, 62, 92
4, 6475, Note_on_c, 11, 62, 0
4, 6480, Note_on_c, 11, 69, 92
4, 6715, Note_on_c, 11, 69, 0
4, 6720, Note_on_c, 11, 67, 92
4, 6835, Note_on_c, 11, 67, 0
4, 6840, Note_on_c, 11, 60, 92
4, 7675, Note_on_c, 11, 60, 0
4, 7680, Program_c, 11, 27
4, 7920, Note_on_c, 11, 74, 92
4, 8000, Note_on_c, 11, 74, 0
4, 8280, Note_on_c, 11, 81, 92
4, 8360, Note_on_c, 11, 81, 0
4, 8640, Note_on_c, 11, 80, 92
4, 8720, Note_on_c, 11, 80, 0
4, 8760, Note_on_c, 11, 81, 92
4, 8840, Note_on_c, 11, 81, 0
4, 8880, Note_on_c, 11, 80, 92
4, 8960, Note_on_c, 11, 80, 0
4, 9000, Note_on_c, 11, 77, 92
4, 9080, Note_on_c, 11, 77, 0
4, 9840, Note_on_c, 11, 77, 92
4, 9920, Note_on_c, 11, 77, 0
4, 9960, Note_on_c, 11, 74, 92
4, 10040, Note_on_c, 11, 74, 0
4, 10320, Note_on_c, 11, 65, 92
4, 10400, Note_on_c, 11, 65, 0
4, 10440, Note_on_c, 11, 62, 92
4, 10520, Note_on_c, 11, 62, 0
4, 10680, Note_on_c, 11, 77, 92
4, 10760, Note_on_c, 11, 77, 0
4, 10800, Note_on_c, 11, 74, 92
4, 10880, Note_on_c, 11, 74, 0
4, 10920, Note_on_c, 11, 77, 92
4, 11000, Note_on_c, 11, 77, 0
4, 11040, Note_on_c, 11, 74, 92
4, 11120, Note_on_c, 11, 74, 0
4, 11160, Note_on_c, 11, 77, 92
4, 11240, Note_on_c, 11, 77, 0
4, 11280, Note_on_c, 11, 74, 92
4, 11360, Note_on_c, 11, 74, 0
4, 11400, Note_on_c, 11, 77, 92
4, 11480, Note_on_c, 11, 77, 0
4, 11760, Note_on_c, 11, 74, 92
4, 11840, Note_on_c, 11, 74, 0
4, 12120, Note_on_c, 11, 81, 92
4, 12200, Note_on_c, 11, 81, 0
4, 12480, Note_on_c, 11, 80, 92
4, 12560, Note_on_c, 11, 80, 0
4, 12600, Note_on_c, 11, 81, 92
4, 12680, Note_on_c, 11, 81, 0
4, 12720, Note_on_c, 11, 80, 92
4, 12800, Note_on_c, 11, 80, 0
4, 12840, Note_on_c, 11, 77, 92
4, 12920, Note_on_c, 11, 77, 0
4, 13680, Note_on_c, 11, 77, 92
4, 13795, Note_on_c, 11, 77, 0
4, 13800, Note_on_c, 11, 74, 92
4, 13915, Note_on_c, 11, 74, 0
4, 14160, Note_on_c, 11, 65, 92
4, 14275, Note_on_c, 11, 65, 0
4, 14280, Note_on_c, 11, 62, 92
4, 14395, Note_on_c, 11, 62, 0
4, 14520, Note_on_c, 11, 77, 92
4, 14635, Note_on_c, 11, 77, 0
4, 14640, Note_on_c, 11, 74, 92
4, 14755, Note_on_c, 11, 74, 0
4, 14760, Note_on_c, 11, 77, 92
4, 14875, Note_on_c, 11, 77, 0
4, 14880, Note_on_c, 11, 74, 92
4, 14995, Note_on_c, 11, 74, 0
4, 15000, Note_on_c, 11, 77, 92
4, 15115, Note_on_c, 11, 77, 0
4, 15120, Note_on_c, 11, 74, 92
4, 15235, Note_on_c, 11, 74, 0
4, 15240, Note_on_c, 11, 77, 92
4, 15355, Note_on_c, 11, 77, 0
4, 15360, Program_c, 11, 80
4, 15360, Note_on_c, 11, 73, 92
4, 15715, Note_on_c, 11, 73, 0
4, 15720, Note_on_c, 11, 76, 92
4, 16075, Note_on_c, 11, 76, 0
4, 16080, Note_on_c, 11, 82, 92
4, 16195, Note_on_c, 11, 82, 0
4, 16320, Note_on_c, 11, 81, 92
4, 16675, Note_on_c, 11, 81, 0
4, 16680, Note_on_c, 11, 77, 92
4, 17035, Note_on_c, 11, 77, 0
4, 17040, Note_on_c, 11, 74, 92
4, 17155, Note_on_c, 11, 74, 0
4, 17280, Note_on_c, 11, 73, 92
4, 17635, Note_on_c, 11, 73, 0
4, 17640, Note_on_c, 11, 76, 92
4, 17995, Note_on_c, 11, 76, 0
4, 18000, Note_on_c, 11, 82, 92
4, 18115, Note_on_c, 11, 82, 0
4, 18240, Note_on_c, 11, 81, 92
4, 18595, Note_on_c, 11, 81, 0
4, 18600, Note_on_c, 11, 74, 92
4, 18715, Note_on_c, 11, 74, 0
4, 19200, Note_on_c, 11, 73, 92
4, 19555, Note_on_c, 11, 73, 0
4, 19560, Note_on_c, 11, 76, 92
4, 19915, Note_on_c, 11, 76, 0
4, 19920, Note_on_c, 11, 82, 92
4, 20035, Note_on_c, 11, 82, 0
4, 20160, Note_on_c, 11, 81, 92
4, 20515, Note_on_c, 11, 81, 0
4, 20520, Note_on_c, 11, 77, 92
4, 20875, Note_on_c, 11, 77, 0
4, 20880, Note_on_c, 11, 74, 92
4, 20995, Note_on_c, 11, 74, 0
4, 21120, Note_on_c, 11, 76, 92
4, 21475, Note_on_c, 11, 76, 0
4, 21480, Note_on_c, 11, 79, 92
4, 21835, Note_on_c, 11, 79, 0
4, 21840, Note_on_c, 11, 82, 92
4, 21955, Note_on_c, 11, 82, 0
4, 22080, Note_on_c, 11, 81, 92
4, 22435, Note_on_c, 11, 81, 0
4, 22440, Note_on_c, 11, 83, 92
4, 22795, Note_on_c, 11, 83, 0
4, 22800, Note_on_c, 11, 85, 92
4, 22915, Note_on_c, 11, 85, 0
4, 23040, Note_on_c, 11, 86, 92
4, 23155, Note_on_c, 11, 86, 0
4, 23160, Note_on_c, 11, 86, 92
4, 23275, Note_on_c, 11, 86, 0
4, 23280, Note_on_c, 11, 74, 92
4, 23395, Note_on_c, 11, 74, 0
4, 23400, Note_on_c, 11, 74, 92
4, 24840, Note_on_c, 11, 74, 0
4, 24960, Note_on_c, 11, 58, 92
4, 25075, Note_on_c, 11, 58, 0
4, 25200, Note_on_c, 11, 58, 92
4, 25315, Note_on_c, 11, 58, 0
4, 25440, Note_on_c, 11, 62, 92
4, 25555, Note_on_c, 11, 62, 0
4, 25560, Note_on_c, 11, 65, 92
4, 25915, Note_on_c, 11, 65, 0
4, 25920, Note_on_c, 11, 60, 92
4, 26035, Note_on_c, 11, 60, 0
4, 26160, Note_on_c, 11, 60, 92
4, 26275, Note_on_c, 11, 60, 0
4, 26400, Note_on_c, 11, 64, 92
4, 26515, Note_on_c, 11, 64, 0
4, 26520, Note_on_c, 11, 67, 92
4, 26875, Note_on_c, 11, 67, 0
4, 26880, Note_on_c, 11, 86, 92
4, 26995, Note_on_c, 11, 86, 0
4, 27000, Note_on_c, 11, 86, 92
4, 27115, Note_on_c, 11, 86, 0
4, 27120, Note_on_c, 11, 74, 92
4, 27235, Note_on_c, 11, 74, 0
4, 27240, Note_on_c, 11, 74, 92
4, 28680, Note_on_c, 11, 74, 0
4, 28800, Note_on_c, 11, 58, 92
4, 28915, Note_on_c, 11, 58, 0
4, 29040, Note_on_c, 11, 58, 92
4, 29155, Note_on_c, 11, 58, 0
4, 29280, Note_on_c, 11, 62, 92
4, 29395, Note_on_c, 11, 62, 0
4, 29400, Note_on_c, 11, 65, 92
4, 29755, Note_on_c, 11, 65, 0
4, 29760, Note_on_c, 11, 60, 92
4, 29875, Note_on_c, 11, 60, 0
4, 30240, Note_on_c, 11, 45, 92
4, 30355, Note_on_c, 11, 45, 0
4, 30360, Note_on_c, 11, 48, 92
4, 30715, Note_on_c, 11, 48, 0
4, 30720, Program_c, 11, 84
4, 30720, Note_on_c, 11, 74, 92
4, 30835, Note_on_c, 11, 74, 0
4, 30840, Note_on_c, 11, 74, 92
4, 30955, Note_on_c, 11, 74, 0
4, 31080, Note_on_c, 11, 72, 92
4, 31195, Note_on_c, 11, 72, 0
4, 31320, Note_on_c, 11, 71, 92
4, 31960, Note_on_c, 11, 71, 0
4, 32040, Program_c, 11, 80
4, 32040, Note_on_c, 11, 62, 92
4, 32275, Note_on_c, 11, 62, 0
4, 32280, Note_on_c, 11, 64, 92
4, 32395, Note_on_c, 11, 64, 0
4, 32400, Note_on_c, 11, 65, 92
4, 32515, Note_on_c, 11, 65, 0
4, 32520, Note_on_c, 11, 67, 92
4, 32635, Note_on_c, 11, 67, 0
4, 32640, Note_on_c, 11, 69, 92
4, 32995, Note_on_c, 11, 69, 0
4, 33000, Note_on_c, 11, 62, 92
4, 33355, Note_on_c, 11, 62, 0
4, 33360, Note_on_c, 11, 69, 92
4, 33595, Note_on_c, 11, 69, 0
4, 33600, Note_on_c, 11, 67, 92
4, 33715, Note_on_c, 11, 67, 0
4, 33720, Note_on_c, 11, 72, 92
4, 34555, Note_on_c, 11, 72, 0
4, 34560, Program_c, 11, 84
4, 34560, Note_on_c, 11, 74, 92
4, 34675, Note_on_c, 11, 74, 0
4, 34680, Note_on_c, 11, 74, 92
4, 34795, Note_on_c, 11, 74, 0
4, 34920, Note_on_c, 11, 72, 92
4, 35035, Note_on_c, 11, 72, 0
4, 35160, Note_on_c, 11, 71, 92
4, 35800, Note_on_c, 11, 71, 0
4, 35880, Program_c, 11, 80
4, 35880, Note_on_c, 11, 62, 92
4, 36115, Note_on_c, 11, 62, 0
4, 36120, Note_on_c, 11, 64, 92
4, 36235, Note_on_c, 11, 64, 0
4, 36240, Note_on_c, 11, 65, 92
4, 36355, Note_on_c, 11, 65, 0
4, 36360, Note_on_c, 11, 67, 92
4, 36475, Note_on_c, 11, 67, 0
4, 36480, Note_on_c, 11, 69, 92
4, 36835, Note_on_c, 11, 69, 0
4, 36840, Note_on_c, 11, 62, 92
4, 37195, Note_on_c, 11, 62, 0
4, 37200, Note_on_c, 11, 69, 92
4, 37435, Note_on_c, 11, 69, 0
4, 37440, Note_on_c, 11, 67, 92
4, 37555, Note_on_c, 11, 67, 0
4, 37560, Note_on_c, 11, 60, 92
4, 38395, Note_on_c, 11, 60, 0
4, 38400, Program_c, 11, 27
4, 38640, Note_on_c, 11, 74, 92
4, 38720, Note_on_c, 11, 74, 0
4, 39000, Note_on_c, 11, 81, 92
4, 39080, Note_on_c, 11, 81, 0
4, 39360, Note_on_c, 11, 80, 92
4, 39440, Note_on_c, 11, 80, 0
4, 39480, Note_on_c, 11, 81, 92
4, 39560, Note_on_c, 11, 81, 0
4, 39600, Note_on_c, 11, 80, 92
4, 39680, Note_on_c, 11, 80, 0
4, 39720, Note_on_c, 11, 77, 92
4, 39800, Note_on_c, 11, 77, 0
4, 40560, Note_on_c, 11, 77, 92
4, 40640, Note_on_c, 11, 77, 0
4, 40680, Note_on_c, 11, 74, 92
4, 40760, Note_on_c, 11, 74, 0
4, 41040, Note_on_c, 11, 65, 92
4, 41120, Note_on_c, 11, 65, 0
4, 41160, Note_on_c, 11, 62, 92
4, 41240, Note_on_c, 11, 62, 0
4, 41400, Note_on_c, 11, 77, 92
4, 41480, Note_on_c, 11, 77, 0
4, 41520, Note_on_c, 11, 74, 92
4, 41600, Note_on_c, 11, 74, 0
4, 41640, Note_on_c, 11, 77, 92
4, 41720, Note_on_c, 11, 77, 0
4, 41760, Note_on_c, 11, 74, 92
4, 41840, Note_on_c, 11, 74, 0
4, 41880, Note_on_c, 11, 77, 92
4, 41960, Note_on_c, 11, 77, 0
4, 42000, Note_on_c, 11, 74, 92
4, 42080, Note_on_c, 11, 74, 0
4, 42120, Note_on_c, 11, 77, 92
4, 42200, Note_on_c, 11, 77, 0
4, 42480, Note_on_c, 11, 74, 92
4, 42560, Note_on_c, 11, 74, 0
4, 42840, Note_on_c, 11, 81, 92
4, 42920, Note_on_c, 11, 81, 0
4, 43200, Note_on_c, 11, 80, 92
4, 43280, Note_on_c, 11, 80, 0
4, 43320, Note_on_c, 11, 81, 92
4, 43400, Note_on_c, 11, 81, 0
4, 43440, Note_on_c, 11, 80, 92
4, 43520, Note_on_c, 11, 80, 0
4, 43560, Note_on_c, 11, 77, 92
4, 43640, Note_on_c, 11, 77, 0
4, 44400, Note_on_c, 11, 77, 92
4, 44515, Note_on_c, 11, 77, 0
4, 44520, Note_on_c, 11, 74, 92
4, 44635, Note_on_c, 11, 74, 0
4, 44880, Note_on_c, 11, 65, 92
4, 44995, Note_on_c, 11, 65, 0
4, 45000, Note_on_c, 11, 62, 92
4, 45115, Note_on_c, 11, 62, 0
4, 45240, Note_on_c, 11, 77, 92
4, 45355, Note_on_c, 11, 77, 0
4, 45360, Note_on_c, 11, 74, 92
4, 45475, Note_on_c, 11, 74, 0
4, 45480, Note_on_c, 11, 77, 92
4, 45595, Note_on_c, 11, 77, 0
4, 45600, Note_on_c, 11, 74, 92
4, 45715, Note_on_c, 11, 74, 0
4, 45720, Note_on_c, 11, 77, 92
4, 45835, Note_on_c, 11, 77, 0
4, 45840, Note_on_c, 11, 74, 92
4, 45955, Note_on_c, 11, 74, 0
4, 45960, Note_on_c, 11, 77, 92
4, 46075, Note_on_c, 11, 77, 0
4, 46080, Program_c, 11, 80
4, 46080, Note_on_c, 11, 73, 92
4, 46435, Note_on_c, 11, 73, 0
4, 46440, Note_on_c, 11, 76, 92
4, 46795, Note_on_c, 11, 76, 0
4, 46800, Note_on_c, 11, 82, 92
4, 46915, Note_on_c, 11, 82, 0
4, 47040, Note_on_c, 11, 81, 92
4, 47395, Note_on_c, 11, 81, 0
4, 47400, Note_on_c, 11, 77, 92
4, 47755, Note_on_c, 11, 77, 0
4, 47760, Note_on_c, 11, 74, 92
4, 47875, Note_on_c, 11, 74, 0
4, 48000, Note_on_c, 11, 73, 92
4, 48355, Note_on_c, 11, 73, 0
4, 48360, Note_on_c, 11, 76, 92
4, 48715, Note_on_c, 11, 76, 0
4, 48720, Note_on_c, 11, 82, 92
4, 48835, Note_on_c, 11, 82, 0
4, 48960, Note_on_c, 11, 81, 92
4, 49315, Note_on_c, 11, 81, 0
4, 49320, Note_on_c, 11, 74, 92
4, 49435, Note_on_c, 11, 74, 0
4, 49920, Note_on_c, 11, 73, 92
4, 50275, Note_on_c, 11, 73, 0
4, 50280, Note_on_c, 11, 76, 92
4, 50635, Note_on_c, 11, 76, 0
4, 50640, Note_on_c, 11, 82, 92
4, 50755, Note_on_c, 11, 82, 0
4, 50880, Note_on_c, 11, 81, 92
4, 51235, Note_on_c, 11, 81, 0
4, 51240, Note_on_c, 11, 77, 92
4, 51595, Note_on_c, 11, 77, 0
4, 51600, Note_on_c, 11, 74, 92
4, 51715, Note_on_c, 11, 74, 0
4, 51840, Note_on_c, 11, 76, 92
4, 52195, Note_on_c, 11, 76, 0
4, 52200, Note_on_c, 11, 79, 92
4, 52555, Note_on_c, 11, 79, 0
4, 52560, Note_on_c, 11, 82, 92
4, 52675, Note_on_c, 11, 82, 0
4, 52800, Note_on_c, 11, 81, 92
4, 53155, Note_on_c, 11, 81, 0
4, 53160, Note_on_c, 11, 83, 92
4, 53515, Note_on_c, 11, 83, 0
4, 53520, Note_on_c, 11, 85, 92
4, 53635, Note_on_c, 11, 85, 0
4, 53760, Note_on_c, 11, 86, 92
4, 53875, Note_on_c, 11, 86, 0
4, 53880, Note_on_c, 11, 86, 92
4, 53995, Note_on_c, 11, 86, 0
4, 54000, Note_on_c, 11, 74, 92
4, 54115, Note_on_c, 11, 74, 0
4, 54120, Note_on_c, 11, 74, 92
4, 55560, Note_on_c, 11, 74, 0
4, 55680, Note_on_c, 11, 58, 92
4, 55795, Note_on_c, 11, 58, 0
4, 55920, Note_on_c, 11, 58, 92
4, 56035, Note_on_c, 11, 58, 0
4, 56160, Note_on_c, 11, 62, 92
4, 56275, Note_on_c, 11, 62, 0
4, 56280, Note_on_c, 11, 65, 92
4, 56635, Note_on_c, 11, 65, 0
4, 56640, Note_on_c, 11, 60, 92
4, 56755, Note_on_c, 11, 60, 0
4, 56880, Note_on_c, 11, 60, 92
4, 56995, Note_on_c, 11, 60, 0
4, 57120, Note_on_c, 11, 64, 92
4, 57235, Note_on_c, 11, 64, 0
4, 57240, Note_on_c, 11, 67, 92
4, 57595, Note_on_c, 11, 67, 0
4, 57600, Note_on_c, 11, 86, 92
4, 57715, Note_on_c, 11, 86, 0
4, 57720, Note_on_c, 11, 86, 92
4, 57835, Note_on_c, 11, 86, 0
4, 57840, Note_on_c, 11, 74, 92
4, 57955, Note_on_c, 11, 74, 0
4, 57960, Note_on_c, 11, 74, 92
4, 59400, Note_on_c, 11, 74, 0
4, 59520, Note_on_c, 11, 58, 92
4, 59635, Note_on_c, 11, 58, 0
4, 59760, Note_on_c, 11, 58, 92
4, 59875, Note_on_c, 11, 58, 0
4, 60000, Note_on_c, 11, 62, 92
4, 60115, Note_on_c, 11, 62, 0
4, 60120, Note_on_c, 11, 65, 92
4, 60475, Note_on_c, 11, 65, 0
4, 60480, Note_on_c, 11, 60, 92
4, 60595, Note_on_c, 11, 60, 0
4, 60960, Note_on_c, 11, 45, 92
4, 61075, Note_on_c, 11, 45, 0
4, 61080, Note_on_c, 11, 48, 92
4, 61435, Note_on_c, 11, 48, 0
4, 61440, Program_c, 11, 84
4, 61440, Note_on_c, 11, 74, 92
4, 61555, Note_on_c, 11, 74, 0
4, 61560, Note_on_c, 11, 74, 92
4, 61675, Note_on_c, 11, 74, 0
4, 61800, Note_on_c, 11, 72, 92
4, 61915, Note_on_c, 11, 72, 0
4, 62040, Note_on_c, 11, 71, 92
4, 62680, Note_on_c, 11, 71, 0
4, 62760, Program_c, 11, 80
4, 62760, Note_on_c, 11, 62, 92
4, 62995, Note_on_c, 11, 62, 0
4, 63000, Note_on_c, 11, 64, 92
4, 63115, Note_on_c, 11, 64, 0
4, 63120, Note_on_c, 11, 65, 92
4, 63235, Note_on_c, 11, 65, 0
4, 63240, Note_on_c, 11, 67, 92
4, 63355, Note_on_c, 11, 67, 0
4, 63360, Note_on_c, 11, 69, 92
4, 63715, Note_on_c, 11, 69, 0
4, 63720, Note_on_c, 11, 62, 92
4, 64075, Note_on_c, 11, 62, 0
4, 64080, Note_on_c, 11, 69, 92
4, 64315, Note_on_c, 11, 69, 0
4, 64320, Note_on_c, 11, 67, 92
4, 64435, Note_on_c, 11, 67, 0
4, 64440, Note_on_c, 11, 72, 92
4, 65275, Note_on_c, 11, 72, 0
4, 65280, Program_c, 11, 84
4, 65280, Note_on_c, 11, 74, 92
4, 65395, Note_on_c, 11, 74, 0
4, 65400, Note_on_c, 11, 74, 92
4, 65515, Note_on_c, 11, 74, 0
4, 65640, Note_on_c, 11, 72, 92
4, 65755, Note_on_c, 11, 72, 0
4, 65880, Note_on_c, 11, 71, 92
4, 66520, Note_on_c, 11, 71, 0
4, 66600, Program_c, 11, 80
4, 66600, Note_on_c, 11, 62, 92
4, 66835, Note_on_c, 11, 62, 0
4, 66840, Note_on_c, 11, 64, 92
4, 66955, Note_on_c, 11, 64, 0
4, 66960, Note_on_c, 11, 65, 92
4, 67075, Note_on_c, 11, 65, 0
4, 67080, Note_on_c, 11, 67, 92
4, 67195, Note_on_c, 11, 67, 0
4, 67200, Note_on_c, 11, 69, 92
4, 67555, Note_on_c, 11, 69, 0
4, 67560, Note_on_c, 11, 62, 92
4, 67915, Note_on_c, 11, 62, 0
4, 67920, Note_on_c, 11, 69, 92
4, 68155, Note_on_c, 11, 69, 0
4, 68160, Note_on_c, 11, 67, 92
4, 68275, Note_on_c, 11, 67, 0
4, 68280, Note_on_c, 11, 60, 92
4, 69115, Note_on_c, 11, 60, 0
4, 69120, Program_c, 11, 27
4, 69360, Note_on_c, 11, 74, 92
4, 69440, Note_on_c, 11, 74, 0
4, 69720, Note_on_c, 11, 81, 92
4, 69800, Note_on_c, 11, 81, 0
4, 70080, Note_on_c, 11, 80, 92
4, 70160, Note_on_c, 11, 80, 0
4, 70200, Note_on_c, 11, 81, 92
4, 70280, Note_on_c, 11, 81, 0
4, 70320, Note_on_c, 11, 80, 92
4, 70400, Note_on_c, 11, 80, 0
4, 70440, Note_on_c, 11, 77, 92
4, 70520, Note_on_c, 11, 77, 0
4, 71280, Note_on_c, 11, 77, 92
4, 71360, Note_on_c, 11, 77, 0
4, 71400, Note_on_c, 11, 74, 92
4, 71480, Note_on_c, 11, 74, 0
4, 71760, Note_on_c, 11, 65, 92
4, 71840, Note_on_c, 11, 65, 0
4, 71880, Note_on_c, 11, 62, 92
4, 71960, Note_on_c, 11, 62, 0
4, 72120, Note_on_c, 11, 77, 92
4, 72200, Note_on_c, 11, 77, 0
4, 72240, Note_on_c, 11, 74, 92
4, 72320, Note_on_c, 11, 74, 0
4, 72360, Note_on_c, 11, 77, 92
4, 72440, Note_on_c, 11, 77, 0
4, 72480, Note_on_c, 11, 74, 92
4, 72560, Note_on_c, 11, 74, 0
4, 72600, Note_on_c, 11, 77, 92
4, 72680, Note_on_c, 11, 77, 0
4, 72720, Note_on_c, 11, 74, 92
4, 72800, Note_on_c, 11, 74, 0
4, 72840, Note_on_c, 11, 77, 92
4, 72920, Note_on_c, 11, 77, 0
4, 73200, Note_on_c, 11, 74, 92
4, 73280, Note_on_c, 11, 74, 0
4, 73560, Note_on_c, 11, 81, 92
4, 73640, Note_on_c, 11, 81, 0
4, 73920, Note_on_c, 11, 80, 92
4, 74000, Note_on_c, 11, 80, 0
4, 74040, Note_on_c, 11, 81, 92
4, 74120, Note_on_c, 11, 81, 0
4, 74160, Note_on_c, 11, 80, 92
4, 74240, Note_on_c, 11, 80, 0
4, 74280, Note_on_c, 11, 77, 92
4, 74360, Note_on_c, 11, 77, 0
4, 75120, Note_on_c, 11, 77, 92
4, 75235, Note_on_c, 11, 77, 0
4, 75240, Note_on_c, 11, 74, 92
4, 75355, Note_on_c, 11, 74, 0
4, 75600, Note_on_c, 11, 65, 92
4, 75715, Note_on_c, 11, 65, 0
4, 75720, Note_on_c, 11, 62, 92
4, 75835, Note_on_c, 11, 62, 0
4, 75960, Note_on_c, 11, 77, 92
4, 76075, Note_on_c, 11, 77, 0
4, 76080, Note_on_c, 11, 74, 92
4, 76195, Note_on_c, 11, 74, 0
4, 76200, Note_on_c, 11, 77, 92
4, 76315, Note_on_c, 11, 77, 0
4, 76320, Note_on_c, 11, 74, 92
4, 76435, Note_on_c, 11, 74, 0
4, 76440, Note_on_c, 11, 77, 92
4, 76555, Note_on_c, 11, 77, 0
4, 76560, Note_on_c, 11, 74, 92
4, 76675, Note_on_c, 11, 74, 0
4, 76680, Note_on_c, 11, 77, 92
4, 76795, Note_on_c, 11, 77, 0
4, 76800, Program_c, 11, 80
4, 76800, Note_on_c, 11, 73, 92
4, 77155, Note_on_c, 11, 73, 0
4, 77160, Note_on_c, 11, 76, 92
4, 77515, Note_on_c, 11, 76, 0
4, 77520, Note_on_c, 11, 82, 92
4, 77635, Note_on_c, 11, 82, 0
4, 77760, Note_on_c, 11, 81, 92
4, 78115, Note_on_c, 11, 81, 0
4, 78120, Note_on_c, 11, 77, 92
4, 78475, Note_on_c, 11, 77, 0
4, 78480, Note_on_c, 11, 74, 92
4, 78595, Note_on_c, 11, 74, 0
4, 78720, Note_on_c, 11, 73, 92
4, 79075, Note_on_c, 11, 73, 0
4, 79080, Note_on_c, 11, 76, 92
4, 79435, Note_on_c, 11, 76, 0
4, 79440, Note_on_c, 11, 82, 92
4, 79555, Note_on_c, 11, 82, 0
4, 79680, Note_on_c, 11, 81, 92
4, 80035, Note_on_c, 11, 81, 0
4, 80040, Note_on_c, 11, 74, 92
4, 80155, Note_on_c, 11, 74, 0
4, 80640, Note_on_c, 11, 73, 92
4, 80995, Note_on_c, 11, 73, 0
4, 81000, Note_on_c, 11, 76, 92
4, 81355, Note_on_c, 11, 76, 0
4, 81360, Note_on_c, 11, 82, 92
4, 81475, Note_on_c, 11, 82, 0
4, 81600, Note_on_c, 11, 81, 92
4, 81955, Note_on_c, 11, 81, 0
4, 81960, Note_on_c, 11, 77, 92
4, 82315, Note_on_c, 11, 77, 0
4, 82320, Note_on_c, 11, 74, 92
4, 82435, Note_on_c, 11, 74, 0
4, 82560, Note_on_c, 11, 76, 92
4, 82915, Note_on_c, 11, 76, 0
4, 82920, Note_on_c, 11, 79, 92
4, 83275, Note_on_c, 11, 79, 0
4, 83280, Note_on_c, 11, 82, 92
4, 83395, Note_on_c, 11, 82, 0
4, 83520, Note_on_c, 11, 81, 92
4, 83875, Note_on_c, 11, 81, 0
4, 83880, Note_on_c, 11, 83, 92
4, 84235, Note_on_c, 11, 83, 0
4, 84240, Note_on_c, 11, 85, 92
4, 84355, Note_on_c, 11, 85, 0
4, 84480, Note_on_c, 11, 86, 92
4, 84595, Note_on_c, 11, 86, 0
4, 84600, Note_on_c, 11, 86, 92
4, 84715, Note_on_c, 11, 86, 0
4, 84720, Note_on_c, 11, 74, 92
4, 84835, Note_on_c, 11, 74, 0
4, 84840, Note_on_c, 11, 74, 92
4, 86280, Note_on_c, 11, 74, 0
4, 86400, Note_on_c, 11, 58, 92
4, 86515, Note_on_c, 11, 58, 0
4, 86640, Note_on_c, 11, 58, 92
4, 86755, Note_on_c, 11, 58, 0
4, 86880, Note_on_c, 11, 62, 92
4, 86995, Note_on_c, 11, 62, 0
4, 87000, Note_on_c, 11, 65, 92
4, 87355, Note_on_c, 11, 65, 0
4, 87360, Note_on_c, 11, 60, 92
4, 87475, Note_on_c, 11, 60, 0
4, 87600, Note_on_c, 11, 60, 92
4, 87715, Note_on_c, 11, 60, 0
4, 87840, Note_on_c, 11, 64, 92
4, 87955, Note_on_c, 11, 64, 0
4, 87960, Note_on_c, 11, 67, 92
4, 88315, Note_on_c, 11, 67, 0
4, 88320, Note_on_c, 11, 86, 92
4, 88435, Note_on_c, 11, 86, 0
4, 88440, Note_on_c, 11, 86, 92
4, 88555, Note_on_c, 11, 86, 0
4, 88560, Note_on_c, 11, 74, 92
4, 88675, Note_on_c, 11, 74, 0
4, 88680, Note_on_c, 11, 74, 92
4, 90120, Note_on_c, 11, 74, 0
4, 90240, Note_on_c, 11, 58, 92
4, 90355, Note_on_c, 11, 58, 0
4, 90480, Note_on_c, 11, 58, 92
4, 90595, Note_on_c, 11, 58, 0
4, 90720, Note_on_c, 11, 62, 92
4, 90835, Note_on_c, 11, 62, 0
4, 90840, Note_on_c, 11, 65, 92
4, 91195, Note_on_c, 11, 65, 0
4, 91200, Note_on_c, 11, 60, 92
4, 91315, Note_on_c, 11, 60, 0
4, 91680, Note_on_c, 11, 45, 92
4, 91795, Note_on_c, 11, 45, 0
4, 91800, Note_on_c, 11, 48, 92
4, 92155, Note_on_c, 11, 48, 0
4, 92155, End_track
5, 0, Start_track
5, 0, Title_t, "Staff-4"
5, 0, Instrument_name_t, "Fingerstyle Bass"
5, 0, Program_c, 12, 33
5, 0, Control_c, 12, 7, 127
5, 0, Control_c, 12, 10, 64
5, 0, Note_on_c, 12, 38, 92
5, 115, Note_on_c, 12, 38, 0
5, 240, Note_on_c, 12, 38, 92
5, 355, Note_on_c, 12, 38, 0
5, 360, Note_on_c, 12, 38, 92
5, 475, Note_on_c, 12, 38, 0
5, 480, Note_on_c, 12, 38, 92
5, 595, Note_on_c, 12, 38, 0
5, 840, Note_on_c, 12, 38, 92
5, 955, Note_on_c, 12, 38, 0
5, 960, Note_on_c, 12, 38, 92
5, 1075, Note_on_c, 12, 38, 0
5, 1200, Note_on_c, 12, 38, 92
5, 1315, Note_on_c, 12, 38, 0
5, 1320, Note_on_c, 12, 38, 92
5, 1435, Note_on_c, 12, 38, 0
5, 1440, Note_on_c, 12, 38, 92
5, 1555, Note_on_c, 12, 38, 0
5, 1560, Note_on_c, 12, 38, 92
5, 1675, Note_on_c, 12, 38, 0
5, 1680, Note_on_c, 12, 38, 92
5, 1795, Note_on_c, 12, 38, 0
5, 1800, Note_on_c, 12, 38, 92
5, 1915, Note_on_c, 12, 38, 0
5, 1920, Note_on_c, 12, 34, 92
5, 2035, Note_on_c, 12, 34, 0
5, 2160, Note_on_c, 12, 34, 92
5, 2275, Note_on_c, 12, 34, 0
5, 2280, Note_on_c, 12, 34, 92
5, 2395, Note_on_c, 12, 34, 0
5, 2400, Note_on_c, 12, 46, 92
5, 2515, Note_on_c, 12, 46, 0
5, 2880, Note_on_c, 12, 36, 92
5, 2995, Note_on_c, 12, 36, 0
5, 3000, Note_on_c, 12, 36, 92
5, 3115, Note_on_c, 12, 36, 0
5, 3120, Note_on_c, 12, 48, 92
5, 3235, Note_on_c, 12, 48, 0
5, 3240, Note_on_c, 12, 36, 92
5, 3355, Note_on_c, 12, 36, 0
5, 3360, Note_on_c, 12, 36, 92
5, 3475, Note_on_c, 12, 36, 0
5, 3480, Note_on_c, 12, 36, 92
5, 3595, Note_on_c, 12, 36, 0
5, 3600, Note_on_c, 12, 36, 92
5, 3715, Note_on_c, 12, 36, 0
5, 3720, Note_on_c, 12, 36, 92
5, 3835, Note_on_c, 12, 36, 0
5, 3840, Note_on_c, 12, 38, 92
5, 3955, Note_on_c, 12, 38, 0
5, 4080, Note_on_c, 12, 38, 92
5, 4195, Note_on_c, 12, 38, 0
5, 4200, Note_on_c, 12, 38, 92
5, 4315, Note_on_c, 12, 38, 0
5, 4320, Note_on_c, 12, 38, 92
5, 4435, Note_on_c, 12, 38, 0
5, 4680, Note_on_c, 12, 38, 92
5, 4795, Note_on_c, 12, 38, 0
5, 4800, Note_on_c, 12, 38, 92
5, 4915, Note_on_c, 12, 38, 0
5, 5040, Note_on_c, 12, 38, 92
5, 5155, Note_on_c, 12, 38, 0
5, 5160, Note_on_c, 12, 38, 92
5, 5275, Note_on_c, 12, 38, 0
5, 5280, Note_on_c, 12, 38, 92
5, 5395, Note_on_c, 12, 38, 0
5, 5400, Note_on_c, 12, 38, 92
5, 5515, Note_on_c, 12, 38, 0
5, 5520, Note_on_c, 12, 38, 92
5, 5635, Note_on_c, 12, 38, 0
5, 5640, Note_on_c, 12, 38, 92
5, 5755, Note_on_c, 12, 38, 0
5, 5760, Note_on_c, 12, 34, 92
5, 5875, Note_on_c, 12, 34, 0
5, 6000, Note_on_c, 12, 34, 92
5, 6115, Note_on_c, 12, 34, 0
5, 6120, Note_on_c, 12, 34, 92
5, 6235, Note_on_c, 12, 34, 0
5, 6240, Note_on_c, 12, 46, 92
5, 6355, Note_on_c, 12, 46, 0
5, 6720, Note_on_c, 12, 36, 92
5, 6835, Note_on_c, 12, 36, 0
5, 6840, Note_on_c, 12, 36, 92
5, 6955, Note_on_c, 12, 36, 0
5, 6960, Note_on_c, 12, 48, 92
5, 7075, Note_on_c, 12, 48, 0
5, 7080, Note_on_c, 12, 36, 92
5, 7195, Note_on_c, 12, 36, 0
5, 7200, Note_on_c, 12, 36, 92
5, 7315, Note_on_c, 12, 36, 0
5, 7320, Note_on_c, 12, 36, 92
5, 7435, Note_on_c, 12, 36, 0
5, 7440, Note_on_c, 12, 36, 92
5, 7555, Note_on_c, 12, 36, 0
5, 7560, Note_on_c, 12, 36, 92
5, 7675, Note_on_c, 12, 36, 0
5, 7680, Note_on_c, 12, 38, 92
5, 7795, Note_on_c, 12, 38, 0
5, 7920, Note_on_c, 12, 38, 92
5, 8035, Note_on_c, 12, 38, 0
5, 8040, Note_on_c, 12, 38, 92
5, 8155, Note_on_c, 12, 38, 0
5, 8160, Note_on_c, 12, 38, 92
5, 8275, Note_on_c, 12, 38, 0
5, 8520, Note_on_c, 12, 38, 92
5, 8635, Note_on_c, 12, 38, 0
5, 8640, Note_on_c, 12, 38, 92
5, 8755, Note_on_c, 12, 38, 0
5, 8880, Note_on_c, 12, 38, 92
5, 8995, Note_on_c, 12, 38, 0
5, 9000, Note_on_c, 12, 38, 92
5, 9115, Note_on_c, 12, 38, 0
5, 9120, Note_on_c, 12, 38, 92
5, 9235, Note_on_c, 12, 38, 0
5, 9240, Note_on_c, 12, 38, 92
5, 9355, Note_on_c, 12, 38, 0
5, 9360, Note_on_c, 12, 38, 92
5, 9475, Note_on_c, 12, 38, 0
5, 9480, Note_on_c, 12, 38, 92
5, 9595, Note_on_c, 12, 38, 0
5, 9600, Note_on_c, 12, 34, 92
5, 9715, Note_on_c, 12, 34, 0
5, 9840, Note_on_c, 12, 34, 92
5, 9955, Note_on_c, 12, 34, 0
5, 9960, Note_on_c, 12, 34, 92
5, 10075, Note_on_c, 12, 34, 0
5, 10080, Note_on_c, 12, 46, 92
5, 10195, Note_on_c, 12, 46, 0
5, 10200, Note_on_c, 12, 34, 92
5, 10315, Note_on_c, 12, 34, 0
5, 10440, Note_on_c, 12, 34, 92
5, 10555, Note_on_c, 12, 34, 0
5, 10680, Note_on_c, 12, 34, 92
5, 10795, Note_on_c, 12, 34, 0
5, 10800, Note_on_c, 12, 46, 92
5, 10915, Note_on_c, 12, 46, 0
5, 11040, Note_on_c, 12, 46, 92
5, 11155, Note_on_c, 12, 46, 0
5, 11280, Note_on_c, 12, 46, 92
5, 11395, Note_on_c, 12, 46, 0
5, 11520, Note_on_c, 12, 38, 92
5, 11635, Note_on_c, 12, 38, 0
5, 11760, Note_on_c, 12, 38, 92
5, 11875, Note_on_c, 12, 38, 0
5, 11880, Note_on_c, 12, 38, 92
5, 11995, Note_on_c, 12, 38, 0
5, 12000, Note_on_c, 12, 38, 92
5, 12115, Note_on_c, 12, 38, 0
5, 12360, Note_on_c, 12, 38, 92
5, 12475, Note_on_c, 12, 38, 0
5, 12480, Note_on_c, 12, 38, 92
5, 12595, Note_on_c, 12, 38, 0
5, 12720, Note_on_c, 12, 38, 92
5, 12835, Note_on_c, 12, 38, 0
5, 12840, Note_on_c, 12, 38, 92
5, 12955, Note_on_c, 12, 38, 0
5, 12960, Note_on_c, 12, 38, 92
5, 13075, Note_on_c, 12, 38, 0
5, 13080, Note_on_c, 12, 38, 92
5, 13195, Note_on_c, 12, 38, 0
5, 13200, Note_on_c, 12, 38, 92
5, 13315, Note_on_c, 12, 38, 0
5, 13320, Note_on_c, 12, 38, 92
5, 13435, Note_on_c, 12, 38, 0
5, 13440, Note_on_c, 12, 34, 92
5, 13555, Note_on_c, 12, 34, 0
5, 13680, Note_on_c, 12, 34, 92
5, 13795, Note_on_c, 12, 34, 0
5, 13800, Note_on_c, 12, 34, 92
5, 13915, Note_on_c, 12, 34, 0
5, 13920, Note_on_c, 12, 46, 92
5, 14035, Note_on_c, 12, 46, 0
5, 14040, Note_on_c, 12, 34, 92
5, 14155, Note_on_c, 12, 34, 0
5, 14280, Note_on_c, 12, 34, 92
5, 14395, Note_on_c, 12, 34, 0
5, 14520, Note_on_c, 12, 34, 92
5, 14635, Note_on_c, 12, 34, 0
5, 14640, Note_on_c, 12, 46, 92
5, 14755, Note_on_c, 12, 46, 0
5, 14880, Note_on_c, 12, 46, 92
5, 14995, Note_on_c, 12, 46, 0
5, 15120, Note_on_c, 12, 46, 92
5, 15235, Note_on_c, 12, 46, 0
5, 15360, Note_on_c, 12, 37, 92
5, 16200, Note_on_c, 12, 37, 0
5, 16320, Note_on_c, 12, 38, 92
5, 17160, Note_on_c, 12, 38, 0
5, 17280, Note_on_c, 12, 40, 92
5, 18120, Note_on_c, 12, 40, 0
5, 18240, Note_on_c, 12, 38, 92
5, 19080, Note_on_c, 12, 38, 0
5, 19200, Note_on_c, 12, 37, 92
5, 20040, Note_on_c, 12, 37, 0
5, 20160, Note_on_c, 12, 38, 92
5, 21000, Note_on_c, 12, 38, 0
5, 21120, Note_on_c, 12, 40, 92
5, 21960, Note_on_c, 12, 40, 0
5, 22080, Note_on_c, 12, 45, 92
5, 22920, Note_on_c, 12, 45, 0
5, 23040, Note_on_c, 12, 38, 92
5, 23155, Note_on_c, 12, 38, 0
5, 23280, Note_on_c, 12, 38, 92
5, 23395, Note_on_c, 12, 38, 0
5, 23640, Note_on_c, 12, 38, 92
5, 23755, Note_on_c, 12, 38, 0
5, 23760, Note_on_c, 12, 36, 92
5, 23995, Note_on_c, 12, 36, 0
5, 24000, Note_on_c, 12, 38, 92
5, 24115, Note_on_c, 12, 38, 0
5, 24960, Note_on_c, 12, 34, 92
5, 25075, Note_on_c, 12, 34, 0
5, 25200, Note_on_c, 12, 34, 92
5, 25315, Note_on_c, 12, 34, 0
5, 25920, Note_on_c, 12, 36, 92
5, 26035, Note_on_c, 12, 36, 0
5, 26160, Note_on_c, 12, 36, 92
5, 26275, Note_on_c, 12, 36, 0
5, 26880, Note_on_c, 12, 38, 92
5, 26995, Note_on_c, 12, 38, 0
5, 27120, Note_on_c, 12, 38, 92
5, 27235, Note_on_c, 12, 38, 0
5, 27480, Note_on_c, 12, 38, 92
5, 27595, Note_on_c, 12, 38, 0
5, 27600, Note_on_c, 12, 36, 92
5, 27835, Note_on_c, 12, 36, 0
5, 27840, Note_on_c, 12, 38, 92
5, 27955, Note_on_c, 12, 38, 0
5, 28800, Note_on_c, 12, 34, 92
5, 28915, Note_on_c, 12, 34, 0
5, 29040, Note_on_c, 12, 34, 92
5, 29155, Note_on_c, 12, 34, 0
5, 29760, Note_on_c, 12, 36, 92
5, 29875, Note_on_c, 12, 36, 0
5, 30000, Note_on_c, 12, 36, 92
5, 30115, Note_on_c, 12, 36, 0
5, 30240, Note_on_c, 12, 33, 92
5, 30355, Note_on_c, 12, 33, 0
5, 30360, Note_on_c, 12, 36, 92
5, 30715, Note_on_c, 12, 36, 0
5, 30720, Program_c, 12, 33
5, 30720, Note_on_c, 12, 38, 92
5, 30835, Note_on_c, 12, 38, 0
5, 30960, Note_on_c, 12, 38, 92
5, 31075, Note_on_c, 12, 38, 0
5, 31080, Note_on_c, 12, 38, 92
5, 31195, Note_on_c, 12, 38, 0
5, 31200, Note_on_c, 12, 38, 92
5, 31315, Note_on_c, 12, 38, 0
5, 31560, Note_on_c, 12, 38, 92
5, 31675, Note_on_c, 12, 38, 0
5, 31680, Note_on_c, 12, 38, 92
5, 31795, Note_on_c, 12, 38, 0
5, 31920, Note_on_c, 12, 38, 92
5, 32035, Note_on_c, 12, 38, 0
5, 32040, Note_on_c, 12, 38, 92
5, 32155, Note_on_c, 12, 38, 0
5, 32160, Note_on_c, 12, 38, 92
5, 32275, Note_on_c, 12, 38, 0
5, 32280, Note_on_c, 12, 38, 92
5, 32395, Note_on_c, 12, 38, 0
5, 32400, Note_on_c, 12, 38, 92
5, 32515, Note_on_c, 12, 38, 0
5, 32520, Note_on_c, 12, 38, 92
5, 32635, Note_on_c, 12, 38, 0
5, 32640, Note_on_c, 12, 34, 92
5, 32755, Note_on_c, 12, 34, 0
5, 32880, Note_on_c, 12, 34, 92
5, 32995, Note_on_c, 12, 34, 0
5, 33000, Note_on_c, 12, 34, 92
5, 33115, Note_on_c, 12, 34, 0
5, 33120, Note_on_c, 12, 46, 92
5, 33235, Note_on_c, 12, 46, 0
5, 33600, Note_on_c, 12, 36, 92
5, 33715, Note_on_c, 12, 36, 0
5, 33720, Note_on_c, 12, 36, 92
5, 33835, Note_on_c, 12, 36, 0
5, 33840, Note_on_c, 12, 48, 92
5, 33955, Note_on_c, 12, 48, 0
5, 33960, Note_on_c, 12, 36, 92
5, 34075, Note_on_c, 12, 36, 0
5, 34080, Note_on_c, 12, 36, 92
5, 34195, Note_on_c, 12, 36, 0
5, 34200, Note_on_c, 12, 36, 92
5, 34315, Note_on_c, 12, 36, 0
5, 34320, Note_on_c, 12, 36, 92
5, 34435, Note_on_c, 12, 36, 0
5, 34440, Note_on_c, 12, 36, 92
5, 34555, Note_on_c, 12, 36, 0
5, 34560, Note_on_c, 12, 38, 92
5, 34675, Note_on_c, 12, 38, 0
5, 34800, Note_on_c, 12, 38, 92
5, 34915, Note_on_c, 12, 38, 0
5, 34920, Note_on_c, 12, 38, 92
5, 35035, Note_on_c, 12, 38, 0
5, 35040, Note_on_c, 12, 38, 92
5, 35155, Note_on_c, 12, 38, 0
5, 35400, Note_on_c, 12, 38, 92
5, 35515, Note_on_c, 12, 38, 0
5, 35520, Note_on_c, 12, 38, 92
5, 35635, Note_on_c, 12, 38, 0
5, 35760, Note_on_c, 12, 38, 92
5, 35875, Note_on_c, 12, 38, 0
5, 35880, Note_on_c, 12, 38, 92
5, 35995, Note_on_c, 12, 38, 0
5, 36000, Note_on_c, 12, 38, 92
5, 36115, Note_on_c, 12, 38, 0
5, 36120, Note_on_c, 12, 38, 92
5, 36235, Note_on_c, 12, 38, 0
5, 36240, Note_on_c, 12, 38, 92
5, 36355, Note_on_c, 12, 38, 0
5, 36360, Note_on_c, 12, 38, 92
5, 36475, Note_on_c, 12, 38, 0
5, 36480, Note_on_c, 12, 34, 92
5, 36595, Note_on_c, 12, 34, 0
5, 36720, Note_on_c, 12, 34, 92
5, 36835, Note_on_c, 12, 34, 0
5, 36840, Note_on_c, 12, 34, 92
5, 36955, Note_on_c, 12, 34, 0
5, 36960, Note_on_c, 12, 46, 92
5, 37075, Note_on_c, 12, 46, 0
5, 37440, Note_on_c, 12, 36, 92
5, 37555, Note_on_c, 12, 36, 0
5, 37560, Note_on_c, 12, 36, 92
5, 37675, Note_on_c, 12, 36, 0
5, 37680, Note_on_c, 12, 48, 92
5, 37795, Note_on_c, 12, 48, 0
5, 37800, Note_on_c, 12, 36, 92
5, 37915, Note_on_c, 12, 36, 0
5, 37920, Note_on_c, 12, 36, 92
5, 38035, Note_on_c, 12, 36, 0
5, 38040, Note_on_c, 12, 36, 92
5, 38155, Note_on_c, 12, 36, 0
5, 38160, Note_on_c, 12, 36, 92
5, 38275, Note_on_c, 12, 36, 0
5, 38280, Note_on_c, 12, 36, 92
5, 38395, Note_on_c, 12, 36, 0
5, 38400, Note_on_c, 12, 38, 92
5, 38515, Note_on_c, 12, 38, 0
5, 38640, Note_on_c, 12, 38, 92
5, 38755, Note_on_c, 12, 38, 0
5, 38760, Note_on_c, 12, 38, 92
5, 38875, Note_on_c, 12, 38, 0
5, 38880, Note_on_c, 12, 38, 92
5, 38995, Note_on_c, 12, 38, 0
5, 39240, Note_on_c, 12, 38, 92
5, 39355, Note_on_c, 12, 38, 0
5, 39360, Note_on_c, 12, 38, 92
5, 39475, Note_on_c, 12, 38, 0
5, 39600, Note_on_c, 12, 38, 92
5, 39715, Note_on_c, 12, 38, 0
5, 39720, Note_on_c, 12, 38, 92
5, 39835, Note_on_c, 12, 38, 0
5, 39840, Note_on_c, 12, 38, 92
5, 39955, Note_on_c, 12, 38, 0
5, 39960, Note_on_c, 12, 38, 92
5, 40075, Note_on_c, 12, 38, 0
5, 40080, Note_on_c, 12, 38, 92
5, 40195, Note_on_c, 12, 38, 0
5, 40200, Note_on_c, 12, 38, 92
5, 40315, Note_on_c, 12, 38, 0
5, 40320, Note_on_c, 12, 34, 92
5, 40435, Note_on_c, 12, 34, 0
5, 40560, Note_on_c, 12, 34, 92
5, 40675, Note_on_c, 12, 34, 0
5, 40680, Note_on_c, 12, 34, 92
5, 40795, Note_on_c, 12, 34, 0
5, 40800, Note_on_c, 12, 46, 92
5, 40915, Note_on_c, 12, 46, 0
5, 40920, Note_on_c, 12, 34, 92
5, 41035, Note_on_c, 12, 34, 0
5, 41160, Note_on_c, 12, 34, 92
5, 41275, Note_on_c, 12, 34, 0
5, 41400, Note_on_c, 12, 34, 92
5, 41515, Note_on_c, 12, 34, 0
5, 41520, Note_on_c, 12, 46, 92
5, 41635, Note_on_c, 12, 46, 0
5, 41760, Note_on_c, 12, 46, 92
5, 41875, Note_on_c, 12, 46, 0
5, 42000, Note_on_c, 12, 46, 92
5, 42115, Note_on_c, 12, 46, 0
5, 42240, Note_on_c, 12, 38, 92
5, 42355, Note_on_c, 12, 38, 0
5, 42480, Note_on_c, 12, 38, 92
5, 42595, Note_on_c, 12, 38, 0
5, 42600, Note_on_c, 12, 38, 92
5, 42715, Note_on_c, 12, 38, 0
5, 42720, Note_on_c, 12, 38, 92
5, 42835, Note_on_c, 12, 38, 0
5, 43080, Note_on_c, 12, 38, 92
5, 43195, Note_on_c, 12, 38, 0
5, 43200, Note_on_c, 12, 38, 92
5, 43315, Note_on_c, 12, 38, 0
5, 43440, Note_on_c, 12, 38, 92
5, 43555, Note_on_c, 12, 38, 0
5, 43560, Note_on_c, 12, 38, 92
5, 43675, Note_on_c, 12, 38, 0
5, 43680, Note_on_c, 12, 38, 92
5, 43795, Note_on_c, 12, 38, 0
5, 43800, Note_on_c, 12, 38, 92
5, 43915, Note_on_c, 12, 38, 0
5, 43920, Note_on_c, 12, 38, 92
5, 44035, Note_on_c, 12, 38, 0
5, 44040, Note_on_c, 12, 38, 92
5, 44155, Note_on_c, 12, 38, 0
5, 44160, Note_on_c, 12, 34, 92
5, 44275, Note_on_c, 12, 34, 0
5, 44400, Note_on_c, 12, 34, 92
5, 44515, Note_on_c, 12, 34, 0
5, 44520, Note_on_c, 12, 34, 92
5, 44635, Note_on_c, 12, 34, 0
5, 44640, Note_on_c, 12, 46, 92
5, 44755, Note_on_c, 12, 46, 0
5, 44760, Note_on_c, 12, 34, 92
5, 44875, Note_on_c, 12, 34, 0
5, 45000, Note_on_c, 12, 34, 92
5, 45115, Note_on_c, 12, 34, 0
5, 45240, Note_on_c, 12, 34, 92
5, 45355, Note_on_c, 12, 34, 0
5, 45360, Note_on_c, 12, 46, 92
5, 45475, Note_on_c, 12, 46, 0
5, 45600, Note_on_c, 12, 46, 92
5, 45715, Note_on_c, 12, 46, 0
5, 45840, Note_on_c, 12, 46, 92
5, 45955, Note_on_c, 12, 46, 0
5, 46080, Note_on_c, 12, 37, 92
5, 46920, Note_on_c, 12, 37, 0
5, 47040, Note_on_c, 12, 38, 92
5, 47880, Note_on_c, 12, 38, 0
5, 48000, Note_on_c, 12, 40, 92
5, 48840, Note_on_c, 12, 40, 0
5, 48960, Note_on_c, 12, 38, 92
5, 49800, Note_on_c, 12, 38, 0
5, 49920, Note_on_c, 12, 37, 92
5, 50760, Note_on_c, 12, 37, 0
5, 50880, Note_on_c, 12, 38, 92
5, 51720, Note_on_c, 12, 38, 0
5, 51840, Note_on_c, 12, 40, 92
5, 52680, Note_on_c, 12, 40, 0
5, 52800, Note_on_c, 12, 45, 92
5, 53640, Note_on_c, 12, 45, 0
5, 53760, Note_on_c, 12, 38, 92
5, 53875, Note_on_c, 12, 38, 0
5, 54000, Note_on_c, 12, 38, 92
5, 54115, Note_on_c, 12, 38, 0
5, 54360, Note_on_c, 12, 38, 92
5, 54475, Note_on_c, 12, 38, 0
5, 54480, Note_on_c, 12, 36, 92
5, 54715, Note_on_c, 12, 36, 0
5, 54720, Note_on_c, 12, 38, 92
5, 54835, Note_on_c, 12, 38, 0
5, 55680, Note_on_c, 12, 34, 92
5, 55795, Note_on_c, 12, 34, 0
5, 55920, Note_on_c, 12, 34, 92
5, 56035, Note_on_c, 12, 34, 0
5, 56640, Note_on_c, 12, 36, 92
5, 56755, Note_on_c, 12, 36, 0
5, 56880, Note_on_c, 12, 36, 92
5, 56995, Note_on_c, 12, 36, 0
5, 57600, Note_on_c, 12, 38, 92
5, 57715, Note_on_c, 12, 38, 0
5, 57840, Note_on_c, 12, 38, 92
5, 57955, Note_on_c, 12, 38, 0
5, 58200, Note_on_c, 12, 38, 92
5, 58315, Note_on_c, 12, 38, 0
5, 58320, Note_on_c, 12, 36, 92
5, 58555, Note_on_c, 12, 36, 0
5, 58560, Note_on_c, 12, 38, 92
5, 58675, Note_on_c, 12, 38, 0
5, 59520, Note_on_c, 12, 34, 92
5, 59635, Note_on_c, 12, 34, 0
5, 59760, Note_on_c, 12, 34, 92
5, 59875, Note_on_c, 12, 34, 0
5, 60480, Note_on_c, 12, 36, 92
5, 60595, Note_on_c, 12, 36, 0
5, 60720, Note_on_c, 12, 36, 92
5, 60835, Note_on_c, 12, 36, 0
5, 60960, Note_on_c, 12, 33, 92
5, 61075, Note_on_c, 12, 33, 0
5, 61080, Note_on_c, 12, 36, 92
5, 61435, Note_on_c, 12, 36, 0
5, 61440, Program_c, 12, 33
5, 61440, Note_on_c, 12, 38, 92
5, 61555, Note_on_c, 12, 38, 0
5, 61680, Note_on_c, 12, 38, 92
5, 61795, Note_on_c, 12, 38, 0
5, 61800, Note_on_c, 12, 38, 92
5, 61915, Note_on_c, 12, 38, 0
5, 61920, Note_on_c, 12, 38, 92
5, 62035, Note_on_c, 12, 38, 0
5, 62280, Note_on_c, 12, 38, 92
5, 62395, Note_on_c, 12, 38, 0
5, 62400, Note_on_c, 12, 38, 92
5, 62515, Note_on_c, 12, 38, 0
5, 62640, Note_on_c, 12, 38, 92
5, 62755, Note_on_c, 12, 38, 0
5, 62760, Note_on_c, 12, 38, 92
5, 62875, Note_on_c, 12, 38, 0
5, 62880, Note_on_c, 12, 38, 92
5, 62995, Note_on_c, 12, 38, 0
5, 63000, Note_on_c, 12, 38, 92
5, 63115, Note_on_c, 12, 38, 0
5, 63120, Note_on_c, 12, 38, 92
5, 63235, Note_on_c, 12, 38, 0
5, 63240, Note_on_c, 12, 38, 92
5, 63355, Note_on_c, 12, 38, 0
5, 63360, Note_on_c, 12, 34, 92
5, 63475, Note_on_c, 12, 34, 0
5, 63600, Note_on_c, 12, 34, 92
5, 63715, Note_on_c, 12, 34, 0
5, 63720, Note_on_c, 12, 34, 92
5, 63835, Note_on_c, 12, 34, 0
5, 63840, Note_on_c, 12, 46, 92
5, 63955, Note_on_c, 12, 46, 0
5, 64320, Note_on_c, 12, 36, 92
5, 64435, Note_on_c, 12, 36, 0
5, 64440, Note_on_c, 12, 36, 92
5, 64555, Note_on_c, 12, 36, 0
5, 64560, Note_on_c, 12, 48, 92
5, 64675, Note_on_c, 12, 48, 0
5, 64680, Note_on_c, 12, 36, 92
5, 64795, Note_on_c, 12, 36, 0
5, 64800, Note_on_c, 12, 36, 92
5, 64915, Note_on_c, 12, 36, 0
5, 64920, Note_on_c, 12, 36, 92
5, 65035, Note_on_c, 12, 36, 0
5, 65040, Note_on_c, 12, 36, 92
5, 65155, Note_on_c, 12, 36, 0
5, 65160, Note_on_c, 12, 36, 92
5, 65275, Note_on_c, 12, 36, 0
5, 65280, Note_on_c, 12, 38, 92
5, 65395, Note_on_c, 12, 38, 0
5, 65520, Note_on_c, 12, 38, 92
5, 65635, Note_on_c, 12, 38, 0
5, 65640, Note_on_c, 12, 38, 92
5, 65755, Note_on_c, 12, 38, 0
5, 65760, Note_on_c, 12, 38, 92
5, 65875, Note_on_c, 12, 38, 0
5, 66120, Note_on_c, 12, 38, 92
5, 66235, Note_on_c, 12, 38, 0
5, 66240, Note_on_c, 12, 38, 92
5, 66355, Note_on_c, 12, 38, 0
5, 66480, Note_on_c, 12, 38, 92
5, 66595, Note_on_c, 12, 38, 0
5, 66600, Note_on_c, 12, 38, 92
5, 66715, Note_on_c, 12, 38, 0
5, 66720, Note_on_c, 12, 38, 92
5, 66835, Note_on_c, 12, 38, 0
5, 66840, Note_on_c, 12, 38, 92
5, 66955, Note_on_c, 12, 38, 0
5, 66960, Note_on_c, 12, 38, 92
5, 67075, Note_on_c, 12, 38, 0
5, 67080, Note_on_c, 12, 38, 92
5, 67195, Note_on_c, 12, 38, 0
5, 67200, Note_on_c, 12, 34, 92
5, 67315, Note_on_c, 12, 34, 0
5, 67440, Note_on_c, 12, 34, 92
5, 67555, Note_on_c, 12, 34, 0
5, 67560, Note_on_c, 12, 34, 92
5, 67675, Note_on_c, 12, 34, 0
5, 67680, Note_on_c, 12, 46, 92
5, 67795, Note_on_c, 12, 46, 0
5, 68160, Note_on_c, 12, 36, 92
5, 68275, Note_on_c, 12, 36, 0
5, 68280, Note_on_c, 12, 36, 92
5, 68395, Note_on_c, 12, 36, 0
5, 68400, Note_on_c, 12, 48, 92
5, 68515, Note_on_c, 12, 48, 0
5, 68520, Note_on_c, 12, 36, 92
5, 68635, Note_on_c, 12, 36, 0
5, 68640, Note_on_c, 12, 36, 92
5, 68755, Note_on_c, 12, 36, 0
5, 68760, Note_on_c, 12, 36, 92
5, 68875, Note_on_c, 12, 36, 0
5, 68880, Note_on_c, 12, 36, 92
5, 68995, Note_on_c, 12, 36, 0
5, 69000, Note_on_c, 12, 36, 92
5, 69115, Note_on_c, 12, 36, 0
5, 69120, Note_on_c, 12, 38, 92
5, 69235, Note_on_c, 12, 38, 0
5, 69360, Note_on_c, 12, 38, 92
5, 69475, Note_on_c, 12, 38, 0
5, 69480, Note_on_c, 12, 38, 92
5, 69595, Note_on_c, 12, 38, 0
5, 69600, Note_on_c, 12, 38, 92
5, 69715, Note_on_c, 12, 38, 0
5, 69960, Note_on_c, 12, 38, 92
5, 70075, Note_on_c, 12, 38, 0
5, 70080, Note_on_c, 12, 38, 92
5, 70195, Note_on_c, 12, 38, 0
5, 70320, Note_on_c, 12, 38, 92
5, 70435, Note_on_c, 12, 38, 0
5, 70440, Note_on_c, 12, 38, 92
5, 70555, Note_on_c, 12, 38, 0
5, 70560, Note_on_c, 12, 38, 92
5, 70675, Note_on_c, 12, 38, 0
5, 70680, Note_on_c, 12, 38, 92
5, 70795, Note_on_c, 12, 38, 0
5, 70800, Note_on_c, 12, 38, 92
5, 70915, Note_on_c, 12, 38, 0
5, 70920, Note_on_c, 12, 38, 92
5, 71035, Note_on_c, 12, 38, 0
5, 71040, Note_on_c, 12, 34, 92
5, 71155, Note_on_c, 12, 34, 0
5, 71280, Note_on_c, 12, 34, 92
5, 71395, Note_on_c, 12, 34, 0
5, 71400, Note_on_c, 12, 34, 92
5, 71515, Note_on_c, 12, 34, 0
5, 71520, Note_on_c, 12, 46, 92
5, 71635, Note_on_c, 12, 46, 0
5, 71640, Note_on_c, 12, 34, 92
5, 71755, Note_on_c, 12, 34, 0
5, 71880, Note_on_c, 12, 34, 92
5, 71995, Note_on_c, 12, 34, 0
5, 72120, Note_on_c, 12, 34, 92
5, 72235, Note_on_c, 12, 34, 0
5, 72240, Note_on_c, 12, 46, 92
5, 72355, Note_on_c, 12, 46, 0
5, 72480, Note_on_c, 12, 46, 92
5, 72595, Note_on_c, 12, 46, 0
5, 72720, Note_on_c, 12, 46, 92
5, 72835, Note_on_c, 12, 46, 0
5, 72960, Note_on_c, 12, 38, 92
5, 73075, Note_on_c, 12, 38, 0
5, 73200, Note_on_c, 12, 38, 92
5, 73315, Note_on_c, 12, 38, 0
5, 73320, Note_on_c, 12, 38, 92
5, 73435, Note_on_c, 12, 38, 0
5, 73440, Note_on_c, 12, 38, 92
5, 73555, Note_on_c, 12, 38, 0
5, 73800, Note_on_c, 12, 38, 92
5, 73915, Note_on_c, 12, 38, 0
5, 73920, Note_on_c, 12, 38, 92
5, 74035, Note_on_c, 12, 38, 0
5, 74160, Note_on_c, 12, 38, 92
5, 74275, Note_on_c, 12, 38, 0
5, 74280, Note_on_c, 12, 38, 92
5, 74395, Note_on_c, 12, 38, 0
5, 74400, Note_on_c, 12, 38, 92
5, 74515, Note_on_c, 12, 38, 0
5, 74520, Note_on_c, 12, 38, 92
5, 74635, Note_on_c, 12, 38, 0
5, 74640, Note_on_c, 12, 38, 92
5, 74755, Note_on_c, 12, 38, 0
5, 74760, Note_on_c, 12, 38, 92
5, 74875, Note_on_c, 12, 38, 0
5, 74880, Note_on_c, 12, 34, 92
5, 74995, Note_on_c, 12, 34, 0
5, 75120, Note_on_c, 12, 34, 92
5, 75235, Note_on_c, 12, 34, 0
5, 75240, Note_on_c, 12, 34, 92
5, 75355, Note_on_c, 12, 34, 0
5, 75360, Note_on_c, 12, 46, 92
5, 75475, Note_on_c, 12, 46, 0
5, 75480, Note_on_c, 12, 34, 92
5, 75595, Note_on_c, 12, 34, 0
5, 75720, Note_on_c, 12, 34, 92
5, 75835, Note_on_c, 12, 34, 0
5, 75960, Note_on_c, 12, 34, 92
5, 76075, Note_on_c, 12, 34, 0
5, 76080, Note_on_c, 12, 46, 92
5, 76195, Note_on_c, 12, 46, 0
5, 76320, Note_on_c, 12, 46, 92
5, 76435, Note_on_c, 12, 46, 0
5, 76560, Note_on_c, 12, 46, 92
5, 76675, Note_on_c, 12, 46, 0
5, 76800, Note_on_c, 12, 37, 92
5, 77640, Note_on_c, 12, 37, 0
5, 77760, Note_on_c, 12, 38, 92
5, 78600, Note_on_c, 12, 38, 0
5, 78720, Note_on_c, 12, 40, 92
5, 79560, Note_on_c, 12, 40, 0
5, 79680, Note_on_c, 12, 38, 92
5, 80520, Note_on_c, 12, 38, 0
5, 80640, Note_on_c, 12, 37, 92
5, 81480, Note_on_c, 12, 37, 0
5, 81600, Note_on_c, 12, 38, 92
5, 82440, Note_on_c, 12, 38, 0
5, 82560, Note_on_c, 12, 40, 92
5, 83400, Note_on_c, 12, 40, 0
5, 83520, Note_on_c, 12, 45, 92
5, 84360, Note_on_c, 12, 45, 0
5, 84480, Note_on_c, 12, 38, 92
5, 84595, Note_on_c, 12, 38, 0
5, 84720, Note_on_c, 12, 38, 92
5, 84835, Note_on_c, 12, 38, 0
5, 85080, Note_on_c, 12, 38, 92
5, 85195, Note_on_c, 12, 38, 0
5, 85200, Note_on_c, 12, 36, 92
5, 85435, Note_on_c, 12, 36, 0
5, 85440, Note_on_c, 12, 38, 92
5, 85555, Note_on_c, 12, 38, 0
5, 86400, Note_on_c, 12, 34, 92
5, 86515, Note_on_c, 12, 34, 0
5, 86640, Note_on_c, 12, 34, 92
5, 86755, Note_on_c, 12, 34, 0
5, 87360, Note_on_c, 12, 36, 92
5, 87475, Note_on_c, 12, 36, 0
5, 87600, Note_on_c, 12, 36, 92
5, 87715, Note_on_c, 12, 36, 0
5, 88320, Note_on_c, 12, 38, 92
5, 88435, Note_on_c, 12, 38, 0
5, 88560, Note_on_c, 12, 38, 92
5, 88675, Note_on_c, 12, 38, 0
5, 88920, Note_on_c, 12, 38, 92
5, 89035, Note_on_c, 12, 38, 0
5, 89040, Note_on_c, 12, 36, 92
5, 89275, Note_on_c, 12, 36, 0
5, 89280, Note_on_c, 12, 38, 92
5, 89395, Note_on_c, 12, 38, 0
5, 90240, Note_on_c, 12, 34, 92
5, 90355, Note_on_c, 12, 34, 0
5, 90480, Note_on_c, 12, 34, 92
5, 90595, Note_on_c, 12, 34, 0
5, 91200, Note_on_c, 12, 36, 92
5, 91315, Note_on_c, 12, 36, 0
5, 91440, Note_on_c, 12, 36, 92
5, 91555, Note_on_c, 12, 36, 0
5, 91680, Note_on_c, 12, 33, 92
5, 91795, Note_on_c, 12, 33, 0
5, 91800, Note_on_c, 12, 36, 92
5, 92155, Note_on_c, 12, 36, 0
5, 92155, End_track
6, 0, Start_track
6, 0, Title_t, "Staff-5"
6, 0, Instrument_name_t, "Sync Lead"
6, 0, Program_c, 13, 84
6, 0, Control_c, 13, 7, 127
6, 0, Control_c, 13, 10, 64
6, 120, Note_on_c, 13, 69, 45
6, 235, Note_on_c, 13, 69, 0
6, 240, Note_on_c, 13, 69, 45
6, 355, Note_on_c, 13, 69, 0
6, 480, Note_on_c, 13, 67, 45
6, 595, Note_on_c, 13, 67, 0
6, 720, Note_on_c, 13, 67, 45
6, 1360, Note_on_c, 13, 67, 0
6, 1440, Program_c, 13, 80
6, 1440, Note_on_c, 13, 62, 45
6, 1675, Note_on_c, 13, 62, 0
6, 1680, Note_on_c, 13, 62, 45
6, 1795, Note_on_c, 13, 62, 0
6, 1800, Note_on_c, 13, 60, 45
6, 1915, Note_on_c, 13, 60, 0
6, 1920, Note_on_c, 13, 60, 45
6, 2035, Note_on_c, 13, 60, 0
6, 2040, Note_on_c, 13, 62, 45
6, 2395, Note_on_c, 13, 62, 0
6, 2400, Note_on_c, 13, 58, 45
6, 2755, Note_on_c, 13, 58, 0
6, 2760, Note_on_c, 13, 62, 45
6, 2995, Note_on_c, 13, 62, 0
6, 3000, Note_on_c, 13, 60, 45
6, 3115, Note_on_c, 13, 60, 0
6, 3120, Note_on_c, 13, 67, 45
6, 3955, Note_on_c, 13, 67, 0
6, 3960, Program_c, 13, 84
6, 3960, Note_on_c, 13, 69, 45
6, 4075, Note_on_c, 13, 69, 0
6, 4080, Note_on_c, 13, 69, 45
6, 4195, Note_on_c, 13, 69, 0
6, 4320, Note_on_c, 13, 67, 45
6, 4435, Note_on_c, 13, 67, 0
6, 4560, Note_on_c, 13, 67, 45
6, 5200, Note_on_c, 13, 67, 0
6, 5280, Program_c, 13, 80
6, 5280, Note_on_c, 13, 62, 45
6, 5515, Note_on_c, 13, 62, 0
6, 5520, Note_on_c, 13, 62, 45
6, 5635, Note_on_c, 13, 62, 0
6, 5640, Note_on_c, 13, 60, 45
6, 5755, Note_on_c, 13, 60, 0
6, 5760, Note_on_c, 13, 60, 45
6, 5875, Note_on_c, 13, 60, 0
6, 5880, Note_on_c, 13, 62, 45
6, 6235, Note_on_c, 13, 62, 0
6, 6240, Note_on_c, 13, 58, 45
6, 6595, Note_on_c, 13, 58, 0
6, 6600, Note_on_c, 13, 62, 45
6, 6835, Note_on_c, 13, 62, 0
6, 6840, Note_on_c, 13, 60, 45
6, 6955, Note_on_c, 13, 60, 0
6, 6960, Note_on_c, 13, 67, 45
6, 7795, Note_on_c, 13, 67, 0
6, 7800, Program_c, 13, 27
6, 8040, Note_on_c, 13, 69, 45
6, 8120, Note_on_c, 13, 69, 0
6, 8400, Note_on_c, 13, 74, 45
6, 8480, Note_on_c, 13, 74, 0
6, 8760, Note_on_c, 13, 73, 45
6, 8840, Note_on_c, 13, 73, 0
6, 8880, Note_on_c, 13, 74, 45
6, 8960, Note_on_c, 13, 74, 0
6, 9000, Note_on_c, 13, 73, 45
6, 9080, Note_on_c, 13, 73, 0
6, 9120, Note_on_c, 13, 72, 45
6, 9200, Note_on_c, 13, 72, 0
6, 9720, Note_on_c, 13, 81, 45
6, 9800, Note_on_c, 13, 81, 0
6, 9960, Note_on_c, 13, 81, 45
6, 10040, Note_on_c, 13, 81, 0
6, 10080, Note_on_c, 13, 80, 45
6, 10160, Note_on_c, 13, 80, 0
6, 10320, Note_on_c, 13, 80, 45
6, 10400, Note_on_c, 13, 80, 0
6, 10440, Note_on_c, 13, 79, 45
6, 10520, Note_on_c, 13, 79, 0
6, 10680, Note_on_c, 13, 81, 45
6, 10760, Note_on_c, 13, 81, 0
6, 10920, Note_on_c, 13, 81, 45
6, 11000, Note_on_c, 13, 81, 0
6, 11040, Note_on_c, 13, 80, 45
6, 11120, Note_on_c, 13, 80, 0
6, 11280, Note_on_c, 13, 80, 45
6, 11360, Note_on_c, 13, 80, 0
6, 11400, Note_on_c, 13, 79, 45
6, 11480, Note_on_c, 13, 79, 0
6, 11880, Note_on_c, 13, 69, 45
6, 11960, Note_on_c, 13, 69, 0
6, 12240, Note_on_c, 13, 74, 45
6, 12320, Note_on_c, 13, 74, 0
6, 12600, Note_on_c, 13, 73, 45
6, 12680, Note_on_c, 13, 73, 0
6, 12720, Note_on_c, 13, 74, 45
6, 12800, Note_on_c, 13, 74, 0
6, 12840, Note_on_c, 13, 73, 45
6, 12920, Note_on_c, 13, 73, 0
6, 12960, Note_on_c, 13, 72, 45
6, 13040, Note_on_c, 13, 72, 0
6, 13560, Note_on_c, 13, 81, 45
6, 13640, Note_on_c, 13, 81, 0
6, 13800, Note_on_c, 13, 81, 45
6, 13880, Note_on_c, 13, 81, 0
6, 13920, Note_on_c, 13, 80, 45
6, 14000, Note_on_c, 13, 80, 0
6, 14160, Note_on_c, 13, 80, 45
6, 14240, Note_on_c, 13, 80, 0
6, 14280, Note_on_c, 13, 79, 45
6, 14360, Note_on_c, 13, 79, 0
6, 14520, Note_on_c, 13, 81, 45
6, 14600, Note_on_c, 13, 81, 0
6, 14760, Note_on_c, 13, 81, 45
6, 14840, Note_on_c, 13, 81, 0
6, 14880, Note_on_c, 13, 80, 45
6, 14960, Note_on_c, 13, 80, 0
6, 15120, Note_on_c, 13, 80, 45
6, 15200, Note_on_c, 13, 80, 0
6, 15240, Note_on_c, 13, 79, 45
6, 15320, Note_on_c, 13, 79, 0
6, 15480, Program_c, 13, 80
6, 15480, Note_on_c, 13, 70, 45
6, 15835, Note_on_c, 13, 70, 0
6, 15840, Note_on_c, 13, 73, 45
6, 16195, Note_on_c, 13, 73, 0
6, 16200, Note_on_c, 13, 76, 45
6, 16315, Note_on_c, 13, 76, 0
6, 16440, Note_on_c, 13, 74, 45
6, 16795, Note_on_c, 13, 74, 0
6, 16800, Note_on_c, 13, 69, 45
6, 17155, Note_on_c, 13, 69, 0
6, 17160, Note_on_c, 13, 65, 45
6, 17275, Note_on_c, 13, 65, 0
6, 17400, Note_on_c, 13, 70, 45
6, 17755, Note_on_c, 13, 70, 0
6, 17760, Note_on_c, 13, 73, 45
6, 18115, Note_on_c, 13, 73, 0
6, 18120, Note_on_c, 13, 76, 45
6, 18235, Note_on_c, 13, 76, 0
6, 18360, Note_on_c, 13, 74, 45
6, 18715, Note_on_c, 13, 74, 0
6, 18720, Note_on_c, 13, 69, 45
6, 18835, Note_on_c, 13, 69, 0
6, 19320, Note_on_c, 13, 70, 45
6, 19675, Note_on_c, 13, 70, 0
6, 19680, Note_on_c, 13, 73, 45
6, 20035, Note_on_c, 13, 73, 0
6, 20040, Note_on_c, 13, 76, 45
6, 20155, Note_on_c, 13, 76, 0
6, 20280, Note_on_c, 13, 74, 45
6, 20635, Note_on_c, 13, 74, 0
6, 20640, Note_on_c, 13, 69, 45
6, 20995, Note_on_c, 13, 69, 0
6, 21000, Note_on_c, 13, 65, 45
6, 21115, Note_on_c, 13, 65, 0
6, 21240, Note_on_c, 13, 70, 45
6, 21595, Note_on_c, 13, 70, 0
6, 21600, Note_on_c, 13, 73, 45
6, 21955, Note_on_c, 13, 73, 0
6, 21960, Note_on_c, 13, 76, 45
6, 22075, Note_on_c, 13, 76, 0
6, 22200, Note_on_c, 13, 73, 45
6, 22555, Note_on_c, 13, 73, 0
6, 22560, Note_on_c, 13, 76, 45
6, 22915, Note_on_c, 13, 76, 0
6, 22920, Note_on_c, 13, 79, 45
6, 23035, Note_on_c, 13, 79, 0
6, 23160, Note_on_c, 13, 81, 45
6, 23275, Note_on_c, 13, 81, 0
6, 23280, Note_on_c, 13, 81, 45
6, 23395, Note_on_c, 13, 81, 0
6, 23400, Note_on_c, 13, 69, 45
6, 23515, Note_on_c, 13, 69, 0
6, 23520, Note_on_c, 13, 69, 45
6, 25075, Note_on_c, 13, 69, 0
6, 25080, Note_on_c, 13, 53, 45
6, 25195, Note_on_c, 13, 53, 0
6, 25320, Note_on_c, 13, 53, 45
6, 25435, Note_on_c, 13, 53, 0
6, 25560, Note_on_c, 13, 58, 45
6, 25675, Note_on_c, 13, 58, 0
6, 25680, Note_on_c, 13, 62, 45
6, 26035, Note_on_c, 13, 62, 0
6, 26040, Note_on_c, 13, 55, 45
6, 26155, Note_on_c, 13, 55, 0
6, 26280, Note_on_c, 13, 55, 45
6, 26395, Note_on_c, 13, 55, 0
6, 26520, Note_on_c, 13, 60, 45
6, 26635, Note_on_c, 13, 60, 0
6, 26640, Note_on_c, 13, 64, 45
6, 26995, Note_on_c, 13, 64, 0
6, 27000, Note_on_c, 13, 81, 45
6, 27115, Note_on_c, 13, 81, 0
6, 27120, Note_on_c, 13, 81, 45
6, 27235, Note_on_c, 13, 81, 0
6, 27240, Note_on_c, 13, 69, 45
6, 27355, Note_on_c, 13, 69, 0
6, 27360, Note_on_c, 13, 69, 45
6, 28915, Note_on_c, 13, 69, 0
6, 28920, Note_on_c, 13, 53, 45
6, 29035, Note_on_c, 13, 53, 0
6, 29160, Note_on_c, 13, 53, 45
6, 29275, Note_on_c, 13, 53, 0
6, 29400, Note_on_c, 13, 58, 45
6, 29515, Note_on_c, 13, 58, 0
6, 29520, Note_on_c, 13, 62, 45
6, 29875, Note_on_c, 13, 62, 0
6, 29880, Note_on_c, 13, 55, 45
6, 29995, Note_on_c, 13, 55, 0
6, 30720, Program_c, 13, 84
6, 30840, Note_on_c, 13, 69, 45
6, 30955, Note_on_c, 13, 69, 0
6, 30960, Note_on_c, 13, 69, 45
6, 31075, Note_on_c, 13, 69, 0
6, 31200, Note_on_c, 13, 67, 45
6, 31315, Note_on_c, 13, 67, 0
6, 31440, Note_on_c, 13, 67, 45
6, 32080, Note_on_c, 13, 67, 0
6, 32160, Program_c, 13, 80
6, 32160, Note_on_c, 13, 62, 45
6, 32395, Note_on_c, 13, 62, 0
6, 32400, Note_on_c, 13, 62, 45
6, 32515, Note_on_c, 13, 62, 0
6, 32520, Note_on_c, 13, 60, 45
6, 32635, Note_on_c, 13, 60, 0
6, 32640, Note_on_c, 13, 60, 45
6, 32755, Note_on_c, 13, 60, 0
6, 32760, Note_on_c, 13, 62, 45
6, 33115, Note_on_c, 13, 62, 0
6, 33120, Note_on_c, 13, 58, 45
6, 33475, Note_on_c, 13, 58, 0
6, 33480, Note_on_c, 13, 62, 45
6, 33715, Note_on_c, 13, 62, 0
6, 33720, Note_on_c, 13, 60, 45
6, 33835, Note_on_c, 13, 60, 0
6, 33840, Note_on_c, 13, 67, 45
6, 34675, Note_on_c, 13, 67, 0
6, 34680, Program_c, 13, 84
6, 34680, Note_on_c, 13, 69, 45
6, 34795, Note_on_c, 13, 69, 0
6, 34800, Note_on_c, 13, 69, 45
6, 34915, Note_on_c, 13, 69, 0
6, 35040, Note_on_c, 13, 67, 45
6, 35155, Note_on_c, 13, 67, 0
6, 35280, Note_on_c, 13, 67, 45
6, 35920, Note_on_c, 13, 67, 0
6, 36000, Program_c, 13, 80
6, 36000, Note_on_c, 13, 62, 45
6, 36235, Note_on_c, 13, 62, 0
6, 36240, Note_on_c, 13, 62, 45
6, 36355, Note_on_c, 13, 62, 0
6, 36360, Note_on_c, 13, 60, 45
6, 36475, Note_on_c, 13, 60, 0
6, 36480, Note_on_c, 13, 60, 45
6, 36595, Note_on_c, 13, 60, 0
6, 36600, Note_on_c, 13, 62, 45
6, 36955, Note_on_c, 13, 62, 0
6, 36960, Note_on_c, 13, 58, 45
6, 37315, Note_on_c, 13, 58, 0
6, 37320, Note_on_c, 13, 62, 45
6, 37555, Note_on_c, 13, 62, 0
6, 37560, Note_on_c, 13, 60, 45
6, 37675, Note_on_c, 13, 60, 0
6, 37680, Note_on_c, 13, 67, 45
6, 38515, Note_on_c, 13, 67, 0
6, 38520, Program_c, 13, 27
6, 38760, Note_on_c, 13, 69, 45
6, 38840, Note_on_c, 13, 69, 0
6, 39120, Note_on_c, 13, 74, 45
6, 39200, Note_on_c, 13, 74, 0
6, 39480, Note_on_c, 13, 73, 45
6, 39560, Note_on_c, 13, 73, 0
6, 39600, Note_on_c, 13, 74, 45
6, 39680, Note_on_c, 13, 74, 0
6, 39720, Note_on_c, 13, 73, 45
6, 39800, Note_on_c, 13, 73, 0
6, 39840, Note_on_c, 13, 72, 45
6, 39920, Note_on_c, 13, 72, 0
6, 40440, Note_on_c, 13, 81, 45
6, 40520, Note_on_c, 13, 81, 0
6, 40680, Note_on_c, 13, 81, 45
6, 40760, Note_on_c, 13, 81, 0
6, 40800, Note_on_c, 13, 80, 45
6, 40880, Note_on_c, 13, 80, 0
6, 41040, Note_on_c, 13, 80, 45
6, 41120, Note_on_c, 13, 80, 0
6, 41160, Note_on_c, 13, 79, 45
6, 41240, Note_on_c, 13, 79, 0
6, 41400, Note_on_c, 13, 81, 45
6, 41480, Note_on_c, 13, 81, 0
6, 41640, Note_on_c, 13, 81, 45
6, 41720, Note_on_c, 13, 81, 0
6, 41760, Note_on_c, 13, 80, 45
6, 41840, Note_on_c, 13, 80, 0
6, 42000, Note_on_c, 13, 80, 45
6, 42080, Note_on_c, 13, 80, 0
6, 42120, Note_on_c, 13, 79, 45
6, 42200, Note_on_c, 13, 79, 0
6, 42600, Note_on_c, 13, 69, 45
6, 42680, Note_on_c, 13, 69, 0
6, 42960, Note_on_c, 13, 74, 45
6, 43040, Note_on_c, 13, 74, 0
6, 43320, Note_on_c, 13, 73, 45
6, 43400, Note_on_c, 13, 73, 0
6, 43440, Note_on_c, 13, 74, 45
6, 43520, Note_on_c, 13, 74, 0
6, 43560, Note_on_c, 13, 73, 45
6, 43640, Note_on_c, 13, 73, 0
6, 43680, Note_on_c, 13, 72, 45
6, 43760, Note_on_c, 13, 72, 0
6, 44280, Note_on_c, 13, 81, 45
6, 44360, Note_on_c, 13, 81, 0
6, 44520, Note_on_c, 13, 81, 45
6, 44600, Note_on_c, 13, 81, 0
6, 44640, Note_on_c, 13, 80, 45
6, 44720, Note_on_c, 13, 80, 0
6, 44880, Note_on_c, 13, 80, 45
6, 44960, Note_on_c, 13, 80, 0
6, 45000, Note_on_c, 13, 79, 45
6, 45080, Note_on_c, 13, 79, 0
6, 45240, Note_on_c, 13, 81, 45
6, 45320, Note_on_c, 13, 81, 0
6, 45480, Note_on_c, 13, 81, 45
6, 45560, Note_on_c, 13, 81, 0
6, 45600, Note_on_c, 13, 80, 45
6, 45680, Note_on_c, 13, 80, 0
6, 45840, Note_on_c, 13, 80, 45
6, 45920, Note_on_c, 13, 80, 0
6, 45960, Note_on_c, 13, 79, 45
6, 46040, Note_on_c, 13, 79, 0
6, 46200, Program_c, 13, 80
6, 46200, Note_on_c, 13, 70, 45
6, 46555, Note_on_c, 13, 70, 0
6, 46560, Note_on_c, 13, 73, 45
6, 46915, Note_on_c, 13, 73, 0
6, 46920, Note_on_c, 13, 76, 45
6, 47035, Note_on_c, 13, 76, 0
6, 47160, Note_on_c, 13, 74, 45
6, 47515, Note_on_c, 13, 74, 0
6, 47520, Note_on_c, 13, 69, 45
6, 47875, Note_on_c, 13, 69, 0
6, 47880, Note_on_c, 13, 65, 45
6, 47995, Note_on_c, 13, 65, 0
6, 48120, Note_on_c, 13, 70, 45
6, 48475, Note_on_c, 13, 70, 0
6, 48480, Note_on_c, 13, 73, 45
6, 48835, Note_on_c, 13, 73, 0
6, 48840, Note_on_c, 13, 76, 45
6, 48955, Note_on_c, 13, 76, 0
6, 49080, Note_on_c, 13, 74, 45
6, 49435, Note_on_c, 13, 74, 0
6, 49440, Note_on_c, 13, 69, 45
6, 49555, Note_on_c, 13, 69, 0
6, 50040, Note_on_c, 13, 70, 45
6, 50395, Note_on_c, 13, 70, 0
6, 50400, Note_on_c, 13, 73, 45
6, 50755, Note_on_c, 13, 73, 0
6, 50760, Note_on_c, 13, 76, 45
6, 50875, Note_on_c, 13, 76, 0
6, 51000, Note_on_c, 13, 74, 45
6, 51355, Note_on_c, 13, 74, 0
6, 51360, Note_on_c, 13, 69, 45
6, 51715, Note_on_c, 13, 69, 0
6, 51720, Note_on_c, 13, 65, 45
6, 51835, Note_on_c, 13, 65, 0
6, 51960, Note_on_c, 13, 70, 45
6, 52315, Note_on_c, 13, 70, 0
6, 52320, Note_on_c, 13, 73, 45
6, 52675, Note_on_c, 13, 73, 0
6, 52680, Note_on_c, 13, 76, 45
6, 52795, Note_on_c, 13, 76, 0
6, 52920, Note_on_c, 13, 73, 45
6, 53275, Note_on_c, 13, 73, 0
6, 53280, Note_on_c, 13, 76, 45
6, 53635, Note_on_c, 13, 76, 0
6, 53640, Note_on_c, 13, 79, 45
6, 53755, Note_on_c, 13, 79, 0
6, 53880, Note_on_c, 13, 81, 45
6, 53995, Note_on_c, 13, 81, 0
6, 54000, Note_on_c, 13, 81, 45
6, 54115, Note_on_c, 13, 81, 0
6, 54120, Note_on_c, 13, 69, 45
6, 54235, Note_on_c, 13, 69, 0
6, 54240, Note_on_c, 13, 69, 45
6, 55795, Note_on_c, 13, 69, 0
6, 55800, Note_on_c, 13, 53, 45
6, 55915, Note_on_c, 13, 53, 0
6, 56040, Note_on_c, 13, 53, 45
6, 56155, Note_on_c, 13, 53, 0
6, 56280, Note_on_c, 13, 58, 45
6, 56395, Note_on_c, 13, 58, 0
6, 56400, Note_on_c, 13, 62, 45
6, 56755, Note_on_c, 13, 62, 0
6, 56760, Note_on_c, 13, 55, 45
6, 56875, Note_on_c, 13, 55, 0
6, 57000, Note_on_c, 13, 55, 45
6, 57115, Note_on_c, 13, 55, 0
6, 57240, Note_on_c, 13, 60, 45
6, 57355, Note_on_c, 13, 60, 0
6, 57360, Note_on_c, 13, 64, 45
6, 57715, Note_on_c, 13, 64, 0
6, 57720, Note_on_c, 13, 81, 45
6, 57835, Note_on_c, 13, 81, 0
6, 57840, Note_on_c, 13, 81, 45
6, 57955, Note_on_c, 13, 81, 0
6, 57960, Note_on_c, 13, 69, 45
6, 58075, Note_on_c, 13, 69, 0
6, 58080, Note_on_c, 13, 69, 45
6, 59635, Note_on_c, 13, 69, 0
6, 59640, Note_on_c, 13, 53, 45
6, 59755, Note_on_c, 13, 53, 0
6, 59880, Note_on_c, 13, 53, 45
6, 59995, Note_on_c, 13, 53, 0
6, 60120, Note_on_c, 13, 58, 45
6, 60235, Note_on_c, 13, 58, 0
6, 60240, Note_on_c, 13, 62, 45
6, 60595, Note_on_c, 13, 62, 0
6, 60600, Note_on_c, 13, 55, 45
6, 60715, Note_on_c, 13, 55, 0
6, 61440, Program_c, 13, 84
6, 61560, Note_on_c, 13, 69, 45
6, 61675, Note_on_c, 13, 69, 0
6, 61680, Note_on_c, 13, 69, 45
6, 61795, Note_on_c, 13, 69, 0
6, 61920, Note_on_c, 13, 67, 45
6, 62035, Note_on_c, 13, 67, 0
6, 62160, Note_on_c, 13, 67, 45
6, 62800, Note_on_c, 13, 67, 0
6, 62880, Program_c, 13, 80
6, 62880, Note_on_c, 13, 62, 45
6, 63115, Note_on_c, 13, 62, 0
6, 63120, Note_on_c, 13, 62, 45
6, 63235, Note_on_c, 13, 62, 0
6, 63240, Note_on_c, 13, 60, 45
6, 63355, Note_on_c, 13, 60, 0
6, 63360, Note_on_c, 13, 60, 45
6, 63475, Note_on_c, 13, 60, 0
6, 63480, Note_on_c, 13, 62, 45
6, 63835, Note_on_c, 13, 62, 0
6, 63840, Note_on_c, 13, 58, 45
6, 64195, Note_on_c, 13, 58, 0
6, 64200, Note_on_c, 13, 62, 45
6, 64435, Note_on_c, 13, 62, 0
6, 64440, Note_on_c, 13, 60, 45
6, 64555, Note_on_c, 13, 60, 0
6, 64560, Note_on_c, 13, 67, 45
6, 65395, Note_on_c, 13, 67, 0
6, 65400, Program_c, 13, 84
6, 65400, Note_on_c, 13, 69, 45
6, 65515, Note_on_c, 13, 69, 0
6, 65520, Note_on_c, 13, 69, 45
6, 65635, Note_on_c, 13, 69, 0
6, 65760, Note_on_c, 13, 67, 45
6, 65875, Note_on_c, 13, 67, 0
6, 66000, Note_on_c, 13, 67, 45
6, 66640, Note_on_c, 13, 67, 0
6, 66720, Program_c, 13, 80
6, 66720, Note_on_c, 13, 62, 45
6, 66955, Note_on_c, 13, 62, 0
6, 66960, Note_on_c, 13, 62, 45
6, 67075, Note_on_c, 13, 62, 0
6, 67080, Note_on_c, 13, 60, 45
6, 67195, Note_on_c, 13, 60, 0
6, 67200, Note_on_c, 13, 60, 45
6, 67315, Note_on_c, 13, 60, 0
6, 67320, Note_on_c, 13, 62, 45
6, 67675, Note_on_c, 13, 62, 0
6, 67680, Note_on_c, 13, 58, 45
6, 68035, Note_on_c, 13, 58, 0
6, 68040, Note_on_c, 13, 62, 45
6, 68275, Note_on_c, 13, 62, 0
6, 68280, Note_on_c, 13, 60, 45
6, 68395, Note_on_c, 13, 60, 0
6, 68400, Note_on_c, 13, 67, 45
6, 69235, Note_on_c, 13, 67, 0
6, 69240, Program_c, 13, 27
6, 69480, Note_on_c, 13, 69, 45
6, 69560, Note_on_c, 13, 69, 0
6, 69840, Note_on_c, 13, 74, 45
6, 69920, Note_on_c, 13, 74, 0
6, 70200, Note_on_c, 13, 73, 45
6, 70280, Note_on_c, 13, 73, 0
6, 70320, Note_on_c, 13, 74, 45
6, 70400, Note_on_c, 13, 74, 0
6, 70440, Note_on_c, 13, 73, 45
6, 70520, Note_on_c, 13, 73, 0
6, 70560, Note_on_c, 13, 72, 45
6, 70640, Note_on_c, 13, 72, 0
6, 71160, Note_on_c, 13, 81, 45
6, 71240, Note_on_c, 13, 81, 0
6, 71400, Note_on_c, 13, 81, 45
6, 71480, Note_on_c, 13, 81, 0
6, 71520, Note_on_c, 13, 80, 45
6, 71600, Note_on_c, 13, 80, 0
6, 71760, Note_on_c, 13, 80, 45
6, 71840, Note_on_c, 13, 80, 0
6, 71880, Note_on_c, 13, 79, 45
6, 71960, Note_on_c, 13, 79, 0
6, 72120, Note_on_c, 13, 81, 45
6, 72200, Note_on_c, 13, 81, 0
6, 72360, Note_on_c, 13, 81, 45
6, 72440, Note_on_c, 13, 81, 0
6, 72480, Note_on_c, 13, 80, 45
6, 72560, Note_on_c, 13, 80, 0
6, 72720, Note_on_c, 13, 80, 45
6, 72800, Note_on_c, 13, 80, 0
6, 72840, Note_on_c, 13, 79, 45
6, 72920, Note_on_c, 13, 79, 0
6, 73320, Note_on_c, 13, 69, 45
6, 73400, Note_on_c, 13, 69, 0
6, 73680, Note_on_c, 13, 74, 45
6, 73760, Note_on_c, 13, 74, 0
6, 74040, Note_on_c, 13, 73, 45
6, 74120, Note_on_c, 13, 73, 0
6, 74160, Note_on_c, 13, 74, 45
6, 74240, Note_on_c, 13, 74, 0
6, 74280, Note_on_c, 13, 73, 45
6, 74360, Note_on_c, 13, 73, 0
6, 74400, Note_on_c, 13, 72, 45
6, 74480, Note_on_c, 13, 72, 0
6, 75000, Note_on_c, 13, 81, 45
6, 75080, Note_on_c, 13, 81, 0
6, 75240, Note_on_c, 13, 81, 45
6, 75320, Note_on_c, 13, 81, 0
6, 75360, Note_on_c, 13, 80, 45
6, 75440, Note_on_c, 13, 80, 0
6, 75600, Note_on_c, 13, 80, 45
6, 75680, Note_on_c, 13, 80, 0
6, 75720, Note_on_c, 13, 79, 45
6, 75800, Note_on_c, 13, 79, 0
6, 75960, Note_on_c, 13, 81, 45
6, 76040, Note_on_c, 13, 81, 0
6, 76200, Note_on_c, 13, 81, 45
6, 76280, Note_on_c, 13, 81, 0
6, 76320, Note_on_c, 13, 80, 45
6, 76400, Note_on_c, 13, 80, 0
6, 76560, Note_on_c, 13, 80, 45
6, 76640, Note_on_c, 13, 80, 0
6, 76680, Note_on_c, 13, 79, 45
6, 76760, Note_on_c, 13, 79, 0
6, 76920, Program_c, 13, 80
6, 76920, Note_on_c, 13, 70, 45
6, 77275, Note_on_c, 13, 70, 0
6, 77280, Note_on_c, 13, 73, 45
6, 77635, Note_on_c, 13, 73, 0
6, 77640, Note_on_c, 13, 76, 45
6, 77755, Note_on_c, 13, 76, 0
6, 77880, Note_on_c, 13, 74, 45
6, 78235, Note_on_c, 13, 74, 0
6, 78240, Note_on_c, 13, 69, 45
6, 78595, Note_on_c, 13, 69, 0
6, 78600, Note_on_c, 13, 65, 45
6, 78715, Note_on_c, 13, 65, 0
6, 78840, Note_on_c, 13, 70, 45
6, 79195, Note_on_c, 13, 70, 0
6, 79200, Note_on_c, 13, 73, 45
6, 79555, Note_on_c, 13, 73, 0
6, 79560, Note_on_c, 13, 76, 45
6, 79675, Note_on_c, 13, 76, 0
6, 79800, Note_on_c, 13, 74, 45
6, 80155, Note_on_c, 13, 74, 0
6, 80160, Note_on_c, 13, 69, 45
6, 80275, Note_on_c, 13, 69, 0
6, 80760, Note_on_c, 13, 70, 45
6, 81115, Note_on_c, 13, 70, 0
6, 81120, Note_on_c, 13, 73, 45
6, 81475, Note_on_c, 13, 73, 0
6, 81480, Note_on_c, 13, 76, 45
6, 81595, Note_on_c, 13, 76, 0
6, 81720, Note_on_c, 13, 74, 45
6, 82075, Note_on_c, 13, 74, 0
6, 82080, Note_on_c, 13, 69, 45
6, 82435, Note_on_c, 13, 69, 0
6, 82440, Note_on_c, 13, 65, 45
6, 82555, Note_on_c, 13, 65, 0
6, 82680, Note_on_c, 13, 70, 45
6, 83035, Note_on_c, 13, 70, 0
6, 83040, Note_on_c, 13, 73, 45
6, 83395, Note_on_c, 13, 73, 0
6, 83400, Note_on_c, 13, 76, 45
6, 83515, Note_on_c, 13, 76, 0
6, 83640, Note_on_c, 13, 73, 45
6, 83995, Note_on_c, 13, 73, 0
6, 84000, Note_on_c, 13, 76, 45
6, 84355, Note_on_c, 13, 76, 0
6, 84360, Note_on_c, 13, 79, 45
6, 84475, Note_on_c, 13, 79, 0
6, 84600, Note_on_c, 13, 81, 45
6, 84715, Note_on_c, 13, 81, 0
6, 84720, Note_on_c, 13, 81, 45
6, 84835, Note_on_c, 13, 81, 0
6, 84840, Note_on_c, 13, 69, 45
6, 84955, Note_on_c, 13, 69, 0
6, 84960, Note_on_c, 13, 69, 45
6, 86515, Note_on_c, 13, 69, 0
6, 86520, Note_on_c, 13, 53, 45
6, 86635, Note_on_c, 13, 53, 0
6, 86760, Note_on_c, 13, 53, 45
6, 86875, Note_on_c, 13, 53, 0
6, 87000, Note_on_c, 13, 58, 45
6, 87115, Note_on_c, 13, 58, 0
6, 87120, Note_on_c, 13, 62, 45
6, 87475, Note_on_c, 13, 62, 0
6, 87480, Note_on_c, 13, 55, 45
6, 87595, Note_on_c, 13, 55, 0
6, 87720, Note_on_c, 13, 55, 45
6, 87835, Note_on_c, 13, 55, 0
6, 87960, Note_on_c, 13, 60, 45
6, 88075, Note_on_c, 13, 60, 0
6, 88080, Note_on_c, 13, 64, 45
6, 88435, Note_on_c, 13, 64, 0
6, 88440, Note_on_c, 13, 81, 45
6, 88555, Note_on_c, 13, 81, 0
6, 88560, Note_on_c, 13, 81, 45
6, 88675, Note_on_c, 13, 81, 0
6, 88680, Note_on_c, 13, 69, 45
6, 88795, Note_on_c, 13, 69, 0
6, 88800, Note_on_c, 13, 69, 45
6, 90355, Note_on_c, 13, 69, 0
6, 90360, Note_on_c, 13, 53, 45
6, 90475, Note_on_c, 13, 53, 0
6, 90600, Note_on_c, 13, 53, 45
6, 90715, Note_on_c, 13, 53, 0
6, 90840, Note_on_c, 13, 58, 45
6, 90955, Note_on_c, 13, 58, 0
6, 90960, Note_on_c, 13, 62, 45
6, 91315, Note_on_c, 13, 62, 0
6, 91320, Note_on_c, 13, 55, 45
6, 91435, Note_on_c, 13, 55, 0
6, 91435, End_track
7, 0, Start_track
7, 0, Title_t, "Staff-6"
7, 0, Instrument_name_t, "Sync Lead"
7, 0, Program_c, 14, 84
7, 0, Control_c, 14, 7, 127
7, 0, Control_c, 14, 10, 64
7, 120, Note_on_c, 14, 74, 45
7, 235, Note_on_c, 14, 74, 0
7, 240, Note_on_c, 14, 74, 45
7, 355, Note_on_c, 14, 74, 0
7, 480, Note_on_c, 14, 72, 45
7, 595, Note_on_c, 14, 72, 0
7, 720, Note_on_c, 14, 71, 45
7, 1360, Note_on_c, 14, 71, 0
7, 1440, Program_c, 14, 80
7, 1440, Note_on_c, 14, 62, 45
7, 1675, Note_on_c, 14, 62, 0
7, 1680, Note_on_c, 14, 64, 45
7, 1795, Note_on_c, 14, 64, 0
7, 1800, Note_on_c, 14, 65, 45
7, 1915, Note_on_c, 14, 65, 0
7, 1920, Note_on_c, 14, 67, 45
7, 2035, Note_on_c, 14, 67, 0
7, 2040, Note_on_c, 14, 69, 45
7, 2395, Note_on_c, 14, 69, 0
7, 2400, Note_on_c, 14, 62, 45
7, 2755, Note_on_c, 14, 62, 0
7, 2760, Note_on_c, 14, 69, 45
7, 2995, Note_on_c, 14, 69, 0
7, 3000, Note_on_c, 14, 67, 45
7, 3115, Note_on_c, 14, 67, 0
7, 3120, Note_on_c, 14, 72, 45
7, 3955, Note_on_c, 14, 72, 0
7, 3960, Program_c, 14, 84
7, 3960, Note_on_c, 14, 74, 45
7, 4075, Note_on_c, 14, 74, 0
7, 4080, Note_on_c, 14, 74, 45
7, 4195, Note_on_c, 14, 74, 0
7, 4320, Note_on_c, 14, 72, 45
7, 4435, Note_on_c, 14, 72, 0
7, 4560, Note_on_c, 14, 71, 45
7, 5200, Note_on_c, 14, 71, 0
7, 5280, Program_c, 14, 80
7, 5280, Note_on_c, 14, 62, 45
7, 5515, Note_on_c, 14, 62, 0
7, 5520, Note_on_c, 14, 64, 45
7, 5635, Note_on_c, 14, 64, 0
7, 5640, Note_on_c, 14, 65, 45
7, 5755, Note_on_c, 14, 65, 0
7, 5760, Note_on_c, 14, 67, 45
7, 5875, Note_on_c, 14, 67, 0
7, 5880, Note_on_c, 14, 69, 45
7, 6235, Note_on_c, 14, 69, 0
7, 6240, Note_on_c, 14, 62, 45
7, 6595, Note_on_c, 14, 62, 0
7, 6600, Note_on_c, 14, 69, 45
7, 6835, Note_on_c, 14, 69, 0
7, 6840, Note_on_c, 14, 67, 45
7, 6955, Note_on_c, 14, 67, 0
7, 6960, Note_on_c, 14, 60, 45
7, 7795, Note_on_c, 14, 60, 0
7, 7800, Program_c, 14, 27
7, 8040, Note_on_c, 14, 74, 45
7, 8120, Note_on_c, 14, 74, 0
7, 8400, Note_on_c, 14, 81, 45
7, 8480, Note_on_c, 14, 81, 0
7, 8760, Note_on_c, 14, 80, 45
7, 8840, Note_on_c, 14, 80, 0
7, 8880, Note_on_c, 14, 81, 45
7, 8960, Note_on_c, 14, 81, 0
7, 9000, Note_on_c, 14, 80, 45
7, 9080, Note_on_c, 14, 80, 0
7, 9120, Note_on_c, 14, 77, 45
7, 9200, Note_on_c, 14, 77, 0
7, 9960, Note_on_c, 14, 77, 45
7, 10040, Note_on_c, 14, 77, 0
7, 10080, Note_on_c, 14, 74, 45
7, 10160, Note_on_c, 14, 74, 0
7, 10440, Note_on_c, 14, 65, 45
7, 10520, Note_on_c, 14, 65, 0
7, 10560, Note_on_c, 14, 62, 45
7, 10640, Note_on_c, 14, 62, 0
7, 10800, Note_on_c, 14, 77, 45
7, 10880, Note_on_c, 14, 77, 0
7, 10920, Note_on_c, 14, 74, 45
7, 11000, Note_on_c, 14, 74, 0
7, 11040, Note_on_c, 14, 77, 45
7, 11120, Note_on_c, 14, 77, 0
7, 11160, Note_on_c, 14, 74, 45
7, 11240, Note_on_c, 14, 74, 0
7, 11280, Note_on_c, 14, 77, 45
7, 11360, Note_on_c, 14, 77, 0
7, 11400, Note_on_c, 14, 74, 45
7, 11480, Note_on_c, 14, 74, 0
7, 11520, Note_on_c, 14, 77, 45
7, 11600, Note_on_c, 14, 77, 0
7, 11880, Note_on_c, 14, 74, 45
7, 11960, Note_on_c, 14, 74, 0
7, 12240, Note_on_c, 14, 81, 45
7, 12320, Note_on_c, 14, 81, 0
7, 12600, Note_on_c, 14, 80, 45
7, 12680, Note_on_c, 14, 80, 0
7, 12720, Note_on_c, 14, 81, 45
7, 12800, Note_on_c, 14, 81, 0
7, 12840, Note_on_c, 14, 80, 45
7, 12920, Note_on_c, 14, 80, 0
7, 12960, Note_on_c, 14, 77, 45
7, 13040, Note_on_c, 14, 77, 0
7, 13800, Note_on_c, 14, 77, 45
7, 13915, Note_on_c, 14, 77, 0
7, 13920, Note_on_c, 14, 74, 45
7, 14035, Note_on_c, 14, 74, 0
7, 14280, Note_on_c, 14, 65, 45
7, 14395, Note_on_c, 14, 65, 0
7, 14400, Note_on_c, 14, 62, 45
7, 14515, Note_on_c, 14, 62, 0
7, 14640, Note_on_c, 14, 77, 45
7, 14755, Note_on_c, 14, 77, 0
7, 14760, Note_on_c, 14, 74, 45
7, 14875, Note_on_c, 14, 74, 0
7, 14880, Note_on_c, 14, 77, 45
7, 14995, Note_on_c, 14, 77, 0
7, 15000, Note_on_c, 14, 74, 45
7, 15115, Note_on_c, 14, 74, 0
7, 15120, Note_on_c, 14, 77, 45
7, 15235, Note_on_c, 14, 77, 0
7, 15240, Note_on_c, 14, 74, 45
7, 15355, Note_on_c, 14, 74, 0
7, 15360, Note_on_c, 14, 77, 45
7, 15475, Note_on_c, 14, 77, 0
7, 15480, Program_c, 14, 80
7, 15480, Note_on_c, 14, 73, 45
7, 15835, Note_on_c, 14, 73, 0
7, 15840, Note_on_c, 14, 76, 45
7, 16195, Note_on_c, 14, 76, 0
7, 16200, Note_on_c, 14, 82, 45
7, 16315, Note_on_c, 14, 82, 0
7, 16440, Note_on_c, 14, 81, 45
7, 16795, Note_on_c, 14, 81, 0
7, 16800, Note_on_c, 14, 77, 45
7, 17155, Note_on_c, 14, 77, 0
7, 17160, Note_on_c, 14, 74, 45
7, 17275, Note_on_c, 14, 74, 0
7, 17400, Note_on_c, 14, 73, 45
7, 17755, Note_on_c, 14, 73, 0
7, 17760, Note_on_c, 14, 76, 45
7, 18115, Note_on_c, 14, 76, 0
7, 18120, Note_on_c, 14, 82, 45
7, 18235, Note_on_c, 14, 82, 0
7, 18360, Note_on_c, 14, 81, 45
7, 18715, Note_on_c, 14, 81, 0
7, 18720, Note_on_c, 14, 74, 45
7, 18835, Note_on_c, 14, 74, 0
7, 19320, Note_on_c, 14, 73, 45
7, 19675, Note_on_c, 14, 73, 0
7, 19680, Note_on_c, 14, 76, 45
7, 20035, Note_on_c, 14, 76, 0
7, 20040, Note_on_c, 14, 82, 45
7, 20155, Note_on_c, 14, 82, 0
7, 20280, Note_on_c, 14, 81, 45
7, 20635, Note_on_c, 14, 81, 0
7, 20640, Note_on_c, 14, 77, 45
7, 20995, Note_on_c, 14, 77, 0
7, 21000, Note_on_c, 14, 74, 45
7, 21115, Note_on_c, 14, 74, 0
7, 21240, Note_on_c, 14, 76, 45
7, 21595, Note_on_c, 14, 76, 0
7, 21600, Note_on_c, 14, 79, 45
7, 21955, Note_on_c, 14, 79, 0
7, 21960, Note_on_c, 14, 82, 45
7, 22075, Note_on_c, 14, 82, 0
7, 22200, Note_on_c, 14, 81, 45
7, 22555, Note_on_c, 14, 81, 0
7, 22560, Note_on_c, 14, 83, 45
7, 22915, Note_on_c, 14, 83, 0
7, 22920, Note_on_c, 14, 85, 45
7, 23035, Note_on_c, 14, 85, 0
7, 23160, Note_on_c, 14, 86, 45
7, 23275, Note_on_c, 14, 86, 0
7, 23280, Note_on_c, 14, 86, 45
7, 23395, Note_on_c, 14, 86, 0
7, 23400, Note_on_c, 14, 74, 45
7, 23515, Note_on_c, 14, 74, 0
7, 23520, Note_on_c, 14, 74, 45
7, 25075, Note_on_c, 14, 74, 0
7, 25080, Note_on_c, 14, 58, 45
7, 25195, Note_on_c, 14, 58, 0
7, 25320, Note_on_c, 14, 58, 45
7, 25435, Note_on_c, 14, 58, 0
7, 25560, Note_on_c, 14, 62, 45
7, 25675, Note_on_c, 14, 62, 0
7, 25680, Note_on_c, 14, 65, 45
7, 26035, Note_on_c, 14, 65, 0
7, 26040, Note_on_c, 14, 60, 45
7, 26155, Note_on_c, 14, 60, 0
7, 26280, Note_on_c, 14, 60, 45
7, 26395, Note_on_c, 14, 60, 0
7, 26520, Note_on_c, 14, 64, 45
7, 26635, Note_on_c, 14, 64, 0
7, 26640, Note_on_c, 14, 67, 45
7, 26995, Note_on_c, 14, 67, 0
7, 27000, Note_on_c, 14, 86, 45
7, 27115, Note_on_c, 14, 86, 0
7, 27120, Note_on_c, 14, 86, 45
7, 27235, Note_on_c, 14, 86, 0
7, 27240, Note_on_c, 14, 74, 45
7, 27355, Note_on_c, 14, 74, 0
7, 27360, Note_on_c, 14, 74, 45
7, 28915, Note_on_c, 14, 74, 0
7, 28920, Note_on_c, 14, 58, 45
7, 29035, Note_on_c, 14, 58, 0
7, 29160, Note_on_c, 14, 58, 45
7, 29275, Note_on_c, 14, 58, 0
7, 29400, Note_on_c, 14, 62, 45
7, 29515, Note_on_c, 14, 62, 0
7, 29520, Note_on_c, 14, 65, 45
7, 29875, Note_on_c, 14, 65, 0
7, 29880, Note_on_c, 14, 60, 45
7, 29995, Note_on_c, 14, 60, 0
7, 30360, Note_on_c, 14, 45, 45
7, 30475, Note_on_c, 14, 45, 0
7, 30480, Note_on_c, 14, 48, 45
7, 30715, Note_on_c, 14, 48, 0
7, 30720, Program_c, 14, 84
7, 30840, Note_on_c, 14, 74, 45
7, 30955, Note_on_c, 14, 74, 0
7, 30960, Note_on_c, 14, 74, 45
7, 31075, Note_on_c, 14, 74, 0
7, 31200, Note_on_c, 14, 72, 45
7, 31315, Note_on_c, 14, 72, 0
7, 31440, Note_on_c, 14, 71, 45
7, 32080, Note_on_c, 14, 71, 0
7, 32160, Program_c, 14, 80
7, 32160, Note_on_c, 14, 62, 45
7, 32395, Note_on_c, 14, 62, 0
7, 32400, Note_on_c, 14, 64, 45
7, 32515, Note_on_c, 14, 64, 0
7, 32520, Note_on_c, 14, 65, 45
7, 32635, Note_on_c, 14, 65, 0
7, 32640, Note_on_c, 14, 67, 45
7, 32755, Note_on_c, 14, 67, 0
7, 32760, Note_on_c, 14, 69, 45
7, 33115, Note_on_c, 14, 69, 0
7, 33120, Note_on_c, 14, 62, 45
7, 33475, Note_on_c, 14, 62, 0
7, 33480, Note_on_c, 14, 69, 45
7, 33715, Note_on_c, 14, 69, 0
7, 33720, Note_on_c, 14, 67, 45
7, 33835, Note_on_c, 14, 67, 0
7, 33840, Note_on_c, 14, 72, 45
7, 34675, Note_on_c, 14, 72, 0
7, 34680, Program_c, 14, 84
7, 34680, Note_on_c, 14, 74, 45
7, 34795, Note_on_c, 14, 74, 0
7, 34800, Note_on_c, 14, 74, 45
7, 34915, Note_on_c, 14, 74, 0
7, 35040, Note_on_c, 14, 72, 45
7, 35155, Note_on_c, 14, 72, 0
7, 35280, Note_on_c, 14, 71, 45
7, 35920, Note_on_c, 14, 71, 0
7, 36000, Program_c, 14, 80
7, 36000, Note_on_c, 14, 62, 45
7, 36235, Note_on_c, 14, 62, 0
7, 36240, Note_on_c, 14, 64, 45
7, 36355, Note_on_c, 14, 64, 0
7, 36360, Note_on_c, 14, 65, 45
7, 36475, Note_on_c, 14, 65, 0
7, 36480, Note_on_c, 14, 67, 45
7, 36595, Note_on_c, 14, 67, 0
7, 36600, Note_on_c, 14, 69, 45
7, 36955, Note_on_c, 14, 69, 0
7, 36960, Note_on_c, 14, 62, 45
7, 37315, Note_on_c, 14, 62, 0
7, 37320, Note_on_c, 14, 69, 45
7, 37555, Note_on_c, 14, 69, 0
7, 37560, Note_on_c, 14, 67, 45
7, 37675, Note_on_c, 14, 67, 0
7, 37680, Note_on_c, 14, 60, 45
7, 38515, Note_on_c, 14, 60, 0
7, 38520, Program_c, 14, 27
7, 38760, Note_on_c, 14, 74, 45
7, 38840, Note_on_c, 14, 74, 0
7, 39120, Note_on_c, 14, 81, 45
7, 39200, Note_on_c, 14, 81, 0
7, 39480, Note_on_c, 14, 80, 45
7, 39560, Note_on_c, 14, 80, 0
7, 39600, Note_on_c, 14, 81, 45
7, 39680, Note_on_c, 14, 81, 0
7, 39720, Note_on_c, 14, 80, 45
7, 39800, Note_on_c, 14, 80, 0
7, 39840, Note_on_c, 14, 77, 45
7, 39920, Note_on_c, 14, 77, 0
7, 40680, Note_on_c, 14, 77, 45
7, 40760, Note_on_c, 14, 77, 0
7, 40800, Note_on_c, 14, 74, 45
7, 40880, Note_on_c, 14, 74, 0
7, 41160, Note_on_c, 14, 65, 45
7, 41240, Note_on_c, 14, 65, 0
7, 41280, Note_on_c, 14, 62, 45
7, 41360, Note_on_c, 14, 62, 0
7, 41520, Note_on_c, 14, 77, 45
7, 41600, Note_on_c, 14, 77, 0
7, 41640, Note_on_c, 14, 74, 45
7, 41720, Note_on_c, 14, 74, 0
7, 41760, Note_on_c, 14, 77, 45
7, 41840, Note_on_c, 14, 77, 0
7, 41880, Note_on_c, 14, 74, 45
7, 41960, Note_on_c, 14, 74, 0
7, 42000, Note_on_c, 14, 77, 45
7, 42080, Note_on_c, 14, 77, 0
7, 42120, Note_on_c, 14, 74, 45
7, 42200, Note_on_c, 14, 74, 0
7, 42240, Note_on_c, 14, 77, 45
7, 42320, Note_on_c, 14, 77, 0
7, 42600, Note_on_c, 14, 74, 45
7, 42680, Note_on_c, 14, 74, 0
7, 42960, Note_on_c, 14, 81, 45
7, 43040, Note_on_c, 14, 81, 0
7, 43320, Note_on_c, 14, 80, 45
7, 43400, Note_on_c, 14, 80, 0
7, 43440, Note_on_c, 14, 81, 45
7, 43520, Note_on_c, 14, 81, 0
7, 43560, Note_on_c, 14, 80, 45
7, 43640, Note_on_c, 14, 80, 0
7, 43680, Note_on_c, 14, 77, 45
7, 43760, Note_on_c, 14, 77, 0
7, 44520, Note_on_c, 14, 77, 45
7, 44635, Note_on_c, 14, 77, 0
7, 44640, Note_on_c, 14, 74, 45
7, 44755, Note_on_c, 14, 74, 0
7, 45000, Note_on_c, 14, 65, 45
7, 45115, Note_on_c, 14, 65, 0
7, 45120, Note_on_c, 14, 62, 45
7, 45235, Note_on_c, 14, 62, 0
7, 45360, Note_on_c, 14, 77, 45
7, 45475, Note_on_c, 14, 77, 0
7, 45480, Note_on_c, 14, 74, 45
7, 45595, Note_on_c, 14, 74, 0
7, 45600, Note_on_c, 14, 77, 45
7, 45715, Note_on_c, 14, 77, 0
7, 45720, Note_on_c, 14, 74, 45
7, 45835, Note_on_c, 14, 74, 0
7, 45840, Note_on_c, 14, 77, 45
7, 45955, Note_on_c, 14, 77, 0
7, 45960, Note_on_c, 14, 74, 45
7, 46075, Note_on_c, 14, 74, 0
7, 46080, Note_on_c, 14, 77, 45
7, 46195, Note_on_c, 14, 77, 0
7, 46200, Program_c, 14, 80
7, 46200, Note_on_c, 14, 73, 45
7, 46555, Note_on_c, 14, 73, 0
7, 46560, Note_on_c, 14, 76, 45
7, 46915, Note_on_c, 14, 76, 0
7, 46920, Note_on_c, 14, 82, 45
7, 47035, Note_on_c, 14, 82, 0
7, 47160, Note_on_c, 14, 81, 45
7, 47515, Note_on_c, 14, 81, 0
7, 47520, Note_on_c, 14, 77, 45
7, 47875, Note_on_c, 14, 77, 0
7, 47880, Note_on_c, 14, 74, 45
7, 47995, Note_on_c, 14, 74, 0
7, 48120, Note_on_c, 14, 73, 45
7, 48475, Note_on_c, 14, 73, 0
7, 48480, Note_on_c, 14, 76, 45
7, 48835, Note_on_c, 14, 76, 0
7, 48840, Note_on_c, 14, 82, 45
7, 48955, Note_on_c, 14, 82, 0
7, 49080, Note_on_c, 14, 81, 45
7, 49435, Note_on_c, 14, 81, 0
7, 49440, Note_on_c, 14, 74, 45
7, 49555, Note_on_c, 14, 74, 0
7, 50040, Note_on_c, 14, 73, 45
7, 50395, Note_on_c, 14, 73, 0
7, 50400, Note_on_c, 14, 76, 45
7, 50755, Note_on_c, 14, 76, 0
7, 50760, Note_on_c, 14, 82, 45
7, 50875, Note_on_c, 14, 82, 0
7, 51000, Note_on_c, 14, 81, 45
7, 51355, Note_on_c, 14, 81, 0
7, 51360, Note_on_c, 14, 77, 45
7, 51715, Note_on_c, 14, 77, 0
7, 51720, Note_on_c, 14, 74, 45
7, 51835, Note_on_c, 14, 74, 0
7, 51960, Note_on_c, 14, 76, 45
7, 52315, Note_on_c, 14, 76, 0
7, 52320, Note_on_c, 14, 79, 45
7, 52675, Note_on_c, 14, 79, 0
7, 52680, Note_on_c, 14, 82, 45
7, 52795, Note_on_c, 14, 82, 0
7, 52920, Note_on_c, 14, 81, 45
7, 53275, Note_on_c, 14, 81, 0
7, 53280, Note_on_c, 14, 83, 45
7, 53635, Note_on_c, 14, 83, 0
7, 53640, Note_on_c, 14, 85, 45
7, 53755, Note_on_c, 14, 85, 0
7, 53880, Note_on_c, 14, 86, 45
7, 53995, Note_on_c, 14, 86, 0
7, 54000, Note_on_c, 14, 86, 45
7, 54115, Note_on_c, 14, 86, 0
7, 54120, Note_on_c, 14, 74, 45
7, 54235, Note_on_c, 14, 74, 0
7, 54240, Note_on_c, 14, 74, 45
7, 55795, Note_on_c, 14, 74, 0
7, 55800, Note_on_c, 14, 58, 45
7, 55915, Note_on_c, 14, 58, 0
7, 56040, Note_on_c, 14, 58, 45
7, 56155, Note_on_c, 14, 58, 0
7, 56280, Note_on_c, 14, 62, 45
7, 56395, Note_on_c, 14, 62, 0
7, 56400, Note_on_c, 14, 65, 45
7, 56755, Note_on_c, 14, 65, 0
7, 56760, Note_on_c, 14, 60, 45
7, 56875, Note_on_c, 14, 60, 0
7, 57000, Note_on_c, 14, 60, 45
7, 57115, Note_on_c, 14, 60, 0
7, 57240, Note_on_c, 14, 64, 45
7, 57355, Note_on_c, 14, 64, 0
7, 57360, Note_on_c, 14, 67, 45
7, 57715, Note_on_c, 14, 67, 0
7, 57720, Note_on_c, 14, 86, 45
7, 57835, Note_on_c, 14, 86, 0
7, 57840, Note_on_c, 14, 86, 45
7, 57955, Note_on_c, 14, 86, 0
7, 57960, Note_on_c, 14, 74, 45
7, 58075, Note_on_c, 14, 74, 0
7, 58080, Note_on_c, 14, 74, 45
7, 59635, Note_on_c, 14, 74, 0
7, 59640, Note_on_c, 14, 58, 45
7, 59755, Note_on_c, 14, 58, 0
7, 59880, Note_on_c, 14, 58, 45
7, 59995, Note_on_c, 14, 58, 0
7, 60120, Note_on_c, 14, 62, 45
7, 60235, Note_on_c, 14, 62, 0
7, 60240, Note_on_c, 14, 65, 45
7, 60595, Note_on_c, 14, 65, 0
7, 60600, Note_on_c, 14, 60, 45
7, 60715, Note_on_c, 14, 60, 0
7, 61080, Note_on_c, 14, 45, 45
7, 61195, Note_on_c, 14, 45, 0
7, 61200, Note_on_c, 14, 48, 45
7, 61435, Note_on_c, 14, 48, 0
7, 61440, Program_c, 14, 84
7, 61560, Note_on_c, 14, 74, 45
7, 61675, Note_on_c, 14, 74, 0
7, 61680, Note_on_c, 14, 74, 45
7, 61795, Note_on_c, 14, 74, 0
7, 61920, Note_on_c, 14, 72, 45
7, 62035, Note_on_c, 14, 72, 0
7, 62160, Note_on_c, 14, 71, 45
7, 62800, Note_on_c, 14, 71, 0
7, 62880, Program_c, 14, 80
7, 62880, Note_on_c, 14, 62, 45
7, 63115, Note_on_c, 14, 62, 0
7, 63120, Note_on_c, 14, 64, 45
7, 63235, Note_on_c, 14, 64, 0
7, 63240, Note_on_c, 14, 65, 45
7, 63355, Note_on_c, 14, 65, 0
7, 63360, Note_on_c, 14, 67, 45
7, 63475, Note_on_c, 14, 67, 0
7, 63480, Note_on_c, 14, 69, 45
7, 63835, Note_on_c, 14, 69, 0
7, 63840, Note_on_c, 14, 62, 45
7, 64195, Note_on_c, 14, 62, 0
7, 64200, Note_on_c, 14, 69, 45
7, 64435, Note_on_c, 14, 69, 0
7, 64440, Note_on_c, 14, 67, 45
7, 64555, Note_on_c, 14, 67, 0
7, 64560, Note_on_c, 14, 72, 45
7, 65395, Note_on_c, 14, 72, 0
7, 65400, Program_c, 14, 84
7, 65400, Note_on_c, 14, 74, 45
7, 65515, Note_on_c, 14, 74, 0
7, 65520, Note_on_c, 14, 74, 45
7, 65635, Note_on_c, 14, 74, 0
7, 65760, Note_on_c, 14, 72, 45
7, 65875, Note_on_c, 14, 72, 0
7, 66000, Note_on_c, 14, 71, 45
7, 66640, Note_on_c, 14, 71, 0
7, 66720, Program_c, 14, 80
7, 66720, Note_on_c, 14, 62, 45
7, 66955, Note_on_c, 14, 62, 0
7, 66960, Note_on_c, 14, 64, 45
7, 67075, Note_on_c, 14, 64, 0
7, 67080, Note_on_c, 14, 65, 45
7, 67195, Note_on_c, 14, 65, 0
7, 67200, Note_on_c, 14, 67, 45
7, 67315, Note_on_c, 14, 67, 0
7, 67320, Note_on_c, 14, 69, 45
7, 67675, Note_on_c, 14, 69, 0
7, 67680, Note_on_c, 14, 62, 45
7, 68035, Note_on_c, 14, 62, 0
7, 68040, Note_on_c, 14, 69, 45
7, 68275, Note_on_c, 14, 69, 0
7, 68280, Note_on_c, 14, 67, 45
7, 68395, Note_on_c, 14, 67, 0
7, 68400, Note_on_c, 14, 60, 45
7, 69235, Note_on_c, 14, 60, 0
7, 69240, Program_c, 14, 27
7, 69480, Note_on_c, 14, 74, 45
7, 69560, Note_on_c, 14, 74, 0
7, 69840, Note_on_c, 14, 81, 45
7, 69920, Note_on_c, 14, 81, 0
7, 70200, Note_on_c, 14, 80, 45
7, 70280, Note_on_c, 14, 80, 0
7, 70320, Note_on_c, 14, 81, 45
7, 70400, Note_on_c, 14, 81, 0
7, 70440, Note_on_c, 14, 80, 45
7, 70520, Note_on_c, 14, 80, 0
7, 70560, Note_on_c, 14, 77, 45
7, 70640, Note_on_c, 14, 77, 0
7, 71400, Note_on_c, 14, 77, 45
7, 71480, Note_on_c, 14, 77, 0
7, 71520, Note_on_c, 14, 74, 45
7, 71600, Note_on_c, 14, 74, 0
7, 71880, Note_on_c, 14, 65, 45
7, 71960, Note_on_c, 14, 65, 0
7, 72000, Note_on_c, 14, 62, 45
7, 72080, Note_on_c, 14, 62, 0
7, 72240, Note_on_c, 14, 77, 45
7, 72320, Note_on_c, 14, 77, 0
7, 72360, Note_on_c, 14, 74, 45
7, 72440, Note_on_c, 14, 74, 0
7, 72480, Note_on_c, 14, 77, 45
7, 72560, Note_on_c, 14, 77, 0
7, 72600, Note_on_c, 14, 74, 45
7, 72680, Note_on_c, 14, 74, 0
7, 72720, Note_on_c, 14, 77, 45
7, 72800, Note_on_c, 14, 77, 0
7, 72840, Note_on_c, 14, 74, 45
7, 72920, Note_on_c, 14, 74, 0
7, 72960, Note_on_c, 14, 77, 45
7, 73040, Note_on_c, 14, 77, 0
7, 73320, Note_on_c, 14, 74, 45
7, 73400, Note_on_c, 14, 74, 0
7, 73680, Note_on_c, 14, 81, 45
7, 73760, Note_on_c, 14, 81, 0
7, 74040, Note_on_c, 14, 80, 45
7, 74120, Note_on_c, 14, 80, 0
7, 74160, Note_on_c, 14, 81, 45
7, 74240, Note_on_c, 14, 81, 0
7, 74280, Note_on_c, 14, 80, 45
7, 74360, Note_on_c, 14, 80, 0
7, 74400, Note_on_c, 14, 77, 45
7, 74480, Note_on_c, 14, 77, 0
7, 75240, Note_on_c, 14, 77, 45
7, 75355, Note_on_c, 14, 77, 0
7, 75360, Note_on_c, 14, 74, 45
7, 75475, Note_on_c, 14, 74, 0
7, 75720, Note_on_c, 14, 65, 45
7, 75835, Note_on_c, 14, 65, 0
7, 75840, Note_on_c, 14, 62, 45
7, 75955, Note_on_c, 14, 62, 0
7, 76080, Note_on_c, 14, 77, 45
7, 76195, Note_on_c, 14, 77, 0
7, 76200, Note_on_c, 14, 74, 45
7, 76315, Note_on_c, 14, 74, 0
7, 76320, Note_on_c, 14, 77, 45
7, 76435, Note_on_c, 14, 77, 0
7, 76440, Note_on_c, 14, 74, 45
7, 76555, Note_on_c, 14, 74, 0
7, 76560, Note_on_c, 14, 77, 45
7, 76675, Note_on_c, 14, 77, 0
7, 76680, Note_on_c, 14, 74, 45
7, 76795, Note_on_c, 14, 74, 0
7, 76800, Note_on_c, 14, 77, 45
7, 76915, Note_on_c, 14, 77, 0
7, 76920, Program_c, 14, 80
7, 76920, Note_on_c, 14, 73, 45
7, 77275, Note_on_c, 14, 73, 0
7, 77280, Note_on_c, 14, 76, 45
7, 77635, Note_on_c, 14, 76, 0
7, 77640, Note_on_c, 14, 82, 45
7, 77755, Note_on_c, 14, 82, 0
7, 77880, Note_on_c, 14, 81, 45
7, 78235, Note_on_c, 14, 81, 0
7, 78240, Note_on_c, 14, 77, 45
7, 78595, Note_on_c, 14, 77, 0
7, 78600, Note_on_c, 14, 74, 45
7, 78715, Note_on_c, 14, 74, 0
7, 78840, Note_on_c, 14, 73, 45
7, 79195, Note_on_c, 14, 73, 0
7, 79200, Note_on_c, 14, 76, 45
7, 79555, Note_on_c, 14, 76, 0
7, 79560, Note_on_c, 14, 82, 45
7, 79675, Note_on_c, 14, 82, 0
7, 79800, Note_on_c, 14, 81, 45
7, 80155, Note_on_c, 14, 81, 0
7, 80160, Note_on_c, 14, 74, 45
7, 80275, Note_on_c, 14, 74, 0
7, 80760, Note_on_c, 14, 73, 45
7, 81115, Note_on_c, 14, 73, 0
7, 81120, Note_on_c, 14, 76, 45
7, 81475, Note_on_c, 14, 76, 0
7, 81480, Note_on_c, 14, 82, 45
7, 81595, Note_on_c, 14, 82, 0
7, 81720, Note_on_c, 14, 81, 45
7, 82075, Note_on_c, 14, 81, 0
7, 82080, Note_on_c, 14, 77, 45
7, 82435, Note_on_c, 14, 77, 0
7, 82440, Note_on_c, 14, 74, 45
7, 82555, Note_on_c, 14, 74, 0
7, 82680, Note_on_c, 14, 76, 45
7, 83035, Note_on_c, 14, 76, 0
7, 83040, Note_on_c, 14, 79, 45
7, 83395, Note_on_c, 14, 79, 0
7, 83400, Note_on_c, 14, 82, 45
7, 83515, Note_on_c, 14, 82, 0
7, 83640, Note_on_c, 14, 81, 45
7, 83995, Note_on_c, 14, 81, 0
7, 84000, Note_on_c, 14, 83, 45
7, 84355, Note_on_c, 14, 83, 0
7, 84360, Note_on_c, 14, 85, 45
7, 84475, Note_on_c, 14, 85, 0
7, 84600, Note_on_c, 14, 86, 45
7, 84715, Note_on_c, 14, 86, 0
7, 84720, Note_on_c, 14, 86, 45
7, 84835, Note_on_c, 14, 86, 0
7, 84840, Note_on_c, 14, 74, 45
7, 84955, Note_on_c, 14, 74, 0
7, 84960, Note_on_c, 14, 74, 45
7, 86515, Note_on_c, 14, 74, 0
7, 86520, Note_on_c, 14, 58, 45
7, 86635, Note_on_c, 14, 58, 0
7, 86760, Note_on_c, 14, 58, 45
7, 86875, Note_on_c, 14, 58, 0
7, 87000, Note_on_c, 14, 62, 45
7, 87115, Note_on_c, 14, 62, 0
7, 87120, Note_on_c, 14, 65, 45
7, 87475, Note_on_c, 14, 65, 0
7, 87480, Note_on_c, 14, 60, 45
7, 87595, Note_on_c, 14, 60, 0
7, 87720, Note_on_c, 14, 60, 45
7, 87835, Note_on_c, 14, 60, 0
7, 87960, Note_on_c, 14, 64, 45
7, 88075, Note_on_c, 14, 64, 0
7, 88080, Note_on_c, 14, 67, 45
7, 88435, Note_on_c, 14, 67, 0
7, 88440, Note_on_c, 14, 86, 45
7, 88555, Note_on_c, 14, 86, 0
7, 88560, Note_on_c, 14, 86, 45
7, 88675, Note_on_c, 14, 86, 0
7, 88680, Note_on_c, 14, 74, 45
7, 88795, Note_on_c, 14, 74, 0
7, 88800, Note_on_c, 14, 74, 45
7, 90355, Note_on_c, 14, 74, 0
7, 90360, Note_on_c, 14, 58, 45
7, 90475, Note_on_c, 14, 58, 0
7, 90600, Note_on_c, 14, 58, 45
7, 90715, Note_on_c, 14, 58, 0
7, 90840, Note_on_c, 14, 62, 45
7, 90955, Note_on_c, 14, 62, 0
7, 90960, Note_on_c, 14, 65, 45
7, 91315, Note_on_c, 14, 65, 0
7, 91320, Note_on_c, 14, 60, 45
7, 91435, Note_on_c, 14, 60, 0
7, 91800, Note_on_c, 14, 45, 45
7, 91915, Note_on_c, 14, 45, 0
7, 91920, Note_on_c, 14, 48, 45
7, 92155, Note_on_c, 14, 48, 0
7, 92155, End_track
8, 0, Start_track
8, 0, Title_t, "Staff-7"
8, 0, Instrument_name_t, "SoCal"
8, 0, Control_c, 9, 7, 127
8, 0, Control_c, 9, 10, 64
8, 0, Note_on_c, 9, 36, 92
8, 0, Note_on_c, 9, 42, 92
8, 115, Note_on_c, 9, 36, 0
8, 115, Note_on_c, 9, 42, 0
8, 240, Note_on_c, 9, 42, 92
8, 355, Note_on_c, 9, 42, 0
8, 360, Note_on_c, 9, 42, 92
8, 475, Note_on_c, 9, 42, 0
8, 480, Note_on_c, 9, 40, 92
8, 595, Note_on_c, 9, 40, 0
8, 960, Note_on_c, 9, 36, 92
8, 960, Note_on_c, 9, 42, 92
8, 1075, Note_on_c, 9, 36, 0
8, 1075, Note_on_c, 9, 42, 0
8, 1200, Note_on_c, 9, 42, 92
8, 1315, Note_on_c, 9, 42, 0
8, 1320, Note_on_c, 9, 42, 92
8, 1435, Note_on_c, 9, 42, 0
8, 1440, Note_on_c, 9, 40, 92
8, 1555, Note_on_c, 9, 40, 0
8, 1680, Note_on_c, 9, 42, 92
8, 1795, Note_on_c, 9, 42, 0
8, 1800, Note_on_c, 9, 42, 92
8, 1915, Note_on_c, 9, 42, 0
8, 1920, Note_on_c, 9, 36, 92
8, 1920, Note_on_c, 9, 42, 92
8, 2035, Note_on_c, 9, 36, 0
8, 2035, Note_on_c, 9, 42, 0
8, 2160, Note_on_c, 9, 42, 92
8, 2275, Note_on_c, 9, 42, 0
8, 2280, Note_on_c, 9, 42, 92
8, 2395, Note_on_c, 9, 42, 0
8, 2400, Note_on_c, 9, 40, 92
8, 2515, Note_on_c, 9, 40, 0
8, 2880, Note_on_c, 9, 36, 92
8, 2880, Note_on_c, 9, 42, 92
8, 2995, Note_on_c, 9, 36, 0
8, 2995, Note_on_c, 9, 42, 0
8, 3000, Note_on_c, 9, 42, 92
8, 3115, Note_on_c, 9, 42, 0
8, 3120, Note_on_c, 9, 40, 92
8, 3235, Note_on_c, 9, 40, 0
8, 3360, Note_on_c, 9, 40, 92
8, 3475, Note_on_c, 9, 40, 0
8, 3480, Note_on_c, 9, 40, 92
8, 3595, Note_on_c, 9, 40, 0
8, 3600, Note_on_c, 9, 40, 92
8, 3715, Note_on_c, 9, 40, 0
8, 3840, Note_on_c, 9, 36, 92
8, 3840, Note_on_c, 9, 42, 92
8, 3955, Note_on_c, 9, 36, 0
8, 3955, Note_on_c, 9, 42, 0
8, 4080, Note_on_c, 9, 42, 92
8, 4195, Note_on_c, 9, 42, 0
8, 4200, Note_on_c, 9, 42, 92
8, 4315, Note_on_c, 9, 42, 0
8, 4320, Note_on_c, 9, 40, 92
8, 4435, Note_on_c, 9, 40, 0
8, 4800, Note_on_c, 9, 36, 92
8, 4800, Note_on_c, 9, 42, 92
8, 4915, Note_on_c, 9, 36, 0
8, 4915, Note_on_c, 9, 42, 0
8, 5040, Note_on_c, 9, 42, 92
8, 5155, Note_on_c, 9, 42, 0
8, 5160, Note_on_c, 9, 42, 92
8, 5275, Note_on_c, 9, 42, 0
8, 5280, Note_on_c, 9, 40, 92
8, 5395, Note_on_c, 9, 40, 0
8, 5520, Note_on_c, 9, 42, 92
8, 5635, Note_on_c, 9, 42, 0
8, 5640, Note_on_c, 9, 42, 92
8, 5755, Note_on_c, 9, 42, 0
8, 5760, Note_on_c, 9, 36, 92
8, 5760, Note_on_c, 9, 42, 92
8, 5875, Note_on_c, 9, 36, 0
8, 5875, Note_on_c, 9, 42, 0
8, 6000, Note_on_c, 9, 42, 92
8, 6115, Note_on_c, 9, 42, 0
8, 6120, Note_on_c, 9, 42, 92
8, 6235, Note_on_c, 9, 42, 0
8, 6240, Note_on_c, 9, 40, 92
8, 6355, Note_on_c, 9, 40, 0
8, 6720, Note_on_c, 9, 36, 92
8, 6720, Note_on_c, 9, 42, 92
8, 6835, Note_on_c, 9, 36, 0
8, 6835, Note_on_c, 9, 42, 0
8, 6840, Note_on_c, 9, 42, 92
8, 6955, Note_on_c, 9, 42, 0
8, 6960, Note_on_c, 9, 40, 92
8, 7075, Note_on_c, 9, 40, 0
8, 7200, Note_on_c, 9, 40, 92
8, 7315, Note_on_c, 9, 40, 0
8, 7320, Note_on_c, 9, 40, 92
8, 7435, Note_on_c, 9, 40, 0
8, 7440, Note_on_c, 9, 40, 92
8, 7555, Note_on_c, 9, 40, 0
8, 7680, Note_on_c, 9, 36, 92
8, 7680, Note_on_c, 9, 42, 92
8, 7795, Note_on_c, 9, 36, 0
8, 7795, Note_on_c, 9, 42, 0
8, 7920, Note_on_c, 9, 42, 92
8, 8035, Note_on_c, 9, 42, 0
8, 8040, Note_on_c, 9, 42, 92
8, 8155, Note_on_c, 9, 42, 0
8, 8160, Note_on_c, 9, 40, 92
8, 8275, Note_on_c, 9, 40, 0
8, 8640, Note_on_c, 9, 36, 92
8, 8640, Note_on_c, 9, 42, 92
8, 8755, Note_on_c, 9, 36, 0
8, 8755, Note_on_c, 9, 42, 0
8, 8880, Note_on_c, 9, 42, 92
8, 8995, Note_on_c, 9, 42, 0
8, 9000, Note_on_c, 9, 42, 92
8, 9115, Note_on_c, 9, 42, 0
8, 9120, Note_on_c, 9, 40, 92
8, 9235, Note_on_c, 9, 40, 0
8, 9360, Note_on_c, 9, 42, 92
8, 9475, Note_on_c, 9, 42, 0
8, 9480, Note_on_c, 9, 42, 92
8, 9595, Note_on_c, 9, 42, 0
8, 9600, Note_on_c, 9, 36, 92
8, 9600, Note_on_c, 9, 42, 92
8, 9715, Note_on_c, 9, 36, 0
8, 9715, Note_on_c, 9, 42, 0
8, 9840, Note_on_c, 9, 42, 92
8, 9955, Note_on_c, 9, 42, 0
8, 9960, Note_on_c, 9, 42, 92
8, 10075, Note_on_c, 9, 42, 0
8, 10080, Note_on_c, 9, 40, 92
8, 10195, Note_on_c, 9, 40, 0
8, 10560, Note_on_c, 9, 36, 92
8, 10560, Note_on_c, 9, 42, 92
8, 10675, Note_on_c, 9, 36, 0
8, 10675, Note_on_c, 9, 42, 0
8, 10680, Note_on_c, 9, 42, 92
8, 10795, Note_on_c, 9, 42, 0
8, 10800, Note_on_c, 9, 40, 92
8, 10915, Note_on_c, 9, 40, 0
8, 11040, Note_on_c, 9, 40, 92
8, 11155, Note_on_c, 9, 40, 0
8, 11280, Note_on_c, 9, 40, 92
8, 11395, Note_on_c, 9, 40, 0
8, 11400, Note_on_c, 9, 40, 92
8, 11515, Note_on_c, 9, 40, 0
8, 11520, Note_on_c, 9, 36, 92
8, 11520, Note_on_c, 9, 42, 92
8, 11635, Note_on_c, 9, 36, 0
8, 11635, Note_on_c, 9, 42, 0
8, 11760, Note_on_c, 9, 42, 92
8, 11875, Note_on_c, 9, 42, 0
8, 11880, Note_on_c, 9, 42, 92
8, 11995, Note_on_c, 9, 42, 0
8, 12000, Note_on_c, 9, 40, 92
8, 12115, Note_on_c, 9, 40, 0
8, 12480, Note_on_c, 9, 36, 92
8, 12480, Note_on_c, 9, 42, 92
8, 12595, Note_on_c, 9, 36, 0
8, 12595, Note_on_c, 9, 42, 0
8, 12720, Note_on_c, 9, 42, 92
8, 12835, Note_on_c, 9, 42, 0
8, 12840, Note_on_c, 9, 42, 92
8, 12955, Note_on_c, 9, 42, 0
8, 12960, Note_on_c, 9, 40, 92
8, 13075, Note_on_c, 9, 40, 0
8, 13200, Note_on_c, 9, 42, 92
8, 13315, Note_on_c, 9, 42, 0
8, 13320, Note_on_c, 9, 42, 92
8, 13435, Note_on_c, 9, 42, 0
8, 13440, Note_on_c, 9, 36, 92
8, 13440, Note_on_c, 9, 42, 92
8, 13555, Note_on_c, 9, 36, 0
8, 13555, Note_on_c, 9, 42, 0
8, 13680, Note_on_c, 9, 42, 92
8, 13795, Note_on_c, 9, 42, 0
8, 13800, Note_on_c, 9, 42, 92
8, 13915, Note_on_c, 9, 42, 0
8, 13920, Note_on_c, 9, 40, 92
8, 14035, Note_on_c, 9, 40, 0
8, 14400, Note_on_c, 9, 36, 92
8, 14400, Note_on_c, 9, 42, 92
8, 14515, Note_on_c, 9, 36, 0
8, 14515, Note_on_c, 9, 42, 0
8, 14520, Note_on_c, 9, 42, 92
8, 14635, Note_on_c, 9, 42, 0
8, 14640, Note_on_c, 9, 40, 92
8, 14755, Note_on_c, 9, 40, 0
8, 14880, Note_on_c, 9, 40, 92
8, 14995, Note_on_c, 9, 40, 0
8, 15120, Note_on_c, 9, 40, 92
8, 15235, Note_on_c, 9, 40, 0
8, 15240, Note_on_c, 9, 40, 92
8, 15355, Note_on_c, 9, 40, 0
8, 15360, Note_on_c, 9, 36, 92
8, 15360, Note_on_c, 9, 42, 92
8, 15475, Note_on_c, 9, 36, 0
8, 15475, Note_on_c, 9, 42, 0
8, 15600, Note_on_c, 9, 42, 92
8, 15715, Note_on_c, 9, 42, 0
8, 15720, Note_on_c, 9, 42, 92
8, 15835, Note_on_c, 9, 42, 0
8, 15840, Note_on_c, 9, 42, 92
8, 15955, Note_on_c, 9, 42, 0
8, 15960, Note_on_c, 9, 42, 92
8, 16075, Note_on_c, 9, 42, 0
8, 16080, Note_on_c, 9, 40, 92
8, 16080, Note_on_c, 9, 42, 92
8, 16195, Note_on_c, 9, 40, 0
8, 16195, Note_on_c, 9, 42, 0
8, 16320, Note_on_c, 9, 36, 92
8, 16320, Note_on_c, 9, 42, 92
8, 16435, Note_on_c, 9, 36, 0
8, 16435, Note_on_c, 9, 42, 0
8, 16560, Note_on_c, 9, 42, 92
8, 16675, Note_on_c, 9, 42, 0
8, 16680, Note_on_c, 9, 42, 92
8, 16795, Note_on_c, 9, 42, 0
8, 16800, Note_on_c, 9, 42, 92
8, 16915, Note_on_c, 9, 42, 0
8, 16920, Note_on_c, 9, 42, 92
8, 17035, Note_on_c, 9, 42, 0
8, 17040, Note_on_c, 9, 40, 92
8, 17040, Note_on_c, 9, 42, 92
8, 17155, Note_on_c, 9, 40, 0
8, 17155, Note_on_c, 9, 42, 0
8, 17280, Note_on_c, 9, 36, 92
8, 17280, Note_on_c, 9, 42, 92
8, 17395, Note_on_c, 9, 36, 0
8, 17395, Note_on_c, 9, 42, 0
8, 17520, Note_on_c, 9, 42, 92
8, 17635, Note_on_c, 9, 42, 0
8, 17640, Note_on_c, 9, 42, 92
8, 17755, Note_on_c, 9, 42, 0
8, 17760, Note_on_c, 9, 42, 92
8, 17875, Note_on_c, 9, 42, 0
8, 17880, Note_on_c, 9, 42, 92
8, 17995, Note_on_c, 9, 42, 0
8, 18000, Note_on_c, 9, 40, 92
8, 18000, Note_on_c, 9, 42, 92
8, 18115, Note_on_c, 9, 40, 0
8, 18115, Note_on_c, 9, 42, 0
8, 18240, Note_on_c, 9, 36, 92
8, 18240, Note_on_c, 9, 42, 92
8, 18355, Note_on_c, 9, 36, 0
8, 18355, Note_on_c, 9, 42, 0
8, 18480, Note_on_c, 9, 42, 92
8, 18595, Note_on_c, 9, 42, 0
8, 18600, Note_on_c, 9, 42, 92
8, 18715, Note_on_c, 9, 42, 0
8, 18720, Note_on_c, 9, 42, 92
8, 18835, Note_on_c, 9, 42, 0
8, 18840, Note_on_c, 9, 42, 92
8, 18955, Note_on_c, 9, 42, 0
8, 18960, Note_on_c, 9, 40, 92
8, 18960, Note_on_c, 9, 42, 92
8, 19075, Note_on_c, 9, 40, 0
8, 19075, Note_on_c, 9, 42, 0
8, 19080, Note_on_c, 9, 40, 92
8, 19195, Note_on_c, 9, 40, 0
8, 19200, Note_on_c, 9, 36, 92
8, 19200, Note_on_c, 9, 42, 92
8, 19315, Note_on_c, 9, 36, 0
8, 19315, Note_on_c, 9, 42, 0
8, 19440, Note_on_c, 9, 42, 92
8, 19555, Note_on_c, 9, 42, 0
8, 19560, Note_on_c, 9, 42, 92
8, 19675, Note_on_c, 9, 42, 0
8, 19680, Note_on_c, 9, 42, 92
8, 19795, Note_on_c, 9, 42, 0
8, 19800, Note_on_c, 9, 42, 92
8, 19915, Note_on_c, 9, 42, 0
8, 19920, Note_on_c, 9, 40, 92
8, 19920, Note_on_c, 9, 42, 92
8, 20035, Note_on_c, 9, 40, 0
8, 20035, Note_on_c, 9, 42, 0
8, 20160, Note_on_c, 9, 36, 92
8, 20160, Note_on_c, 9, 42, 92
8, 20275, Note_on_c, 9, 36, 0
8, 20275, Note_on_c, 9, 42, 0
8, 20400, Note_on_c, 9, 42, 92
8, 20515, Note_on_c, 9, 42, 0
8, 20520, Note_on_c, 9, 42, 92
8, 20635, Note_on_c, 9, 42, 0
8, 20640, Note_on_c, 9, 42, 92
8, 20755, Note_on_c, 9, 42, 0
8, 20760, Note_on_c, 9, 42, 92
8, 20875, Note_on_c, 9, 42, 0
8, 20880, Note_on_c, 9, 40, 92
8, 20880, Note_on_c, 9, 42, 92
8, 20995, Note_on_c, 9, 40, 0
8, 20995, Note_on_c, 9, 42, 0
8, 21120, Note_on_c, 9, 36, 92
8, 21120, Note_on_c, 9, 42, 92
8, 21235, Note_on_c, 9, 36, 0
8, 21235, Note_on_c, 9, 42, 0
8, 21360, Note_on_c, 9, 42, 92
8, 21475, Note_on_c, 9, 42, 0
8, 21480, Note_on_c, 9, 42, 92
8, 21595, Note_on_c, 9, 42, 0
8, 21600, Note_on_c, 9, 42, 92
8, 21715, Note_on_c, 9, 42, 0
8, 21720, Note_on_c, 9, 42, 92
8, 21835, Note_on_c, 9, 42, 0
8, 21840, Note_on_c, 9, 40, 92
8, 21840, Note_on_c, 9, 42, 92
8, 21955, Note_on_c, 9, 40, 0
8, 21955, Note_on_c, 9, 42, 0
8, 22080, Note_on_c, 9, 36, 92
8, 22080, Note_on_c, 9, 42, 92
8, 22195, Note_on_c, 9, 36, 0
8, 22195, Note_on_c, 9, 42, 0
8, 22320, Note_on_c, 9, 42, 92
8, 22435, Note_on_c, 9, 42, 0
8, 22440, Note_on_c, 9, 42, 92
8, 22555, Note_on_c, 9, 42, 0
8, 22680, Note_on_c, 9, 42, 92
8, 22795, Note_on_c, 9, 42, 0
8, 22800, Note_on_c, 9, 40, 92
8, 22800, Note_on_c, 9, 42, 92
8, 22915, Note_on_c, 9, 40, 0
8, 22915, Note_on_c, 9, 42, 0
8, 22920, Note_on_c, 9, 40, 92
8, 22920, Note_on_c, 9, 42, 92
8, 23035, Note_on_c, 9, 40, 0
8, 23035, Note_on_c, 9, 42, 0
8, 23040, Note_on_c, 9, 36, 92
8, 23040, Note_on_c, 9, 42, 92
8, 23155, Note_on_c, 9, 36, 0
8, 23155, Note_on_c, 9, 42, 0
8, 23160, Note_on_c, 9, 42, 92
8, 23275, Note_on_c, 9, 42, 0
8, 23280, Note_on_c, 9, 40, 92
8, 23280, Note_on_c, 9, 42, 92
8, 23395, Note_on_c, 9, 40, 0
8, 23395, Note_on_c, 9, 42, 0
8, 23400, Note_on_c, 9, 42, 92
8, 23515, Note_on_c, 9, 42, 0
8, 23520, Note_on_c, 9, 42, 92
8, 23635, Note_on_c, 9, 42, 0
8, 23640, Note_on_c, 9, 40, 92
8, 23640, Note_on_c, 9, 42, 92
8, 23755, Note_on_c, 9, 40, 0
8, 23755, Note_on_c, 9, 42, 0
8, 23760, Note_on_c, 9, 42, 92
8, 23875, Note_on_c, 9, 42, 0
8, 23880, Note_on_c, 9, 40, 92
8, 23880, Note_on_c, 9, 42, 92
8, 23995, Note_on_c, 9, 40, 0
8, 23995, Note_on_c, 9, 42, 0
8, 24240, Note_on_c, 9, 42, 92
8, 24355, Note_on_c, 9, 42, 0
8, 24360, Note_on_c, 9, 42, 92
8, 24475, Note_on_c, 9, 42, 0
8, 24480, Note_on_c, 9, 42, 92
8, 24595, Note_on_c, 9, 42, 0
8, 24600, Note_on_c, 9, 42, 92
8, 24715, Note_on_c, 9, 42, 0
8, 24720, Note_on_c, 9, 42, 92
8, 24835, Note_on_c, 9, 42, 0
8, 24840, Note_on_c, 9, 42, 92
8, 24955, Note_on_c, 9, 42, 0
8, 24960, Note_on_c, 9, 36, 92
8, 24960, Note_on_c, 9, 40, 92
8, 24960, Note_on_c, 9, 42, 92
8, 25075, Note_on_c, 9, 36, 0
8, 25075, Note_on_c, 9, 40, 0
8, 25075, Note_on_c, 9, 42, 0
8, 25200, Note_on_c, 9, 40, 92
8, 25200, Note_on_c, 9, 42, 92
8, 25315, Note_on_c, 9, 40, 0
8, 25315, Note_on_c, 9, 42, 0
8, 25440, Note_on_c, 9, 42, 92
8, 25555, Note_on_c, 9, 42, 0
8, 25560, Note_on_c, 9, 40, 92
8, 25675, Note_on_c, 9, 40, 0
8, 25680, Note_on_c, 9, 40, 92
8, 25795, Note_on_c, 9, 40, 0
8, 25800, Note_on_c, 9, 40, 92
8, 25915, Note_on_c, 9, 40, 0
8, 25920, Note_on_c, 9, 36, 92
8, 25920, Note_on_c, 9, 40, 92
8, 25920, Note_on_c, 9, 42, 92
8, 26035, Note_on_c, 9, 36, 0
8, 26035, Note_on_c, 9, 40, 0
8, 26035, Note_on_c, 9, 42, 0
8, 26160, Note_on_c, 9, 36, 92
8, 26160, Note_on_c, 9, 40, 92
8, 26160, Note_on_c, 9, 42, 92
8, 26275, Note_on_c, 9, 36, 0
8, 26275, Note_on_c, 9, 40, 0
8, 26275, Note_on_c, 9, 42, 0
8, 26400, Note_on_c, 9, 42, 92
8, 26515, Note_on_c, 9, 42, 0
8, 26520, Note_on_c, 9, 40, 92
8, 26635, Note_on_c, 9, 40, 0
8, 26640, Note_on_c, 9, 40, 92
8, 26755, Note_on_c, 9, 40, 0
8, 26760, Note_on_c, 9, 40, 92
8, 26875, Note_on_c, 9, 40, 0
8, 26880, Note_on_c, 9, 36, 92
8, 26880, Note_on_c, 9, 42, 92
8, 26995, Note_on_c, 9, 36, 0
8, 26995, Note_on_c, 9, 42, 0
8, 27000, Note_on_c, 9, 42, 92
8, 27115, Note_on_c, 9, 42, 0
8, 27120, Note_on_c, 9, 40, 92
8, 27120, Note_on_c, 9, 42, 92
8, 27235, Note_on_c, 9, 40, 0
8, 27235, Note_on_c, 9, 42, 0
8, 27240, Note_on_c, 9, 42, 92
8, 27355, Note_on_c, 9, 42, 0
8, 27360, Note_on_c, 9, 42, 92
8, 27475, Note_on_c, 9, 42, 0
8, 27480, Note_on_c, 9, 40, 92
8, 27480, Note_on_c, 9, 42, 92
8, 27595, Note_on_c, 9, 40, 0
8, 27595, Note_on_c, 9, 42, 0
8, 27600, Note_on_c, 9, 42, 92
8, 27715, Note_on_c, 9, 42, 0
8, 27720, Note_on_c, 9, 40, 92
8, 27720, Note_on_c, 9, 42, 92
8, 27835, Note_on_c, 9, 40, 0
8, 27835, Note_on_c, 9, 42, 0
8, 28080, Note_on_c, 9, 42, 92
8, 28195, Note_on_c, 9, 42, 0
8, 28200, Note_on_c, 9, 42, 92
8, 28315, Note_on_c, 9, 42, 0
8, 28320, Note_on_c, 9, 42, 92
8, 28435, Note_on_c, 9, 42, 0
8, 28440, Note_on_c, 9, 42, 92
8, 28555, Note_on_c, 9, 42, 0
8, 28560, Note_on_c, 9, 42, 92
8, 28675, Note_on_c, 9, 42, 0
8, 28680, Note_on_c, 9, 42, 92
8, 28795, Note_on_c, 9, 42, 0
8, 28800, Note_on_c, 9, 36, 92
8, 28800, Note_on_c, 9, 40, 92
8, 28800, Note_on_c, 9, 42, 92
8, 28915, Note_on_c, 9, 36, 0
8, 28915, Note_on_c, 9, 40, 0
8, 28915, Note_on_c, 9, 42, 0
8, 29040, Note_on_c, 9, 40, 92
8, 29040, Note_on_c, 9, 42, 92
8, 29155, Note_on_c, 9, 40, 0
8, 29155, Note_on_c, 9, 42, 0
8, 29280, Note_on_c, 9, 42, 92
8, 29395, Note_on_c, 9, 42, 0
8, 29400, Note_on_c, 9, 40, 92
8, 29515, Note_on_c, 9, 40, 0
8, 29520, Note_on_c, 9, 40, 92
8, 29635, Note_on_c, 9, 40, 0
8, 29640, Note_on_c, 9, 40, 92
8, 29755, Note_on_c, 9, 40, 0
8, 29760, Note_on_c, 9, 36, 92
8, 29760, Note_on_c, 9, 40, 92
8, 29760, Note_on_c, 9, 42, 92
8, 29875, Note_on_c, 9, 36, 0
8, 29875, Note_on_c, 9, 40, 0
8, 29875, Note_on_c, 9, 42, 0
8, 30000, Note_on_c, 9, 36, 92
8, 30000, Note_on_c, 9, 40, 92
8, 30000, Note_on_c, 9, 42, 92
8, 30115, Note_on_c, 9, 36, 0
8, 30115, Note_on_c, 9, 40, 0
8, 30115, Note_on_c, 9, 42, 0
8, 30240, Note_on_c, 9, 42, 92
8, 30355, Note_on_c, 9, 42, 0
8, 30360, Note_on_c, 9, 40, 92
8, 30475, Note_on_c, 9, 40, 0
8, 30480, Note_on_c, 9, 40, 92
8, 30595, Note_on_c, 9, 40, 0
8, 30600, Note_on_c, 9, 40, 92
8, 30715, Note_on_c, 9, 40, 0
8, 30720, Note_on_c, 9, 36, 92
8, 30720, Note_on_c, 9, 42, 92
8, 30835, Note_on_c, 9, 36, 0
8, 30835, Note_on_c, 9, 42, 0
8, 30960, Note_on_c, 9, 42, 92
8, 31075, Note_on_c, 9, 42, 0
8, 31080, Note_on_c, 9, 42, 92
8, 31195, Note_on_c, 9, 42, 0
8, 31200, Note_on_c, 9, 40, 92
8, 31315, Note_on_c, 9, 40, 0
8, 31680, Note_on_c, 9, 36, 92
8, 31680, Note_on_c, 9, 42, 92
8, 31795, Note_on_c, 9, 36, 0
8, 31795, Note_on_c, 9, 42, 0
8, 31920, Note_on_c, 9, 42, 92
8, 32035, Note_on_c, 9, 42, 0
8, 32040, Note_on_c, 9, 42, 92
8, 32155, Note_on_c, 9, 42, 0
8, 32160, Note_on_c, 9, 40, 92
8, 32275, Note_on_c, 9, 40, 0
8, 32400, Note_on_c, 9, 42, 92
8, 32515, Note_on_c, 9, 42, 0
8, 32520, Note_on_c, 9, 42, 92
8, 32635, Note_on_c, 9, 42, 0
8, 32640, Note_on_c, 9, 36, 92
8, 32640, Note_on_c, 9, 42, 92
8, 32755, Note_on_c, 9, 36, 0
8, 32755, Note_on_c, 9, 42, 0
8, 32880, Note_on_c, 9, 42, 92
8, 32995, Note_on_c, 9, 42, 0
8, 33000, Note_on_c, 9, 42, 92
8, 33115, Note_on_c, 9, 42, 0
8, 33120, Note_on_c, 9, 40, 92
8, 33235, Note_on_c, 9, 40, 0
8, 33600, Note_on_c, 9, 36, 92
8, 33600, Note_on_c, 9, 42, 92
8, 33715, Note_on_c, 9, 36, 0
8, 33715, Note_on_c, 9, 42, 0
8, 33720, Note_on_c, 9, 42, 92
8, 33835, Note_on_c, 9, 42, 0
8, 33840, Note_on_c, 9, 40, 92
8, 33955, Note_on_c, 9, 40, 0
8, 34080, Note_on_c, 9, 40, 92
8, 34195, Note_on_c, 9, 40, 0
8, 34200, Note_on_c, 9, 40, 92
8, 34315, Note_on_c, 9, 40, 0
8, 34320, Note_on_c, 9, 40, 92
8, 34435, Note_on_c, 9, 40, 0
8, 34560, Note_on_c, 9, 36, 92
8, 34560, Note_on_c, 9, 42, 92
8, 34675, Note_on_c, 9, 36, 0
8, 34675, Note_on_c, 9, 42, 0
8, 34800, Note_on_c, 9, 42, 92
8, 34915, Note_on_c, 9, 42, 0
8, 34920, Note_on_c, 9, 42, 92
8, 35035, Note_on_c, 9, 42, 0
8, 35040, Note_on_c, 9, 40, 92
8, 35155, Note_on_c, 9, 40, 0
8, 35520, Note_on_c, 9, 36, 92
8, 35520, Note_on_c, 9, 42, 92
8, 35635, Note_on_c, 9, 36, 0
8, 35635, Note_on_c, 9, 42, 0
8, 35760, Note_on_c, 9, 42, 92
8, 35875, Note_on_c, 9, 42, 0
8, 35880, Note_on_c, 9, 42, 92
8, 35995, Note_on_c, 9, 42, 0
8, 36000, Note_on_c, 9, 40, 92
8, 36115, Note_on_c, 9, 40, 0
8, 36240, Note_on_c, 9, 42, 92
8, 36355, Note_on_c, 9, 42, 0
8, 36360, Note_on_c, 9, 42, 92
8, 36475, Note_on_c, 9, 42, 0
8, 36480, Note_on_c, 9, 36, 92
8, 36480, Note_on_c, 9, 42, 92
8, 36595, Note_on_c, 9, 36, 0
8, 36595, Note_on_c, 9, 42, 0
8, 36720, Note_on_c, 9, 42, 92
8, 36835, Note_on_c, 9, 42, 0
8, 36840, Note_on_c, 9, 42, 92
8, 36955, Note_on_c, 9, 42, 0
8, 36960, Note_on_c, 9, 40, 92
8, 37075, Note_on_c, 9, 40, 0
8, 37440, Note_on_c, 9, 36, 92
8, 37440, Note_on_c, 9, 42, 92
8, 37555, Note_on_c, 9, 36, 0
8, 37555, Note_on_c, 9, 42, 0
8, 37560, Note_on_c, 9, 42, 92
8, 37675, Note_on_c, 9, 42, 0
8, 37680, Note_on_c, 9, 40, 92
8, 37795, Note_on_c, 9, 40, 0
8, 37920, Note_on_c, 9, 40, 92
8, 38035, Note_on_c, 9, 40, 0
8, 38040, Note_on_c, 9, 40, 92
8, 38155, Note_on_c, 9, 40, 0
8, 38160, Note_on_c, 9, 40, 92
8, 38275, Note_on_c, 9, 40, 0
8, 38400, Note_on_c, 9, 36, 92
8, 38400, Note_on_c, 9, 42, 92
8, 38515, Note_on_c, 9, 36, 0
8, 38515, Note_on_c, 9, 42, 0
8, 38640, Note_on_c, 9, 42, 92
8, 38755, Note_on_c, 9, 42, 0
8, 38760, Note_on_c, 9, 42, 92
8, 38875, Note_on_c, 9, 42, 0
8, 38880, Note_on_c, 9, 40, 92
8, 38995, Note_on_c, 9, 40, 0
8, 39360, Note_on_c, 9, 36, 92
8, 39360, Note_on_c, 9, 42, 92
8, 39475, Note_on_c, 9, 36, 0
8, 39475, Note_on_c, 9, 42, 0
8, 39600, Note_on_c, 9, 42, 92
8, 39715, Note_on_c, 9, 42, 0
8, 39720, Note_on_c, 9, 42, 92
8, 39835, Note_on_c, 9, 42, 0
8, 39840, Note_on_c, 9, 40, 92
8, 39955, Note_on_c, 9, 40, 0
8, 40080, Note_on_c, 9, 42, 92
8, 40195, Note_on_c, 9, 42, 0
8, 40200, Note_on_c, 9, 42, 92
8, 40315, Note_on_c, 9, 42, 0
8, 40320, Note_on_c, 9, 36, 92
8, 40320, Note_on_c, 9, 42, 92
8, 40435, Note_on_c, 9, 36, 0
8, 40435, Note_on_c, 9, 42, 0
8, 40560, Note_on_c, 9, 42, 92
8, 40675, Note_on_c, 9, 42, 0
8, 40680, Note_on_c, 9, 42, 92
8, 40795, Note_on_c, 9, 42, 0
8, 40800, Note_on_c, 9, 40, 92
8, 40915, Note_on_c, 9, 40, 0
8, 41280, Note_on_c, 9, 36, 92
8, 41280, Note_on_c, 9, 42, 92
8, 41395, Note_on_c, 9, 36, 0
8, 41395, Note_on_c, 9, 42, 0
8, 41400, Note_on_c, 9, 42, 92
8, 41515, Note_on_c, 9, 42, 0
8, 41520, Note_on_c, 9, 40, 92
8, 41635, Note_on_c, 9, 40, 0
8, 41760, Note_on_c, 9, 40, 92
8, 41875, Note_on_c, 9, 40, 0
8, 42000, Note_on_c, 9, 40, 92
8, 42115, Note_on_c, 9, 40, 0
8, 42120, Note_on_c, 9, 40, 92
8, 42235, Note_on_c, 9, 40, 0
8, 42240, Note_on_c, 9, 36, 92
8, 42240, Note_on_c, 9, 42, 92
8, 42355, Note_on_c, 9, 36, 0
8, 42355, Note_on_c, 9, 42, 0
8, 42480, Note_on_c, 9, 42, 92
8, 42595, Note_on_c, 9, 42, 0
8, 42600, Note_on_c, 9, 42, 92
8, 42715, Note_on_c, 9, 42, 0
8, 42720, Note_on_c, 9, 40, 92
8, 42835, Note_on_c, 9, 40, 0
8, 43200, Note_on_c, 9, 36, 92
8, 43200, Note_on_c, 9, 42, 92
8, 43315, Note_on_c, 9, 36, 0
8, 43315, Note_on_c, 9, 42, 0
8, 43440, Note_on_c, 9, 42, 92
8, 43555, Note_on_c, 9, 42, 0
8, 43560, Note_on_c, 9, 42, 92
8, 43675, Note_on_c, 9, 42, 0
8, 43680, Note_on_c, 9, 40, 92
8, 43795, Note_on_c, 9, 40, 0
8, 43920, Note_on_c, 9, 42, 92
8, 44035, Note_on_c, 9, 42, 0
8, 44040, Note_on_c, 9, 42, 92
8, 44155, Note_on_c, 9, 42, 0
8, 44160, Note_on_c, 9, 36, 92
8, 44160, Note_on_c, 9, 42, 92
8, 44275, Note_on_c, 9, 36, 0
8, 44275, Note_on_c, 9, 42, 0
8, 44400, Note_on_c, 9, 42, 92
8, 44515, Note_on_c, 9, 42, 0
8, 44520, Note_on_c, 9, 42, 92
8, 44635, Note_on_c, 9, 42, 0
8, 44640, Note_on_c, 9, 40, 92
8, 44755, Note_on_c, 9, 40, 0
8, 45120, Note_on_c, 9, 36, 92
8, 45120, Note_on_c, 9, 42, 92
8, 45235, Note_on_c, 9, 36, 0
8, 45235, Note_on_c, 9, 42, 0
8, 45240, Note_on_c, 9, 42, 92
8, 45355, Note_on_c, 9, 42, 0
8, 45360, Note_on_c, 9, 40, 92
8, 45475, Note_on_c, 9, 40, 0
8, 45600, Note_on_c, 9, 40, 92
8, 45715, Note_on_c, 9, 40, 0
8, 45840, Note_on_c, 9, 40, 92
8, 45955, Note_on_c, 9, 40, 0
8, 45960, Note_on_c, 9, 40, 92
8, 46075, Note_on_c, 9, 40, 0
8, 46080, Note_on_c, 9, 36, 92
8, 46080, Note_on_c, 9, 42, 92
8, 46195, Note_on_c, 9, 36, 0
8, 46195, Note_on_c, 9, 42, 0
8, 46320, Note_on_c, 9, 42, 92
8, 46435, Note_on_c, 9, 42, 0
8, 46440, Note_on_c, 9, 42, 92
8, 46555, Note_on_c, 9, 42, 0
8, 46560, Note_on_c, 9, 42, 92
8, 46675, Note_on_c, 9, 42, 0
8, 46680, Note_on_c, 9, 42, 92
8, 46795, Note_on_c, 9, 42, 0
8, 46800, Note_on_c, 9, 40, 92
8, 46800, Note_on_c, 9, 42, 92
8, 46915, Note_on_c, 9, 40, 0
8, 46915, Note_on_c, 9, 42, 0
8, 47040, Note_on_c, 9, 36, 92
8, 47040, Note_on_c, 9, 42, 92
8, 47155, Note_on_c, 9, 36, 0
8, 47155, Note_on_c, 9, 42, 0
8, 47280, Note_on_c, 9, 42, 92
8, 47395, Note_on_c, 9, 42, 0
8, 47400, Note_on_c, 9, 42, 92
8, 47515, Note_on_c, 9, 42, 0
8, 47520, Note_on_c, 9, 42, 92
8, 47635, Note_on_c, 9, 42, 0
8, 47640, Note_on_c, 9, 42, 92
8, 47755, Note_on_c, 9, 42, 0
8, 47760, Note_on_c, 9, 40, 92
8, 47760, Note_on_c, 9, 42, 92
8, 47875, Note_on_c, 9, 40, 0
8, 47875, Note_on_c, 9, 42, 0
8, 48000, Note_on_c, 9, 36, 92
8, 48000, Note_on_c, 9, 42, 92
8, 48115, Note_on_c, 9, 36, 0
8, 48115, Note_on_c, 9, 42, 0
8, 48240, Note_on_c, 9, 42, 92
8, 48355, Note_on_c, 9, 42, 0
8, 48360, Note_on_c, 9, 42, 92
8, 48475, Note_on_c, 9, 42, 0
8, 48480, Note_on_c, 9, 42, 92
8, 48595, Note_on_c, 9, 42, 0
8, 48600, Note_on_c, 9, 42, 92
8, 48715, Note_on_c, 9, 42, 0
8, 48720, Note_on_c, 9, 40, 92
8, 48720, Note_on_c, 9, 42, 92
8, 48835, Note_on_c, 9, 40, 0
8, 48835, Note_on_c, 9, 42, 0
8, 48960, Note_on_c, 9, 36, 92
8, 48960, Note_on_c, 9, 42, 92
8, 49075, Note_on_c, 9, 36, 0
8, 49075, Note_on_c, 9, 42, 0
8, 49200, Note_on_c, 9, 42, 92
8, 49315, Note_on_c, 9, 42, 0
8, 49320, Note_on_c, 9, 42, 92
8, 49435, Note_on_c, 9, 42, 0
8, 49440, Note_on_c, 9, 42, 92
8, 49555, Note_on_c, 9, 42, 0
8, 49560, Note_on_c, 9, 42, 92
8, 49675, Note_on_c, 9, 42, 0
8, 49680, Note_on_c, 9, 40, 92
8, 49680, Note_on_c, 9, 42, 92
8, 49795, Note_on_c, 9, 40, 0
8, 49795, Note_on_c, 9, 42, 0
8, 49800, Note_on_c, 9, 40, 92
8, 49915, Note_on_c, 9, 40, 0
8, 49920, Note_on_c, 9, 36, 92
8, 49920, Note_on_c, 9, 42, 92
8, 50035, Note_on_c, 9, 36, 0
8, 50035, Note_on_c, 9, 42, 0
8, 50160, Note_on_c, 9, 42, 92
8, 50275, Note_on_c, 9, 42, 0
8, 50280, Note_on_c, 9, 42, 92
8, 50395, Note_on_c, 9, 42, 0
8, 50400, Note_on_c, 9, 42, 92
8, 50515, Note_on_c, 9, 42, 0
8, 50520, Note_on_c, 9, 42, 92
8, 50635, Note_on_c, 9, 42, 0
8, 50640, Note_on_c, 9, 40, 92
8, 50640, Note_on_c, 9, 42, 92
8, 50755, Note_on_c, 9, 40, 0
8, 50755, Note_on_c, 9, 42, 0
8, 50880, Note_on_c, 9, 36, 92
8, 50880, Note_on_c, 9, 42, 92
8, 50995, Note_on_c, 9, 36, 0
8, 50995, Note_on_c, 9, 42, 0
8, 51120, Note_on_c, 9, 42, 92
8, 51235, Note_on_c, 9, 42, 0
8, 51240, Note_on_c, 9, 42, 92
8, 51355, Note_on_c, 9, 42, 0
8, 51360, Note_on_c, 9, 42, 92
8, 51475, Note_on_c, 9, 42, 0
8, 51480, Note_on_c, 9, 42, 92
8, 51595, Note_on_c, 9, 42, 0
8, 51600, Note_on_c, 9, 40, 92
8, 51600, Note_on_c, 9, 42, 92
8, 51715, Note_on_c, 9, 40, 0
8, 51715, Note_on_c, 9, 42, 0
8, 51840, Note_on_c, 9, 36, 92
8, 51840, Note_on_c, 9, 42, 92
8, 51955, Note_on_c, 9, 36, 0
8, 51955, Note_on_c, 9, 42, 0
8, 52080, Note_on_c, 9, 42, 92
8, 52195, Note_on_c, 9, 42, 0
8, 52200, Note_on_c, 9, 42, 92
8, 52315, Note_on_c, 9, 42, 0
8, 52320, Note_on_c, 9, 42, 92
8, 52435, Note_on_c, 9, 42, 0
8, 52440, Note_on_c, 9, 42, 92
8, 52555, Note_on_c, 9, 42, 0
8, 52560, Note_on_c, 9, 40, 92
8, 52560, Note_on_c, 9, 42, 92
8, 52675, Note_on_c, 9, 40, 0
8, 52675, Note_on_c, 9, 42, 0
8, 52800, Note_on_c, 9, 36, 92
8, 52800, Note_on_c, 9, 42, 92
8, 52915, Note_on_c, 9, 36, 0
8, 52915, Note_on_c, 9, 42, 0
8, 53040, Note_on_c, 9, 42, 92
8, 53155, Note_on_c, 9, 42, 0
8, 53160, Note_on_c, 9, 42, 92
8, 53275, Note_on_c, 9, 42, 0
8, 53400, Note_on_c, 9, 42, 92
8, 53515, Note_on_c, 9, 42, 0
8, 53520, Note_on_c, 9, 40, 92
8, 53520, Note_on_c, 9, 42, 92
8, 53635, Note_on_c, 9, 40, 0
8, 53635, Note_on_c, 9, 42, 0
8, 53640, Note_on_c, 9, 40, 92
8, 53640, Note_on_c, 9, 42, 92
8, 53755, Note_on_c, 9, 40, 0
8, 53755, Note_on_c, 9, 42, 0
8, 53760, Note_on_c, 9, 36, 92
8, 53760, Note_on_c, 9, 42, 92
8, 53875, Note_on_c, 9, 36, 0
8, 53875, Note_on_c, 9, 42, 0
8, 53880, Note_on_c, 9, 42, 92
8, 53995, Note_on_c, 9, 42, 0
8, 54000, Note_on_c, 9, 40, 92
8, 54000, Note_on_c, 9, 42, 92
8, 54115, Note_on_c, 9, 40, 0
8, 54115, Note_on_c, 9, 42, 0
8, 54120, Note_on_c, 9, 42, 92
8, 54235, Note_on_c, 9, 42, 0
8, 54240, Note_on_c, 9, 42, 92
8, 54355, Note_on_c, 9, 42, 0
8, 54360, Note_on_c, 9, 40, 92
8, 54360, Note_on_c, 9, 42, 92
8, 54475, Note_on_c, 9, 40, 0
8, 54475, Note_on_c, 9, 42, 0
8, 54480, Note_on_c, 9, 42, 92
8, 54595, Note_on_c, 9, 42, 0
8, 54600, Note_on_c, 9, 40, 92
8, 54600, Note_on_c, 9, 42, 92
8, 54715, Note_on_c, 9, 40, 0
8, 54715, Note_on_c, 9, 42, 0
8, 54960, Note_on_c, 9, 42, 92
8, 55075, Note_on_c, 9, 42, 0
8, 55080, Note_on_c, 9, 42, 92
8, 55195, Note_on_c, 9, 42, 0
8, 55200, Note_on_c, 9, 42, 92
8, 55315, Note_on_c, 9, 42, 0
8, 55320, Note_on_c, 9, 42, 92
8, 55435, Note_on_c, 9, 42, 0
8, 55440, Note_on_c, 9, 42, 92
8, 55555, Note_on_c, 9, 42, 0
8, 55560, Note_on_c, 9, 42, 92
8, 55675, Note_on_c, 9, 42, 0
8, 55680, Note_on_c, 9, 36, 92
8, 55680, Note_on_c, 9, 40, 92
8, 55680, Note_on_c, 9, 42, 92
8, 55795, Note_on_c, 9, 36, 0
8, 55795, Note_on_c, 9, 40, 0
8, 55795, Note_on_c, 9, 42, 0
8, 55920, Note_on_c, 9, 40, 92
8, 55920, Note_on_c, 9, 42, 92
8, 56035, Note_on_c, 9, 40, 0
8, 56035, Note_on_c, 9, 42, 0
8, 56160, Note_on_c, 9, 42, 92
8, 56275, Note_on_c, 9, 42, 0
8, 56280, Note_on_c, 9, 40, 92
8, 56395, Note_on_c, 9, 40, 0
8, 56400, Note_on_c, 9, 40, 92
8, 56515, Note_on_c, 9, 40, 0
8, 56520, Note_on_c, 9, 40, 92
8, 56635, Note_on_c, 9, 40, 0
8, 56640, Note_on_c, 9, 36, 92
8, 56640, Note_on_c, 9, 40, 92
8, 56640, Note_on_c, 9, 42, 92
8, 56755, Note_on_c, 9, 36, 0
8, 56755, Note_on_c, 9, 40, 0
8, 56755, Note_on_c, 9, 42, 0
8, 56880, Note_on_c, 9, 36, 92
8, 56880, Note_on_c, 9, 40, 92
8, 56880, Note_on_c, 9, 42, 92
8, 56995, Note_on_c, 9, 36, 0
8, 56995, Note_on_c, 9, 40, 0
8, 56995, Note_on_c, 9, 42, 0
8, 57120, Note_on_c, 9, 42, 92
8, 57235, Note_on_c, 9, 42, 0
8, 57240, Note_on_c, 9, 40, 92
8, 57355, Note_on_c, 9, 40, 0
8, 57360, Note_on_c, 9, 40, 92
8, 57475, Note_on_c, 9, 40, 0
8, 57480, Note_on_c, 9, 40, 92
8, 57595, Note_on_c, 9, 40, 0
8, 57600, Note_on_c, 9, 36, 92
8, 57600, Note_on_c, 9, 42, 92
8, 57715, Note_on_c, 9, 36, 0
8, 57715, Note_on_c, 9, 42, 0
8, 57720, Note_on_c, 9, 42, 92
8, 57835, Note_on_c, 9, 42, 0
8, 57840, Note_on_c, 9, 40, 92
8, 57840, Note_on_c, 9, 42, 92
8, 57955, Note_on_c, 9, 40, 0
8, 57955, Note_on_c, 9, 42, 0
8, 57960, Note_on_c, 9, 42, 92
8, 58075, Note_on_c, 9, 42, 0
8, 58080, Note_on_c, 9, 42, 92
8, 58195, Note_on_c, 9, 42, 0
8, 58200, Note_on_c, 9, 40, 92
8, 58200, Note_on_c, 9, 42, 92
8, 58315, Note_on_c, 9, 40, 0
8, 58315, Note_on_c, 9, 42, 0
8, 58320, Note_on_c, 9, 42, 92
8, 58435, Note_on_c, 9, 42, 0
8, 58440, Note_on_c, 9, 40, 92
8, 58440, Note_on_c, 9, 42, 92
8, 58555, Note_on_c, 9, 40, 0
8, 58555, Note_on_c, 9, 42, 0
8, 58800, Note_on_c, 9, 42, 92
8, 58915, Note_on_c, 9, 42, 0
8, 58920, Note_on_c, 9, 42, 92
8, 59035, Note_on_c, 9, 42, 0
8, 59040, Note_on_c, 9, 42, 92
8, 59155, Note_on_c, 9, 42, 0
8, 59160, Note_on_c, 9, 42, 92
8, 59275, Note_on_c, 9, 42, 0
8, 59280, Note_on_c, 9, 42, 92
8, 59395, Note_on_c, 9, 42, 0
8, 59400, Note_on_c, 9, 42, 92
8, 59515, Note_on_c, 9, 42, 0
8, 59520, Note_on_c, 9, 36, 92
8, 59520, Note_on_c, 9, 40, 92
8, 59520, Note_on_c, 9, 42, 92
8, 59635, Note_on_c, 9, 36, 0
8, 59635, Note_on_c, 9, 40, 0
8, 59635, Note_on_c, 9, 42, 0
8, 59760, Note_on_c, 9, 40, 92
8, 59760, Note_on_c, 9, 42, 92
8, 59875, Note_on_c, 9, 40, 0
8, 59875, Note_on_c, 9, 42, 0
8, 60000, Note_on_c, 9, 42, 92
8, 60115, Note_on_c, 9, 42, 0
8, 60120, Note_on_c, 9, 40, 92
8, 60235, Note_on_c, 9, 40, 0
8, 60240, Note_on_c, 9, 40, 92
8, 60355, Note_on_c, 9, 40, 0
8, 60360, Note_on_c, 9, 40, 92
8, 60475, Note_on_c, 9, 40, 0
8, 60480, Note_on_c, 9, 36, 92
8, 60480, Note_on_c, 9, 40, 92
8, 60480, Note_on_c, 9, 42, 92
8, 60595, Note_on_c, 9, 36, 0
8, 60595, Note_on_c, 9, 40, 0
8, 60595, Note_on_c, 9, 42, 0
8, 60720, Note_on_c, 9, 36, 92
8, 60720, Note_on_c, 9, 40, 92
8, 60720, Note_on_c, 9, 42, 92
8, 60835, Note_on_c, 9, 36, 0
8, 60835, Note_on_c, 9, 40, 0
8, 60835, Note_on_c, 9, 42, 0
8, 60960, Note_on_c, 9, 42, 92
8, 61075, Note_on_c, 9, 42, 0
8, 61080, Note_on_c, 9, 40, 92
8, 61195, Note_on_c, 9, 40, 0
8, 61200, Note_on_c, 9, 40, 92
8, 61315, Note_on_c, 9, 40, 0
8, 61320, Note_on_c, 9, 40, 92
8, 61435, Note_on_c, 9, 40, 0
8, 61440, Note_on_c, 9, 36, 92
8, 61440, Note_on_c, 9, 42, 92
8, 61555, Note_on_c, 9, 36, 0
8, 61555, Note_on_c, 9, 42, 0
8, 61680, Note_on_c, 9, 42, 92
8, 61795, Note_on_c, 9, 42, 0
8, 61800, Note_on_c, 9, 42, 92
8, 61915, Note_on_c, 9, 42, 0
8, 61920, Note_on_c, 9, 40, 92
8, 62035, Note_on_c, 9, 40, 0
8, 62400, Note_on_c, 9, 36, 92
8, 62400, Note_on_c, 9, 42, 92
8, 62515, Note_on_c, 9, 36, 0
8, 62515, Note_on_c, 9, 42, 0
8, 62640, Note_on_c, 9, 42, 92
8, 62755, Note_on_c, 9, 42, 0
8, 62760, Note_on_c, 9, 42, 92
8, 62875, Note_on_c, 9, 42, 0
8, 62880, Note_on_c, 9, 40, 92
8, 62995, Note_on_c, 9, 40, 0
8, 63120, Note_on_c, 9, 42, 92
8, 63235, Note_on_c, 9, 42, 0
8, 63240, Note_on_c, 9, 42, 92
8, 63355, Note_on_c, 9, 42, 0
8, 63360, Note_on_c, 9, 36, 92
8, 63360, Note_on_c, 9, 42, 92
8, 63475, Note_on_c, 9, 36, 0
8, 63475, Note_on_c, 9, 42, 0
8, 63600, Note_on_c, 9, 42, 92
8, 63715, Note_on_c, 9, 42, 0
8, 63720, Note_on_c, 9, 42, 92
8, 63835, Note_on_c, 9, 42, 0
8, 63840, Note_on_c, 9, 40, 92
8, 63955, Note_on_c, 9, 40, 0
8, 64320, Note_on_c, 9, 36, 92
8, 64320, Note_on_c, 9, 42, 92
8, 64435, Note_on_c, 9, 36, 0
8, 64435, Note_on_c, 9, 42, 0
8, 64440, Note_on_c, 9, 42, 92
8, 64555, Note_on_c, 9, 42, 0
8, 64560, Note_on_c, 9, 40, 92
8, 64675, Note_on_c, 9, 40, 0
8, 64800, Note_on_c, 9, 40, 92
8, 64915, Note_on_c, 9, 40, 0
8, 64920, Note_on_c, 9, 40, 92
8, 65035, Note_on_c, 9, 40, 0
8, 65040, Note_on_c, 9, 40, 92
8, 65155, Note_on_c, 9, 40, 0
8, 65280, Note_on_c, 9, 36, 92
8, 65280, Note_on_c, 9, 42, 92
8, 65395, Note_on_c, 9, 36, 0
8, 65395, Note_on_c, 9, 42, 0
8, 65520, Note_on_c, 9, 42, 92
8, 65635, Note_on_c, 9, 42, 0
8, 65640, Note_on_c, 9, 42, 92
8, 65755, Note_on_c, 9, 42, 0
8, 65760, Note_on_c, 9, 40, 92
8, 65875, Note_on_c, 9, 40, 0
8, 66240, Note_on_c, 9, 36, 92
8, 66240, Note_on_c, 9, 42, 92
8, 66355, Note_on_c, 9, 36, 0
8, 66355, Note_on_c, 9, 42, 0
8, 66480, Note_on_c, 9, 42, 92
8, 66595, Note_on_c, 9, 42, 0
8, 66600, Note_on_c, 9, 42, 92
8, 66715, Note_on_c, 9, 42, 0
8, 66720, Note_on_c, 9, 40, 92
8, 66835, Note_on_c, 9, 40, 0
8, 66960, Note_on_c, 9, 42, 92
8, 67075, Note_on_c, 9, 42, 0
8, 67080, Note_on_c, 9, 42, 92
8, 67195, Note_on_c, 9, 42, 0
8, 67200, Note_on_c, 9, 36, 92
8, 67200, Note_on_c, 9, 42, 92
8, 67315, Note_on_c, 9, 36, 0
8, 67315, Note_on_c, 9, 42, 0
8, 67440, Note_on_c, 9, 42, 92
8, 67555, Note_on_c, 9, 42, 0
8, 67560, Note_on_c, 9, 42, 92
8, 67675, Note_on_c, 9, 42, 0
8, 67680, Note_on_c, 9, 40, 92
8, 67795, Note_on_c, 9, 40, 0
8, 68160, Note_on_c, 9, 36, 92
8, 68160, Note_on_c, 9, 42, 92
8, 68275, Note_on_c, 9, 36, 0
8, 68275, Note_on_c, 9, 42, 0
8, 68280, Note_on_c, 9, 42, 92
8, 68395, Note_on_c, 9, 42, 0
8, 68400, Note_on_c, 9, 40, 92
8, 68515, Note_on_c, 9, 40, 0
8, 68640, Note_on_c, 9, 40, 92
8, 68755, Note_on_c, 9, 40, 0
8, 68760, Note_on_c, 9, 40, 92
8, 68875, Note_on_c, 9, 40, 0
8, 68880, Note_on_c, 9, 40, 92
8, 68995, Note_on_c, 9, 40, 0
8, 69120, Note_on_c, 9, 36, 92
8, 69120, Note_on_c, 9, 42, 92
8, 69235, Note_on_c, 9, 36, 0
8, 69235, Note_on_c, 9, 42, 0
8, 69360, Note_on_c, 9, 42, 92
8, 69475, Note_on_c, 9, 42, 0
8, 69480, Note_on_c, 9, 42, 92
8, 69595, Note_on_c, 9, 42, 0
8, 69600, Note_on_c, 9, 40, 92
8, 69715, Note_on_c, 9, 40, 0
8, 70080, Note_on_c, 9, 36, 92
8, 70080, Note_on_c, 9, 42, 92
8, 70195, Note_on_c, 9, 36, 0
8, 70195, Note_on_c, 9, 42, 0
8, 70320, Note_on_c, 9, 42, 92
8, 70435, Note_on_c, 9, 42, 0
8, 70440, Note_on_c, 9, 42, 92
8, 70555, Note_on_c, 9, 42, 0
8, 70560, Note_on_c, 9, 40, 92
8, 70675, Note_on_c, 9, 40, 0
8, 70800, Note_on_c, 9, 42, 92
8, 70915, Note_on_c, 9, 42, 0
8, 70920, Note_on_c, 9, 42, 92
8, 71035, Note_on_c, 9, 42, 0
8, 71040, Note_on_c, 9, 36, 92
8, 71040, Note_on_c, 9, 42, 92
8, 71155, Note_on_c, 9, 36, 0
8, 71155, Note_on_c, 9, 42, 0
8, 71280, Note_on_c, 9, 42, 92
8, 71395, Note_on_c, 9, 42, 0
8, 71400, Note_on_c, 9, 42, 92
8, 71515, Note_on_c, 9, 42, 0
8, 71520, Note_on_c, 9, 40, 92
8, 71635, Note_on_c, 9, 40, 0
8, 72000, Note_on_c, 9, 36, 92
8, 72000, Note_on_c, 9, 42, 92
8, 72115, Note_on_c, 9, 36, 0
8, 72115, Note_on_c, 9, 42, 0
8, 72120, Note_on_c, 9, 42, 92
8, 72235, Note_on_c, 9, 42, 0
8, 72240, Note_on_c, 9, 40, 92
8, 72355, Note_on_c, 9, 40, 0
8, 72480, Note_on_c, 9, 40, 92
8, 72595, Note_on_c, 9, 40, 0
8, 72720, Note_on_c, 9, 40, 92
8, 72835, Note_on_c, 9, 40, 0
8, 72840, Note_on_c, 9, 40, 92
8, 72955, Note_on_c, 9, 40, 0
8, 72960, Note_on_c, 9, 36, 92
8, 72960, Note_on_c, 9, 42, 92
8, 73075, Note_on_c, 9, 36, 0
8, 73075, Note_on_c, 9, 42, 0
8, 73200, Note_on_c, 9, 42, 92
8, 73315, Note_on_c, 9, 42, 0
8, 73320, Note_on_c, 9, 42, 92
8, 73435, Note_on_c, 9, 42, 0
8, 73440, Note_on_c, 9, 40, 92
8, 73555, Note_on_c, 9, 40, 0
8, 73920, Note_on_c, 9, 36, 92
8, 73920, Note_on_c, 9, 42, 92
8, 74035, Note_on_c, 9, 36, 0
8, 74035, Note_on_c, 9, 42, 0
8, 74160, Note_on_c, 9, 42, 92
8, 74275, Note_on_c, 9, 42, 0
8, 74280, Note_on_c, 9, 42, 92
8, 74395, Note_on_c, 9, 42, 0
8, 74400, Note_on_c, 9, 40, 92
8, 74515, Note_on_c, 9, 40, 0
8, 74640, Note_on_c, 9, 42, 92
8, 74755, Note_on_c, 9, 42, 0
8, 74760, Note_on_c, 9, 42, 92
8, 74875, Note_on_c, 9, 42, 0
8, 74880, Note_on_c, 9, 36, 92
8, 74880, Note_on_c, 9, 42, 92
8, 74995, Note_on_c, 9, 36, 0
8, 74995, Note_on_c, 9, 42, 0
8, 75120, Note_on_c, 9, 42, 92
8, 75235, Note_on_c, 9, 42, 0
8, 75240, Note_on_c, 9, 42, 92
8, 75355, Note_on_c, 9, 42, 0
8, 75360, Note_on_c, 9, 40, 92
8, 75475, Note_on_c, 9, 40, 0
8, 75840, Note_on_c, 9, 36, 92
8, 75840, Note_on_c, 9, 42, 92
8, 75955, Note_on_c, 9, 36, 0
8, 75955, Note_on_c, 9, 42, 0
8, 75960, Note_on_c, 9, 42, 92
8, 76075, Note_on_c, 9, 42, 0
8, 76080, Note_on_c, 9, 40, 92
8, 76195, Note_on_c, 9, 40, 0
8, 76320, Note_on_c, 9, 40, 92
8, 76435, Note_on_c, 9, 40, 0
8, 76560, Note_on_c, 9, 40, 92
8, 76675, Note_on_c, 9, 40, 0
8, 76680, Note_on_c, 9, 40, 92
8, 76795, Note_on_c, 9, 40, 0
8, 76800, Note_on_c, 9, 36, 92
8, 76800, Note_on_c, 9, 42, 92
8, 76915, Note_on_c, 9, 36, 0
8, 76915, Note_on_c, 9, 42, 0
8, 77040, Note_on_c, 9, 42, 92
8, 77155, Note_on_c, 9, 42, 0
8, 77160, Note_on_c, 9, 42, 92
8, 77275, Note_on_c, 9, 42, 0
8, 77280, Note_on_c, 9, 42, 92
8, 77395, Note_on_c, 9, 42, 0
8, 77400, Note_on_c, 9, 42, 92
8, 77515, Note_on_c, 9, 42, 0
8, 77520, Note_on_c, 9, 40, 92
8, 77520, Note_on_c, 9, 42, 92
8, 77635, Note_on_c, 9, 40, 0
8, 77635, Note_on_c, 9, 42, 0
8, 77760, Note_on_c, 9, 36, 92
8, 77760, Note_on_c, 9, 42, 92
8, 77875, Note_on_c, 9, 36, 0
8, 77875, Note_on_c, 9, 42, 0
8, 78000, Note_on_c, 9, 42, 92
8, 78115, Note_on_c, 9, 42, 0
8, 78120, Note_on_c, 9, 42, 92
8, 78235, Note_on_c, 9, 42, 0
8, 78240, Note_on_c, 9, 42, 92
8, 78355, Note_on_c, 9, 42, 0
8, 78360, Note_on_c, 9, 42, 92
8, 78475, Note_on_c, 9, 42, 0
8, 78480, Note_on_c, 9, 40, 92
8, 78480, Note_on_c, 9, 42, 92
8, 78595, Note_on_c, 9, 40, 0
8, 78595, Note_on_c, 9, 42, 0
8, 78720, Note_on_c, 9, 36, 92
8, 78720, Note_on_c, 9, 42, 92
8, 78835, Note_on_c, 9, 36, 0
8, 78835, Note_on_c, 9, 42, 0
8, 78960, Note_on_c, 9, 42, 92
8, 79075, Note_on_c, 9, 42, 0
8, 79080, Note_on_c, 9, 42, 92
8, 79195, Note_on_c, 9, 42, 0
8, 79200, Note_on_c, 9, 42, 92
8, 79315, Note_on_c, 9, 42, 0
8, 79320, Note_on_c, 9, 42, 92
8, 79435, Note_on_c, 9, 42, 0
8, 79440, Note_on_c, 9, 40, 92
8, 79440, Note_on_c, 9, 42, 92
8, 79555, Note_on_c, 9, 40, 0
8, 79555, Note_on_c, 9, 42, 0
8, 79680, Note_on_c, 9, 36, 92
8, 79680, Note_on_c, 9, 42, 92
8, 79795, Note_on_c, 9, 36, 0
8, 79795, Note_on_c, 9, 42, 0
8, 79920, Note_on_c, 9, 42, 92
8, 80035, Note_on_c, 9, 42, 0
8, 80040, Note_on_c, 9, 42, 92
8, 80155, Note_on_c, 9, 42, 0
8, 80160, Note_on_c, 9, 42, 92
8, 80275, Note_on_c, 9, 42, 0
8, 80280, Note_on_c, 9, 42, 92
8, 80395, Note_on_c, 9, 42, 0
8, 80400, Note_on_c, 9, 40, 92
8, 80400, Note_on_c, 9, 42, 92
8, 80515, Note_on_c, 9, 40, 0
8, 80515, Note_on_c, 9, 42, 0
8, 80520, Note_on_c, 9, 40, 92
8, 80635, Note_on_c, 9, 40, 0
8, 80640, Note_on_c, 9, 36, 92
8, 80640, Note_on_c, 9, 42, 92
8, 80755, Note_on_c, 9, 36, 0
8, 80755, Note_on_c, 9, 42, 0
8, 80880, Note_on_c, 9, 42, 92
8, 80995, Note_on_c, 9, 42, 0
8, 81000, Note_on_c, 9, 42, 92
8, 81115, Note_on_c, 9, 42, 0
8, 81120, Note_on_c, 9, 42, 92
8, 81235, Note_on_c, 9, 42, 0
8, 81240, Note_on_c, 9, 42, 92
8, 81355, Note_on_c, 9, 42, 0
8, 81360, Note_on_c, 9, 40, 92
8, 81360, Note_on_c, 9, 42, 92
8, 81475, Note_on_c, 9, 40, 0
8, 81475, Note_on_c, 9, 42, 0
8, 81600, Note_on_c, 9, 36, 92
8, 81600, Note_on_c, 9, 42, 92
8, 81715, Note_on_c, 9, 36, 0
8, 81715, Note_on_c, 9, 42, 0
8, 81840, Note_on_c, 9, 42, 92
8, 81955, Note_on_c, 9, 42, 0
8, 81960, Note_on_c, 9, 42, 92
8, 82075, Note_on_c, 9, 42, 0
8, 82080, Note_on_c, 9, 42, 92
8, 82195, Note_on_c, 9, 42, 0
8, 82200, Note_on_c, 9, 42, 92
8, 82315, Note_on_c, 9, 42, 0
8, 82320, Note_on_c, 9, 40, 92
8, 82320, Note_on_c, 9, 42, 92
8, 82435, Note_on_c, 9, 40, 0
8, 82435, Note_on_c, 9, 42, 0
8, 82560, Note_on_c, 9, 36, 92
8, 82560, Note_on_c, 9, 42, 92
8, 82675, Note_on_c, 9, 36, 0
8, 82675, Note_on_c, 9, 42, 0
8, 82800, Note_on_c, 9, 42, 92
8, 82915, Note_on_c, 9, 42, 0
8, 82920, Note_on_c, 9, 42, 92
8, 83035, Note_on_c, 9, 42, 0
8, 83040, Note_on_c, 9, 42, 92
8, 83155, Note_on_c, 9, 42, 0
8, 83160, Note_on_c, 9, 42, 92
8, 83275, Note_on_c, 9, 42, 0
8, 83280, Note_on_c, 9, 40, 92
8, 83280, Note_on_c, 9, 42, 92
8, 83395, Note_on_c, 9, 40, 0
8, 83395, Note_on_c, 9, 42, 0
8, 83520, Note_on_c, 9, 36, 92
8, 83520, Note_on_c, 9, 42, 92
8, 83635, Note_on_c, 9, 36, 0
8, 83635, Note_on_c, 9, 42, 0
8, 83760, Note_on_c, 9, 42, 92
8, 83875, Note_on_c, 9, 42, 0
8, 83880, Note_on_c, 9, 42, 92
8, 83995, Note_on_c, 9, 42, 0
8, 84120, Note_on_c, 9, 42, 92
8, 84235, Note_on_c, 9, 42, 0
8, 84240, Note_on_c, 9, 40, 92
8, 84240, Note_on_c, 9, 42, 92
8, 84355, Note_on_c, 9, 40, 0
8, 84355, Note_on_c, 9, 42, 0
8, 84360, Note_on_c, 9, 40, 92
8, 84360, Note_on_c, 9, 42, 92
8, 84475, Note_on_c, 9, 40, 0
8, 84475, Note_on_c, 9, 42, 0
8, 84480, Note_on_c, 9, 36, 92
8, 84480, Note_on_c, 9, 42, 92
8, 84595, Note_on_c, 9, 36, 0
8, 84595, Note_on_c, 9, 42, 0
8, 84600, Note_on_c, 9, 42, 92
8, 84715, Note_on_c, 9, 42, 0
8, 84720, Note_on_c, 9, 40, 92
8, 84720, Note_on_c, 9, 42, 92
8, 84835, Note_on_c, 9, 40, 0
8, 84835, Note_on_c, 9, 42, 0
8, 84840, Note_on_c, 9, 42, 92
8, 84955, Note_on_c, 9, 42, 0
8, 84960, Note_on_c, 9, 42, 92
8, 85075, Note_on_c, 9, 42, 0
8, 85080, Note_on_c, 9, 40, 92
8, 85080, Note_on_c, 9, 42, 92
8, 85195, Note_on_c, 9, 40, 0
8, 85195, Note_on_c, 9, 42, 0
8, 85200, Note_on_c, 9, 42, 92
8, 85315, Note_on_c, 9, 42, 0
8, 85320, Note_on_c, 9, 40, 92
8, 85320, Note_on_c, 9, 42, 92
8, 85435, Note_on_c, 9, 40, 0
8, 85435, Note_on_c, 9, 42, 0
8, 85680, Note_on_c, 9, 42, 92
8, 85795, Note_on_c, 9, 42, 0
8, 85800, Note_on_c, 9, 42, 92
8, 85915, Note_on_c, 9, 42, 0
8, 85920, Note_on_c, 9, 42, 92
8, 86035, Note_on_c, 9, 42, 0
8, 86040, Note_on_c, 9, 42, 92
8, 86155, Note_on_c, 9, 42, 0
8, 86160, Note_on_c, 9, 42, 92
8, 86275, Note_on_c, 9, 42, 0
8, 86280, Note_on_c, 9, 42, 92
8, 86395, Note_on_c, 9, 42, 0
8, 86400, Note_on_c, 9, 36, 92
8, 86400, Note_on_c, 9, 40, 92
8, 86400, Note_on_c, 9, 42, 92
8, 86515, Note_on_c, 9, 36, 0
8, 86515, Note_on_c, 9, 40, 0
8, 86515, Note_on_c, 9, 42, 0
8, 86640, Note_on_c, 9, 40, 92
8, 86640, Note_on_c, 9, 42, 92
8, 86755, Note_on_c, 9, 40, 0
8, 86755, Note_on_c, 9, 42, 0
8, 86880, Note_on_c, 9, 42, 92
8, 86995, Note_on_c, 9, 42, 0
8, 87000, Note_on_c, 9, 40, 92
8, 87115, Note_on_c, 9, 40, 0
8, 87120, Note_on_c, 9, 40, 92
8, 87235, Note_on_c, 9, 40, 0
8, 87240, Note_on_c, 9, 40, 92
8, 87355, Note_on_c, 9, 40, 0
8, 87360, Note_on_c, 9, 36, 92
8, 87360, Note_on_c, 9, 40, 92
8, 87360, Note_on_c, 9, 42, 92
8, 87475, Note_on_c, 9, 36, 0
8, 87475, Note_on_c, 9, 40, 0
8, 87475, Note_on_c, 9, 42, 0
8, 87600, Note_on_c, 9, 36, 92
8, 87600, Note_on_c, 9, 40, 92
8, 87600, Note_on_c, 9, 42, 92
8, 87715, Note_on_c, 9, 36, 0
8, 87715, Note_on_c, 9, 40, 0
8, 87715, Note_on_c, 9, 42, 0
8, 87840, Note_on_c, 9, 42, 92
8, 87955, Note_on_c, 9, 42, 0
8, 87960, Note_on_c, 9, 40, 92
8, 88075, Note_on_c, 9, 40, 0
8, 88080, Note_on_c, 9, 40, 92
8, 88195, Note_on_c, 9, 40, 0
8, 88200, Note_on_c, 9, 40, 92
8, 88315, Note_on_c, 9, 40, 0
8, 88320, Note_on_c, 9, 36, 92
8, 88320, Note_on_c, 9, 42, 92
8, 88435, Note_on_c, 9, 36, 0
8, 88435, Note_on_c, 9, 42, 0
8, 88440, Note_on_c, 9, 42, 92
8, 88555, Note_on_c, 9, 42, 0
8, 88560, Note_on_c, 9, 40, 92
8, 88560, Note_on_c, 9, 42, 92
8, 88675, Note_on_c, 9, 40, 0
8, 88675, Note_on_c, 9, 42, 0
8, 88680, Note_on_c, 9, 42, 92
8, 88795, Note_on_c, 9, 42, 0
8, 88800, Note_on_c, 9, 42, 92
8, 88915, Note_on_c, 9, 42, 0
8, 88920, Note_on_c, 9, 40, 92
8, 88920, Note_on_c, 9, 42, 92
8, 89035, Note_on_c, 9, 40, 0
8, 89035, Note_on_c, 9, 42, 0
8, 89040, Note_on_c, 9, 42, 92
8, 89155, Note_on_c, 9, 42, 0
8, 89160, Note_on_c, 9, 40, 92
8, 89160, Note_on_c, 9, 42, 92
8, 89275, Note_on_c, 9, 40, 0
8, 89275, Note_on_c, 9, 42, 0
8, 89520, Note_on_c, 9, 42, 92
8, 89635, Note_on_c, 9, 42, 0
8, 89640, Note_on_c, 9, 42, 92
8, 89755, Note_on_c, 9, 42, 0
8, 89760, Note_on_c, 9, 42, 92
8, 89875, Note_on_c, 9, 42, 0
8, 89880, Note_on_c, 9, 42, 92
8, 89995, Note_on_c, 9, 42, 0
8, 90000, Note_on_c, 9, 42, 92
8, 90115, Note_on_c, 9, 42, 0
8, 90120, Note_on_c, 9, 42, 92
8, 90235, Note_on_c, 9, 42, 0
8, 90240, Note_on_c, 9, 36, 92
8, 90240, Note_on_c, 9, 40, 92
8, 90240, Note_on_c, 9, 42, 92
8, 90355, Note_on_c, 9, 36, 0
8, 90355, Note_on_c, 9, 40, 0
8, 90355, Note_on_c, 9, 42, 0
8, 90480, Note_on_c, 9, 40, 92
8, 90480, Note_on_c, 9, 42, 92
8, 90595, Note_on_c, 9, 40, 0
8, 90595, Note_on_c, 9, 42, 0
8, 90720, Note_on_c, 9, 42, 92
8, 90835, Note_on_c, 9, 42, 0
8, 90840, Note_on_c, 9, 40, 92
8, 90955, Note_on_c, 9, 40, 0
8, 90960, Note_on_c, 9, 40, 92
8, 91075, Note_on_c, 9, 40, 0
8, 91080, Note_on_c, 9, 40, 92
8, 91195, Note_on_c, 9, 40, 0
8, 91200, Note_on_c, 9, 36, 92
8, 91200, Note_on_c, 9, 40, 92
8, 91200, Note_on_c, 9, 42, 92
8, 91315, Note_on_c, 9, 36, 0
8, 91315, Note_on_c, 9, 40, 0
8, 91315, Note_on_c, 9, 42, 0
8, 91440, Note_on_c, 9, 36, 92
8, 91440, Note_on_c, 9, 40, 92
8, 91440, Note_on_c, 9, 42, 92
8, 91555, Note_on_c, 9, 36, 0
8, 91555, Note_on_c, 9, 40, 0
8, 91555, Note_on_c, 9, 42, 0
8, 91680, Note_on_c, 9, 42, 92
8, 91795, Note_on_c, 9, 42, 0
8, 91800, Note_on_c, 9, 40, 92
8, 91915, Note_on_c, 9, 40, 0
8, 91920, Note_on_c, 9, 40, 92
8, 92035, Note_on_c, 9, 40, 0
8, 92040, Note_on_c, 9, 40, 92
8, 92155, Note_on_c, 9, 40, 0
8, 92155, End_track
9, 0, Start_track
9, 0, Title_t, "Staff-1"
9, 0, Instrument_name_t, "SoCal"
9, 0, Control_c, 9, 7, 127
9, 0, Control_c, 9, 10, 64
9, 0, End_track
0, 0, End_of_file