M48
; DRILL file {KiCad (6.0.5)} date Sun Jul 10 17:26:13 2022
; FORMAT={-:-/ absolute / inch / decimal}
; #@! TF.CreationDate,2022-07-10T17:26:13-04:00
; #@! TF.GenerationSoftware,Kicad,Pcbnew,(6.0.5)
; #@! TF.FileFunction,Plated,1,2,PTH
FMAT,2
INCH
; #@! TA.AperFunction,Plated,PTH,ViaDrill
T1C0.0157
; #@! TA.AperFunction,Plated,PTH,ViaDrill
T2C0.0315
; #@! TA.AperFunction,Plated,PTH,ComponentDrill
T3C0.0315
; #@! TA.AperFunction,Plated,PTH,ComponentDrill
T4C0.0394
%
G90
G05
T1
X7.4016Y-4.4488
T2
X5.1575Y-4.4882
X5.2756Y-4.4094
T3
X4.55Y-3.0
X4.55Y-3.0984
X4.55Y-4.2
X4.55Y-4.2984
X4.5535Y-2.0909
X4.5535Y-2.1909
X4.5535Y-2.2909
X4.5535Y-2.3909
X4.5535Y-2.4909
X4.5535Y-2.5909
X4.5535Y-2.6909
X4.5535Y-2.7909
X4.5535Y-3.3114
X4.5535Y-3.4114
X4.5535Y-3.5114
X4.5535Y-3.6114
X4.5535Y-3.7114
X4.5535Y-3.8114
X4.5535Y-3.9114
X4.5535Y-4.0114
X5.0535Y-2.0909
X5.0535Y-2.1909
X5.0535Y-2.2909
X5.0535Y-2.3909
X5.0535Y-2.4909
X5.0535Y-2.5909
X5.0535Y-2.6909
X5.0535Y-2.7909
X5.0535Y-3.3114
X5.0535Y-3.4114
X5.0535Y-3.5114
X5.0535Y-3.6114
X5.0535Y-3.7114
X5.0535Y-3.8114
X5.0535Y-3.9114
X5.0535Y-4.0114
X5.2854Y-3.9147
X5.2854Y-4.0131
X5.5247Y-2.0909
X5.5247Y-2.1909
X5.5247Y-2.2909
X5.5247Y-2.3909
X5.5247Y-2.4909
X5.5247Y-2.5909
X5.5247Y-2.6909
X5.5247Y-2.7909
X5.5247Y-3.0016
X5.5247Y-3.1
X5.5247Y-3.3114
X5.5247Y-3.4114
X5.5247Y-3.5114
X5.5247Y-3.6114
X5.5247Y-3.7114
X5.5247Y-3.8114
X5.5247Y-3.9114
X5.5247Y-4.0114
X6.0247Y-2.0909
X6.0247Y-2.1909
X6.0247Y-2.2909
X6.0247Y-2.3909
X6.0247Y-2.4909
X6.0247Y-2.5909
X6.0247Y-2.6909
X6.0247Y-2.7909
X6.0247Y-3.3114
X6.0247Y-3.4114
X6.0247Y-3.5114
X6.0247Y-3.6114
X6.0247Y-3.7114
X6.0247Y-3.8114
X6.0247Y-3.9114
X6.0247Y-4.0114
X6.2598Y-3.9147
X6.2598Y-4.0131
X6.4958Y-2.0909
X6.4958Y-2.1909
X6.4958Y-2.2909
X6.4958Y-2.3909
X6.4958Y-2.4909
X6.4958Y-2.5909
X6.4958Y-2.6909
X6.4958Y-2.7909
X6.4958Y-3.0034
X6.4958Y-3.1019
X6.4958Y-3.3114
X6.4958Y-3.4114
X6.4958Y-3.5114
X6.4958Y-3.6114
X6.4958Y-3.7114
X6.4958Y-3.8114
X6.4958Y-3.9114
X6.4958Y-4.0114
X6.9958Y-2.0909
X6.9958Y-2.1909
X6.9958Y-2.2909
X6.9958Y-2.3909
X6.9958Y-2.4909
X6.9958Y-2.5909
X6.9958Y-2.6909
X6.9958Y-2.7909
X6.9958Y-3.3114
X6.9958Y-3.4114
X6.9958Y-3.5114
X6.9958Y-3.6114
X6.9958Y-3.7114
X6.9958Y-3.8114
X6.9958Y-3.9114
X6.9958Y-4.0114
X7.2441Y-3.9147
X7.2441Y-4.0131
X7.4669Y-2.0909
X7.4669Y-2.1909
X7.4669Y-2.2909
X7.4669Y-2.3909
X7.4669Y-2.4909
X7.4669Y-2.5909
X7.4669Y-2.6909
X7.4669Y-2.7909
X7.4669Y-3.0
X7.4669Y-3.0984
X7.4669Y-3.3114
X7.4669Y-3.4114
X7.4669Y-3.5114
X7.4669Y-3.6114
X7.4669Y-3.7114
X7.4669Y-3.8114
X7.4669Y-3.9114
X7.4669Y-4.0114
X7.9669Y-2.0909
X7.9669Y-2.1909
X7.9669Y-2.2909
X7.9669Y-2.3909
X7.9669Y-2.4909
X7.9669Y-2.5909
X7.9669Y-2.6909
X7.9669Y-2.7909
X7.9669Y-3.3114
X7.9669Y-3.4114
X7.9669Y-3.5114
X7.9669Y-3.6114
X7.9669Y-3.7114
X7.9669Y-3.8114
X7.9669Y-3.9114
X7.9669Y-4.0114
T4
X4.41Y-2.2904
X4.41Y-2.3904
X4.41Y-2.4904
X4.41Y-2.5904
X4.41Y-3.4104
X4.41Y-3.5104
X4.41Y-3.6104
X4.41Y-3.7104
X5.38Y-2.2904
X5.38Y-2.3904
X5.38Y-2.4904
X5.38Y-2.5904
X5.38Y-3.4104
X5.38Y-3.5104
X5.38Y-3.6104
X5.38Y-3.7104
X6.35Y-2.2904
X6.35Y-2.3904
X6.35Y-2.4904
X6.35Y-2.5904
X6.35Y-3.4104
X6.35Y-3.5104
X6.35Y-3.6104
X6.35Y-3.7104
X7.32Y-2.2904
X7.32Y-2.3904
X7.32Y-2.4904
X7.32Y-2.5904
X7.32Y-3.4104
X7.32Y-3.5104
X7.32Y-3.6104
X7.32Y-3.7104
T0
M30
