%TF.GenerationSoftware,KiCad,Pcbnew,(6.0.5)*%
%TF.CreationDate,2022-06-15T12:19:52-04:00*%
%TF.ProjectId,8-STEPPER-DRIVER-CARD,382d5354-4550-4504-9552-2d4452495645,rev?*%
%TF.SameCoordinates,Original*%
%TF.FileFunction,Legend,Top*%
%TF.FilePolarity,Positive*%
%FSLAX46Y46*%
G04 Gerber Fmt 4.6, Leading zero omitted, Abs format (unit mm)*
G04 Created by KiCad (PCBNEW (6.0.5)) date 2022-06-15 12:19:52*
%MOMM*%
%LPD*%
G01*
G04 APERTURE LIST*
%ADD10C,0.150000*%
%ADD11C,0.300000*%
%ADD12C,0.120000*%
%ADD13R,1.600000X1.600000*%
%ADD14C,1.600000*%
%ADD15O,1.600000X1.600000*%
%ADD16R,1.700000X1.700000*%
%ADD17O,1.700000X1.700000*%
G04 APERTURE END LIST*
D10*
X129540000Y-113030000D02*
X130810000Y-110490000D01*
X129540000Y-113030000D02*
X128270000Y-110490000D01*
D11*
X140250000Y-107833928D02*
X140107142Y-107762500D01*
X140035714Y-107691071D01*
X139964285Y-107548214D01*
X139964285Y-107476785D01*
X140035714Y-107333928D01*
X140107142Y-107262500D01*
X140250000Y-107191071D01*
X140535714Y-107191071D01*
X140678571Y-107262500D01*
X140750000Y-107333928D01*
X140821428Y-107476785D01*
X140821428Y-107548214D01*
X140750000Y-107691071D01*
X140678571Y-107762500D01*
X140535714Y-107833928D01*
X140250000Y-107833928D01*
X140107142Y-107905357D01*
X140035714Y-107976785D01*
X139964285Y-108119642D01*
X139964285Y-108405357D01*
X140035714Y-108548214D01*
X140107142Y-108619642D01*
X140250000Y-108691071D01*
X140535714Y-108691071D01*
X140678571Y-108619642D01*
X140750000Y-108548214D01*
X140821428Y-108405357D01*
X140821428Y-108119642D01*
X140750000Y-107976785D01*
X140678571Y-107905357D01*
X140535714Y-107833928D01*
X141464285Y-108119642D02*
X142607142Y-108119642D01*
X143250000Y-108619642D02*
X143464285Y-108691071D01*
X143821428Y-108691071D01*
X143964285Y-108619642D01*
X144035714Y-108548214D01*
X144107142Y-108405357D01*
X144107142Y-108262500D01*
X144035714Y-108119642D01*
X143964285Y-108048214D01*
X143821428Y-107976785D01*
X143535714Y-107905357D01*
X143392857Y-107833928D01*
X143321428Y-107762500D01*
X143250000Y-107619642D01*
X143250000Y-107476785D01*
X143321428Y-107333928D01*
X143392857Y-107262500D01*
X143535714Y-107191071D01*
X143892857Y-107191071D01*
X144107142Y-107262500D01*
X144535714Y-107191071D02*
X145392857Y-107191071D01*
X144964285Y-108691071D02*
X144964285Y-107191071D01*
X145892857Y-107905357D02*
X146392857Y-107905357D01*
X146607142Y-108691071D02*
X145892857Y-108691071D01*
X145892857Y-107191071D01*
X146607142Y-107191071D01*
X147250000Y-108691071D02*
X147250000Y-107191071D01*
X147821428Y-107191071D01*
X147964285Y-107262500D01*
X148035714Y-107333928D01*
X148107142Y-107476785D01*
X148107142Y-107691071D01*
X148035714Y-107833928D01*
X147964285Y-107905357D01*
X147821428Y-107976785D01*
X147250000Y-107976785D01*
X148750000Y-108691071D02*
X148750000Y-107191071D01*
X149321428Y-107191071D01*
X149464285Y-107262500D01*
X149535714Y-107333928D01*
X149607142Y-107476785D01*
X149607142Y-107691071D01*
X149535714Y-107833928D01*
X149464285Y-107905357D01*
X149321428Y-107976785D01*
X148750000Y-107976785D01*
X150250000Y-107905357D02*
X150750000Y-107905357D01*
X150964285Y-108691071D02*
X150250000Y-108691071D01*
X150250000Y-107191071D01*
X150964285Y-107191071D01*
X152464285Y-108691071D02*
X151964285Y-107976785D01*
X151607142Y-108691071D02*
X151607142Y-107191071D01*
X152178571Y-107191071D01*
X152321428Y-107262500D01*
X152392857Y-107333928D01*
X152464285Y-107476785D01*
X152464285Y-107691071D01*
X152392857Y-107833928D01*
X152321428Y-107905357D01*
X152178571Y-107976785D01*
X151607142Y-107976785D01*
X153107142Y-108119642D02*
X154250000Y-108119642D01*
X154964285Y-108691071D02*
X154964285Y-107191071D01*
X155321428Y-107191071D01*
X155535714Y-107262500D01*
X155678571Y-107405357D01*
X155750000Y-107548214D01*
X155821428Y-107833928D01*
X155821428Y-108048214D01*
X155750000Y-108333928D01*
X155678571Y-108476785D01*
X155535714Y-108619642D01*
X155321428Y-108691071D01*
X154964285Y-108691071D01*
X157321428Y-108691071D02*
X156821428Y-107976785D01*
X156464285Y-108691071D02*
X156464285Y-107191071D01*
X157035714Y-107191071D01*
X157178571Y-107262500D01*
X157250000Y-107333928D01*
X157321428Y-107476785D01*
X157321428Y-107691071D01*
X157250000Y-107833928D01*
X157178571Y-107905357D01*
X157035714Y-107976785D01*
X156464285Y-107976785D01*
X157964285Y-108691071D02*
X157964285Y-107191071D01*
X158464285Y-107191071D02*
X158964285Y-108691071D01*
X159464285Y-107191071D01*
X159964285Y-107905357D02*
X160464285Y-107905357D01*
X160678571Y-108691071D02*
X159964285Y-108691071D01*
X159964285Y-107191071D01*
X160678571Y-107191071D01*
X162178571Y-108691071D02*
X161678571Y-107976785D01*
X161321428Y-108691071D02*
X161321428Y-107191071D01*
X161892857Y-107191071D01*
X162035714Y-107262500D01*
X162107142Y-107333928D01*
X162178571Y-107476785D01*
X162178571Y-107691071D01*
X162107142Y-107833928D01*
X162035714Y-107905357D01*
X161892857Y-107976785D01*
X161321428Y-107976785D01*
X162821428Y-108119642D02*
X163964285Y-108119642D01*
X165535714Y-108548214D02*
X165464285Y-108619642D01*
X165250000Y-108691071D01*
X165107142Y-108691071D01*
X164892857Y-108619642D01*
X164750000Y-108476785D01*
X164678571Y-108333928D01*
X164607142Y-108048214D01*
X164607142Y-107833928D01*
X164678571Y-107548214D01*
X164750000Y-107405357D01*
X164892857Y-107262500D01*
X165107142Y-107191071D01*
X165250000Y-107191071D01*
X165464285Y-107262500D01*
X165535714Y-107333928D01*
X166107142Y-108262500D02*
X166821428Y-108262500D01*
X165964285Y-108691071D02*
X166464285Y-107191071D01*
X166964285Y-108691071D01*
X168321428Y-108691071D02*
X167821428Y-107976785D01*
X167464285Y-108691071D02*
X167464285Y-107191071D01*
X168035714Y-107191071D01*
X168178571Y-107262500D01*
X168250000Y-107333928D01*
X168321428Y-107476785D01*
X168321428Y-107691071D01*
X168250000Y-107833928D01*
X168178571Y-107905357D01*
X168035714Y-107976785D01*
X167464285Y-107976785D01*
X168964285Y-108691071D02*
X168964285Y-107191071D01*
X169321428Y-107191071D01*
X169535714Y-107262500D01*
X169678571Y-107405357D01*
X169750000Y-107548214D01*
X169821428Y-107833928D01*
X169821428Y-108048214D01*
X169750000Y-108333928D01*
X169678571Y-108476785D01*
X169535714Y-108619642D01*
X169321428Y-108691071D01*
X168964285Y-108691071D01*
X172464285Y-108691071D02*
X171964285Y-107976785D01*
X171607142Y-108691071D02*
X171607142Y-107191071D01*
X172178571Y-107191071D01*
X172321428Y-107262500D01*
X172392857Y-107333928D01*
X172464285Y-107476785D01*
X172464285Y-107691071D01*
X172392857Y-107833928D01*
X172321428Y-107905357D01*
X172178571Y-107976785D01*
X171607142Y-107976785D01*
X173107142Y-107905357D02*
X173607142Y-107905357D01*
X173821428Y-108691071D02*
X173107142Y-108691071D01*
X173107142Y-107191071D01*
X173821428Y-107191071D01*
X174250000Y-107191071D02*
X174750000Y-108691071D01*
X175250000Y-107191071D01*
X176821428Y-108262500D02*
X177535714Y-108262500D01*
X176678571Y-108691071D02*
X177178571Y-107191071D01*
X177678571Y-108691071D01*
X148928571Y-110320357D02*
X149428571Y-110320357D01*
X149642857Y-111106071D02*
X148928571Y-111106071D01*
X148928571Y-109606071D01*
X149642857Y-109606071D01*
X151000000Y-111106071D02*
X150285714Y-111106071D01*
X150285714Y-109606071D01*
X152214285Y-111106071D02*
X151500000Y-111106071D01*
X151500000Y-109606071D01*
X152714285Y-111106071D02*
X152714285Y-109606071D01*
X153714285Y-109606071D02*
X154000000Y-109606071D01*
X154142857Y-109677500D01*
X154285714Y-109820357D01*
X154357142Y-110106071D01*
X154357142Y-110606071D01*
X154285714Y-110891785D01*
X154142857Y-111034642D01*
X154000000Y-111106071D01*
X153714285Y-111106071D01*
X153571428Y-111034642D01*
X153428571Y-110891785D01*
X153357142Y-110606071D01*
X153357142Y-110106071D01*
X153428571Y-109820357D01*
X153571428Y-109677500D01*
X153714285Y-109606071D01*
X154785714Y-109606071D02*
X155642857Y-109606071D01*
X155214285Y-111106071D02*
X155214285Y-109606071D01*
X157285714Y-110320357D02*
X157785714Y-110320357D01*
X158000000Y-111106071D02*
X157285714Y-111106071D01*
X157285714Y-109606071D01*
X158000000Y-109606071D01*
X158642857Y-111106071D02*
X158642857Y-109606071D01*
X160214285Y-110963214D02*
X160142857Y-111034642D01*
X159928571Y-111106071D01*
X159785714Y-111106071D01*
X159571428Y-111034642D01*
X159428571Y-110891785D01*
X159357142Y-110748928D01*
X159285714Y-110463214D01*
X159285714Y-110248928D01*
X159357142Y-109963214D01*
X159428571Y-109820357D01*
X159571428Y-109677500D01*
X159785714Y-109606071D01*
X159928571Y-109606071D01*
X160142857Y-109677500D01*
X160214285Y-109748928D01*
X160857142Y-111106071D02*
X160857142Y-109606071D01*
X161714285Y-111106071D02*
X161071428Y-110248928D01*
X161714285Y-109606071D02*
X160857142Y-110463214D01*
X162357142Y-111106071D02*
X162357142Y-109606071D01*
X162357142Y-110320357D02*
X163214285Y-110320357D01*
X163214285Y-111106071D02*
X163214285Y-109606071D01*
X164214285Y-109606071D02*
X164500000Y-109606071D01*
X164642857Y-109677500D01*
X164785714Y-109820357D01*
X164857142Y-110106071D01*
X164857142Y-110606071D01*
X164785714Y-110891785D01*
X164642857Y-111034642D01*
X164500000Y-111106071D01*
X164214285Y-111106071D01*
X164071428Y-111034642D01*
X163928571Y-110891785D01*
X163857142Y-110606071D01*
X163857142Y-110106071D01*
X163928571Y-109820357D01*
X164071428Y-109677500D01*
X164214285Y-109606071D01*
X166214285Y-111106071D02*
X165500000Y-111106071D01*
X165500000Y-109606071D01*
X166500000Y-109606071D02*
X167357142Y-109606071D01*
X166928571Y-111106071D02*
X166928571Y-109606071D01*
X167714285Y-109606071D02*
X168714285Y-109606071D01*
X167714285Y-111106071D01*
X168714285Y-111106071D01*
D10*
X134046933Y-96623142D02*
X133999314Y-96670761D01*
X133856457Y-96718380D01*
X133761219Y-96718380D01*
X133618361Y-96670761D01*
X133523123Y-96575523D01*
X133475504Y-96480285D01*
X133427885Y-96289809D01*
X133427885Y-96146952D01*
X133475504Y-95956476D01*
X133523123Y-95861238D01*
X133618361Y-95766000D01*
X133761219Y-95718380D01*
X133856457Y-95718380D01*
X133999314Y-95766000D01*
X134046933Y-95813619D01*
X134904076Y-95718380D02*
X134713600Y-95718380D01*
X134618361Y-95766000D01*
X134570742Y-95813619D01*
X134475504Y-95956476D01*
X134427885Y-96146952D01*
X134427885Y-96527904D01*
X134475504Y-96623142D01*
X134523123Y-96670761D01*
X134618361Y-96718380D01*
X134808838Y-96718380D01*
X134904076Y-96670761D01*
X134951695Y-96623142D01*
X134999314Y-96527904D01*
X134999314Y-96289809D01*
X134951695Y-96194571D01*
X134904076Y-96146952D01*
X134808838Y-96099333D01*
X134618361Y-96099333D01*
X134523123Y-96146952D01*
X134475504Y-96194571D01*
X134427885Y-96289809D01*
X195295714Y-81736666D02*
X195771904Y-81736666D01*
X195200476Y-82022380D02*
X195533809Y-81022380D01*
X195867142Y-82022380D01*
X196343333Y-81450952D02*
X196248095Y-81403333D01*
X196200476Y-81355714D01*
X196152857Y-81260476D01*
X196152857Y-81212857D01*
X196200476Y-81117619D01*
X196248095Y-81070000D01*
X196343333Y-81022380D01*
X196533809Y-81022380D01*
X196629047Y-81070000D01*
X196676666Y-81117619D01*
X196724285Y-81212857D01*
X196724285Y-81260476D01*
X196676666Y-81355714D01*
X196629047Y-81403333D01*
X196533809Y-81450952D01*
X196343333Y-81450952D01*
X196248095Y-81498571D01*
X196200476Y-81546190D01*
X196152857Y-81641428D01*
X196152857Y-81831904D01*
X196200476Y-81927142D01*
X196248095Y-81974761D01*
X196343333Y-82022380D01*
X196533809Y-82022380D01*
X196629047Y-81974761D01*
X196676666Y-81927142D01*
X196724285Y-81831904D01*
X196724285Y-81641428D01*
X196676666Y-81546190D01*
X196629047Y-81498571D01*
X196533809Y-81450952D01*
X170629046Y-81736666D02*
X171105236Y-81736666D01*
X170533808Y-82022380D02*
X170867141Y-81022380D01*
X171200474Y-82022380D01*
X171438570Y-81022380D02*
X172105236Y-81022380D01*
X171676665Y-82022380D01*
X170629046Y-50736666D02*
X171105236Y-50736666D01*
X170533808Y-51022380D02*
X170867141Y-50022380D01*
X171200474Y-51022380D01*
X171438570Y-50022380D02*
X172057617Y-50022380D01*
X171724284Y-50403333D01*
X171867141Y-50403333D01*
X171962379Y-50450952D01*
X172009998Y-50498571D01*
X172057617Y-50593809D01*
X172057617Y-50831904D01*
X172009998Y-50927142D01*
X171962379Y-50974761D01*
X171867141Y-51022380D01*
X171581427Y-51022380D01*
X171486189Y-50974761D01*
X171438570Y-50927142D01*
X111680666Y-83746380D02*
X111680666Y-84460666D01*
X111633047Y-84603523D01*
X111537809Y-84698761D01*
X111394952Y-84746380D01*
X111299714Y-84746380D01*
X112585428Y-83746380D02*
X112394952Y-83746380D01*
X112299714Y-83794000D01*
X112252095Y-83841619D01*
X112156857Y-83984476D01*
X112109238Y-84174952D01*
X112109238Y-84555904D01*
X112156857Y-84651142D01*
X112204476Y-84698761D01*
X112299714Y-84746380D01*
X112490190Y-84746380D01*
X112585428Y-84698761D01*
X112633047Y-84651142D01*
X112680666Y-84555904D01*
X112680666Y-84317809D01*
X112633047Y-84222571D01*
X112585428Y-84174952D01*
X112490190Y-84127333D01*
X112299714Y-84127333D01*
X112204476Y-84174952D01*
X112156857Y-84222571D01*
X112109238Y-84317809D01*
X145962380Y-50736666D02*
X146438570Y-50736666D01*
X145867142Y-51022380D02*
X146200475Y-50022380D01*
X146533808Y-51022380D01*
X146819523Y-50117619D02*
X146867142Y-50070000D01*
X146962380Y-50022380D01*
X147200475Y-50022380D01*
X147295713Y-50070000D01*
X147343332Y-50117619D01*
X147390951Y-50212857D01*
X147390951Y-50308095D01*
X147343332Y-50450952D01*
X146771904Y-51022380D01*
X147390951Y-51022380D01*
X158634133Y-96419942D02*
X158586514Y-96467561D01*
X158443657Y-96515180D01*
X158348419Y-96515180D01*
X158205561Y-96467561D01*
X158110323Y-96372323D01*
X158062704Y-96277085D01*
X158015085Y-96086609D01*
X158015085Y-95943752D01*
X158062704Y-95753276D01*
X158110323Y-95658038D01*
X158205561Y-95562800D01*
X158348419Y-95515180D01*
X158443657Y-95515180D01*
X158586514Y-95562800D01*
X158634133Y-95610419D01*
X158967466Y-95515180D02*
X159634133Y-95515180D01*
X159205561Y-96515180D01*
X144559999Y-77847142D02*
X144512380Y-77894761D01*
X144369523Y-77942380D01*
X144274285Y-77942380D01*
X144131427Y-77894761D01*
X144036189Y-77799523D01*
X143988570Y-77704285D01*
X143940951Y-77513809D01*
X143940951Y-77370952D01*
X143988570Y-77180476D01*
X144036189Y-77085238D01*
X144131427Y-76990000D01*
X144274285Y-76942380D01*
X144369523Y-76942380D01*
X144512380Y-76990000D01*
X144559999Y-77037619D01*
X144940951Y-77037619D02*
X144988570Y-76990000D01*
X145083808Y-76942380D01*
X145321904Y-76942380D01*
X145417142Y-76990000D01*
X145464761Y-77037619D01*
X145512380Y-77132857D01*
X145512380Y-77228095D01*
X145464761Y-77370952D01*
X144893332Y-77942380D01*
X145512380Y-77942380D01*
X121295714Y-50736666D02*
X121771904Y-50736666D01*
X121200476Y-51022380D02*
X121533809Y-50022380D01*
X121867142Y-51022380D01*
X122724285Y-51022380D02*
X122152857Y-51022380D01*
X122438571Y-51022380D02*
X122438571Y-50022380D01*
X122343333Y-50165238D01*
X122248095Y-50260476D01*
X122152857Y-50308095D01*
X119803333Y-108287142D02*
X119755714Y-108334761D01*
X119612857Y-108382380D01*
X119517619Y-108382380D01*
X119374761Y-108334761D01*
X119279523Y-108239523D01*
X119231904Y-108144285D01*
X119184285Y-107953809D01*
X119184285Y-107810952D01*
X119231904Y-107620476D01*
X119279523Y-107525238D01*
X119374761Y-107430000D01*
X119517619Y-107382380D01*
X119612857Y-107382380D01*
X119755714Y-107430000D01*
X119803333Y-107477619D01*
X120708095Y-107382380D02*
X120231904Y-107382380D01*
X120184285Y-107858571D01*
X120231904Y-107810952D01*
X120327142Y-107763333D01*
X120565238Y-107763333D01*
X120660476Y-107810952D01*
X120708095Y-107858571D01*
X120755714Y-107953809D01*
X120755714Y-108191904D01*
X120708095Y-108287142D01*
X120660476Y-108334761D01*
X120565238Y-108382380D01*
X120327142Y-108382380D01*
X120231904Y-108334761D01*
X120184285Y-108287142D01*
X185594666Y-83746380D02*
X185594666Y-84460666D01*
X185547047Y-84603523D01*
X185451809Y-84698761D01*
X185308952Y-84746380D01*
X185213714Y-84746380D01*
X186118476Y-84746380D02*
X186308952Y-84746380D01*
X186404190Y-84698761D01*
X186451809Y-84651142D01*
X186547047Y-84508285D01*
X186594666Y-84317809D01*
X186594666Y-83936857D01*
X186547047Y-83841619D01*
X186499428Y-83794000D01*
X186404190Y-83746380D01*
X186213714Y-83746380D01*
X186118476Y-83794000D01*
X186070857Y-83841619D01*
X186023238Y-83936857D01*
X186023238Y-84174952D01*
X186070857Y-84270190D01*
X186118476Y-84317809D01*
X186213714Y-84365428D01*
X186404190Y-84365428D01*
X186499428Y-84317809D01*
X186547047Y-84270190D01*
X186594666Y-84174952D01*
X160956666Y-83746380D02*
X160956666Y-84460666D01*
X160909047Y-84603523D01*
X160813809Y-84698761D01*
X160670952Y-84746380D01*
X160575714Y-84746380D01*
X161575714Y-84174952D02*
X161480476Y-84127333D01*
X161432857Y-84079714D01*
X161385238Y-83984476D01*
X161385238Y-83936857D01*
X161432857Y-83841619D01*
X161480476Y-83794000D01*
X161575714Y-83746380D01*
X161766190Y-83746380D01*
X161861428Y-83794000D01*
X161909047Y-83841619D01*
X161956666Y-83936857D01*
X161956666Y-83984476D01*
X161909047Y-84079714D01*
X161861428Y-84127333D01*
X161766190Y-84174952D01*
X161575714Y-84174952D01*
X161480476Y-84222571D01*
X161432857Y-84270190D01*
X161385238Y-84365428D01*
X161385238Y-84555904D01*
X161432857Y-84651142D01*
X161480476Y-84698761D01*
X161575714Y-84746380D01*
X161766190Y-84746380D01*
X161861428Y-84698761D01*
X161909047Y-84651142D01*
X161956666Y-84555904D01*
X161956666Y-84365428D01*
X161909047Y-84270190D01*
X161861428Y-84222571D01*
X161766190Y-84174952D01*
X111680666Y-55298380D02*
X111680666Y-56012666D01*
X111633047Y-56155523D01*
X111537809Y-56250761D01*
X111394952Y-56298380D01*
X111299714Y-56298380D01*
X112109238Y-55393619D02*
X112156857Y-55346000D01*
X112252095Y-55298380D01*
X112490190Y-55298380D01*
X112585428Y-55346000D01*
X112633047Y-55393619D01*
X112680666Y-55488857D01*
X112680666Y-55584095D01*
X112633047Y-55726952D01*
X112061619Y-56298380D01*
X112680666Y-56298380D01*
X120503333Y-77467142D02*
X120455714Y-77514761D01*
X120312857Y-77562380D01*
X120217619Y-77562380D01*
X120074761Y-77514761D01*
X119979523Y-77419523D01*
X119931904Y-77324285D01*
X119884285Y-77133809D01*
X119884285Y-76990952D01*
X119931904Y-76800476D01*
X119979523Y-76705238D01*
X120074761Y-76610000D01*
X120217619Y-76562380D01*
X120312857Y-76562380D01*
X120455714Y-76610000D01*
X120503333Y-76657619D01*
X121455714Y-77562380D02*
X120884285Y-77562380D01*
X121170000Y-77562380D02*
X121170000Y-76562380D01*
X121074761Y-76705238D01*
X120979523Y-76800476D01*
X120884285Y-76848095D01*
X145962380Y-81736666D02*
X146438570Y-81736666D01*
X145867142Y-82022380D02*
X146200475Y-81022380D01*
X146533808Y-82022380D01*
X147295713Y-81022380D02*
X147105237Y-81022380D01*
X147009999Y-81070000D01*
X146962380Y-81117619D01*
X146867142Y-81260476D01*
X146819523Y-81450952D01*
X146819523Y-81831904D01*
X146867142Y-81927142D01*
X146914761Y-81974761D01*
X147009999Y-82022380D01*
X147200475Y-82022380D01*
X147295713Y-81974761D01*
X147343332Y-81927142D01*
X147390951Y-81831904D01*
X147390951Y-81593809D01*
X147343332Y-81498571D01*
X147295713Y-81450952D01*
X147200475Y-81403333D01*
X147009999Y-81403333D01*
X146914761Y-81450952D01*
X146867142Y-81498571D01*
X146819523Y-81593809D01*
X185594666Y-55298380D02*
X185594666Y-56012666D01*
X185547047Y-56155523D01*
X185451809Y-56250761D01*
X185308952Y-56298380D01*
X185213714Y-56298380D01*
X186547047Y-55298380D02*
X186070857Y-55298380D01*
X186023238Y-55774571D01*
X186070857Y-55726952D01*
X186166095Y-55679333D01*
X186404190Y-55679333D01*
X186499428Y-55726952D01*
X186547047Y-55774571D01*
X186594666Y-55869809D01*
X186594666Y-56107904D01*
X186547047Y-56203142D01*
X186499428Y-56250761D01*
X186404190Y-56298380D01*
X186166095Y-56298380D01*
X186070857Y-56250761D01*
X186023238Y-56203142D01*
X136318666Y-55298380D02*
X136318666Y-56012666D01*
X136271047Y-56155523D01*
X136175809Y-56250761D01*
X136032952Y-56298380D01*
X135937714Y-56298380D01*
X136699619Y-55298380D02*
X137318666Y-55298380D01*
X136985333Y-55679333D01*
X137128190Y-55679333D01*
X137223428Y-55726952D01*
X137271047Y-55774571D01*
X137318666Y-55869809D01*
X137318666Y-56107904D01*
X137271047Y-56203142D01*
X137223428Y-56250761D01*
X137128190Y-56298380D01*
X136842476Y-56298380D01*
X136747238Y-56250761D01*
X136699619Y-56203142D01*
X195295714Y-50736666D02*
X195771904Y-50736666D01*
X195200476Y-51022380D02*
X195533809Y-50022380D01*
X195867142Y-51022380D01*
X196629047Y-50355714D02*
X196629047Y-51022380D01*
X196390952Y-49974761D02*
X196152857Y-50689047D01*
X196771904Y-50689047D01*
X193893333Y-77807142D02*
X193845714Y-77854761D01*
X193702857Y-77902380D01*
X193607619Y-77902380D01*
X193464761Y-77854761D01*
X193369523Y-77759523D01*
X193321904Y-77664285D01*
X193274285Y-77473809D01*
X193274285Y-77330952D01*
X193321904Y-77140476D01*
X193369523Y-77045238D01*
X193464761Y-76950000D01*
X193607619Y-76902380D01*
X193702857Y-76902380D01*
X193845714Y-76950000D01*
X193893333Y-76997619D01*
X194750476Y-77235714D02*
X194750476Y-77902380D01*
X194512380Y-76854761D02*
X194274285Y-77569047D01*
X194893333Y-77569047D01*
X136318666Y-83746380D02*
X136318666Y-84460666D01*
X136271047Y-84603523D01*
X136175809Y-84698761D01*
X136032952Y-84746380D01*
X135937714Y-84746380D01*
X136699619Y-83746380D02*
X137366285Y-83746380D01*
X136937714Y-84746380D01*
X183856333Y-96750142D02*
X183808714Y-96797761D01*
X183665857Y-96845380D01*
X183570619Y-96845380D01*
X183427761Y-96797761D01*
X183332523Y-96702523D01*
X183284904Y-96607285D01*
X183237285Y-96416809D01*
X183237285Y-96273952D01*
X183284904Y-96083476D01*
X183332523Y-95988238D01*
X183427761Y-95893000D01*
X183570619Y-95845380D01*
X183665857Y-95845380D01*
X183808714Y-95893000D01*
X183856333Y-95940619D01*
X184427761Y-96273952D02*
X184332523Y-96226333D01*
X184284904Y-96178714D01*
X184237285Y-96083476D01*
X184237285Y-96035857D01*
X184284904Y-95940619D01*
X184332523Y-95893000D01*
X184427761Y-95845380D01*
X184618238Y-95845380D01*
X184713476Y-95893000D01*
X184761095Y-95940619D01*
X184808714Y-96035857D01*
X184808714Y-96083476D01*
X184761095Y-96178714D01*
X184713476Y-96226333D01*
X184618238Y-96273952D01*
X184427761Y-96273952D01*
X184332523Y-96321571D01*
X184284904Y-96369190D01*
X184237285Y-96464428D01*
X184237285Y-96654904D01*
X184284904Y-96750142D01*
X184332523Y-96797761D01*
X184427761Y-96845380D01*
X184618238Y-96845380D01*
X184713476Y-96797761D01*
X184761095Y-96750142D01*
X184808714Y-96654904D01*
X184808714Y-96464428D01*
X184761095Y-96369190D01*
X184713476Y-96321571D01*
X184618238Y-96273952D01*
X160956666Y-55298380D02*
X160956666Y-56012666D01*
X160909047Y-56155523D01*
X160813809Y-56250761D01*
X160670952Y-56298380D01*
X160575714Y-56298380D01*
X161861428Y-55631714D02*
X161861428Y-56298380D01*
X161623333Y-55250761D02*
X161385238Y-55965047D01*
X162004285Y-55965047D01*
X169226665Y-77894763D02*
X169179046Y-77942382D01*
X169036189Y-77990001D01*
X168940951Y-77990001D01*
X168798093Y-77942382D01*
X168702855Y-77847144D01*
X168655236Y-77751906D01*
X168607617Y-77561430D01*
X168607617Y-77418573D01*
X168655236Y-77228097D01*
X168702855Y-77132859D01*
X168798093Y-77037621D01*
X168940951Y-76990001D01*
X169036189Y-76990001D01*
X169179046Y-77037621D01*
X169226665Y-77085240D01*
X169559998Y-76990001D02*
X170179046Y-76990001D01*
X169845712Y-77370954D01*
X169988570Y-77370954D01*
X170083808Y-77418573D01*
X170131427Y-77466192D01*
X170179046Y-77561430D01*
X170179046Y-77799525D01*
X170131427Y-77894763D01*
X170083808Y-77942382D01*
X169988570Y-77990001D01*
X169702855Y-77990001D01*
X169607617Y-77942382D01*
X169559998Y-77894763D01*
X121295714Y-81736666D02*
X121771904Y-81736666D01*
X121200476Y-82022380D02*
X121533809Y-81022380D01*
X121867142Y-82022380D01*
X122676666Y-81022380D02*
X122200476Y-81022380D01*
X122152857Y-81498571D01*
X122200476Y-81450952D01*
X122295714Y-81403333D01*
X122533809Y-81403333D01*
X122629047Y-81450952D01*
X122676666Y-81498571D01*
X122724285Y-81593809D01*
X122724285Y-81831904D01*
X122676666Y-81927142D01*
X122629047Y-81974761D01*
X122533809Y-82022380D01*
X122295714Y-82022380D01*
X122200476Y-81974761D01*
X122152857Y-81927142D01*
D12*
X135290000Y-98681380D02*
X136798000Y-98681380D01*
X131534000Y-98921380D02*
X133210000Y-98921380D01*
X131416000Y-99121380D02*
X133210000Y-99121380D01*
X131702000Y-98681380D02*
X133210000Y-98681380D01*
X135290000Y-98761380D02*
X136857000Y-98761380D01*
X135290000Y-100042380D02*
X137417000Y-100042380D01*
X133191000Y-97601380D02*
X135309000Y-97601380D01*
X135290000Y-98601380D02*
X136734000Y-98601380D01*
X131298000Y-99361380D02*
X133210000Y-99361380D01*
X135290000Y-98841380D02*
X136914000Y-98841380D01*
X133085000Y-97641380D02*
X135415000Y-97641380D01*
X135290000Y-99281380D02*
X137166000Y-99281380D01*
X135290000Y-98561380D02*
X136700000Y-98561380D01*
X135290000Y-100402380D02*
X137468000Y-100402380D01*
X135290000Y-98801380D02*
X136886000Y-98801380D01*
X131734000Y-98641380D02*
X133210000Y-98641380D01*
X133617000Y-97481380D02*
X134883000Y-97481380D01*
X131061000Y-100162380D02*
X133210000Y-100162380D01*
X131614000Y-98801380D02*
X133210000Y-98801380D01*
X131438000Y-99081380D02*
X133210000Y-99081380D01*
X131354000Y-99241380D02*
X133210000Y-99241380D01*
X135290000Y-99801380D02*
X137360000Y-99801380D01*
X131870000Y-98481380D02*
X133210000Y-98481380D01*
X131316000Y-99321380D02*
X133210000Y-99321380D01*
X133310000Y-97561380D02*
X135190000Y-97561380D01*
X135290000Y-99881380D02*
X137381000Y-99881380D01*
X131068000Y-100122380D02*
X133210000Y-100122380D01*
X132113000Y-98241380D02*
X136387000Y-98241380D01*
X131484000Y-99001380D02*
X133210000Y-99001380D01*
X132306000Y-98081380D02*
X136194000Y-98081380D01*
X132360000Y-98041380D02*
X136140000Y-98041380D01*
X131049000Y-100242380D02*
X133210000Y-100242380D01*
X131028000Y-100442380D02*
X133210000Y-100442380D01*
X131248000Y-99481380D02*
X133210000Y-99481380D01*
X131586000Y-98841380D02*
X133210000Y-98841380D01*
X132600000Y-97881380D02*
X135900000Y-97881380D01*
X135290000Y-99681380D02*
X137324000Y-99681380D01*
X131129000Y-99841380D02*
X133210000Y-99841380D01*
X135290000Y-98881380D02*
X136940000Y-98881380D01*
X132900000Y-97721380D02*
X135600000Y-97721380D01*
X131280000Y-99401380D02*
X133210000Y-99401380D01*
X135290000Y-100202380D02*
X137445000Y-100202380D01*
X135290000Y-99081380D02*
X137062000Y-99081380D01*
X131374000Y-99201380D02*
X133210000Y-99201380D01*
X131020000Y-100642380D02*
X137480000Y-100642380D01*
X131264000Y-99441380D02*
X133210000Y-99441380D01*
X132669000Y-97841380D02*
X135831000Y-97841380D01*
X131055000Y-100202380D02*
X133210000Y-100202380D01*
X135290000Y-98641380D02*
X136766000Y-98641380D01*
X135290000Y-99521380D02*
X137268000Y-99521380D01*
X135290000Y-98921380D02*
X136966000Y-98921380D01*
X131834000Y-98521380D02*
X133210000Y-98521380D01*
X131023000Y-100522380D02*
X137477000Y-100522380D01*
X131176000Y-99681380D02*
X133210000Y-99681380D01*
X132255000Y-98121380D02*
X136245000Y-98121380D01*
X131189000Y-99641380D02*
X133210000Y-99641380D01*
X135290000Y-100442380D02*
X137472000Y-100442380D01*
X135290000Y-100002380D02*
X137409000Y-100002380D01*
X131945000Y-98401380D02*
X133210000Y-98401380D01*
X132988000Y-97681380D02*
X135512000Y-97681380D01*
X135290000Y-99401380D02*
X137220000Y-99401380D01*
X135290000Y-99641380D02*
X137311000Y-99641380D01*
X131164000Y-99721380D02*
X133210000Y-99721380D01*
X131032000Y-100402380D02*
X133210000Y-100402380D01*
X132416000Y-98001380D02*
X136084000Y-98001380D01*
X132026000Y-98321380D02*
X136474000Y-98321380D01*
X131560000Y-98881380D02*
X133210000Y-98881380D01*
X132818000Y-97761380D02*
X135682000Y-97761380D01*
X135290000Y-98721380D02*
X136828000Y-98721380D01*
X131100000Y-99961380D02*
X133210000Y-99961380D01*
X135290000Y-99601380D02*
X137297000Y-99601380D01*
X135290000Y-99721380D02*
X137336000Y-99721380D01*
X135290000Y-99161380D02*
X137106000Y-99161380D01*
X131109000Y-99921380D02*
X133210000Y-99921380D01*
X132096000Y-103867621D02*
X132726000Y-103867621D01*
X135290000Y-98481380D02*
X136630000Y-98481380D01*
X131766000Y-98601380D02*
X133210000Y-98601380D01*
X135290000Y-99761380D02*
X137348000Y-99761380D01*
X131232000Y-99521380D02*
X133210000Y-99521380D01*
X131152000Y-99761380D02*
X133210000Y-99761380D01*
X135290000Y-98401380D02*
X136555000Y-98401380D01*
X135290000Y-99481380D02*
X137252000Y-99481380D01*
X135290000Y-99361380D02*
X137202000Y-99361380D01*
X132206000Y-98161380D02*
X136294000Y-98161380D01*
X135290000Y-100242380D02*
X137451000Y-100242380D01*
X135290000Y-98961380D02*
X136992000Y-98961380D01*
X135290000Y-100322380D02*
X137461000Y-100322380D01*
X131643000Y-98761380D02*
X133210000Y-98761380D01*
X131985000Y-98361380D02*
X136515000Y-98361380D01*
X135290000Y-99201380D02*
X137126000Y-99201380D01*
X131035000Y-100362380D02*
X133210000Y-100362380D01*
X131217000Y-99561380D02*
X133210000Y-99561380D01*
X135290000Y-100362380D02*
X137465000Y-100362380D01*
X131672000Y-98721380D02*
X133210000Y-98721380D01*
X131020000Y-100602380D02*
X137480000Y-100602380D01*
X135290000Y-99841380D02*
X137371000Y-99841380D01*
X135290000Y-99121380D02*
X137084000Y-99121380D01*
X135290000Y-98441380D02*
X136593000Y-98441380D01*
X135290000Y-98521380D02*
X136666000Y-98521380D01*
X131091000Y-100002380D02*
X133210000Y-100002380D01*
X135290000Y-100162380D02*
X137439000Y-100162380D01*
X135290000Y-99001380D02*
X137016000Y-99001380D01*
X131075000Y-100082380D02*
X133210000Y-100082380D01*
X135290000Y-99321380D02*
X137184000Y-99321380D01*
X131334000Y-99281380D02*
X133210000Y-99281380D01*
X132741000Y-97801380D02*
X135759000Y-97801380D01*
X131460000Y-99041380D02*
X133210000Y-99041380D01*
X131020000Y-100682380D02*
X137480000Y-100682380D01*
X135290000Y-99041380D02*
X137040000Y-99041380D01*
X131203000Y-99601380D02*
X133210000Y-99601380D01*
X131026000Y-100482380D02*
X137474000Y-100482380D01*
X131083000Y-100042380D02*
X133210000Y-100042380D01*
X132068000Y-98281380D02*
X136432000Y-98281380D01*
X131044000Y-100282380D02*
X133210000Y-100282380D01*
X131394000Y-99161380D02*
X133210000Y-99161380D01*
X135290000Y-100122380D02*
X137432000Y-100122380D01*
X132411000Y-104182621D02*
X132411000Y-103552621D01*
X135290000Y-99961380D02*
X137400000Y-99961380D01*
X131119000Y-99881380D02*
X133210000Y-99881380D01*
X135290000Y-99441380D02*
X137236000Y-99441380D01*
X132536000Y-97921380D02*
X135964000Y-97921380D01*
X132158000Y-98201380D02*
X136342000Y-98201380D01*
X135290000Y-99561380D02*
X137283000Y-99561380D01*
X131508000Y-98961380D02*
X133210000Y-98961380D01*
X131140000Y-99801380D02*
X133210000Y-99801380D01*
X132474000Y-97961380D02*
X136026000Y-97961380D01*
X131800000Y-98561380D02*
X133210000Y-98561380D01*
X131907000Y-98441380D02*
X133210000Y-98441380D01*
X135290000Y-99921380D02*
X137391000Y-99921380D01*
X135290000Y-100282380D02*
X137456000Y-100282380D01*
X131039000Y-100322380D02*
X133210000Y-100322380D01*
X133848000Y-97441380D02*
X134652000Y-97441380D01*
X135290000Y-100082380D02*
X137425000Y-100082380D01*
X131022000Y-100562380D02*
X137478000Y-100562380D01*
X135290000Y-99241380D02*
X137146000Y-99241380D01*
X133448000Y-97521380D02*
X135052000Y-97521380D01*
X137520000Y-100682380D02*
G75*
G03*
X137520000Y-100682380I-3270000J0D01*
G01*
X203760000Y-82710000D02*
X190930000Y-82710000D01*
X190930000Y-82710000D02*
X190930000Y-85380000D01*
X190930000Y-85380000D02*
X188260000Y-85380000D01*
X189660000Y-82710000D02*
X188260000Y-82710000D01*
X188260000Y-82710000D02*
X188260000Y-84110000D01*
X201090000Y-82710000D02*
X201090000Y-103290000D01*
X188260000Y-103290000D02*
X203760000Y-103290000D01*
X188260000Y-85380000D02*
X188260000Y-103290000D01*
X190930000Y-85380000D02*
X190930000Y-103290000D01*
X203760000Y-103290000D02*
X203760000Y-82710000D01*
X166263332Y-85380000D02*
X166263332Y-103290000D01*
X166263332Y-82710000D02*
X166263332Y-85380000D01*
X166263332Y-85380000D02*
X163593332Y-85380000D01*
X163593332Y-82710000D02*
X163593332Y-84110000D01*
X179093332Y-82710000D02*
X166263332Y-82710000D01*
X164993332Y-82710000D02*
X163593332Y-82710000D01*
X176423332Y-82710000D02*
X176423332Y-103290000D01*
X163593332Y-85380000D02*
X163593332Y-103290000D01*
X179093332Y-103290000D02*
X179093332Y-82710000D01*
X163593332Y-103290000D02*
X179093332Y-103290000D01*
X166263332Y-54380000D02*
X166263332Y-72290000D01*
X163593332Y-54380000D02*
X163593332Y-72290000D01*
X176423332Y-51710000D02*
X176423332Y-72290000D01*
X179093332Y-72290000D02*
X179093332Y-51710000D01*
X166263332Y-51710000D02*
X166263332Y-54380000D01*
X163593332Y-72290000D02*
X179093332Y-72290000D01*
X166263332Y-54380000D02*
X163593332Y-54380000D01*
X164993332Y-51710000D02*
X163593332Y-51710000D01*
X179093332Y-51710000D02*
X166263332Y-51710000D01*
X163593332Y-51710000D02*
X163593332Y-53110000D01*
X110684000Y-95574000D02*
X113344000Y-95574000D01*
X110684000Y-85294000D02*
X112014000Y-85294000D01*
X110684000Y-86624000D02*
X110684000Y-85294000D01*
X113344000Y-87894000D02*
X113344000Y-95574000D01*
X110684000Y-87894000D02*
X110684000Y-95574000D01*
X110684000Y-87894000D02*
X113344000Y-87894000D01*
X140326666Y-51710000D02*
X138926666Y-51710000D01*
X151756666Y-51710000D02*
X151756666Y-72290000D01*
X154426666Y-72290000D02*
X154426666Y-51710000D01*
X154426666Y-51710000D02*
X141596666Y-51710000D01*
X141596666Y-54380000D02*
X141596666Y-72290000D01*
X141596666Y-51710000D02*
X141596666Y-54380000D01*
X141596666Y-54380000D02*
X138926666Y-54380000D01*
X138926666Y-54380000D02*
X138926666Y-72290000D01*
X138926666Y-51710000D02*
X138926666Y-53110000D01*
X138926666Y-72290000D02*
X154426666Y-72290000D01*
X156258000Y-98961380D02*
X157960000Y-98961380D01*
X156124000Y-99201380D02*
X157960000Y-99201380D01*
X155772000Y-100562380D02*
X162228000Y-100562380D01*
X160040000Y-100362380D02*
X162215000Y-100362380D01*
X160040000Y-98641380D02*
X161516000Y-98641380D01*
X160040000Y-100202380D02*
X162195000Y-100202380D01*
X158198000Y-97521380D02*
X159802000Y-97521380D01*
X160040000Y-99601380D02*
X162047000Y-99601380D01*
X155953000Y-99601380D02*
X157960000Y-99601380D01*
X156695000Y-98401380D02*
X157960000Y-98401380D01*
X155782000Y-100402380D02*
X157960000Y-100402380D01*
X155879000Y-99841380D02*
X157960000Y-99841380D01*
X160040000Y-98521380D02*
X161416000Y-98521380D01*
X155770000Y-100642380D02*
X162230000Y-100642380D01*
X157568000Y-97761380D02*
X160432000Y-97761380D01*
X156818000Y-98281380D02*
X161182000Y-98281380D01*
X156084000Y-99281380D02*
X157960000Y-99281380D01*
X156048000Y-99361380D02*
X157960000Y-99361380D01*
X156452000Y-98681380D02*
X157960000Y-98681380D01*
X156956000Y-98161380D02*
X161044000Y-98161380D01*
X160040000Y-98681380D02*
X161548000Y-98681380D01*
X155859000Y-99921380D02*
X157960000Y-99921380D01*
X160040000Y-99401380D02*
X161970000Y-99401380D01*
X156584000Y-98521380D02*
X157960000Y-98521380D01*
X160040000Y-99121380D02*
X161834000Y-99121380D01*
X156735000Y-98361380D02*
X161265000Y-98361380D01*
X160040000Y-100442380D02*
X162222000Y-100442380D01*
X160040000Y-99881380D02*
X162131000Y-99881380D01*
X156210000Y-99041380D02*
X157960000Y-99041380D01*
X160040000Y-99281380D02*
X161916000Y-99281380D01*
X160040000Y-99921380D02*
X162141000Y-99921380D01*
X160040000Y-99841380D02*
X162121000Y-99841380D01*
X156393000Y-98761380D02*
X157960000Y-98761380D01*
X160040000Y-99721380D02*
X162086000Y-99721380D01*
X160040000Y-99961380D02*
X162150000Y-99961380D01*
X155811000Y-100162380D02*
X157960000Y-100162380D01*
X160040000Y-100122380D02*
X162182000Y-100122380D01*
X156014000Y-99441380D02*
X157960000Y-99441380D01*
X158060000Y-97561380D02*
X159940000Y-97561380D01*
X155785000Y-100362380D02*
X157960000Y-100362380D01*
X157110000Y-98041380D02*
X160890000Y-98041380D01*
X160040000Y-100402380D02*
X162218000Y-100402380D01*
X155841000Y-100002380D02*
X157960000Y-100002380D01*
X160040000Y-99761380D02*
X162098000Y-99761380D01*
X156188000Y-99081380D02*
X157960000Y-99081380D01*
X157419000Y-97841380D02*
X160581000Y-97841380D01*
X160040000Y-99241380D02*
X161896000Y-99241380D01*
X156846000Y-103867621D02*
X157476000Y-103867621D01*
X155789000Y-100322380D02*
X157960000Y-100322380D01*
X156066000Y-99321380D02*
X157960000Y-99321380D01*
X157056000Y-98081380D02*
X160944000Y-98081380D01*
X160040000Y-98841380D02*
X161664000Y-98841380D01*
X160040000Y-99441380D02*
X161986000Y-99441380D01*
X160040000Y-99561380D02*
X162033000Y-99561380D01*
X160040000Y-98401380D02*
X161305000Y-98401380D01*
X155825000Y-100082380D02*
X157960000Y-100082380D01*
X155902000Y-99761380D02*
X157960000Y-99761380D01*
X160040000Y-100082380D02*
X162175000Y-100082380D01*
X160040000Y-99321380D02*
X161934000Y-99321380D01*
X157161000Y-104182621D02*
X157161000Y-103552621D01*
X155776000Y-100482380D02*
X162224000Y-100482380D01*
X155967000Y-99561380D02*
X157960000Y-99561380D01*
X160040000Y-100042380D02*
X162167000Y-100042380D01*
X160040000Y-99201380D02*
X161876000Y-99201380D01*
X160040000Y-98721380D02*
X161578000Y-98721380D01*
X157491000Y-97801380D02*
X160509000Y-97801380D01*
X157286000Y-97921380D02*
X160714000Y-97921380D01*
X160040000Y-98481380D02*
X161380000Y-98481380D01*
X156336000Y-98841380D02*
X157960000Y-98841380D01*
X160040000Y-99001380D02*
X161766000Y-99001380D01*
X156166000Y-99121380D02*
X157960000Y-99121380D01*
X158598000Y-97441380D02*
X159402000Y-97441380D01*
X160040000Y-99161380D02*
X161856000Y-99161380D01*
X157650000Y-97721380D02*
X160350000Y-97721380D01*
X155869000Y-99881380D02*
X157960000Y-99881380D01*
X156620000Y-98481380D02*
X157960000Y-98481380D01*
X156422000Y-98721380D02*
X157960000Y-98721380D01*
X160040000Y-99681380D02*
X162074000Y-99681380D01*
X156030000Y-99401380D02*
X157960000Y-99401380D01*
X160040000Y-98921380D02*
X161716000Y-98921380D01*
X160040000Y-100322380D02*
X162211000Y-100322380D01*
X157005000Y-98121380D02*
X160995000Y-98121380D01*
X156516000Y-98601380D02*
X157960000Y-98601380D01*
X155773000Y-100522380D02*
X162227000Y-100522380D01*
X156364000Y-98801380D02*
X157960000Y-98801380D01*
X160040000Y-99041380D02*
X161790000Y-99041380D01*
X155799000Y-100242380D02*
X157960000Y-100242380D01*
X160040000Y-99081380D02*
X161812000Y-99081380D01*
X156550000Y-98561380D02*
X157960000Y-98561380D01*
X160040000Y-99641380D02*
X162061000Y-99641380D01*
X155778000Y-100442380D02*
X157960000Y-100442380D01*
X155818000Y-100122380D02*
X157960000Y-100122380D01*
X155805000Y-100202380D02*
X157960000Y-100202380D01*
X156484000Y-98641380D02*
X157960000Y-98641380D01*
X156657000Y-98441380D02*
X157960000Y-98441380D01*
X155982000Y-99521380D02*
X157960000Y-99521380D01*
X160040000Y-100162380D02*
X162189000Y-100162380D01*
X158367000Y-97481380D02*
X159633000Y-97481380D01*
X156284000Y-98921380D02*
X157960000Y-98921380D01*
X156104000Y-99241380D02*
X157960000Y-99241380D01*
X155794000Y-100282380D02*
X157960000Y-100282380D01*
X157738000Y-97681380D02*
X160262000Y-97681380D01*
X156310000Y-98881380D02*
X157960000Y-98881380D01*
X155850000Y-99961380D02*
X157960000Y-99961380D01*
X157941000Y-97601380D02*
X160059000Y-97601380D01*
X157835000Y-97641380D02*
X160165000Y-97641380D01*
X156234000Y-99001380D02*
X157960000Y-99001380D01*
X160040000Y-98441380D02*
X161343000Y-98441380D01*
X160040000Y-98601380D02*
X161484000Y-98601380D01*
X160040000Y-98881380D02*
X161690000Y-98881380D01*
X155998000Y-99481380D02*
X157960000Y-99481380D01*
X160040000Y-98961380D02*
X161742000Y-98961380D01*
X160040000Y-99801380D02*
X162110000Y-99801380D01*
X160040000Y-99481380D02*
X162002000Y-99481380D01*
X156776000Y-98321380D02*
X161224000Y-98321380D01*
X156144000Y-99161380D02*
X157960000Y-99161380D01*
X155939000Y-99641380D02*
X157960000Y-99641380D01*
X160040000Y-98561380D02*
X161450000Y-98561380D01*
X160040000Y-99361380D02*
X161952000Y-99361380D01*
X155926000Y-99681380D02*
X157960000Y-99681380D01*
X157224000Y-97961380D02*
X160776000Y-97961380D01*
X160040000Y-98761380D02*
X161607000Y-98761380D01*
X160040000Y-99521380D02*
X162018000Y-99521380D01*
X156863000Y-98241380D02*
X161137000Y-98241380D01*
X155770000Y-100602380D02*
X162230000Y-100602380D01*
X160040000Y-100242380D02*
X162201000Y-100242380D01*
X157350000Y-97881380D02*
X160650000Y-97881380D01*
X160040000Y-100002380D02*
X162159000Y-100002380D01*
X155833000Y-100042380D02*
X157960000Y-100042380D01*
X160040000Y-100282380D02*
X162206000Y-100282380D01*
X155770000Y-100682380D02*
X162230000Y-100682380D01*
X157166000Y-98001380D02*
X160834000Y-98001380D01*
X156908000Y-98201380D02*
X161092000Y-98201380D01*
X160040000Y-98801380D02*
X161636000Y-98801380D01*
X155914000Y-99721380D02*
X157960000Y-99721380D01*
X155890000Y-99801380D02*
X157960000Y-99801380D01*
X162270000Y-100682380D02*
G75*
G03*
X162270000Y-100682380I-3270000J0D01*
G01*
X141676666Y-80451000D02*
X138976666Y-80451000D01*
X139286666Y-78371000D02*
X137216666Y-78371000D01*
X142508666Y-79891000D02*
X138144666Y-79891000D01*
X139286666Y-78291000D02*
X137195666Y-78291000D01*
X139286666Y-78851000D02*
X137392666Y-78851000D01*
X143424666Y-78411000D02*
X141366666Y-78411000D01*
X139286666Y-78811000D02*
X137374666Y-78811000D01*
X142990666Y-79331000D02*
X141366666Y-79331000D01*
X139286666Y-79571000D02*
X137842666Y-79571000D01*
X139286666Y-77930000D02*
X137125666Y-77930000D01*
X139286666Y-79131000D02*
X137536666Y-79131000D01*
X139286666Y-79091000D02*
X137514666Y-79091000D01*
X143493666Y-78130000D02*
X141366666Y-78130000D01*
X143457666Y-78291000D02*
X141366666Y-78291000D01*
X143476666Y-78211000D02*
X141366666Y-78211000D01*
X141758666Y-80411000D02*
X138894666Y-80411000D01*
X139286666Y-78090000D02*
X137151666Y-78090000D01*
X139286666Y-79331000D02*
X137662666Y-79331000D01*
X143359666Y-78611000D02*
X141366666Y-78611000D01*
X139286666Y-78931000D02*
X137430666Y-78931000D01*
X143501666Y-78090000D02*
X141366666Y-78090000D01*
X143527666Y-77930000D02*
X141366666Y-77930000D01*
X139286666Y-79051000D02*
X137492666Y-79051000D01*
X139286666Y-78050000D02*
X137144666Y-78050000D01*
X139286666Y-78010000D02*
X137137666Y-78010000D01*
X139286666Y-79451000D02*
X137748666Y-79451000D01*
X139286666Y-79491000D02*
X137778666Y-79491000D01*
X143202666Y-78971000D02*
X141366666Y-78971000D01*
X139286666Y-78571000D02*
X137279666Y-78571000D01*
X139286666Y-79531000D02*
X137810666Y-79531000D01*
X142874666Y-79491000D02*
X141366666Y-79491000D01*
X143138666Y-79091000D02*
X141366666Y-79091000D01*
X139286666Y-78531000D02*
X137265666Y-78531000D01*
X139286666Y-78411000D02*
X137228666Y-78411000D01*
X142160666Y-80171000D02*
X138492666Y-80171000D01*
X139286666Y-79731000D02*
X137983666Y-79731000D01*
X139286666Y-79371000D02*
X137690666Y-79371000D01*
X143532666Y-77890000D02*
X141366666Y-77890000D01*
X143260666Y-78851000D02*
X141366666Y-78851000D01*
X139286666Y-79171000D02*
X137560666Y-79171000D01*
X139286666Y-79651000D02*
X137910666Y-79651000D01*
X141835666Y-80371000D02*
X138817666Y-80371000D01*
X140728666Y-80731000D02*
X139924666Y-80731000D01*
X143544666Y-77770000D02*
X141366666Y-77770000D01*
X141588666Y-80491000D02*
X139064666Y-80491000D01*
X139286666Y-77890000D02*
X137120666Y-77890000D01*
X139286666Y-78130000D02*
X137159666Y-78130000D01*
X139286666Y-79691000D02*
X137946666Y-79691000D01*
X141907666Y-80331000D02*
X138745666Y-80331000D01*
X139286666Y-78491000D02*
X137252666Y-78491000D01*
X139286666Y-79011000D02*
X137470666Y-79011000D01*
X143160666Y-79051000D02*
X141366666Y-79051000D01*
X142631666Y-79771000D02*
X141366666Y-79771000D01*
X139286666Y-78971000D02*
X137450666Y-78971000D01*
X142321666Y-80051000D02*
X138331666Y-80051000D01*
X143042666Y-79251000D02*
X141366666Y-79251000D01*
X141128666Y-80651000D02*
X139524666Y-80651000D01*
X139286666Y-79211000D02*
X137584666Y-79211000D01*
X143515666Y-78010000D02*
X141366666Y-78010000D01*
X139286666Y-77730000D02*
X137104666Y-77730000D01*
X139286666Y-79771000D02*
X138021666Y-79771000D01*
X140959666Y-80691000D02*
X139693666Y-80691000D01*
X143068666Y-79211000D02*
X141366666Y-79211000D01*
X139286666Y-78651000D02*
X137308666Y-78651000D01*
X143436666Y-78371000D02*
X141366666Y-78371000D01*
X143373666Y-78571000D02*
X141366666Y-78571000D01*
X142776666Y-79611000D02*
X141366666Y-79611000D01*
X143222666Y-78931000D02*
X141366666Y-78931000D01*
X139286666Y-77810000D02*
X137111666Y-77810000D01*
X139286666Y-78771000D02*
X137356666Y-78771000D01*
X139286666Y-78731000D02*
X137340666Y-78731000D01*
X143116666Y-79131000D02*
X141366666Y-79131000D01*
X143242666Y-78891000D02*
X141366666Y-78891000D01*
X142591666Y-79811000D02*
X138061666Y-79811000D01*
X141976666Y-80291000D02*
X138676666Y-80291000D01*
X142933666Y-79411000D02*
X141366666Y-79411000D01*
X142270666Y-80091000D02*
X138382666Y-80091000D01*
X142102666Y-80211000D02*
X138550666Y-80211000D01*
X141385666Y-80571000D02*
X139267666Y-80571000D01*
X142463666Y-79931000D02*
X138189666Y-79931000D01*
X142040666Y-80251000D02*
X138612666Y-80251000D01*
X143278666Y-78811000D02*
X141366666Y-78811000D01*
X143556666Y-77570000D02*
X137096666Y-77570000D01*
X143467666Y-78251000D02*
X141366666Y-78251000D01*
X139286666Y-78611000D02*
X137293666Y-78611000D01*
X143554666Y-77610000D02*
X137098666Y-77610000D01*
X141266666Y-80611000D02*
X139386666Y-80611000D01*
X143485666Y-78170000D02*
X141366666Y-78170000D01*
X139286666Y-78331000D02*
X137205666Y-78331000D01*
X142165666Y-73989759D02*
X142165666Y-74619759D01*
X143387666Y-78531000D02*
X141366666Y-78531000D01*
X143548666Y-77730000D02*
X141366666Y-77730000D01*
X143016666Y-79291000D02*
X141366666Y-79291000D01*
X139286666Y-79611000D02*
X137876666Y-79611000D01*
X143537666Y-77850000D02*
X141366666Y-77850000D01*
X143400666Y-78491000D02*
X141366666Y-78491000D01*
X143182666Y-79011000D02*
X141366666Y-79011000D01*
X143550666Y-77690000D02*
X137102666Y-77690000D01*
X142370666Y-80011000D02*
X138282666Y-80011000D01*
X142669666Y-79731000D02*
X141366666Y-79731000D01*
X139286666Y-79291000D02*
X137636666Y-79291000D01*
X139286666Y-78170000D02*
X137167666Y-78170000D01*
X139286666Y-77770000D02*
X137108666Y-77770000D01*
X143328666Y-78691000D02*
X141366666Y-78691000D01*
X142216666Y-80131000D02*
X138436666Y-80131000D01*
X139286666Y-79251000D02*
X137610666Y-79251000D01*
X139286666Y-78251000D02*
X137185666Y-78251000D01*
X142742666Y-79651000D02*
X141366666Y-79651000D01*
X143541666Y-77810000D02*
X141366666Y-77810000D01*
X139286666Y-78211000D02*
X137176666Y-78211000D01*
X143521666Y-77970000D02*
X141366666Y-77970000D01*
X139286666Y-78451000D02*
X137240666Y-78451000D01*
X139286666Y-77970000D02*
X137131666Y-77970000D01*
X143092666Y-79171000D02*
X141366666Y-79171000D01*
X143553666Y-77650000D02*
X137099666Y-77650000D01*
X139286666Y-78891000D02*
X137410666Y-78891000D01*
X142480666Y-74304759D02*
X141850666Y-74304759D01*
X141491666Y-80531000D02*
X139161666Y-80531000D01*
X142550666Y-79851000D02*
X138102666Y-79851000D01*
X139286666Y-78691000D02*
X137324666Y-78691000D01*
X143412666Y-78451000D02*
X141366666Y-78451000D01*
X143312666Y-78731000D02*
X141366666Y-78731000D01*
X143344666Y-78651000D02*
X141366666Y-78651000D01*
X142810666Y-79571000D02*
X141366666Y-79571000D01*
X142962666Y-79371000D02*
X141366666Y-79371000D01*
X143556666Y-77530000D02*
X137096666Y-77530000D01*
X143296666Y-78771000D02*
X141366666Y-78771000D01*
X139286666Y-77850000D02*
X137115666Y-77850000D01*
X142418666Y-79971000D02*
X138234666Y-79971000D01*
X143447666Y-78331000D02*
X141366666Y-78331000D01*
X143556666Y-77490000D02*
X137096666Y-77490000D01*
X139286666Y-79411000D02*
X137719666Y-79411000D01*
X143508666Y-78050000D02*
X141366666Y-78050000D01*
X142904666Y-79451000D02*
X141366666Y-79451000D01*
X142706666Y-79691000D02*
X141366666Y-79691000D01*
X142842666Y-79531000D02*
X141366666Y-79531000D01*
X143596666Y-77490000D02*
G75*
G03*
X143596666Y-77490000I-3270000J0D01*
G01*
X114260000Y-54380000D02*
X114260000Y-72290000D01*
X115660000Y-51710000D02*
X114260000Y-51710000D01*
X116930000Y-54380000D02*
X116930000Y-72290000D01*
X127090000Y-51710000D02*
X127090000Y-72290000D01*
X114260000Y-72290000D02*
X129760000Y-72290000D01*
X116930000Y-51710000D02*
X116930000Y-54380000D01*
X116930000Y-54380000D02*
X114260000Y-54380000D01*
X129760000Y-51710000D02*
X116930000Y-51710000D01*
X114260000Y-51710000D02*
X114260000Y-53110000D01*
X129760000Y-72290000D02*
X129760000Y-51710000D01*
X114530000Y-108570000D02*
X112403000Y-108570000D01*
X118404000Y-109491000D02*
X116610000Y-109491000D01*
X118771000Y-108370000D02*
X116610000Y-108370000D01*
X118759000Y-108450000D02*
X116610000Y-108450000D01*
X114530000Y-108170000D02*
X112348000Y-108170000D01*
X114530000Y-109131000D02*
X112568000Y-109131000D01*
X118668000Y-108851000D02*
X116610000Y-108851000D01*
X117404000Y-110611000D02*
X113736000Y-110611000D01*
X114530000Y-108290000D02*
X112359000Y-108290000D01*
X117986000Y-110091000D02*
X116610000Y-110091000D01*
X118286000Y-109691000D02*
X116610000Y-109691000D01*
X114530000Y-109771000D02*
X112906000Y-109771000D01*
X116203000Y-111131000D02*
X114937000Y-111131000D01*
X118260000Y-109731000D02*
X116610000Y-109731000D01*
X118729000Y-108610000D02*
X116610000Y-108610000D01*
X117614000Y-110451000D02*
X113526000Y-110451000D01*
X117794000Y-110291000D02*
X113346000Y-110291000D01*
X116629000Y-111011000D02*
X114511000Y-111011000D01*
X118556000Y-109171000D02*
X116610000Y-109171000D01*
X114530000Y-108330000D02*
X112364000Y-108330000D01*
X117409000Y-104429759D02*
X117409000Y-105059759D01*
X114530000Y-108691000D02*
X112429000Y-108691000D01*
X114530000Y-109331000D02*
X112654000Y-109331000D01*
X114530000Y-108450000D02*
X112381000Y-108450000D01*
X118781000Y-108290000D02*
X116610000Y-108290000D01*
X114530000Y-109731000D02*
X112880000Y-109731000D01*
X117875000Y-110211000D02*
X116610000Y-110211000D01*
X118792000Y-108170000D02*
X116610000Y-108170000D01*
X118446000Y-109411000D02*
X116610000Y-109411000D01*
X118148000Y-109891000D02*
X116610000Y-109891000D01*
X118745000Y-108530000D02*
X116610000Y-108530000D01*
X116372000Y-111091000D02*
X114768000Y-111091000D01*
X116510000Y-111051000D02*
X114630000Y-111051000D01*
X118701000Y-108731000D02*
X116610000Y-108731000D01*
X118800000Y-107970000D02*
X112340000Y-107970000D01*
X114530000Y-109651000D02*
X112828000Y-109651000D01*
X117002000Y-110851000D02*
X114138000Y-110851000D01*
X114530000Y-108530000D02*
X112395000Y-108530000D01*
X117346000Y-110651000D02*
X113794000Y-110651000D01*
X118336000Y-109611000D02*
X116610000Y-109611000D01*
X114530000Y-110011000D02*
X113086000Y-110011000D01*
X114530000Y-109291000D02*
X112636000Y-109291000D01*
X116832000Y-110931000D02*
X114308000Y-110931000D01*
X117565000Y-110491000D02*
X113575000Y-110491000D01*
X118382000Y-109531000D02*
X116610000Y-109531000D01*
X117220000Y-110731000D02*
X113920000Y-110731000D01*
X114530000Y-108610000D02*
X112411000Y-108610000D01*
X114530000Y-108891000D02*
X112484000Y-108891000D01*
X118776000Y-108330000D02*
X116610000Y-108330000D01*
X118466000Y-109371000D02*
X116610000Y-109371000D01*
X114530000Y-109811000D02*
X112934000Y-109811000D01*
X118540000Y-109211000D02*
X116610000Y-109211000D01*
X114530000Y-109091000D02*
X112552000Y-109091000D01*
X114530000Y-108651000D02*
X112420000Y-108651000D01*
X117514000Y-110531000D02*
X113626000Y-110531000D01*
X117950000Y-110131000D02*
X116610000Y-110131000D01*
X114530000Y-109851000D02*
X112963000Y-109851000D01*
X114530000Y-108370000D02*
X112369000Y-108370000D01*
X114530000Y-109611000D02*
X112804000Y-109611000D01*
X114530000Y-110051000D02*
X113120000Y-110051000D01*
X118617000Y-109011000D02*
X116610000Y-109011000D01*
X114530000Y-109531000D02*
X112758000Y-109531000D01*
X115972000Y-111171000D02*
X115168000Y-111171000D01*
X114530000Y-109251000D02*
X112618000Y-109251000D01*
X118177000Y-109851000D02*
X116610000Y-109851000D01*
X114530000Y-108971000D02*
X112509000Y-108971000D01*
X114530000Y-109931000D02*
X113022000Y-109931000D01*
X114530000Y-108490000D02*
X112388000Y-108490000D01*
X118800000Y-108010000D02*
X112340000Y-108010000D01*
X117284000Y-110691000D02*
X113856000Y-110691000D01*
X118785000Y-108250000D02*
X116610000Y-108250000D01*
X118020000Y-110051000D02*
X116610000Y-110051000D01*
X114530000Y-108210000D02*
X112352000Y-108210000D01*
X118234000Y-109771000D02*
X116610000Y-109771000D01*
X117835000Y-110251000D02*
X113305000Y-110251000D01*
X118086000Y-109971000D02*
X116610000Y-109971000D01*
X118656000Y-108891000D02*
X116610000Y-108891000D01*
X117752000Y-110331000D02*
X113388000Y-110331000D01*
X114530000Y-108410000D02*
X112375000Y-108410000D01*
X114530000Y-109451000D02*
X112714000Y-109451000D01*
X118118000Y-109931000D02*
X116610000Y-109931000D01*
X118752000Y-108490000D02*
X116610000Y-108490000D01*
X116735000Y-110971000D02*
X114405000Y-110971000D01*
X118644000Y-108931000D02*
X116610000Y-108931000D01*
X118206000Y-109811000D02*
X116610000Y-109811000D01*
X114530000Y-109051000D02*
X112537000Y-109051000D01*
X114530000Y-109411000D02*
X112694000Y-109411000D01*
X114530000Y-109211000D02*
X112600000Y-109211000D01*
X114530000Y-110211000D02*
X113265000Y-110211000D01*
X117662000Y-110411000D02*
X113478000Y-110411000D01*
X117913000Y-110171000D02*
X116610000Y-110171000D01*
X114530000Y-109011000D02*
X112523000Y-109011000D01*
X114530000Y-109491000D02*
X112736000Y-109491000D01*
X118800000Y-107930000D02*
X112340000Y-107930000D01*
X114530000Y-110171000D02*
X113227000Y-110171000D01*
X118720000Y-108651000D02*
X116610000Y-108651000D01*
X118504000Y-109291000D02*
X116610000Y-109291000D01*
X118680000Y-108811000D02*
X116610000Y-108811000D01*
X118360000Y-109571000D02*
X116610000Y-109571000D01*
X118631000Y-108971000D02*
X116610000Y-108971000D01*
X118798000Y-108050000D02*
X112342000Y-108050000D01*
X114530000Y-108731000D02*
X112439000Y-108731000D01*
X114530000Y-109171000D02*
X112584000Y-109171000D01*
X118691000Y-108771000D02*
X116610000Y-108771000D01*
X118797000Y-108090000D02*
X112343000Y-108090000D01*
X114530000Y-108851000D02*
X112472000Y-108851000D01*
X116920000Y-110891000D02*
X114220000Y-110891000D01*
X117151000Y-110771000D02*
X113989000Y-110771000D01*
X114530000Y-109691000D02*
X112854000Y-109691000D01*
X114530000Y-108931000D02*
X112496000Y-108931000D01*
X118486000Y-109331000D02*
X116610000Y-109331000D01*
X118737000Y-108570000D02*
X116610000Y-108570000D01*
X114530000Y-109971000D02*
X113054000Y-109971000D01*
X118522000Y-109251000D02*
X116610000Y-109251000D01*
X118588000Y-109091000D02*
X116610000Y-109091000D01*
X118711000Y-108691000D02*
X116610000Y-108691000D01*
X117460000Y-110571000D02*
X113680000Y-110571000D01*
X114530000Y-109891000D02*
X112992000Y-109891000D01*
X114530000Y-110091000D02*
X113154000Y-110091000D01*
X118603000Y-109051000D02*
X116610000Y-109051000D01*
X118794000Y-108130000D02*
X112346000Y-108130000D01*
X118426000Y-109451000D02*
X116610000Y-109451000D01*
X118312000Y-109651000D02*
X116610000Y-109651000D01*
X114530000Y-110131000D02*
X113190000Y-110131000D01*
X118572000Y-109131000D02*
X116610000Y-109131000D01*
X114530000Y-108250000D02*
X112355000Y-108250000D01*
X114530000Y-109571000D02*
X112780000Y-109571000D01*
X117079000Y-110811000D02*
X114061000Y-110811000D01*
X118054000Y-110011000D02*
X116610000Y-110011000D01*
X118788000Y-108210000D02*
X116610000Y-108210000D01*
X117724000Y-104744759D02*
X117094000Y-104744759D01*
X114530000Y-109371000D02*
X112674000Y-109371000D01*
X118765000Y-108410000D02*
X116610000Y-108410000D01*
X114530000Y-108811000D02*
X112460000Y-108811000D01*
X117707000Y-110371000D02*
X113433000Y-110371000D01*
X114530000Y-108771000D02*
X112449000Y-108771000D01*
X118840000Y-107930000D02*
G75*
G03*
X118840000Y-107930000I-3270000J0D01*
G01*
X187258000Y-87894000D02*
X187258000Y-95574000D01*
X184598000Y-86624000D02*
X184598000Y-85294000D01*
X184598000Y-87894000D02*
X187258000Y-87894000D01*
X184598000Y-95574000D02*
X187258000Y-95574000D01*
X184598000Y-85294000D02*
X185928000Y-85294000D01*
X184598000Y-87894000D02*
X184598000Y-95574000D01*
X162620000Y-87894000D02*
X162620000Y-95574000D01*
X159960000Y-87894000D02*
X162620000Y-87894000D01*
X159960000Y-95574000D02*
X162620000Y-95574000D01*
X159960000Y-87894000D02*
X159960000Y-95574000D01*
X159960000Y-86624000D02*
X159960000Y-85294000D01*
X159960000Y-85294000D02*
X161290000Y-85294000D01*
X113344000Y-59446000D02*
X113344000Y-67126000D01*
X110684000Y-59446000D02*
X110684000Y-67126000D01*
X110684000Y-59446000D02*
X113344000Y-59446000D01*
X110684000Y-67126000D02*
X113344000Y-67126000D01*
X110684000Y-56846000D02*
X112014000Y-56846000D01*
X110684000Y-58176000D02*
X110684000Y-56846000D01*
X118680000Y-78331000D02*
X116610000Y-78331000D01*
X118234000Y-79291000D02*
X116610000Y-79291000D01*
X117724000Y-74264759D02*
X117094000Y-74264759D01*
X114530000Y-78891000D02*
X112674000Y-78891000D01*
X117346000Y-80171000D02*
X113794000Y-80171000D01*
X116920000Y-80411000D02*
X114220000Y-80411000D01*
X117950000Y-79651000D02*
X116610000Y-79651000D01*
X118572000Y-78651000D02*
X116610000Y-78651000D01*
X118177000Y-79371000D02*
X116610000Y-79371000D01*
X117662000Y-79931000D02*
X113478000Y-79931000D01*
X118360000Y-79091000D02*
X116610000Y-79091000D01*
X118426000Y-78971000D02*
X116610000Y-78971000D01*
X117752000Y-79851000D02*
X113388000Y-79851000D01*
X114530000Y-77970000D02*
X112381000Y-77970000D01*
X114530000Y-79571000D02*
X113120000Y-79571000D01*
X114530000Y-78371000D02*
X112472000Y-78371000D01*
X114530000Y-78851000D02*
X112654000Y-78851000D01*
X117220000Y-80251000D02*
X113920000Y-80251000D01*
X114530000Y-77930000D02*
X112375000Y-77930000D01*
X118206000Y-79331000D02*
X116610000Y-79331000D01*
X118486000Y-78851000D02*
X116610000Y-78851000D01*
X118540000Y-78731000D02*
X116610000Y-78731000D01*
X118711000Y-78211000D02*
X116610000Y-78211000D01*
X114530000Y-78771000D02*
X112618000Y-78771000D01*
X114530000Y-78731000D02*
X112600000Y-78731000D01*
X114530000Y-79531000D02*
X113086000Y-79531000D01*
X114530000Y-79411000D02*
X112992000Y-79411000D01*
X117409000Y-73949759D02*
X117409000Y-74579759D01*
X118792000Y-77690000D02*
X116610000Y-77690000D01*
X114530000Y-78491000D02*
X112509000Y-78491000D01*
X114530000Y-78050000D02*
X112395000Y-78050000D01*
X117707000Y-79891000D02*
X113433000Y-79891000D01*
X114530000Y-78331000D02*
X112460000Y-78331000D01*
X117986000Y-79611000D02*
X116610000Y-79611000D01*
X114530000Y-77690000D02*
X112348000Y-77690000D01*
X118312000Y-79171000D02*
X116610000Y-79171000D01*
X118720000Y-78171000D02*
X116610000Y-78171000D01*
X117614000Y-79971000D02*
X113526000Y-79971000D01*
X118631000Y-78491000D02*
X116610000Y-78491000D01*
X114530000Y-79051000D02*
X112758000Y-79051000D01*
X118588000Y-78611000D02*
X116610000Y-78611000D01*
X118797000Y-77610000D02*
X112343000Y-77610000D01*
X114530000Y-77890000D02*
X112369000Y-77890000D01*
X117404000Y-80131000D02*
X113736000Y-80131000D01*
X114530000Y-78811000D02*
X112636000Y-78811000D01*
X114530000Y-79691000D02*
X113227000Y-79691000D01*
X118729000Y-78130000D02*
X116610000Y-78130000D01*
X118794000Y-77650000D02*
X112346000Y-77650000D01*
X114530000Y-78971000D02*
X112714000Y-78971000D01*
X118522000Y-78771000D02*
X116610000Y-78771000D01*
X114530000Y-79611000D02*
X113154000Y-79611000D01*
X117460000Y-80091000D02*
X113680000Y-80091000D01*
X118765000Y-77930000D02*
X116610000Y-77930000D01*
X114530000Y-79651000D02*
X113190000Y-79651000D01*
X117284000Y-80211000D02*
X113856000Y-80211000D01*
X114530000Y-78291000D02*
X112449000Y-78291000D01*
X118260000Y-79251000D02*
X116610000Y-79251000D01*
X114530000Y-78211000D02*
X112429000Y-78211000D01*
X118054000Y-79531000D02*
X116610000Y-79531000D01*
X114530000Y-78010000D02*
X112388000Y-78010000D01*
X118382000Y-79051000D02*
X116610000Y-79051000D01*
X118745000Y-78050000D02*
X116610000Y-78050000D01*
X115972000Y-80691000D02*
X115168000Y-80691000D01*
X114530000Y-78691000D02*
X112584000Y-78691000D01*
X114530000Y-78571000D02*
X112537000Y-78571000D01*
X114530000Y-79731000D02*
X113265000Y-79731000D01*
X114530000Y-79171000D02*
X112828000Y-79171000D01*
X114530000Y-79011000D02*
X112736000Y-79011000D01*
X114530000Y-79131000D02*
X112804000Y-79131000D01*
X118656000Y-78411000D02*
X116610000Y-78411000D01*
X118701000Y-78251000D02*
X116610000Y-78251000D01*
X118446000Y-78931000D02*
X116610000Y-78931000D01*
X118603000Y-78571000D02*
X116610000Y-78571000D01*
X116203000Y-80651000D02*
X114937000Y-80651000D01*
X117151000Y-80291000D02*
X113989000Y-80291000D01*
X118800000Y-77530000D02*
X112340000Y-77530000D01*
X114530000Y-77730000D02*
X112352000Y-77730000D01*
X118752000Y-78010000D02*
X116610000Y-78010000D01*
X114530000Y-78130000D02*
X112411000Y-78130000D01*
X114530000Y-79371000D02*
X112963000Y-79371000D01*
X118800000Y-77450000D02*
X112340000Y-77450000D01*
X118771000Y-77890000D02*
X116610000Y-77890000D01*
X114530000Y-77770000D02*
X112355000Y-77770000D01*
X114530000Y-78931000D02*
X112694000Y-78931000D01*
X114530000Y-78451000D02*
X112496000Y-78451000D01*
X114530000Y-77810000D02*
X112359000Y-77810000D01*
X114530000Y-79331000D02*
X112934000Y-79331000D01*
X114530000Y-78090000D02*
X112403000Y-78090000D01*
X114530000Y-79251000D02*
X112880000Y-79251000D01*
X117875000Y-79731000D02*
X116610000Y-79731000D01*
X118504000Y-78811000D02*
X116610000Y-78811000D01*
X118691000Y-78291000D02*
X116610000Y-78291000D01*
X118668000Y-78371000D02*
X116610000Y-78371000D01*
X118020000Y-79571000D02*
X116610000Y-79571000D01*
X118781000Y-77810000D02*
X116610000Y-77810000D01*
X118404000Y-79011000D02*
X116610000Y-79011000D01*
X117913000Y-79691000D02*
X116610000Y-79691000D01*
X117514000Y-80051000D02*
X113626000Y-80051000D01*
X116629000Y-80531000D02*
X114511000Y-80531000D01*
X118788000Y-77730000D02*
X116610000Y-77730000D01*
X118644000Y-78451000D02*
X116610000Y-78451000D01*
X118737000Y-78090000D02*
X116610000Y-78090000D01*
X114530000Y-78611000D02*
X112552000Y-78611000D01*
X116735000Y-80491000D02*
X114405000Y-80491000D01*
X117002000Y-80371000D02*
X114138000Y-80371000D01*
X117794000Y-79811000D02*
X113346000Y-79811000D01*
X118336000Y-79131000D02*
X116610000Y-79131000D01*
X118776000Y-77850000D02*
X116610000Y-77850000D01*
X118800000Y-77490000D02*
X112340000Y-77490000D01*
X118785000Y-77770000D02*
X116610000Y-77770000D01*
X114530000Y-78651000D02*
X112568000Y-78651000D01*
X114530000Y-79291000D02*
X112906000Y-79291000D01*
X117835000Y-79771000D02*
X113305000Y-79771000D01*
X114530000Y-79491000D02*
X113054000Y-79491000D01*
X114530000Y-78411000D02*
X112484000Y-78411000D01*
X118556000Y-78691000D02*
X116610000Y-78691000D01*
X118798000Y-77570000D02*
X112342000Y-77570000D01*
X118118000Y-79451000D02*
X116610000Y-79451000D01*
X117565000Y-80011000D02*
X113575000Y-80011000D01*
X118466000Y-78891000D02*
X116610000Y-78891000D01*
X114530000Y-77850000D02*
X112364000Y-77850000D01*
X118148000Y-79411000D02*
X116610000Y-79411000D01*
X117079000Y-80331000D02*
X114061000Y-80331000D01*
X116510000Y-80571000D02*
X114630000Y-80571000D01*
X118086000Y-79491000D02*
X116610000Y-79491000D01*
X116832000Y-80451000D02*
X114308000Y-80451000D01*
X118759000Y-77970000D02*
X116610000Y-77970000D01*
X116372000Y-80611000D02*
X114768000Y-80611000D01*
X114530000Y-79451000D02*
X113022000Y-79451000D01*
X114530000Y-79091000D02*
X112780000Y-79091000D01*
X114530000Y-78531000D02*
X112523000Y-78531000D01*
X114530000Y-78251000D02*
X112439000Y-78251000D01*
X118617000Y-78531000D02*
X116610000Y-78531000D01*
X114530000Y-78171000D02*
X112420000Y-78171000D01*
X118286000Y-79211000D02*
X116610000Y-79211000D01*
X114530000Y-79211000D02*
X112854000Y-79211000D01*
X118840000Y-77450000D02*
G75*
G03*
X118840000Y-77450000I-3270000J0D01*
G01*
X151756666Y-82710000D02*
X151756666Y-103290000D01*
X154426666Y-103290000D02*
X154426666Y-82710000D01*
X154426666Y-82710000D02*
X141596666Y-82710000D01*
X140326666Y-82710000D02*
X138926666Y-82710000D01*
X141596666Y-82710000D02*
X141596666Y-85380000D01*
X141596666Y-85380000D02*
X141596666Y-103290000D01*
X138926666Y-82710000D02*
X138926666Y-84110000D01*
X138926666Y-85380000D02*
X138926666Y-103290000D01*
X141596666Y-85380000D02*
X138926666Y-85380000D01*
X138926666Y-103290000D02*
X154426666Y-103290000D01*
X184598000Y-59446000D02*
X187258000Y-59446000D01*
X184598000Y-56846000D02*
X185928000Y-56846000D01*
X187258000Y-59446000D02*
X187258000Y-67126000D01*
X184598000Y-59446000D02*
X184598000Y-67126000D01*
X184598000Y-58176000D02*
X184598000Y-56846000D01*
X184598000Y-67126000D02*
X187258000Y-67126000D01*
X135322000Y-59446000D02*
X135322000Y-67126000D01*
X137982000Y-59446000D02*
X137982000Y-67126000D01*
X135322000Y-67126000D02*
X137982000Y-67126000D01*
X135322000Y-56846000D02*
X136652000Y-56846000D01*
X135322000Y-59446000D02*
X137982000Y-59446000D01*
X135322000Y-58176000D02*
X135322000Y-56846000D01*
X188260000Y-72290000D02*
X203760000Y-72290000D01*
X203760000Y-72290000D02*
X203760000Y-51710000D01*
X188260000Y-51710000D02*
X188260000Y-53110000D01*
X189660000Y-51710000D02*
X188260000Y-51710000D01*
X201090000Y-51710000D02*
X201090000Y-72290000D01*
X188260000Y-54380000D02*
X188260000Y-72290000D01*
X203760000Y-51710000D02*
X190930000Y-51710000D01*
X190930000Y-51710000D02*
X190930000Y-54380000D01*
X190930000Y-54380000D02*
X190930000Y-72290000D01*
X190930000Y-54380000D02*
X188260000Y-54380000D01*
X192801000Y-78211000D02*
X190700000Y-78211000D01*
X188620000Y-79331000D02*
X187024000Y-79331000D01*
X192003000Y-79691000D02*
X190700000Y-79691000D01*
X191884000Y-79811000D02*
X187436000Y-79811000D01*
X192707000Y-78531000D02*
X190700000Y-78531000D01*
X188620000Y-78090000D02*
X186493000Y-78090000D01*
X188620000Y-78291000D02*
X186539000Y-78291000D01*
X188620000Y-78811000D02*
X186726000Y-78811000D01*
X191550000Y-80091000D02*
X187770000Y-80091000D01*
X192887000Y-77610000D02*
X186433000Y-77610000D01*
X190922000Y-80451000D02*
X188398000Y-80451000D01*
X188620000Y-79691000D02*
X187317000Y-79691000D01*
X191925000Y-79771000D02*
X187395000Y-79771000D01*
X191814000Y-74264759D02*
X191184000Y-74264759D01*
X192855000Y-77930000D02*
X190700000Y-77930000D01*
X188620000Y-79211000D02*
X186944000Y-79211000D01*
X192324000Y-79291000D02*
X190700000Y-79291000D01*
X192494000Y-79011000D02*
X190700000Y-79011000D01*
X191010000Y-80411000D02*
X188310000Y-80411000D01*
X188620000Y-78931000D02*
X186784000Y-78931000D01*
X188620000Y-77890000D02*
X186459000Y-77890000D01*
X188620000Y-77850000D02*
X186454000Y-77850000D01*
X192612000Y-78771000D02*
X190700000Y-78771000D01*
X190293000Y-80651000D02*
X189027000Y-80651000D01*
X188620000Y-78010000D02*
X186478000Y-78010000D01*
X188620000Y-77690000D02*
X186438000Y-77690000D01*
X192144000Y-79531000D02*
X190700000Y-79531000D01*
X188620000Y-78611000D02*
X186642000Y-78611000D01*
X188620000Y-79131000D02*
X186894000Y-79131000D01*
X191797000Y-79891000D02*
X187523000Y-79891000D01*
X192770000Y-78331000D02*
X190700000Y-78331000D01*
X191169000Y-80331000D02*
X188151000Y-80331000D01*
X192376000Y-79211000D02*
X190700000Y-79211000D01*
X192646000Y-78691000D02*
X190700000Y-78691000D01*
X192176000Y-79491000D02*
X190700000Y-79491000D01*
X192076000Y-79611000D02*
X190700000Y-79611000D01*
X191655000Y-80011000D02*
X187665000Y-80011000D01*
X192878000Y-77730000D02*
X190700000Y-77730000D01*
X192472000Y-79051000D02*
X190700000Y-79051000D01*
X188620000Y-79611000D02*
X187244000Y-79611000D01*
X188620000Y-78891000D02*
X186764000Y-78891000D01*
X188620000Y-79091000D02*
X186870000Y-79091000D01*
X188620000Y-79051000D02*
X186848000Y-79051000D01*
X188620000Y-78331000D02*
X186550000Y-78331000D01*
X188620000Y-78571000D02*
X186627000Y-78571000D01*
X192875000Y-77770000D02*
X190700000Y-77770000D01*
X188620000Y-78691000D02*
X186674000Y-78691000D01*
X192849000Y-77970000D02*
X190700000Y-77970000D01*
X192721000Y-78491000D02*
X190700000Y-78491000D01*
X192861000Y-77890000D02*
X190700000Y-77890000D01*
X191704000Y-79971000D02*
X187616000Y-79971000D01*
X192402000Y-79171000D02*
X190700000Y-79171000D01*
X191374000Y-80211000D02*
X187946000Y-80211000D01*
X192827000Y-78090000D02*
X190700000Y-78090000D01*
X192866000Y-77850000D02*
X190700000Y-77850000D01*
X188620000Y-77770000D02*
X186445000Y-77770000D01*
X190462000Y-80611000D02*
X188858000Y-80611000D01*
X188620000Y-78251000D02*
X186529000Y-78251000D01*
X188620000Y-78451000D02*
X186586000Y-78451000D01*
X192426000Y-79131000D02*
X190700000Y-79131000D01*
X188620000Y-78411000D02*
X186574000Y-78411000D01*
X188620000Y-79251000D02*
X186970000Y-79251000D01*
X188620000Y-77930000D02*
X186465000Y-77930000D01*
X188620000Y-78851000D02*
X186744000Y-78851000D01*
X190600000Y-80571000D02*
X188720000Y-80571000D01*
X192835000Y-78050000D02*
X190700000Y-78050000D01*
X191842000Y-79851000D02*
X187478000Y-79851000D01*
X188620000Y-78971000D02*
X186804000Y-78971000D01*
X192810000Y-78171000D02*
X190700000Y-78171000D01*
X192842000Y-78010000D02*
X190700000Y-78010000D01*
X192662000Y-78651000D02*
X190700000Y-78651000D01*
X190062000Y-80691000D02*
X189258000Y-80691000D01*
X191241000Y-80291000D02*
X188079000Y-80291000D01*
X192208000Y-79451000D02*
X190700000Y-79451000D01*
X188620000Y-79531000D02*
X187176000Y-79531000D01*
X192536000Y-78931000D02*
X190700000Y-78931000D01*
X192693000Y-78571000D02*
X190700000Y-78571000D01*
X192888000Y-77570000D02*
X186432000Y-77570000D01*
X188620000Y-78050000D02*
X186485000Y-78050000D01*
X192758000Y-78371000D02*
X190700000Y-78371000D01*
X192678000Y-78611000D02*
X190700000Y-78611000D01*
X192450000Y-79091000D02*
X190700000Y-79091000D01*
X188620000Y-77730000D02*
X186442000Y-77730000D01*
X192556000Y-78891000D02*
X190700000Y-78891000D01*
X188620000Y-79571000D02*
X187210000Y-79571000D01*
X188620000Y-78651000D02*
X186658000Y-78651000D01*
X191499000Y-73949759D02*
X191499000Y-74579759D01*
X188620000Y-79451000D02*
X187112000Y-79451000D01*
X188620000Y-77970000D02*
X186471000Y-77970000D01*
X188620000Y-79291000D02*
X186996000Y-79291000D01*
X188620000Y-78731000D02*
X186690000Y-78731000D01*
X192781000Y-78291000D02*
X190700000Y-78291000D01*
X191494000Y-80131000D02*
X187826000Y-80131000D01*
X188620000Y-79371000D02*
X187053000Y-79371000D01*
X192890000Y-77490000D02*
X186430000Y-77490000D01*
X192734000Y-78451000D02*
X190700000Y-78451000D01*
X191310000Y-80251000D02*
X188010000Y-80251000D01*
X192350000Y-79251000D02*
X190700000Y-79251000D01*
X192882000Y-77690000D02*
X190700000Y-77690000D01*
X188620000Y-79011000D02*
X186826000Y-79011000D01*
X191436000Y-80171000D02*
X187884000Y-80171000D01*
X192890000Y-77450000D02*
X186430000Y-77450000D01*
X188620000Y-79491000D02*
X187144000Y-79491000D01*
X192594000Y-78811000D02*
X190700000Y-78811000D01*
X192516000Y-78971000D02*
X190700000Y-78971000D01*
X192267000Y-79371000D02*
X190700000Y-79371000D01*
X188620000Y-79411000D02*
X187082000Y-79411000D01*
X192040000Y-79651000D02*
X190700000Y-79651000D01*
X192884000Y-77650000D02*
X186436000Y-77650000D01*
X192296000Y-79331000D02*
X190700000Y-79331000D01*
X192630000Y-78731000D02*
X190700000Y-78731000D01*
X190719000Y-80531000D02*
X188601000Y-80531000D01*
X188620000Y-78491000D02*
X186599000Y-78491000D01*
X188620000Y-78771000D02*
X186708000Y-78771000D01*
X188620000Y-78531000D02*
X186613000Y-78531000D01*
X192110000Y-79571000D02*
X190700000Y-79571000D01*
X191604000Y-80051000D02*
X187716000Y-80051000D01*
X192576000Y-78851000D02*
X190700000Y-78851000D01*
X188620000Y-78171000D02*
X186510000Y-78171000D01*
X191752000Y-79931000D02*
X187568000Y-79931000D01*
X191092000Y-80371000D02*
X188228000Y-80371000D01*
X192238000Y-79411000D02*
X190700000Y-79411000D01*
X192746000Y-78411000D02*
X190700000Y-78411000D01*
X188620000Y-77810000D02*
X186449000Y-77810000D01*
X190825000Y-80491000D02*
X188495000Y-80491000D01*
X192819000Y-78130000D02*
X190700000Y-78130000D01*
X191965000Y-79731000D02*
X190700000Y-79731000D01*
X188620000Y-78130000D02*
X186501000Y-78130000D01*
X192791000Y-78251000D02*
X190700000Y-78251000D01*
X192871000Y-77810000D02*
X190700000Y-77810000D01*
X188620000Y-79171000D02*
X186918000Y-79171000D01*
X188620000Y-78371000D02*
X186562000Y-78371000D01*
X188620000Y-78211000D02*
X186519000Y-78211000D01*
X188620000Y-79731000D02*
X187355000Y-79731000D01*
X188620000Y-79651000D02*
X187280000Y-79651000D01*
X192890000Y-77530000D02*
X186430000Y-77530000D01*
X192930000Y-77450000D02*
G75*
G03*
X192930000Y-77450000I-3270000J0D01*
G01*
X135322000Y-85294000D02*
X136652000Y-85294000D01*
X137982000Y-87894000D02*
X137982000Y-95574000D01*
X135322000Y-87894000D02*
X137982000Y-87894000D01*
X135322000Y-86624000D02*
X135322000Y-85294000D01*
X135322000Y-87894000D02*
X135322000Y-95574000D01*
X135322000Y-95574000D02*
X137982000Y-95574000D01*
X185040000Y-100282379D02*
X187206000Y-100282379D01*
X180833000Y-100042379D02*
X182960000Y-100042379D01*
X185040000Y-98961379D02*
X186742000Y-98961379D01*
X180890000Y-99801379D02*
X182960000Y-99801379D01*
X185040000Y-98681379D02*
X186548000Y-98681379D01*
X182166000Y-98001379D02*
X185834000Y-98001379D01*
X183598000Y-97441379D02*
X184402000Y-97441379D01*
X185040000Y-100322379D02*
X187211000Y-100322379D01*
X185040000Y-99921379D02*
X187141000Y-99921379D01*
X183198000Y-97521379D02*
X184802000Y-97521379D01*
X181846000Y-103867620D02*
X182476000Y-103867620D01*
X185040000Y-98401379D02*
X186305000Y-98401379D01*
X185040000Y-98641379D02*
X186516000Y-98641379D01*
X180789000Y-100322379D02*
X182960000Y-100322379D01*
X180770000Y-100642379D02*
X187230000Y-100642379D01*
X180869000Y-99881379D02*
X182960000Y-99881379D01*
X185040000Y-98921379D02*
X186716000Y-98921379D01*
X185040000Y-99201379D02*
X186876000Y-99201379D01*
X180799000Y-100242379D02*
X182960000Y-100242379D01*
X181310000Y-98881379D02*
X182960000Y-98881379D01*
X185040000Y-100042379D02*
X187167000Y-100042379D01*
X180811000Y-100162379D02*
X182960000Y-100162379D01*
X180953000Y-99601379D02*
X182960000Y-99601379D01*
X182568000Y-97761379D02*
X185432000Y-97761379D01*
X185040000Y-99161379D02*
X186856000Y-99161379D01*
X180794000Y-100282379D02*
X182960000Y-100282379D01*
X185040000Y-99441379D02*
X186986000Y-99441379D01*
X181550000Y-98561379D02*
X182960000Y-98561379D01*
X185040000Y-99521379D02*
X187018000Y-99521379D01*
X181908000Y-98201379D02*
X186092000Y-98201379D01*
X182941000Y-97601379D02*
X185059000Y-97601379D01*
X185040000Y-99681379D02*
X187074000Y-99681379D01*
X185040000Y-100122379D02*
X187182000Y-100122379D01*
X180772000Y-100562379D02*
X187228000Y-100562379D01*
X181695000Y-98401379D02*
X182960000Y-98401379D01*
X185040000Y-99361379D02*
X186952000Y-99361379D01*
X183367000Y-97481379D02*
X184633000Y-97481379D01*
X182738000Y-97681379D02*
X185262000Y-97681379D01*
X180841000Y-100002379D02*
X182960000Y-100002379D01*
X181014000Y-99441379D02*
X182960000Y-99441379D01*
X181234000Y-99001379D02*
X182960000Y-99001379D01*
X182286000Y-97921379D02*
X185714000Y-97921379D01*
X181048000Y-99361379D02*
X182960000Y-99361379D01*
X185040000Y-100002379D02*
X187159000Y-100002379D01*
X180926000Y-99681379D02*
X182960000Y-99681379D01*
X181657000Y-98441379D02*
X182960000Y-98441379D01*
X181422000Y-98721379D02*
X182960000Y-98721379D01*
X181584000Y-98521379D02*
X182960000Y-98521379D01*
X181144000Y-99161379D02*
X182960000Y-99161379D01*
X181956000Y-98161379D02*
X186044000Y-98161379D01*
X185040000Y-98881379D02*
X186690000Y-98881379D01*
X185040000Y-99601379D02*
X187047000Y-99601379D01*
X181364000Y-98801379D02*
X182960000Y-98801379D01*
X183060000Y-97561379D02*
X184940000Y-97561379D01*
X181620000Y-98481379D02*
X182960000Y-98481379D01*
X185040000Y-99761379D02*
X187098000Y-99761379D01*
X185040000Y-98441379D02*
X186343000Y-98441379D01*
X181188000Y-99081379D02*
X182960000Y-99081379D01*
X182005000Y-98121379D02*
X185995000Y-98121379D01*
X185040000Y-100082379D02*
X187175000Y-100082379D01*
X185040000Y-99801379D02*
X187110000Y-99801379D01*
X181104000Y-99241379D02*
X182960000Y-99241379D01*
X185040000Y-98481379D02*
X186380000Y-98481379D01*
X182650000Y-97721379D02*
X185350000Y-97721379D01*
X180998000Y-99481379D02*
X182960000Y-99481379D01*
X181258000Y-98961379D02*
X182960000Y-98961379D01*
X180967000Y-99561379D02*
X182960000Y-99561379D01*
X180825000Y-100082379D02*
X182960000Y-100082379D01*
X185040000Y-99561379D02*
X187033000Y-99561379D01*
X185040000Y-98521379D02*
X186416000Y-98521379D01*
X185040000Y-99081379D02*
X186812000Y-99081379D01*
X181030000Y-99401379D02*
X182960000Y-99401379D01*
X180982000Y-99521379D02*
X182960000Y-99521379D01*
X185040000Y-99961379D02*
X187150000Y-99961379D01*
X181484000Y-98641379D02*
X182960000Y-98641379D01*
X185040000Y-99721379D02*
X187086000Y-99721379D01*
X181863000Y-98241379D02*
X186137000Y-98241379D01*
X185040000Y-99841379D02*
X187121000Y-99841379D01*
X180939000Y-99641379D02*
X182960000Y-99641379D01*
X185040000Y-98801379D02*
X186636000Y-98801379D01*
X182110000Y-98041379D02*
X185890000Y-98041379D01*
X180805000Y-100202379D02*
X182960000Y-100202379D01*
X180776000Y-100482379D02*
X187224000Y-100482379D01*
X180773000Y-100522379D02*
X187227000Y-100522379D01*
X180778000Y-100442379D02*
X182960000Y-100442379D01*
X185040000Y-99641379D02*
X187061000Y-99641379D01*
X185040000Y-100362379D02*
X187215000Y-100362379D01*
X180818000Y-100122379D02*
X182960000Y-100122379D01*
X185040000Y-99001379D02*
X186766000Y-99001379D01*
X185040000Y-99041379D02*
X186790000Y-99041379D01*
X181336000Y-98841379D02*
X182960000Y-98841379D01*
X181124000Y-99201379D02*
X182960000Y-99201379D01*
X181066000Y-99321379D02*
X182960000Y-99321379D01*
X182161000Y-104182620D02*
X182161000Y-103552620D01*
X180770000Y-100682379D02*
X187230000Y-100682379D01*
X181084000Y-99281379D02*
X182960000Y-99281379D01*
X180902000Y-99761379D02*
X182960000Y-99761379D01*
X181452000Y-98681379D02*
X182960000Y-98681379D01*
X185040000Y-99241379D02*
X186896000Y-99241379D01*
X185040000Y-100242379D02*
X187201000Y-100242379D01*
X180770000Y-100602379D02*
X187230000Y-100602379D01*
X185040000Y-99281379D02*
X186916000Y-99281379D01*
X181818000Y-98281379D02*
X186182000Y-98281379D01*
X181210000Y-99041379D02*
X182960000Y-99041379D01*
X181516000Y-98601379D02*
X182960000Y-98601379D01*
X182056000Y-98081379D02*
X185944000Y-98081379D01*
X181166000Y-99121379D02*
X182960000Y-99121379D01*
X185040000Y-98561379D02*
X186450000Y-98561379D01*
X185040000Y-100442379D02*
X187222000Y-100442379D01*
X180859000Y-99921379D02*
X182960000Y-99921379D01*
X185040000Y-98601379D02*
X186484000Y-98601379D01*
X185040000Y-100402379D02*
X187218000Y-100402379D01*
X180914000Y-99721379D02*
X182960000Y-99721379D01*
X182419000Y-97841379D02*
X185581000Y-97841379D01*
X185040000Y-99321379D02*
X186934000Y-99321379D01*
X185040000Y-99881379D02*
X187131000Y-99881379D01*
X180850000Y-99961379D02*
X182960000Y-99961379D01*
X185040000Y-98721379D02*
X186578000Y-98721379D01*
X185040000Y-100202379D02*
X187195000Y-100202379D01*
X181393000Y-98761379D02*
X182960000Y-98761379D01*
X180782000Y-100402379D02*
X182960000Y-100402379D01*
X181735000Y-98361379D02*
X186265000Y-98361379D01*
X182491000Y-97801379D02*
X185509000Y-97801379D01*
X181776000Y-98321379D02*
X186224000Y-98321379D01*
X180879000Y-99841379D02*
X182960000Y-99841379D01*
X182224000Y-97961379D02*
X185776000Y-97961379D01*
X185040000Y-98841379D02*
X186664000Y-98841379D01*
X185040000Y-99121379D02*
X186834000Y-99121379D01*
X182835000Y-97641379D02*
X185165000Y-97641379D01*
X185040000Y-100162379D02*
X187189000Y-100162379D01*
X180785000Y-100362379D02*
X182960000Y-100362379D01*
X185040000Y-99401379D02*
X186970000Y-99401379D01*
X181284000Y-98921379D02*
X182960000Y-98921379D01*
X185040000Y-98761379D02*
X186607000Y-98761379D01*
X185040000Y-99481379D02*
X187002000Y-99481379D01*
X182350000Y-97881379D02*
X185650000Y-97881379D01*
X187270000Y-100682379D02*
G75*
G03*
X187270000Y-100682379I-3270000J0D01*
G01*
X159960000Y-58176000D02*
X159960000Y-56846000D01*
X159960000Y-59446000D02*
X162620000Y-59446000D01*
X159960000Y-67126000D02*
X162620000Y-67126000D01*
X159960000Y-56846000D02*
X161290000Y-56846000D01*
X159960000Y-59446000D02*
X159960000Y-67126000D01*
X162620000Y-59446000D02*
X162620000Y-67126000D01*
X163953332Y-78938621D02*
X162077332Y-78938621D01*
X168124332Y-78338621D02*
X166033332Y-78338621D01*
X168168332Y-78137621D02*
X166033332Y-78137621D01*
X167600332Y-79458621D02*
X166033332Y-79458621D01*
X167805332Y-79138621D02*
X166033332Y-79138621D01*
X163953332Y-79018621D02*
X162117332Y-79018621D01*
X167130332Y-79978621D02*
X162856332Y-79978621D01*
X167258332Y-79858621D02*
X162728332Y-79858621D01*
X168182332Y-78057621D02*
X166033332Y-78057621D01*
X167783332Y-79178621D02*
X166033332Y-79178621D01*
X163953332Y-79058621D02*
X162137332Y-79058621D01*
X168152332Y-78217621D02*
X166033332Y-78217621D01*
X166883332Y-80178621D02*
X163103332Y-80178621D01*
X166052332Y-80618621D02*
X163934332Y-80618621D01*
X165795332Y-80698621D02*
X164191332Y-80698621D01*
X163953332Y-78338621D02*
X161862332Y-78338621D01*
X163953332Y-78057621D02*
X161804332Y-78057621D01*
X168134332Y-78298621D02*
X166033332Y-78298621D01*
X163953332Y-78137621D02*
X161818332Y-78137621D01*
X167759332Y-79218621D02*
X166033332Y-79218621D01*
X163953332Y-78418621D02*
X161883332Y-78418621D01*
X167629332Y-79418621D02*
X166033332Y-79418621D01*
X167909332Y-78938621D02*
X166033332Y-78938621D01*
X163953332Y-78498621D02*
X161907332Y-78498621D01*
X167409332Y-79698621D02*
X166033332Y-79698621D01*
X168103332Y-78418621D02*
X166033332Y-78418621D01*
X163953332Y-77777621D02*
X161771332Y-77777621D01*
X167175332Y-79938621D02*
X162811332Y-79938621D01*
X167869332Y-79018621D02*
X166033332Y-79018621D01*
X163953332Y-78177621D02*
X161826332Y-78177621D01*
X163953332Y-77977621D02*
X161792332Y-77977621D01*
X163953332Y-78097621D02*
X161811332Y-78097621D01*
X163953332Y-78298621D02*
X161852332Y-78298621D01*
X165626332Y-80738621D02*
X164360332Y-80738621D01*
X163953332Y-79338621D02*
X162303332Y-79338621D01*
X166425332Y-80458621D02*
X163561332Y-80458621D01*
X163953332Y-77817621D02*
X161775332Y-77817621D01*
X163953332Y-77897621D02*
X161782332Y-77897621D01*
X163953332Y-79098621D02*
X162159332Y-79098621D01*
X163953332Y-78778621D02*
X162007332Y-78778621D01*
X167827332Y-79098621D02*
X166033332Y-79098621D01*
X163953332Y-79378621D02*
X162329332Y-79378621D01*
X163953332Y-79298621D02*
X162277332Y-79298621D01*
X163953332Y-78658621D02*
X161960332Y-78658621D01*
X167541332Y-79538621D02*
X166033332Y-79538621D01*
X163953332Y-79658621D02*
X162543332Y-79658621D01*
X163953332Y-78378621D02*
X161872332Y-78378621D01*
X167709332Y-79298621D02*
X166033332Y-79298621D01*
X167945332Y-78858621D02*
X166033332Y-78858621D01*
X163953332Y-79498621D02*
X162415332Y-79498621D01*
X163953332Y-79778621D02*
X162650332Y-79778621D01*
X166343332Y-80498621D02*
X163643332Y-80498621D01*
X168011332Y-78698621D02*
X166033332Y-78698621D01*
X166769332Y-80258621D02*
X163217332Y-80258621D01*
X166988332Y-80098621D02*
X162998332Y-80098621D01*
X163953332Y-78618621D02*
X161946332Y-78618621D01*
X166574332Y-80378621D02*
X163412332Y-80378621D01*
X167509332Y-79578621D02*
X166033332Y-79578621D01*
X168211332Y-77817621D02*
X166033332Y-77817621D01*
X168220332Y-77697621D02*
X161766332Y-77697621D01*
X167889332Y-78978621D02*
X166033332Y-78978621D01*
X166255332Y-80538621D02*
X163731332Y-80538621D01*
X163953332Y-78898621D02*
X162059332Y-78898621D01*
X168208332Y-77857621D02*
X166033332Y-77857621D01*
X168221332Y-77657621D02*
X161765332Y-77657621D01*
X167477332Y-79618621D02*
X166033332Y-79618621D01*
X168223332Y-77617621D02*
X161763332Y-77617621D01*
X163953332Y-79218621D02*
X162227332Y-79218621D01*
X166832332Y-74037380D02*
X166832332Y-74667380D01*
X167927332Y-78898621D02*
X166033332Y-78898621D01*
X166158332Y-80578621D02*
X163828332Y-80578621D01*
X167336332Y-79778621D02*
X166033332Y-79778621D01*
X163953332Y-79818621D02*
X162688332Y-79818621D01*
X168175332Y-78097621D02*
X166033332Y-78097621D01*
X168079332Y-78498621D02*
X166033332Y-78498621D01*
X163953332Y-78217621D02*
X161834332Y-78217621D01*
X163953332Y-78858621D02*
X162041332Y-78858621D01*
X163953332Y-79578621D02*
X162477332Y-79578621D01*
X163953332Y-78458621D02*
X161895332Y-78458621D01*
X163953332Y-78818621D02*
X162023332Y-78818621D01*
X168143332Y-78258621D02*
X166033332Y-78258621D01*
X163953332Y-78538621D02*
X161919332Y-78538621D01*
X163953332Y-79138621D02*
X162181332Y-79138621D01*
X166827332Y-80218621D02*
X163159332Y-80218621D01*
X166643332Y-80338621D02*
X163343332Y-80338621D01*
X163953332Y-79538621D02*
X162445332Y-79538621D01*
X167657332Y-79378621D02*
X166033332Y-79378621D01*
X167683332Y-79338621D02*
X166033332Y-79338621D01*
X168204332Y-77897621D02*
X166033332Y-77897621D01*
X168223332Y-77537621D02*
X161763332Y-77537621D01*
X166707332Y-80298621D02*
X163279332Y-80298621D01*
X163953332Y-78258621D02*
X161843332Y-78258621D01*
X168114332Y-78378621D02*
X166033332Y-78378621D01*
X168217332Y-77737621D02*
X161769332Y-77737621D01*
X167571332Y-79498621D02*
X166033332Y-79498621D01*
X168215332Y-77777621D02*
X166033332Y-77777621D01*
X168054332Y-78578621D02*
X166033332Y-78578621D01*
X167147332Y-74352380D02*
X166517332Y-74352380D01*
X163953332Y-79698621D02*
X162577332Y-79698621D01*
X167735332Y-79258621D02*
X166033332Y-79258621D01*
X167849332Y-79058621D02*
X166033332Y-79058621D01*
X167995332Y-78738621D02*
X166033332Y-78738621D01*
X163953332Y-79258621D02*
X162251332Y-79258621D01*
X167085332Y-80018621D02*
X162901332Y-80018621D01*
X165933332Y-80658621D02*
X164053332Y-80658621D01*
X163953332Y-78738621D02*
X161991332Y-78738621D01*
X167037332Y-80058621D02*
X162949332Y-80058621D01*
X168223332Y-77577621D02*
X161763332Y-77577621D01*
X163953332Y-78978621D02*
X162097332Y-78978621D01*
X167217332Y-79898621D02*
X162769332Y-79898621D01*
X168026332Y-78658621D02*
X166033332Y-78658621D01*
X167443332Y-79658621D02*
X166033332Y-79658621D01*
X167963332Y-78818621D02*
X166033332Y-78818621D01*
X163953332Y-77857621D02*
X161778332Y-77857621D01*
X168067332Y-78538621D02*
X166033332Y-78538621D01*
X166502332Y-80418621D02*
X163484332Y-80418621D01*
X165395332Y-80778621D02*
X164591332Y-80778621D01*
X167979332Y-78778621D02*
X166033332Y-78778621D01*
X163953332Y-79618621D02*
X162509332Y-79618621D01*
X168194332Y-77977621D02*
X166033332Y-77977621D01*
X163953332Y-77937621D02*
X161787332Y-77937621D01*
X167298332Y-79818621D02*
X166033332Y-79818621D01*
X163953332Y-79738621D02*
X162613332Y-79738621D01*
X168188332Y-78017621D02*
X166033332Y-78017621D01*
X168199332Y-77937621D02*
X166033332Y-77937621D01*
X163953332Y-79458621D02*
X162386332Y-79458621D01*
X163953332Y-79418621D02*
X162357332Y-79418621D01*
X166937332Y-80138621D02*
X163049332Y-80138621D01*
X163953332Y-78017621D02*
X161798332Y-78017621D01*
X163953332Y-79178621D02*
X162203332Y-79178621D01*
X168160332Y-78177621D02*
X166033332Y-78177621D01*
X168040332Y-78618621D02*
X166033332Y-78618621D01*
X163953332Y-78578621D02*
X161932332Y-78578621D01*
X167373332Y-79738621D02*
X166033332Y-79738621D01*
X168091332Y-78458621D02*
X166033332Y-78458621D01*
X163953332Y-78698621D02*
X161975332Y-78698621D01*
X168263332Y-77537621D02*
G75*
G03*
X168263332Y-77537621I-3270000J0D01*
G01*
X129760000Y-82710000D02*
X116930000Y-82710000D01*
X115660000Y-82710000D02*
X114260000Y-82710000D01*
X116930000Y-82710000D02*
X116930000Y-85380000D01*
X114260000Y-85380000D02*
X114260000Y-103290000D01*
X114260000Y-103290000D02*
X129760000Y-103290000D01*
X116930000Y-85380000D02*
X116930000Y-103290000D01*
X116930000Y-85380000D02*
X114260000Y-85380000D01*
X127090000Y-82710000D02*
X127090000Y-103290000D01*
X129760000Y-103290000D02*
X129760000Y-82710000D01*
X114260000Y-82710000D02*
X114260000Y-84110000D01*
%LPC*%
X189270000Y-116785000D02*
X128270000Y-116785000D01*
X128270000Y-116785000D02*
X128270000Y-121285000D01*
X128270000Y-121285000D02*
X189270000Y-121285000D01*
X189270000Y-121285000D02*
X189270000Y-116785000D01*
G36*
X189270000Y-116785000D02*
G01*
X128270000Y-116785000D01*
X128270000Y-121285000D01*
X189270000Y-121285000D01*
X189270000Y-116785000D01*
G37*
D13*
X134250000Y-101932380D03*
D14*
X134250000Y-99432380D03*
D13*
X189660000Y-84110000D03*
D15*
X189660000Y-86650000D03*
X189660000Y-89190000D03*
X189660000Y-91730000D03*
X189660000Y-94270000D03*
X189660000Y-96810000D03*
X189660000Y-99350000D03*
X189660000Y-101890000D03*
X202360000Y-101890000D03*
X202360000Y-99350000D03*
X202360000Y-96810000D03*
X202360000Y-94270000D03*
X202360000Y-91730000D03*
X202360000Y-89190000D03*
X202360000Y-86650000D03*
X202360000Y-84110000D03*
D13*
X164993332Y-84110000D03*
D15*
X164993332Y-86650000D03*
X164993332Y-89190000D03*
X164993332Y-91730000D03*
X164993332Y-94270000D03*
X164993332Y-96810000D03*
X164993332Y-99350000D03*
X164993332Y-101890000D03*
X177693332Y-101890000D03*
X177693332Y-99350000D03*
X177693332Y-96810000D03*
X177693332Y-94270000D03*
X177693332Y-91730000D03*
X177693332Y-89190000D03*
X177693332Y-86650000D03*
X177693332Y-84110000D03*
D13*
X164993332Y-53110000D03*
D15*
X164993332Y-55650000D03*
X164993332Y-58190000D03*
X164993332Y-60730000D03*
X164993332Y-63270000D03*
X164993332Y-65810000D03*
X164993332Y-68350000D03*
X164993332Y-70890000D03*
X177693332Y-70890000D03*
X177693332Y-68350000D03*
X177693332Y-65810000D03*
X177693332Y-63270000D03*
X177693332Y-60730000D03*
X177693332Y-58190000D03*
X177693332Y-55650000D03*
X177693332Y-53110000D03*
D16*
X112014000Y-86624000D03*
D17*
X112014000Y-89164000D03*
X112014000Y-91704000D03*
X112014000Y-94244000D03*
D13*
X140326666Y-53110000D03*
D15*
X140326666Y-55650000D03*
X140326666Y-58190000D03*
X140326666Y-60730000D03*
X140326666Y-63270000D03*
X140326666Y-65810000D03*
X140326666Y-68350000D03*
X140326666Y-70890000D03*
X153026666Y-70890000D03*
X153026666Y-68350000D03*
X153026666Y-65810000D03*
X153026666Y-63270000D03*
X153026666Y-60730000D03*
X153026666Y-58190000D03*
X153026666Y-55650000D03*
X153026666Y-53110000D03*
D13*
X159000000Y-101932380D03*
D14*
X159000000Y-99432380D03*
D13*
X140326666Y-76240000D03*
D14*
X140326666Y-78740000D03*
D13*
X115660000Y-53110000D03*
D15*
X115660000Y-55650000D03*
X115660000Y-58190000D03*
X115660000Y-60730000D03*
X115660000Y-63270000D03*
X115660000Y-65810000D03*
X115660000Y-68350000D03*
X115660000Y-70890000D03*
X128360000Y-70890000D03*
X128360000Y-68350000D03*
X128360000Y-65810000D03*
X128360000Y-63270000D03*
X128360000Y-60730000D03*
X128360000Y-58190000D03*
X128360000Y-55650000D03*
X128360000Y-53110000D03*
D13*
X115570000Y-106680000D03*
D14*
X115570000Y-109180000D03*
D16*
X185928000Y-86624000D03*
D17*
X185928000Y-89164000D03*
X185928000Y-91704000D03*
X185928000Y-94244000D03*
D16*
X161290000Y-86624000D03*
D17*
X161290000Y-89164000D03*
X161290000Y-91704000D03*
X161290000Y-94244000D03*
D16*
X112014000Y-58176000D03*
D17*
X112014000Y-60716000D03*
X112014000Y-63256000D03*
X112014000Y-65796000D03*
D13*
X115570000Y-76200000D03*
D14*
X115570000Y-78700000D03*
D13*
X140326666Y-84110000D03*
D15*
X140326666Y-86650000D03*
X140326666Y-89190000D03*
X140326666Y-91730000D03*
X140326666Y-94270000D03*
X140326666Y-96810000D03*
X140326666Y-99350000D03*
X140326666Y-101890000D03*
X153026666Y-101890000D03*
X153026666Y-99350000D03*
X153026666Y-96810000D03*
X153026666Y-94270000D03*
X153026666Y-91730000D03*
X153026666Y-89190000D03*
X153026666Y-86650000D03*
X153026666Y-84110000D03*
D16*
X185928000Y-58176000D03*
D17*
X185928000Y-60716000D03*
X185928000Y-63256000D03*
X185928000Y-65796000D03*
D16*
X136652000Y-58176000D03*
D17*
X136652000Y-60716000D03*
X136652000Y-63256000D03*
X136652000Y-65796000D03*
D13*
X189660000Y-53110000D03*
D15*
X189660000Y-55650000D03*
X189660000Y-58190000D03*
X189660000Y-60730000D03*
X189660000Y-63270000D03*
X189660000Y-65810000D03*
X189660000Y-68350000D03*
X189660000Y-70890000D03*
X202360000Y-70890000D03*
X202360000Y-68350000D03*
X202360000Y-65810000D03*
X202360000Y-63270000D03*
X202360000Y-60730000D03*
X202360000Y-58190000D03*
X202360000Y-55650000D03*
X202360000Y-53110000D03*
D13*
X189660000Y-76200000D03*
D14*
X189660000Y-78700000D03*
D16*
X136652000Y-86624000D03*
D17*
X136652000Y-89164000D03*
X136652000Y-91704000D03*
X136652000Y-94244000D03*
D13*
X184000000Y-101932379D03*
D14*
X184000000Y-99432379D03*
D16*
X161290000Y-58176000D03*
D17*
X161290000Y-60716000D03*
X161290000Y-63256000D03*
X161290000Y-65796000D03*
D13*
X164993332Y-76287621D03*
D14*
X164993332Y-78787621D03*
D13*
X115660000Y-84110000D03*
D15*
X115660000Y-86650000D03*
X115660000Y-89190000D03*
X115660000Y-91730000D03*
X115660000Y-94270000D03*
X115660000Y-96810000D03*
X115660000Y-99350000D03*
X115660000Y-101890000D03*
X128360000Y-101890000D03*
X128360000Y-99350000D03*
X128360000Y-96810000D03*
X128360000Y-94270000D03*
X128360000Y-91730000D03*
X128360000Y-89190000D03*
X128360000Y-86650000D03*
X128360000Y-84110000D03*
M02*
