%TF.GenerationSoftware,KiCad,Pcbnew,(6.0.5)*%
%TF.CreationDate,2022-06-15T12:19:52-04:00*%
%TF.ProjectId,8-STEPPER-DRIVER-CARD,382d5354-4550-4504-9552-2d4452495645,rev?*%
%TF.SameCoordinates,Original*%
%TF.FileFunction,Legend,Bot*%
%TF.FilePolarity,Positive*%
%FSLAX46Y46*%
G04 Gerber Fmt 4.6, Leading zero omitted, Abs format (unit mm)*
G04 Created by KiCad (PCBNEW (6.0.5)) date 2022-06-15 12:19:52*
%MOMM*%
%LPD*%
G01*
G04 APERTURE LIST*
%ADD10C,0.300000*%
%ADD11C,0.120000*%
%ADD12R,1.600000X1.600000*%
%ADD13C,1.600000*%
%ADD14O,1.600000X1.600000*%
%ADD15R,1.700000X1.700000*%
%ADD16O,1.700000X1.700000*%
G04 APERTURE END LIST*
D10*
X177250000Y-107833928D02*
X177392857Y-107762500D01*
X177464285Y-107691071D01*
X177535714Y-107548214D01*
X177535714Y-107476785D01*
X177464285Y-107333928D01*
X177392857Y-107262500D01*
X177250000Y-107191071D01*
X176964285Y-107191071D01*
X176821428Y-107262500D01*
X176750000Y-107333928D01*
X176678571Y-107476785D01*
X176678571Y-107548214D01*
X176750000Y-107691071D01*
X176821428Y-107762500D01*
X176964285Y-107833928D01*
X177250000Y-107833928D01*
X177392857Y-107905357D01*
X177464285Y-107976785D01*
X177535714Y-108119642D01*
X177535714Y-108405357D01*
X177464285Y-108548214D01*
X177392857Y-108619642D01*
X177250000Y-108691071D01*
X176964285Y-108691071D01*
X176821428Y-108619642D01*
X176750000Y-108548214D01*
X176678571Y-108405357D01*
X176678571Y-108119642D01*
X176750000Y-107976785D01*
X176821428Y-107905357D01*
X176964285Y-107833928D01*
X176035714Y-108119642D02*
X174892857Y-108119642D01*
X174250000Y-108619642D02*
X174035714Y-108691071D01*
X173678571Y-108691071D01*
X173535714Y-108619642D01*
X173464285Y-108548214D01*
X173392857Y-108405357D01*
X173392857Y-108262500D01*
X173464285Y-108119642D01*
X173535714Y-108048214D01*
X173678571Y-107976785D01*
X173964285Y-107905357D01*
X174107142Y-107833928D01*
X174178571Y-107762500D01*
X174250000Y-107619642D01*
X174250000Y-107476785D01*
X174178571Y-107333928D01*
X174107142Y-107262500D01*
X173964285Y-107191071D01*
X173607142Y-107191071D01*
X173392857Y-107262500D01*
X172964285Y-107191071D02*
X172107142Y-107191071D01*
X172535714Y-108691071D02*
X172535714Y-107191071D01*
X171607142Y-107905357D02*
X171107142Y-107905357D01*
X170892857Y-108691071D02*
X171607142Y-108691071D01*
X171607142Y-107191071D01*
X170892857Y-107191071D01*
X170250000Y-108691071D02*
X170250000Y-107191071D01*
X169678571Y-107191071D01*
X169535714Y-107262500D01*
X169464285Y-107333928D01*
X169392857Y-107476785D01*
X169392857Y-107691071D01*
X169464285Y-107833928D01*
X169535714Y-107905357D01*
X169678571Y-107976785D01*
X170250000Y-107976785D01*
X168750000Y-108691071D02*
X168750000Y-107191071D01*
X168178571Y-107191071D01*
X168035714Y-107262500D01*
X167964285Y-107333928D01*
X167892857Y-107476785D01*
X167892857Y-107691071D01*
X167964285Y-107833928D01*
X168035714Y-107905357D01*
X168178571Y-107976785D01*
X168750000Y-107976785D01*
X167250000Y-107905357D02*
X166750000Y-107905357D01*
X166535714Y-108691071D02*
X167250000Y-108691071D01*
X167250000Y-107191071D01*
X166535714Y-107191071D01*
X165035714Y-108691071D02*
X165535714Y-107976785D01*
X165892857Y-108691071D02*
X165892857Y-107191071D01*
X165321428Y-107191071D01*
X165178571Y-107262500D01*
X165107142Y-107333928D01*
X165035714Y-107476785D01*
X165035714Y-107691071D01*
X165107142Y-107833928D01*
X165178571Y-107905357D01*
X165321428Y-107976785D01*
X165892857Y-107976785D01*
X164392857Y-108119642D02*
X163250000Y-108119642D01*
X162535714Y-108691071D02*
X162535714Y-107191071D01*
X162178571Y-107191071D01*
X161964285Y-107262500D01*
X161821428Y-107405357D01*
X161750000Y-107548214D01*
X161678571Y-107833928D01*
X161678571Y-108048214D01*
X161750000Y-108333928D01*
X161821428Y-108476785D01*
X161964285Y-108619642D01*
X162178571Y-108691071D01*
X162535714Y-108691071D01*
X160178571Y-108691071D02*
X160678571Y-107976785D01*
X161035714Y-108691071D02*
X161035714Y-107191071D01*
X160464285Y-107191071D01*
X160321428Y-107262500D01*
X160250000Y-107333928D01*
X160178571Y-107476785D01*
X160178571Y-107691071D01*
X160250000Y-107833928D01*
X160321428Y-107905357D01*
X160464285Y-107976785D01*
X161035714Y-107976785D01*
X159535714Y-108691071D02*
X159535714Y-107191071D01*
X159035714Y-107191071D02*
X158535714Y-108691071D01*
X158035714Y-107191071D01*
X157535714Y-107905357D02*
X157035714Y-107905357D01*
X156821428Y-108691071D02*
X157535714Y-108691071D01*
X157535714Y-107191071D01*
X156821428Y-107191071D01*
X155321428Y-108691071D02*
X155821428Y-107976785D01*
X156178571Y-108691071D02*
X156178571Y-107191071D01*
X155607142Y-107191071D01*
X155464285Y-107262500D01*
X155392857Y-107333928D01*
X155321428Y-107476785D01*
X155321428Y-107691071D01*
X155392857Y-107833928D01*
X155464285Y-107905357D01*
X155607142Y-107976785D01*
X156178571Y-107976785D01*
X154678571Y-108119642D02*
X153535714Y-108119642D01*
X151964285Y-108548214D02*
X152035714Y-108619642D01*
X152250000Y-108691071D01*
X152392857Y-108691071D01*
X152607142Y-108619642D01*
X152750000Y-108476785D01*
X152821428Y-108333928D01*
X152892857Y-108048214D01*
X152892857Y-107833928D01*
X152821428Y-107548214D01*
X152750000Y-107405357D01*
X152607142Y-107262500D01*
X152392857Y-107191071D01*
X152250000Y-107191071D01*
X152035714Y-107262500D01*
X151964285Y-107333928D01*
X151392857Y-108262500D02*
X150678571Y-108262500D01*
X151535714Y-108691071D02*
X151035714Y-107191071D01*
X150535714Y-108691071D01*
X149178571Y-108691071D02*
X149678571Y-107976785D01*
X150035714Y-108691071D02*
X150035714Y-107191071D01*
X149464285Y-107191071D01*
X149321428Y-107262500D01*
X149250000Y-107333928D01*
X149178571Y-107476785D01*
X149178571Y-107691071D01*
X149250000Y-107833928D01*
X149321428Y-107905357D01*
X149464285Y-107976785D01*
X150035714Y-107976785D01*
X148535714Y-108691071D02*
X148535714Y-107191071D01*
X148178571Y-107191071D01*
X147964285Y-107262500D01*
X147821428Y-107405357D01*
X147750000Y-107548214D01*
X147678571Y-107833928D01*
X147678571Y-108048214D01*
X147750000Y-108333928D01*
X147821428Y-108476785D01*
X147964285Y-108619642D01*
X148178571Y-108691071D01*
X148535714Y-108691071D01*
X145035714Y-108691071D02*
X145535714Y-107976785D01*
X145892857Y-108691071D02*
X145892857Y-107191071D01*
X145321428Y-107191071D01*
X145178571Y-107262500D01*
X145107142Y-107333928D01*
X145035714Y-107476785D01*
X145035714Y-107691071D01*
X145107142Y-107833928D01*
X145178571Y-107905357D01*
X145321428Y-107976785D01*
X145892857Y-107976785D01*
X144392857Y-107905357D02*
X143892857Y-107905357D01*
X143678571Y-108691071D02*
X144392857Y-108691071D01*
X144392857Y-107191071D01*
X143678571Y-107191071D01*
X143250000Y-107191071D02*
X142750000Y-108691071D01*
X142250000Y-107191071D01*
X140678571Y-108262500D02*
X139964285Y-108262500D01*
X140821428Y-108691071D02*
X140321428Y-107191071D01*
X139821428Y-108691071D01*
X168571428Y-110320357D02*
X168071428Y-110320357D01*
X167857142Y-111106071D02*
X168571428Y-111106071D01*
X168571428Y-109606071D01*
X167857142Y-109606071D01*
X166500000Y-111106071D02*
X167214285Y-111106071D01*
X167214285Y-109606071D01*
X165285714Y-111106071D02*
X166000000Y-111106071D01*
X166000000Y-109606071D01*
X164785714Y-111106071D02*
X164785714Y-109606071D01*
X163785714Y-109606071D02*
X163500000Y-109606071D01*
X163357142Y-109677500D01*
X163214285Y-109820357D01*
X163142857Y-110106071D01*
X163142857Y-110606071D01*
X163214285Y-110891785D01*
X163357142Y-111034642D01*
X163500000Y-111106071D01*
X163785714Y-111106071D01*
X163928571Y-111034642D01*
X164071428Y-110891785D01*
X164142857Y-110606071D01*
X164142857Y-110106071D01*
X164071428Y-109820357D01*
X163928571Y-109677500D01*
X163785714Y-109606071D01*
X162714285Y-109606071D02*
X161857142Y-109606071D01*
X162285714Y-111106071D02*
X162285714Y-109606071D01*
X160214285Y-110320357D02*
X159714285Y-110320357D01*
X159500000Y-111106071D02*
X160214285Y-111106071D01*
X160214285Y-109606071D01*
X159500000Y-109606071D01*
X158857142Y-111106071D02*
X158857142Y-109606071D01*
X157285714Y-110963214D02*
X157357142Y-111034642D01*
X157571428Y-111106071D01*
X157714285Y-111106071D01*
X157928571Y-111034642D01*
X158071428Y-110891785D01*
X158142857Y-110748928D01*
X158214285Y-110463214D01*
X158214285Y-110248928D01*
X158142857Y-109963214D01*
X158071428Y-109820357D01*
X157928571Y-109677500D01*
X157714285Y-109606071D01*
X157571428Y-109606071D01*
X157357142Y-109677500D01*
X157285714Y-109748928D01*
X156642857Y-111106071D02*
X156642857Y-109606071D01*
X155785714Y-111106071D02*
X156428571Y-110248928D01*
X155785714Y-109606071D02*
X156642857Y-110463214D01*
X155142857Y-111106071D02*
X155142857Y-109606071D01*
X155142857Y-110320357D02*
X154285714Y-110320357D01*
X154285714Y-111106071D02*
X154285714Y-109606071D01*
X153285714Y-109606071D02*
X153000000Y-109606071D01*
X152857142Y-109677500D01*
X152714285Y-109820357D01*
X152642857Y-110106071D01*
X152642857Y-110606071D01*
X152714285Y-110891785D01*
X152857142Y-111034642D01*
X153000000Y-111106071D01*
X153285714Y-111106071D01*
X153428571Y-111034642D01*
X153571428Y-110891785D01*
X153642857Y-110606071D01*
X153642857Y-110106071D01*
X153571428Y-109820357D01*
X153428571Y-109677500D01*
X153285714Y-109606071D01*
X151285714Y-111106071D02*
X152000000Y-111106071D01*
X152000000Y-109606071D01*
X151000000Y-109606071D02*
X150142857Y-109606071D01*
X150571428Y-111106071D02*
X150571428Y-109606071D01*
X149785714Y-109606071D02*
X148785714Y-109606071D01*
X149785714Y-111106071D01*
X148785714Y-111106071D01*
%LPC*%
D11*
X189270000Y-116785000D02*
X128270000Y-116785000D01*
X128270000Y-116785000D02*
X128270000Y-121285000D01*
X128270000Y-121285000D02*
X189270000Y-121285000D01*
X189270000Y-121285000D02*
X189270000Y-116785000D01*
G36*
X189270000Y-116785000D02*
G01*
X128270000Y-116785000D01*
X128270000Y-121285000D01*
X189270000Y-121285000D01*
X189270000Y-116785000D01*
G37*
D12*
X134250000Y-101932380D03*
D13*
X134250000Y-99432380D03*
D12*
X189660000Y-84110000D03*
D14*
X189660000Y-86650000D03*
X189660000Y-89190000D03*
X189660000Y-91730000D03*
X189660000Y-94270000D03*
X189660000Y-96810000D03*
X189660000Y-99350000D03*
X189660000Y-101890000D03*
X202360000Y-101890000D03*
X202360000Y-99350000D03*
X202360000Y-96810000D03*
X202360000Y-94270000D03*
X202360000Y-91730000D03*
X202360000Y-89190000D03*
X202360000Y-86650000D03*
X202360000Y-84110000D03*
D12*
X164993332Y-84110000D03*
D14*
X164993332Y-86650000D03*
X164993332Y-89190000D03*
X164993332Y-91730000D03*
X164993332Y-94270000D03*
X164993332Y-96810000D03*
X164993332Y-99350000D03*
X164993332Y-101890000D03*
X177693332Y-101890000D03*
X177693332Y-99350000D03*
X177693332Y-96810000D03*
X177693332Y-94270000D03*
X177693332Y-91730000D03*
X177693332Y-89190000D03*
X177693332Y-86650000D03*
X177693332Y-84110000D03*
D12*
X164993332Y-53110000D03*
D14*
X164993332Y-55650000D03*
X164993332Y-58190000D03*
X164993332Y-60730000D03*
X164993332Y-63270000D03*
X164993332Y-65810000D03*
X164993332Y-68350000D03*
X164993332Y-70890000D03*
X177693332Y-70890000D03*
X177693332Y-68350000D03*
X177693332Y-65810000D03*
X177693332Y-63270000D03*
X177693332Y-60730000D03*
X177693332Y-58190000D03*
X177693332Y-55650000D03*
X177693332Y-53110000D03*
D15*
X112014000Y-86624000D03*
D16*
X112014000Y-89164000D03*
X112014000Y-91704000D03*
X112014000Y-94244000D03*
D12*
X140326666Y-53110000D03*
D14*
X140326666Y-55650000D03*
X140326666Y-58190000D03*
X140326666Y-60730000D03*
X140326666Y-63270000D03*
X140326666Y-65810000D03*
X140326666Y-68350000D03*
X140326666Y-70890000D03*
X153026666Y-70890000D03*
X153026666Y-68350000D03*
X153026666Y-65810000D03*
X153026666Y-63270000D03*
X153026666Y-60730000D03*
X153026666Y-58190000D03*
X153026666Y-55650000D03*
X153026666Y-53110000D03*
D12*
X159000000Y-101932380D03*
D13*
X159000000Y-99432380D03*
D12*
X140326666Y-76240000D03*
D13*
X140326666Y-78740000D03*
D12*
X115660000Y-53110000D03*
D14*
X115660000Y-55650000D03*
X115660000Y-58190000D03*
X115660000Y-60730000D03*
X115660000Y-63270000D03*
X115660000Y-65810000D03*
X115660000Y-68350000D03*
X115660000Y-70890000D03*
X128360000Y-70890000D03*
X128360000Y-68350000D03*
X128360000Y-65810000D03*
X128360000Y-63270000D03*
X128360000Y-60730000D03*
X128360000Y-58190000D03*
X128360000Y-55650000D03*
X128360000Y-53110000D03*
D12*
X115570000Y-106680000D03*
D13*
X115570000Y-109180000D03*
D15*
X185928000Y-86624000D03*
D16*
X185928000Y-89164000D03*
X185928000Y-91704000D03*
X185928000Y-94244000D03*
D15*
X161290000Y-86624000D03*
D16*
X161290000Y-89164000D03*
X161290000Y-91704000D03*
X161290000Y-94244000D03*
D15*
X112014000Y-58176000D03*
D16*
X112014000Y-60716000D03*
X112014000Y-63256000D03*
X112014000Y-65796000D03*
D12*
X115570000Y-76200000D03*
D13*
X115570000Y-78700000D03*
D12*
X140326666Y-84110000D03*
D14*
X140326666Y-86650000D03*
X140326666Y-89190000D03*
X140326666Y-91730000D03*
X140326666Y-94270000D03*
X140326666Y-96810000D03*
X140326666Y-99350000D03*
X140326666Y-101890000D03*
X153026666Y-101890000D03*
X153026666Y-99350000D03*
X153026666Y-96810000D03*
X153026666Y-94270000D03*
X153026666Y-91730000D03*
X153026666Y-89190000D03*
X153026666Y-86650000D03*
X153026666Y-84110000D03*
D15*
X185928000Y-58176000D03*
D16*
X185928000Y-60716000D03*
X185928000Y-63256000D03*
X185928000Y-65796000D03*
D15*
X136652000Y-58176000D03*
D16*
X136652000Y-60716000D03*
X136652000Y-63256000D03*
X136652000Y-65796000D03*
D12*
X189660000Y-53110000D03*
D14*
X189660000Y-55650000D03*
X189660000Y-58190000D03*
X189660000Y-60730000D03*
X189660000Y-63270000D03*
X189660000Y-65810000D03*
X189660000Y-68350000D03*
X189660000Y-70890000D03*
X202360000Y-70890000D03*
X202360000Y-68350000D03*
X202360000Y-65810000D03*
X202360000Y-63270000D03*
X202360000Y-60730000D03*
X202360000Y-58190000D03*
X202360000Y-55650000D03*
X202360000Y-53110000D03*
D12*
X189660000Y-76200000D03*
D13*
X189660000Y-78700000D03*
D15*
X136652000Y-86624000D03*
D16*
X136652000Y-89164000D03*
X136652000Y-91704000D03*
X136652000Y-94244000D03*
D12*
X184000000Y-101932379D03*
D13*
X184000000Y-99432379D03*
D15*
X161290000Y-58176000D03*
D16*
X161290000Y-60716000D03*
X161290000Y-63256000D03*
X161290000Y-65796000D03*
D12*
X164993332Y-76287621D03*
D13*
X164993332Y-78787621D03*
D12*
X115660000Y-84110000D03*
D14*
X115660000Y-86650000D03*
X115660000Y-89190000D03*
X115660000Y-91730000D03*
X115660000Y-94270000D03*
X115660000Y-96810000D03*
X115660000Y-99350000D03*
X115660000Y-101890000D03*
X128360000Y-101890000D03*
X128360000Y-99350000D03*
X128360000Y-96810000D03*
X128360000Y-94270000D03*
X128360000Y-91730000D03*
X128360000Y-89190000D03*
X128360000Y-86650000D03*
X128360000Y-84110000D03*
M02*
