M48
; DRILL file {KiCad (6.0.4)} date Wed May 18 14:21:54 2022
; FORMAT={-:-/ absolute / metric / decimal}
; #@! TF.CreationDate,2022-05-18T14:21:54-04:00
; #@! TF.GenerationSoftware,Kicad,Pcbnew,(6.0.4)
; #@! TF.FileFunction,Plated,1,2,PTH
FMAT,2
METRIC
; #@! TA.AperFunction,Plated,PTH,ViaDrill
T1C0.400
; #@! TA.AperFunction,Plated,PTH,ViaDrill
T2C0.800
; #@! TA.AperFunction,Plated,PTH,ComponentDrill
T3C0.800
; #@! TA.AperFunction,Plated,PTH,ComponentDrill
T4C1.000
%
G90
G05
T1
X188.0Y-113.0
T2
X131.0Y-114.0
X134.0Y-112.0
T3
X115.57Y-76.2
X115.57Y-78.7
X115.57Y-106.68
X115.57Y-109.18
X115.66Y-53.11
X115.66Y-55.65
X115.66Y-58.19
X115.66Y-60.73
X115.66Y-63.27
X115.66Y-65.81
X115.66Y-68.35
X115.66Y-70.89
X115.66Y-84.11
X115.66Y-86.65
X115.66Y-89.19
X115.66Y-91.73
X115.66Y-94.27
X115.66Y-96.81
X115.66Y-99.35
X115.66Y-101.89
X128.36Y-53.11
X128.36Y-55.65
X128.36Y-58.19
X128.36Y-60.73
X128.36Y-63.27
X128.36Y-65.81
X128.36Y-68.35
X128.36Y-70.89
X128.36Y-84.11
X128.36Y-86.65
X128.36Y-89.19
X128.36Y-91.73
X128.36Y-94.27
X128.36Y-96.81
X128.36Y-99.35
X128.36Y-101.89
X134.25Y-99.432
X134.25Y-101.932
X140.327Y-53.11
X140.327Y-55.65
X140.327Y-58.19
X140.327Y-60.73
X140.327Y-63.27
X140.327Y-65.81
X140.327Y-68.35
X140.327Y-70.89
X140.327Y-76.24
X140.327Y-78.74
X140.327Y-84.11
X140.327Y-86.65
X140.327Y-89.19
X140.327Y-91.73
X140.327Y-94.27
X140.327Y-96.81
X140.327Y-99.35
X140.327Y-101.89
X153.027Y-53.11
X153.027Y-55.65
X153.027Y-58.19
X153.027Y-60.73
X153.027Y-63.27
X153.027Y-65.81
X153.027Y-68.35
X153.027Y-70.89
X153.027Y-84.11
X153.027Y-86.65
X153.027Y-89.19
X153.027Y-91.73
X153.027Y-94.27
X153.027Y-96.81
X153.027Y-99.35
X153.027Y-101.89
X159.0Y-99.432
X159.0Y-101.932
X164.993Y-53.11
X164.993Y-55.65
X164.993Y-58.19
X164.993Y-60.73
X164.993Y-63.27
X164.993Y-65.81
X164.993Y-68.35
X164.993Y-70.89
X164.993Y-76.288
X164.993Y-78.788
X164.993Y-84.11
X164.993Y-86.65
X164.993Y-89.19
X164.993Y-91.73
X164.993Y-94.27
X164.993Y-96.81
X164.993Y-99.35
X164.993Y-101.89
X177.693Y-53.11
X177.693Y-55.65
X177.693Y-58.19
X177.693Y-60.73
X177.693Y-63.27
X177.693Y-65.81
X177.693Y-68.35
X177.693Y-70.89
X177.693Y-84.11
X177.693Y-86.65
X177.693Y-89.19
X177.693Y-91.73
X177.693Y-94.27
X177.693Y-96.81
X177.693Y-99.35
X177.693Y-101.89
X184.0Y-99.432
X184.0Y-101.932
X189.66Y-53.11
X189.66Y-55.65
X189.66Y-58.19
X189.66Y-60.73
X189.66Y-63.27
X189.66Y-65.81
X189.66Y-68.35
X189.66Y-70.89
X189.66Y-76.2
X189.66Y-78.7
X189.66Y-84.11
X189.66Y-86.65
X189.66Y-89.19
X189.66Y-91.73
X189.66Y-94.27
X189.66Y-96.81
X189.66Y-99.35
X189.66Y-101.89
X202.36Y-53.11
X202.36Y-55.65
X202.36Y-58.19
X202.36Y-60.73
X202.36Y-63.27
X202.36Y-65.81
X202.36Y-68.35
X202.36Y-70.89
X202.36Y-84.11
X202.36Y-86.65
X202.36Y-89.19
X202.36Y-91.73
X202.36Y-94.27
X202.36Y-96.81
X202.36Y-99.35
X202.36Y-101.89
T4
X112.014Y-58.176
X112.014Y-60.716
X112.014Y-63.256
X112.014Y-65.796
X112.014Y-86.624
X112.014Y-89.164
X112.014Y-91.704
X112.014Y-94.244
X136.652Y-58.176
X136.652Y-60.716
X136.652Y-63.256
X136.652Y-65.796
X136.652Y-86.624
X136.652Y-89.164
X136.652Y-91.704
X136.652Y-94.244
X161.29Y-58.176
X161.29Y-60.716
X161.29Y-63.256
X161.29Y-65.796
X161.29Y-86.624
X161.29Y-89.164
X161.29Y-91.704
X161.29Y-94.244
X185.928Y-58.176
X185.928Y-60.716
X185.928Y-63.256
X185.928Y-65.796
X185.928Y-86.624
X185.928Y-89.164
X185.928Y-91.704
X185.928Y-94.244
T0
M30
