%TF.GenerationSoftware,KiCad,Pcbnew,(6.0.5)*%
%TF.CreationDate,2022-06-09T13:10:52-04:00*%
%TF.ProjectId,32-STEPPER-DRIVER-BOARD,33322d53-5445-4505-9045-522d44524956,rev?*%
%TF.SameCoordinates,Original*%
%TF.FileFunction,Copper,L2,Inr*%
%TF.FilePolarity,Positive*%
%FSLAX46Y46*%
G04 Gerber Fmt 4.6, Leading zero omitted, Abs format (unit mm)*
G04 Created by KiCad (PCBNEW (6.0.5)) date 2022-06-09 13:10:52*
%MOMM*%
%LPD*%
G01*
G04 APERTURE LIST*
%TA.AperFunction,ComponentPad*%
%ADD10C,1.308000*%
%TD*%
%TA.AperFunction,ComponentPad*%
%ADD11C,1.430000*%
%TD*%
%TA.AperFunction,ComponentPad*%
%ADD12C,1.508000*%
%TD*%
%TA.AperFunction,ComponentPad*%
%ADD13C,4.400000*%
%TD*%
%TA.AperFunction,ComponentPad*%
%ADD14R,1.390000X1.390000*%
%TD*%
%TA.AperFunction,ComponentPad*%
%ADD15C,1.390000*%
%TD*%
%TA.AperFunction,ViaPad*%
%ADD16C,0.450000*%
%TD*%
%TA.AperFunction,Conductor*%
%ADD17C,0.127000*%
%TD*%
G04 APERTURE END LIST*
D10*
%TO.N,N/C*%
%TO.C,J6*%
X150400000Y-108550000D03*
X152400000Y-108550000D03*
X150400000Y-89450000D03*
X152400000Y-89450000D03*
%TD*%
D11*
%TO.N,GND*%
%TO.C,J2*%
X60000000Y-46020000D03*
X60000000Y-43000000D03*
X62000000Y-46020000D03*
X62000000Y-43000000D03*
%TO.N,VCC*%
X64000000Y-46020000D03*
X64000000Y-43000000D03*
X66000000Y-46020000D03*
X66000000Y-43000000D03*
X68000000Y-46020000D03*
X68000000Y-43000000D03*
%TO.N,2DIR1*%
X70000000Y-46020000D03*
%TO.N,2DIR5*%
X70000000Y-43000000D03*
%TO.N,2A1STEP*%
X72000000Y-46020000D03*
%TO.N,2A5STEP*%
X72000000Y-43000000D03*
%TO.N,2A1EN*%
X74000000Y-46020000D03*
%TO.N,2A5EN*%
X74000000Y-43000000D03*
%TO.N,2A1MS1*%
X76000000Y-46020000D03*
%TO.N,2A5MS1*%
X76000000Y-43000000D03*
%TO.N,2A1MS2*%
X78000000Y-46020000D03*
%TO.N,2A5MS2*%
X78000000Y-43000000D03*
%TO.N,2A1MS3*%
X80000000Y-46020000D03*
%TO.N,2A5MS3*%
X80000000Y-43000000D03*
%TO.N,2DIR2*%
X82000000Y-46020000D03*
%TO.N,2DIR6*%
X82000000Y-43000000D03*
%TO.N,2A2STEP*%
X84000000Y-46020000D03*
%TO.N,2A6STEP*%
X84000000Y-43000000D03*
%TO.N,2A2EN*%
X86000000Y-46020000D03*
%TO.N,2A6EN*%
X86000000Y-43000000D03*
%TO.N,2A2MS1*%
X88000000Y-46020000D03*
%TO.N,2A6MS1*%
X88000000Y-43000000D03*
%TO.N,2A2MS2*%
X90000000Y-46020000D03*
%TO.N,2A6MS2*%
X90000000Y-43000000D03*
%TO.N,2A2MS3*%
X92000000Y-46020000D03*
%TO.N,2A6MS3*%
X92000000Y-43000000D03*
%TO.N,2DIR3*%
X94000000Y-46020000D03*
%TO.N,2DIR7*%
X94000000Y-43000000D03*
%TO.N,2A3STEP*%
X96000000Y-46020000D03*
%TO.N,2A7STEP*%
X96000000Y-43000000D03*
%TO.N,2A3EN*%
X98000000Y-46020000D03*
%TO.N,2A7EN*%
X98000000Y-43000000D03*
%TO.N,2A3MS1*%
X100000000Y-46020000D03*
%TO.N,2A7MS1*%
X100000000Y-43000000D03*
%TO.N,2A3MS2*%
X102000000Y-46020000D03*
%TO.N,2A7MS2*%
X102000000Y-43000000D03*
%TO.N,2A3MS3*%
X104000000Y-46020000D03*
%TO.N,2A7MS3*%
X104000000Y-43000000D03*
%TO.N,2DIR4*%
X106000000Y-46020000D03*
%TO.N,2DIR8*%
X106000000Y-43000000D03*
%TO.N,2A4STEP*%
X108000000Y-46020000D03*
%TO.N,2A8STEP*%
X108000000Y-43000000D03*
%TO.N,2A4EN*%
X110000000Y-46020000D03*
%TO.N,2A8EN*%
X110000000Y-43000000D03*
%TO.N,2A4MS1*%
X112000000Y-46020000D03*
%TO.N,2A8MS1*%
X112000000Y-43000000D03*
%TO.N,2A4MS2*%
X114000000Y-46020000D03*
%TO.N,2A8MS2*%
X114000000Y-43000000D03*
%TO.N,2A4MS3*%
X116000000Y-46020000D03*
%TO.N,2A8MS3*%
X116000000Y-43000000D03*
%TO.N,+5V*%
X118000000Y-46020000D03*
X118000000Y-43000000D03*
D12*
%TO.N,N/C*%
X56300000Y-44510000D03*
X121700000Y-44510000D03*
%TD*%
D13*
%TO.N,GND*%
%TO.C,J10*%
X151765000Y-114300000D03*
%TD*%
D11*
%TO.N,GND*%
%TO.C,J1*%
X60000000Y-21020000D03*
X60000000Y-18000000D03*
X62000000Y-21020000D03*
X62000000Y-18000000D03*
%TO.N,VCC*%
X64000000Y-21020000D03*
X64000000Y-18000000D03*
X66000000Y-21020000D03*
X66000000Y-18000000D03*
X68000000Y-21020000D03*
X68000000Y-18000000D03*
%TO.N,1DIR1*%
X70000000Y-21020000D03*
%TO.N,1DIR5*%
X70000000Y-18000000D03*
%TO.N,1A1STEP*%
X72000000Y-21020000D03*
%TO.N,1A5STEP*%
X72000000Y-18000000D03*
%TO.N,1A1EN*%
X74000000Y-21020000D03*
%TO.N,1A5EN*%
X74000000Y-18000000D03*
%TO.N,1A1MS1*%
X76000000Y-21020000D03*
%TO.N,1A5MS1*%
X76000000Y-18000000D03*
%TO.N,1A1MS2*%
X78000000Y-21020000D03*
%TO.N,1A5MS2*%
X78000000Y-18000000D03*
%TO.N,1A1MS3*%
X80000000Y-21020000D03*
%TO.N,1A5MS3*%
X80000000Y-18000000D03*
%TO.N,1DIR2*%
X82000000Y-21020000D03*
%TO.N,1DIR6*%
X82000000Y-18000000D03*
%TO.N,1A2STEP*%
X84000000Y-21020000D03*
%TO.N,1A6STEP*%
X84000000Y-18000000D03*
%TO.N,1A2EN*%
X86000000Y-21020000D03*
%TO.N,1A6EN*%
X86000000Y-18000000D03*
%TO.N,1A2MS1*%
X88000000Y-21020000D03*
%TO.N,1A6MS1*%
X88000000Y-18000000D03*
%TO.N,1A2MS2*%
X90000000Y-21020000D03*
%TO.N,1A6MS2*%
X90000000Y-18000000D03*
%TO.N,1A2MS3*%
X92000000Y-21020000D03*
%TO.N,1A6MS3*%
X92000000Y-18000000D03*
%TO.N,1DIR3*%
X94000000Y-21020000D03*
%TO.N,1DIR7*%
X94000000Y-18000000D03*
%TO.N,1A3STEP*%
X96000000Y-21020000D03*
%TO.N,1A7STEP*%
X96000000Y-18000000D03*
%TO.N,1A3EN*%
X98000000Y-21020000D03*
%TO.N,1A7EN*%
X98000000Y-18000000D03*
%TO.N,1A3MS1*%
X100000000Y-21020000D03*
%TO.N,1A7MS1*%
X100000000Y-18000000D03*
%TO.N,1A3MS2*%
X102000000Y-21020000D03*
%TO.N,1A7MS2*%
X102000000Y-18000000D03*
%TO.N,1A3MS3*%
X104000000Y-21020000D03*
%TO.N,1A7MS3*%
X104000000Y-18000000D03*
%TO.N,1DIR4*%
X106000000Y-21020000D03*
%TO.N,1DIR8*%
X106000000Y-18000000D03*
%TO.N,1A4STEP*%
X108000000Y-21020000D03*
%TO.N,1A8STEP*%
X108000000Y-18000000D03*
%TO.N,1A4EN*%
X110000000Y-21020000D03*
%TO.N,1A8EN*%
X110000000Y-18000000D03*
%TO.N,1A4MS1*%
X112000000Y-21020000D03*
%TO.N,1A8MS1*%
X112000000Y-18000000D03*
%TO.N,1A4MS2*%
X114000000Y-21020000D03*
%TO.N,1A8MS2*%
X114000000Y-18000000D03*
%TO.N,1A4MS3*%
X116000000Y-21020000D03*
%TO.N,1A8MS3*%
X116000000Y-18000000D03*
%TO.N,+5V*%
X118000000Y-21020000D03*
X118000000Y-18000000D03*
D12*
%TO.N,N/C*%
X56300000Y-19510000D03*
X121700000Y-19510000D03*
%TD*%
D13*
%TO.N,GND*%
%TO.C,J8*%
X151765000Y-19050000D03*
%TD*%
D11*
%TO.N,GND*%
%TO.C,J3*%
X60000000Y-71020000D03*
X60000000Y-68000000D03*
X62000000Y-71020000D03*
X62000000Y-68000000D03*
%TO.N,VCC*%
X64000000Y-71020000D03*
X64000000Y-68000000D03*
X66000000Y-71020000D03*
X66000000Y-68000000D03*
X68000000Y-71020000D03*
X68000000Y-68000000D03*
%TO.N,3DIR1*%
X70000000Y-71020000D03*
%TO.N,3DIR5*%
X70000000Y-68000000D03*
%TO.N,3A1STEP*%
X72000000Y-71020000D03*
%TO.N,3A5STEP*%
X72000000Y-68000000D03*
%TO.N,3A1EN*%
X74000000Y-71020000D03*
%TO.N,3A5EN*%
X74000000Y-68000000D03*
%TO.N,3A1MS1*%
X76000000Y-71020000D03*
%TO.N,3A5MS1*%
X76000000Y-68000000D03*
%TO.N,3A1MS2*%
X78000000Y-71020000D03*
%TO.N,3A5MS2*%
X78000000Y-68000000D03*
%TO.N,3A1MS3*%
X80000000Y-71020000D03*
%TO.N,3A5MS3*%
X80000000Y-68000000D03*
%TO.N,3DIR2*%
X82000000Y-71020000D03*
%TO.N,3DIR6*%
X82000000Y-68000000D03*
%TO.N,3A2STEP*%
X84000000Y-71020000D03*
%TO.N,3A6STEP*%
X84000000Y-68000000D03*
%TO.N,3A2EN*%
X86000000Y-71020000D03*
%TO.N,3A6EN*%
X86000000Y-68000000D03*
%TO.N,3A2MS1*%
X88000000Y-71020000D03*
%TO.N,3A6MS1*%
X88000000Y-68000000D03*
%TO.N,3A2MS2*%
X90000000Y-71020000D03*
%TO.N,3A6MS2*%
X90000000Y-68000000D03*
%TO.N,3A2MS3*%
X92000000Y-71020000D03*
%TO.N,3A6MS3*%
X92000000Y-68000000D03*
%TO.N,3DIR3*%
X94000000Y-71020000D03*
%TO.N,3DIR7*%
X94000000Y-68000000D03*
%TO.N,3A3STEP*%
X96000000Y-71020000D03*
%TO.N,3A7STEP*%
X96000000Y-68000000D03*
%TO.N,3A3EN*%
X98000000Y-71020000D03*
%TO.N,3A7EN*%
X98000000Y-68000000D03*
%TO.N,3A3MS1*%
X100000000Y-71020000D03*
%TO.N,3A7MS1*%
X100000000Y-68000000D03*
%TO.N,3A3MS2*%
X102000000Y-71020000D03*
%TO.N,3A7MS2*%
X102000000Y-68000000D03*
%TO.N,3A3MS3*%
X104000000Y-71020000D03*
%TO.N,3A7MS3*%
X104000000Y-68000000D03*
%TO.N,3DIR4*%
X106000000Y-71020000D03*
%TO.N,3DIR8*%
X106000000Y-68000000D03*
%TO.N,3A4STEP*%
X108000000Y-71020000D03*
%TO.N,3A8STEP*%
X108000000Y-68000000D03*
%TO.N,3A4EN*%
X110000000Y-71020000D03*
%TO.N,3A8EN*%
X110000000Y-68000000D03*
%TO.N,3A4MS1*%
X112000000Y-71020000D03*
%TO.N,3A8MS1*%
X112000000Y-68000000D03*
%TO.N,3A4MS2*%
X114000000Y-71020000D03*
%TO.N,3A8MS2*%
X114000000Y-68000000D03*
%TO.N,3A4MS3*%
X116000000Y-71020000D03*
%TO.N,3A8MS3*%
X116000000Y-68000000D03*
%TO.N,+5V*%
X118000000Y-71020000D03*
X118000000Y-68000000D03*
D12*
%TO.N,N/C*%
X56300000Y-69510000D03*
X121700000Y-69510000D03*
%TD*%
D13*
%TO.N,GND*%
%TO.C,J7*%
X44450000Y-19050000D03*
%TD*%
D11*
%TO.N,GND*%
%TO.C,J4*%
X60000000Y-96020000D03*
X60000000Y-93000000D03*
X62000000Y-96020000D03*
X62000000Y-93000000D03*
%TO.N,VCC*%
X64000000Y-96020000D03*
X64000000Y-93000000D03*
X66000000Y-96020000D03*
X66000000Y-93000000D03*
X68000000Y-96020000D03*
X68000000Y-93000000D03*
%TO.N,4DIR1*%
X70000000Y-96020000D03*
%TO.N,4DIR5*%
X70000000Y-93000000D03*
%TO.N,4A1STEP*%
X72000000Y-96020000D03*
%TO.N,4A5STEP*%
X72000000Y-93000000D03*
%TO.N,4A1EN*%
X74000000Y-96020000D03*
%TO.N,4A5EN*%
X74000000Y-93000000D03*
%TO.N,4A1MS1*%
X76000000Y-96020000D03*
%TO.N,4A5MS1*%
X76000000Y-93000000D03*
%TO.N,4A1MS2*%
X78000000Y-96020000D03*
%TO.N,4A5MS2*%
X78000000Y-93000000D03*
%TO.N,4A1MS3*%
X80000000Y-96020000D03*
%TO.N,4A5MS3*%
X80000000Y-93000000D03*
%TO.N,4DIR2*%
X82000000Y-96020000D03*
%TO.N,4DIR6*%
X82000000Y-93000000D03*
%TO.N,4A2STEP*%
X84000000Y-96020000D03*
%TO.N,4A6STEP*%
X84000000Y-93000000D03*
%TO.N,4A2EN*%
X86000000Y-96020000D03*
%TO.N,4A6EN*%
X86000000Y-93000000D03*
%TO.N,4A2MS1*%
X88000000Y-96020000D03*
%TO.N,4A6MS1*%
X88000000Y-93000000D03*
%TO.N,4A2MS2*%
X90000000Y-96020000D03*
%TO.N,4A6MS2*%
X90000000Y-93000000D03*
%TO.N,4A2MS3*%
X92000000Y-96020000D03*
%TO.N,4A6MS3*%
X92000000Y-93000000D03*
%TO.N,4DIR3*%
X94000000Y-96020000D03*
%TO.N,4DIR7*%
X94000000Y-93000000D03*
%TO.N,4A3STEP*%
X96000000Y-96020000D03*
%TO.N,4A7STEP*%
X96000000Y-93000000D03*
%TO.N,4A3EN*%
X98000000Y-96020000D03*
%TO.N,4A7EN*%
X98000000Y-93000000D03*
%TO.N,4A3MS1*%
X100000000Y-96020000D03*
%TO.N,4A7MS1*%
X100000000Y-93000000D03*
%TO.N,4A3MS2*%
X102000000Y-96020000D03*
%TO.N,4A7MS2*%
X102000000Y-93000000D03*
%TO.N,4A3MS3*%
X104000000Y-96020000D03*
%TO.N,4A7MS3*%
X104000000Y-93000000D03*
%TO.N,4DIR4*%
X106000000Y-96020000D03*
%TO.N,4DIR8*%
X106000000Y-93000000D03*
%TO.N,4A4STEP*%
X108000000Y-96020000D03*
%TO.N,4A8STEP*%
X108000000Y-93000000D03*
%TO.N,4A4EN*%
X110000000Y-96020000D03*
%TO.N,4A8EN*%
X110000000Y-93000000D03*
%TO.N,4A4MS1*%
X112000000Y-96020000D03*
%TO.N,4A8MS1*%
X112000000Y-93000000D03*
%TO.N,4A4MS2*%
X114000000Y-96020000D03*
%TO.N,4A8MS2*%
X114000000Y-93000000D03*
%TO.N,4A4MS3*%
X116000000Y-96020000D03*
%TO.N,4A8MS3*%
X116000000Y-93000000D03*
%TO.N,+5V*%
X118000000Y-96020000D03*
X118000000Y-93000000D03*
D12*
%TO.N,N/C*%
X56300000Y-94510000D03*
X121700000Y-94510000D03*
%TD*%
D14*
%TO.N,1A4STEP*%
%TO.C,J5*%
X152670000Y-23907500D03*
D15*
%TO.N,1A8STEP*%
X150130000Y-23907500D03*
%TO.N,1A3STEP*%
X152670000Y-26447500D03*
%TO.N,1A7STEP*%
X150130000Y-26447500D03*
%TO.N,1A2STEP*%
X152670000Y-28987500D03*
%TO.N,1A6STEP*%
X150130000Y-28987500D03*
%TO.N,1A1STEP*%
X152670000Y-31527500D03*
%TO.N,1A5STEP*%
X150130000Y-31527500D03*
%TO.N,2A4STEP*%
X152670000Y-34067500D03*
%TO.N,2A8STEP*%
X150130000Y-34067500D03*
%TO.N,2A3STEP*%
X152670000Y-36607500D03*
%TO.N,2A7STEP*%
X150130000Y-36607500D03*
%TO.N,2A2STEP*%
X152670000Y-39147500D03*
%TO.N,2A6STEP*%
X150130000Y-39147500D03*
%TO.N,2A1STEP*%
X152670000Y-41687500D03*
%TO.N,2A5STEP*%
X150130000Y-41687500D03*
%TO.N,3A4STEP*%
X152670000Y-44227500D03*
%TO.N,3A8STEP*%
X150130000Y-44227500D03*
%TO.N,3A3STEP*%
X152670000Y-46767500D03*
%TO.N,3A7STEP*%
X150130000Y-46767500D03*
%TO.N,3A2STEP*%
X152670000Y-49307500D03*
%TO.N,3A6STEP*%
X150130000Y-49307500D03*
%TO.N,3A1STEP*%
X152670000Y-51847500D03*
%TO.N,3A5STEP*%
X150130000Y-51847500D03*
%TO.N,4A4STEP*%
X152670000Y-54387500D03*
%TO.N,4A8STEP*%
X150130000Y-54387500D03*
%TO.N,4A3STEP*%
X152670000Y-56927500D03*
%TO.N,4A7STEP*%
X150130000Y-56927500D03*
%TO.N,4A2STEP*%
X152670000Y-59467500D03*
%TO.N,4A6STEP*%
X150130000Y-59467500D03*
%TO.N,4A1STEP*%
X152670000Y-62007500D03*
%TO.N,4A5STEP*%
X150130000Y-62007500D03*
%TO.N,SER1*%
X152670000Y-64547500D03*
%TO.N,SRCLK1*%
X150130000Y-64547500D03*
%TO.N,SRCLK2*%
X152670000Y-67087500D03*
%TO.N,~{SRCLR}*%
X150130000Y-67087500D03*
%TO.N,~{OE}*%
X152670000Y-69627500D03*
%TO.N,RCLK*%
X150130000Y-69627500D03*
%TO.N,SRCLK3*%
X152670000Y-72167500D03*
%TO.N,SER2*%
X150130000Y-72167500D03*
%TO.N,SRCLK4*%
X152670000Y-74707500D03*
%TO.N,SER3*%
X150130000Y-74707500D03*
%TO.N,VCC*%
X152670000Y-77247500D03*
%TO.N,SER4*%
X150130000Y-77247500D03*
%TO.N,+5V*%
X152670000Y-79787500D03*
X150130000Y-79787500D03*
%TO.N,GND*%
X152670000Y-82327500D03*
X150130000Y-82327500D03*
X152670000Y-84867500D03*
X150130000Y-84867500D03*
%TD*%
D13*
%TO.N,GND*%
%TO.C,J9*%
X44450000Y-114300000D03*
%TD*%
D16*
%TO.N,GND*%
X152019000Y-98552000D03*
X126212600Y-18161000D03*
X148971000Y-102616000D03*
X58039000Y-98679000D03*
X151003000Y-93345000D03*
X142773400Y-18161000D03*
X148971000Y-94615000D03*
X57531000Y-30480000D03*
X57912000Y-77470000D03*
X49276000Y-30353000D03*
X151003000Y-94615000D03*
X43434000Y-82169000D03*
X129387600Y-18161000D03*
X149987000Y-93345000D03*
X50038000Y-82169000D03*
X148971000Y-97282000D03*
X58039000Y-102108000D03*
X151003000Y-97282000D03*
X57531000Y-23876000D03*
X148971000Y-93345000D03*
X57912000Y-55499000D03*
X46609000Y-82169000D03*
X151003000Y-98552000D03*
X49911000Y-47752000D03*
X149987000Y-101346000D03*
X151003000Y-101346000D03*
X57912000Y-52324000D03*
X152019000Y-97282000D03*
X149987000Y-102616000D03*
X49911000Y-99568000D03*
X57912000Y-48895000D03*
X49911000Y-63119000D03*
X152019000Y-93345000D03*
X45847000Y-30353000D03*
X152019000Y-101346000D03*
X136169400Y-18161000D03*
X57912000Y-74041000D03*
X43307000Y-47752000D03*
X57912000Y-80645000D03*
X149987000Y-97282000D03*
X58039000Y-105283000D03*
X132816600Y-18161000D03*
X43307000Y-99568000D03*
X46482000Y-47752000D03*
X139344400Y-18161000D03*
X148971000Y-98552000D03*
X152019000Y-102616000D03*
X149987000Y-94615000D03*
X151003000Y-102616000D03*
X149987000Y-98552000D03*
X152019000Y-94615000D03*
X46482000Y-99568000D03*
X43307000Y-63119000D03*
X148971000Y-101346000D03*
X46482000Y-63119000D03*
X57531000Y-27305000D03*
X42672000Y-30353000D03*
%TO.N,VCC*%
X143129000Y-98552000D03*
X140081000Y-97409000D03*
X143129000Y-95377000D03*
X142113000Y-96393000D03*
X141097000Y-99568000D03*
X141097000Y-97409000D03*
X142113000Y-100584000D03*
X140081000Y-98552000D03*
X143129000Y-99568000D03*
X140081000Y-95377000D03*
X140081000Y-96393000D03*
X141097000Y-98552000D03*
X143129000Y-97409000D03*
X141097000Y-100584000D03*
X141097000Y-96393000D03*
X142113000Y-99568000D03*
X142113000Y-95377000D03*
X143129000Y-96393000D03*
X142113000Y-98552000D03*
X141097000Y-95377000D03*
X143129000Y-100584000D03*
X142113000Y-97409000D03*
X140081000Y-100584000D03*
X140081000Y-99568000D03*
%TO.N,+5V*%
X75800000Y-114711500D03*
X83820000Y-114711500D03*
X99822000Y-114711500D03*
X144907000Y-106045000D03*
X147193000Y-106934000D03*
X75819000Y-64800500D03*
X107823000Y-89692500D03*
X99822000Y-89692500D03*
X144145000Y-106934000D03*
X99822000Y-64800500D03*
X147193000Y-105283000D03*
X91821000Y-89692500D03*
X107823000Y-114711500D03*
X99822000Y-39751000D03*
X107823000Y-64800500D03*
X83820000Y-39751000D03*
X91821000Y-64800500D03*
X145669000Y-106934000D03*
X107823000Y-39751000D03*
X145669000Y-105283000D03*
X83820000Y-89692500D03*
X75819000Y-39751000D03*
X91821000Y-39751000D03*
X146431000Y-106045000D03*
X144145000Y-105283000D03*
X83820000Y-64800500D03*
X91821000Y-114711500D03*
X75800000Y-89819500D03*
%TO.N,~{SRCLR}*%
X111760000Y-61722000D03*
X79756000Y-111506000D03*
X95758000Y-36576000D03*
X103759000Y-111506000D03*
X128270000Y-61722000D03*
X128270000Y-36576000D03*
X87757000Y-36576000D03*
X111760000Y-36576000D03*
X79756000Y-86487000D03*
X87757000Y-86487000D03*
X111760000Y-111506000D03*
X95758000Y-61722000D03*
X79756000Y-36576000D03*
X95758000Y-111506000D03*
X128270000Y-103759000D03*
X87757000Y-61722000D03*
X103759000Y-61722000D03*
X111760000Y-86487000D03*
X103759000Y-36576000D03*
X79756000Y-61722000D03*
X95758000Y-86487000D03*
X128270000Y-86487000D03*
X87757000Y-111506000D03*
X103759000Y-86487000D03*
%TO.N,SRCLK1*%
X79121000Y-37211000D03*
X95123000Y-37211000D03*
X87122000Y-37211000D03*
X111125000Y-37211000D03*
X103124000Y-37211000D03*
%TO.N,RCLK*%
X126492000Y-37846000D03*
X86487000Y-62992000D03*
X86487000Y-37846000D03*
X94488000Y-87757000D03*
X102489000Y-112776000D03*
X94488000Y-37846000D03*
X127508000Y-62992000D03*
X78486000Y-62992000D03*
X127508000Y-103124000D03*
X102489000Y-37846000D03*
X94488000Y-112776000D03*
X127508000Y-87757000D03*
X110490000Y-62992000D03*
X110490000Y-112776000D03*
X102489000Y-87757000D03*
X78486000Y-112776000D03*
X86487000Y-87757000D03*
X86487000Y-112776000D03*
X78486000Y-87757000D03*
X110490000Y-37846000D03*
X110490000Y-87757000D03*
X94488000Y-62992000D03*
X102489000Y-62992000D03*
X78486000Y-37846000D03*
%TO.N,~{OE}*%
X77851000Y-88392000D03*
X93853000Y-38481000D03*
X93853000Y-113411000D03*
X101854000Y-63627000D03*
X109855000Y-113411000D03*
X77851000Y-63627000D03*
X85852000Y-38481000D03*
X101854000Y-88392000D03*
X85852000Y-88392000D03*
X124206000Y-38481000D03*
X126746000Y-102235000D03*
X101854000Y-113411000D03*
X93853000Y-63627000D03*
X77851000Y-113411000D03*
X93853000Y-88392000D03*
X85852000Y-63627000D03*
X126746000Y-88392000D03*
X109855000Y-63627000D03*
X101854000Y-38481000D03*
X109855000Y-88392000D03*
X77851000Y-38481000D03*
X126746000Y-63627000D03*
X85852000Y-113411000D03*
X109855000Y-38481000D03*
%TO.N,SER1*%
X109093000Y-39751000D03*
%TO.N,Net-(U4-Pad9)*%
X88265000Y-39116000D03*
X77089000Y-39116000D03*
%TO.N,Net-(U6-Pad9)*%
X101092000Y-64897000D03*
X112395000Y-64262000D03*
%TO.N,Net-(U7-Pad9)*%
X93091000Y-64897000D03*
X104394000Y-64262000D03*
%TO.N,SER2*%
X109220000Y-64775000D03*
%TO.N,Net-(U12-Pad9)*%
X112395000Y-89027000D03*
X101092000Y-89662000D03*
%TO.N,SER3*%
X109093000Y-89662000D03*
%TO.N,Net-(U19-Pad9)*%
X85090000Y-114681000D03*
X96393000Y-114046000D03*
%TO.N,Net-(U20-Pad9)*%
X77089000Y-114046000D03*
X88265000Y-114046000D03*
%TO.N,Net-(U15-Pad9)*%
X77089000Y-89027000D03*
X88265000Y-89027000D03*
%TO.N,Net-(U1-Pad9)*%
X101092000Y-39751000D03*
X112395000Y-39116000D03*
%TO.N,Net-(U2-Pad9)*%
X104394000Y-39116000D03*
X93091000Y-39751000D03*
%TO.N,Net-(U3-Pad9)*%
X96393000Y-39116000D03*
X85090000Y-39751000D03*
%TO.N,Net-(U10-Pad14)*%
X85090000Y-64897000D03*
X96393000Y-64262000D03*
%TO.N,Net-(U10-Pad9)*%
X77089000Y-64262000D03*
X88265000Y-64262000D03*
%TO.N,Net-(U13-Pad9)*%
X104394000Y-89027000D03*
X93091000Y-89662000D03*
%TO.N,Net-(U14-Pad9)*%
X96393000Y-89027000D03*
X85090000Y-89662000D03*
%TO.N,Net-(U17-Pad9)*%
X101092000Y-114681000D03*
X112395000Y-114046000D03*
%TO.N,Net-(U18-Pad9)*%
X93091000Y-114681000D03*
X104394000Y-114046000D03*
%TO.N,SER4*%
X109093000Y-114681000D03*
%TO.N,SRCLK2*%
X87122000Y-62357000D03*
X95123000Y-62357000D03*
X103124000Y-62357000D03*
X79121000Y-62357000D03*
X111125000Y-62357000D03*
%TO.N,SRCLK3*%
X103124000Y-87122000D03*
X95123000Y-87122000D03*
X111125000Y-87122000D03*
X87122000Y-87122000D03*
X79121000Y-87122000D03*
%TO.N,SRCLK4*%
X124333000Y-112141000D03*
X95123000Y-112141000D03*
X128143000Y-112141000D03*
X87122000Y-112141000D03*
X103124000Y-112141000D03*
X111125000Y-112141000D03*
X79121000Y-112141000D03*
%TD*%
D17*
%TO.N,1A1STEP*%
X72000000Y-31600000D02*
X73200000Y-32800000D01*
X151397500Y-32800000D02*
X152670000Y-31527500D01*
X73200000Y-32800000D02*
X151397500Y-32800000D01*
X72000000Y-21020000D02*
X72000000Y-31600000D01*
%TO.N,1A5STEP*%
X73750000Y-31550000D02*
X150107500Y-31550000D01*
X72000000Y-18000000D02*
X73000000Y-19000000D01*
X150107500Y-31550000D02*
X150130000Y-31527500D01*
X73000000Y-30800000D02*
X73750000Y-31550000D01*
X73000000Y-19000000D02*
X73000000Y-30800000D01*
%TO.N,1A2STEP*%
X85750000Y-30250000D02*
X151407500Y-30250000D01*
X151407500Y-30250000D02*
X152670000Y-28987500D01*
X84000000Y-28500000D02*
X85750000Y-30250000D01*
X84000000Y-21020000D02*
X84000000Y-28500000D01*
%TO.N,1A6STEP*%
X84000000Y-18000000D02*
X85021989Y-19021989D01*
X150117500Y-29000000D02*
X150130000Y-28987500D01*
X86300000Y-29000000D02*
X150117500Y-29000000D01*
X85021989Y-19021989D02*
X85021989Y-27721989D01*
X85021989Y-27721989D02*
X86300000Y-29000000D01*
%TO.N,1A3STEP*%
X96000000Y-21020000D02*
X96000000Y-25800000D01*
X151417500Y-27700000D02*
X152670000Y-26447500D01*
X97900000Y-27700000D02*
X151417500Y-27700000D01*
X96000000Y-25800000D02*
X97900000Y-27700000D01*
%TO.N,1A7STEP*%
X97000000Y-25100000D02*
X98350000Y-26450000D01*
X96000000Y-18000000D02*
X97000000Y-19000000D01*
X98500000Y-26450000D02*
X98502500Y-26447500D01*
X98350000Y-26450000D02*
X98500000Y-26450000D01*
X98502500Y-26447500D02*
X150130000Y-26447500D01*
X97000000Y-19000000D02*
X97000000Y-25100000D01*
%TO.N,1A4STEP*%
X108000000Y-23400000D02*
X109800000Y-25200000D01*
X108000000Y-21020000D02*
X108000000Y-23400000D01*
X109800000Y-25200000D02*
X151377500Y-25200000D01*
X151377500Y-25200000D02*
X152670000Y-23907500D01*
%TO.N,1A8STEP*%
X108000000Y-18000000D02*
X109000000Y-19000000D01*
X110500000Y-23900000D02*
X150122500Y-23900000D01*
X109000000Y-22400000D02*
X110500000Y-23900000D01*
X109000000Y-19000000D02*
X109000000Y-22400000D01*
X150122500Y-23900000D02*
X150130000Y-23907500D01*
%TO.N,2A1STEP*%
X74000000Y-58200000D02*
X125800000Y-58200000D01*
X129200000Y-47000000D02*
X133300000Y-42900000D01*
X72000000Y-56200000D02*
X74000000Y-58200000D01*
X133300000Y-42900000D02*
X151457500Y-42900000D01*
X129200000Y-54800000D02*
X129200000Y-47000000D01*
X125800000Y-58200000D02*
X129200000Y-54800000D01*
X72000000Y-46020000D02*
X72000000Y-56200000D01*
X151457500Y-42900000D02*
X152670000Y-41687500D01*
%TO.N,2A5STEP*%
X128400000Y-45800000D02*
X132512500Y-41687500D01*
X73000000Y-44000000D02*
X73000000Y-55600000D01*
X74400000Y-57000000D02*
X125100000Y-57000000D01*
X125100000Y-57000000D02*
X128400000Y-53700000D01*
X128400000Y-53700000D02*
X128400000Y-45800000D01*
X72000000Y-43000000D02*
X73000000Y-44000000D01*
X73000000Y-55600000D02*
X74400000Y-57000000D01*
X132512500Y-41687500D02*
X150130000Y-41687500D01*
%TO.N,2A2STEP*%
X124000000Y-55900000D02*
X127600000Y-52300000D01*
X131700000Y-40300000D02*
X151517500Y-40300000D01*
X86800000Y-55900000D02*
X124000000Y-55900000D01*
X84000000Y-46020000D02*
X84000000Y-53100000D01*
X151517500Y-40300000D02*
X152670000Y-39147500D01*
X84000000Y-53100000D02*
X86800000Y-55900000D01*
X127600000Y-44400000D02*
X131700000Y-40300000D01*
X127600000Y-52300000D02*
X127600000Y-44400000D01*
%TO.N,2A6STEP*%
X126800000Y-51000000D02*
X126800000Y-43200000D01*
X85000000Y-44000000D02*
X85000000Y-52500000D01*
X87200000Y-54700000D02*
X123100000Y-54700000D01*
X85000000Y-52500000D02*
X87200000Y-54700000D01*
X126800000Y-43200000D02*
X130852500Y-39147500D01*
X130852500Y-39147500D02*
X150130000Y-39147500D01*
X84000000Y-43000000D02*
X85000000Y-44000000D01*
X123100000Y-54700000D02*
X126800000Y-51000000D01*
%TO.N,2A3STEP*%
X126000000Y-41800000D02*
X129900000Y-37900000D01*
X98200000Y-53200000D02*
X122500000Y-53200000D01*
X126000000Y-49700000D02*
X126000000Y-41800000D01*
X96000000Y-51000000D02*
X98200000Y-53200000D01*
X129900000Y-37900000D02*
X151377500Y-37900000D01*
X151377500Y-37900000D02*
X152670000Y-36607500D01*
X96000000Y-46020000D02*
X96000000Y-51000000D01*
X122500000Y-53200000D02*
X126000000Y-49700000D01*
%TO.N,2A7STEP*%
X125200000Y-48200000D02*
X125200000Y-40400000D01*
X97021989Y-44021989D02*
X97021989Y-49821989D01*
X128992500Y-36607500D02*
X150130000Y-36607500D01*
X97021989Y-49821989D02*
X98900000Y-51700000D01*
X121700000Y-51700000D02*
X125200000Y-48200000D01*
X98900000Y-51700000D02*
X121700000Y-51700000D01*
X125200000Y-40400000D02*
X128992500Y-36607500D01*
X96000000Y-43000000D02*
X97021989Y-44021989D01*
%TO.N,2A4STEP*%
X109900000Y-50300000D02*
X120800000Y-50300000D01*
X151387500Y-35350000D02*
X152670000Y-34067500D01*
X120800000Y-50300000D02*
X124400000Y-46700000D01*
X108000000Y-48400000D02*
X109900000Y-50300000D01*
X108000000Y-46020000D02*
X108000000Y-48400000D01*
X124400000Y-39200000D02*
X128250000Y-35350000D01*
X124400000Y-46700000D02*
X124400000Y-39200000D01*
X128250000Y-35350000D02*
X151387500Y-35350000D01*
%TO.N,2A8STEP*%
X120000000Y-48900000D02*
X123600000Y-45300000D01*
X110500000Y-48900000D02*
X120000000Y-48900000D01*
X109000000Y-44000000D02*
X109000000Y-47400000D01*
X109000000Y-47400000D02*
X110500000Y-48900000D01*
X123600000Y-45300000D02*
X123600000Y-37825000D01*
X108000000Y-43000000D02*
X109000000Y-44000000D01*
X123600000Y-37825000D02*
X127357500Y-34067500D01*
X127357500Y-34067500D02*
X150130000Y-34067500D01*
%TO.N,3A1STEP*%
X74000000Y-83200000D02*
X72000000Y-81200000D01*
X135600000Y-56300000D02*
X135600000Y-79800000D01*
X72000000Y-81200000D02*
X72000000Y-71020000D01*
X138800000Y-53100000D02*
X135600000Y-56300000D01*
X132200000Y-83200000D02*
X74000000Y-83200000D01*
X152670000Y-51847500D02*
X151417500Y-53100000D01*
X135600000Y-79800000D02*
X132200000Y-83200000D01*
X151417500Y-53100000D02*
X138800000Y-53100000D01*
%TO.N,3A5STEP*%
X73000000Y-69000000D02*
X72000000Y-68000000D01*
X131200000Y-82000000D02*
X74400000Y-82000000D01*
X150130000Y-51847500D02*
X137952500Y-51847500D01*
X74400000Y-82000000D02*
X73000000Y-80600000D01*
X137952500Y-51847500D02*
X134800000Y-55000000D01*
X134800000Y-78400000D02*
X131200000Y-82000000D01*
X134800000Y-55000000D02*
X134800000Y-78400000D01*
X73000000Y-80600000D02*
X73000000Y-69000000D01*
%TO.N,3A2STEP*%
X86800000Y-80900000D02*
X84000000Y-78100000D01*
X134000000Y-53700000D02*
X134000000Y-77000000D01*
X151377500Y-50600000D02*
X137100000Y-50600000D01*
X84000000Y-78100000D02*
X84000000Y-71020000D01*
X130100000Y-80900000D02*
X86800000Y-80900000D01*
X137100000Y-50600000D02*
X134000000Y-53700000D01*
X152670000Y-49307500D02*
X151377500Y-50600000D01*
X134000000Y-77000000D02*
X130100000Y-80900000D01*
%TO.N,3A6STEP*%
X85000000Y-69000000D02*
X84000000Y-68000000D01*
X133200000Y-52400000D02*
X133200000Y-75400000D01*
X87200000Y-79700000D02*
X85000000Y-77500000D01*
X133200000Y-75400000D02*
X128900000Y-79700000D01*
X150130000Y-49307500D02*
X136292500Y-49307500D01*
X136292500Y-49307500D02*
X133200000Y-52400000D01*
X85000000Y-77500000D02*
X85000000Y-69000000D01*
X128900000Y-79700000D02*
X87200000Y-79700000D01*
%TO.N,3A3STEP*%
X128200000Y-78200000D02*
X98200000Y-78200000D01*
X132400000Y-74000000D02*
X128200000Y-78200000D01*
X151437500Y-48000000D02*
X135700000Y-48000000D01*
X98200000Y-78200000D02*
X96000000Y-76000000D01*
X132400000Y-51300000D02*
X132400000Y-74000000D01*
X96000000Y-76000000D02*
X96000000Y-71020000D01*
X135700000Y-48000000D02*
X132400000Y-51300000D01*
X152670000Y-46767500D02*
X151437500Y-48000000D01*
%TO.N,3A7STEP*%
X135232500Y-46767500D02*
X131600000Y-50400000D01*
X131600000Y-72600000D02*
X127500000Y-76700000D01*
X97021989Y-74821989D02*
X97021989Y-69021989D01*
X98900000Y-76700000D02*
X97021989Y-74821989D01*
X97021989Y-69021989D02*
X96000000Y-68000000D01*
X131600000Y-50400000D02*
X131600000Y-72600000D01*
X150130000Y-46767500D02*
X135232500Y-46767500D01*
X127500000Y-76700000D02*
X98900000Y-76700000D01*
%TO.N,3A4STEP*%
X130800000Y-71200000D02*
X126700000Y-75300000D01*
X130800000Y-49200000D02*
X130800000Y-71200000D01*
X108000000Y-73400000D02*
X108000000Y-71020000D01*
X134500000Y-45500000D02*
X130800000Y-49200000D01*
X109900000Y-75300000D02*
X108000000Y-73400000D01*
X151397500Y-45500000D02*
X134500000Y-45500000D01*
X126700000Y-75300000D02*
X109900000Y-75300000D01*
X152670000Y-44227500D02*
X151397500Y-45500000D01*
%TO.N,3A8STEP*%
X150130000Y-44227500D02*
X133972500Y-44227500D01*
X126100000Y-73900000D02*
X110500000Y-73900000D01*
X109000000Y-69000000D02*
X108000000Y-68000000D01*
X130000000Y-48200000D02*
X130000000Y-70000000D01*
X110500000Y-73900000D02*
X109000000Y-72400000D01*
X130000000Y-70000000D02*
X126100000Y-73900000D01*
X109000000Y-72400000D02*
X109000000Y-69000000D01*
X133972500Y-44227500D02*
X130000000Y-48200000D01*
%TO.N,4A1STEP*%
X142000000Y-67300000D02*
X142000000Y-84822000D01*
X123698000Y-103124000D02*
X77851000Y-103124000D01*
X72000000Y-97273000D02*
X72000000Y-96020000D01*
X146100000Y-63200000D02*
X142000000Y-67300000D01*
X151477500Y-63200000D02*
X146100000Y-63200000D01*
X152670000Y-62007500D02*
X151477500Y-63200000D01*
X77851000Y-103124000D02*
X72000000Y-97273000D01*
X142000000Y-84822000D02*
X123698000Y-103124000D01*
%TO.N,4A5STEP*%
X123317000Y-102362000D02*
X78105000Y-102362000D01*
X73000000Y-94000000D02*
X72000000Y-93000000D01*
X78105000Y-102362000D02*
X73000000Y-97257000D01*
X150130000Y-62007500D02*
X144992500Y-62007500D01*
X141200000Y-65800000D02*
X141200000Y-84479000D01*
X73000000Y-97257000D02*
X73000000Y-94000000D01*
X144992500Y-62007500D02*
X141200000Y-65800000D01*
X141200000Y-84479000D02*
X123317000Y-102362000D01*
%TO.N,4A2STEP*%
X122936000Y-101600000D02*
X140400000Y-84136000D01*
X88392000Y-101600000D02*
X122936000Y-101600000D01*
X140400000Y-84136000D02*
X140400000Y-64200000D01*
X151437500Y-60700000D02*
X152670000Y-59467500D01*
X140400000Y-64200000D02*
X143900000Y-60700000D01*
X143900000Y-60700000D02*
X151437500Y-60700000D01*
X84000000Y-96020000D02*
X84000000Y-97208000D01*
X84000000Y-97208000D02*
X88392000Y-101600000D01*
%TO.N,4A6STEP*%
X88646000Y-100838000D02*
X85000000Y-97192000D01*
X143232500Y-59467500D02*
X139600000Y-63100000D01*
X139600000Y-63100000D02*
X139600000Y-83793000D01*
X85000000Y-94000000D02*
X84000000Y-93000000D01*
X139600000Y-83793000D02*
X122555000Y-100838000D01*
X85000000Y-97192000D02*
X85000000Y-94000000D01*
X122555000Y-100838000D02*
X88646000Y-100838000D01*
X150130000Y-59467500D02*
X143232500Y-59467500D01*
%TO.N,4A3STEP*%
X96000000Y-97143000D02*
X98933000Y-100076000D01*
X138800000Y-83450000D02*
X138800000Y-61800000D01*
X122174000Y-100076000D02*
X138800000Y-83450000D01*
X96000000Y-96020000D02*
X96000000Y-97143000D01*
X138800000Y-61800000D02*
X142400000Y-58200000D01*
X98933000Y-100076000D02*
X122174000Y-100076000D01*
X151397500Y-58200000D02*
X152670000Y-56927500D01*
X142400000Y-58200000D02*
X151397500Y-58200000D01*
%TO.N,4A7STEP*%
X96000000Y-93000000D02*
X97021989Y-94021989D01*
X138000000Y-60200000D02*
X141272500Y-56927500D01*
X121793000Y-99314000D02*
X138000000Y-83107000D01*
X99441000Y-99314000D02*
X121793000Y-99314000D01*
X141272500Y-56927500D02*
X150130000Y-56927500D01*
X97021989Y-94021989D02*
X97021989Y-96894989D01*
X97021989Y-96894989D02*
X99441000Y-99314000D01*
X138000000Y-83107000D02*
X138000000Y-60200000D01*
%TO.N,4A4STEP*%
X140600000Y-55600000D02*
X151457500Y-55600000D01*
X151457500Y-55600000D02*
X152670000Y-54387500D01*
X121412000Y-98552000D02*
X137200000Y-82764000D01*
X109474000Y-98552000D02*
X121412000Y-98552000D01*
X137200000Y-59000000D02*
X140600000Y-55600000D01*
X137200000Y-82764000D02*
X137200000Y-59000000D01*
X108000000Y-96020000D02*
X108000000Y-97078000D01*
X108000000Y-97078000D02*
X109474000Y-98552000D01*
%TO.N,4A8STEP*%
X109982000Y-97790000D02*
X121110000Y-97790000D01*
X108000000Y-93000000D02*
X109000000Y-94000000D01*
X121110000Y-97790000D02*
X136400000Y-82500000D01*
X139612500Y-54387500D02*
X150130000Y-54387500D01*
X109000000Y-96808000D02*
X109982000Y-97790000D01*
X109000000Y-94000000D02*
X109000000Y-96808000D01*
X136400000Y-57600000D02*
X139612500Y-54387500D01*
X136400000Y-82500000D02*
X136400000Y-57600000D01*
%TD*%
%TA.AperFunction,Conductor*%
%TO.N,GND*%
G36*
X154981621Y-15790502D02*
G01*
X155028114Y-15844158D01*
X155039500Y-15896500D01*
X155039500Y-117293500D01*
X155019498Y-117361621D01*
X154965842Y-117408114D01*
X154913500Y-117419500D01*
X41366500Y-117419500D01*
X41298379Y-117399498D01*
X41251886Y-117345842D01*
X41240500Y-117293500D01*
X41240500Y-110745000D01*
X62386500Y-110745000D01*
X62400337Y-110873705D01*
X62411723Y-110926047D01*
X62458745Y-111061911D01*
X62463087Y-111068493D01*
X62543506Y-111190414D01*
X62543511Y-111190421D01*
X62545779Y-111193859D01*
X62592272Y-111247515D01*
X62611659Y-111268842D01*
X62615460Y-111271905D01*
X62615461Y-111271906D01*
X62728307Y-111362843D01*
X62728310Y-111362845D01*
X62734737Y-111368024D01*
X62879291Y-111431971D01*
X62947412Y-111451973D01*
X62951868Y-111452614D01*
X62951874Y-111452615D01*
X63047780Y-111466404D01*
X63118000Y-111476500D01*
X78333206Y-111476500D01*
X78401327Y-111496502D01*
X78447820Y-111550158D01*
X78457924Y-111620432D01*
X78442326Y-111665499D01*
X78362714Y-111803389D01*
X78331140Y-111900566D01*
X78291067Y-111959172D01*
X78242083Y-111982680D01*
X78242240Y-111983164D01*
X78238628Y-111984338D01*
X78237506Y-111984876D01*
X78235958Y-111985205D01*
X78235953Y-111985207D01*
X78229501Y-111986578D01*
X78223475Y-111989261D01*
X78077007Y-112054473D01*
X78077005Y-112054474D01*
X78070977Y-112057158D01*
X77930590Y-112159155D01*
X77814478Y-112288111D01*
X77727714Y-112438389D01*
X77696140Y-112535566D01*
X77656067Y-112594172D01*
X77607083Y-112617680D01*
X77607240Y-112618164D01*
X77603628Y-112619338D01*
X77602506Y-112619876D01*
X77600958Y-112620205D01*
X77600953Y-112620207D01*
X77594501Y-112621578D01*
X77588475Y-112624261D01*
X77442007Y-112689473D01*
X77442005Y-112689474D01*
X77435977Y-112692158D01*
X77295590Y-112794155D01*
X77179478Y-112923111D01*
X77092714Y-113073389D01*
X77077789Y-113119326D01*
X77070562Y-113141568D01*
X77030489Y-113200174D01*
X76976925Y-113225880D01*
X76838959Y-113255205D01*
X76838956Y-113255206D01*
X76832501Y-113256578D01*
X76826472Y-113259262D01*
X76826470Y-113259263D01*
X76680007Y-113324473D01*
X76680005Y-113324474D01*
X76673977Y-113327158D01*
X76533590Y-113429155D01*
X76417478Y-113558111D01*
X76330714Y-113708389D01*
X76278646Y-113868642D01*
X76238573Y-113927248D01*
X76173177Y-113954886D01*
X76107563Y-113944813D01*
X76062534Y-113924764D01*
X76062526Y-113924761D01*
X76056499Y-113922078D01*
X75970502Y-113903799D01*
X75893221Y-113887372D01*
X75893217Y-113887372D01*
X75886764Y-113886000D01*
X75713236Y-113886000D01*
X75706783Y-113887372D01*
X75706779Y-113887372D01*
X75629498Y-113903799D01*
X75543501Y-113922078D01*
X75537472Y-113924762D01*
X75537470Y-113924763D01*
X75391007Y-113989973D01*
X75391005Y-113989974D01*
X75384977Y-113992658D01*
X75379636Y-113996538D01*
X75379635Y-113996539D01*
X75273735Y-114073480D01*
X75244590Y-114094655D01*
X75240169Y-114099565D01*
X75240168Y-114099566D01*
X75234884Y-114105435D01*
X75128478Y-114223611D01*
X75041714Y-114373889D01*
X75035023Y-114394482D01*
X74991586Y-114528171D01*
X74988092Y-114538924D01*
X74969953Y-114711500D01*
X74988092Y-114884076D01*
X75041714Y-115049111D01*
X75128478Y-115199389D01*
X75132899Y-115204299D01*
X75237226Y-115320166D01*
X75244590Y-115328345D01*
X75384976Y-115430342D01*
X75391004Y-115433026D01*
X75391006Y-115433027D01*
X75537470Y-115498237D01*
X75543501Y-115500922D01*
X75628369Y-115518961D01*
X75706779Y-115535628D01*
X75706783Y-115535628D01*
X75713236Y-115537000D01*
X75886764Y-115537000D01*
X75893217Y-115535628D01*
X75893221Y-115535628D01*
X75971631Y-115518961D01*
X76056499Y-115500922D01*
X76062530Y-115498237D01*
X76208994Y-115433027D01*
X76208996Y-115433026D01*
X76215024Y-115430342D01*
X76355410Y-115328345D01*
X76362775Y-115320166D01*
X76467101Y-115204299D01*
X76471522Y-115199389D01*
X76558286Y-115049111D01*
X76610355Y-114888857D01*
X76650427Y-114830252D01*
X76715823Y-114802614D01*
X76781437Y-114812687D01*
X76826466Y-114832736D01*
X76826474Y-114832739D01*
X76832501Y-114835422D01*
X76917369Y-114853461D01*
X76995779Y-114870128D01*
X76995783Y-114870128D01*
X77002236Y-114871500D01*
X77175764Y-114871500D01*
X77182217Y-114870128D01*
X77182221Y-114870128D01*
X77260631Y-114853461D01*
X77345499Y-114835422D01*
X77419187Y-114802614D01*
X77497994Y-114767527D01*
X77497996Y-114767526D01*
X77504024Y-114764842D01*
X77644410Y-114662845D01*
X77760522Y-114533889D01*
X77847286Y-114383611D01*
X77869438Y-114315432D01*
X77909511Y-114256826D01*
X77963075Y-114231120D01*
X78101041Y-114201795D01*
X78101044Y-114201794D01*
X78107499Y-114200422D01*
X78113530Y-114197737D01*
X78259994Y-114132527D01*
X78259996Y-114132526D01*
X78266024Y-114129842D01*
X78406410Y-114027845D01*
X78522522Y-113898889D01*
X78609286Y-113748611D01*
X78640860Y-113651434D01*
X78680933Y-113592828D01*
X78729917Y-113569320D01*
X78729760Y-113568836D01*
X78733372Y-113567662D01*
X78734494Y-113567124D01*
X78736042Y-113566795D01*
X78736047Y-113566793D01*
X78742499Y-113565422D01*
X78770604Y-113552909D01*
X78894994Y-113497527D01*
X78894996Y-113497526D01*
X78901024Y-113494842D01*
X79041410Y-113392845D01*
X79157522Y-113263889D01*
X79244286Y-113113611D01*
X79275860Y-113016434D01*
X79315933Y-112957828D01*
X79364917Y-112934320D01*
X79364760Y-112933836D01*
X79368372Y-112932662D01*
X79369494Y-112932124D01*
X79371042Y-112931795D01*
X79371047Y-112931793D01*
X79377499Y-112930422D01*
X79405604Y-112917909D01*
X79529994Y-112862527D01*
X79529996Y-112862526D01*
X79536024Y-112859842D01*
X79676410Y-112757845D01*
X79792522Y-112628889D01*
X79879286Y-112478611D01*
X79910860Y-112381434D01*
X79950933Y-112322828D01*
X79999917Y-112299320D01*
X79999760Y-112298836D01*
X80003372Y-112297662D01*
X80004494Y-112297124D01*
X80006042Y-112296795D01*
X80006047Y-112296793D01*
X80012499Y-112295422D01*
X80040604Y-112282909D01*
X80164994Y-112227527D01*
X80164996Y-112227526D01*
X80171024Y-112224842D01*
X80311410Y-112122845D01*
X80427522Y-111993889D01*
X80514286Y-111843611D01*
X80567908Y-111678576D01*
X80570861Y-111650478D01*
X80577289Y-111589328D01*
X80604303Y-111523672D01*
X80662525Y-111483043D01*
X80702599Y-111476500D01*
X86334206Y-111476500D01*
X86402327Y-111496502D01*
X86448820Y-111550158D01*
X86458924Y-111620432D01*
X86443326Y-111665499D01*
X86363714Y-111803389D01*
X86332140Y-111900566D01*
X86292067Y-111959172D01*
X86243083Y-111982680D01*
X86243240Y-111983164D01*
X86239628Y-111984338D01*
X86238506Y-111984876D01*
X86236958Y-111985205D01*
X86236953Y-111985207D01*
X86230501Y-111986578D01*
X86224475Y-111989261D01*
X86078007Y-112054473D01*
X86078005Y-112054474D01*
X86071977Y-112057158D01*
X85931590Y-112159155D01*
X85815478Y-112288111D01*
X85728714Y-112438389D01*
X85697140Y-112535566D01*
X85657067Y-112594172D01*
X85608083Y-112617680D01*
X85608240Y-112618164D01*
X85604628Y-112619338D01*
X85603506Y-112619876D01*
X85601958Y-112620205D01*
X85601953Y-112620207D01*
X85595501Y-112621578D01*
X85589475Y-112624261D01*
X85443007Y-112689473D01*
X85443005Y-112689474D01*
X85436977Y-112692158D01*
X85296590Y-112794155D01*
X85180478Y-112923111D01*
X85093714Y-113073389D01*
X85071562Y-113141568D01*
X85044168Y-113225880D01*
X85040092Y-113238424D01*
X85021953Y-113411000D01*
X85040092Y-113583576D01*
X85042132Y-113589855D01*
X85042133Y-113589859D01*
X85077113Y-113697518D01*
X85079140Y-113768485D01*
X85042477Y-113829283D01*
X84983477Y-113859700D01*
X84833501Y-113891578D01*
X84827472Y-113894262D01*
X84827470Y-113894263D01*
X84681007Y-113959473D01*
X84681005Y-113959474D01*
X84674977Y-113962158D01*
X84669636Y-113966038D01*
X84669635Y-113966039D01*
X84627656Y-113996539D01*
X84534590Y-114064155D01*
X84530169Y-114069065D01*
X84525266Y-114073480D01*
X84524234Y-114072334D01*
X84470512Y-114105435D01*
X84399529Y-114104088D01*
X84363254Y-114085823D01*
X84240366Y-113996539D01*
X84240365Y-113996538D01*
X84235024Y-113992658D01*
X84228996Y-113989974D01*
X84228994Y-113989973D01*
X84082530Y-113924763D01*
X84082529Y-113924763D01*
X84076499Y-113922078D01*
X83990502Y-113903799D01*
X83913221Y-113887372D01*
X83913217Y-113887372D01*
X83906764Y-113886000D01*
X83733236Y-113886000D01*
X83726783Y-113887372D01*
X83726779Y-113887372D01*
X83649498Y-113903799D01*
X83563501Y-113922078D01*
X83557472Y-113924762D01*
X83557470Y-113924763D01*
X83411007Y-113989973D01*
X83411005Y-113989974D01*
X83404977Y-113992658D01*
X83399636Y-113996538D01*
X83399635Y-113996539D01*
X83293735Y-114073480D01*
X83264590Y-114094655D01*
X83260169Y-114099565D01*
X83260168Y-114099566D01*
X83254884Y-114105435D01*
X83148478Y-114223611D01*
X83061714Y-114373889D01*
X83055023Y-114394482D01*
X83011586Y-114528171D01*
X83008092Y-114538924D01*
X82989953Y-114711500D01*
X83008092Y-114884076D01*
X83061714Y-115049111D01*
X83148478Y-115199389D01*
X83152899Y-115204299D01*
X83257226Y-115320166D01*
X83264590Y-115328345D01*
X83404976Y-115430342D01*
X83411004Y-115433026D01*
X83411006Y-115433027D01*
X83557470Y-115498237D01*
X83563501Y-115500922D01*
X83648369Y-115518961D01*
X83726779Y-115535628D01*
X83726783Y-115535628D01*
X83733236Y-115537000D01*
X83906764Y-115537000D01*
X83913217Y-115535628D01*
X83913221Y-115535628D01*
X83991631Y-115518961D01*
X84076499Y-115500922D01*
X84082530Y-115498237D01*
X84228994Y-115433027D01*
X84228996Y-115433026D01*
X84235024Y-115430342D01*
X84375410Y-115328345D01*
X84379832Y-115323433D01*
X84384734Y-115319020D01*
X84385766Y-115320166D01*
X84439488Y-115287065D01*
X84510471Y-115288412D01*
X84546746Y-115306677D01*
X84674976Y-115399842D01*
X84681004Y-115402526D01*
X84681006Y-115402527D01*
X84827470Y-115467737D01*
X84833501Y-115470422D01*
X84918368Y-115488461D01*
X84996779Y-115505128D01*
X84996783Y-115505128D01*
X85003236Y-115506500D01*
X85176764Y-115506500D01*
X85183217Y-115505128D01*
X85183221Y-115505128D01*
X85261632Y-115488461D01*
X85346499Y-115470422D01*
X85352530Y-115467737D01*
X85498994Y-115402527D01*
X85498996Y-115402526D01*
X85505024Y-115399842D01*
X85645410Y-115297845D01*
X85653904Y-115288412D01*
X85757101Y-115173799D01*
X85761522Y-115168889D01*
X85848286Y-115018611D01*
X85889957Y-114890359D01*
X85899867Y-114859859D01*
X85899868Y-114859855D01*
X85901908Y-114853576D01*
X85920047Y-114681000D01*
X85901908Y-114508424D01*
X85864887Y-114394482D01*
X85862860Y-114323515D01*
X85899523Y-114262717D01*
X85958523Y-114232300D01*
X86108499Y-114200422D01*
X86114530Y-114197737D01*
X86260994Y-114132527D01*
X86260996Y-114132526D01*
X86267024Y-114129842D01*
X86382422Y-114046000D01*
X87434953Y-114046000D01*
X87453092Y-114218576D01*
X87455132Y-114224855D01*
X87455133Y-114224859D01*
X87465520Y-114256826D01*
X87506714Y-114383611D01*
X87593478Y-114533889D01*
X87709590Y-114662845D01*
X87849976Y-114764842D01*
X87856004Y-114767526D01*
X87856006Y-114767527D01*
X87934813Y-114802614D01*
X88008501Y-114835422D01*
X88093369Y-114853461D01*
X88171779Y-114870128D01*
X88171783Y-114870128D01*
X88178236Y-114871500D01*
X88351764Y-114871500D01*
X88358217Y-114870128D01*
X88358221Y-114870128D01*
X88436631Y-114853461D01*
X88521499Y-114835422D01*
X88595187Y-114802614D01*
X88673994Y-114767527D01*
X88673996Y-114767526D01*
X88680024Y-114764842D01*
X88820410Y-114662845D01*
X88936522Y-114533889D01*
X89023286Y-114383611D01*
X89064480Y-114256826D01*
X89074867Y-114224859D01*
X89074868Y-114224855D01*
X89076908Y-114218576D01*
X89095047Y-114046000D01*
X89076908Y-113873424D01*
X89071085Y-113855500D01*
X89042812Y-113768485D01*
X89023286Y-113708389D01*
X88936522Y-113558111D01*
X88820410Y-113429155D01*
X88680024Y-113327158D01*
X88673996Y-113324474D01*
X88673994Y-113324473D01*
X88527530Y-113259263D01*
X88527529Y-113259263D01*
X88521499Y-113256578D01*
X88436090Y-113238424D01*
X88358221Y-113221872D01*
X88358217Y-113221872D01*
X88351764Y-113220500D01*
X88178236Y-113220500D01*
X88171783Y-113221872D01*
X88171779Y-113221872D01*
X88093910Y-113238424D01*
X88008501Y-113256578D01*
X88002472Y-113259262D01*
X88002470Y-113259263D01*
X87856007Y-113324473D01*
X87856005Y-113324474D01*
X87849977Y-113327158D01*
X87709590Y-113429155D01*
X87593478Y-113558111D01*
X87506714Y-113708389D01*
X87487188Y-113768485D01*
X87458916Y-113855500D01*
X87453092Y-113873424D01*
X87434953Y-114046000D01*
X86382422Y-114046000D01*
X86407410Y-114027845D01*
X86523522Y-113898889D01*
X86610286Y-113748611D01*
X86641860Y-113651434D01*
X86681933Y-113592828D01*
X86730917Y-113569320D01*
X86730760Y-113568836D01*
X86734372Y-113567662D01*
X86735494Y-113567124D01*
X86737042Y-113566795D01*
X86737047Y-113566793D01*
X86743499Y-113565422D01*
X86771604Y-113552909D01*
X86895994Y-113497527D01*
X86895996Y-113497526D01*
X86902024Y-113494842D01*
X87042410Y-113392845D01*
X87158522Y-113263889D01*
X87245286Y-113113611D01*
X87276860Y-113016434D01*
X87316933Y-112957828D01*
X87365917Y-112934320D01*
X87365760Y-112933836D01*
X87369372Y-112932662D01*
X87370494Y-112932124D01*
X87372042Y-112931795D01*
X87372047Y-112931793D01*
X87378499Y-112930422D01*
X87406604Y-112917909D01*
X87530994Y-112862527D01*
X87530996Y-112862526D01*
X87537024Y-112859842D01*
X87677410Y-112757845D01*
X87793522Y-112628889D01*
X87880286Y-112478611D01*
X87911860Y-112381434D01*
X87951933Y-112322828D01*
X88000917Y-112299320D01*
X88000760Y-112298836D01*
X88004372Y-112297662D01*
X88005494Y-112297124D01*
X88007042Y-112296795D01*
X88007047Y-112296793D01*
X88013499Y-112295422D01*
X88041604Y-112282909D01*
X88165994Y-112227527D01*
X88165996Y-112227526D01*
X88172024Y-112224842D01*
X88312410Y-112122845D01*
X88428522Y-111993889D01*
X88515286Y-111843611D01*
X88568908Y-111678576D01*
X88571861Y-111650478D01*
X88578289Y-111589328D01*
X88605303Y-111523672D01*
X88663525Y-111483043D01*
X88703599Y-111476500D01*
X94335206Y-111476500D01*
X94403327Y-111496502D01*
X94449820Y-111550158D01*
X94459924Y-111620432D01*
X94444326Y-111665499D01*
X94364714Y-111803389D01*
X94333140Y-111900566D01*
X94293067Y-111959172D01*
X94244083Y-111982680D01*
X94244240Y-111983164D01*
X94240628Y-111984338D01*
X94239506Y-111984876D01*
X94237958Y-111985205D01*
X94237953Y-111985207D01*
X94231501Y-111986578D01*
X94225475Y-111989261D01*
X94079007Y-112054473D01*
X94079005Y-112054474D01*
X94072977Y-112057158D01*
X93932590Y-112159155D01*
X93816478Y-112288111D01*
X93729714Y-112438389D01*
X93698140Y-112535566D01*
X93658067Y-112594172D01*
X93609083Y-112617680D01*
X93609240Y-112618164D01*
X93605628Y-112619338D01*
X93604506Y-112619876D01*
X93602958Y-112620205D01*
X93602953Y-112620207D01*
X93596501Y-112621578D01*
X93590475Y-112624261D01*
X93444007Y-112689473D01*
X93444005Y-112689474D01*
X93437977Y-112692158D01*
X93297590Y-112794155D01*
X93181478Y-112923111D01*
X93094714Y-113073389D01*
X93072562Y-113141568D01*
X93045168Y-113225880D01*
X93041092Y-113238424D01*
X93022953Y-113411000D01*
X93041092Y-113583576D01*
X93043132Y-113589855D01*
X93043133Y-113589859D01*
X93078113Y-113697518D01*
X93080140Y-113768485D01*
X93043477Y-113829283D01*
X92984477Y-113859700D01*
X92834501Y-113891578D01*
X92828472Y-113894262D01*
X92828470Y-113894263D01*
X92682007Y-113959473D01*
X92682005Y-113959474D01*
X92675977Y-113962158D01*
X92670636Y-113966038D01*
X92670635Y-113966039D01*
X92628656Y-113996539D01*
X92535590Y-114064155D01*
X92531169Y-114069065D01*
X92526266Y-114073480D01*
X92525234Y-114072334D01*
X92471512Y-114105435D01*
X92400529Y-114104088D01*
X92364254Y-114085823D01*
X92241366Y-113996539D01*
X92241365Y-113996538D01*
X92236024Y-113992658D01*
X92229996Y-113989974D01*
X92229994Y-113989973D01*
X92083530Y-113924763D01*
X92083529Y-113924763D01*
X92077499Y-113922078D01*
X91991502Y-113903799D01*
X91914221Y-113887372D01*
X91914217Y-113887372D01*
X91907764Y-113886000D01*
X91734236Y-113886000D01*
X91727783Y-113887372D01*
X91727779Y-113887372D01*
X91650498Y-113903799D01*
X91564501Y-113922078D01*
X91558472Y-113924762D01*
X91558470Y-113924763D01*
X91412007Y-113989973D01*
X91412005Y-113989974D01*
X91405977Y-113992658D01*
X91400636Y-113996538D01*
X91400635Y-113996539D01*
X91294735Y-114073480D01*
X91265590Y-114094655D01*
X91261169Y-114099565D01*
X91261168Y-114099566D01*
X91255884Y-114105435D01*
X91149478Y-114223611D01*
X91062714Y-114373889D01*
X91056023Y-114394482D01*
X91012586Y-114528171D01*
X91009092Y-114538924D01*
X90990953Y-114711500D01*
X91009092Y-114884076D01*
X91062714Y-115049111D01*
X91149478Y-115199389D01*
X91153899Y-115204299D01*
X91258226Y-115320166D01*
X91265590Y-115328345D01*
X91405976Y-115430342D01*
X91412004Y-115433026D01*
X91412006Y-115433027D01*
X91558470Y-115498237D01*
X91564501Y-115500922D01*
X91649369Y-115518961D01*
X91727779Y-115535628D01*
X91727783Y-115535628D01*
X91734236Y-115537000D01*
X91907764Y-115537000D01*
X91914217Y-115535628D01*
X91914221Y-115535628D01*
X91992631Y-115518961D01*
X92077499Y-115500922D01*
X92083530Y-115498237D01*
X92229994Y-115433027D01*
X92229996Y-115433026D01*
X92236024Y-115430342D01*
X92376410Y-115328345D01*
X92380832Y-115323433D01*
X92385734Y-115319020D01*
X92386766Y-115320166D01*
X92440488Y-115287065D01*
X92511471Y-115288412D01*
X92547746Y-115306677D01*
X92675976Y-115399842D01*
X92682004Y-115402526D01*
X92682006Y-115402527D01*
X92828470Y-115467737D01*
X92834501Y-115470422D01*
X92919368Y-115488461D01*
X92997779Y-115505128D01*
X92997783Y-115505128D01*
X93004236Y-115506500D01*
X93177764Y-115506500D01*
X93184217Y-115505128D01*
X93184221Y-115505128D01*
X93262632Y-115488461D01*
X93347499Y-115470422D01*
X93353530Y-115467737D01*
X93499994Y-115402527D01*
X93499996Y-115402526D01*
X93506024Y-115399842D01*
X93646410Y-115297845D01*
X93654904Y-115288412D01*
X93758101Y-115173799D01*
X93762522Y-115168889D01*
X93849286Y-115018611D01*
X93890957Y-114890359D01*
X93900867Y-114859859D01*
X93900868Y-114859855D01*
X93902908Y-114853576D01*
X93921047Y-114681000D01*
X93902908Y-114508424D01*
X93865887Y-114394482D01*
X93863860Y-114323515D01*
X93900523Y-114262717D01*
X93959523Y-114232300D01*
X94109499Y-114200422D01*
X94115530Y-114197737D01*
X94261994Y-114132527D01*
X94261996Y-114132526D01*
X94268024Y-114129842D01*
X94383422Y-114046000D01*
X95562953Y-114046000D01*
X95581092Y-114218576D01*
X95583132Y-114224855D01*
X95583133Y-114224859D01*
X95593520Y-114256826D01*
X95634714Y-114383611D01*
X95721478Y-114533889D01*
X95837590Y-114662845D01*
X95977976Y-114764842D01*
X95984004Y-114767526D01*
X95984006Y-114767527D01*
X96062813Y-114802614D01*
X96136501Y-114835422D01*
X96221369Y-114853461D01*
X96299779Y-114870128D01*
X96299783Y-114870128D01*
X96306236Y-114871500D01*
X96479764Y-114871500D01*
X96486217Y-114870128D01*
X96486221Y-114870128D01*
X96564631Y-114853461D01*
X96649499Y-114835422D01*
X96723187Y-114802614D01*
X96801994Y-114767527D01*
X96801996Y-114767526D01*
X96808024Y-114764842D01*
X96948410Y-114662845D01*
X97064522Y-114533889D01*
X97151286Y-114383611D01*
X97192480Y-114256826D01*
X97202867Y-114224859D01*
X97202868Y-114224855D01*
X97204908Y-114218576D01*
X97223047Y-114046000D01*
X97204908Y-113873424D01*
X97199085Y-113855500D01*
X97170812Y-113768485D01*
X97151286Y-113708389D01*
X97064522Y-113558111D01*
X96948410Y-113429155D01*
X96808024Y-113327158D01*
X96801996Y-113324474D01*
X96801994Y-113324473D01*
X96655530Y-113259263D01*
X96655529Y-113259263D01*
X96649499Y-113256578D01*
X96564090Y-113238424D01*
X96486221Y-113221872D01*
X96486217Y-113221872D01*
X96479764Y-113220500D01*
X96306236Y-113220500D01*
X96299783Y-113221872D01*
X96299779Y-113221872D01*
X96221910Y-113238424D01*
X96136501Y-113256578D01*
X96130472Y-113259262D01*
X96130470Y-113259263D01*
X95984007Y-113324473D01*
X95984005Y-113324474D01*
X95977977Y-113327158D01*
X95837590Y-113429155D01*
X95721478Y-113558111D01*
X95634714Y-113708389D01*
X95615188Y-113768485D01*
X95586916Y-113855500D01*
X95581092Y-113873424D01*
X95562953Y-114046000D01*
X94383422Y-114046000D01*
X94408410Y-114027845D01*
X94524522Y-113898889D01*
X94611286Y-113748611D01*
X94642860Y-113651434D01*
X94682933Y-113592828D01*
X94731917Y-113569320D01*
X94731760Y-113568836D01*
X94735372Y-113567662D01*
X94736494Y-113567124D01*
X94738042Y-113566795D01*
X94738047Y-113566793D01*
X94744499Y-113565422D01*
X94772604Y-113552909D01*
X94896994Y-113497527D01*
X94896996Y-113497526D01*
X94903024Y-113494842D01*
X95043410Y-113392845D01*
X95159522Y-113263889D01*
X95246286Y-113113611D01*
X95277860Y-113016434D01*
X95317933Y-112957828D01*
X95366917Y-112934320D01*
X95366760Y-112933836D01*
X95370372Y-112932662D01*
X95371494Y-112932124D01*
X95373042Y-112931795D01*
X95373047Y-112931793D01*
X95379499Y-112930422D01*
X95407604Y-112917909D01*
X95531994Y-112862527D01*
X95531996Y-112862526D01*
X95538024Y-112859842D01*
X95678410Y-112757845D01*
X95794522Y-112628889D01*
X95881286Y-112478611D01*
X95912860Y-112381434D01*
X95952933Y-112322828D01*
X96001917Y-112299320D01*
X96001760Y-112298836D01*
X96005372Y-112297662D01*
X96006494Y-112297124D01*
X96008042Y-112296795D01*
X96008047Y-112296793D01*
X96014499Y-112295422D01*
X96042604Y-112282909D01*
X96166994Y-112227527D01*
X96166996Y-112227526D01*
X96173024Y-112224842D01*
X96313410Y-112122845D01*
X96429522Y-111993889D01*
X96516286Y-111843611D01*
X96569908Y-111678576D01*
X96572861Y-111650478D01*
X96579289Y-111589328D01*
X96606303Y-111523672D01*
X96664525Y-111483043D01*
X96704599Y-111476500D01*
X102336206Y-111476500D01*
X102404327Y-111496502D01*
X102450820Y-111550158D01*
X102460924Y-111620432D01*
X102445326Y-111665499D01*
X102365714Y-111803389D01*
X102334140Y-111900566D01*
X102294067Y-111959172D01*
X102245083Y-111982680D01*
X102245240Y-111983164D01*
X102241628Y-111984338D01*
X102240506Y-111984876D01*
X102238958Y-111985205D01*
X102238953Y-111985207D01*
X102232501Y-111986578D01*
X102226475Y-111989261D01*
X102080007Y-112054473D01*
X102080005Y-112054474D01*
X102073977Y-112057158D01*
X101933590Y-112159155D01*
X101817478Y-112288111D01*
X101730714Y-112438389D01*
X101699140Y-112535566D01*
X101659067Y-112594172D01*
X101610083Y-112617680D01*
X101610240Y-112618164D01*
X101606628Y-112619338D01*
X101605506Y-112619876D01*
X101603958Y-112620205D01*
X101603953Y-112620207D01*
X101597501Y-112621578D01*
X101591475Y-112624261D01*
X101445007Y-112689473D01*
X101445005Y-112689474D01*
X101438977Y-112692158D01*
X101298590Y-112794155D01*
X101182478Y-112923111D01*
X101095714Y-113073389D01*
X101073562Y-113141568D01*
X101046168Y-113225880D01*
X101042092Y-113238424D01*
X101023953Y-113411000D01*
X101042092Y-113583576D01*
X101044132Y-113589855D01*
X101044133Y-113589859D01*
X101079113Y-113697518D01*
X101081140Y-113768485D01*
X101044477Y-113829283D01*
X100985477Y-113859700D01*
X100835501Y-113891578D01*
X100829472Y-113894262D01*
X100829470Y-113894263D01*
X100683007Y-113959473D01*
X100683005Y-113959474D01*
X100676977Y-113962158D01*
X100671636Y-113966038D01*
X100671635Y-113966039D01*
X100629656Y-113996539D01*
X100536590Y-114064155D01*
X100532169Y-114069065D01*
X100527266Y-114073480D01*
X100526234Y-114072334D01*
X100472512Y-114105435D01*
X100401529Y-114104088D01*
X100365254Y-114085823D01*
X100242366Y-113996539D01*
X100242365Y-113996538D01*
X100237024Y-113992658D01*
X100230996Y-113989974D01*
X100230994Y-113989973D01*
X100084530Y-113924763D01*
X100084529Y-113924763D01*
X100078499Y-113922078D01*
X99992502Y-113903799D01*
X99915221Y-113887372D01*
X99915217Y-113887372D01*
X99908764Y-113886000D01*
X99735236Y-113886000D01*
X99728783Y-113887372D01*
X99728779Y-113887372D01*
X99651498Y-113903799D01*
X99565501Y-113922078D01*
X99559472Y-113924762D01*
X99559470Y-113924763D01*
X99413007Y-113989973D01*
X99413005Y-113989974D01*
X99406977Y-113992658D01*
X99401636Y-113996538D01*
X99401635Y-113996539D01*
X99295735Y-114073480D01*
X99266590Y-114094655D01*
X99262169Y-114099565D01*
X99262168Y-114099566D01*
X99256884Y-114105435D01*
X99150478Y-114223611D01*
X99063714Y-114373889D01*
X99057023Y-114394482D01*
X99013586Y-114528171D01*
X99010092Y-114538924D01*
X98991953Y-114711500D01*
X99010092Y-114884076D01*
X99063714Y-115049111D01*
X99150478Y-115199389D01*
X99154899Y-115204299D01*
X99259226Y-115320166D01*
X99266590Y-115328345D01*
X99406976Y-115430342D01*
X99413004Y-115433026D01*
X99413006Y-115433027D01*
X99559470Y-115498237D01*
X99565501Y-115500922D01*
X99650369Y-115518961D01*
X99728779Y-115535628D01*
X99728783Y-115535628D01*
X99735236Y-115537000D01*
X99908764Y-115537000D01*
X99915217Y-115535628D01*
X99915221Y-115535628D01*
X99993631Y-115518961D01*
X100078499Y-115500922D01*
X100084530Y-115498237D01*
X100230994Y-115433027D01*
X100230996Y-115433026D01*
X100237024Y-115430342D01*
X100377410Y-115328345D01*
X100381832Y-115323433D01*
X100386734Y-115319020D01*
X100387766Y-115320166D01*
X100441488Y-115287065D01*
X100512471Y-115288412D01*
X100548746Y-115306677D01*
X100676976Y-115399842D01*
X100683004Y-115402526D01*
X100683006Y-115402527D01*
X100829470Y-115467737D01*
X100835501Y-115470422D01*
X100920368Y-115488461D01*
X100998779Y-115505128D01*
X100998783Y-115505128D01*
X101005236Y-115506500D01*
X101178764Y-115506500D01*
X101185217Y-115505128D01*
X101185221Y-115505128D01*
X101263632Y-115488461D01*
X101348499Y-115470422D01*
X101354530Y-115467737D01*
X101500994Y-115402527D01*
X101500996Y-115402526D01*
X101507024Y-115399842D01*
X101647410Y-115297845D01*
X101655904Y-115288412D01*
X101759101Y-115173799D01*
X101763522Y-115168889D01*
X101850286Y-115018611D01*
X101891957Y-114890359D01*
X101901867Y-114859859D01*
X101901868Y-114859855D01*
X101903908Y-114853576D01*
X101922047Y-114681000D01*
X101903908Y-114508424D01*
X101866887Y-114394482D01*
X101864860Y-114323515D01*
X101901523Y-114262717D01*
X101960523Y-114232300D01*
X102110499Y-114200422D01*
X102116530Y-114197737D01*
X102262994Y-114132527D01*
X102262996Y-114132526D01*
X102269024Y-114129842D01*
X102384422Y-114046000D01*
X103563953Y-114046000D01*
X103582092Y-114218576D01*
X103584132Y-114224855D01*
X103584133Y-114224859D01*
X103594520Y-114256826D01*
X103635714Y-114383611D01*
X103722478Y-114533889D01*
X103838590Y-114662845D01*
X103978976Y-114764842D01*
X103985004Y-114767526D01*
X103985006Y-114767527D01*
X104063813Y-114802614D01*
X104137501Y-114835422D01*
X104222369Y-114853461D01*
X104300779Y-114870128D01*
X104300783Y-114870128D01*
X104307236Y-114871500D01*
X104480764Y-114871500D01*
X104487217Y-114870128D01*
X104487221Y-114870128D01*
X104565631Y-114853461D01*
X104650499Y-114835422D01*
X104724187Y-114802614D01*
X104802994Y-114767527D01*
X104802996Y-114767526D01*
X104809024Y-114764842D01*
X104949410Y-114662845D01*
X105065522Y-114533889D01*
X105152286Y-114383611D01*
X105193480Y-114256826D01*
X105203867Y-114224859D01*
X105203868Y-114224855D01*
X105205908Y-114218576D01*
X105224047Y-114046000D01*
X105205908Y-113873424D01*
X105200085Y-113855500D01*
X105171812Y-113768485D01*
X105152286Y-113708389D01*
X105065522Y-113558111D01*
X104949410Y-113429155D01*
X104809024Y-113327158D01*
X104802996Y-113324474D01*
X104802994Y-113324473D01*
X104656530Y-113259263D01*
X104656529Y-113259263D01*
X104650499Y-113256578D01*
X104565090Y-113238424D01*
X104487221Y-113221872D01*
X104487217Y-113221872D01*
X104480764Y-113220500D01*
X104307236Y-113220500D01*
X104300783Y-113221872D01*
X104300779Y-113221872D01*
X104222910Y-113238424D01*
X104137501Y-113256578D01*
X104131472Y-113259262D01*
X104131470Y-113259263D01*
X103985007Y-113324473D01*
X103985005Y-113324474D01*
X103978977Y-113327158D01*
X103838590Y-113429155D01*
X103722478Y-113558111D01*
X103635714Y-113708389D01*
X103616188Y-113768485D01*
X103587916Y-113855500D01*
X103582092Y-113873424D01*
X103563953Y-114046000D01*
X102384422Y-114046000D01*
X102409410Y-114027845D01*
X102525522Y-113898889D01*
X102612286Y-113748611D01*
X102643860Y-113651434D01*
X102683933Y-113592828D01*
X102732917Y-113569320D01*
X102732760Y-113568836D01*
X102736372Y-113567662D01*
X102737494Y-113567124D01*
X102739042Y-113566795D01*
X102739047Y-113566793D01*
X102745499Y-113565422D01*
X102773604Y-113552909D01*
X102897994Y-113497527D01*
X102897996Y-113497526D01*
X102904024Y-113494842D01*
X103044410Y-113392845D01*
X103160522Y-113263889D01*
X103247286Y-113113611D01*
X103278860Y-113016434D01*
X103318933Y-112957828D01*
X103367917Y-112934320D01*
X103367760Y-112933836D01*
X103371372Y-112932662D01*
X103372494Y-112932124D01*
X103374042Y-112931795D01*
X103374047Y-112931793D01*
X103380499Y-112930422D01*
X103408604Y-112917909D01*
X103532994Y-112862527D01*
X103532996Y-112862526D01*
X103539024Y-112859842D01*
X103679410Y-112757845D01*
X103795522Y-112628889D01*
X103882286Y-112478611D01*
X103913860Y-112381434D01*
X103953933Y-112322828D01*
X104002917Y-112299320D01*
X104002760Y-112298836D01*
X104006372Y-112297662D01*
X104007494Y-112297124D01*
X104009042Y-112296795D01*
X104009047Y-112296793D01*
X104015499Y-112295422D01*
X104043604Y-112282909D01*
X104167994Y-112227527D01*
X104167996Y-112227526D01*
X104174024Y-112224842D01*
X104314410Y-112122845D01*
X104430522Y-111993889D01*
X104517286Y-111843611D01*
X104570908Y-111678576D01*
X104573861Y-111650478D01*
X104580289Y-111589328D01*
X104607303Y-111523672D01*
X104665525Y-111483043D01*
X104705599Y-111476500D01*
X110337206Y-111476500D01*
X110405327Y-111496502D01*
X110451820Y-111550158D01*
X110461924Y-111620432D01*
X110446326Y-111665499D01*
X110366714Y-111803389D01*
X110335140Y-111900566D01*
X110295067Y-111959172D01*
X110246083Y-111982680D01*
X110246240Y-111983164D01*
X110242628Y-111984338D01*
X110241506Y-111984876D01*
X110239958Y-111985205D01*
X110239953Y-111985207D01*
X110233501Y-111986578D01*
X110227475Y-111989261D01*
X110081007Y-112054473D01*
X110081005Y-112054474D01*
X110074977Y-112057158D01*
X109934590Y-112159155D01*
X109818478Y-112288111D01*
X109731714Y-112438389D01*
X109700140Y-112535566D01*
X109660067Y-112594172D01*
X109611083Y-112617680D01*
X109611240Y-112618164D01*
X109607628Y-112619338D01*
X109606506Y-112619876D01*
X109604958Y-112620205D01*
X109604953Y-112620207D01*
X109598501Y-112621578D01*
X109592475Y-112624261D01*
X109446007Y-112689473D01*
X109446005Y-112689474D01*
X109439977Y-112692158D01*
X109299590Y-112794155D01*
X109183478Y-112923111D01*
X109096714Y-113073389D01*
X109074562Y-113141568D01*
X109047168Y-113225880D01*
X109043092Y-113238424D01*
X109024953Y-113411000D01*
X109043092Y-113583576D01*
X109045132Y-113589855D01*
X109045133Y-113589859D01*
X109080113Y-113697518D01*
X109082140Y-113768485D01*
X109045477Y-113829283D01*
X108986477Y-113859700D01*
X108836501Y-113891578D01*
X108830472Y-113894262D01*
X108830470Y-113894263D01*
X108684007Y-113959473D01*
X108684005Y-113959474D01*
X108677977Y-113962158D01*
X108672636Y-113966038D01*
X108672635Y-113966039D01*
X108630656Y-113996539D01*
X108537590Y-114064155D01*
X108533169Y-114069065D01*
X108528266Y-114073480D01*
X108527234Y-114072334D01*
X108473512Y-114105435D01*
X108402529Y-114104088D01*
X108366254Y-114085823D01*
X108243366Y-113996539D01*
X108243365Y-113996538D01*
X108238024Y-113992658D01*
X108231996Y-113989974D01*
X108231994Y-113989973D01*
X108085530Y-113924763D01*
X108085529Y-113924763D01*
X108079499Y-113922078D01*
X107993502Y-113903799D01*
X107916221Y-113887372D01*
X107916217Y-113887372D01*
X107909764Y-113886000D01*
X107736236Y-113886000D01*
X107729783Y-113887372D01*
X107729779Y-113887372D01*
X107652498Y-113903799D01*
X107566501Y-113922078D01*
X107560472Y-113924762D01*
X107560470Y-113924763D01*
X107414007Y-113989973D01*
X107414005Y-113989974D01*
X107407977Y-113992658D01*
X107402636Y-113996538D01*
X107402635Y-113996539D01*
X107296735Y-114073480D01*
X107267590Y-114094655D01*
X107263169Y-114099565D01*
X107263168Y-114099566D01*
X107257884Y-114105435D01*
X107151478Y-114223611D01*
X107064714Y-114373889D01*
X107058023Y-114394482D01*
X107014586Y-114528171D01*
X107011092Y-114538924D01*
X106992953Y-114711500D01*
X107011092Y-114884076D01*
X107064714Y-115049111D01*
X107151478Y-115199389D01*
X107155899Y-115204299D01*
X107260226Y-115320166D01*
X107267590Y-115328345D01*
X107407976Y-115430342D01*
X107414004Y-115433026D01*
X107414006Y-115433027D01*
X107560470Y-115498237D01*
X107566501Y-115500922D01*
X107651369Y-115518961D01*
X107729779Y-115535628D01*
X107729783Y-115535628D01*
X107736236Y-115537000D01*
X107909764Y-115537000D01*
X107916217Y-115535628D01*
X107916221Y-115535628D01*
X107994631Y-115518961D01*
X108079499Y-115500922D01*
X108085530Y-115498237D01*
X108231994Y-115433027D01*
X108231996Y-115433026D01*
X108238024Y-115430342D01*
X108378410Y-115328345D01*
X108382832Y-115323433D01*
X108387734Y-115319020D01*
X108388766Y-115320166D01*
X108442488Y-115287065D01*
X108513471Y-115288412D01*
X108549746Y-115306677D01*
X108677976Y-115399842D01*
X108684004Y-115402526D01*
X108684006Y-115402527D01*
X108830470Y-115467737D01*
X108836501Y-115470422D01*
X108921368Y-115488461D01*
X108999779Y-115505128D01*
X108999783Y-115505128D01*
X109006236Y-115506500D01*
X109179764Y-115506500D01*
X109186217Y-115505128D01*
X109186221Y-115505128D01*
X109264632Y-115488461D01*
X109349499Y-115470422D01*
X109355530Y-115467737D01*
X109501994Y-115402527D01*
X109501996Y-115402526D01*
X109508024Y-115399842D01*
X109648410Y-115297845D01*
X109656904Y-115288412D01*
X109760101Y-115173799D01*
X109764522Y-115168889D01*
X109851286Y-115018611D01*
X109892957Y-114890359D01*
X109902867Y-114859859D01*
X109902868Y-114859855D01*
X109904908Y-114853576D01*
X109923047Y-114681000D01*
X109904908Y-114508424D01*
X109867887Y-114394482D01*
X109865860Y-114323515D01*
X109902523Y-114262717D01*
X109961523Y-114232300D01*
X110111499Y-114200422D01*
X110117530Y-114197737D01*
X110263994Y-114132527D01*
X110263996Y-114132526D01*
X110270024Y-114129842D01*
X110385422Y-114046000D01*
X111564953Y-114046000D01*
X111583092Y-114218576D01*
X111585132Y-114224855D01*
X111585133Y-114224859D01*
X111595520Y-114256826D01*
X111636714Y-114383611D01*
X111723478Y-114533889D01*
X111839590Y-114662845D01*
X111979976Y-114764842D01*
X111986004Y-114767526D01*
X111986006Y-114767527D01*
X112064813Y-114802614D01*
X112138501Y-114835422D01*
X112223369Y-114853461D01*
X112301779Y-114870128D01*
X112301783Y-114870128D01*
X112308236Y-114871500D01*
X112481764Y-114871500D01*
X112488217Y-114870128D01*
X112488221Y-114870128D01*
X112566631Y-114853461D01*
X112651499Y-114835422D01*
X112725187Y-114802614D01*
X112803994Y-114767527D01*
X112803996Y-114767526D01*
X112810024Y-114764842D01*
X112950410Y-114662845D01*
X113066522Y-114533889D01*
X113153286Y-114383611D01*
X113194480Y-114256826D01*
X113204867Y-114224859D01*
X113204868Y-114224855D01*
X113206908Y-114218576D01*
X113225047Y-114046000D01*
X113206908Y-113873424D01*
X113201085Y-113855500D01*
X113172812Y-113768485D01*
X113153286Y-113708389D01*
X113066522Y-113558111D01*
X112950410Y-113429155D01*
X112810024Y-113327158D01*
X112803996Y-113324474D01*
X112803994Y-113324473D01*
X112657530Y-113259263D01*
X112657529Y-113259263D01*
X112651499Y-113256578D01*
X112566090Y-113238424D01*
X112488221Y-113221872D01*
X112488217Y-113221872D01*
X112481764Y-113220500D01*
X112308236Y-113220500D01*
X112301783Y-113221872D01*
X112301779Y-113221872D01*
X112223910Y-113238424D01*
X112138501Y-113256578D01*
X112132472Y-113259262D01*
X112132470Y-113259263D01*
X111986007Y-113324473D01*
X111986005Y-113324474D01*
X111979977Y-113327158D01*
X111839590Y-113429155D01*
X111723478Y-113558111D01*
X111636714Y-113708389D01*
X111617188Y-113768485D01*
X111588916Y-113855500D01*
X111583092Y-113873424D01*
X111564953Y-114046000D01*
X110385422Y-114046000D01*
X110410410Y-114027845D01*
X110526522Y-113898889D01*
X110613286Y-113748611D01*
X110644860Y-113651434D01*
X110684933Y-113592828D01*
X110733917Y-113569320D01*
X110733760Y-113568836D01*
X110737372Y-113567662D01*
X110738494Y-113567124D01*
X110740042Y-113566795D01*
X110740047Y-113566793D01*
X110746499Y-113565422D01*
X110774604Y-113552909D01*
X110898994Y-113497527D01*
X110898996Y-113497526D01*
X110905024Y-113494842D01*
X111045410Y-113392845D01*
X111161522Y-113263889D01*
X111248286Y-113113611D01*
X111279860Y-113016434D01*
X111319933Y-112957828D01*
X111368917Y-112934320D01*
X111368760Y-112933836D01*
X111372372Y-112932662D01*
X111373494Y-112932124D01*
X111375042Y-112931795D01*
X111375047Y-112931793D01*
X111381499Y-112930422D01*
X111409604Y-112917909D01*
X111533994Y-112862527D01*
X111533996Y-112862526D01*
X111540024Y-112859842D01*
X111680410Y-112757845D01*
X111796522Y-112628889D01*
X111883286Y-112478611D01*
X111914860Y-112381434D01*
X111954933Y-112322828D01*
X112003917Y-112299320D01*
X112003760Y-112298836D01*
X112007372Y-112297662D01*
X112008494Y-112297124D01*
X112010042Y-112296795D01*
X112010047Y-112296793D01*
X112016499Y-112295422D01*
X112044604Y-112282909D01*
X112168994Y-112227527D01*
X112168996Y-112227526D01*
X112175024Y-112224842D01*
X112315410Y-112122845D01*
X112431522Y-111993889D01*
X112518286Y-111843611D01*
X112571908Y-111678576D01*
X112574861Y-111650478D01*
X112581289Y-111589328D01*
X112608303Y-111523672D01*
X112666525Y-111483043D01*
X112706599Y-111476500D01*
X123545206Y-111476500D01*
X123613327Y-111496502D01*
X123659820Y-111550158D01*
X123669924Y-111620432D01*
X123654326Y-111665499D01*
X123574714Y-111803389D01*
X123521092Y-111968424D01*
X123502953Y-112141000D01*
X123521092Y-112313576D01*
X123574714Y-112478611D01*
X123661478Y-112628889D01*
X123777590Y-112757845D01*
X123917976Y-112859842D01*
X123924004Y-112862526D01*
X123924006Y-112862527D01*
X124049052Y-112918201D01*
X124076501Y-112930422D01*
X124155958Y-112947311D01*
X124239779Y-112965128D01*
X124239783Y-112965128D01*
X124246236Y-112966500D01*
X124419764Y-112966500D01*
X124426217Y-112965128D01*
X124426221Y-112965128D01*
X124510042Y-112947311D01*
X124589499Y-112930422D01*
X124616948Y-112918201D01*
X124741994Y-112862527D01*
X124741996Y-112862526D01*
X124748024Y-112859842D01*
X124888410Y-112757845D01*
X125004522Y-112628889D01*
X125091286Y-112478611D01*
X125144908Y-112313576D01*
X125163047Y-112141000D01*
X125144908Y-111968424D01*
X125091286Y-111803389D01*
X125011675Y-111665500D01*
X124994937Y-111596506D01*
X125018157Y-111529414D01*
X125073964Y-111485526D01*
X125120794Y-111476500D01*
X127355206Y-111476500D01*
X127423327Y-111496502D01*
X127469820Y-111550158D01*
X127479924Y-111620432D01*
X127464326Y-111665499D01*
X127384714Y-111803389D01*
X127331092Y-111968424D01*
X127312953Y-112141000D01*
X127331092Y-112313576D01*
X127384714Y-112478611D01*
X127471478Y-112628889D01*
X127587590Y-112757845D01*
X127727976Y-112859842D01*
X127734004Y-112862526D01*
X127734006Y-112862527D01*
X127859052Y-112918201D01*
X127886501Y-112930422D01*
X127965958Y-112947311D01*
X128049779Y-112965128D01*
X128049783Y-112965128D01*
X128056236Y-112966500D01*
X128229764Y-112966500D01*
X128236217Y-112965128D01*
X128236221Y-112965128D01*
X128320042Y-112947311D01*
X128399499Y-112930422D01*
X128426948Y-112918201D01*
X128551994Y-112862527D01*
X128551996Y-112862526D01*
X128558024Y-112859842D01*
X128698410Y-112757845D01*
X128814522Y-112628889D01*
X128901286Y-112478611D01*
X128954908Y-112313576D01*
X128973047Y-112141000D01*
X128954908Y-111968424D01*
X128901286Y-111803389D01*
X128821675Y-111665500D01*
X128804937Y-111596506D01*
X128828157Y-111529414D01*
X128883964Y-111485526D01*
X128930794Y-111476500D01*
X129741810Y-111476500D01*
X129776036Y-111474666D01*
X129804832Y-111473123D01*
X129804842Y-111473122D01*
X129806525Y-111473032D01*
X129833308Y-111470153D01*
X129911358Y-111456550D01*
X129979243Y-111430304D01*
X130054945Y-111401036D01*
X130054950Y-111401033D01*
X130058790Y-111399549D01*
X130062400Y-111397577D01*
X130062408Y-111397574D01*
X130084185Y-111385682D01*
X130084193Y-111385678D01*
X130117141Y-111367687D01*
X130117146Y-111367684D01*
X130121094Y-111365528D01*
X130124692Y-111362835D01*
X130124696Y-111362832D01*
X130255456Y-111264945D01*
X130255461Y-111264941D01*
X130259058Y-111262248D01*
X132971306Y-108550000D01*
X149140708Y-108550000D01*
X149159839Y-108768674D01*
X149216653Y-108980703D01*
X149218978Y-108985688D01*
X149307095Y-109174659D01*
X149307098Y-109174664D01*
X149309421Y-109179646D01*
X149435326Y-109359457D01*
X149590543Y-109514674D01*
X149595051Y-109517831D01*
X149595054Y-109517833D01*
X149765845Y-109637422D01*
X149770354Y-109640579D01*
X149775336Y-109642902D01*
X149775341Y-109642905D01*
X149876116Y-109689896D01*
X149969297Y-109733347D01*
X150181326Y-109790161D01*
X150400000Y-109809292D01*
X150618674Y-109790161D01*
X150830703Y-109733347D01*
X150923884Y-109689896D01*
X151024659Y-109642905D01*
X151024664Y-109642902D01*
X151029646Y-109640579D01*
X151034155Y-109637422D01*
X151204946Y-109517833D01*
X151204949Y-109517831D01*
X151209457Y-109514674D01*
X151310905Y-109413226D01*
X151373217Y-109379200D01*
X151444032Y-109384265D01*
X151489095Y-109413226D01*
X151590543Y-109514674D01*
X151595051Y-109517831D01*
X151595054Y-109517833D01*
X151765845Y-109637422D01*
X151770354Y-109640579D01*
X151775336Y-109642902D01*
X151775341Y-109642905D01*
X151876116Y-109689896D01*
X151969297Y-109733347D01*
X152181326Y-109790161D01*
X152400000Y-109809292D01*
X152618674Y-109790161D01*
X152830703Y-109733347D01*
X152923884Y-109689896D01*
X153024659Y-109642905D01*
X153024664Y-109642902D01*
X153029646Y-109640579D01*
X153034155Y-109637422D01*
X153204946Y-109517833D01*
X153204949Y-109517831D01*
X153209457Y-109514674D01*
X153364674Y-109359457D01*
X153490579Y-109179646D01*
X153492902Y-109174664D01*
X153492905Y-109174659D01*
X153581022Y-108985688D01*
X153583347Y-108980703D01*
X153640161Y-108768674D01*
X153659292Y-108550000D01*
X153640161Y-108331326D01*
X153583347Y-108119297D01*
X153539896Y-108026116D01*
X153492905Y-107925341D01*
X153492902Y-107925336D01*
X153490579Y-107920354D01*
X153377948Y-107759500D01*
X153367833Y-107745054D01*
X153367831Y-107745051D01*
X153364674Y-107740543D01*
X153209457Y-107585326D01*
X153204949Y-107582169D01*
X153204946Y-107582167D01*
X153034155Y-107462578D01*
X153034153Y-107462577D01*
X153029646Y-107459421D01*
X153024664Y-107457098D01*
X153024659Y-107457095D01*
X152879716Y-107389508D01*
X152830703Y-107366653D01*
X152618674Y-107309839D01*
X152400000Y-107290708D01*
X152181326Y-107309839D01*
X151969297Y-107366653D01*
X151920284Y-107389508D01*
X151775341Y-107457095D01*
X151775336Y-107457098D01*
X151770354Y-107459421D01*
X151765847Y-107462577D01*
X151765845Y-107462578D01*
X151595054Y-107582167D01*
X151595051Y-107582169D01*
X151590543Y-107585326D01*
X151489095Y-107686774D01*
X151426783Y-107720800D01*
X151355968Y-107715735D01*
X151310905Y-107686774D01*
X151209457Y-107585326D01*
X151204949Y-107582169D01*
X151204946Y-107582167D01*
X151034155Y-107462578D01*
X151034153Y-107462577D01*
X151029646Y-107459421D01*
X151024664Y-107457098D01*
X151024659Y-107457095D01*
X150879716Y-107389508D01*
X150830703Y-107366653D01*
X150618674Y-107309839D01*
X150400000Y-107290708D01*
X150181326Y-107309839D01*
X149969297Y-107366653D01*
X149920284Y-107389508D01*
X149775341Y-107457095D01*
X149775336Y-107457098D01*
X149770354Y-107459421D01*
X149765847Y-107462577D01*
X149765845Y-107462578D01*
X149595054Y-107582167D01*
X149595051Y-107582169D01*
X149590543Y-107585326D01*
X149435326Y-107740543D01*
X149432169Y-107745051D01*
X149432167Y-107745054D01*
X149422052Y-107759500D01*
X149309421Y-107920354D01*
X149307098Y-107925336D01*
X149307095Y-107925341D01*
X149260104Y-108026116D01*
X149216653Y-108119297D01*
X149159839Y-108331326D01*
X149140708Y-108550000D01*
X132971306Y-108550000D01*
X134587306Y-106934000D01*
X143314953Y-106934000D01*
X143333092Y-107106576D01*
X143386714Y-107271611D01*
X143473478Y-107421889D01*
X143589590Y-107550845D01*
X143729976Y-107652842D01*
X143736004Y-107655526D01*
X143736006Y-107655527D01*
X143882470Y-107720737D01*
X143888501Y-107723422D01*
X143950716Y-107736646D01*
X144051779Y-107758128D01*
X144051783Y-107758128D01*
X144058236Y-107759500D01*
X144231764Y-107759500D01*
X144238217Y-107758128D01*
X144238221Y-107758128D01*
X144339284Y-107736646D01*
X144401499Y-107723422D01*
X144407530Y-107720737D01*
X144553994Y-107655527D01*
X144553996Y-107655526D01*
X144560024Y-107652842D01*
X144700410Y-107550845D01*
X144813366Y-107425394D01*
X144873809Y-107388156D01*
X144944793Y-107389508D01*
X145000634Y-107425394D01*
X145113590Y-107550845D01*
X145253976Y-107652842D01*
X145260004Y-107655526D01*
X145260006Y-107655527D01*
X145406470Y-107720737D01*
X145412501Y-107723422D01*
X145474716Y-107736646D01*
X145575779Y-107758128D01*
X145575783Y-107758128D01*
X145582236Y-107759500D01*
X145755764Y-107759500D01*
X145762217Y-107758128D01*
X145762221Y-107758128D01*
X145863284Y-107736646D01*
X145925499Y-107723422D01*
X145931530Y-107720737D01*
X146077994Y-107655527D01*
X146077996Y-107655526D01*
X146084024Y-107652842D01*
X146224410Y-107550845D01*
X146337366Y-107425394D01*
X146397809Y-107388156D01*
X146468793Y-107389508D01*
X146524634Y-107425394D01*
X146637590Y-107550845D01*
X146777976Y-107652842D01*
X146784004Y-107655526D01*
X146784006Y-107655527D01*
X146930470Y-107720737D01*
X146936501Y-107723422D01*
X146998716Y-107736646D01*
X147099779Y-107758128D01*
X147099783Y-107758128D01*
X147106236Y-107759500D01*
X147279764Y-107759500D01*
X147286217Y-107758128D01*
X147286221Y-107758128D01*
X147387284Y-107736646D01*
X147449499Y-107723422D01*
X147455530Y-107720737D01*
X147601994Y-107655527D01*
X147601996Y-107655526D01*
X147608024Y-107652842D01*
X147748410Y-107550845D01*
X147864522Y-107421889D01*
X147951286Y-107271611D01*
X148004908Y-107106576D01*
X148023047Y-106934000D01*
X148004908Y-106761424D01*
X147951286Y-106596389D01*
X147864522Y-106446111D01*
X147748410Y-106317155D01*
X147608024Y-106215158D01*
X147608255Y-106214840D01*
X147561911Y-106166232D01*
X147548478Y-106096518D01*
X147574867Y-106030608D01*
X147608040Y-106001864D01*
X147608024Y-106001842D01*
X147608279Y-106001657D01*
X147608281Y-106001655D01*
X147613369Y-105997959D01*
X147658983Y-105964818D01*
X147748410Y-105899845D01*
X147864522Y-105770889D01*
X147951286Y-105620611D01*
X148004908Y-105455576D01*
X148023047Y-105283000D01*
X148004908Y-105110424D01*
X147951286Y-104945389D01*
X147864522Y-104795111D01*
X147748410Y-104666155D01*
X147608024Y-104564158D01*
X147601996Y-104561474D01*
X147601994Y-104561473D01*
X147455530Y-104496263D01*
X147455529Y-104496263D01*
X147449499Y-104493578D01*
X147364632Y-104475539D01*
X147286221Y-104458872D01*
X147286217Y-104458872D01*
X147279764Y-104457500D01*
X147106236Y-104457500D01*
X147099783Y-104458872D01*
X147099779Y-104458872D01*
X147021368Y-104475539D01*
X146936501Y-104493578D01*
X146930472Y-104496262D01*
X146930470Y-104496263D01*
X146784007Y-104561473D01*
X146784005Y-104561474D01*
X146777977Y-104564158D01*
X146637590Y-104666155D01*
X146524634Y-104791606D01*
X146464191Y-104828844D01*
X146393207Y-104827492D01*
X146337366Y-104791606D01*
X146224410Y-104666155D01*
X146084024Y-104564158D01*
X146077996Y-104561474D01*
X146077994Y-104561473D01*
X145931530Y-104496263D01*
X145931529Y-104496263D01*
X145925499Y-104493578D01*
X145840632Y-104475539D01*
X145762221Y-104458872D01*
X145762217Y-104458872D01*
X145755764Y-104457500D01*
X145582236Y-104457500D01*
X145575783Y-104458872D01*
X145575779Y-104458872D01*
X145497368Y-104475539D01*
X145412501Y-104493578D01*
X145406472Y-104496262D01*
X145406470Y-104496263D01*
X145260007Y-104561473D01*
X145260005Y-104561474D01*
X145253977Y-104564158D01*
X145113590Y-104666155D01*
X145000634Y-104791606D01*
X144940191Y-104828844D01*
X144869207Y-104827492D01*
X144813366Y-104791606D01*
X144700410Y-104666155D01*
X144560024Y-104564158D01*
X144553996Y-104561474D01*
X144553994Y-104561473D01*
X144407530Y-104496263D01*
X144407529Y-104496263D01*
X144401499Y-104493578D01*
X144316632Y-104475539D01*
X144238221Y-104458872D01*
X144238217Y-104458872D01*
X144231764Y-104457500D01*
X144058236Y-104457500D01*
X144051783Y-104458872D01*
X144051779Y-104458872D01*
X143973368Y-104475539D01*
X143888501Y-104493578D01*
X143882472Y-104496262D01*
X143882470Y-104496263D01*
X143736007Y-104561473D01*
X143736005Y-104561474D01*
X143729977Y-104564158D01*
X143589590Y-104666155D01*
X143473478Y-104795111D01*
X143386714Y-104945389D01*
X143333092Y-105110424D01*
X143314953Y-105283000D01*
X143333092Y-105455576D01*
X143386714Y-105620611D01*
X143473478Y-105770889D01*
X143589590Y-105899845D01*
X143659783Y-105950844D01*
X143724631Y-105997959D01*
X143724634Y-105997961D01*
X143728232Y-106000575D01*
X143728233Y-106000576D01*
X143729976Y-106001842D01*
X143729744Y-106002161D01*
X143776086Y-106050762D01*
X143789524Y-106120475D01*
X143763138Y-106186387D01*
X143729961Y-106215136D01*
X143729977Y-106215158D01*
X143589590Y-106317155D01*
X143473478Y-106446111D01*
X143386714Y-106596389D01*
X143333092Y-106761424D01*
X143314953Y-106934000D01*
X134587306Y-106934000D01*
X139913901Y-101607405D01*
X139976213Y-101573379D01*
X140002996Y-101570500D01*
X143384000Y-101570500D01*
X143512705Y-101556663D01*
X143515989Y-101555949D01*
X143515993Y-101555948D01*
X143561393Y-101546072D01*
X143561395Y-101546071D01*
X143565047Y-101545277D01*
X143568584Y-101544053D01*
X143568587Y-101544052D01*
X143649183Y-101516158D01*
X143700911Y-101498255D01*
X143757920Y-101460652D01*
X143829414Y-101413494D01*
X143829421Y-101413489D01*
X143832859Y-101411221D01*
X143886515Y-101364728D01*
X143907842Y-101345341D01*
X143961210Y-101279115D01*
X144001843Y-101228693D01*
X144001845Y-101228690D01*
X144007024Y-101222263D01*
X144070971Y-101077709D01*
X144090973Y-101009588D01*
X144115500Y-100839000D01*
X144115500Y-95122000D01*
X144101663Y-94993295D01*
X144090277Y-94940953D01*
X144043255Y-94805089D01*
X143987764Y-94720962D01*
X143958494Y-94676586D01*
X143958489Y-94676579D01*
X143956221Y-94673141D01*
X143909728Y-94619485D01*
X143890341Y-94598158D01*
X143867442Y-94579705D01*
X143773693Y-94504157D01*
X143773690Y-94504155D01*
X143767263Y-94498976D01*
X143622709Y-94435029D01*
X143554588Y-94415027D01*
X143550132Y-94414386D01*
X143550126Y-94414385D01*
X143454220Y-94400596D01*
X143384000Y-94390500D01*
X139752190Y-94390500D01*
X139717964Y-94392334D01*
X139689168Y-94393877D01*
X139689158Y-94393878D01*
X139687475Y-94393968D01*
X139660692Y-94396847D01*
X139621203Y-94403729D01*
X139588745Y-94409386D01*
X139588743Y-94409387D01*
X139582647Y-94410449D01*
X139435215Y-94467448D01*
X139408659Y-94481949D01*
X139377478Y-94498976D01*
X139372903Y-94501474D01*
X139369303Y-94504169D01*
X139238544Y-94602055D01*
X139238539Y-94602059D01*
X139234942Y-94604752D01*
X129580099Y-104259595D01*
X129517787Y-104293621D01*
X129491004Y-104296500D01*
X129131119Y-104296500D01*
X129062998Y-104276498D01*
X129016505Y-104222842D01*
X129006401Y-104152568D01*
X129021999Y-104107501D01*
X129024985Y-104102328D01*
X129028286Y-104096611D01*
X129066874Y-103977848D01*
X129079867Y-103937859D01*
X129079868Y-103937855D01*
X129081908Y-103931576D01*
X129100047Y-103759000D01*
X129081908Y-103586424D01*
X129079691Y-103579598D01*
X129055807Y-103506092D01*
X129028286Y-103421389D01*
X128941522Y-103271111D01*
X128825410Y-103142155D01*
X128685024Y-103040158D01*
X128678996Y-103037474D01*
X128678994Y-103037473D01*
X128532530Y-102972263D01*
X128532529Y-102972263D01*
X128526499Y-102969578D01*
X128520044Y-102968206D01*
X128520041Y-102968205D01*
X128382075Y-102938880D01*
X128319601Y-102905152D01*
X128288438Y-102854568D01*
X128268326Y-102792669D01*
X128266286Y-102786389D01*
X128179522Y-102636111D01*
X128063410Y-102507155D01*
X127923024Y-102405158D01*
X127916996Y-102402474D01*
X127916994Y-102402473D01*
X127770530Y-102337263D01*
X127770529Y-102337263D01*
X127764499Y-102334578D01*
X127758044Y-102333206D01*
X127758041Y-102333205D01*
X127671991Y-102314915D01*
X127609517Y-102281187D01*
X127575195Y-102219037D01*
X127572877Y-102204839D01*
X127558598Y-102068991D01*
X127557908Y-102062424D01*
X127554160Y-102050887D01*
X127506326Y-101903669D01*
X127504286Y-101897389D01*
X127417522Y-101747111D01*
X127301410Y-101618155D01*
X127161024Y-101516158D01*
X127154996Y-101513474D01*
X127154994Y-101513473D01*
X127008530Y-101448263D01*
X127008529Y-101448263D01*
X127002499Y-101445578D01*
X126917632Y-101427539D01*
X126839221Y-101410872D01*
X126839217Y-101410872D01*
X126832764Y-101409500D01*
X126659236Y-101409500D01*
X126659236Y-101407530D01*
X126598648Y-101396450D01*
X126546801Y-101347948D01*
X126529407Y-101279115D01*
X126551988Y-101211805D01*
X126566221Y-101194817D01*
X138311038Y-89450000D01*
X149140708Y-89450000D01*
X149159839Y-89668674D01*
X149216653Y-89880703D01*
X149218978Y-89885688D01*
X149307095Y-90074659D01*
X149307098Y-90074664D01*
X149309421Y-90079646D01*
X149312577Y-90084153D01*
X149312578Y-90084155D01*
X149397686Y-90205701D01*
X149435326Y-90259457D01*
X149590543Y-90414674D01*
X149595051Y-90417831D01*
X149595054Y-90417833D01*
X149765845Y-90537422D01*
X149770354Y-90540579D01*
X149775336Y-90542902D01*
X149775341Y-90542905D01*
X149876116Y-90589896D01*
X149969297Y-90633347D01*
X150181326Y-90690161D01*
X150400000Y-90709292D01*
X150618674Y-90690161D01*
X150830703Y-90633347D01*
X150923884Y-90589896D01*
X151024659Y-90542905D01*
X151024664Y-90542902D01*
X151029646Y-90540579D01*
X151034155Y-90537422D01*
X151204946Y-90417833D01*
X151204949Y-90417831D01*
X151209457Y-90414674D01*
X151310905Y-90313226D01*
X151373217Y-90279200D01*
X151444032Y-90284265D01*
X151489095Y-90313226D01*
X151590543Y-90414674D01*
X151595051Y-90417831D01*
X151595054Y-90417833D01*
X151765845Y-90537422D01*
X151770354Y-90540579D01*
X151775336Y-90542902D01*
X151775341Y-90542905D01*
X151876116Y-90589896D01*
X151969297Y-90633347D01*
X152181326Y-90690161D01*
X152400000Y-90709292D01*
X152618674Y-90690161D01*
X152830703Y-90633347D01*
X152923884Y-90589896D01*
X153024659Y-90542905D01*
X153024664Y-90542902D01*
X153029646Y-90540579D01*
X153034155Y-90537422D01*
X153204946Y-90417833D01*
X153204949Y-90417831D01*
X153209457Y-90414674D01*
X153364674Y-90259457D01*
X153402315Y-90205701D01*
X153487422Y-90084155D01*
X153487423Y-90084153D01*
X153490579Y-90079646D01*
X153492902Y-90074664D01*
X153492905Y-90074659D01*
X153581022Y-89885688D01*
X153583347Y-89880703D01*
X153640161Y-89668674D01*
X153659292Y-89450000D01*
X153640161Y-89231326D01*
X153583347Y-89019297D01*
X153520630Y-88884799D01*
X153492905Y-88825341D01*
X153492902Y-88825336D01*
X153490579Y-88820354D01*
X153400000Y-88690994D01*
X153367833Y-88645054D01*
X153367831Y-88645051D01*
X153364674Y-88640543D01*
X153209457Y-88485326D01*
X153204949Y-88482169D01*
X153204946Y-88482167D01*
X153034155Y-88362578D01*
X153034153Y-88362577D01*
X153029646Y-88359421D01*
X153024664Y-88357098D01*
X153024659Y-88357095D01*
X152913953Y-88305473D01*
X152830703Y-88266653D01*
X152618674Y-88209839D01*
X152400000Y-88190708D01*
X152181326Y-88209839D01*
X151969297Y-88266653D01*
X151886047Y-88305473D01*
X151775341Y-88357095D01*
X151775336Y-88357098D01*
X151770354Y-88359421D01*
X151765847Y-88362577D01*
X151765845Y-88362578D01*
X151595054Y-88482167D01*
X151595051Y-88482169D01*
X151590543Y-88485326D01*
X151489095Y-88586774D01*
X151426783Y-88620800D01*
X151355968Y-88615735D01*
X151310905Y-88586774D01*
X151209457Y-88485326D01*
X151204949Y-88482169D01*
X151204946Y-88482167D01*
X151034155Y-88362578D01*
X151034153Y-88362577D01*
X151029646Y-88359421D01*
X151024664Y-88357098D01*
X151024659Y-88357095D01*
X150913953Y-88305473D01*
X150830703Y-88266653D01*
X150618674Y-88209839D01*
X150400000Y-88190708D01*
X150181326Y-88209839D01*
X149969297Y-88266653D01*
X149886047Y-88305473D01*
X149775341Y-88357095D01*
X149775336Y-88357098D01*
X149770354Y-88359421D01*
X149765847Y-88362577D01*
X149765845Y-88362578D01*
X149595054Y-88482167D01*
X149595051Y-88482169D01*
X149590543Y-88485326D01*
X149435326Y-88640543D01*
X149432169Y-88645051D01*
X149432167Y-88645054D01*
X149400000Y-88690994D01*
X149309421Y-88820354D01*
X149307098Y-88825336D01*
X149307095Y-88825341D01*
X149279370Y-88884799D01*
X149216653Y-89019297D01*
X149159839Y-89231326D01*
X149140708Y-89450000D01*
X138311038Y-89450000D01*
X142450153Y-85310885D01*
X142456418Y-85305031D01*
X142456739Y-85304751D01*
X142497072Y-85269566D01*
X142531387Y-85220741D01*
X142535320Y-85215446D01*
X142567445Y-85174476D01*
X142567447Y-85174472D01*
X142572134Y-85168495D01*
X142575261Y-85161569D01*
X142578849Y-85155644D01*
X142581845Y-85150393D01*
X142585116Y-85144293D01*
X142589484Y-85138078D01*
X142611165Y-85082470D01*
X142613720Y-85076392D01*
X142635141Y-85028948D01*
X142638269Y-85022021D01*
X142639654Y-85014549D01*
X142641733Y-85007914D01*
X142643387Y-85002106D01*
X142645104Y-84995419D01*
X142647863Y-84988343D01*
X142655652Y-84929180D01*
X142656683Y-84922666D01*
X142666173Y-84871464D01*
X142667557Y-84863999D01*
X142664209Y-84805932D01*
X142664000Y-84798679D01*
X142664000Y-67627228D01*
X142684002Y-67559107D01*
X142700905Y-67538133D01*
X146338133Y-63900905D01*
X146400445Y-63866879D01*
X146427228Y-63864000D01*
X148821514Y-63864000D01*
X148889635Y-63884002D01*
X148936128Y-63937658D01*
X148946232Y-64007932D01*
X148935709Y-64043249D01*
X148910303Y-64097733D01*
X148907978Y-64102720D01*
X148906556Y-64108028D01*
X148906555Y-64108030D01*
X148860434Y-64280155D01*
X148849308Y-64321679D01*
X148829551Y-64547500D01*
X148849308Y-64773321D01*
X148850732Y-64778634D01*
X148850732Y-64778636D01*
X148905633Y-64983527D01*
X148907978Y-64992280D01*
X148910300Y-64997261D01*
X148910301Y-64997262D01*
X148973052Y-65131831D01*
X149003778Y-65197724D01*
X149133798Y-65383413D01*
X149294087Y-65543702D01*
X149298595Y-65546859D01*
X149298598Y-65546861D01*
X149475266Y-65670565D01*
X149479775Y-65673722D01*
X149484760Y-65676047D01*
X149484766Y-65676050D01*
X149543216Y-65703305D01*
X149596502Y-65750222D01*
X149615963Y-65818499D01*
X149595422Y-65886459D01*
X149543217Y-65931695D01*
X149484757Y-65958955D01*
X149484754Y-65958957D01*
X149479776Y-65961278D01*
X149294087Y-66091298D01*
X149133798Y-66251587D01*
X149003778Y-66437276D01*
X148907978Y-66642720D01*
X148906556Y-66648028D01*
X148906555Y-66648030D01*
X148877172Y-66757689D01*
X148849308Y-66861679D01*
X148829551Y-67087500D01*
X148849308Y-67313321D01*
X148850732Y-67318634D01*
X148850732Y-67318636D01*
X148905559Y-67523251D01*
X148907978Y-67532280D01*
X148910300Y-67537261D01*
X148910301Y-67537262D01*
X148986097Y-67699806D01*
X149003778Y-67737724D01*
X149133798Y-67923413D01*
X149294087Y-68083702D01*
X149298595Y-68086859D01*
X149298598Y-68086861D01*
X149462370Y-68201535D01*
X149479775Y-68213722D01*
X149484760Y-68216047D01*
X149484766Y-68216050D01*
X149543216Y-68243305D01*
X149596502Y-68290222D01*
X149615963Y-68358499D01*
X149595422Y-68426459D01*
X149543217Y-68471695D01*
X149484757Y-68498955D01*
X149484754Y-68498957D01*
X149479776Y-68501278D01*
X149294087Y-68631298D01*
X149133798Y-68791587D01*
X149003778Y-68977276D01*
X149001457Y-68982254D01*
X149001455Y-68982257D01*
X148910301Y-69177738D01*
X148907978Y-69182720D01*
X148906556Y-69188028D01*
X148906555Y-69188030D01*
X148860000Y-69361776D01*
X148849308Y-69401679D01*
X148829551Y-69627500D01*
X148849308Y-69853321D01*
X148850732Y-69858634D01*
X148850732Y-69858636D01*
X148891911Y-70012316D01*
X148907978Y-70072280D01*
X148910300Y-70077261D01*
X148910301Y-70077262D01*
X148997326Y-70263887D01*
X149003778Y-70277724D01*
X149133798Y-70463413D01*
X149294087Y-70623702D01*
X149298595Y-70626859D01*
X149298598Y-70626861D01*
X149461677Y-70741050D01*
X149479775Y-70753722D01*
X149484760Y-70756047D01*
X149484766Y-70756050D01*
X149543216Y-70783305D01*
X149596502Y-70830222D01*
X149615963Y-70898499D01*
X149595422Y-70966459D01*
X149543217Y-71011695D01*
X149484757Y-71038955D01*
X149484754Y-71038957D01*
X149479776Y-71041278D01*
X149294087Y-71171298D01*
X149133798Y-71331587D01*
X149003778Y-71517276D01*
X149001457Y-71522254D01*
X149001455Y-71522257D01*
X148949852Y-71632921D01*
X148907978Y-71722720D01*
X148906556Y-71728028D01*
X148906555Y-71728030D01*
X148850732Y-71936364D01*
X148849308Y-71941679D01*
X148829551Y-72167500D01*
X148849308Y-72393321D01*
X148850732Y-72398634D01*
X148850732Y-72398636D01*
X148888954Y-72541280D01*
X148907978Y-72612280D01*
X149003778Y-72817724D01*
X149133798Y-73003413D01*
X149294087Y-73163702D01*
X149298595Y-73166859D01*
X149298598Y-73166861D01*
X149397339Y-73236000D01*
X149479775Y-73293722D01*
X149484760Y-73296047D01*
X149484766Y-73296050D01*
X149543216Y-73323305D01*
X149596502Y-73370222D01*
X149615963Y-73438499D01*
X149595422Y-73506459D01*
X149543217Y-73551695D01*
X149484757Y-73578955D01*
X149484754Y-73578957D01*
X149479776Y-73581278D01*
X149294087Y-73711298D01*
X149133798Y-73871587D01*
X149003778Y-74057276D01*
X148907978Y-74262720D01*
X148849308Y-74481679D01*
X148829551Y-74707500D01*
X148849308Y-74933321D01*
X148907978Y-75152280D01*
X149003778Y-75357724D01*
X149133798Y-75543413D01*
X149294087Y-75703702D01*
X149298595Y-75706859D01*
X149298598Y-75706861D01*
X149475266Y-75830565D01*
X149479775Y-75833722D01*
X149484760Y-75836047D01*
X149484766Y-75836050D01*
X149543216Y-75863305D01*
X149596502Y-75910222D01*
X149615963Y-75978499D01*
X149595422Y-76046459D01*
X149543217Y-76091695D01*
X149484757Y-76118955D01*
X149484754Y-76118957D01*
X149479776Y-76121278D01*
X149294087Y-76251298D01*
X149133798Y-76411587D01*
X149003778Y-76597276D01*
X149001457Y-76602254D01*
X149001455Y-76602257D01*
X148949852Y-76712921D01*
X148907978Y-76802720D01*
X148849308Y-77021679D01*
X148829551Y-77247500D01*
X148849308Y-77473321D01*
X148907978Y-77692280D01*
X149003778Y-77897724D01*
X149133798Y-78083413D01*
X149294087Y-78243702D01*
X149298595Y-78246859D01*
X149298598Y-78246861D01*
X149475266Y-78370565D01*
X149479775Y-78373722D01*
X149484760Y-78376047D01*
X149484766Y-78376050D01*
X149543216Y-78403305D01*
X149596502Y-78450222D01*
X149615963Y-78518499D01*
X149595422Y-78586459D01*
X149543217Y-78631695D01*
X149484757Y-78658955D01*
X149484754Y-78658957D01*
X149479776Y-78661278D01*
X149294087Y-78791298D01*
X149133798Y-78951587D01*
X149003778Y-79137276D01*
X149001457Y-79142254D01*
X149001455Y-79142257D01*
X148949852Y-79252921D01*
X148907978Y-79342720D01*
X148849308Y-79561679D01*
X148829551Y-79787500D01*
X148849308Y-80013321D01*
X148850732Y-80018634D01*
X148850732Y-80018636D01*
X148899793Y-80201732D01*
X148907978Y-80232280D01*
X149003778Y-80437724D01*
X149133798Y-80623413D01*
X149294087Y-80783702D01*
X149298595Y-80786859D01*
X149298598Y-80786861D01*
X149475266Y-80910565D01*
X149479775Y-80913722D01*
X149484757Y-80916045D01*
X149484762Y-80916048D01*
X149680238Y-81007199D01*
X149685220Y-81009522D01*
X149690528Y-81010944D01*
X149690530Y-81010945D01*
X149898864Y-81066768D01*
X149898866Y-81066768D01*
X149904179Y-81068192D01*
X150130000Y-81087949D01*
X150355821Y-81068192D01*
X150361134Y-81066768D01*
X150361136Y-81066768D01*
X150569470Y-81010945D01*
X150569472Y-81010944D01*
X150574780Y-81009522D01*
X150579762Y-81007199D01*
X150775238Y-80916048D01*
X150775243Y-80916045D01*
X150780225Y-80913722D01*
X150784734Y-80910565D01*
X150961402Y-80786861D01*
X150961405Y-80786859D01*
X150965913Y-80783702D01*
X151126202Y-80623413D01*
X151256222Y-80437724D01*
X151285805Y-80374283D01*
X151332722Y-80320998D01*
X151401000Y-80301537D01*
X151468959Y-80322079D01*
X151514195Y-80374283D01*
X151543778Y-80437724D01*
X151673798Y-80623413D01*
X151834087Y-80783702D01*
X151838595Y-80786859D01*
X151838598Y-80786861D01*
X152015266Y-80910565D01*
X152019775Y-80913722D01*
X152024757Y-80916045D01*
X152024762Y-80916048D01*
X152220238Y-81007199D01*
X152225220Y-81009522D01*
X152230528Y-81010944D01*
X152230530Y-81010945D01*
X152438864Y-81066768D01*
X152438866Y-81066768D01*
X152444179Y-81068192D01*
X152670000Y-81087949D01*
X152895821Y-81068192D01*
X152901134Y-81066768D01*
X152901136Y-81066768D01*
X153109470Y-81010945D01*
X153109472Y-81010944D01*
X153114780Y-81009522D01*
X153119762Y-81007199D01*
X153315238Y-80916048D01*
X153315243Y-80916045D01*
X153320225Y-80913722D01*
X153324734Y-80910565D01*
X153501402Y-80786861D01*
X153501405Y-80786859D01*
X153505913Y-80783702D01*
X153666202Y-80623413D01*
X153796222Y-80437724D01*
X153892022Y-80232280D01*
X153900208Y-80201732D01*
X153949268Y-80018636D01*
X153949268Y-80018634D01*
X153950692Y-80013321D01*
X153970449Y-79787500D01*
X153950692Y-79561679D01*
X153892022Y-79342720D01*
X153850148Y-79252921D01*
X153798545Y-79142257D01*
X153798543Y-79142254D01*
X153796222Y-79137276D01*
X153666202Y-78951587D01*
X153505913Y-78791298D01*
X153501405Y-78788141D01*
X153501402Y-78788139D01*
X153324734Y-78664435D01*
X153324731Y-78664433D01*
X153320225Y-78661278D01*
X153315243Y-78658955D01*
X153315238Y-78658952D01*
X153256784Y-78631695D01*
X153203499Y-78584778D01*
X153184038Y-78516500D01*
X153204580Y-78448541D01*
X153256784Y-78403305D01*
X153315238Y-78376048D01*
X153315243Y-78376045D01*
X153320225Y-78373722D01*
X153324734Y-78370565D01*
X153501402Y-78246861D01*
X153501405Y-78246859D01*
X153505913Y-78243702D01*
X153666202Y-78083413D01*
X153796222Y-77897724D01*
X153892022Y-77692280D01*
X153950692Y-77473321D01*
X153970449Y-77247500D01*
X153950692Y-77021679D01*
X153892022Y-76802720D01*
X153850148Y-76712921D01*
X153798545Y-76602257D01*
X153798543Y-76602254D01*
X153796222Y-76597276D01*
X153666202Y-76411587D01*
X153505913Y-76251298D01*
X153501405Y-76248141D01*
X153501402Y-76248139D01*
X153324734Y-76124435D01*
X153324731Y-76124433D01*
X153320225Y-76121278D01*
X153315243Y-76118955D01*
X153315238Y-76118952D01*
X153256784Y-76091695D01*
X153203499Y-76044778D01*
X153184038Y-75976500D01*
X153204580Y-75908541D01*
X153256784Y-75863305D01*
X153315238Y-75836048D01*
X153315243Y-75836045D01*
X153320225Y-75833722D01*
X153324734Y-75830565D01*
X153501402Y-75706861D01*
X153501405Y-75706859D01*
X153505913Y-75703702D01*
X153666202Y-75543413D01*
X153796222Y-75357724D01*
X153892022Y-75152280D01*
X153950692Y-74933321D01*
X153970449Y-74707500D01*
X153950692Y-74481679D01*
X153892022Y-74262720D01*
X153796222Y-74057276D01*
X153666202Y-73871587D01*
X153505913Y-73711298D01*
X153501405Y-73708141D01*
X153501402Y-73708139D01*
X153324734Y-73584435D01*
X153324731Y-73584433D01*
X153320225Y-73581278D01*
X153315243Y-73578955D01*
X153315238Y-73578952D01*
X153256784Y-73551695D01*
X153203499Y-73504778D01*
X153184038Y-73436500D01*
X153204580Y-73368541D01*
X153256784Y-73323305D01*
X153315238Y-73296048D01*
X153315243Y-73296045D01*
X153320225Y-73293722D01*
X153402661Y-73236000D01*
X153501402Y-73166861D01*
X153501405Y-73166859D01*
X153505913Y-73163702D01*
X153666202Y-73003413D01*
X153796222Y-72817724D01*
X153892022Y-72612280D01*
X153911047Y-72541280D01*
X153949268Y-72398636D01*
X153949268Y-72398634D01*
X153950692Y-72393321D01*
X153970449Y-72167500D01*
X153950692Y-71941679D01*
X153949268Y-71936364D01*
X153893445Y-71728030D01*
X153893444Y-71728028D01*
X153892022Y-71722720D01*
X153850148Y-71632921D01*
X153798545Y-71522257D01*
X153798543Y-71522254D01*
X153796222Y-71517276D01*
X153666202Y-71331587D01*
X153505913Y-71171298D01*
X153501405Y-71168141D01*
X153501402Y-71168139D01*
X153324734Y-71044435D01*
X153324731Y-71044433D01*
X153320225Y-71041278D01*
X153315243Y-71038955D01*
X153315238Y-71038952D01*
X153256784Y-71011695D01*
X153203499Y-70964778D01*
X153184038Y-70896500D01*
X153204580Y-70828541D01*
X153256784Y-70783305D01*
X153315238Y-70756048D01*
X153315243Y-70756045D01*
X153320225Y-70753722D01*
X153338323Y-70741050D01*
X153501402Y-70626861D01*
X153501405Y-70626859D01*
X153505913Y-70623702D01*
X153666202Y-70463413D01*
X153796222Y-70277724D01*
X153802675Y-70263887D01*
X153889699Y-70077262D01*
X153889700Y-70077261D01*
X153892022Y-70072280D01*
X153908090Y-70012316D01*
X153949268Y-69858636D01*
X153949268Y-69858634D01*
X153950692Y-69853321D01*
X153970449Y-69627500D01*
X153950692Y-69401679D01*
X153940000Y-69361776D01*
X153893445Y-69188030D01*
X153893444Y-69188028D01*
X153892022Y-69182720D01*
X153889699Y-69177738D01*
X153798545Y-68982257D01*
X153798543Y-68982254D01*
X153796222Y-68977276D01*
X153666202Y-68791587D01*
X153505913Y-68631298D01*
X153501405Y-68628141D01*
X153501402Y-68628139D01*
X153324734Y-68504435D01*
X153324731Y-68504433D01*
X153320225Y-68501278D01*
X153315243Y-68498955D01*
X153315238Y-68498952D01*
X153256784Y-68471695D01*
X153203499Y-68424778D01*
X153184038Y-68356500D01*
X153204580Y-68288541D01*
X153256784Y-68243305D01*
X153315238Y-68216048D01*
X153315243Y-68216045D01*
X153320225Y-68213722D01*
X153337630Y-68201535D01*
X153501402Y-68086861D01*
X153501405Y-68086859D01*
X153505913Y-68083702D01*
X153666202Y-67923413D01*
X153796222Y-67737724D01*
X153813904Y-67699806D01*
X153889699Y-67537262D01*
X153889700Y-67537261D01*
X153892022Y-67532280D01*
X153894442Y-67523251D01*
X153949268Y-67318636D01*
X153949268Y-67318634D01*
X153950692Y-67313321D01*
X153970449Y-67087500D01*
X153950692Y-66861679D01*
X153922828Y-66757689D01*
X153893445Y-66648030D01*
X153893444Y-66648028D01*
X153892022Y-66642720D01*
X153796222Y-66437276D01*
X153666202Y-66251587D01*
X153505913Y-66091298D01*
X153501405Y-66088141D01*
X153501402Y-66088139D01*
X153324734Y-65964435D01*
X153324731Y-65964433D01*
X153320225Y-65961278D01*
X153315243Y-65958955D01*
X153315238Y-65958952D01*
X153256784Y-65931695D01*
X153203499Y-65884778D01*
X153184038Y-65816500D01*
X153204580Y-65748541D01*
X153256784Y-65703305D01*
X153315238Y-65676048D01*
X153315243Y-65676045D01*
X153320225Y-65673722D01*
X153324734Y-65670565D01*
X153501402Y-65546861D01*
X153501405Y-65546859D01*
X153505913Y-65543702D01*
X153666202Y-65383413D01*
X153796222Y-65197724D01*
X153826949Y-65131831D01*
X153889699Y-64997262D01*
X153889700Y-64997261D01*
X153892022Y-64992280D01*
X153894368Y-64983527D01*
X153949268Y-64778636D01*
X153949268Y-64778634D01*
X153950692Y-64773321D01*
X153970449Y-64547500D01*
X153950692Y-64321679D01*
X153939566Y-64280155D01*
X153893445Y-64108030D01*
X153893444Y-64108028D01*
X153892022Y-64102720D01*
X153885822Y-64089424D01*
X153798545Y-63902257D01*
X153798543Y-63902254D01*
X153796222Y-63897276D01*
X153666202Y-63711587D01*
X153505913Y-63551298D01*
X153501405Y-63548141D01*
X153501402Y-63548139D01*
X153324734Y-63424435D01*
X153324732Y-63424434D01*
X153320225Y-63421278D01*
X153315243Y-63418955D01*
X153315238Y-63418952D01*
X153256784Y-63391695D01*
X153203499Y-63344778D01*
X153184038Y-63276500D01*
X153204580Y-63208541D01*
X153256784Y-63163305D01*
X153315238Y-63136048D01*
X153315243Y-63136045D01*
X153320225Y-63133722D01*
X153399052Y-63078527D01*
X153501402Y-63006861D01*
X153501405Y-63006859D01*
X153505913Y-63003702D01*
X153666202Y-62843413D01*
X153796222Y-62657724D01*
X153855979Y-62529576D01*
X153889699Y-62457262D01*
X153889700Y-62457261D01*
X153892022Y-62452280D01*
X153894368Y-62443527D01*
X153949268Y-62238636D01*
X153949268Y-62238634D01*
X153950692Y-62233321D01*
X153970449Y-62007500D01*
X153950692Y-61781679D01*
X153932942Y-61715435D01*
X153893445Y-61568030D01*
X153893444Y-61568028D01*
X153892022Y-61562720D01*
X153888884Y-61555991D01*
X153798545Y-61362257D01*
X153798543Y-61362254D01*
X153796222Y-61357276D01*
X153666202Y-61171587D01*
X153505913Y-61011298D01*
X153501405Y-61008141D01*
X153501402Y-61008139D01*
X153324734Y-60884435D01*
X153324732Y-60884434D01*
X153320225Y-60881278D01*
X153315243Y-60878955D01*
X153315238Y-60878952D01*
X153256784Y-60851695D01*
X153203499Y-60804778D01*
X153184038Y-60736500D01*
X153204580Y-60668541D01*
X153256784Y-60623305D01*
X153315238Y-60596048D01*
X153315243Y-60596045D01*
X153320225Y-60593722D01*
X153324734Y-60590565D01*
X153501402Y-60466861D01*
X153501405Y-60466859D01*
X153505913Y-60463702D01*
X153666202Y-60303413D01*
X153796222Y-60117724D01*
X153892022Y-59912280D01*
X153926214Y-59784676D01*
X153949268Y-59698636D01*
X153949268Y-59698634D01*
X153950692Y-59693321D01*
X153970449Y-59467500D01*
X153950692Y-59241679D01*
X153892022Y-59022720D01*
X153889699Y-59017738D01*
X153798545Y-58822257D01*
X153798543Y-58822254D01*
X153796222Y-58817276D01*
X153666202Y-58631587D01*
X153505913Y-58471298D01*
X153501405Y-58468141D01*
X153501402Y-58468139D01*
X153324734Y-58344435D01*
X153324732Y-58344434D01*
X153320225Y-58341278D01*
X153315243Y-58338955D01*
X153315238Y-58338952D01*
X153256784Y-58311695D01*
X153203499Y-58264778D01*
X153184038Y-58196500D01*
X153204580Y-58128541D01*
X153256784Y-58083305D01*
X153315238Y-58056048D01*
X153315243Y-58056045D01*
X153320225Y-58053722D01*
X153324734Y-58050565D01*
X153501402Y-57926861D01*
X153501405Y-57926859D01*
X153505913Y-57923702D01*
X153666202Y-57763413D01*
X153796222Y-57577724D01*
X153892022Y-57372280D01*
X153926214Y-57244676D01*
X153949268Y-57158636D01*
X153949268Y-57158634D01*
X153950692Y-57153321D01*
X153970449Y-56927500D01*
X153950692Y-56701679D01*
X153949268Y-56696364D01*
X153893445Y-56488030D01*
X153893444Y-56488028D01*
X153892022Y-56482720D01*
X153889699Y-56477738D01*
X153798545Y-56282257D01*
X153798543Y-56282254D01*
X153796222Y-56277276D01*
X153666202Y-56091587D01*
X153505913Y-55931298D01*
X153501405Y-55928141D01*
X153501402Y-55928139D01*
X153324734Y-55804435D01*
X153324732Y-55804434D01*
X153320225Y-55801278D01*
X153315243Y-55798955D01*
X153315238Y-55798952D01*
X153256784Y-55771695D01*
X153203499Y-55724778D01*
X153184038Y-55656500D01*
X153204580Y-55588541D01*
X153256784Y-55543305D01*
X153315238Y-55516048D01*
X153315243Y-55516045D01*
X153320225Y-55513722D01*
X153344161Y-55496962D01*
X153501402Y-55386861D01*
X153501405Y-55386859D01*
X153505913Y-55383702D01*
X153666202Y-55223413D01*
X153796222Y-55037724D01*
X153892022Y-54832280D01*
X153926214Y-54704676D01*
X153949268Y-54618636D01*
X153949268Y-54618634D01*
X153950692Y-54613321D01*
X153970449Y-54387500D01*
X153950692Y-54161679D01*
X153940000Y-54121776D01*
X153893445Y-53948030D01*
X153893444Y-53948028D01*
X153892022Y-53942720D01*
X153889699Y-53937738D01*
X153798545Y-53742257D01*
X153798543Y-53742254D01*
X153796222Y-53737276D01*
X153666202Y-53551587D01*
X153505913Y-53391298D01*
X153501405Y-53388141D01*
X153501402Y-53388139D01*
X153324734Y-53264435D01*
X153324732Y-53264434D01*
X153320225Y-53261278D01*
X153315243Y-53258955D01*
X153315238Y-53258952D01*
X153256784Y-53231695D01*
X153203499Y-53184778D01*
X153184038Y-53116500D01*
X153204580Y-53048541D01*
X153256784Y-53003305D01*
X153315238Y-52976048D01*
X153315243Y-52976045D01*
X153320225Y-52973722D01*
X153429850Y-52896962D01*
X153501402Y-52846861D01*
X153501405Y-52846859D01*
X153505913Y-52843702D01*
X153666202Y-52683413D01*
X153796222Y-52497724D01*
X153858579Y-52364000D01*
X153889699Y-52297262D01*
X153889700Y-52297261D01*
X153892022Y-52292280D01*
X153926214Y-52164676D01*
X153949268Y-52078636D01*
X153949268Y-52078634D01*
X153950692Y-52073321D01*
X153970449Y-51847500D01*
X153950692Y-51621679D01*
X153892022Y-51402720D01*
X153830959Y-51271770D01*
X153798545Y-51202257D01*
X153798543Y-51202254D01*
X153796222Y-51197276D01*
X153666202Y-51011587D01*
X153505913Y-50851298D01*
X153501405Y-50848141D01*
X153501402Y-50848139D01*
X153324734Y-50724435D01*
X153324732Y-50724434D01*
X153320225Y-50721278D01*
X153315243Y-50718955D01*
X153315238Y-50718952D01*
X153256784Y-50691695D01*
X153203499Y-50644778D01*
X153184038Y-50576500D01*
X153204580Y-50508541D01*
X153256784Y-50463305D01*
X153315238Y-50436048D01*
X153315243Y-50436045D01*
X153320225Y-50433722D01*
X153324734Y-50430565D01*
X153501402Y-50306861D01*
X153501405Y-50306859D01*
X153505913Y-50303702D01*
X153666202Y-50143413D01*
X153796222Y-49957724D01*
X153892022Y-49752280D01*
X153926214Y-49624676D01*
X153949268Y-49538636D01*
X153949268Y-49538634D01*
X153950692Y-49533321D01*
X153970449Y-49307500D01*
X153950692Y-49081679D01*
X153892022Y-48862720D01*
X153889699Y-48857738D01*
X153798545Y-48662257D01*
X153798543Y-48662254D01*
X153796222Y-48657276D01*
X153666202Y-48471587D01*
X153505913Y-48311298D01*
X153501405Y-48308141D01*
X153501402Y-48308139D01*
X153324734Y-48184435D01*
X153324732Y-48184434D01*
X153320225Y-48181278D01*
X153315243Y-48178955D01*
X153315238Y-48178952D01*
X153256784Y-48151695D01*
X153203499Y-48104778D01*
X153184038Y-48036500D01*
X153204580Y-47968541D01*
X153256784Y-47923305D01*
X153315238Y-47896048D01*
X153315243Y-47896045D01*
X153320225Y-47893722D01*
X153350145Y-47872772D01*
X153501402Y-47766861D01*
X153501405Y-47766859D01*
X153505913Y-47763702D01*
X153666202Y-47603413D01*
X153796222Y-47417724D01*
X153805904Y-47396962D01*
X153889699Y-47217262D01*
X153889700Y-47217261D01*
X153892022Y-47212280D01*
X153904441Y-47165934D01*
X153949268Y-46998636D01*
X153949268Y-46998634D01*
X153950692Y-46993321D01*
X153970449Y-46767500D01*
X153950692Y-46541679D01*
X153949268Y-46536364D01*
X153893445Y-46328030D01*
X153893444Y-46328028D01*
X153892022Y-46322720D01*
X153889699Y-46317738D01*
X153798545Y-46122257D01*
X153798543Y-46122254D01*
X153796222Y-46117276D01*
X153666202Y-45931587D01*
X153505913Y-45771298D01*
X153501405Y-45768141D01*
X153501402Y-45768139D01*
X153324734Y-45644435D01*
X153324732Y-45644434D01*
X153320225Y-45641278D01*
X153315243Y-45638955D01*
X153315238Y-45638952D01*
X153256784Y-45611695D01*
X153203499Y-45564778D01*
X153184038Y-45496500D01*
X153204580Y-45428541D01*
X153256784Y-45383305D01*
X153315238Y-45356048D01*
X153315243Y-45356045D01*
X153320225Y-45353722D01*
X153324734Y-45350565D01*
X153501402Y-45226861D01*
X153501405Y-45226859D01*
X153505913Y-45223702D01*
X153666202Y-45063413D01*
X153796222Y-44877724D01*
X153841122Y-44781437D01*
X153889699Y-44677262D01*
X153889700Y-44677261D01*
X153892022Y-44672280D01*
X153894935Y-44661411D01*
X153949268Y-44458636D01*
X153949268Y-44458634D01*
X153950692Y-44453321D01*
X153970449Y-44227500D01*
X153950692Y-44001679D01*
X153912836Y-43860398D01*
X153893445Y-43788030D01*
X153893444Y-43788028D01*
X153892022Y-43782720D01*
X153889699Y-43777738D01*
X153798545Y-43582257D01*
X153798543Y-43582254D01*
X153796222Y-43577276D01*
X153666202Y-43391587D01*
X153505913Y-43231298D01*
X153501405Y-43228141D01*
X153501402Y-43228139D01*
X153324734Y-43104435D01*
X153324732Y-43104434D01*
X153320225Y-43101278D01*
X153315243Y-43098955D01*
X153315238Y-43098952D01*
X153256784Y-43071695D01*
X153203499Y-43024778D01*
X153184038Y-42956500D01*
X153204580Y-42888541D01*
X153256784Y-42843305D01*
X153315238Y-42816048D01*
X153315243Y-42816045D01*
X153320225Y-42813722D01*
X153324734Y-42810565D01*
X153501402Y-42686861D01*
X153501405Y-42686859D01*
X153505913Y-42683702D01*
X153666202Y-42523413D01*
X153796222Y-42337724D01*
X153881104Y-42155695D01*
X153889699Y-42137262D01*
X153889700Y-42137261D01*
X153892022Y-42132280D01*
X153926214Y-42004676D01*
X153949268Y-41918636D01*
X153949268Y-41918634D01*
X153950692Y-41913321D01*
X153970449Y-41687500D01*
X153950692Y-41461679D01*
X153892022Y-41242720D01*
X153827663Y-41104701D01*
X153798545Y-41042257D01*
X153798543Y-41042254D01*
X153796222Y-41037276D01*
X153666202Y-40851587D01*
X153505913Y-40691298D01*
X153501405Y-40688141D01*
X153501402Y-40688139D01*
X153324734Y-40564435D01*
X153324732Y-40564434D01*
X153320225Y-40561278D01*
X153315243Y-40558955D01*
X153315238Y-40558952D01*
X153256784Y-40531695D01*
X153203499Y-40484778D01*
X153184038Y-40416500D01*
X153204580Y-40348541D01*
X153256784Y-40303305D01*
X153315238Y-40276048D01*
X153315243Y-40276045D01*
X153320225Y-40273722D01*
X153378138Y-40233171D01*
X153501402Y-40146861D01*
X153501405Y-40146859D01*
X153505913Y-40143702D01*
X153666202Y-39983413D01*
X153796222Y-39797724D01*
X153814949Y-39757565D01*
X153889699Y-39597262D01*
X153889700Y-39597261D01*
X153892022Y-39592280D01*
X153926214Y-39464676D01*
X153949268Y-39378636D01*
X153949268Y-39378634D01*
X153950692Y-39373321D01*
X153970449Y-39147500D01*
X153950692Y-38921679D01*
X153913978Y-38784660D01*
X153893445Y-38708030D01*
X153893444Y-38708028D01*
X153892022Y-38702720D01*
X153889699Y-38697738D01*
X153798545Y-38502257D01*
X153798543Y-38502254D01*
X153796222Y-38497276D01*
X153666202Y-38311587D01*
X153505913Y-38151298D01*
X153501405Y-38148141D01*
X153501402Y-38148139D01*
X153324734Y-38024435D01*
X153324732Y-38024434D01*
X153320225Y-38021278D01*
X153315243Y-38018955D01*
X153315238Y-38018952D01*
X153256784Y-37991695D01*
X153203499Y-37944778D01*
X153184038Y-37876500D01*
X153204580Y-37808541D01*
X153256784Y-37763305D01*
X153315238Y-37736048D01*
X153315243Y-37736045D01*
X153320225Y-37733722D01*
X153324734Y-37730565D01*
X153501402Y-37606861D01*
X153501405Y-37606859D01*
X153505913Y-37603702D01*
X153666202Y-37443413D01*
X153796222Y-37257724D01*
X153892022Y-37052280D01*
X153926214Y-36924676D01*
X153949268Y-36838636D01*
X153949268Y-36838634D01*
X153950692Y-36833321D01*
X153970449Y-36607500D01*
X153950692Y-36381679D01*
X153913980Y-36244669D01*
X153893445Y-36168030D01*
X153893444Y-36168028D01*
X153892022Y-36162720D01*
X153854942Y-36083201D01*
X153798545Y-35962257D01*
X153798543Y-35962254D01*
X153796222Y-35957276D01*
X153666202Y-35771587D01*
X153505913Y-35611298D01*
X153501405Y-35608141D01*
X153501402Y-35608139D01*
X153324734Y-35484435D01*
X153324732Y-35484434D01*
X153320225Y-35481278D01*
X153315243Y-35478955D01*
X153315238Y-35478952D01*
X153256784Y-35451695D01*
X153203499Y-35404778D01*
X153184038Y-35336500D01*
X153204580Y-35268541D01*
X153256784Y-35223305D01*
X153315238Y-35196048D01*
X153315243Y-35196045D01*
X153320225Y-35193722D01*
X153324734Y-35190565D01*
X153501402Y-35066861D01*
X153501405Y-35066859D01*
X153505913Y-35063702D01*
X153666202Y-34903413D01*
X153796222Y-34717724D01*
X153892022Y-34512280D01*
X153926214Y-34384676D01*
X153949268Y-34298636D01*
X153949268Y-34298634D01*
X153950692Y-34293321D01*
X153970449Y-34067500D01*
X153950692Y-33841679D01*
X153892022Y-33622720D01*
X153889699Y-33617738D01*
X153798545Y-33422257D01*
X153798543Y-33422254D01*
X153796222Y-33417276D01*
X153666202Y-33231587D01*
X153505913Y-33071298D01*
X153501405Y-33068141D01*
X153501402Y-33068139D01*
X153324734Y-32944435D01*
X153324732Y-32944434D01*
X153320225Y-32941278D01*
X153315243Y-32938955D01*
X153315238Y-32938952D01*
X153256784Y-32911695D01*
X153203499Y-32864778D01*
X153184038Y-32796500D01*
X153204580Y-32728541D01*
X153256784Y-32683305D01*
X153315238Y-32656048D01*
X153315243Y-32656045D01*
X153320225Y-32653722D01*
X153324734Y-32650565D01*
X153501402Y-32526861D01*
X153501405Y-32526859D01*
X153505913Y-32523702D01*
X153666202Y-32363413D01*
X153796222Y-32177724D01*
X153840188Y-32083440D01*
X153889699Y-31977262D01*
X153889700Y-31977261D01*
X153892022Y-31972280D01*
X153898926Y-31946516D01*
X153949268Y-31758636D01*
X153949268Y-31758634D01*
X153950692Y-31753321D01*
X153970449Y-31527500D01*
X153950692Y-31301679D01*
X153892022Y-31082720D01*
X153889699Y-31077738D01*
X153798545Y-30882257D01*
X153798543Y-30882254D01*
X153796222Y-30877276D01*
X153666202Y-30691587D01*
X153505913Y-30531298D01*
X153501405Y-30528141D01*
X153501402Y-30528139D01*
X153324734Y-30404435D01*
X153324732Y-30404434D01*
X153320225Y-30401278D01*
X153315243Y-30398955D01*
X153315238Y-30398952D01*
X153256784Y-30371695D01*
X153203499Y-30324778D01*
X153184038Y-30256500D01*
X153204580Y-30188541D01*
X153256784Y-30143305D01*
X153315238Y-30116048D01*
X153315243Y-30116045D01*
X153320225Y-30113722D01*
X153324734Y-30110565D01*
X153501402Y-29986861D01*
X153501405Y-29986859D01*
X153505913Y-29983702D01*
X153666202Y-29823413D01*
X153796222Y-29637724D01*
X153892022Y-29432280D01*
X153926214Y-29304676D01*
X153949268Y-29218636D01*
X153949268Y-29218634D01*
X153950692Y-29213321D01*
X153970449Y-28987500D01*
X153950692Y-28761679D01*
X153948656Y-28754081D01*
X153893445Y-28548030D01*
X153893444Y-28548028D01*
X153892022Y-28542720D01*
X153861339Y-28476919D01*
X153798545Y-28342257D01*
X153798543Y-28342254D01*
X153796222Y-28337276D01*
X153666202Y-28151587D01*
X153505913Y-27991298D01*
X153501405Y-27988141D01*
X153501402Y-27988139D01*
X153324734Y-27864435D01*
X153324732Y-27864434D01*
X153320225Y-27861278D01*
X153315243Y-27858955D01*
X153315238Y-27858952D01*
X153256784Y-27831695D01*
X153203499Y-27784778D01*
X153184038Y-27716500D01*
X153204580Y-27648541D01*
X153256784Y-27603305D01*
X153315238Y-27576048D01*
X153315243Y-27576045D01*
X153320225Y-27573722D01*
X153324734Y-27570565D01*
X153501402Y-27446861D01*
X153501405Y-27446859D01*
X153505913Y-27443702D01*
X153666202Y-27283413D01*
X153796222Y-27097724D01*
X153892022Y-26892280D01*
X153926214Y-26764676D01*
X153949268Y-26678636D01*
X153949268Y-26678634D01*
X153950692Y-26673321D01*
X153970449Y-26447500D01*
X153950692Y-26221679D01*
X153943053Y-26193171D01*
X153893445Y-26008030D01*
X153893444Y-26008028D01*
X153892022Y-26002720D01*
X153868376Y-25952010D01*
X153798545Y-25802257D01*
X153798543Y-25802254D01*
X153796222Y-25797276D01*
X153666202Y-25611587D01*
X153505913Y-25451298D01*
X153456767Y-25416885D01*
X153412439Y-25361430D01*
X153405130Y-25290810D01*
X153437160Y-25227450D01*
X153498361Y-25191464D01*
X153512593Y-25188751D01*
X153513575Y-25188622D01*
X153513577Y-25188622D01*
X153521762Y-25187544D01*
X153667841Y-25127036D01*
X153793282Y-25030782D01*
X153889536Y-24905341D01*
X153950044Y-24759262D01*
X153965500Y-24641861D01*
X153965499Y-23173140D01*
X153964945Y-23168926D01*
X153951122Y-23063925D01*
X153951122Y-23063923D01*
X153950044Y-23055738D01*
X153889536Y-22909659D01*
X153793282Y-22784218D01*
X153667841Y-22687964D01*
X153521762Y-22627456D01*
X153513202Y-22626329D01*
X153408448Y-22612538D01*
X153408447Y-22612538D01*
X153404361Y-22612000D01*
X152670090Y-22612000D01*
X151935640Y-22612001D01*
X151931556Y-22612539D01*
X151931550Y-22612539D01*
X151826425Y-22626378D01*
X151826423Y-22626378D01*
X151818238Y-22627456D01*
X151672159Y-22687964D01*
X151546718Y-22784218D01*
X151450464Y-22909659D01*
X151389956Y-23055738D01*
X151388878Y-23063928D01*
X151388749Y-23064905D01*
X151388411Y-23065669D01*
X151386741Y-23071902D01*
X151385769Y-23071642D01*
X151360029Y-23129833D01*
X151300765Y-23168926D01*
X151229773Y-23169773D01*
X151169593Y-23132104D01*
X151160614Y-23120733D01*
X151126202Y-23071587D01*
X150965913Y-22911298D01*
X150961405Y-22908141D01*
X150961402Y-22908139D01*
X150784734Y-22784435D01*
X150784731Y-22784433D01*
X150780225Y-22781278D01*
X150775243Y-22778955D01*
X150775238Y-22778952D01*
X150579762Y-22687801D01*
X150579761Y-22687801D01*
X150574780Y-22685478D01*
X150569472Y-22684056D01*
X150569470Y-22684055D01*
X150361136Y-22628232D01*
X150361134Y-22628232D01*
X150355821Y-22626808D01*
X150130000Y-22607051D01*
X149904179Y-22626808D01*
X149898866Y-22628232D01*
X149898864Y-22628232D01*
X149690530Y-22684055D01*
X149690528Y-22684056D01*
X149685220Y-22685478D01*
X149680239Y-22687800D01*
X149680238Y-22687801D01*
X149484757Y-22778955D01*
X149484754Y-22778957D01*
X149479776Y-22781278D01*
X149294087Y-22911298D01*
X149133798Y-23071587D01*
X149062692Y-23173139D01*
X149056298Y-23182270D01*
X149000841Y-23226599D01*
X148953084Y-23236000D01*
X110827227Y-23236000D01*
X110759106Y-23215998D01*
X110738132Y-23199095D01*
X110080317Y-22541280D01*
X110046291Y-22478968D01*
X110051356Y-22408153D01*
X110093903Y-22351317D01*
X110158430Y-22326664D01*
X110229307Y-22320463D01*
X110234621Y-22319039D01*
X110234622Y-22319039D01*
X110446336Y-22262311D01*
X110446338Y-22262310D01*
X110451646Y-22260888D01*
X110456628Y-22258565D01*
X110655276Y-22165934D01*
X110655281Y-22165931D01*
X110660263Y-22163608D01*
X110717729Y-22123370D01*
X110844306Y-22034740D01*
X110844309Y-22034738D01*
X110848817Y-22031581D01*
X110910905Y-21969493D01*
X110973217Y-21935467D01*
X111044032Y-21940532D01*
X111089095Y-21969493D01*
X111151183Y-22031581D01*
X111155691Y-22034738D01*
X111155694Y-22034740D01*
X111282271Y-22123370D01*
X111339737Y-22163608D01*
X111344719Y-22165931D01*
X111344724Y-22165934D01*
X111543372Y-22258565D01*
X111548354Y-22260888D01*
X111553662Y-22262310D01*
X111553664Y-22262311D01*
X111765378Y-22319039D01*
X111765379Y-22319039D01*
X111770693Y-22320463D01*
X112000000Y-22340525D01*
X112229307Y-22320463D01*
X112234621Y-22319039D01*
X112234622Y-22319039D01*
X112446336Y-22262311D01*
X112446338Y-22262310D01*
X112451646Y-22260888D01*
X112456628Y-22258565D01*
X112655276Y-22165934D01*
X112655281Y-22165931D01*
X112660263Y-22163608D01*
X112717729Y-22123370D01*
X112844306Y-22034740D01*
X112844309Y-22034738D01*
X112848817Y-22031581D01*
X112910905Y-21969493D01*
X112973217Y-21935467D01*
X113044032Y-21940532D01*
X113089095Y-21969493D01*
X113151183Y-22031581D01*
X113155691Y-22034738D01*
X113155694Y-22034740D01*
X113282271Y-22123370D01*
X113339737Y-22163608D01*
X113344719Y-22165931D01*
X113344724Y-22165934D01*
X113543372Y-22258565D01*
X113548354Y-22260888D01*
X113553662Y-22262310D01*
X113553664Y-22262311D01*
X113765378Y-22319039D01*
X113765379Y-22319039D01*
X113770693Y-22320463D01*
X114000000Y-22340525D01*
X114229307Y-22320463D01*
X114234621Y-22319039D01*
X114234622Y-22319039D01*
X114446336Y-22262311D01*
X114446338Y-22262310D01*
X114451646Y-22260888D01*
X114456628Y-22258565D01*
X114655276Y-22165934D01*
X114655281Y-22165931D01*
X114660263Y-22163608D01*
X114717729Y-22123370D01*
X114844306Y-22034740D01*
X114844309Y-22034738D01*
X114848817Y-22031581D01*
X114910905Y-21969493D01*
X114973217Y-21935467D01*
X115044032Y-21940532D01*
X115089095Y-21969493D01*
X115151183Y-22031581D01*
X115155691Y-22034738D01*
X115155694Y-22034740D01*
X115282271Y-22123370D01*
X115339737Y-22163608D01*
X115344719Y-22165931D01*
X115344724Y-22165934D01*
X115543372Y-22258565D01*
X115548354Y-22260888D01*
X115553662Y-22262310D01*
X115553664Y-22262311D01*
X115765378Y-22319039D01*
X115765379Y-22319039D01*
X115770693Y-22320463D01*
X116000000Y-22340525D01*
X116229307Y-22320463D01*
X116234621Y-22319039D01*
X116234622Y-22319039D01*
X116446336Y-22262311D01*
X116446338Y-22262310D01*
X116451646Y-22260888D01*
X116456628Y-22258565D01*
X116655276Y-22165934D01*
X116655281Y-22165931D01*
X116660263Y-22163608D01*
X116717729Y-22123370D01*
X116844306Y-22034740D01*
X116844309Y-22034738D01*
X116848817Y-22031581D01*
X116910905Y-21969493D01*
X116973217Y-21935467D01*
X117044032Y-21940532D01*
X117089095Y-21969493D01*
X117151183Y-22031581D01*
X117155691Y-22034738D01*
X117155694Y-22034740D01*
X117282271Y-22123370D01*
X117339737Y-22163608D01*
X117344719Y-22165931D01*
X117344724Y-22165934D01*
X117543372Y-22258565D01*
X117548354Y-22260888D01*
X117553662Y-22262310D01*
X117553664Y-22262311D01*
X117765378Y-22319039D01*
X117765379Y-22319039D01*
X117770693Y-22320463D01*
X118000000Y-22340525D01*
X118229307Y-22320463D01*
X118234621Y-22319039D01*
X118234622Y-22319039D01*
X118446336Y-22262311D01*
X118446338Y-22262310D01*
X118451646Y-22260888D01*
X118456628Y-22258565D01*
X118655276Y-22165934D01*
X118655281Y-22165931D01*
X118660263Y-22163608D01*
X118717729Y-22123370D01*
X118844306Y-22034740D01*
X118844309Y-22034738D01*
X118848817Y-22031581D01*
X119011581Y-21868817D01*
X119077952Y-21774029D01*
X119133408Y-21729701D01*
X119204027Y-21722392D01*
X119234415Y-21732105D01*
X119294921Y-21760320D01*
X119518950Y-21820349D01*
X119573152Y-21825091D01*
X119689404Y-21835262D01*
X119689413Y-21835262D01*
X119692129Y-21835500D01*
X119807871Y-21835500D01*
X119810587Y-21835262D01*
X119810596Y-21835262D01*
X119926848Y-21825091D01*
X119981050Y-21820349D01*
X120205079Y-21760320D01*
X120361407Y-21687423D01*
X120410294Y-21664627D01*
X120410299Y-21664624D01*
X120415281Y-21662301D01*
X120513765Y-21593342D01*
X120600758Y-21532429D01*
X120600761Y-21532427D01*
X120605269Y-21529270D01*
X120769270Y-21365269D01*
X120775006Y-21357078D01*
X120899144Y-21179790D01*
X120902301Y-21175282D01*
X120904624Y-21170300D01*
X120904627Y-21170295D01*
X120997995Y-20970064D01*
X121000320Y-20965079D01*
X121030353Y-20852997D01*
X121067304Y-20792375D01*
X121131164Y-20761354D01*
X121197007Y-20767899D01*
X121320811Y-20815175D01*
X121325879Y-20816206D01*
X121325882Y-20816207D01*
X121419541Y-20835262D01*
X121539072Y-20859581D01*
X121544247Y-20859771D01*
X121544249Y-20859771D01*
X121756491Y-20867554D01*
X121756495Y-20867554D01*
X121761655Y-20867743D01*
X121766775Y-20867087D01*
X121766777Y-20867087D01*
X121876755Y-20852998D01*
X121982582Y-20839441D01*
X121987531Y-20837956D01*
X121987537Y-20837955D01*
X122190969Y-20776922D01*
X122190968Y-20776922D01*
X122195919Y-20775437D01*
X122395939Y-20677448D01*
X122400144Y-20674448D01*
X122400150Y-20674445D01*
X122573065Y-20551106D01*
X122573067Y-20551104D01*
X122577269Y-20548107D01*
X122735039Y-20390887D01*
X122803911Y-20295042D01*
X122861994Y-20214210D01*
X122865012Y-20210010D01*
X122884641Y-20170295D01*
X122961404Y-20014976D01*
X122961405Y-20014974D01*
X122963698Y-20010334D01*
X123028447Y-19797220D01*
X123034135Y-19754017D01*
X123057082Y-19579716D01*
X123057082Y-19579710D01*
X123057519Y-19576394D01*
X123059142Y-19510000D01*
X123040892Y-19288017D01*
X122986631Y-19071995D01*
X122897817Y-18867736D01*
X122893070Y-18860398D01*
X122779645Y-18685070D01*
X122779640Y-18685064D01*
X122776834Y-18680726D01*
X122758214Y-18660262D01*
X122630411Y-18519808D01*
X122630409Y-18519806D01*
X122626933Y-18515986D01*
X122622882Y-18512787D01*
X122622878Y-18512783D01*
X122456196Y-18381147D01*
X122452138Y-18377942D01*
X122345742Y-18319208D01*
X122261675Y-18272800D01*
X122261672Y-18272799D01*
X122257144Y-18270299D01*
X122061657Y-18201074D01*
X122052059Y-18197675D01*
X122052056Y-18197674D01*
X122047187Y-18195950D01*
X122042098Y-18195043D01*
X122042096Y-18195043D01*
X121832996Y-18157796D01*
X121832990Y-18157795D01*
X121827907Y-18156890D01*
X121754094Y-18155988D01*
X121610361Y-18154232D01*
X121610359Y-18154232D01*
X121605191Y-18154169D01*
X121385022Y-18187859D01*
X121173311Y-18257057D01*
X121168723Y-18259445D01*
X121168719Y-18259447D01*
X120986099Y-18354513D01*
X120975745Y-18359903D01*
X120971612Y-18363006D01*
X120971609Y-18363008D01*
X120801765Y-18490531D01*
X120797630Y-18493636D01*
X120643748Y-18654664D01*
X120518233Y-18838663D01*
X120516060Y-18843345D01*
X120516058Y-18843348D01*
X120466788Y-18949493D01*
X120424455Y-19040691D01*
X120420509Y-19054921D01*
X120385332Y-19181762D01*
X120347853Y-19242060D01*
X120283724Y-19272523D01*
X120215566Y-19262970D01*
X120215233Y-19263886D01*
X120210934Y-19262321D01*
X120210662Y-19262283D01*
X120210068Y-19262006D01*
X120210064Y-19262005D01*
X120205079Y-19259680D01*
X119981050Y-19199651D01*
X119926848Y-19194909D01*
X119810596Y-19184738D01*
X119810587Y-19184738D01*
X119807871Y-19184500D01*
X119692129Y-19184500D01*
X119689413Y-19184738D01*
X119689404Y-19184738D01*
X119573152Y-19194909D01*
X119518950Y-19199651D01*
X119294921Y-19259680D01*
X119218444Y-19295342D01*
X119089706Y-19355373D01*
X119089701Y-19355376D01*
X119084719Y-19357699D01*
X119080212Y-19360855D01*
X119080210Y-19360856D01*
X118899242Y-19487571D01*
X118899239Y-19487573D01*
X118894731Y-19490730D01*
X118730730Y-19654731D01*
X118727573Y-19659239D01*
X118727571Y-19659242D01*
X118657022Y-19759996D01*
X118601564Y-19804324D01*
X118530945Y-19811633D01*
X118500560Y-19801920D01*
X118456633Y-19781437D01*
X118456628Y-19781435D01*
X118451646Y-19779112D01*
X118446338Y-19777690D01*
X118446336Y-19777689D01*
X118234622Y-19720961D01*
X118234621Y-19720961D01*
X118229307Y-19719537D01*
X118000000Y-19699475D01*
X117770693Y-19719537D01*
X117765379Y-19720961D01*
X117765378Y-19720961D01*
X117553664Y-19777689D01*
X117553662Y-19777690D01*
X117548354Y-19779112D01*
X117543374Y-19781434D01*
X117543372Y-19781435D01*
X117344719Y-19874069D01*
X117344716Y-19874071D01*
X117339738Y-19876392D01*
X117151183Y-20008419D01*
X117089095Y-20070507D01*
X117026783Y-20104533D01*
X116955968Y-20099468D01*
X116910905Y-20070507D01*
X116848817Y-20008419D01*
X116844309Y-20005262D01*
X116844306Y-20005260D01*
X116664772Y-19879549D01*
X116664769Y-19879547D01*
X116660263Y-19876392D01*
X116655281Y-19874069D01*
X116655276Y-19874066D01*
X116456628Y-19781435D01*
X116456627Y-19781434D01*
X116451646Y-19779112D01*
X116446338Y-19777690D01*
X116446336Y-19777689D01*
X116234622Y-19720961D01*
X116234621Y-19720961D01*
X116229307Y-19719537D01*
X116000000Y-19699475D01*
X115770693Y-19719537D01*
X115765379Y-19720961D01*
X115765378Y-19720961D01*
X115553664Y-19777689D01*
X115553662Y-19777690D01*
X115548354Y-19779112D01*
X115543374Y-19781434D01*
X115543372Y-19781435D01*
X115344719Y-19874069D01*
X115344716Y-19874071D01*
X115339738Y-19876392D01*
X115151183Y-20008419D01*
X115089095Y-20070507D01*
X115026783Y-20104533D01*
X114955968Y-20099468D01*
X114910905Y-20070507D01*
X114848817Y-20008419D01*
X114844309Y-20005262D01*
X114844306Y-20005260D01*
X114664772Y-19879549D01*
X114664769Y-19879547D01*
X114660263Y-19876392D01*
X114655281Y-19874069D01*
X114655276Y-19874066D01*
X114456628Y-19781435D01*
X114456627Y-19781434D01*
X114451646Y-19779112D01*
X114446338Y-19777690D01*
X114446336Y-19777689D01*
X114234622Y-19720961D01*
X114234621Y-19720961D01*
X114229307Y-19719537D01*
X114000000Y-19699475D01*
X113770693Y-19719537D01*
X113765379Y-19720961D01*
X113765378Y-19720961D01*
X113553664Y-19777689D01*
X113553662Y-19777690D01*
X113548354Y-19779112D01*
X113543374Y-19781434D01*
X113543372Y-19781435D01*
X113344719Y-19874069D01*
X113344716Y-19874071D01*
X113339738Y-19876392D01*
X113151183Y-20008419D01*
X113089095Y-20070507D01*
X113026783Y-20104533D01*
X112955968Y-20099468D01*
X112910905Y-20070507D01*
X112848817Y-20008419D01*
X112844309Y-20005262D01*
X112844306Y-20005260D01*
X112664772Y-19879549D01*
X112664769Y-19879547D01*
X112660263Y-19876392D01*
X112655281Y-19874069D01*
X112655276Y-19874066D01*
X112456628Y-19781435D01*
X112456627Y-19781434D01*
X112451646Y-19779112D01*
X112446338Y-19777690D01*
X112446336Y-19777689D01*
X112234622Y-19720961D01*
X112234621Y-19720961D01*
X112229307Y-19719537D01*
X112000000Y-19699475D01*
X111770693Y-19719537D01*
X111765379Y-19720961D01*
X111765378Y-19720961D01*
X111553664Y-19777689D01*
X111553662Y-19777690D01*
X111548354Y-19779112D01*
X111543374Y-19781434D01*
X111543372Y-19781435D01*
X111344719Y-19874069D01*
X111344716Y-19874071D01*
X111339738Y-19876392D01*
X111151183Y-20008419D01*
X111089095Y-20070507D01*
X111026783Y-20104533D01*
X110955968Y-20099468D01*
X110910905Y-20070507D01*
X110848817Y-20008419D01*
X110844309Y-20005262D01*
X110844306Y-20005260D01*
X110664772Y-19879549D01*
X110664769Y-19879547D01*
X110660263Y-19876392D01*
X110655281Y-19874069D01*
X110655276Y-19874066D01*
X110456628Y-19781435D01*
X110456627Y-19781434D01*
X110451646Y-19779112D01*
X110446338Y-19777690D01*
X110446336Y-19777689D01*
X110234622Y-19720961D01*
X110234621Y-19720961D01*
X110229307Y-19719537D01*
X110000000Y-19699475D01*
X109994525Y-19699954D01*
X109982867Y-19700974D01*
X109800982Y-19716887D01*
X109731377Y-19702898D01*
X109680384Y-19653498D01*
X109664000Y-19591366D01*
X109664000Y-19428634D01*
X109684002Y-19360513D01*
X109737658Y-19314020D01*
X109800982Y-19303113D01*
X109960875Y-19317102D01*
X110000000Y-19320525D01*
X110229307Y-19300463D01*
X110234621Y-19299039D01*
X110234622Y-19299039D01*
X110446336Y-19242311D01*
X110446338Y-19242310D01*
X110451646Y-19240888D01*
X110456628Y-19238565D01*
X110655276Y-19145934D01*
X110655281Y-19145931D01*
X110660263Y-19143608D01*
X110769305Y-19067256D01*
X110844306Y-19014740D01*
X110844309Y-19014738D01*
X110848817Y-19011581D01*
X110910905Y-18949493D01*
X110973217Y-18915467D01*
X111044032Y-18920532D01*
X111089095Y-18949493D01*
X111151183Y-19011581D01*
X111155691Y-19014738D01*
X111155694Y-19014740D01*
X111230695Y-19067256D01*
X111339737Y-19143608D01*
X111344719Y-19145931D01*
X111344724Y-19145934D01*
X111543372Y-19238565D01*
X111548354Y-19240888D01*
X111553662Y-19242310D01*
X111553664Y-19242311D01*
X111765378Y-19299039D01*
X111765379Y-19299039D01*
X111770693Y-19300463D01*
X112000000Y-19320525D01*
X112229307Y-19300463D01*
X112234621Y-19299039D01*
X112234622Y-19299039D01*
X112446336Y-19242311D01*
X112446338Y-19242310D01*
X112451646Y-19240888D01*
X112456628Y-19238565D01*
X112655276Y-19145934D01*
X112655281Y-19145931D01*
X112660263Y-19143608D01*
X112769305Y-19067256D01*
X112844306Y-19014740D01*
X112844309Y-19014738D01*
X112848817Y-19011581D01*
X112910905Y-18949493D01*
X112973217Y-18915467D01*
X113044032Y-18920532D01*
X113089095Y-18949493D01*
X113151183Y-19011581D01*
X113155691Y-19014738D01*
X113155694Y-19014740D01*
X113230695Y-19067256D01*
X113339737Y-19143608D01*
X113344719Y-19145931D01*
X113344724Y-19145934D01*
X113543372Y-19238565D01*
X113548354Y-19240888D01*
X113553662Y-19242310D01*
X113553664Y-19242311D01*
X113765378Y-19299039D01*
X113765379Y-19299039D01*
X113770693Y-19300463D01*
X114000000Y-19320525D01*
X114229307Y-19300463D01*
X114234621Y-19299039D01*
X114234622Y-19299039D01*
X114446336Y-19242311D01*
X114446338Y-19242310D01*
X114451646Y-19240888D01*
X114456628Y-19238565D01*
X114655276Y-19145934D01*
X114655281Y-19145931D01*
X114660263Y-19143608D01*
X114769305Y-19067256D01*
X114844306Y-19014740D01*
X114844309Y-19014738D01*
X114848817Y-19011581D01*
X114910905Y-18949493D01*
X114973217Y-18915467D01*
X115044032Y-18920532D01*
X115089095Y-18949493D01*
X115151183Y-19011581D01*
X115155691Y-19014738D01*
X115155694Y-19014740D01*
X115230695Y-19067256D01*
X115339737Y-19143608D01*
X115344719Y-19145931D01*
X115344724Y-19145934D01*
X115543372Y-19238565D01*
X115548354Y-19240888D01*
X115553662Y-19242310D01*
X115553664Y-19242311D01*
X115765378Y-19299039D01*
X115765379Y-19299039D01*
X115770693Y-19300463D01*
X116000000Y-19320525D01*
X116229307Y-19300463D01*
X116234621Y-19299039D01*
X116234622Y-19299039D01*
X116446336Y-19242311D01*
X116446338Y-19242310D01*
X116451646Y-19240888D01*
X116456628Y-19238565D01*
X116655276Y-19145934D01*
X116655281Y-19145931D01*
X116660263Y-19143608D01*
X116769305Y-19067256D01*
X116844306Y-19014740D01*
X116844309Y-19014738D01*
X116848817Y-19011581D01*
X116910905Y-18949493D01*
X116973217Y-18915467D01*
X117044032Y-18920532D01*
X117089095Y-18949493D01*
X117151183Y-19011581D01*
X117155691Y-19014738D01*
X117155694Y-19014740D01*
X117230695Y-19067256D01*
X117339737Y-19143608D01*
X117344719Y-19145931D01*
X117344724Y-19145934D01*
X117543372Y-19238565D01*
X117548354Y-19240888D01*
X117553662Y-19242310D01*
X117553664Y-19242311D01*
X117765378Y-19299039D01*
X117765379Y-19299039D01*
X117770693Y-19300463D01*
X118000000Y-19320525D01*
X118229307Y-19300463D01*
X118234621Y-19299039D01*
X118234622Y-19299039D01*
X118446336Y-19242311D01*
X118446338Y-19242310D01*
X118451646Y-19240888D01*
X118456628Y-19238565D01*
X118655276Y-19145934D01*
X118655281Y-19145931D01*
X118660263Y-19143608D01*
X118769305Y-19067256D01*
X118844306Y-19014740D01*
X118844309Y-19014738D01*
X118848817Y-19011581D01*
X119011581Y-18848817D01*
X119143608Y-18660262D01*
X119146219Y-18654664D01*
X119238565Y-18456628D01*
X119238566Y-18456626D01*
X119240888Y-18451646D01*
X119266111Y-18357514D01*
X119299039Y-18234622D01*
X119299039Y-18234621D01*
X119300463Y-18229307D01*
X119320525Y-18000000D01*
X119300463Y-17770693D01*
X119276372Y-17680782D01*
X119242311Y-17553664D01*
X119242310Y-17553662D01*
X119240888Y-17548354D01*
X119238565Y-17543372D01*
X119145931Y-17344719D01*
X119145929Y-17344716D01*
X119143608Y-17339738D01*
X119011581Y-17151183D01*
X118848817Y-16988419D01*
X118844309Y-16985262D01*
X118844306Y-16985260D01*
X118664772Y-16859549D01*
X118664769Y-16859547D01*
X118660263Y-16856392D01*
X118655281Y-16854069D01*
X118655276Y-16854066D01*
X118456628Y-16761435D01*
X118456627Y-16761434D01*
X118451646Y-16759112D01*
X118446338Y-16757690D01*
X118446336Y-16757689D01*
X118234622Y-16700961D01*
X118234621Y-16700961D01*
X118229307Y-16699537D01*
X118000000Y-16679475D01*
X117770693Y-16699537D01*
X117765379Y-16700961D01*
X117765378Y-16700961D01*
X117553664Y-16757689D01*
X117553662Y-16757690D01*
X117548354Y-16759112D01*
X117543374Y-16761434D01*
X117543372Y-16761435D01*
X117344719Y-16854069D01*
X117344716Y-16854071D01*
X117339738Y-16856392D01*
X117151183Y-16988419D01*
X117089095Y-17050507D01*
X117026783Y-17084533D01*
X116955968Y-17079468D01*
X116910905Y-17050507D01*
X116848817Y-16988419D01*
X116844309Y-16985262D01*
X116844306Y-16985260D01*
X116664772Y-16859549D01*
X116664769Y-16859547D01*
X116660263Y-16856392D01*
X116655281Y-16854069D01*
X116655276Y-16854066D01*
X116456628Y-16761435D01*
X116456627Y-16761434D01*
X116451646Y-16759112D01*
X116446338Y-16757690D01*
X116446336Y-16757689D01*
X116234622Y-16700961D01*
X116234621Y-16700961D01*
X116229307Y-16699537D01*
X116000000Y-16679475D01*
X115770693Y-16699537D01*
X115765379Y-16700961D01*
X115765378Y-16700961D01*
X115553664Y-16757689D01*
X115553662Y-16757690D01*
X115548354Y-16759112D01*
X115543374Y-16761434D01*
X115543372Y-16761435D01*
X115344719Y-16854069D01*
X115344716Y-16854071D01*
X115339738Y-16856392D01*
X115151183Y-16988419D01*
X115089095Y-17050507D01*
X115026783Y-17084533D01*
X114955968Y-17079468D01*
X114910905Y-17050507D01*
X114848817Y-16988419D01*
X114844309Y-16985262D01*
X114844306Y-16985260D01*
X114664772Y-16859549D01*
X114664769Y-16859547D01*
X114660263Y-16856392D01*
X114655281Y-16854069D01*
X114655276Y-16854066D01*
X114456628Y-16761435D01*
X114456627Y-16761434D01*
X114451646Y-16759112D01*
X114446338Y-16757690D01*
X114446336Y-16757689D01*
X114234622Y-16700961D01*
X114234621Y-16700961D01*
X114229307Y-16699537D01*
X114000000Y-16679475D01*
X113770693Y-16699537D01*
X113765379Y-16700961D01*
X113765378Y-16700961D01*
X113553664Y-16757689D01*
X113553662Y-16757690D01*
X113548354Y-16759112D01*
X113543374Y-16761434D01*
X113543372Y-16761435D01*
X113344719Y-16854069D01*
X113344716Y-16854071D01*
X113339738Y-16856392D01*
X113151183Y-16988419D01*
X113089095Y-17050507D01*
X113026783Y-17084533D01*
X112955968Y-17079468D01*
X112910905Y-17050507D01*
X112848817Y-16988419D01*
X112844309Y-16985262D01*
X112844306Y-16985260D01*
X112664772Y-16859549D01*
X112664769Y-16859547D01*
X112660263Y-16856392D01*
X112655281Y-16854069D01*
X112655276Y-16854066D01*
X112456628Y-16761435D01*
X112456627Y-16761434D01*
X112451646Y-16759112D01*
X112446338Y-16757690D01*
X112446336Y-16757689D01*
X112234622Y-16700961D01*
X112234621Y-16700961D01*
X112229307Y-16699537D01*
X112000000Y-16679475D01*
X111770693Y-16699537D01*
X111765379Y-16700961D01*
X111765378Y-16700961D01*
X111553664Y-16757689D01*
X111553662Y-16757690D01*
X111548354Y-16759112D01*
X111543374Y-16761434D01*
X111543372Y-16761435D01*
X111344719Y-16854069D01*
X111344716Y-16854071D01*
X111339738Y-16856392D01*
X111151183Y-16988419D01*
X111089095Y-17050507D01*
X111026783Y-17084533D01*
X110955968Y-17079468D01*
X110910905Y-17050507D01*
X110848817Y-16988419D01*
X110844309Y-16985262D01*
X110844306Y-16985260D01*
X110664772Y-16859549D01*
X110664769Y-16859547D01*
X110660263Y-16856392D01*
X110655281Y-16854069D01*
X110655276Y-16854066D01*
X110456628Y-16761435D01*
X110456627Y-16761434D01*
X110451646Y-16759112D01*
X110446338Y-16757690D01*
X110446336Y-16757689D01*
X110234622Y-16700961D01*
X110234621Y-16700961D01*
X110229307Y-16699537D01*
X110000000Y-16679475D01*
X109770693Y-16699537D01*
X109765379Y-16700961D01*
X109765378Y-16700961D01*
X109553664Y-16757689D01*
X109553662Y-16757690D01*
X109548354Y-16759112D01*
X109543374Y-16761434D01*
X109543372Y-16761435D01*
X109344719Y-16854069D01*
X109344716Y-16854071D01*
X109339738Y-16856392D01*
X109151183Y-16988419D01*
X109089095Y-17050507D01*
X109026783Y-17084533D01*
X108955968Y-17079468D01*
X108910905Y-17050507D01*
X108848817Y-16988419D01*
X108844309Y-16985262D01*
X108844306Y-16985260D01*
X108664772Y-16859549D01*
X108664769Y-16859547D01*
X108660263Y-16856392D01*
X108655281Y-16854069D01*
X108655276Y-16854066D01*
X108456628Y-16761435D01*
X108456627Y-16761434D01*
X108451646Y-16759112D01*
X108446338Y-16757690D01*
X108446336Y-16757689D01*
X108234622Y-16700961D01*
X108234621Y-16700961D01*
X108229307Y-16699537D01*
X108000000Y-16679475D01*
X107770693Y-16699537D01*
X107765379Y-16700961D01*
X107765378Y-16700961D01*
X107553664Y-16757689D01*
X107553662Y-16757690D01*
X107548354Y-16759112D01*
X107543374Y-16761434D01*
X107543372Y-16761435D01*
X107344719Y-16854069D01*
X107344716Y-16854071D01*
X107339738Y-16856392D01*
X107151183Y-16988419D01*
X107089095Y-17050507D01*
X107026783Y-17084533D01*
X106955968Y-17079468D01*
X106910905Y-17050507D01*
X106848817Y-16988419D01*
X106844309Y-16985262D01*
X106844306Y-16985260D01*
X106664772Y-16859549D01*
X106664769Y-16859547D01*
X106660263Y-16856392D01*
X106655281Y-16854069D01*
X106655276Y-16854066D01*
X106456628Y-16761435D01*
X106456627Y-16761434D01*
X106451646Y-16759112D01*
X106446338Y-16757690D01*
X106446336Y-16757689D01*
X106234622Y-16700961D01*
X106234621Y-16700961D01*
X106229307Y-16699537D01*
X106000000Y-16679475D01*
X105770693Y-16699537D01*
X105765379Y-16700961D01*
X105765378Y-16700961D01*
X105553664Y-16757689D01*
X105553662Y-16757690D01*
X105548354Y-16759112D01*
X105543374Y-16761434D01*
X105543372Y-16761435D01*
X105344719Y-16854069D01*
X105344716Y-16854071D01*
X105339738Y-16856392D01*
X105151183Y-16988419D01*
X105089095Y-17050507D01*
X105026783Y-17084533D01*
X104955968Y-17079468D01*
X104910905Y-17050507D01*
X104848817Y-16988419D01*
X104844309Y-16985262D01*
X104844306Y-16985260D01*
X104664772Y-16859549D01*
X104664769Y-16859547D01*
X104660263Y-16856392D01*
X104655281Y-16854069D01*
X104655276Y-16854066D01*
X104456628Y-16761435D01*
X104456627Y-16761434D01*
X104451646Y-16759112D01*
X104446338Y-16757690D01*
X104446336Y-16757689D01*
X104234622Y-16700961D01*
X104234621Y-16700961D01*
X104229307Y-16699537D01*
X104000000Y-16679475D01*
X103770693Y-16699537D01*
X103765379Y-16700961D01*
X103765378Y-16700961D01*
X103553664Y-16757689D01*
X103553662Y-16757690D01*
X103548354Y-16759112D01*
X103543374Y-16761434D01*
X103543372Y-16761435D01*
X103344719Y-16854069D01*
X103344716Y-16854071D01*
X103339738Y-16856392D01*
X103151183Y-16988419D01*
X103089095Y-17050507D01*
X103026783Y-17084533D01*
X102955968Y-17079468D01*
X102910905Y-17050507D01*
X102848817Y-16988419D01*
X102844309Y-16985262D01*
X102844306Y-16985260D01*
X102664772Y-16859549D01*
X102664769Y-16859547D01*
X102660263Y-16856392D01*
X102655281Y-16854069D01*
X102655276Y-16854066D01*
X102456628Y-16761435D01*
X102456627Y-16761434D01*
X102451646Y-16759112D01*
X102446338Y-16757690D01*
X102446336Y-16757689D01*
X102234622Y-16700961D01*
X102234621Y-16700961D01*
X102229307Y-16699537D01*
X102000000Y-16679475D01*
X101770693Y-16699537D01*
X101765379Y-16700961D01*
X101765378Y-16700961D01*
X101553664Y-16757689D01*
X101553662Y-16757690D01*
X101548354Y-16759112D01*
X101543374Y-16761434D01*
X101543372Y-16761435D01*
X101344719Y-16854069D01*
X101344716Y-16854071D01*
X101339738Y-16856392D01*
X101151183Y-16988419D01*
X101089095Y-17050507D01*
X101026783Y-17084533D01*
X100955968Y-17079468D01*
X100910905Y-17050507D01*
X100848817Y-16988419D01*
X100844309Y-16985262D01*
X100844306Y-16985260D01*
X100664772Y-16859549D01*
X100664769Y-16859547D01*
X100660263Y-16856392D01*
X100655281Y-16854069D01*
X100655276Y-16854066D01*
X100456628Y-16761435D01*
X100456627Y-16761434D01*
X100451646Y-16759112D01*
X100446338Y-16757690D01*
X100446336Y-16757689D01*
X100234622Y-16700961D01*
X100234621Y-16700961D01*
X100229307Y-16699537D01*
X100000000Y-16679475D01*
X99770693Y-16699537D01*
X99765379Y-16700961D01*
X99765378Y-16700961D01*
X99553664Y-16757689D01*
X99553662Y-16757690D01*
X99548354Y-16759112D01*
X99543374Y-16761434D01*
X99543372Y-16761435D01*
X99344719Y-16854069D01*
X99344716Y-16854071D01*
X99339738Y-16856392D01*
X99151183Y-16988419D01*
X99089095Y-17050507D01*
X99026783Y-17084533D01*
X98955968Y-17079468D01*
X98910905Y-17050507D01*
X98848817Y-16988419D01*
X98844309Y-16985262D01*
X98844306Y-16985260D01*
X98664772Y-16859549D01*
X98664769Y-16859547D01*
X98660263Y-16856392D01*
X98655281Y-16854069D01*
X98655276Y-16854066D01*
X98456628Y-16761435D01*
X98456627Y-16761434D01*
X98451646Y-16759112D01*
X98446338Y-16757690D01*
X98446336Y-16757689D01*
X98234622Y-16700961D01*
X98234621Y-16700961D01*
X98229307Y-16699537D01*
X98000000Y-16679475D01*
X97770693Y-16699537D01*
X97765379Y-16700961D01*
X97765378Y-16700961D01*
X97553664Y-16757689D01*
X97553662Y-16757690D01*
X97548354Y-16759112D01*
X97543374Y-16761434D01*
X97543372Y-16761435D01*
X97344719Y-16854069D01*
X97344716Y-16854071D01*
X97339738Y-16856392D01*
X97151183Y-16988419D01*
X97089095Y-17050507D01*
X97026783Y-17084533D01*
X96955968Y-17079468D01*
X96910905Y-17050507D01*
X96848817Y-16988419D01*
X96844309Y-16985262D01*
X96844306Y-16985260D01*
X96664772Y-16859549D01*
X96664769Y-16859547D01*
X96660263Y-16856392D01*
X96655281Y-16854069D01*
X96655276Y-16854066D01*
X96456628Y-16761435D01*
X96456627Y-16761434D01*
X96451646Y-16759112D01*
X96446338Y-16757690D01*
X96446336Y-16757689D01*
X96234622Y-16700961D01*
X96234621Y-16700961D01*
X96229307Y-16699537D01*
X96000000Y-16679475D01*
X95770693Y-16699537D01*
X95765379Y-16700961D01*
X95765378Y-16700961D01*
X95553664Y-16757689D01*
X95553662Y-16757690D01*
X95548354Y-16759112D01*
X95543374Y-16761434D01*
X95543372Y-16761435D01*
X95344719Y-16854069D01*
X95344716Y-16854071D01*
X95339738Y-16856392D01*
X95151183Y-16988419D01*
X95089095Y-17050507D01*
X95026783Y-17084533D01*
X94955968Y-17079468D01*
X94910905Y-17050507D01*
X94848817Y-16988419D01*
X94844309Y-16985262D01*
X94844306Y-16985260D01*
X94664772Y-16859549D01*
X94664769Y-16859547D01*
X94660263Y-16856392D01*
X94655281Y-16854069D01*
X94655276Y-16854066D01*
X94456628Y-16761435D01*
X94456627Y-16761434D01*
X94451646Y-16759112D01*
X94446338Y-16757690D01*
X94446336Y-16757689D01*
X94234622Y-16700961D01*
X94234621Y-16700961D01*
X94229307Y-16699537D01*
X94000000Y-16679475D01*
X93770693Y-16699537D01*
X93765379Y-16700961D01*
X93765378Y-16700961D01*
X93553664Y-16757689D01*
X93553662Y-16757690D01*
X93548354Y-16759112D01*
X93543374Y-16761434D01*
X93543372Y-16761435D01*
X93344719Y-16854069D01*
X93344716Y-16854071D01*
X93339738Y-16856392D01*
X93151183Y-16988419D01*
X93089095Y-17050507D01*
X93026783Y-17084533D01*
X92955968Y-17079468D01*
X92910905Y-17050507D01*
X92848817Y-16988419D01*
X92844309Y-16985262D01*
X92844306Y-16985260D01*
X92664772Y-16859549D01*
X92664769Y-16859547D01*
X92660263Y-16856392D01*
X92655281Y-16854069D01*
X92655276Y-16854066D01*
X92456628Y-16761435D01*
X92456627Y-16761434D01*
X92451646Y-16759112D01*
X92446338Y-16757690D01*
X92446336Y-16757689D01*
X92234622Y-16700961D01*
X92234621Y-16700961D01*
X92229307Y-16699537D01*
X92000000Y-16679475D01*
X91770693Y-16699537D01*
X91765379Y-16700961D01*
X91765378Y-16700961D01*
X91553664Y-16757689D01*
X91553662Y-16757690D01*
X91548354Y-16759112D01*
X91543374Y-16761434D01*
X91543372Y-16761435D01*
X91344719Y-16854069D01*
X91344716Y-16854071D01*
X91339738Y-16856392D01*
X91151183Y-16988419D01*
X91089095Y-17050507D01*
X91026783Y-17084533D01*
X90955968Y-17079468D01*
X90910905Y-17050507D01*
X90848817Y-16988419D01*
X90844309Y-16985262D01*
X90844306Y-16985260D01*
X90664772Y-16859549D01*
X90664769Y-16859547D01*
X90660263Y-16856392D01*
X90655281Y-16854069D01*
X90655276Y-16854066D01*
X90456628Y-16761435D01*
X90456627Y-16761434D01*
X90451646Y-16759112D01*
X90446338Y-16757690D01*
X90446336Y-16757689D01*
X90234622Y-16700961D01*
X90234621Y-16700961D01*
X90229307Y-16699537D01*
X90000000Y-16679475D01*
X89770693Y-16699537D01*
X89765379Y-16700961D01*
X89765378Y-16700961D01*
X89553664Y-16757689D01*
X89553662Y-16757690D01*
X89548354Y-16759112D01*
X89543374Y-16761434D01*
X89543372Y-16761435D01*
X89344719Y-16854069D01*
X89344716Y-16854071D01*
X89339738Y-16856392D01*
X89151183Y-16988419D01*
X89089095Y-17050507D01*
X89026783Y-17084533D01*
X88955968Y-17079468D01*
X88910905Y-17050507D01*
X88848817Y-16988419D01*
X88844309Y-16985262D01*
X88844306Y-16985260D01*
X88664772Y-16859549D01*
X88664769Y-16859547D01*
X88660263Y-16856392D01*
X88655281Y-16854069D01*
X88655276Y-16854066D01*
X88456628Y-16761435D01*
X88456627Y-16761434D01*
X88451646Y-16759112D01*
X88446338Y-16757690D01*
X88446336Y-16757689D01*
X88234622Y-16700961D01*
X88234621Y-16700961D01*
X88229307Y-16699537D01*
X88000000Y-16679475D01*
X87770693Y-16699537D01*
X87765379Y-16700961D01*
X87765378Y-16700961D01*
X87553664Y-16757689D01*
X87553662Y-16757690D01*
X87548354Y-16759112D01*
X87543374Y-16761434D01*
X87543372Y-16761435D01*
X87344719Y-16854069D01*
X87344716Y-16854071D01*
X87339738Y-16856392D01*
X87151183Y-16988419D01*
X87089095Y-17050507D01*
X87026783Y-17084533D01*
X86955968Y-17079468D01*
X86910905Y-17050507D01*
X86848817Y-16988419D01*
X86844309Y-16985262D01*
X86844306Y-16985260D01*
X86664772Y-16859549D01*
X86664769Y-16859547D01*
X86660263Y-16856392D01*
X86655281Y-16854069D01*
X86655276Y-16854066D01*
X86456628Y-16761435D01*
X86456627Y-16761434D01*
X86451646Y-16759112D01*
X86446338Y-16757690D01*
X86446336Y-16757689D01*
X86234622Y-16700961D01*
X86234621Y-16700961D01*
X86229307Y-16699537D01*
X86000000Y-16679475D01*
X85770693Y-16699537D01*
X85765379Y-16700961D01*
X85765378Y-16700961D01*
X85553664Y-16757689D01*
X85553662Y-16757690D01*
X85548354Y-16759112D01*
X85543374Y-16761434D01*
X85543372Y-16761435D01*
X85344719Y-16854069D01*
X85344716Y-16854071D01*
X85339738Y-16856392D01*
X85151183Y-16988419D01*
X85089095Y-17050507D01*
X85026783Y-17084533D01*
X84955968Y-17079468D01*
X84910905Y-17050507D01*
X84848817Y-16988419D01*
X84844309Y-16985262D01*
X84844306Y-16985260D01*
X84664772Y-16859549D01*
X84664769Y-16859547D01*
X84660263Y-16856392D01*
X84655281Y-16854069D01*
X84655276Y-16854066D01*
X84456628Y-16761435D01*
X84456627Y-16761434D01*
X84451646Y-16759112D01*
X84446338Y-16757690D01*
X84446336Y-16757689D01*
X84234622Y-16700961D01*
X84234621Y-16700961D01*
X84229307Y-16699537D01*
X84000000Y-16679475D01*
X83770693Y-16699537D01*
X83765379Y-16700961D01*
X83765378Y-16700961D01*
X83553664Y-16757689D01*
X83553662Y-16757690D01*
X83548354Y-16759112D01*
X83543374Y-16761434D01*
X83543372Y-16761435D01*
X83344719Y-16854069D01*
X83344716Y-16854071D01*
X83339738Y-16856392D01*
X83151183Y-16988419D01*
X83089095Y-17050507D01*
X83026783Y-17084533D01*
X82955968Y-17079468D01*
X82910905Y-17050507D01*
X82848817Y-16988419D01*
X82844309Y-16985262D01*
X82844306Y-16985260D01*
X82664772Y-16859549D01*
X82664769Y-16859547D01*
X82660263Y-16856392D01*
X82655281Y-16854069D01*
X82655276Y-16854066D01*
X82456628Y-16761435D01*
X82456627Y-16761434D01*
X82451646Y-16759112D01*
X82446338Y-16757690D01*
X82446336Y-16757689D01*
X82234622Y-16700961D01*
X82234621Y-16700961D01*
X82229307Y-16699537D01*
X82000000Y-16679475D01*
X81770693Y-16699537D01*
X81765379Y-16700961D01*
X81765378Y-16700961D01*
X81553664Y-16757689D01*
X81553662Y-16757690D01*
X81548354Y-16759112D01*
X81543374Y-16761434D01*
X81543372Y-16761435D01*
X81344719Y-16854069D01*
X81344716Y-16854071D01*
X81339738Y-16856392D01*
X81151183Y-16988419D01*
X81089095Y-17050507D01*
X81026783Y-17084533D01*
X80955968Y-17079468D01*
X80910905Y-17050507D01*
X80848817Y-16988419D01*
X80844309Y-16985262D01*
X80844306Y-16985260D01*
X80664772Y-16859549D01*
X80664769Y-16859547D01*
X80660263Y-16856392D01*
X80655281Y-16854069D01*
X80655276Y-16854066D01*
X80456628Y-16761435D01*
X80456627Y-16761434D01*
X80451646Y-16759112D01*
X80446338Y-16757690D01*
X80446336Y-16757689D01*
X80234622Y-16700961D01*
X80234621Y-16700961D01*
X80229307Y-16699537D01*
X80000000Y-16679475D01*
X79770693Y-16699537D01*
X79765379Y-16700961D01*
X79765378Y-16700961D01*
X79553664Y-16757689D01*
X79553662Y-16757690D01*
X79548354Y-16759112D01*
X79543374Y-16761434D01*
X79543372Y-16761435D01*
X79344719Y-16854069D01*
X79344716Y-16854071D01*
X79339738Y-16856392D01*
X79151183Y-16988419D01*
X79089095Y-17050507D01*
X79026783Y-17084533D01*
X78955968Y-17079468D01*
X78910905Y-17050507D01*
X78848817Y-16988419D01*
X78844309Y-16985262D01*
X78844306Y-16985260D01*
X78664772Y-16859549D01*
X78664769Y-16859547D01*
X78660263Y-16856392D01*
X78655281Y-16854069D01*
X78655276Y-16854066D01*
X78456628Y-16761435D01*
X78456627Y-16761434D01*
X78451646Y-16759112D01*
X78446338Y-16757690D01*
X78446336Y-16757689D01*
X78234622Y-16700961D01*
X78234621Y-16700961D01*
X78229307Y-16699537D01*
X78000000Y-16679475D01*
X77770693Y-16699537D01*
X77765379Y-16700961D01*
X77765378Y-16700961D01*
X77553664Y-16757689D01*
X77553662Y-16757690D01*
X77548354Y-16759112D01*
X77543374Y-16761434D01*
X77543372Y-16761435D01*
X77344719Y-16854069D01*
X77344716Y-16854071D01*
X77339738Y-16856392D01*
X77151183Y-16988419D01*
X77089095Y-17050507D01*
X77026783Y-17084533D01*
X76955968Y-17079468D01*
X76910905Y-17050507D01*
X76848817Y-16988419D01*
X76844309Y-16985262D01*
X76844306Y-16985260D01*
X76664772Y-16859549D01*
X76664769Y-16859547D01*
X76660263Y-16856392D01*
X76655281Y-16854069D01*
X76655276Y-16854066D01*
X76456628Y-16761435D01*
X76456627Y-16761434D01*
X76451646Y-16759112D01*
X76446338Y-16757690D01*
X76446336Y-16757689D01*
X76234622Y-16700961D01*
X76234621Y-16700961D01*
X76229307Y-16699537D01*
X76000000Y-16679475D01*
X75770693Y-16699537D01*
X75765379Y-16700961D01*
X75765378Y-16700961D01*
X75553664Y-16757689D01*
X75553662Y-16757690D01*
X75548354Y-16759112D01*
X75543374Y-16761434D01*
X75543372Y-16761435D01*
X75344719Y-16854069D01*
X75344716Y-16854071D01*
X75339738Y-16856392D01*
X75151183Y-16988419D01*
X75089095Y-17050507D01*
X75026783Y-17084533D01*
X74955968Y-17079468D01*
X74910905Y-17050507D01*
X74848817Y-16988419D01*
X74844309Y-16985262D01*
X74844306Y-16985260D01*
X74664772Y-16859549D01*
X74664769Y-16859547D01*
X74660263Y-16856392D01*
X74655281Y-16854069D01*
X74655276Y-16854066D01*
X74456628Y-16761435D01*
X74456627Y-16761434D01*
X74451646Y-16759112D01*
X74446338Y-16757690D01*
X74446336Y-16757689D01*
X74234622Y-16700961D01*
X74234621Y-16700961D01*
X74229307Y-16699537D01*
X74000000Y-16679475D01*
X73770693Y-16699537D01*
X73765379Y-16700961D01*
X73765378Y-16700961D01*
X73553664Y-16757689D01*
X73553662Y-16757690D01*
X73548354Y-16759112D01*
X73543374Y-16761434D01*
X73543372Y-16761435D01*
X73344719Y-16854069D01*
X73344716Y-16854071D01*
X73339738Y-16856392D01*
X73151183Y-16988419D01*
X73089095Y-17050507D01*
X73026783Y-17084533D01*
X72955968Y-17079468D01*
X72910905Y-17050507D01*
X72848817Y-16988419D01*
X72844309Y-16985262D01*
X72844306Y-16985260D01*
X72664772Y-16859549D01*
X72664769Y-16859547D01*
X72660263Y-16856392D01*
X72655281Y-16854069D01*
X72655276Y-16854066D01*
X72456628Y-16761435D01*
X72456627Y-16761434D01*
X72451646Y-16759112D01*
X72446338Y-16757690D01*
X72446336Y-16757689D01*
X72234622Y-16700961D01*
X72234621Y-16700961D01*
X72229307Y-16699537D01*
X72000000Y-16679475D01*
X71770693Y-16699537D01*
X71765379Y-16700961D01*
X71765378Y-16700961D01*
X71553664Y-16757689D01*
X71553662Y-16757690D01*
X71548354Y-16759112D01*
X71543374Y-16761434D01*
X71543372Y-16761435D01*
X71344719Y-16854069D01*
X71344716Y-16854071D01*
X71339738Y-16856392D01*
X71151183Y-16988419D01*
X71089095Y-17050507D01*
X71026783Y-17084533D01*
X70955968Y-17079468D01*
X70910905Y-17050507D01*
X70848817Y-16988419D01*
X70844309Y-16985262D01*
X70844306Y-16985260D01*
X70664772Y-16859549D01*
X70664769Y-16859547D01*
X70660263Y-16856392D01*
X70655281Y-16854069D01*
X70655276Y-16854066D01*
X70456628Y-16761435D01*
X70456627Y-16761434D01*
X70451646Y-16759112D01*
X70446338Y-16757690D01*
X70446336Y-16757689D01*
X70234622Y-16700961D01*
X70234621Y-16700961D01*
X70229307Y-16699537D01*
X70000000Y-16679475D01*
X69770693Y-16699537D01*
X69765379Y-16700961D01*
X69765378Y-16700961D01*
X69552040Y-16758124D01*
X69481063Y-16756434D01*
X69422268Y-16716640D01*
X69414252Y-16705798D01*
X69409494Y-16698585D01*
X69409484Y-16698572D01*
X69407221Y-16695141D01*
X69360728Y-16641485D01*
X69341341Y-16620158D01*
X69281306Y-16571779D01*
X69224693Y-16526157D01*
X69224690Y-16526155D01*
X69218263Y-16520976D01*
X69073709Y-16457029D01*
X69005588Y-16437027D01*
X69001132Y-16436386D01*
X69001126Y-16436385D01*
X68905220Y-16422596D01*
X68835000Y-16412500D01*
X63118000Y-16412500D01*
X62989295Y-16426337D01*
X62986011Y-16427051D01*
X62986007Y-16427052D01*
X62940607Y-16436928D01*
X62940605Y-16436929D01*
X62936953Y-16437723D01*
X62933416Y-16438947D01*
X62933413Y-16438948D01*
X62884528Y-16455867D01*
X62801089Y-16484745D01*
X62751225Y-16517636D01*
X62672586Y-16569506D01*
X62672579Y-16569511D01*
X62669141Y-16571779D01*
X62615485Y-16618272D01*
X62594158Y-16637659D01*
X62591095Y-16641460D01*
X62591094Y-16641461D01*
X62500157Y-16754307D01*
X62500155Y-16754310D01*
X62494976Y-16760737D01*
X62431029Y-16905291D01*
X62411027Y-16973412D01*
X62410386Y-16977868D01*
X62410385Y-16977874D01*
X62408869Y-16988419D01*
X62386500Y-17144000D01*
X62386500Y-17243887D01*
X62387076Y-17270299D01*
X62387912Y-17275038D01*
X62387912Y-17275042D01*
X62399320Y-17339738D01*
X62414524Y-17425965D01*
X62437311Y-17498236D01*
X62445803Y-17523251D01*
X62518791Y-17663459D01*
X62521165Y-17666849D01*
X62530921Y-17680782D01*
X62541905Y-17699806D01*
X62578291Y-17777837D01*
X62585802Y-17798472D01*
X62608084Y-17881630D01*
X62611897Y-17903254D01*
X62619400Y-17989019D01*
X62619400Y-18010981D01*
X62611897Y-18096744D01*
X62608083Y-18118373D01*
X62585924Y-18201074D01*
X62585800Y-18201535D01*
X62578289Y-18222170D01*
X62563241Y-18254441D01*
X62541910Y-18300186D01*
X62530928Y-18319208D01*
X62518791Y-18336541D01*
X62504114Y-18358507D01*
X62502084Y-18362861D01*
X62502082Y-18362864D01*
X62463158Y-18446336D01*
X62437311Y-18501764D01*
X62436070Y-18505701D01*
X62414742Y-18573342D01*
X62414730Y-18573383D01*
X62414524Y-18574035D01*
X62407132Y-18599398D01*
X62406504Y-18604166D01*
X62406503Y-18604172D01*
X62396425Y-18680726D01*
X62386500Y-18756113D01*
X62386500Y-20263887D01*
X62387076Y-20290299D01*
X62387912Y-20295038D01*
X62387912Y-20295042D01*
X62411738Y-20430164D01*
X62414524Y-20445965D01*
X62437311Y-20518236D01*
X62445803Y-20543251D01*
X62518791Y-20683459D01*
X62521165Y-20686849D01*
X62530921Y-20700782D01*
X62541905Y-20719806D01*
X62578291Y-20797837D01*
X62585802Y-20818472D01*
X62608084Y-20901630D01*
X62611897Y-20923254D01*
X62619400Y-21009019D01*
X62619400Y-21030981D01*
X62611897Y-21116744D01*
X62608083Y-21138373D01*
X62598194Y-21175282D01*
X62585800Y-21221535D01*
X62578288Y-21242172D01*
X62541910Y-21320186D01*
X62530928Y-21339208D01*
X62518791Y-21356541D01*
X62504114Y-21378507D01*
X62437311Y-21521764D01*
X62427560Y-21552690D01*
X62414742Y-21593342D01*
X62414730Y-21593383D01*
X62414524Y-21594035D01*
X62407132Y-21619398D01*
X62406504Y-21624166D01*
X62406503Y-21624172D01*
X62392610Y-21729701D01*
X62386500Y-21776113D01*
X62386500Y-42243887D01*
X62387076Y-42270299D01*
X62387912Y-42275038D01*
X62387912Y-42275042D01*
X62398965Y-42337724D01*
X62414524Y-42425965D01*
X62437311Y-42498236D01*
X62445803Y-42523251D01*
X62518791Y-42663459D01*
X62521165Y-42666849D01*
X62530921Y-42680782D01*
X62541905Y-42699806D01*
X62578291Y-42777837D01*
X62585802Y-42798472D01*
X62608084Y-42881630D01*
X62611897Y-42903254D01*
X62619400Y-42989019D01*
X62619400Y-43010981D01*
X62611897Y-43096744D01*
X62608083Y-43118373D01*
X62585924Y-43201074D01*
X62585800Y-43201535D01*
X62578289Y-43222170D01*
X62572215Y-43235195D01*
X62541910Y-43300186D01*
X62530928Y-43319208D01*
X62518791Y-43336541D01*
X62504114Y-43358507D01*
X62502084Y-43362861D01*
X62502082Y-43362864D01*
X62488688Y-43391587D01*
X62437311Y-43501764D01*
X62436070Y-43505701D01*
X62414742Y-43573342D01*
X62414730Y-43573383D01*
X62414524Y-43574035D01*
X62407132Y-43599398D01*
X62406504Y-43604166D01*
X62406503Y-43604172D01*
X62399294Y-43658933D01*
X62386500Y-43756113D01*
X62386500Y-45263887D01*
X62387076Y-45290299D01*
X62414524Y-45445965D01*
X62437311Y-45518236D01*
X62445803Y-45543251D01*
X62518791Y-45683459D01*
X62521165Y-45686849D01*
X62530921Y-45700782D01*
X62541905Y-45719806D01*
X62578291Y-45797837D01*
X62585802Y-45818472D01*
X62608084Y-45901630D01*
X62611897Y-45923254D01*
X62619400Y-46009019D01*
X62619400Y-46030981D01*
X62612245Y-46112771D01*
X62611897Y-46116744D01*
X62608083Y-46138373D01*
X62598194Y-46175282D01*
X62585800Y-46221535D01*
X62578288Y-46242172D01*
X62541910Y-46320186D01*
X62530928Y-46339208D01*
X62518791Y-46356541D01*
X62504114Y-46378507D01*
X62437311Y-46521764D01*
X62432708Y-46536364D01*
X62414742Y-46593342D01*
X62414730Y-46593383D01*
X62414524Y-46594035D01*
X62407132Y-46619398D01*
X62406504Y-46624166D01*
X62406503Y-46624172D01*
X62392610Y-46729701D01*
X62386500Y-46776113D01*
X62386500Y-67243887D01*
X62387076Y-67270299D01*
X62387912Y-67275038D01*
X62387912Y-67275042D01*
X62399320Y-67339738D01*
X62414524Y-67425965D01*
X62437311Y-67498236D01*
X62445803Y-67523251D01*
X62518791Y-67663459D01*
X62521165Y-67666849D01*
X62530921Y-67680782D01*
X62541905Y-67699806D01*
X62578291Y-67777837D01*
X62585802Y-67798472D01*
X62608084Y-67881630D01*
X62611896Y-67903251D01*
X62614001Y-67927308D01*
X62619400Y-67989019D01*
X62619400Y-68010981D01*
X62611897Y-68096744D01*
X62608083Y-68118373D01*
X62585924Y-68201074D01*
X62585800Y-68201535D01*
X62578289Y-68222170D01*
X62568434Y-68243305D01*
X62541910Y-68300186D01*
X62530928Y-68319208D01*
X62518791Y-68336541D01*
X62504114Y-68358507D01*
X62502084Y-68362861D01*
X62502082Y-68362864D01*
X62482211Y-68405478D01*
X62437311Y-68501764D01*
X62436070Y-68505701D01*
X62414742Y-68573342D01*
X62414730Y-68573383D01*
X62414524Y-68574035D01*
X62407132Y-68599398D01*
X62406504Y-68604166D01*
X62406503Y-68604172D01*
X62396425Y-68680726D01*
X62386500Y-68756113D01*
X62386500Y-70263887D01*
X62387076Y-70290299D01*
X62387912Y-70295038D01*
X62387912Y-70295042D01*
X62411738Y-70430164D01*
X62414524Y-70445965D01*
X62437311Y-70518236D01*
X62445803Y-70543251D01*
X62518791Y-70683459D01*
X62521165Y-70686849D01*
X62530921Y-70700782D01*
X62541905Y-70719806D01*
X62578291Y-70797837D01*
X62585802Y-70818472D01*
X62608084Y-70901630D01*
X62611897Y-70923254D01*
X62619400Y-71009019D01*
X62619400Y-71030981D01*
X62611897Y-71116744D01*
X62608083Y-71138373D01*
X62598194Y-71175282D01*
X62585800Y-71221535D01*
X62578288Y-71242172D01*
X62541910Y-71320186D01*
X62530928Y-71339208D01*
X62518791Y-71356541D01*
X62504114Y-71378507D01*
X62437311Y-71521764D01*
X62427560Y-71552690D01*
X62414742Y-71593342D01*
X62414730Y-71593383D01*
X62414524Y-71594035D01*
X62407132Y-71619398D01*
X62406504Y-71624166D01*
X62406503Y-71624172D01*
X62393529Y-71722720D01*
X62386500Y-71776113D01*
X62386500Y-92243887D01*
X62387076Y-92270299D01*
X62387912Y-92275038D01*
X62387912Y-92275042D01*
X62399320Y-92339738D01*
X62414524Y-92425965D01*
X62437311Y-92498236D01*
X62445803Y-92523251D01*
X62518791Y-92663459D01*
X62521165Y-92666849D01*
X62530921Y-92680782D01*
X62541905Y-92699806D01*
X62578291Y-92777837D01*
X62585802Y-92798472D01*
X62608084Y-92881630D01*
X62611897Y-92903254D01*
X62619400Y-92989019D01*
X62619400Y-93010981D01*
X62611897Y-93096744D01*
X62608083Y-93118373D01*
X62585924Y-93201074D01*
X62585800Y-93201535D01*
X62578289Y-93222170D01*
X62563241Y-93254441D01*
X62541910Y-93300186D01*
X62530928Y-93319208D01*
X62518791Y-93336541D01*
X62504114Y-93358507D01*
X62502084Y-93362861D01*
X62502082Y-93362864D01*
X62463158Y-93446336D01*
X62437311Y-93501764D01*
X62436070Y-93505701D01*
X62414742Y-93573342D01*
X62414730Y-93573383D01*
X62414524Y-93574035D01*
X62407132Y-93599398D01*
X62406504Y-93604166D01*
X62406503Y-93604172D01*
X62396425Y-93680726D01*
X62386500Y-93756113D01*
X62386500Y-95263887D01*
X62387076Y-95290299D01*
X62414524Y-95445965D01*
X62437311Y-95518236D01*
X62445803Y-95543251D01*
X62518791Y-95683459D01*
X62521165Y-95686849D01*
X62530921Y-95700782D01*
X62541905Y-95719806D01*
X62578291Y-95797837D01*
X62585802Y-95818472D01*
X62608084Y-95901630D01*
X62611897Y-95923254D01*
X62619400Y-96009019D01*
X62619400Y-96030981D01*
X62611897Y-96116744D01*
X62608083Y-96138373D01*
X62598194Y-96175282D01*
X62585800Y-96221535D01*
X62578288Y-96242172D01*
X62541910Y-96320186D01*
X62530928Y-96339208D01*
X62518791Y-96356541D01*
X62504114Y-96378507D01*
X62437311Y-96521764D01*
X62427560Y-96552690D01*
X62414742Y-96593342D01*
X62414730Y-96593383D01*
X62414524Y-96594035D01*
X62407132Y-96619398D01*
X62406504Y-96624166D01*
X62406503Y-96624172D01*
X62392610Y-96729701D01*
X62386500Y-96776113D01*
X62386500Y-110745000D01*
X41240500Y-110745000D01*
X41240500Y-94476793D01*
X54941264Y-94476793D01*
X54941561Y-94481946D01*
X54941561Y-94481949D01*
X54951784Y-94659242D01*
X54954085Y-94699156D01*
X54955222Y-94704202D01*
X54955223Y-94704208D01*
X54967796Y-94759996D01*
X55003052Y-94916439D01*
X55004994Y-94921221D01*
X55004995Y-94921225D01*
X55041983Y-95012316D01*
X55086849Y-95122807D01*
X55203226Y-95312717D01*
X55349058Y-95481070D01*
X55520428Y-95623344D01*
X55712734Y-95735718D01*
X55920811Y-95815175D01*
X55925879Y-95816206D01*
X55925882Y-95816207D01*
X56019541Y-95835262D01*
X56139072Y-95859581D01*
X56144247Y-95859771D01*
X56144249Y-95859771D01*
X56356491Y-95867554D01*
X56356495Y-95867554D01*
X56361655Y-95867743D01*
X56366775Y-95867087D01*
X56366777Y-95867087D01*
X56476755Y-95852998D01*
X56582582Y-95839441D01*
X56587531Y-95837956D01*
X56587537Y-95837955D01*
X56790969Y-95776922D01*
X56790968Y-95776922D01*
X56795919Y-95775437D01*
X56995939Y-95677448D01*
X57000144Y-95674448D01*
X57000150Y-95674445D01*
X57173065Y-95551106D01*
X57173067Y-95551104D01*
X57177269Y-95548107D01*
X57206530Y-95518948D01*
X57268902Y-95485032D01*
X57339709Y-95490220D01*
X57384565Y-95519104D01*
X57394731Y-95529270D01*
X57399239Y-95532427D01*
X57399242Y-95532429D01*
X57532810Y-95625954D01*
X57584719Y-95662301D01*
X57589701Y-95664624D01*
X57589706Y-95664627D01*
X57680265Y-95706855D01*
X57794921Y-95760320D01*
X58018950Y-95820349D01*
X58073152Y-95825091D01*
X58189404Y-95835262D01*
X58189413Y-95835262D01*
X58192129Y-95835500D01*
X58307871Y-95835500D01*
X58310587Y-95835262D01*
X58310596Y-95835262D01*
X58426848Y-95825091D01*
X58481050Y-95820349D01*
X58705079Y-95760320D01*
X58819735Y-95706855D01*
X58910294Y-95664627D01*
X58910299Y-95664624D01*
X58915281Y-95662301D01*
X58967190Y-95625954D01*
X59100758Y-95532429D01*
X59100761Y-95532427D01*
X59105269Y-95529270D01*
X59269270Y-95365269D01*
X59306068Y-95312717D01*
X59399144Y-95179790D01*
X59402301Y-95175282D01*
X59404624Y-95170300D01*
X59404627Y-95170295D01*
X59481583Y-95005260D01*
X59500320Y-94965079D01*
X59560349Y-94741050D01*
X59580563Y-94510000D01*
X59560349Y-94278950D01*
X59500320Y-94054921D01*
X59437653Y-93920532D01*
X59404627Y-93849706D01*
X59404624Y-93849701D01*
X59402301Y-93844719D01*
X59398061Y-93838663D01*
X59272429Y-93659242D01*
X59272427Y-93659239D01*
X59269270Y-93654731D01*
X59105269Y-93490730D01*
X59100761Y-93487573D01*
X59100758Y-93487571D01*
X58919790Y-93360856D01*
X58919788Y-93360855D01*
X58915281Y-93357699D01*
X58910299Y-93355376D01*
X58910294Y-93355373D01*
X58791944Y-93300186D01*
X58705079Y-93259680D01*
X58481050Y-93199651D01*
X58426848Y-93194909D01*
X58310596Y-93184738D01*
X58310587Y-93184738D01*
X58307871Y-93184500D01*
X58192129Y-93184500D01*
X58189413Y-93184738D01*
X58189404Y-93184738D01*
X58073152Y-93194909D01*
X58018950Y-93199651D01*
X57794921Y-93259680D01*
X57708056Y-93300186D01*
X57589706Y-93355373D01*
X57589701Y-93355376D01*
X57584719Y-93357699D01*
X57580212Y-93360855D01*
X57580210Y-93360856D01*
X57399242Y-93487571D01*
X57399239Y-93487573D01*
X57394731Y-93490730D01*
X57385818Y-93499643D01*
X57323506Y-93533669D01*
X57252691Y-93528604D01*
X57218633Y-93509431D01*
X57052138Y-93377942D01*
X56945742Y-93319208D01*
X56861675Y-93272800D01*
X56861672Y-93272799D01*
X56857144Y-93270299D01*
X56661657Y-93201074D01*
X56652059Y-93197675D01*
X56652056Y-93197674D01*
X56647187Y-93195950D01*
X56642098Y-93195043D01*
X56642096Y-93195043D01*
X56432996Y-93157796D01*
X56432990Y-93157795D01*
X56427907Y-93156890D01*
X56354094Y-93155988D01*
X56210361Y-93154232D01*
X56210359Y-93154232D01*
X56205191Y-93154169D01*
X55985022Y-93187859D01*
X55773311Y-93257057D01*
X55768723Y-93259445D01*
X55768719Y-93259447D01*
X55586099Y-93354513D01*
X55575745Y-93359903D01*
X55571612Y-93363006D01*
X55571609Y-93363008D01*
X55401765Y-93490531D01*
X55397630Y-93493636D01*
X55243748Y-93654664D01*
X55118233Y-93838663D01*
X55116060Y-93843345D01*
X55116058Y-93843348D01*
X55066788Y-93949493D01*
X55024455Y-94040691D01*
X54964932Y-94255322D01*
X54941264Y-94476793D01*
X41240500Y-94476793D01*
X41240500Y-69476793D01*
X54941264Y-69476793D01*
X54941561Y-69481946D01*
X54941561Y-69481949D01*
X54951784Y-69659242D01*
X54954085Y-69699156D01*
X54955222Y-69704202D01*
X54955223Y-69704208D01*
X54976185Y-69797220D01*
X55003052Y-69916439D01*
X55004994Y-69921221D01*
X55004995Y-69921225D01*
X55064176Y-70066970D01*
X55086849Y-70122807D01*
X55203226Y-70312717D01*
X55349058Y-70481070D01*
X55520428Y-70623344D01*
X55712734Y-70735718D01*
X55920811Y-70815175D01*
X55925879Y-70816206D01*
X55925882Y-70816207D01*
X56019541Y-70835262D01*
X56139072Y-70859581D01*
X56144247Y-70859771D01*
X56144249Y-70859771D01*
X56356491Y-70867554D01*
X56356495Y-70867554D01*
X56361655Y-70867743D01*
X56366775Y-70867087D01*
X56366777Y-70867087D01*
X56476755Y-70852998D01*
X56582582Y-70839441D01*
X56587531Y-70837956D01*
X56587537Y-70837955D01*
X56790969Y-70776922D01*
X56790968Y-70776922D01*
X56795919Y-70775437D01*
X56995939Y-70677448D01*
X57000144Y-70674448D01*
X57000150Y-70674445D01*
X57173065Y-70551106D01*
X57173067Y-70551104D01*
X57177269Y-70548107D01*
X57206530Y-70518948D01*
X57268902Y-70485032D01*
X57339709Y-70490220D01*
X57384565Y-70519104D01*
X57394731Y-70529270D01*
X57399239Y-70532427D01*
X57399242Y-70532429D01*
X57529594Y-70623702D01*
X57584719Y-70662301D01*
X57589701Y-70664624D01*
X57589706Y-70664627D01*
X57680265Y-70706855D01*
X57794921Y-70760320D01*
X58018950Y-70820349D01*
X58073152Y-70825091D01*
X58189404Y-70835262D01*
X58189413Y-70835262D01*
X58192129Y-70835500D01*
X58307871Y-70835500D01*
X58310587Y-70835262D01*
X58310596Y-70835262D01*
X58426848Y-70825091D01*
X58481050Y-70820349D01*
X58705079Y-70760320D01*
X58819735Y-70706855D01*
X58910294Y-70664627D01*
X58910299Y-70664624D01*
X58915281Y-70662301D01*
X58970406Y-70623702D01*
X59100758Y-70532429D01*
X59100761Y-70532427D01*
X59105269Y-70529270D01*
X59269270Y-70365269D01*
X59306068Y-70312717D01*
X59399144Y-70179790D01*
X59402301Y-70175282D01*
X59404624Y-70170300D01*
X59404627Y-70170295D01*
X59454480Y-70063384D01*
X59500320Y-69965079D01*
X59560349Y-69741050D01*
X59580563Y-69510000D01*
X59560349Y-69278950D01*
X59500320Y-69054921D01*
X59437653Y-68920532D01*
X59404627Y-68849706D01*
X59404624Y-68849701D01*
X59402301Y-68844719D01*
X59398061Y-68838663D01*
X59272429Y-68659242D01*
X59272427Y-68659239D01*
X59269270Y-68654731D01*
X59105269Y-68490730D01*
X59100761Y-68487573D01*
X59100758Y-68487571D01*
X58919790Y-68360856D01*
X58919788Y-68360855D01*
X58915281Y-68357699D01*
X58910299Y-68355376D01*
X58910294Y-68355373D01*
X58766971Y-68288541D01*
X58705079Y-68259680D01*
X58481050Y-68199651D01*
X58426848Y-68194909D01*
X58310596Y-68184738D01*
X58310587Y-68184738D01*
X58307871Y-68184500D01*
X58192129Y-68184500D01*
X58189413Y-68184738D01*
X58189404Y-68184738D01*
X58073152Y-68194909D01*
X58018950Y-68199651D01*
X57794921Y-68259680D01*
X57733029Y-68288541D01*
X57589706Y-68355373D01*
X57589701Y-68355376D01*
X57584719Y-68357699D01*
X57580212Y-68360855D01*
X57580210Y-68360856D01*
X57399242Y-68487571D01*
X57399239Y-68487573D01*
X57394731Y-68490730D01*
X57385818Y-68499643D01*
X57323506Y-68533669D01*
X57252691Y-68528604D01*
X57218633Y-68509431D01*
X57052138Y-68377942D01*
X56945742Y-68319208D01*
X56861675Y-68272800D01*
X56861672Y-68272799D01*
X56857144Y-68270299D01*
X56661657Y-68201074D01*
X56652059Y-68197675D01*
X56652056Y-68197674D01*
X56647187Y-68195950D01*
X56642098Y-68195043D01*
X56642096Y-68195043D01*
X56432996Y-68157796D01*
X56432990Y-68157795D01*
X56427907Y-68156890D01*
X56354094Y-68155988D01*
X56210361Y-68154232D01*
X56210359Y-68154232D01*
X56205191Y-68154169D01*
X55985022Y-68187859D01*
X55773311Y-68257057D01*
X55768723Y-68259445D01*
X55768719Y-68259447D01*
X55586099Y-68354513D01*
X55575745Y-68359903D01*
X55571612Y-68363006D01*
X55571609Y-68363008D01*
X55401765Y-68490531D01*
X55397630Y-68493636D01*
X55243748Y-68654664D01*
X55118233Y-68838663D01*
X55116060Y-68843345D01*
X55116058Y-68843348D01*
X55066788Y-68949493D01*
X55024455Y-69040691D01*
X54964932Y-69255322D01*
X54941264Y-69476793D01*
X41240500Y-69476793D01*
X41240500Y-44476793D01*
X54941264Y-44476793D01*
X54941561Y-44481946D01*
X54941561Y-44481949D01*
X54951784Y-44659242D01*
X54954085Y-44699156D01*
X54955222Y-44704202D01*
X54955223Y-44704208D01*
X54967796Y-44759996D01*
X55003052Y-44916439D01*
X55004994Y-44921221D01*
X55004995Y-44921225D01*
X55064313Y-45067308D01*
X55086849Y-45122807D01*
X55203226Y-45312717D01*
X55349058Y-45481070D01*
X55520428Y-45623344D01*
X55712734Y-45735718D01*
X55920811Y-45815175D01*
X55925879Y-45816206D01*
X55925882Y-45816207D01*
X56019541Y-45835262D01*
X56139072Y-45859581D01*
X56144247Y-45859771D01*
X56144249Y-45859771D01*
X56356491Y-45867554D01*
X56356495Y-45867554D01*
X56361655Y-45867743D01*
X56366775Y-45867087D01*
X56366777Y-45867087D01*
X56476755Y-45852998D01*
X56582582Y-45839441D01*
X56587531Y-45837956D01*
X56587537Y-45837955D01*
X56790969Y-45776922D01*
X56790968Y-45776922D01*
X56795919Y-45775437D01*
X56995939Y-45677448D01*
X57000144Y-45674448D01*
X57000150Y-45674445D01*
X57173065Y-45551106D01*
X57173067Y-45551104D01*
X57177269Y-45548107D01*
X57206530Y-45518948D01*
X57268902Y-45485032D01*
X57339709Y-45490220D01*
X57384565Y-45519104D01*
X57394731Y-45529270D01*
X57399239Y-45532427D01*
X57399242Y-45532429D01*
X57580210Y-45659144D01*
X57584719Y-45662301D01*
X57589701Y-45664624D01*
X57589706Y-45664627D01*
X57680265Y-45706855D01*
X57794921Y-45760320D01*
X58018950Y-45820349D01*
X58073152Y-45825091D01*
X58189404Y-45835262D01*
X58189413Y-45835262D01*
X58192129Y-45835500D01*
X58307871Y-45835500D01*
X58310587Y-45835262D01*
X58310596Y-45835262D01*
X58426848Y-45825091D01*
X58481050Y-45820349D01*
X58705079Y-45760320D01*
X58819735Y-45706855D01*
X58910294Y-45664627D01*
X58910299Y-45664624D01*
X58915281Y-45662301D01*
X58919790Y-45659144D01*
X59100758Y-45532429D01*
X59100761Y-45532427D01*
X59105269Y-45529270D01*
X59269270Y-45365269D01*
X59277356Y-45353722D01*
X59368397Y-45223702D01*
X59402301Y-45175282D01*
X59404624Y-45170300D01*
X59404627Y-45170295D01*
X59481583Y-45005260D01*
X59500320Y-44965079D01*
X59560349Y-44741050D01*
X59580563Y-44510000D01*
X59560349Y-44278950D01*
X59500320Y-44054921D01*
X59437653Y-43920532D01*
X59404627Y-43849706D01*
X59404624Y-43849701D01*
X59402301Y-43844719D01*
X59398061Y-43838663D01*
X59272429Y-43659242D01*
X59272427Y-43659239D01*
X59269270Y-43654731D01*
X59105269Y-43490730D01*
X59100761Y-43487573D01*
X59100758Y-43487571D01*
X58919790Y-43360856D01*
X58919788Y-43360855D01*
X58915281Y-43357699D01*
X58910299Y-43355376D01*
X58910294Y-43355373D01*
X58791944Y-43300186D01*
X58705079Y-43259680D01*
X58481050Y-43199651D01*
X58426848Y-43194909D01*
X58310596Y-43184738D01*
X58310587Y-43184738D01*
X58307871Y-43184500D01*
X58192129Y-43184500D01*
X58189413Y-43184738D01*
X58189404Y-43184738D01*
X58073152Y-43194909D01*
X58018950Y-43199651D01*
X57794921Y-43259680D01*
X57708056Y-43300186D01*
X57589706Y-43355373D01*
X57589701Y-43355376D01*
X57584719Y-43357699D01*
X57580212Y-43360855D01*
X57580210Y-43360856D01*
X57399242Y-43487571D01*
X57399239Y-43487573D01*
X57394731Y-43490730D01*
X57385818Y-43499643D01*
X57323506Y-43533669D01*
X57252691Y-43528604D01*
X57218633Y-43509431D01*
X57052138Y-43377942D01*
X56945742Y-43319208D01*
X56861675Y-43272800D01*
X56861672Y-43272799D01*
X56857144Y-43270299D01*
X56661657Y-43201074D01*
X56652059Y-43197675D01*
X56652056Y-43197674D01*
X56647187Y-43195950D01*
X56642098Y-43195043D01*
X56642096Y-43195043D01*
X56432996Y-43157796D01*
X56432990Y-43157795D01*
X56427907Y-43156890D01*
X56354094Y-43155988D01*
X56210361Y-43154232D01*
X56210359Y-43154232D01*
X56205191Y-43154169D01*
X55985022Y-43187859D01*
X55773311Y-43257057D01*
X55768723Y-43259445D01*
X55768719Y-43259447D01*
X55586099Y-43354513D01*
X55575745Y-43359903D01*
X55571612Y-43363006D01*
X55571609Y-43363008D01*
X55401765Y-43490531D01*
X55397630Y-43493636D01*
X55243748Y-43654664D01*
X55118233Y-43838663D01*
X55116060Y-43843345D01*
X55116058Y-43843348D01*
X55042564Y-44001679D01*
X55024455Y-44040691D01*
X54964932Y-44255322D01*
X54941264Y-44476793D01*
X41240500Y-44476793D01*
X41240500Y-19476793D01*
X54941264Y-19476793D01*
X54941561Y-19481946D01*
X54941561Y-19481949D01*
X54951784Y-19659242D01*
X54954085Y-19699156D01*
X54955222Y-19704202D01*
X54955223Y-19704208D01*
X54976185Y-19797220D01*
X55003052Y-19916439D01*
X55004994Y-19921221D01*
X55004995Y-19921225D01*
X55065612Y-20070507D01*
X55086849Y-20122807D01*
X55203226Y-20312717D01*
X55349058Y-20481070D01*
X55520428Y-20623344D01*
X55712734Y-20735718D01*
X55920811Y-20815175D01*
X55925879Y-20816206D01*
X55925882Y-20816207D01*
X56019541Y-20835262D01*
X56139072Y-20859581D01*
X56144247Y-20859771D01*
X56144249Y-20859771D01*
X56356491Y-20867554D01*
X56356495Y-20867554D01*
X56361655Y-20867743D01*
X56366775Y-20867087D01*
X56366777Y-20867087D01*
X56476755Y-20852998D01*
X56582582Y-20839441D01*
X56587531Y-20837956D01*
X56587537Y-20837955D01*
X56790969Y-20776922D01*
X56790968Y-20776922D01*
X56795919Y-20775437D01*
X56995939Y-20677448D01*
X57000144Y-20674448D01*
X57000150Y-20674445D01*
X57173065Y-20551106D01*
X57173067Y-20551104D01*
X57177269Y-20548107D01*
X57206530Y-20518948D01*
X57268902Y-20485032D01*
X57339709Y-20490220D01*
X57384565Y-20519104D01*
X57394731Y-20529270D01*
X57399239Y-20532427D01*
X57399242Y-20532429D01*
X57532810Y-20625954D01*
X57584719Y-20662301D01*
X57589701Y-20664624D01*
X57589706Y-20664627D01*
X57680265Y-20706855D01*
X57794921Y-20760320D01*
X58018950Y-20820349D01*
X58073152Y-20825091D01*
X58189404Y-20835262D01*
X58189413Y-20835262D01*
X58192129Y-20835500D01*
X58307871Y-20835500D01*
X58310587Y-20835262D01*
X58310596Y-20835262D01*
X58426848Y-20825091D01*
X58481050Y-20820349D01*
X58705079Y-20760320D01*
X58819735Y-20706855D01*
X58910294Y-20664627D01*
X58910299Y-20664624D01*
X58915281Y-20662301D01*
X58967190Y-20625954D01*
X59100758Y-20532429D01*
X59100761Y-20532427D01*
X59105269Y-20529270D01*
X59269270Y-20365269D01*
X59306068Y-20312717D01*
X59399144Y-20179790D01*
X59402301Y-20175282D01*
X59404624Y-20170300D01*
X59404627Y-20170295D01*
X59454480Y-20063384D01*
X59500320Y-19965079D01*
X59560349Y-19741050D01*
X59580563Y-19510000D01*
X59560349Y-19278950D01*
X59500320Y-19054921D01*
X59437653Y-18920532D01*
X59404627Y-18849706D01*
X59404624Y-18849701D01*
X59402301Y-18844719D01*
X59398061Y-18838663D01*
X59272429Y-18659242D01*
X59272427Y-18659239D01*
X59269270Y-18654731D01*
X59105269Y-18490730D01*
X59100761Y-18487573D01*
X59100758Y-18487571D01*
X58919790Y-18360856D01*
X58919788Y-18360855D01*
X58915281Y-18357699D01*
X58910299Y-18355376D01*
X58910294Y-18355373D01*
X58791944Y-18300186D01*
X58705079Y-18259680D01*
X58481050Y-18199651D01*
X58426848Y-18194909D01*
X58310596Y-18184738D01*
X58310587Y-18184738D01*
X58307871Y-18184500D01*
X58192129Y-18184500D01*
X58189413Y-18184738D01*
X58189404Y-18184738D01*
X58073152Y-18194909D01*
X58018950Y-18199651D01*
X57794921Y-18259680D01*
X57708056Y-18300186D01*
X57589706Y-18355373D01*
X57589701Y-18355376D01*
X57584719Y-18357699D01*
X57580212Y-18360855D01*
X57580210Y-18360856D01*
X57399242Y-18487571D01*
X57399239Y-18487573D01*
X57394731Y-18490730D01*
X57385818Y-18499643D01*
X57323506Y-18533669D01*
X57252691Y-18528604D01*
X57218633Y-18509431D01*
X57052138Y-18377942D01*
X56945742Y-18319208D01*
X56861675Y-18272800D01*
X56861672Y-18272799D01*
X56857144Y-18270299D01*
X56661657Y-18201074D01*
X56652059Y-18197675D01*
X56652056Y-18197674D01*
X56647187Y-18195950D01*
X56642098Y-18195043D01*
X56642096Y-18195043D01*
X56432996Y-18157796D01*
X56432990Y-18157795D01*
X56427907Y-18156890D01*
X56354094Y-18155988D01*
X56210361Y-18154232D01*
X56210359Y-18154232D01*
X56205191Y-18154169D01*
X55985022Y-18187859D01*
X55773311Y-18257057D01*
X55768723Y-18259445D01*
X55768719Y-18259447D01*
X55586099Y-18354513D01*
X55575745Y-18359903D01*
X55571612Y-18363006D01*
X55571609Y-18363008D01*
X55401765Y-18490531D01*
X55397630Y-18493636D01*
X55243748Y-18654664D01*
X55118233Y-18838663D01*
X55116060Y-18843345D01*
X55116058Y-18843348D01*
X55066788Y-18949493D01*
X55024455Y-19040691D01*
X54964932Y-19255322D01*
X54941264Y-19476793D01*
X41240500Y-19476793D01*
X41240500Y-15896500D01*
X41260502Y-15828379D01*
X41314158Y-15781886D01*
X41366500Y-15770500D01*
X154913500Y-15770500D01*
X154981621Y-15790502D01*
G37*
%TD.AperFunction*%
%TD*%
%TA.AperFunction,Conductor*%
%TO.N,VCC*%
G36*
X68903121Y-17038002D02*
G01*
X68949614Y-17091658D01*
X68961000Y-17144000D01*
X68961000Y-17311010D01*
X68940609Y-17375680D01*
X68942276Y-17376643D01*
X68939527Y-17381404D01*
X68936370Y-17385913D01*
X68934047Y-17390895D01*
X68934044Y-17390900D01*
X68848217Y-17574958D01*
X68845894Y-17579940D01*
X68790485Y-17786730D01*
X68771826Y-18000000D01*
X68790485Y-18213270D01*
X68845894Y-18420060D01*
X68848217Y-18425041D01*
X68848217Y-18425042D01*
X68934044Y-18609100D01*
X68934047Y-18609105D01*
X68936370Y-18614087D01*
X68939526Y-18618594D01*
X68942276Y-18623357D01*
X68940609Y-18624320D01*
X68961000Y-18688990D01*
X68961000Y-20331010D01*
X68940609Y-20395680D01*
X68942276Y-20396643D01*
X68939527Y-20401404D01*
X68936370Y-20405913D01*
X68934047Y-20410895D01*
X68934044Y-20410900D01*
X68848217Y-20594958D01*
X68845894Y-20599940D01*
X68790485Y-20806730D01*
X68771826Y-21020000D01*
X68790485Y-21233270D01*
X68845894Y-21440060D01*
X68848217Y-21445041D01*
X68848217Y-21445042D01*
X68934044Y-21629100D01*
X68934047Y-21629105D01*
X68936370Y-21634087D01*
X68939526Y-21638594D01*
X68942276Y-21643357D01*
X68940609Y-21644320D01*
X68961000Y-21708990D01*
X68961000Y-42311010D01*
X68940609Y-42375680D01*
X68942276Y-42376643D01*
X68939527Y-42381404D01*
X68936370Y-42385913D01*
X68934047Y-42390895D01*
X68934044Y-42390900D01*
X68848217Y-42574958D01*
X68845894Y-42579940D01*
X68790485Y-42786730D01*
X68771826Y-43000000D01*
X68790485Y-43213270D01*
X68845894Y-43420060D01*
X68848217Y-43425041D01*
X68848217Y-43425042D01*
X68934044Y-43609100D01*
X68934047Y-43609105D01*
X68936370Y-43614087D01*
X68939526Y-43618594D01*
X68942276Y-43623357D01*
X68940609Y-43624320D01*
X68961000Y-43688990D01*
X68961000Y-45331010D01*
X68940609Y-45395680D01*
X68942276Y-45396643D01*
X68939527Y-45401404D01*
X68936370Y-45405913D01*
X68934047Y-45410895D01*
X68934044Y-45410900D01*
X68848217Y-45594958D01*
X68845894Y-45599940D01*
X68790485Y-45806730D01*
X68771826Y-46020000D01*
X68790485Y-46233270D01*
X68845894Y-46440060D01*
X68848217Y-46445041D01*
X68848217Y-46445042D01*
X68934044Y-46629100D01*
X68934047Y-46629105D01*
X68936370Y-46634087D01*
X68939526Y-46638594D01*
X68942276Y-46643357D01*
X68940609Y-46644320D01*
X68961000Y-46708990D01*
X68961000Y-67311010D01*
X68940609Y-67375680D01*
X68942276Y-67376643D01*
X68939527Y-67381404D01*
X68936370Y-67385913D01*
X68934047Y-67390895D01*
X68934044Y-67390900D01*
X68848217Y-67574958D01*
X68845894Y-67579940D01*
X68790485Y-67786730D01*
X68771826Y-68000000D01*
X68790485Y-68213270D01*
X68845894Y-68420060D01*
X68848217Y-68425041D01*
X68848217Y-68425042D01*
X68934044Y-68609100D01*
X68934047Y-68609105D01*
X68936370Y-68614087D01*
X68939526Y-68618594D01*
X68942276Y-68623357D01*
X68940609Y-68624320D01*
X68961000Y-68688990D01*
X68961000Y-70331010D01*
X68940609Y-70395680D01*
X68942276Y-70396643D01*
X68939527Y-70401404D01*
X68936370Y-70405913D01*
X68934047Y-70410895D01*
X68934044Y-70410900D01*
X68848217Y-70594958D01*
X68845894Y-70599940D01*
X68790485Y-70806730D01*
X68771826Y-71020000D01*
X68790485Y-71233270D01*
X68845894Y-71440060D01*
X68848217Y-71445041D01*
X68848217Y-71445042D01*
X68934044Y-71629100D01*
X68934047Y-71629105D01*
X68936370Y-71634087D01*
X68939526Y-71638594D01*
X68942276Y-71643357D01*
X68940609Y-71644320D01*
X68961000Y-71708990D01*
X68961000Y-92311010D01*
X68940609Y-92375680D01*
X68942276Y-92376643D01*
X68939527Y-92381404D01*
X68936370Y-92385913D01*
X68934047Y-92390895D01*
X68934044Y-92390900D01*
X68848217Y-92574958D01*
X68845894Y-92579940D01*
X68790485Y-92786730D01*
X68771826Y-93000000D01*
X68790485Y-93213270D01*
X68845894Y-93420060D01*
X68848217Y-93425041D01*
X68848217Y-93425042D01*
X68934044Y-93609100D01*
X68934047Y-93609105D01*
X68936370Y-93614087D01*
X68939526Y-93618594D01*
X68942276Y-93623357D01*
X68940609Y-93624320D01*
X68961000Y-93688990D01*
X68961000Y-95331010D01*
X68940609Y-95395680D01*
X68942276Y-95396643D01*
X68939527Y-95401404D01*
X68936370Y-95405913D01*
X68934047Y-95410895D01*
X68934044Y-95410900D01*
X68848217Y-95594958D01*
X68845894Y-95599940D01*
X68790485Y-95806730D01*
X68771826Y-96020000D01*
X68790485Y-96233270D01*
X68845894Y-96440060D01*
X68848217Y-96445041D01*
X68848217Y-96445042D01*
X68934044Y-96629100D01*
X68934047Y-96629105D01*
X68936370Y-96634087D01*
X68939526Y-96638594D01*
X68942276Y-96643357D01*
X68940609Y-96644320D01*
X68961000Y-96708990D01*
X68961000Y-110871000D01*
X63118000Y-110871000D01*
X63049879Y-110850998D01*
X63003386Y-110797342D01*
X62992000Y-110745000D01*
X62992000Y-96776113D01*
X63014787Y-96703842D01*
X63060473Y-96638596D01*
X63060474Y-96638594D01*
X63063630Y-96634087D01*
X63065953Y-96629105D01*
X63065956Y-96629100D01*
X63151783Y-96445042D01*
X63151783Y-96445041D01*
X63154106Y-96440060D01*
X63209515Y-96233270D01*
X63228174Y-96020000D01*
X63209515Y-95806730D01*
X63154106Y-95599940D01*
X63151783Y-95594958D01*
X63065956Y-95410900D01*
X63065953Y-95410895D01*
X63063630Y-95405913D01*
X63014787Y-95336158D01*
X62992000Y-95263887D01*
X62992000Y-93756113D01*
X63014787Y-93683842D01*
X63060473Y-93618596D01*
X63060474Y-93618594D01*
X63063630Y-93614087D01*
X63065953Y-93609105D01*
X63065956Y-93609100D01*
X63151783Y-93425042D01*
X63151783Y-93425041D01*
X63154106Y-93420060D01*
X63209515Y-93213270D01*
X63228174Y-93000000D01*
X63209515Y-92786730D01*
X63154106Y-92579940D01*
X63151783Y-92574958D01*
X63065956Y-92390900D01*
X63065953Y-92390895D01*
X63063630Y-92385913D01*
X63014787Y-92316158D01*
X62992000Y-92243887D01*
X62992000Y-71776113D01*
X63014787Y-71703842D01*
X63060473Y-71638596D01*
X63060474Y-71638594D01*
X63063630Y-71634087D01*
X63065953Y-71629105D01*
X63065956Y-71629100D01*
X63151783Y-71445042D01*
X63151783Y-71445041D01*
X63154106Y-71440060D01*
X63209515Y-71233270D01*
X63228174Y-71020000D01*
X63209515Y-70806730D01*
X63154106Y-70599940D01*
X63151783Y-70594958D01*
X63065956Y-70410900D01*
X63065953Y-70410895D01*
X63063630Y-70405913D01*
X63014787Y-70336158D01*
X62992000Y-70263887D01*
X62992000Y-68756113D01*
X63014787Y-68683842D01*
X63060473Y-68618596D01*
X63060474Y-68618594D01*
X63063630Y-68614087D01*
X63065953Y-68609105D01*
X63065956Y-68609100D01*
X63151783Y-68425042D01*
X63151783Y-68425041D01*
X63154106Y-68420060D01*
X63209515Y-68213270D01*
X63228174Y-68000000D01*
X63209515Y-67786730D01*
X63154106Y-67579940D01*
X63151783Y-67574958D01*
X63065956Y-67390900D01*
X63065953Y-67390895D01*
X63063630Y-67385913D01*
X63014787Y-67316158D01*
X62992000Y-67243887D01*
X62992000Y-46776113D01*
X63014787Y-46703842D01*
X63060473Y-46638596D01*
X63060474Y-46638594D01*
X63063630Y-46634087D01*
X63065953Y-46629105D01*
X63065956Y-46629100D01*
X63151783Y-46445042D01*
X63151783Y-46445041D01*
X63154106Y-46440060D01*
X63209515Y-46233270D01*
X63228174Y-46020000D01*
X63209515Y-45806730D01*
X63154106Y-45599940D01*
X63151783Y-45594958D01*
X63065956Y-45410900D01*
X63065953Y-45410895D01*
X63063630Y-45405913D01*
X63014787Y-45336158D01*
X62992000Y-45263887D01*
X62992000Y-43756113D01*
X63014787Y-43683842D01*
X63060473Y-43618596D01*
X63060474Y-43618594D01*
X63063630Y-43614087D01*
X63065953Y-43609105D01*
X63065956Y-43609100D01*
X63151783Y-43425042D01*
X63151783Y-43425041D01*
X63154106Y-43420060D01*
X63209515Y-43213270D01*
X63228174Y-43000000D01*
X63209515Y-42786730D01*
X63154106Y-42579940D01*
X63151783Y-42574958D01*
X63065956Y-42390900D01*
X63065953Y-42390895D01*
X63063630Y-42385913D01*
X63014787Y-42316158D01*
X62992000Y-42243887D01*
X62992000Y-21776113D01*
X63014787Y-21703842D01*
X63060473Y-21638596D01*
X63060474Y-21638594D01*
X63063630Y-21634087D01*
X63065953Y-21629105D01*
X63065956Y-21629100D01*
X63151783Y-21445042D01*
X63151783Y-21445041D01*
X63154106Y-21440060D01*
X63209515Y-21233270D01*
X63228174Y-21020000D01*
X63209515Y-20806730D01*
X63154106Y-20599940D01*
X63151783Y-20594958D01*
X63065956Y-20410900D01*
X63065953Y-20410895D01*
X63063630Y-20405913D01*
X63014787Y-20336158D01*
X62992000Y-20263887D01*
X62992000Y-18756113D01*
X63014787Y-18683842D01*
X63060473Y-18618596D01*
X63060474Y-18618594D01*
X63063630Y-18614087D01*
X63065953Y-18609105D01*
X63065956Y-18609100D01*
X63151783Y-18425042D01*
X63151783Y-18425041D01*
X63154106Y-18420060D01*
X63209515Y-18213270D01*
X63228174Y-18000000D01*
X63209515Y-17786730D01*
X63154106Y-17579940D01*
X63151783Y-17574958D01*
X63065956Y-17390900D01*
X63065953Y-17390895D01*
X63063630Y-17385913D01*
X63014787Y-17316158D01*
X62992000Y-17243887D01*
X62992000Y-17144000D01*
X63012002Y-17075879D01*
X63065658Y-17029386D01*
X63118000Y-17018000D01*
X68835000Y-17018000D01*
X68903121Y-17038002D01*
G37*
%TD.AperFunction*%
%TD*%
%TA.AperFunction,Conductor*%
%TO.N,VCC*%
G36*
X129794000Y-110854247D02*
G01*
X129768593Y-110868121D01*
X129741810Y-110871000D01*
X112164996Y-110871000D01*
X112097481Y-110851385D01*
X112083580Y-110842563D01*
X112034447Y-110825068D01*
X111935189Y-110789723D01*
X111935187Y-110789722D01*
X111928555Y-110787361D01*
X111921569Y-110786528D01*
X111921565Y-110786527D01*
X111807071Y-110772875D01*
X111765153Y-110767877D01*
X111758150Y-110768613D01*
X111758149Y-110768613D01*
X111714935Y-110773155D01*
X111601495Y-110785078D01*
X111594827Y-110787348D01*
X111452382Y-110835840D01*
X111452379Y-110835841D01*
X111445715Y-110838110D01*
X111427071Y-110849580D01*
X111422620Y-110852318D01*
X111356598Y-110871000D01*
X104163996Y-110871000D01*
X104096481Y-110851385D01*
X104082580Y-110842563D01*
X104033447Y-110825068D01*
X103934189Y-110789723D01*
X103934187Y-110789722D01*
X103927555Y-110787361D01*
X103920569Y-110786528D01*
X103920565Y-110786527D01*
X103806071Y-110772875D01*
X103764153Y-110767877D01*
X103757150Y-110768613D01*
X103757149Y-110768613D01*
X103713935Y-110773155D01*
X103600495Y-110785078D01*
X103593827Y-110787348D01*
X103451382Y-110835840D01*
X103451379Y-110835841D01*
X103444715Y-110838110D01*
X103426071Y-110849580D01*
X103421620Y-110852318D01*
X103355598Y-110871000D01*
X96162996Y-110871000D01*
X96095481Y-110851385D01*
X96081580Y-110842563D01*
X96032447Y-110825068D01*
X95933189Y-110789723D01*
X95933187Y-110789722D01*
X95926555Y-110787361D01*
X95919569Y-110786528D01*
X95919565Y-110786527D01*
X95805071Y-110772875D01*
X95763153Y-110767877D01*
X95756150Y-110768613D01*
X95756149Y-110768613D01*
X95712935Y-110773155D01*
X95599495Y-110785078D01*
X95592827Y-110787348D01*
X95450382Y-110835840D01*
X95450379Y-110835841D01*
X95443715Y-110838110D01*
X95425071Y-110849580D01*
X95420620Y-110852318D01*
X95354598Y-110871000D01*
X88161996Y-110871000D01*
X88094481Y-110851385D01*
X88080580Y-110842563D01*
X88031447Y-110825068D01*
X87932189Y-110789723D01*
X87932187Y-110789722D01*
X87925555Y-110787361D01*
X87918569Y-110786528D01*
X87918565Y-110786527D01*
X87804071Y-110772875D01*
X87762153Y-110767877D01*
X87755150Y-110768613D01*
X87755149Y-110768613D01*
X87711935Y-110773155D01*
X87598495Y-110785078D01*
X87591827Y-110787348D01*
X87449382Y-110835840D01*
X87449379Y-110835841D01*
X87442715Y-110838110D01*
X87424071Y-110849580D01*
X87419620Y-110852318D01*
X87353598Y-110871000D01*
X80160996Y-110871000D01*
X80093481Y-110851385D01*
X80079580Y-110842563D01*
X80030447Y-110825068D01*
X79931189Y-110789723D01*
X79931187Y-110789722D01*
X79924555Y-110787361D01*
X79917569Y-110786528D01*
X79917565Y-110786527D01*
X79803071Y-110772875D01*
X79761153Y-110767877D01*
X79754150Y-110768613D01*
X79754149Y-110768613D01*
X79710935Y-110773155D01*
X79597495Y-110785078D01*
X79590827Y-110787348D01*
X79448382Y-110835840D01*
X79448379Y-110835841D01*
X79441715Y-110838110D01*
X79423071Y-110849580D01*
X79418620Y-110852318D01*
X79352598Y-110871000D01*
X68961000Y-110871000D01*
X68961000Y-104902000D01*
X129794000Y-104902000D01*
X129794000Y-110854247D01*
G37*
%TD.AperFunction*%
%TD*%
%TA.AperFunction,Conductor*%
%TO.N,VCC*%
G36*
X143452121Y-95016002D02*
G01*
X143498614Y-95069658D01*
X143510000Y-95122000D01*
X143510000Y-100839000D01*
X143489998Y-100907121D01*
X143436342Y-100953614D01*
X143384000Y-100965000D01*
X139700000Y-100965000D01*
X129830905Y-110834095D01*
X129794000Y-110854247D01*
X129794000Y-104902000D01*
X139663095Y-95032905D01*
X139725407Y-94998879D01*
X139752190Y-94996000D01*
X143384000Y-94996000D01*
X143452121Y-95016002D01*
G37*
%TD.AperFunction*%
%TD*%
M02*
