%TF.GenerationSoftware,KiCad,Pcbnew,(6.0.5)*%
%TF.CreationDate,2022-06-09T13:10:52-04:00*%
%TF.ProjectId,32-STEPPER-DRIVER-BOARD,33322d53-5445-4505-9045-522d44524956,rev?*%
%TF.SameCoordinates,Original*%
%TF.FileFunction,Legend,Bot*%
%TF.FilePolarity,Positive*%
%FSLAX46Y46*%
G04 Gerber Fmt 4.6, Leading zero omitted, Abs format (unit mm)*
G04 Created by KiCad (PCBNEW (6.0.5)) date 2022-06-09 13:10:52*
%MOMM*%
%LPD*%
G01*
G04 APERTURE LIST*
%ADD10C,0.150000*%
%ADD11C,0.120000*%
G04 APERTURE END LIST*
D10*
X140023780Y-41419571D02*
X140023780Y-42038619D01*
X140404733Y-41705285D01*
X140404733Y-41848142D01*
X140452352Y-41943380D01*
X140499971Y-41991000D01*
X140595209Y-42038619D01*
X140833304Y-42038619D01*
X140928542Y-41991000D01*
X140976161Y-41943380D01*
X141023780Y-41848142D01*
X141023780Y-41562428D01*
X140976161Y-41467190D01*
X140928542Y-41419571D01*
X140119019Y-42419571D02*
X140071400Y-42467190D01*
X140023780Y-42562428D01*
X140023780Y-42800523D01*
X140071400Y-42895761D01*
X140119019Y-42943380D01*
X140214257Y-42991000D01*
X140309495Y-42991000D01*
X140452352Y-42943380D01*
X141023780Y-42371952D01*
X141023780Y-42991000D01*
X140642828Y-43419571D02*
X140642828Y-44181476D01*
X140976161Y-44610047D02*
X141023780Y-44752904D01*
X141023780Y-44991000D01*
X140976161Y-45086238D01*
X140928542Y-45133857D01*
X140833304Y-45181476D01*
X140738066Y-45181476D01*
X140642828Y-45133857D01*
X140595209Y-45086238D01*
X140547590Y-44991000D01*
X140499971Y-44800523D01*
X140452352Y-44705285D01*
X140404733Y-44657666D01*
X140309495Y-44610047D01*
X140214257Y-44610047D01*
X140119019Y-44657666D01*
X140071400Y-44705285D01*
X140023780Y-44800523D01*
X140023780Y-45038619D01*
X140071400Y-45181476D01*
X140023780Y-45467190D02*
X140023780Y-46038619D01*
X141023780Y-45752904D02*
X140023780Y-45752904D01*
X140499971Y-46371952D02*
X140499971Y-46705285D01*
X141023780Y-46848142D02*
X141023780Y-46371952D01*
X140023780Y-46371952D01*
X140023780Y-46848142D01*
X141023780Y-47276714D02*
X140023780Y-47276714D01*
X140023780Y-47657666D01*
X140071400Y-47752904D01*
X140119019Y-47800523D01*
X140214257Y-47848142D01*
X140357114Y-47848142D01*
X140452352Y-47800523D01*
X140499971Y-47752904D01*
X140547590Y-47657666D01*
X140547590Y-47276714D01*
X141023780Y-48276714D02*
X140023780Y-48276714D01*
X140023780Y-48657666D01*
X140071400Y-48752904D01*
X140119019Y-48800523D01*
X140214257Y-48848142D01*
X140357114Y-48848142D01*
X140452352Y-48800523D01*
X140499971Y-48752904D01*
X140547590Y-48657666D01*
X140547590Y-48276714D01*
X140499971Y-49276714D02*
X140499971Y-49610047D01*
X141023780Y-49752904D02*
X141023780Y-49276714D01*
X140023780Y-49276714D01*
X140023780Y-49752904D01*
X141023780Y-50752904D02*
X140547590Y-50419571D01*
X141023780Y-50181476D02*
X140023780Y-50181476D01*
X140023780Y-50562428D01*
X140071400Y-50657666D01*
X140119019Y-50705285D01*
X140214257Y-50752904D01*
X140357114Y-50752904D01*
X140452352Y-50705285D01*
X140499971Y-50657666D01*
X140547590Y-50562428D01*
X140547590Y-50181476D01*
X140642828Y-51181476D02*
X140642828Y-51943380D01*
X141023780Y-52419571D02*
X140023780Y-52419571D01*
X140023780Y-52657666D01*
X140071400Y-52800523D01*
X140166638Y-52895761D01*
X140261876Y-52943380D01*
X140452352Y-52991000D01*
X140595209Y-52991000D01*
X140785685Y-52943380D01*
X140880923Y-52895761D01*
X140976161Y-52800523D01*
X141023780Y-52657666D01*
X141023780Y-52419571D01*
X141023780Y-53991000D02*
X140547590Y-53657666D01*
X141023780Y-53419571D02*
X140023780Y-53419571D01*
X140023780Y-53800523D01*
X140071400Y-53895761D01*
X140119019Y-53943380D01*
X140214257Y-53991000D01*
X140357114Y-53991000D01*
X140452352Y-53943380D01*
X140499971Y-53895761D01*
X140547590Y-53800523D01*
X140547590Y-53419571D01*
X141023780Y-54419571D02*
X140023780Y-54419571D01*
X140023780Y-54752904D02*
X141023780Y-55086238D01*
X140023780Y-55419571D01*
X140499971Y-55752904D02*
X140499971Y-56086238D01*
X141023780Y-56229095D02*
X141023780Y-55752904D01*
X140023780Y-55752904D01*
X140023780Y-56229095D01*
X141023780Y-57229095D02*
X140547590Y-56895761D01*
X141023780Y-56657666D02*
X140023780Y-56657666D01*
X140023780Y-57038619D01*
X140071400Y-57133857D01*
X140119019Y-57181476D01*
X140214257Y-57229095D01*
X140357114Y-57229095D01*
X140452352Y-57181476D01*
X140499971Y-57133857D01*
X140547590Y-57038619D01*
X140547590Y-56657666D01*
X140642828Y-57657666D02*
X140642828Y-58419571D01*
X140499971Y-59229095D02*
X140547590Y-59371952D01*
X140595209Y-59419571D01*
X140690447Y-59467190D01*
X140833304Y-59467190D01*
X140928542Y-59419571D01*
X140976161Y-59371952D01*
X141023780Y-59276714D01*
X141023780Y-58895761D01*
X140023780Y-58895761D01*
X140023780Y-59229095D01*
X140071400Y-59324333D01*
X140119019Y-59371952D01*
X140214257Y-59419571D01*
X140309495Y-59419571D01*
X140404733Y-59371952D01*
X140452352Y-59324333D01*
X140499971Y-59229095D01*
X140499971Y-58895761D01*
X140023780Y-60086238D02*
X140023780Y-60276714D01*
X140071400Y-60371952D01*
X140166638Y-60467190D01*
X140357114Y-60514809D01*
X140690447Y-60514809D01*
X140880923Y-60467190D01*
X140976161Y-60371952D01*
X141023780Y-60276714D01*
X141023780Y-60086238D01*
X140976161Y-59991000D01*
X140880923Y-59895761D01*
X140690447Y-59848142D01*
X140357114Y-59848142D01*
X140166638Y-59895761D01*
X140071400Y-59991000D01*
X140023780Y-60086238D01*
X140738066Y-60895761D02*
X140738066Y-61371952D01*
X141023780Y-60800523D02*
X140023780Y-61133857D01*
X141023780Y-61467190D01*
X141023780Y-62371952D02*
X140547590Y-62038619D01*
X141023780Y-61800523D02*
X140023780Y-61800523D01*
X140023780Y-62181476D01*
X140071400Y-62276714D01*
X140119019Y-62324333D01*
X140214257Y-62371952D01*
X140357114Y-62371952D01*
X140452352Y-62324333D01*
X140499971Y-62276714D01*
X140547590Y-62181476D01*
X140547590Y-61800523D01*
X141023780Y-62800523D02*
X140023780Y-62800523D01*
X140023780Y-63038619D01*
X140071400Y-63181476D01*
X140166638Y-63276714D01*
X140261876Y-63324333D01*
X140452352Y-63371952D01*
X140595209Y-63371952D01*
X140785685Y-63324333D01*
X140880923Y-63276714D01*
X140976161Y-63181476D01*
X141023780Y-63038619D01*
X141023780Y-62800523D01*
X141023780Y-65133857D02*
X140547590Y-64800523D01*
X141023780Y-64562428D02*
X140023780Y-64562428D01*
X140023780Y-64943380D01*
X140071400Y-65038619D01*
X140119019Y-65086238D01*
X140214257Y-65133857D01*
X140357114Y-65133857D01*
X140452352Y-65086238D01*
X140499971Y-65038619D01*
X140547590Y-64943380D01*
X140547590Y-64562428D01*
X140499971Y-65562428D02*
X140499971Y-65895761D01*
X141023780Y-66038619D02*
X141023780Y-65562428D01*
X140023780Y-65562428D01*
X140023780Y-66038619D01*
X140023780Y-66324333D02*
X141023780Y-66657666D01*
X140023780Y-66991000D01*
X140738066Y-68038619D02*
X140738066Y-68514809D01*
X141023780Y-67943380D02*
X140023780Y-68276714D01*
X141023780Y-68610047D01*
X142109971Y-48443380D02*
X142109971Y-48776714D01*
X142633780Y-48919571D02*
X142633780Y-48443380D01*
X141633780Y-48443380D01*
X141633780Y-48919571D01*
X142633780Y-49824333D02*
X142633780Y-49348142D01*
X141633780Y-49348142D01*
X142633780Y-50633857D02*
X142633780Y-50157666D01*
X141633780Y-50157666D01*
X142633780Y-50967190D02*
X141633780Y-50967190D01*
X141633780Y-51633857D02*
X141633780Y-51824333D01*
X141681400Y-51919571D01*
X141776638Y-52014809D01*
X141967114Y-52062428D01*
X142300447Y-52062428D01*
X142490923Y-52014809D01*
X142586161Y-51919571D01*
X142633780Y-51824333D01*
X142633780Y-51633857D01*
X142586161Y-51538619D01*
X142490923Y-51443380D01*
X142300447Y-51395761D01*
X141967114Y-51395761D01*
X141776638Y-51443380D01*
X141681400Y-51538619D01*
X141633780Y-51633857D01*
X141633780Y-52348142D02*
X141633780Y-52919571D01*
X142633780Y-52633857D02*
X141633780Y-52633857D01*
X142109971Y-54014809D02*
X142109971Y-54348142D01*
X142633780Y-54491000D02*
X142633780Y-54014809D01*
X141633780Y-54014809D01*
X141633780Y-54491000D01*
X142633780Y-54919571D02*
X141633780Y-54919571D01*
X142538542Y-55967190D02*
X142586161Y-55919571D01*
X142633780Y-55776714D01*
X142633780Y-55681476D01*
X142586161Y-55538619D01*
X142490923Y-55443380D01*
X142395685Y-55395761D01*
X142205209Y-55348142D01*
X142062352Y-55348142D01*
X141871876Y-55395761D01*
X141776638Y-55443380D01*
X141681400Y-55538619D01*
X141633780Y-55681476D01*
X141633780Y-55776714D01*
X141681400Y-55919571D01*
X141729019Y-55967190D01*
X142633780Y-56395761D02*
X141633780Y-56395761D01*
X142633780Y-56967190D02*
X142062352Y-56538619D01*
X141633780Y-56967190D02*
X142205209Y-56395761D01*
X142633780Y-57395761D02*
X141633780Y-57395761D01*
X142109971Y-57395761D02*
X142109971Y-57967190D01*
X142633780Y-57967190D02*
X141633780Y-57967190D01*
X141633780Y-58633857D02*
X141633780Y-58824333D01*
X141681400Y-58919571D01*
X141776638Y-59014809D01*
X141967114Y-59062428D01*
X142300447Y-59062428D01*
X142490923Y-59014809D01*
X142586161Y-58919571D01*
X142633780Y-58824333D01*
X142633780Y-58633857D01*
X142586161Y-58538619D01*
X142490923Y-58443380D01*
X142300447Y-58395761D01*
X141967114Y-58395761D01*
X141776638Y-58443380D01*
X141681400Y-58538619D01*
X141633780Y-58633857D01*
X142633780Y-59967190D02*
X142633780Y-59491000D01*
X141633780Y-59491000D01*
X141633780Y-60157666D02*
X141633780Y-60729095D01*
X142633780Y-60443380D02*
X141633780Y-60443380D01*
X141633780Y-60967190D02*
X141633780Y-61633857D01*
X142633780Y-60967190D01*
X142633780Y-61633857D01*
%TO.C,U20*%
X82102380Y-103911904D02*
X82911904Y-103911904D01*
X83007142Y-103959523D01*
X83054761Y-104007142D01*
X83102380Y-104102380D01*
X83102380Y-104292857D01*
X83054761Y-104388095D01*
X83007142Y-104435714D01*
X82911904Y-104483333D01*
X82102380Y-104483333D01*
X82197619Y-104911904D02*
X82150000Y-104959523D01*
X82102380Y-105054761D01*
X82102380Y-105292857D01*
X82150000Y-105388095D01*
X82197619Y-105435714D01*
X82292857Y-105483333D01*
X82388095Y-105483333D01*
X82530952Y-105435714D01*
X83102380Y-104864285D01*
X83102380Y-105483333D01*
X82102380Y-106102380D02*
X82102380Y-106197619D01*
X82150000Y-106292857D01*
X82197619Y-106340476D01*
X82292857Y-106388095D01*
X82483333Y-106435714D01*
X82721428Y-106435714D01*
X82911904Y-106388095D01*
X83007142Y-106340476D01*
X83054761Y-106292857D01*
X83102380Y-106197619D01*
X83102380Y-106102380D01*
X83054761Y-106007142D01*
X83007142Y-105959523D01*
X82911904Y-105911904D01*
X82721428Y-105864285D01*
X82483333Y-105864285D01*
X82292857Y-105911904D01*
X82197619Y-105959523D01*
X82150000Y-106007142D01*
X82102380Y-106102380D01*
%TO.C,U10*%
X82081980Y-53829104D02*
X82891504Y-53829104D01*
X82986742Y-53876723D01*
X83034361Y-53924342D01*
X83081980Y-54019580D01*
X83081980Y-54210057D01*
X83034361Y-54305295D01*
X82986742Y-54352914D01*
X82891504Y-54400533D01*
X82081980Y-54400533D01*
X83081980Y-55400533D02*
X83081980Y-54829104D01*
X83081980Y-55114819D02*
X82081980Y-55114819D01*
X82224838Y-55019580D01*
X82320076Y-54924342D01*
X82367695Y-54829104D01*
X82081980Y-56019580D02*
X82081980Y-56114819D01*
X82129600Y-56210057D01*
X82177219Y-56257676D01*
X82272457Y-56305295D01*
X82462933Y-56352914D01*
X82701028Y-56352914D01*
X82891504Y-56305295D01*
X82986742Y-56257676D01*
X83034361Y-56210057D01*
X83081980Y-56114819D01*
X83081980Y-56019580D01*
X83034361Y-55924342D01*
X82986742Y-55876723D01*
X82891504Y-55829104D01*
X82701028Y-55781485D01*
X82462933Y-55781485D01*
X82272457Y-55829104D01*
X82177219Y-55876723D01*
X82129600Y-55924342D01*
X82081980Y-56019580D01*
%TO.C,U6*%
X106132980Y-54372795D02*
X106942504Y-54372795D01*
X107037742Y-54420414D01*
X107085361Y-54468033D01*
X107132980Y-54563271D01*
X107132980Y-54753747D01*
X107085361Y-54848985D01*
X107037742Y-54896604D01*
X106942504Y-54944223D01*
X106132980Y-54944223D01*
X106132980Y-55848985D02*
X106132980Y-55658509D01*
X106180600Y-55563271D01*
X106228219Y-55515652D01*
X106371076Y-55420414D01*
X106561552Y-55372795D01*
X106942504Y-55372795D01*
X107037742Y-55420414D01*
X107085361Y-55468033D01*
X107132980Y-55563271D01*
X107132980Y-55753747D01*
X107085361Y-55848985D01*
X107037742Y-55896604D01*
X106942504Y-55944223D01*
X106704409Y-55944223D01*
X106609171Y-55896604D01*
X106561552Y-55848985D01*
X106513933Y-55753747D01*
X106513933Y-55563271D01*
X106561552Y-55468033D01*
X106609171Y-55420414D01*
X106704409Y-55372795D01*
%TO.C,U2*%
X98096380Y-29238095D02*
X98905904Y-29238095D01*
X99001142Y-29285714D01*
X99048761Y-29333333D01*
X99096380Y-29428571D01*
X99096380Y-29619047D01*
X99048761Y-29714285D01*
X99001142Y-29761904D01*
X98905904Y-29809523D01*
X98096380Y-29809523D01*
X98191619Y-30238095D02*
X98144000Y-30285714D01*
X98096380Y-30380952D01*
X98096380Y-30619047D01*
X98144000Y-30714285D01*
X98191619Y-30761904D01*
X98286857Y-30809523D01*
X98382095Y-30809523D01*
X98524952Y-30761904D01*
X99096380Y-30190476D01*
X99096380Y-30809523D01*
%TO.C,U17*%
X106102380Y-103911904D02*
X106911904Y-103911904D01*
X107007142Y-103959523D01*
X107054761Y-104007142D01*
X107102380Y-104102380D01*
X107102380Y-104292857D01*
X107054761Y-104388095D01*
X107007142Y-104435714D01*
X106911904Y-104483333D01*
X106102380Y-104483333D01*
X107102380Y-105483333D02*
X107102380Y-104911904D01*
X107102380Y-105197619D02*
X106102380Y-105197619D01*
X106245238Y-105102380D01*
X106340476Y-105007142D01*
X106388095Y-104911904D01*
X106102380Y-105816666D02*
X106102380Y-106483333D01*
X107102380Y-106054761D01*
%TO.C,U13*%
X98102380Y-78861904D02*
X98911904Y-78861904D01*
X99007142Y-78909523D01*
X99054761Y-78957142D01*
X99102380Y-79052380D01*
X99102380Y-79242857D01*
X99054761Y-79338095D01*
X99007142Y-79385714D01*
X98911904Y-79433333D01*
X98102380Y-79433333D01*
X99102380Y-80433333D02*
X99102380Y-79861904D01*
X99102380Y-80147619D02*
X98102380Y-80147619D01*
X98245238Y-80052380D01*
X98340476Y-79957142D01*
X98388095Y-79861904D01*
X98102380Y-80766666D02*
X98102380Y-81385714D01*
X98483333Y-81052380D01*
X98483333Y-81195238D01*
X98530952Y-81290476D01*
X98578571Y-81338095D01*
X98673809Y-81385714D01*
X98911904Y-81385714D01*
X99007142Y-81338095D01*
X99054761Y-81290476D01*
X99102380Y-81195238D01*
X99102380Y-80909523D01*
X99054761Y-80814285D01*
X99007142Y-80766666D01*
%TO.C,U5*%
X74096380Y-29238095D02*
X74905904Y-29238095D01*
X75001142Y-29285714D01*
X75048761Y-29333333D01*
X75096380Y-29428571D01*
X75096380Y-29619047D01*
X75048761Y-29714285D01*
X75001142Y-29761904D01*
X74905904Y-29809523D01*
X74096380Y-29809523D01*
X74096380Y-30761904D02*
X74096380Y-30285714D01*
X74572571Y-30238095D01*
X74524952Y-30285714D01*
X74477333Y-30380952D01*
X74477333Y-30619047D01*
X74524952Y-30714285D01*
X74572571Y-30761904D01*
X74667809Y-30809523D01*
X74905904Y-30809523D01*
X75001142Y-30761904D01*
X75048761Y-30714285D01*
X75096380Y-30619047D01*
X75096380Y-30380952D01*
X75048761Y-30285714D01*
X75001142Y-30238095D01*
%TO.C,U16*%
X74102380Y-78861904D02*
X74911904Y-78861904D01*
X75007142Y-78909523D01*
X75054761Y-78957142D01*
X75102380Y-79052380D01*
X75102380Y-79242857D01*
X75054761Y-79338095D01*
X75007142Y-79385714D01*
X74911904Y-79433333D01*
X74102380Y-79433333D01*
X75102380Y-80433333D02*
X75102380Y-79861904D01*
X75102380Y-80147619D02*
X74102380Y-80147619D01*
X74245238Y-80052380D01*
X74340476Y-79957142D01*
X74388095Y-79861904D01*
X74102380Y-81290476D02*
X74102380Y-81100000D01*
X74150000Y-81004761D01*
X74197619Y-80957142D01*
X74340476Y-80861904D01*
X74530952Y-80814285D01*
X74911904Y-80814285D01*
X75007142Y-80861904D01*
X75054761Y-80909523D01*
X75102380Y-81004761D01*
X75102380Y-81195238D01*
X75054761Y-81290476D01*
X75007142Y-81338095D01*
X74911904Y-81385714D01*
X74673809Y-81385714D01*
X74578571Y-81338095D01*
X74530952Y-81290476D01*
X74483333Y-81195238D01*
X74483333Y-81004761D01*
X74530952Y-80909523D01*
X74578571Y-80861904D01*
X74673809Y-80814285D01*
%TO.C,U4*%
X82096380Y-29238095D02*
X82905904Y-29238095D01*
X83001142Y-29285714D01*
X83048761Y-29333333D01*
X83096380Y-29428571D01*
X83096380Y-29619047D01*
X83048761Y-29714285D01*
X83001142Y-29761904D01*
X82905904Y-29809523D01*
X82096380Y-29809523D01*
X82429714Y-30714285D02*
X83096380Y-30714285D01*
X82048761Y-30476190D02*
X82763047Y-30238095D01*
X82763047Y-30857142D01*
%TO.C,U3*%
X90096380Y-29238095D02*
X90905904Y-29238095D01*
X91001142Y-29285714D01*
X91048761Y-29333333D01*
X91096380Y-29428571D01*
X91096380Y-29619047D01*
X91048761Y-29714285D01*
X91001142Y-29761904D01*
X90905904Y-29809523D01*
X90096380Y-29809523D01*
X90096380Y-30190476D02*
X90096380Y-30809523D01*
X90477333Y-30476190D01*
X90477333Y-30619047D01*
X90524952Y-30714285D01*
X90572571Y-30761904D01*
X90667809Y-30809523D01*
X90905904Y-30809523D01*
X91001142Y-30761904D01*
X91048761Y-30714285D01*
X91096380Y-30619047D01*
X91096380Y-30333333D01*
X91048761Y-30238095D01*
X91001142Y-30190476D01*
%TO.C,U12*%
X106102380Y-78911904D02*
X106911904Y-78911904D01*
X107007142Y-78959523D01*
X107054761Y-79007142D01*
X107102380Y-79102380D01*
X107102380Y-79292857D01*
X107054761Y-79388095D01*
X107007142Y-79435714D01*
X106911904Y-79483333D01*
X106102380Y-79483333D01*
X107102380Y-80483333D02*
X107102380Y-79911904D01*
X107102380Y-80197619D02*
X106102380Y-80197619D01*
X106245238Y-80102380D01*
X106340476Y-80007142D01*
X106388095Y-79911904D01*
X106197619Y-80864285D02*
X106150000Y-80911904D01*
X106102380Y-81007142D01*
X106102380Y-81245238D01*
X106150000Y-81340476D01*
X106197619Y-81388095D01*
X106292857Y-81435714D01*
X106388095Y-81435714D01*
X106530952Y-81388095D01*
X107102380Y-80816666D01*
X107102380Y-81435714D01*
%TO.C,U1*%
X106096380Y-29238095D02*
X106905904Y-29238095D01*
X107001142Y-29285714D01*
X107048761Y-29333333D01*
X107096380Y-29428571D01*
X107096380Y-29619047D01*
X107048761Y-29714285D01*
X107001142Y-29761904D01*
X106905904Y-29809523D01*
X106096380Y-29809523D01*
X107096380Y-30809523D02*
X107096380Y-30238095D01*
X107096380Y-30523809D02*
X106096380Y-30523809D01*
X106239238Y-30428571D01*
X106334476Y-30333333D01*
X106382095Y-30238095D01*
%TO.C,U15*%
X82102380Y-78861904D02*
X82911904Y-78861904D01*
X83007142Y-78909523D01*
X83054761Y-78957142D01*
X83102380Y-79052380D01*
X83102380Y-79242857D01*
X83054761Y-79338095D01*
X83007142Y-79385714D01*
X82911904Y-79433333D01*
X82102380Y-79433333D01*
X83102380Y-80433333D02*
X83102380Y-79861904D01*
X83102380Y-80147619D02*
X82102380Y-80147619D01*
X82245238Y-80052380D01*
X82340476Y-79957142D01*
X82388095Y-79861904D01*
X82102380Y-81338095D02*
X82102380Y-80861904D01*
X82578571Y-80814285D01*
X82530952Y-80861904D01*
X82483333Y-80957142D01*
X82483333Y-81195238D01*
X82530952Y-81290476D01*
X82578571Y-81338095D01*
X82673809Y-81385714D01*
X82911904Y-81385714D01*
X83007142Y-81338095D01*
X83054761Y-81290476D01*
X83102380Y-81195238D01*
X83102380Y-80957142D01*
X83054761Y-80861904D01*
X83007142Y-80814285D01*
%TO.C,U18*%
X98102380Y-103911904D02*
X98911904Y-103911904D01*
X99007142Y-103959523D01*
X99054761Y-104007142D01*
X99102380Y-104102380D01*
X99102380Y-104292857D01*
X99054761Y-104388095D01*
X99007142Y-104435714D01*
X98911904Y-104483333D01*
X98102380Y-104483333D01*
X99102380Y-105483333D02*
X99102380Y-104911904D01*
X99102380Y-105197619D02*
X98102380Y-105197619D01*
X98245238Y-105102380D01*
X98340476Y-105007142D01*
X98388095Y-104911904D01*
X98530952Y-106054761D02*
X98483333Y-105959523D01*
X98435714Y-105911904D01*
X98340476Y-105864285D01*
X98292857Y-105864285D01*
X98197619Y-105911904D01*
X98150000Y-105959523D01*
X98102380Y-106054761D01*
X98102380Y-106245238D01*
X98150000Y-106340476D01*
X98197619Y-106388095D01*
X98292857Y-106435714D01*
X98340476Y-106435714D01*
X98435714Y-106388095D01*
X98483333Y-106340476D01*
X98530952Y-106245238D01*
X98530952Y-106054761D01*
X98578571Y-105959523D01*
X98626190Y-105911904D01*
X98721428Y-105864285D01*
X98911904Y-105864285D01*
X99007142Y-105911904D01*
X99054761Y-105959523D01*
X99102380Y-106054761D01*
X99102380Y-106245238D01*
X99054761Y-106340476D01*
X99007142Y-106388095D01*
X98911904Y-106435714D01*
X98721428Y-106435714D01*
X98626190Y-106388095D01*
X98578571Y-106340476D01*
X98530952Y-106245238D01*
%TO.C,U7*%
X98081980Y-54305295D02*
X98891504Y-54305295D01*
X98986742Y-54352914D01*
X99034361Y-54400533D01*
X99081980Y-54495771D01*
X99081980Y-54686247D01*
X99034361Y-54781485D01*
X98986742Y-54829104D01*
X98891504Y-54876723D01*
X98081980Y-54876723D01*
X98081980Y-55257676D02*
X98081980Y-55924342D01*
X99081980Y-55495771D01*
%TO.C,U19*%
X90102380Y-103911904D02*
X90911904Y-103911904D01*
X91007142Y-103959523D01*
X91054761Y-104007142D01*
X91102380Y-104102380D01*
X91102380Y-104292857D01*
X91054761Y-104388095D01*
X91007142Y-104435714D01*
X90911904Y-104483333D01*
X90102380Y-104483333D01*
X91102380Y-105483333D02*
X91102380Y-104911904D01*
X91102380Y-105197619D02*
X90102380Y-105197619D01*
X90245238Y-105102380D01*
X90340476Y-105007142D01*
X90388095Y-104911904D01*
X91102380Y-105959523D02*
X91102380Y-106150000D01*
X91054761Y-106245238D01*
X91007142Y-106292857D01*
X90864285Y-106388095D01*
X90673809Y-106435714D01*
X90292857Y-106435714D01*
X90197619Y-106388095D01*
X90150000Y-106340476D01*
X90102380Y-106245238D01*
X90102380Y-106054761D01*
X90150000Y-105959523D01*
X90197619Y-105911904D01*
X90292857Y-105864285D01*
X90530952Y-105864285D01*
X90626190Y-105911904D01*
X90673809Y-105959523D01*
X90721428Y-106054761D01*
X90721428Y-106245238D01*
X90673809Y-106340476D01*
X90626190Y-106388095D01*
X90530952Y-106435714D01*
%TO.C,U14*%
X90102380Y-78861904D02*
X90911904Y-78861904D01*
X91007142Y-78909523D01*
X91054761Y-78957142D01*
X91102380Y-79052380D01*
X91102380Y-79242857D01*
X91054761Y-79338095D01*
X91007142Y-79385714D01*
X90911904Y-79433333D01*
X90102380Y-79433333D01*
X91102380Y-80433333D02*
X91102380Y-79861904D01*
X91102380Y-80147619D02*
X90102380Y-80147619D01*
X90245238Y-80052380D01*
X90340476Y-79957142D01*
X90388095Y-79861904D01*
X90435714Y-81290476D02*
X91102380Y-81290476D01*
X90054761Y-81052380D02*
X90769047Y-80814285D01*
X90769047Y-81433333D01*
%TO.C,U21*%
X74102380Y-103911904D02*
X74911904Y-103911904D01*
X75007142Y-103959523D01*
X75054761Y-104007142D01*
X75102380Y-104102380D01*
X75102380Y-104292857D01*
X75054761Y-104388095D01*
X75007142Y-104435714D01*
X74911904Y-104483333D01*
X74102380Y-104483333D01*
X74197619Y-104911904D02*
X74150000Y-104959523D01*
X74102380Y-105054761D01*
X74102380Y-105292857D01*
X74150000Y-105388095D01*
X74197619Y-105435714D01*
X74292857Y-105483333D01*
X74388095Y-105483333D01*
X74530952Y-105435714D01*
X75102380Y-104864285D01*
X75102380Y-105483333D01*
X75102380Y-106435714D02*
X75102380Y-105864285D01*
X75102380Y-106150000D02*
X74102380Y-106150000D01*
X74245238Y-106054761D01*
X74340476Y-105959523D01*
X74388095Y-105864285D01*
%TO.C,U11*%
X74081980Y-53829104D02*
X74891504Y-53829104D01*
X74986742Y-53876723D01*
X75034361Y-53924342D01*
X75081980Y-54019580D01*
X75081980Y-54210057D01*
X75034361Y-54305295D01*
X74986742Y-54352914D01*
X74891504Y-54400533D01*
X74081980Y-54400533D01*
X75081980Y-55400533D02*
X75081980Y-54829104D01*
X75081980Y-55114819D02*
X74081980Y-55114819D01*
X74224838Y-55019580D01*
X74320076Y-54924342D01*
X74367695Y-54829104D01*
X75081980Y-56352914D02*
X75081980Y-55781485D01*
X75081980Y-56067200D02*
X74081980Y-56067200D01*
X74224838Y-55971961D01*
X74320076Y-55876723D01*
X74367695Y-55781485D01*
%TO.C,U9*%
X90081980Y-54305295D02*
X90891504Y-54305295D01*
X90986742Y-54352914D01*
X91034361Y-54400533D01*
X91081980Y-54495771D01*
X91081980Y-54686247D01*
X91034361Y-54781485D01*
X90986742Y-54829104D01*
X90891504Y-54876723D01*
X90081980Y-54876723D01*
X91081980Y-55400533D02*
X91081980Y-55591009D01*
X91034361Y-55686247D01*
X90986742Y-55733866D01*
X90843885Y-55829104D01*
X90653409Y-55876723D01*
X90272457Y-55876723D01*
X90177219Y-55829104D01*
X90129600Y-55781485D01*
X90081980Y-55686247D01*
X90081980Y-55495771D01*
X90129600Y-55400533D01*
X90177219Y-55352914D01*
X90272457Y-55305295D01*
X90510552Y-55305295D01*
X90605790Y-55352914D01*
X90653409Y-55400533D01*
X90701028Y-55495771D01*
X90701028Y-55686247D01*
X90653409Y-55781485D01*
X90605790Y-55829104D01*
X90510552Y-55876723D01*
D11*
%TO.C,U20*%
X88835000Y-105150000D02*
X88835000Y-102950000D01*
X83365000Y-105150000D02*
X83365000Y-107350000D01*
X88835000Y-105150000D02*
X88835000Y-107350000D01*
X83365000Y-105150000D02*
X83365000Y-101550000D01*
%TO.C,U10*%
X88814600Y-55067200D02*
X88814600Y-57267200D01*
X88814600Y-55067200D02*
X88814600Y-52867200D01*
X83344600Y-55067200D02*
X83344600Y-51467200D01*
X83344600Y-55067200D02*
X83344600Y-57267200D01*
%TO.C,U6*%
X112865600Y-55134700D02*
X112865600Y-52934700D01*
X107395600Y-55134700D02*
X107395600Y-51534700D01*
X112865600Y-55134700D02*
X112865600Y-57334700D01*
X107395600Y-55134700D02*
X107395600Y-57334700D01*
%TO.C,U2*%
X104829000Y-30000000D02*
X104829000Y-32200000D01*
X99359000Y-30000000D02*
X99359000Y-26400000D01*
X104829000Y-30000000D02*
X104829000Y-27800000D01*
X99359000Y-30000000D02*
X99359000Y-32200000D01*
%TO.C,U17*%
X112835000Y-105150000D02*
X112835000Y-107350000D01*
X107365000Y-105150000D02*
X107365000Y-107350000D01*
X107365000Y-105150000D02*
X107365000Y-101550000D01*
X112835000Y-105150000D02*
X112835000Y-102950000D01*
%TO.C,U13*%
X99365000Y-80100000D02*
X99365000Y-76500000D01*
X104835000Y-80100000D02*
X104835000Y-82300000D01*
X104835000Y-80100000D02*
X104835000Y-77900000D01*
X99365000Y-80100000D02*
X99365000Y-82300000D01*
%TO.C,U5*%
X80829000Y-30000000D02*
X80829000Y-27800000D01*
X80829000Y-30000000D02*
X80829000Y-32200000D01*
X75359000Y-30000000D02*
X75359000Y-26400000D01*
X75359000Y-30000000D02*
X75359000Y-32200000D01*
%TO.C,U16*%
X75365000Y-80100000D02*
X75365000Y-82300000D01*
X75365000Y-80100000D02*
X75365000Y-76500000D01*
X80835000Y-80100000D02*
X80835000Y-77900000D01*
X80835000Y-80100000D02*
X80835000Y-82300000D01*
%TO.C,U4*%
X83359000Y-30000000D02*
X83359000Y-32200000D01*
X83359000Y-30000000D02*
X83359000Y-26400000D01*
X88829000Y-30000000D02*
X88829000Y-27800000D01*
X88829000Y-30000000D02*
X88829000Y-32200000D01*
%TO.C,U3*%
X91359000Y-30000000D02*
X91359000Y-26400000D01*
X91359000Y-30000000D02*
X91359000Y-32200000D01*
X96829000Y-30000000D02*
X96829000Y-27800000D01*
X96829000Y-30000000D02*
X96829000Y-32200000D01*
%TO.C,U12*%
X107365000Y-80150000D02*
X107365000Y-76550000D01*
X107365000Y-80150000D02*
X107365000Y-82350000D01*
X112835000Y-80150000D02*
X112835000Y-77950000D01*
X112835000Y-80150000D02*
X112835000Y-82350000D01*
%TO.C,U1*%
X112829000Y-30000000D02*
X112829000Y-27800000D01*
X107359000Y-30000000D02*
X107359000Y-26400000D01*
X112829000Y-30000000D02*
X112829000Y-32200000D01*
X107359000Y-30000000D02*
X107359000Y-32200000D01*
%TO.C,U15*%
X83365000Y-80100000D02*
X83365000Y-82300000D01*
X83365000Y-80100000D02*
X83365000Y-76500000D01*
X88835000Y-80100000D02*
X88835000Y-77900000D01*
X88835000Y-80100000D02*
X88835000Y-82300000D01*
%TO.C,U18*%
X104835000Y-105150000D02*
X104835000Y-107350000D01*
X99365000Y-105150000D02*
X99365000Y-101550000D01*
X99365000Y-105150000D02*
X99365000Y-107350000D01*
X104835000Y-105150000D02*
X104835000Y-102950000D01*
%TO.C,U7*%
X104814600Y-55067200D02*
X104814600Y-52867200D01*
X104814600Y-55067200D02*
X104814600Y-57267200D01*
X99344600Y-55067200D02*
X99344600Y-51467200D01*
X99344600Y-55067200D02*
X99344600Y-57267200D01*
%TO.C,U19*%
X91365000Y-105150000D02*
X91365000Y-101550000D01*
X96835000Y-105150000D02*
X96835000Y-102950000D01*
X91365000Y-105150000D02*
X91365000Y-107350000D01*
X96835000Y-105150000D02*
X96835000Y-107350000D01*
%TO.C,U14*%
X91365000Y-80100000D02*
X91365000Y-76500000D01*
X96835000Y-80100000D02*
X96835000Y-77900000D01*
X96835000Y-80100000D02*
X96835000Y-82300000D01*
X91365000Y-80100000D02*
X91365000Y-82300000D01*
%TO.C,U21*%
X80835000Y-105150000D02*
X80835000Y-107350000D01*
X80835000Y-105150000D02*
X80835000Y-102950000D01*
X75365000Y-105150000D02*
X75365000Y-107350000D01*
X75365000Y-105150000D02*
X75365000Y-101550000D01*
%TO.C,U11*%
X80814600Y-55067200D02*
X80814600Y-57267200D01*
X75344600Y-55067200D02*
X75344600Y-57267200D01*
X75344600Y-55067200D02*
X75344600Y-51467200D01*
X80814600Y-55067200D02*
X80814600Y-52867200D01*
%TO.C,U9*%
X96814600Y-55067200D02*
X96814600Y-57267200D01*
X96814600Y-55067200D02*
X96814600Y-52867200D01*
X91344600Y-55067200D02*
X91344600Y-57267200D01*
X91344600Y-55067200D02*
X91344600Y-51467200D01*
%TD*%
M02*
