M48
; DRILL file {KiCad (6.0.5)} date Thu Jun  9 13:10:49 2022
; FORMAT={-:-/ absolute / inch / decimal}
; #@! TF.CreationDate,2022-06-09T13:10:49-04:00
; #@! TF.GenerationSoftware,Kicad,Pcbnew,(6.0.5)
; #@! TF.FileFunction,Plated,1,4,PTH
FMAT,2
INCH
; #@! TA.AperFunction,Plated,PTH,ViaDrill
T1C0.0079
; #@! TA.AperFunction,Plated,PTH,ComponentDrill
T2C0.0315
; #@! TA.AperFunction,Plated,PTH,ComponentDrill
T3C0.0319
; #@! TA.AperFunction,Plated,PTH,ComponentDrill
T4C0.0394
; #@! TA.AperFunction,Plated,PTH,ComponentDrill
T5C0.0409
; #@! TA.AperFunction,Plated,PTH,ComponentDrill
T6C0.0866
%
G90
G05
T1
X1.68Y-1.195
X1.705Y-1.88
X1.705Y-2.485
X1.705Y-3.92
X1.71Y-3.235
X1.805Y-1.195
X1.83Y-1.88
X1.83Y-2.485
X1.83Y-3.92
X1.835Y-3.235
X1.94Y-1.195
X1.965Y-1.88
X1.965Y-2.485
X1.965Y-3.92
X1.97Y-3.235
X2.265Y-0.94
X2.265Y-1.075
X2.265Y-1.2
X2.28Y-1.925
X2.28Y-2.06
X2.28Y-2.185
X2.28Y-2.915
X2.28Y-3.05
X2.28Y-3.175
X2.285Y-3.885
X2.285Y-4.02
X2.285Y-4.145
X2.9843Y-3.5362
X2.9843Y-4.5162
X2.985Y-1.565
X2.985Y-2.5512
X3.035Y-1.54
X3.035Y-2.53
X3.035Y-3.505
X3.035Y-4.49
X3.065Y-1.515
X3.065Y-2.505
X3.065Y-3.48
X3.065Y-4.465
X3.09Y-1.49
X3.09Y-2.48
X3.09Y-3.455
X3.09Y-4.44
X3.115Y-1.465
X3.115Y-2.455
X3.115Y-3.43
X3.115Y-4.415
X3.14Y-1.44
X3.14Y-2.43
X3.14Y-3.405
X3.14Y-4.39
X3.3Y-1.565
X3.3Y-2.5512
X3.3Y-3.5312
X3.3Y-4.5162
X3.35Y-1.565
X3.35Y-2.555
X3.35Y-3.53
X3.35Y-4.515
X3.38Y-1.515
X3.38Y-2.505
X3.38Y-3.48
X3.38Y-4.465
X3.405Y-1.49
X3.405Y-2.48
X3.405Y-3.455
X3.405Y-4.44
X3.43Y-1.465
X3.43Y-2.455
X3.43Y-3.43
X3.43Y-4.415
X3.455Y-1.44
X3.455Y-2.43
X3.455Y-3.405
X3.455Y-4.39
X3.475Y-1.54
X3.475Y-2.53
X3.475Y-3.505
X3.475Y-4.49
X3.615Y-1.565
X3.615Y-2.5512
X3.615Y-3.5312
X3.615Y-4.5162
X3.665Y-1.565
X3.665Y-2.555
X3.665Y-3.53
X3.665Y-4.515
X3.695Y-1.515
X3.695Y-2.505
X3.695Y-3.48
X3.695Y-4.465
X3.72Y-1.49
X3.72Y-2.48
X3.72Y-3.455
X3.72Y-4.44
X3.745Y-1.465
X3.745Y-2.455
X3.745Y-3.43
X3.745Y-4.415
X3.77Y-1.44
X3.77Y-2.43
X3.77Y-3.405
X3.77Y-4.39
X3.795Y-1.54
X3.795Y-2.53
X3.795Y-3.505
X3.795Y-4.49
X3.93Y-1.565
X3.93Y-2.5512
X3.93Y-3.5312
X3.93Y-4.5162
X3.98Y-1.565
X3.98Y-2.555
X3.98Y-3.53
X3.98Y-4.515
X4.01Y-1.515
X4.01Y-2.505
X4.01Y-3.48
X4.01Y-4.465
X4.035Y-1.49
X4.035Y-2.48
X4.035Y-3.455
X4.035Y-4.44
X4.06Y-1.465
X4.06Y-2.455
X4.06Y-3.43
X4.06Y-4.415
X4.085Y-1.44
X4.085Y-2.43
X4.085Y-3.405
X4.085Y-4.39
X4.11Y-1.54
X4.11Y-2.53
X4.11Y-3.505
X4.11Y-4.49
X4.245Y-1.565
X4.245Y-2.5512
X4.245Y-3.5312
X4.245Y-4.5162
X4.295Y-1.565
X4.295Y-3.53
X4.295Y-4.515
X4.3Y-2.5502
X4.325Y-1.515
X4.325Y-2.505
X4.325Y-3.48
X4.325Y-4.465
X4.35Y-1.49
X4.35Y-2.48
X4.35Y-3.455
X4.35Y-4.44
X4.375Y-1.465
X4.375Y-2.455
X4.375Y-3.43
X4.375Y-4.415
X4.4Y-1.44
X4.4Y-2.43
X4.4Y-3.405
X4.4Y-4.39
X4.425Y-1.54
X4.425Y-2.53
X4.425Y-3.505
X4.425Y-4.49
X4.89Y-1.515
X4.895Y-4.415
X4.969Y-0.715
X4.98Y-1.49
X4.99Y-2.505
X4.99Y-3.48
X4.99Y-4.025
X5.02Y-2.48
X5.02Y-3.455
X5.02Y-4.06
X5.045Y-4.415
X5.05Y-1.44
X5.05Y-2.43
X5.05Y-3.405
X5.05Y-4.085
X5.094Y-0.715
X5.229Y-0.715
X5.361Y-0.715
X5.486Y-0.715
X5.515Y-3.755
X5.515Y-3.795
X5.515Y-3.835
X5.515Y-3.88
X5.515Y-3.92
X5.515Y-3.96
X5.555Y-3.755
X5.555Y-3.795
X5.555Y-3.835
X5.555Y-3.88
X5.555Y-3.92
X5.555Y-3.96
X5.595Y-3.755
X5.595Y-3.795
X5.595Y-3.835
X5.595Y-3.88
X5.595Y-3.92
X5.595Y-3.96
X5.621Y-0.715
X5.635Y-3.755
X5.635Y-3.795
X5.635Y-3.835
X5.635Y-3.88
X5.635Y-3.92
X5.635Y-3.96
X5.675Y-4.145
X5.675Y-4.21
X5.705Y-4.175
X5.735Y-4.145
X5.735Y-4.21
X5.765Y-4.175
X5.795Y-4.145
X5.795Y-4.21
X5.865Y-3.675
X5.865Y-3.725
X5.865Y-3.83
X5.865Y-3.88
X5.865Y-3.99
X5.865Y-4.04
X5.905Y-3.675
X5.905Y-3.725
X5.905Y-3.83
X5.905Y-3.88
X5.905Y-3.99
X5.905Y-4.04
X5.945Y-3.675
X5.945Y-3.725
X5.945Y-3.83
X5.945Y-3.88
X5.945Y-3.99
X5.945Y-4.04
X5.985Y-3.675
X5.985Y-3.725
X5.985Y-3.83
X5.985Y-3.88
X5.985Y-3.99
X5.985Y-4.04
T2
X5.9213Y-3.5217
X5.9213Y-4.2736
X6.0Y-3.5217
X6.0Y-4.2736
T3
X2.3622Y-0.7087
X2.3622Y-0.8276
X2.3622Y-1.6929
X2.3622Y-1.8118
X2.3622Y-2.6772
X2.3622Y-2.7961
X2.3622Y-3.6614
X2.3622Y-3.7803
X2.4409Y-0.7087
X2.4409Y-0.8276
X2.4409Y-1.6929
X2.4409Y-1.8118
X2.4409Y-2.6772
X2.4409Y-2.7961
X2.4409Y-3.6614
X2.4409Y-3.7803
X2.5197Y-0.7087
X2.5197Y-0.8276
X2.5197Y-1.6929
X2.5197Y-1.8118
X2.5197Y-2.6772
X2.5197Y-2.7961
X2.5197Y-3.6614
X2.5197Y-3.7803
X2.5984Y-0.7087
X2.5984Y-0.8276
X2.5984Y-1.6929
X2.5984Y-1.8118
X2.5984Y-2.6772
X2.5984Y-2.7961
X2.5984Y-3.6614
X2.5984Y-3.7803
X2.6772Y-0.7087
X2.6772Y-0.8276
X2.6772Y-1.6929
X2.6772Y-1.8118
X2.6772Y-2.6772
X2.6772Y-2.7961
X2.6772Y-3.6614
X2.6772Y-3.7803
X2.7559Y-0.7087
X2.7559Y-0.8276
X2.7559Y-1.6929
X2.7559Y-1.8118
X2.7559Y-2.6772
X2.7559Y-2.7961
X2.7559Y-3.6614
X2.7559Y-3.7803
X2.8346Y-0.7087
X2.8346Y-0.8276
X2.8346Y-1.6929
X2.8346Y-1.8118
X2.8346Y-2.6772
X2.8346Y-2.7961
X2.8346Y-3.6614
X2.8346Y-3.7803
X2.9134Y-0.7087
X2.9134Y-0.8276
X2.9134Y-1.6929
X2.9134Y-1.8118
X2.9134Y-2.6772
X2.9134Y-2.7961
X2.9134Y-3.6614
X2.9134Y-3.7803
X2.9921Y-0.7087
X2.9921Y-0.8276
X2.9921Y-1.6929
X2.9921Y-1.8118
X2.9921Y-2.6772
X2.9921Y-2.7961
X2.9921Y-3.6614
X2.9921Y-3.7803
X3.0709Y-0.7087
X3.0709Y-0.8276
X3.0709Y-1.6929
X3.0709Y-1.8118
X3.0709Y-2.6772
X3.0709Y-2.7961
X3.0709Y-3.6614
X3.0709Y-3.7803
X3.1496Y-0.7087
X3.1496Y-0.8276
X3.1496Y-1.6929
X3.1496Y-1.8118
X3.1496Y-2.6772
X3.1496Y-2.7961
X3.1496Y-3.6614
X3.1496Y-3.7803
X3.2283Y-0.7087
X3.2283Y-0.8276
X3.2283Y-1.6929
X3.2283Y-1.8118
X3.2283Y-2.6772
X3.2283Y-2.7961
X3.2283Y-3.6614
X3.2283Y-3.7803
X3.3071Y-0.7087
X3.3071Y-0.8276
X3.3071Y-1.6929
X3.3071Y-1.8118
X3.3071Y-2.6772
X3.3071Y-2.7961
X3.3071Y-3.6614
X3.3071Y-3.7803
X3.3858Y-0.7087
X3.3858Y-0.8276
X3.3858Y-1.6929
X3.3858Y-1.8118
X3.3858Y-2.6772
X3.3858Y-2.7961
X3.3858Y-3.6614
X3.3858Y-3.7803
X3.4646Y-0.7087
X3.4646Y-0.8276
X3.4646Y-1.6929
X3.4646Y-1.8118
X3.4646Y-2.6772
X3.4646Y-2.7961
X3.4646Y-3.6614
X3.4646Y-3.7803
X3.5433Y-0.7087
X3.5433Y-0.8276
X3.5433Y-1.6929
X3.5433Y-1.8118
X3.5433Y-2.6772
X3.5433Y-2.7961
X3.5433Y-3.6614
X3.5433Y-3.7803
X3.622Y-0.7087
X3.622Y-0.8276
X3.622Y-1.6929
X3.622Y-1.8118
X3.622Y-2.6772
X3.622Y-2.7961
X3.622Y-3.6614
X3.622Y-3.7803
X3.7008Y-0.7087
X3.7008Y-0.8276
X3.7008Y-1.6929
X3.7008Y-1.8118
X3.7008Y-2.6772
X3.7008Y-2.7961
X3.7008Y-3.6614
X3.7008Y-3.7803
X3.7795Y-0.7087
X3.7795Y-0.8276
X3.7795Y-1.6929
X3.7795Y-1.8118
X3.7795Y-2.6772
X3.7795Y-2.7961
X3.7795Y-3.6614
X3.7795Y-3.7803
X3.8583Y-0.7087
X3.8583Y-0.8276
X3.8583Y-1.6929
X3.8583Y-1.8118
X3.8583Y-2.6772
X3.8583Y-2.7961
X3.8583Y-3.6614
X3.8583Y-3.7803
X3.937Y-0.7087
X3.937Y-0.8276
X3.937Y-1.6929
X3.937Y-1.8118
X3.937Y-2.6772
X3.937Y-2.7961
X3.937Y-3.6614
X3.937Y-3.7803
X4.0157Y-0.7087
X4.0157Y-0.8276
X4.0157Y-1.6929
X4.0157Y-1.8118
X4.0157Y-2.6772
X4.0157Y-2.7961
X4.0157Y-3.6614
X4.0157Y-3.7803
X4.0945Y-0.7087
X4.0945Y-0.8276
X4.0945Y-1.6929
X4.0945Y-1.8118
X4.0945Y-2.6772
X4.0945Y-2.7961
X4.0945Y-3.6614
X4.0945Y-3.7803
X4.1732Y-0.7087
X4.1732Y-0.8276
X4.1732Y-1.6929
X4.1732Y-1.8118
X4.1732Y-2.6772
X4.1732Y-2.7961
X4.1732Y-3.6614
X4.1732Y-3.7803
X4.252Y-0.7087
X4.252Y-0.8276
X4.252Y-1.6929
X4.252Y-1.8118
X4.252Y-2.6772
X4.252Y-2.7961
X4.252Y-3.6614
X4.252Y-3.7803
X4.3307Y-0.7087
X4.3307Y-0.8276
X4.3307Y-1.6929
X4.3307Y-1.8118
X4.3307Y-2.6772
X4.3307Y-2.7961
X4.3307Y-3.6614
X4.3307Y-3.7803
X4.4094Y-0.7087
X4.4094Y-0.8276
X4.4094Y-1.6929
X4.4094Y-1.8118
X4.4094Y-2.6772
X4.4094Y-2.7961
X4.4094Y-3.6614
X4.4094Y-3.7803
X4.4882Y-0.7087
X4.4882Y-0.8276
X4.4882Y-1.6929
X4.4882Y-1.8118
X4.4882Y-2.6772
X4.4882Y-2.7961
X4.4882Y-3.6614
X4.4882Y-3.7803
X4.5669Y-0.7087
X4.5669Y-0.8276
X4.5669Y-1.6929
X4.5669Y-1.8118
X4.5669Y-2.6772
X4.5669Y-2.7961
X4.5669Y-3.6614
X4.5669Y-3.7803
X4.6457Y-0.7087
X4.6457Y-0.8276
X4.6457Y-1.6929
X4.6457Y-1.8118
X4.6457Y-2.6772
X4.6457Y-2.7961
X4.6457Y-3.6614
X4.6457Y-3.7803
T4
X2.2165Y-0.7681
X2.2165Y-1.7524
X2.2165Y-2.7366
X2.2165Y-3.7209
X4.7913Y-0.7681
X4.7913Y-1.7524
X4.7913Y-2.7366
X4.7913Y-3.7209
T5
X5.9106Y-0.9412
X5.9106Y-1.0412
X5.9106Y-1.1412
X5.9106Y-1.2412
X5.9106Y-1.3412
X5.9106Y-1.4412
X5.9106Y-1.5412
X5.9106Y-1.6412
X5.9106Y-1.7412
X5.9106Y-1.8412
X5.9106Y-1.9412
X5.9106Y-2.0412
X5.9106Y-2.1412
X5.9106Y-2.2412
X5.9106Y-2.3412
X5.9106Y-2.4412
X5.9106Y-2.5412
X5.9106Y-2.6412
X5.9106Y-2.7412
X5.9106Y-2.8412
X5.9106Y-2.9412
X5.9106Y-3.0412
X5.9106Y-3.1412
X5.9106Y-3.2412
X5.9106Y-3.3412
X6.0106Y-0.9412
X6.0106Y-1.0412
X6.0106Y-1.1412
X6.0106Y-1.2412
X6.0106Y-1.3412
X6.0106Y-1.4412
X6.0106Y-1.5412
X6.0106Y-1.6412
X6.0106Y-1.7412
X6.0106Y-1.8412
X6.0106Y-1.9412
X6.0106Y-2.0412
X6.0106Y-2.1412
X6.0106Y-2.2412
X6.0106Y-2.3412
X6.0106Y-2.4412
X6.0106Y-2.5412
X6.0106Y-2.6412
X6.0106Y-2.7412
X6.0106Y-2.8412
X6.0106Y-2.9412
X6.0106Y-3.0412
X6.0106Y-3.1412
X6.0106Y-3.2412
X6.0106Y-3.3412
T6
X1.75Y-0.75
X1.75Y-4.5
X5.975Y-0.75
X5.975Y-4.5
T0
M30
