M48
; DRILL file {KiCad (6.0.4)} date Mon Jun  6 18:54:19 2022
; FORMAT={-:-/ absolute / metric / decimal}
; #@! TF.CreationDate,2022-06-06T18:54:19-04:00
; #@! TF.GenerationSoftware,Kicad,Pcbnew,(6.0.4)
; #@! TF.FileFunction,Plated,1,4,PTH
FMAT,2
METRIC
; #@! TA.AperFunction,Plated,PTH,ViaDrill
T1C0.200
; #@! TA.AperFunction,Plated,PTH,ComponentDrill
T2C0.800
; #@! TA.AperFunction,Plated,PTH,ComponentDrill
T3C0.810
; #@! TA.AperFunction,Plated,PTH,ComponentDrill
T4C1.000
; #@! TA.AperFunction,Plated,PTH,ComponentDrill
T5C1.040
%
G90
G05
T1
X42.672Y-30.353
X42.926Y-115.189
X43.053Y-17.653
X43.307Y-47.752
X43.307Y-63.119
X43.307Y-99.568
X43.434Y-82.169
X45.847Y-30.353
X46.101Y-115.189
X46.228Y-17.653
X46.482Y-47.752
X46.482Y-63.119
X46.482Y-99.568
X46.609Y-82.169
X49.276Y-30.353
X49.53Y-115.189
X49.657Y-17.653
X49.911Y-47.752
X49.911Y-63.119
X49.911Y-99.568
X50.038Y-82.169
X57.531Y-23.876
X57.531Y-27.305
X57.531Y-30.48
X57.912Y-48.895
X57.912Y-52.324
X57.912Y-55.499
X57.912Y-74.041
X57.912Y-77.47
X57.912Y-80.645
X58.039Y-98.679
X58.039Y-102.108
X58.039Y-105.283
X75.8Y-89.819
X75.8Y-114.712
X75.819Y-39.751
X75.819Y-64.8
X77.089Y-39.116
X77.089Y-64.262
X77.089Y-89.027
X77.089Y-114.046
X77.851Y-38.481
X77.851Y-63.627
X77.851Y-88.392
X77.851Y-113.411
X78.486Y-37.846
X78.486Y-62.992
X78.486Y-87.757
X78.486Y-112.776
X79.121Y-37.211
X79.121Y-62.357
X79.121Y-87.122
X79.121Y-112.141
X79.756Y-36.576
X79.756Y-61.722
X79.756Y-86.487
X79.756Y-111.506
X83.82Y-39.751
X83.82Y-64.8
X83.82Y-89.692
X83.82Y-114.712
X85.09Y-39.751
X85.09Y-64.897
X85.09Y-89.662
X85.09Y-114.681
X85.852Y-38.481
X85.852Y-63.627
X85.852Y-88.392
X85.852Y-113.411
X86.487Y-37.846
X86.487Y-62.992
X86.487Y-87.757
X86.487Y-112.776
X87.122Y-37.211
X87.122Y-62.357
X87.122Y-87.122
X87.122Y-112.141
X87.757Y-36.576
X87.757Y-61.722
X87.757Y-86.487
X87.757Y-111.506
X88.265Y-39.116
X88.265Y-64.262
X88.265Y-89.027
X88.265Y-114.046
X91.821Y-39.751
X91.821Y-64.8
X91.821Y-89.692
X91.821Y-114.712
X93.091Y-39.751
X93.091Y-64.897
X93.091Y-89.662
X93.091Y-114.681
X93.853Y-38.481
X93.853Y-63.627
X93.853Y-88.392
X93.853Y-113.411
X94.488Y-37.846
X94.488Y-62.992
X94.488Y-87.757
X94.488Y-112.776
X95.123Y-37.211
X95.123Y-62.357
X95.123Y-87.122
X95.123Y-112.141
X95.758Y-36.576
X95.758Y-61.722
X95.758Y-86.487
X95.758Y-111.506
X96.393Y-39.116
X96.393Y-64.262
X96.393Y-89.027
X96.393Y-114.046
X99.822Y-39.751
X99.822Y-64.8
X99.822Y-89.692
X99.822Y-114.712
X101.092Y-39.751
X101.092Y-64.897
X101.092Y-89.662
X101.092Y-114.681
X101.854Y-38.481
X101.854Y-63.627
X101.854Y-88.392
X101.854Y-113.411
X102.489Y-37.846
X102.489Y-62.992
X102.489Y-87.757
X102.489Y-112.776
X103.124Y-37.211
X103.124Y-62.357
X103.124Y-87.122
X103.124Y-112.141
X103.759Y-36.576
X103.759Y-61.722
X103.759Y-86.487
X103.759Y-111.506
X104.394Y-39.116
X104.394Y-64.262
X104.394Y-89.027
X104.394Y-114.046
X107.823Y-39.751
X107.823Y-64.8
X107.823Y-89.692
X107.823Y-114.712
X109.093Y-39.751
X109.093Y-89.662
X109.093Y-114.681
X109.22Y-64.775
X109.855Y-38.481
X109.855Y-63.627
X109.855Y-88.392
X109.855Y-113.411
X110.49Y-37.846
X110.49Y-62.992
X110.49Y-87.757
X110.49Y-112.776
X111.125Y-37.211
X111.125Y-62.357
X111.125Y-87.122
X111.125Y-112.141
X111.76Y-36.576
X111.76Y-61.722
X111.76Y-86.487
X111.76Y-111.506
X112.395Y-39.116
X112.395Y-64.262
X112.395Y-89.027
X112.395Y-114.046
X124.206Y-38.481
X124.333Y-112.141
X126.492Y-37.846
X126.746Y-63.627
X126.746Y-88.392
X126.746Y-102.235
X127.127Y-18.161
X127.508Y-62.992
X127.508Y-87.757
X127.508Y-103.124
X128.143Y-112.141
X128.27Y-36.576
X128.27Y-61.722
X128.27Y-86.487
X128.27Y-103.759
X130.302Y-18.161
X133.731Y-18.161
X140.081Y-95.377
X140.081Y-96.393
X140.081Y-97.409
X140.081Y-98.552
X140.081Y-99.568
X140.081Y-100.584
X141.097Y-95.377
X141.097Y-96.393
X141.097Y-97.409
X141.097Y-98.552
X141.097Y-99.568
X141.097Y-100.584
X142.113Y-95.377
X142.113Y-96.393
X142.113Y-97.409
X142.113Y-98.552
X142.113Y-99.568
X142.113Y-100.584
X143.129Y-95.377
X143.129Y-96.393
X143.129Y-97.409
X143.129Y-98.552
X143.129Y-99.568
X143.129Y-100.584
X144.145Y-105.283
X144.145Y-106.934
X144.653Y-18.288
X144.907Y-106.045
X145.669Y-105.283
X145.669Y-106.934
X146.431Y-106.045
X147.193Y-105.283
X147.193Y-106.934
X147.828Y-18.288
X148.971Y-93.345
X148.971Y-94.615
X148.971Y-97.282
X148.971Y-98.552
X148.971Y-101.346
X148.971Y-102.616
X149.987Y-93.345
X149.987Y-94.615
X149.987Y-97.282
X149.987Y-98.552
X149.987Y-101.346
X149.987Y-102.616
X151.003Y-93.345
X151.003Y-94.615
X151.003Y-97.282
X151.003Y-98.552
X151.003Y-101.346
X151.003Y-102.616
X151.257Y-18.288
X152.019Y-93.345
X152.019Y-94.615
X152.019Y-97.282
X152.019Y-98.552
X152.019Y-101.346
X152.019Y-102.616
T2
X150.4Y-89.45
X150.4Y-108.55
X152.4Y-89.45
X152.4Y-108.55
T3
X60.0Y-18.0
X60.0Y-21.02
X60.0Y-43.0
X60.0Y-46.02
X60.0Y-68.0
X60.0Y-71.02
X60.0Y-93.0
X60.0Y-96.02
X62.0Y-18.0
X62.0Y-21.02
X62.0Y-43.0
X62.0Y-46.02
X62.0Y-68.0
X62.0Y-71.02
X62.0Y-93.0
X62.0Y-96.02
X64.0Y-18.0
X64.0Y-21.02
X64.0Y-43.0
X64.0Y-46.02
X64.0Y-68.0
X64.0Y-71.02
X64.0Y-93.0
X64.0Y-96.02
X66.0Y-18.0
X66.0Y-21.02
X66.0Y-43.0
X66.0Y-46.02
X66.0Y-68.0
X66.0Y-71.02
X66.0Y-93.0
X66.0Y-96.02
X68.0Y-18.0
X68.0Y-21.02
X68.0Y-43.0
X68.0Y-46.02
X68.0Y-68.0
X68.0Y-71.02
X68.0Y-93.0
X68.0Y-96.02
X70.0Y-18.0
X70.0Y-21.02
X70.0Y-43.0
X70.0Y-46.02
X70.0Y-68.0
X70.0Y-71.02
X70.0Y-93.0
X70.0Y-96.02
X72.0Y-18.0
X72.0Y-21.02
X72.0Y-43.0
X72.0Y-46.02
X72.0Y-68.0
X72.0Y-71.02
X72.0Y-93.0
X72.0Y-96.02
X74.0Y-18.0
X74.0Y-21.02
X74.0Y-43.0
X74.0Y-46.02
X74.0Y-68.0
X74.0Y-71.02
X74.0Y-93.0
X74.0Y-96.02
X76.0Y-18.0
X76.0Y-21.02
X76.0Y-43.0
X76.0Y-46.02
X76.0Y-68.0
X76.0Y-71.02
X76.0Y-93.0
X76.0Y-96.02
X78.0Y-18.0
X78.0Y-21.02
X78.0Y-43.0
X78.0Y-46.02
X78.0Y-68.0
X78.0Y-71.02
X78.0Y-93.0
X78.0Y-96.02
X80.0Y-18.0
X80.0Y-21.02
X80.0Y-43.0
X80.0Y-46.02
X80.0Y-68.0
X80.0Y-71.02
X80.0Y-93.0
X80.0Y-96.02
X82.0Y-18.0
X82.0Y-21.02
X82.0Y-43.0
X82.0Y-46.02
X82.0Y-68.0
X82.0Y-71.02
X82.0Y-93.0
X82.0Y-96.02
X84.0Y-18.0
X84.0Y-21.02
X84.0Y-43.0
X84.0Y-46.02
X84.0Y-68.0
X84.0Y-71.02
X84.0Y-93.0
X84.0Y-96.02
X86.0Y-18.0
X86.0Y-21.02
X86.0Y-43.0
X86.0Y-46.02
X86.0Y-68.0
X86.0Y-71.02
X86.0Y-93.0
X86.0Y-96.02
X88.0Y-18.0
X88.0Y-21.02
X88.0Y-43.0
X88.0Y-46.02
X88.0Y-68.0
X88.0Y-71.02
X88.0Y-93.0
X88.0Y-96.02
X90.0Y-18.0
X90.0Y-21.02
X90.0Y-43.0
X90.0Y-46.02
X90.0Y-68.0
X90.0Y-71.02
X90.0Y-93.0
X90.0Y-96.02
X92.0Y-18.0
X92.0Y-21.02
X92.0Y-43.0
X92.0Y-46.02
X92.0Y-68.0
X92.0Y-71.02
X92.0Y-93.0
X92.0Y-96.02
X94.0Y-18.0
X94.0Y-21.02
X94.0Y-43.0
X94.0Y-46.02
X94.0Y-68.0
X94.0Y-71.02
X94.0Y-93.0
X94.0Y-96.02
X96.0Y-18.0
X96.0Y-21.02
X96.0Y-43.0
X96.0Y-46.02
X96.0Y-68.0
X96.0Y-71.02
X96.0Y-93.0
X96.0Y-96.02
X98.0Y-18.0
X98.0Y-21.02
X98.0Y-43.0
X98.0Y-46.02
X98.0Y-68.0
X98.0Y-71.02
X98.0Y-93.0
X98.0Y-96.02
X100.0Y-18.0
X100.0Y-21.02
X100.0Y-43.0
X100.0Y-46.02
X100.0Y-68.0
X100.0Y-71.02
X100.0Y-93.0
X100.0Y-96.02
X102.0Y-18.0
X102.0Y-21.02
X102.0Y-43.0
X102.0Y-46.02
X102.0Y-68.0
X102.0Y-71.02
X102.0Y-93.0
X102.0Y-96.02
X104.0Y-18.0
X104.0Y-21.02
X104.0Y-43.0
X104.0Y-46.02
X104.0Y-68.0
X104.0Y-71.02
X104.0Y-93.0
X104.0Y-96.02
X106.0Y-18.0
X106.0Y-21.02
X106.0Y-43.0
X106.0Y-46.02
X106.0Y-68.0
X106.0Y-71.02
X106.0Y-93.0
X106.0Y-96.02
X108.0Y-18.0
X108.0Y-21.02
X108.0Y-43.0
X108.0Y-46.02
X108.0Y-68.0
X108.0Y-71.02
X108.0Y-93.0
X108.0Y-96.02
X110.0Y-18.0
X110.0Y-21.02
X110.0Y-43.0
X110.0Y-46.02
X110.0Y-68.0
X110.0Y-71.02
X110.0Y-93.0
X110.0Y-96.02
X112.0Y-18.0
X112.0Y-21.02
X112.0Y-43.0
X112.0Y-46.02
X112.0Y-68.0
X112.0Y-71.02
X112.0Y-93.0
X112.0Y-96.02
X114.0Y-18.0
X114.0Y-21.02
X114.0Y-43.0
X114.0Y-46.02
X114.0Y-68.0
X114.0Y-71.02
X114.0Y-93.0
X114.0Y-96.02
X116.0Y-18.0
X116.0Y-21.02
X116.0Y-43.0
X116.0Y-46.02
X116.0Y-68.0
X116.0Y-71.02
X116.0Y-93.0
X116.0Y-96.02
X118.0Y-18.0
X118.0Y-21.02
X118.0Y-43.0
X118.0Y-46.02
X118.0Y-68.0
X118.0Y-71.02
X118.0Y-93.0
X118.0Y-96.02
T4
X56.3Y-19.51
X56.3Y-44.51
X56.3Y-69.51
X56.3Y-94.51
X121.7Y-19.51
X121.7Y-44.51
X121.7Y-69.51
X121.7Y-94.51
T5
X150.13Y-23.907
X150.13Y-26.447
X150.13Y-28.987
X150.13Y-31.527
X150.13Y-34.067
X150.13Y-36.608
X150.13Y-39.148
X150.13Y-41.688
X150.13Y-44.227
X150.13Y-46.767
X150.13Y-49.307
X150.13Y-51.847
X150.13Y-54.387
X150.13Y-56.927
X150.13Y-59.467
X150.13Y-62.008
X150.13Y-64.547
X150.13Y-67.087
X150.13Y-69.627
X150.13Y-72.167
X150.13Y-74.707
X150.13Y-77.248
X150.13Y-79.787
X150.13Y-82.328
X150.13Y-84.867
X152.67Y-23.907
X152.67Y-26.447
X152.67Y-28.987
X152.67Y-31.527
X152.67Y-34.067
X152.67Y-36.608
X152.67Y-39.148
X152.67Y-41.688
X152.67Y-44.227
X152.67Y-46.767
X152.67Y-49.307
X152.67Y-51.847
X152.67Y-54.387
X152.67Y-56.927
X152.67Y-59.467
X152.67Y-62.008
X152.67Y-64.547
X152.67Y-67.087
X152.67Y-69.627
X152.67Y-72.167
X152.67Y-74.707
X152.67Y-77.248
X152.67Y-79.787
X152.67Y-82.328
X152.67Y-84.867
T0
M30
