%TF.GenerationSoftware,KiCad,Pcbnew,(6.0.4)*%
%TF.CreationDate,2022-06-06T18:54:09-04:00*%
%TF.ProjectId,32-STEPPER-DRIVER-BOARD,33322d53-5445-4505-9045-522d44524956,rev?*%
%TF.SameCoordinates,Original*%
%TF.FileFunction,Soldermask,Top*%
%TF.FilePolarity,Negative*%
%FSLAX46Y46*%
G04 Gerber Fmt 4.6, Leading zero omitted, Abs format (unit mm)*
G04 Created by KiCad (PCBNEW (6.0.4)) date 2022-06-06 18:54:09*
%MOMM*%
%LPD*%
G01*
G04 APERTURE LIST*
G04 Aperture macros list*
%AMRoundRect*
0 Rectangle with rounded corners*
0 $1 Rounding radius*
0 $2 $3 $4 $5 $6 $7 $8 $9 X,Y pos of 4 corners*
0 Add a 4 corners polygon primitive as box body*
4,1,4,$2,$3,$4,$5,$6,$7,$8,$9,$2,$3,0*
0 Add four circle primitives for the rounded corners*
1,1,$1+$1,$2,$3*
1,1,$1+$1,$4,$5*
1,1,$1+$1,$6,$7*
1,1,$1+$1,$8,$9*
0 Add four rect primitives between the rounded corners*
20,1,$1+$1,$2,$3,$4,$5,0*
20,1,$1+$1,$4,$5,$6,$7,0*
20,1,$1+$1,$6,$7,$8,$9,0*
20,1,$1+$1,$8,$9,$2,$3,0*%
%AMFreePoly0*
4,1,22,0.500000,-0.750000,0.000000,-0.750000,0.000000,-0.745033,-0.079941,-0.743568,-0.215256,-0.701293,-0.333266,-0.622738,-0.424486,-0.514219,-0.481581,-0.384460,-0.499164,-0.250000,-0.500000,-0.250000,-0.500000,0.250000,-0.499164,0.250000,-0.499963,0.256109,-0.478152,0.396186,-0.417904,0.524511,-0.324060,0.630769,-0.204165,0.706417,-0.067858,0.745374,0.000000,0.744959,0.000000,0.750000,
0.500000,0.750000,0.500000,-0.750000,0.500000,-0.750000,$1*%
%AMFreePoly1*
4,1,20,0.000000,0.744959,0.073905,0.744508,0.209726,0.703889,0.328688,0.626782,0.421226,0.519385,0.479903,0.390333,0.500000,0.250000,0.500000,-0.250000,0.499851,-0.262216,0.476331,-0.402017,0.414519,-0.529596,0.319384,-0.634700,0.198574,-0.708877,0.061801,-0.746166,0.000000,-0.745033,0.000000,-0.750000,-0.500000,-0.750000,-0.500000,0.750000,0.000000,0.750000,0.000000,0.744959,
0.000000,0.744959,$1*%
G04 Aperture macros list end*
%ADD10RoundRect,0.218750X0.256250X-0.218750X0.256250X0.218750X-0.256250X0.218750X-0.256250X-0.218750X0*%
%ADD11RoundRect,0.200000X-0.275000X0.200000X-0.275000X-0.200000X0.275000X-0.200000X0.275000X0.200000X0*%
%ADD12R,3.500000X1.250000*%
%ADD13C,1.308000*%
%ADD14FreePoly0,90.000000*%
%ADD15FreePoly1,90.000000*%
%ADD16C,1.450000*%
%ADD17C,1.430000*%
%ADD18C,1.508000*%
%ADD19R,1.390000X1.390000*%
%ADD20C,1.390000*%
G04 APERTURE END LIST*
D10*
%TO.C,D77*%
X74300000Y-55875000D03*
X74300000Y-54300000D03*
%TD*%
D11*
%TO.C,R146*%
X117800000Y-107652500D03*
X117800000Y-109302500D03*
%TD*%
%TO.C,R189*%
X107300000Y-107652500D03*
X107300000Y-109302500D03*
%TD*%
%TO.C,R18*%
X78800000Y-32712500D03*
X78800000Y-34362500D03*
%TD*%
%TO.C,R60*%
X93800000Y-57862500D03*
X93800000Y-59512500D03*
%TD*%
D10*
%TO.C,D153*%
X99800000Y-105715000D03*
X99800000Y-104140000D03*
%TD*%
D11*
%TO.C,R39*%
X98300000Y-32675000D03*
X98300000Y-34325000D03*
%TD*%
D10*
%TO.C,D31*%
X80300000Y-30787500D03*
X80300000Y-29212500D03*
%TD*%
D12*
%TO.C,J6*%
X145650000Y-104000000D03*
X145650000Y-102000000D03*
X145650000Y-100000000D03*
X145650000Y-98000000D03*
X145650000Y-96000000D03*
X145650000Y-94000000D03*
D13*
X150400000Y-108550000D03*
X152400000Y-108550000D03*
X150400000Y-89450000D03*
X152400000Y-89450000D03*
%TD*%
D11*
%TO.C,R93*%
X113300000Y-57862500D03*
X113300000Y-59512500D03*
%TD*%
D10*
%TO.C,D183*%
X92300000Y-105715000D03*
X92300000Y-104140000D03*
%TD*%
D14*
%TO.C,JP2*%
X59944000Y-84343000D03*
D15*
X59944000Y-83043000D03*
%TD*%
D11*
%TO.C,R76*%
X71300000Y-57862500D03*
X71300000Y-59512500D03*
%TD*%
%TO.C,R90*%
X107300000Y-57862500D03*
X107300000Y-59512500D03*
%TD*%
D10*
%TO.C,D150*%
X108800000Y-105715000D03*
X108800000Y-104140000D03*
%TD*%
D11*
%TO.C,R79*%
X80300000Y-57862500D03*
X80300000Y-59512500D03*
%TD*%
%TO.C,R7*%
X105800000Y-32675000D03*
X105800000Y-34325000D03*
%TD*%
D10*
%TO.C,D79*%
X80300000Y-55875000D03*
X80300000Y-54300000D03*
%TD*%
D11*
%TO.C,R55*%
X105800000Y-57862500D03*
X105800000Y-59512500D03*
%TD*%
%TO.C,R66*%
X78800000Y-57862500D03*
X78800000Y-59512500D03*
%TD*%
%TO.C,R181*%
X86300000Y-107652500D03*
X86300000Y-109302500D03*
%TD*%
D10*
%TO.C,D83*%
X89300000Y-55875000D03*
X89300000Y-54300000D03*
%TD*%
%TO.C,D30*%
X77300000Y-30787500D03*
X77300000Y-29212500D03*
%TD*%
%TO.C,D175*%
X71300000Y-105715000D03*
X71300000Y-104140000D03*
%TD*%
D16*
%TO.C,J2*%
X58250000Y-44510000D03*
X119750000Y-45510000D03*
D17*
X60000000Y-46020000D03*
X60000000Y-43000000D03*
X62000000Y-46020000D03*
X62000000Y-43000000D03*
X64000000Y-46020000D03*
X64000000Y-43000000D03*
X66000000Y-46020000D03*
X66000000Y-43000000D03*
X68000000Y-46020000D03*
X68000000Y-43000000D03*
X70000000Y-46020000D03*
X70000000Y-43000000D03*
X72000000Y-46020000D03*
X72000000Y-43000000D03*
X74000000Y-46020000D03*
X74000000Y-43000000D03*
X76000000Y-46020000D03*
X76000000Y-43000000D03*
X78000000Y-46020000D03*
X78000000Y-43000000D03*
X80000000Y-46020000D03*
X80000000Y-43000000D03*
X82000000Y-46020000D03*
X82000000Y-43000000D03*
X84000000Y-46020000D03*
X84000000Y-43000000D03*
X86000000Y-46020000D03*
X86000000Y-43000000D03*
X88000000Y-46020000D03*
X88000000Y-43000000D03*
X90000000Y-46020000D03*
X90000000Y-43000000D03*
X92000000Y-46020000D03*
X92000000Y-43000000D03*
X94000000Y-46020000D03*
X94000000Y-43000000D03*
X96000000Y-46020000D03*
X96000000Y-43000000D03*
X98000000Y-46020000D03*
X98000000Y-43000000D03*
X100000000Y-46020000D03*
X100000000Y-43000000D03*
X102000000Y-46020000D03*
X102000000Y-43000000D03*
X104000000Y-46020000D03*
X104000000Y-43000000D03*
X106000000Y-46020000D03*
X106000000Y-43000000D03*
X108000000Y-46020000D03*
X108000000Y-43000000D03*
X110000000Y-46020000D03*
X110000000Y-43000000D03*
X112000000Y-46020000D03*
X112000000Y-43000000D03*
X114000000Y-46020000D03*
X114000000Y-43000000D03*
X116000000Y-46020000D03*
X116000000Y-43000000D03*
X118000000Y-46020000D03*
X118000000Y-43000000D03*
D18*
X56300000Y-44510000D03*
X121700000Y-44510000D03*
%TD*%
D11*
%TO.C,R13*%
X90800000Y-32712500D03*
X90800000Y-34362500D03*
%TD*%
%TO.C,R28*%
X71300000Y-32712500D03*
X71300000Y-34362500D03*
%TD*%
D10*
%TO.C,D18*%
X78800000Y-30787500D03*
X78800000Y-29212500D03*
%TD*%
%TO.C,D189*%
X107300000Y-105715000D03*
X107300000Y-104140000D03*
%TD*%
D11*
%TO.C,R144*%
X122300000Y-82633500D03*
X122300000Y-84283500D03*
%TD*%
%TO.C,R129*%
X83300000Y-82633500D03*
X83300000Y-84283500D03*
%TD*%
%TO.C,R131*%
X89281000Y-82633500D03*
X89281000Y-84283500D03*
%TD*%
%TO.C,R183*%
X92300000Y-107652500D03*
X92300000Y-109302500D03*
%TD*%
D10*
%TO.C,D110*%
X87800000Y-80696000D03*
X87800000Y-79121000D03*
%TD*%
%TO.C,D182*%
X89300000Y-105715000D03*
X89300000Y-104140000D03*
%TD*%
D11*
%TO.C,R75*%
X68300000Y-57862500D03*
X68300000Y-59512500D03*
%TD*%
%TO.C,R145*%
X120800000Y-107652500D03*
X120800000Y-109302500D03*
%TD*%
D10*
%TO.C,D51*%
X114800000Y-55875000D03*
X114800000Y-54300000D03*
%TD*%
D11*
%TO.C,R70*%
X66800000Y-57862500D03*
X66800000Y-59512500D03*
%TD*%
D10*
%TO.C,D56*%
X102800000Y-55875000D03*
X102800000Y-54300000D03*
%TD*%
%TO.C,D43*%
X110300000Y-30787500D03*
X110300000Y-29212500D03*
%TD*%
%TO.C,D21*%
X69800000Y-30787500D03*
X69800000Y-29212500D03*
%TD*%
%TO.C,D145*%
X120800000Y-105715000D03*
X120800000Y-104140000D03*
%TD*%
D11*
%TO.C,R158*%
X87800000Y-107652500D03*
X87800000Y-109302500D03*
%TD*%
D10*
%TO.C,D171*%
X119300000Y-105715000D03*
X119300000Y-104140000D03*
%TD*%
%TO.C,D109*%
X90800000Y-80696000D03*
X90800000Y-79121000D03*
%TD*%
%TO.C,D147*%
X114800000Y-105715000D03*
X114800000Y-104140000D03*
%TD*%
D11*
%TO.C,R141*%
X113300000Y-82633500D03*
X113300000Y-84283500D03*
%TD*%
D10*
%TO.C,D8*%
X102800000Y-30787500D03*
X102800000Y-29212500D03*
%TD*%
%TO.C,D106*%
X96800000Y-80696000D03*
X96800000Y-79121000D03*
%TD*%
%TO.C,D33*%
X83300000Y-30787500D03*
X83300000Y-29212500D03*
%TD*%
D11*
%TO.C,R40*%
X101300000Y-32675000D03*
X101300000Y-34325000D03*
%TD*%
%TO.C,R31*%
X80300000Y-32712500D03*
X80300000Y-34362500D03*
%TD*%
%TO.C,R63*%
X84800000Y-57862500D03*
X84800000Y-59512500D03*
%TD*%
D10*
%TO.C,D34*%
X86300000Y-30787500D03*
X86300000Y-29212500D03*
%TD*%
D11*
%TO.C,R116*%
X72800000Y-82633500D03*
X72800000Y-84283500D03*
%TD*%
D10*
%TO.C,D105*%
X99800000Y-80696000D03*
X99800000Y-79121000D03*
%TD*%
D11*
%TO.C,R143*%
X119300000Y-82633500D03*
X119300000Y-84283500D03*
%TD*%
%TO.C,R124*%
X71300000Y-82633500D03*
X71300000Y-84283500D03*
%TD*%
%TO.C,R57*%
X99800000Y-57862500D03*
X99800000Y-59512500D03*
%TD*%
D10*
%TO.C,D146*%
X117800000Y-105715000D03*
X117800000Y-104140000D03*
%TD*%
%TO.C,D25*%
X65300000Y-30787500D03*
X65300000Y-29212500D03*
%TD*%
%TO.C,D169*%
X65300000Y-105715000D03*
X65300000Y-104140000D03*
%TD*%
%TO.C,D58*%
X96800000Y-55875000D03*
X96800000Y-54300000D03*
%TD*%
D11*
%TO.C,R138*%
X107300000Y-82633500D03*
X107300000Y-84283500D03*
%TD*%
%TO.C,R47*%
X119300000Y-32675000D03*
X119300000Y-34325000D03*
%TD*%
%TO.C,R174*%
X68300000Y-107652500D03*
X68300000Y-109302500D03*
%TD*%
%TO.C,R2*%
X117800000Y-32675000D03*
X117800000Y-34325000D03*
%TD*%
D10*
%TO.C,D117*%
X69800000Y-80696000D03*
X69800000Y-79121000D03*
%TD*%
%TO.C,D139*%
X110300000Y-80696000D03*
X110300000Y-79121000D03*
%TD*%
D11*
%TO.C,R154*%
X96774000Y-107652500D03*
X96774000Y-109302500D03*
%TD*%
%TO.C,R36*%
X92300000Y-32712500D03*
X92300000Y-34362500D03*
%TD*%
D10*
%TO.C,D2*%
X117800000Y-30787500D03*
X117800000Y-29212500D03*
%TD*%
D11*
%TO.C,R9*%
X99800000Y-32675000D03*
X99800000Y-34325000D03*
%TD*%
D10*
%TO.C,D131*%
X89300000Y-80696000D03*
X89300000Y-79121000D03*
%TD*%
D11*
%TO.C,R132*%
X92300000Y-82633500D03*
X92300000Y-84283500D03*
%TD*%
D10*
%TO.C,D15*%
X84800000Y-30787500D03*
X84800000Y-29212500D03*
%TD*%
%TO.C,D28*%
X71300000Y-30787500D03*
X71300000Y-29212500D03*
%TD*%
%TO.C,D81*%
X83300000Y-55875000D03*
X83300000Y-54300000D03*
%TD*%
%TO.C,D14*%
X87800000Y-30787500D03*
X87800000Y-29212500D03*
%TD*%
D11*
%TO.C,R50*%
X117800000Y-57862500D03*
X117800000Y-59512500D03*
%TD*%
%TO.C,R4*%
X111800000Y-32675000D03*
X111800000Y-34325000D03*
%TD*%
D10*
%TO.C,D57*%
X99800000Y-55875000D03*
X99800000Y-54300000D03*
%TD*%
D11*
%TO.C,R83*%
X89300000Y-57862500D03*
X89300000Y-59512500D03*
%TD*%
%TO.C,R135*%
X98300000Y-82633500D03*
X98300000Y-84283500D03*
%TD*%
D10*
%TO.C,D157*%
X90800000Y-105715000D03*
X90800000Y-104140000D03*
%TD*%
D11*
%TO.C,R109*%
X90800000Y-82633500D03*
X90800000Y-84283500D03*
%TD*%
%TO.C,R111*%
X84800000Y-82633500D03*
X84800000Y-84283500D03*
%TD*%
%TO.C,R45*%
X113300000Y-32675000D03*
X113300000Y-34325000D03*
%TD*%
%TO.C,R142*%
X116300000Y-82633500D03*
X116300000Y-84283500D03*
%TD*%
D10*
%TO.C,D3*%
X114800000Y-30787500D03*
X114800000Y-29212500D03*
%TD*%
%TO.C,D96*%
X122300000Y-55875000D03*
X122300000Y-54300000D03*
%TD*%
D16*
%TO.C,J1*%
X58250000Y-19510000D03*
X119750000Y-20510000D03*
D17*
X60000000Y-21020000D03*
X60000000Y-18000000D03*
X62000000Y-21020000D03*
X62000000Y-18000000D03*
X64000000Y-21020000D03*
X64000000Y-18000000D03*
X66000000Y-21020000D03*
X66000000Y-18000000D03*
X68000000Y-21020000D03*
X68000000Y-18000000D03*
X70000000Y-21020000D03*
X70000000Y-18000000D03*
X72000000Y-21020000D03*
X72000000Y-18000000D03*
X74000000Y-21020000D03*
X74000000Y-18000000D03*
X76000000Y-21020000D03*
X76000000Y-18000000D03*
X78000000Y-21020000D03*
X78000000Y-18000000D03*
X80000000Y-21020000D03*
X80000000Y-18000000D03*
X82000000Y-21020000D03*
X82000000Y-18000000D03*
X84000000Y-21020000D03*
X84000000Y-18000000D03*
X86000000Y-21020000D03*
X86000000Y-18000000D03*
X88000000Y-21020000D03*
X88000000Y-18000000D03*
X90000000Y-21020000D03*
X90000000Y-18000000D03*
X92000000Y-21020000D03*
X92000000Y-18000000D03*
X94000000Y-21020000D03*
X94000000Y-18000000D03*
X96000000Y-21020000D03*
X96000000Y-18000000D03*
X98000000Y-21020000D03*
X98000000Y-18000000D03*
X100000000Y-21020000D03*
X100000000Y-18000000D03*
X102000000Y-21020000D03*
X102000000Y-18000000D03*
X104000000Y-21020000D03*
X104000000Y-18000000D03*
X106000000Y-21020000D03*
X106000000Y-18000000D03*
X108000000Y-21020000D03*
X108000000Y-18000000D03*
X110000000Y-21020000D03*
X110000000Y-18000000D03*
X112000000Y-21020000D03*
X112000000Y-18000000D03*
X114000000Y-21020000D03*
X114000000Y-18000000D03*
X116000000Y-21020000D03*
X116000000Y-18000000D03*
X118000000Y-21020000D03*
X118000000Y-18000000D03*
D18*
X56300000Y-19510000D03*
X121700000Y-19510000D03*
%TD*%
D11*
%TO.C,R34*%
X86300000Y-32712500D03*
X86300000Y-34362500D03*
%TD*%
D10*
%TO.C,D88*%
X101300000Y-55875000D03*
X101300000Y-54300000D03*
%TD*%
D11*
%TO.C,R171*%
X119300000Y-107652500D03*
X119300000Y-109302500D03*
%TD*%
%TO.C,R157*%
X90800000Y-107652500D03*
X90800000Y-109302500D03*
%TD*%
D10*
%TO.C,D19*%
X75800000Y-30787500D03*
X75800000Y-29212500D03*
%TD*%
D11*
%TO.C,R24*%
X63800000Y-32712500D03*
X63800000Y-34362500D03*
%TD*%
D10*
%TO.C,D158*%
X87800000Y-105715000D03*
X87800000Y-104140000D03*
%TD*%
D11*
%TO.C,R21*%
X69800000Y-32712500D03*
X69800000Y-34362500D03*
%TD*%
%TO.C,R49*%
X120800000Y-57862500D03*
X120800000Y-59512500D03*
%TD*%
%TO.C,R46*%
X116300000Y-32675000D03*
X116300000Y-34325000D03*
%TD*%
%TO.C,R82*%
X86300000Y-57862500D03*
X86300000Y-59512500D03*
%TD*%
%TO.C,R91*%
X110300000Y-57862500D03*
X110300000Y-59512500D03*
%TD*%
D10*
%TO.C,D156*%
X93800000Y-105715000D03*
X93800000Y-104140000D03*
%TD*%
%TO.C,D111*%
X84800000Y-80696000D03*
X84800000Y-79121000D03*
%TD*%
%TO.C,D143*%
X119300000Y-80746000D03*
X119300000Y-79171000D03*
%TD*%
%TO.C,D172*%
X122300000Y-105715000D03*
X122300000Y-104140000D03*
%TD*%
%TO.C,D159*%
X84800000Y-105715000D03*
X84800000Y-104140000D03*
%TD*%
%TO.C,D39*%
X98300000Y-30787500D03*
X98300000Y-29212500D03*
%TD*%
%TO.C,D181*%
X86300000Y-105715000D03*
X86300000Y-104140000D03*
%TD*%
%TO.C,D141*%
X113300000Y-80746000D03*
X113300000Y-79171000D03*
%TD*%
%TO.C,D67*%
X75800000Y-55875000D03*
X75800000Y-54300000D03*
%TD*%
%TO.C,D166*%
X66800000Y-105715000D03*
X66800000Y-104140000D03*
%TD*%
D11*
%TO.C,R22*%
X66800000Y-32712500D03*
X66800000Y-34362500D03*
%TD*%
D10*
%TO.C,D164*%
X72800000Y-105715000D03*
X72800000Y-104140000D03*
%TD*%
%TO.C,D178*%
X80300000Y-105715000D03*
X80300000Y-104140000D03*
%TD*%
%TO.C,D35*%
X89300000Y-30787500D03*
X89300000Y-29212500D03*
%TD*%
%TO.C,D60*%
X93800000Y-55875000D03*
X93800000Y-54300000D03*
%TD*%
D11*
%TO.C,R190*%
X110300000Y-107652500D03*
X110300000Y-109302500D03*
%TD*%
D10*
%TO.C,D84*%
X92300000Y-55875000D03*
X92300000Y-54300000D03*
%TD*%
D11*
%TO.C,R120*%
X63800000Y-82633500D03*
X63800000Y-84283500D03*
%TD*%
%TO.C,R3*%
X114800000Y-32675000D03*
X114800000Y-34325000D03*
%TD*%
D10*
%TO.C,D85*%
X95300000Y-55875000D03*
X95300000Y-54300000D03*
%TD*%
%TO.C,D61*%
X90800000Y-55875000D03*
X90800000Y-54300000D03*
%TD*%
D11*
%TO.C,R156*%
X93800000Y-107652500D03*
X93800000Y-109302500D03*
%TD*%
D10*
%TO.C,D192*%
X113300000Y-105715000D03*
X113300000Y-104140000D03*
%TD*%
%TO.C,D47*%
X119300000Y-30787500D03*
X119300000Y-29212500D03*
%TD*%
%TO.C,D118*%
X66800000Y-80696000D03*
X66800000Y-79121000D03*
%TD*%
%TO.C,D82*%
X86300000Y-55875000D03*
X86300000Y-54300000D03*
%TD*%
D11*
%TO.C,R27*%
X68300000Y-32712500D03*
X68300000Y-34362500D03*
%TD*%
%TO.C,R164*%
X72800000Y-107652500D03*
X72800000Y-109302500D03*
%TD*%
D10*
%TO.C,D123*%
X68300000Y-80696000D03*
X68300000Y-79121000D03*
%TD*%
D11*
%TO.C,R139*%
X110300000Y-82633500D03*
X110300000Y-84283500D03*
%TD*%
D16*
%TO.C,J3*%
X119750000Y-70510000D03*
X58250000Y-69510000D03*
D17*
X60000000Y-71020000D03*
X60000000Y-68000000D03*
X62000000Y-71020000D03*
X62000000Y-68000000D03*
X64000000Y-71020000D03*
X64000000Y-68000000D03*
X66000000Y-71020000D03*
X66000000Y-68000000D03*
X68000000Y-71020000D03*
X68000000Y-68000000D03*
X70000000Y-71020000D03*
X70000000Y-68000000D03*
X72000000Y-71020000D03*
X72000000Y-68000000D03*
X74000000Y-71020000D03*
X74000000Y-68000000D03*
X76000000Y-71020000D03*
X76000000Y-68000000D03*
X78000000Y-71020000D03*
X78000000Y-68000000D03*
X80000000Y-71020000D03*
X80000000Y-68000000D03*
X82000000Y-71020000D03*
X82000000Y-68000000D03*
X84000000Y-71020000D03*
X84000000Y-68000000D03*
X86000000Y-71020000D03*
X86000000Y-68000000D03*
X88000000Y-71020000D03*
X88000000Y-68000000D03*
X90000000Y-71020000D03*
X90000000Y-68000000D03*
X92000000Y-71020000D03*
X92000000Y-68000000D03*
X94000000Y-71020000D03*
X94000000Y-68000000D03*
X96000000Y-71020000D03*
X96000000Y-68000000D03*
X98000000Y-71020000D03*
X98000000Y-68000000D03*
X100000000Y-71020000D03*
X100000000Y-68000000D03*
X102000000Y-71020000D03*
X102000000Y-68000000D03*
X104000000Y-71020000D03*
X104000000Y-68000000D03*
X106000000Y-71020000D03*
X106000000Y-68000000D03*
X108000000Y-71020000D03*
X108000000Y-68000000D03*
X110000000Y-71020000D03*
X110000000Y-68000000D03*
X112000000Y-71020000D03*
X112000000Y-68000000D03*
X114000000Y-71020000D03*
X114000000Y-68000000D03*
X116000000Y-71020000D03*
X116000000Y-68000000D03*
X118000000Y-71020000D03*
X118000000Y-68000000D03*
D18*
X56300000Y-69510000D03*
X121700000Y-69510000D03*
%TD*%
D11*
%TO.C,R58*%
X96800000Y-57862500D03*
X96800000Y-59512500D03*
%TD*%
%TO.C,R106*%
X96800000Y-82633500D03*
X96800000Y-84283500D03*
%TD*%
%TO.C,R121*%
X65300000Y-82633500D03*
X65300000Y-84283500D03*
%TD*%
%TO.C,R54*%
X108800000Y-57862500D03*
X108800000Y-59512500D03*
%TD*%
D16*
%TO.C,J4*%
X58250000Y-94510000D03*
X119750000Y-95510000D03*
D17*
X60000000Y-96020000D03*
X60000000Y-93000000D03*
X62000000Y-96020000D03*
X62000000Y-93000000D03*
X64000000Y-96020000D03*
X64000000Y-93000000D03*
X66000000Y-96020000D03*
X66000000Y-93000000D03*
X68000000Y-96020000D03*
X68000000Y-93000000D03*
X70000000Y-96020000D03*
X70000000Y-93000000D03*
X72000000Y-96020000D03*
X72000000Y-93000000D03*
X74000000Y-96020000D03*
X74000000Y-93000000D03*
X76000000Y-96020000D03*
X76000000Y-93000000D03*
X78000000Y-96020000D03*
X78000000Y-93000000D03*
X80000000Y-96020000D03*
X80000000Y-93000000D03*
X82000000Y-96020000D03*
X82000000Y-93000000D03*
X84000000Y-96020000D03*
X84000000Y-93000000D03*
X86000000Y-96020000D03*
X86000000Y-93000000D03*
X88000000Y-96020000D03*
X88000000Y-93000000D03*
X90000000Y-96020000D03*
X90000000Y-93000000D03*
X92000000Y-96020000D03*
X92000000Y-93000000D03*
X94000000Y-96020000D03*
X94000000Y-93000000D03*
X96000000Y-96020000D03*
X96000000Y-93000000D03*
X98000000Y-96020000D03*
X98000000Y-93000000D03*
X100000000Y-96020000D03*
X100000000Y-93000000D03*
X102000000Y-96020000D03*
X102000000Y-93000000D03*
X104000000Y-96020000D03*
X104000000Y-93000000D03*
X106000000Y-96020000D03*
X106000000Y-93000000D03*
X108000000Y-96020000D03*
X108000000Y-93000000D03*
X110000000Y-96020000D03*
X110000000Y-93000000D03*
X112000000Y-96020000D03*
X112000000Y-93000000D03*
X114000000Y-96020000D03*
X114000000Y-93000000D03*
X116000000Y-96020000D03*
X116000000Y-93000000D03*
X118000000Y-96020000D03*
X118000000Y-93000000D03*
D18*
X56300000Y-94510000D03*
X121700000Y-94510000D03*
%TD*%
D11*
%TO.C,R20*%
X72800000Y-32712500D03*
X72800000Y-34362500D03*
%TD*%
%TO.C,R166*%
X66800000Y-107652500D03*
X66800000Y-109302500D03*
%TD*%
%TO.C,R108*%
X93800000Y-82633500D03*
X93800000Y-84283500D03*
%TD*%
D10*
%TO.C,D54*%
X108800000Y-55875000D03*
X108800000Y-54300000D03*
%TD*%
D11*
%TO.C,R64*%
X81800000Y-57862500D03*
X81800000Y-59512500D03*
%TD*%
%TO.C,R29*%
X74300000Y-32712500D03*
X74300000Y-34362500D03*
%TD*%
D10*
%TO.C,D46*%
X116300000Y-30787500D03*
X116300000Y-29212500D03*
%TD*%
D11*
%TO.C,R37*%
X95300000Y-32675000D03*
X95300000Y-34325000D03*
%TD*%
D10*
%TO.C,D115*%
X75800000Y-80696000D03*
X75800000Y-79121000D03*
%TD*%
D11*
%TO.C,R69*%
X69800000Y-57862500D03*
X69800000Y-59512500D03*
%TD*%
%TO.C,R15*%
X84800000Y-32712500D03*
X84800000Y-34362500D03*
%TD*%
D10*
%TO.C,D136*%
X101300000Y-80696000D03*
X101300000Y-79121000D03*
%TD*%
%TO.C,D124*%
X71300000Y-80696000D03*
X71300000Y-79121000D03*
%TD*%
%TO.C,D10*%
X96800000Y-30787500D03*
X96800000Y-29212500D03*
%TD*%
%TO.C,D1*%
X120800000Y-30787500D03*
X120800000Y-29212500D03*
%TD*%
%TO.C,D9*%
X99800000Y-30787500D03*
X99800000Y-29212500D03*
%TD*%
D11*
%TO.C,R30*%
X77300000Y-32712500D03*
X77300000Y-34362500D03*
%TD*%
D10*
%TO.C,D162*%
X78800000Y-105715000D03*
X78800000Y-104140000D03*
%TD*%
%TO.C,D142*%
X116300000Y-80746000D03*
X116300000Y-79171000D03*
%TD*%
%TO.C,D138*%
X107300000Y-80696000D03*
X107300000Y-79121000D03*
%TD*%
%TO.C,D89*%
X104300000Y-55875000D03*
X104300000Y-54300000D03*
%TD*%
%TO.C,D125*%
X74300000Y-80696000D03*
X74300000Y-79121000D03*
%TD*%
%TO.C,D52*%
X111800000Y-55875000D03*
X111800000Y-54300000D03*
%TD*%
D11*
%TO.C,R94*%
X116300000Y-57862500D03*
X116300000Y-59512500D03*
%TD*%
D10*
%TO.C,D64*%
X81800000Y-55875000D03*
X81800000Y-54300000D03*
%TD*%
%TO.C,D41*%
X104300000Y-30787500D03*
X104300000Y-29212500D03*
%TD*%
D11*
%TO.C,R112*%
X81800000Y-82633500D03*
X81800000Y-84283500D03*
%TD*%
%TO.C,R6*%
X108800000Y-32675000D03*
X108800000Y-34325000D03*
%TD*%
%TO.C,R97*%
X120800000Y-82633500D03*
X120800000Y-84283500D03*
%TD*%
%TO.C,R51*%
X114800000Y-57862500D03*
X114800000Y-59512500D03*
%TD*%
D10*
%TO.C,D144*%
X122300000Y-80746000D03*
X122300000Y-79171000D03*
%TD*%
D11*
%TO.C,R133*%
X95300000Y-82633500D03*
X95300000Y-84283500D03*
%TD*%
%TO.C,R186*%
X98298000Y-107652500D03*
X98298000Y-109302500D03*
%TD*%
%TO.C,R172*%
X122300000Y-107652500D03*
X122300000Y-109302500D03*
%TD*%
D10*
%TO.C,D151*%
X105800000Y-105715000D03*
X105800000Y-104140000D03*
%TD*%
D11*
%TO.C,R137*%
X104300000Y-82633500D03*
X104300000Y-84283500D03*
%TD*%
D10*
%TO.C,D66*%
X78800000Y-55875000D03*
X78800000Y-54300000D03*
%TD*%
D11*
%TO.C,R14*%
X87800000Y-32712500D03*
X87800000Y-34362500D03*
%TD*%
%TO.C,R117*%
X69800000Y-82633500D03*
X69800000Y-84283500D03*
%TD*%
%TO.C,R96*%
X122300000Y-57862500D03*
X122300000Y-59512500D03*
%TD*%
D10*
%TO.C,D132*%
X92300000Y-80696000D03*
X92300000Y-79121000D03*
%TD*%
D11*
%TO.C,R73*%
X65300000Y-57862500D03*
X65300000Y-59512500D03*
%TD*%
D10*
%TO.C,D29*%
X74300000Y-30787500D03*
X74300000Y-29212500D03*
%TD*%
D19*
%TO.C,J5*%
X152670000Y-23907500D03*
D20*
X150130000Y-23907500D03*
X152670000Y-26447500D03*
X150130000Y-26447500D03*
X152670000Y-28987500D03*
X150130000Y-28987500D03*
X152670000Y-31527500D03*
X150130000Y-31527500D03*
X152670000Y-34067500D03*
X150130000Y-34067500D03*
X152670000Y-36607500D03*
X150130000Y-36607500D03*
X152670000Y-39147500D03*
X150130000Y-39147500D03*
X152670000Y-41687500D03*
X150130000Y-41687500D03*
X152670000Y-44227500D03*
X150130000Y-44227500D03*
X152670000Y-46767500D03*
X150130000Y-46767500D03*
X152670000Y-49307500D03*
X150130000Y-49307500D03*
X152670000Y-51847500D03*
X150130000Y-51847500D03*
X152670000Y-54387500D03*
X150130000Y-54387500D03*
X152670000Y-56927500D03*
X150130000Y-56927500D03*
X152670000Y-59467500D03*
X150130000Y-59467500D03*
X152670000Y-62007500D03*
X150130000Y-62007500D03*
X152670000Y-64547500D03*
X150130000Y-64547500D03*
X152670000Y-67087500D03*
X150130000Y-67087500D03*
X152670000Y-69627500D03*
X150130000Y-69627500D03*
X152670000Y-72167500D03*
X150130000Y-72167500D03*
X152670000Y-74707500D03*
X150130000Y-74707500D03*
X152670000Y-77247500D03*
X150130000Y-77247500D03*
X152670000Y-79787500D03*
X150130000Y-79787500D03*
X152670000Y-82327500D03*
X150130000Y-82327500D03*
X152670000Y-84867500D03*
X150130000Y-84867500D03*
%TD*%
D11*
%TO.C,R10*%
X96800000Y-32675000D03*
X96800000Y-34325000D03*
%TD*%
%TO.C,R35*%
X89300000Y-32712500D03*
X89300000Y-34362500D03*
%TD*%
D10*
%TO.C,D177*%
X77300000Y-105715000D03*
X77300000Y-104140000D03*
%TD*%
%TO.C,D6*%
X108800000Y-30787500D03*
X108800000Y-29212500D03*
%TD*%
%TO.C,D75*%
X68300000Y-55875000D03*
X68300000Y-54300000D03*
%TD*%
D11*
%TO.C,R177*%
X77300000Y-107652500D03*
X77300000Y-109302500D03*
%TD*%
D10*
%TO.C,D16*%
X81800000Y-30787500D03*
X81800000Y-29212500D03*
%TD*%
D11*
%TO.C,R148*%
X111800000Y-107652500D03*
X111800000Y-109302500D03*
%TD*%
%TO.C,R153*%
X99800000Y-107652500D03*
X99800000Y-109302500D03*
%TD*%
D10*
%TO.C,D63*%
X84800000Y-55875000D03*
X84800000Y-54300000D03*
%TD*%
%TO.C,D165*%
X69800000Y-105715000D03*
X69800000Y-104140000D03*
%TD*%
%TO.C,D76*%
X71300000Y-55875000D03*
X71300000Y-54300000D03*
%TD*%
D11*
%TO.C,R99*%
X114800000Y-82633500D03*
X114800000Y-84283500D03*
%TD*%
%TO.C,R102*%
X108800000Y-82633500D03*
X108800000Y-84283500D03*
%TD*%
D10*
%TO.C,D72*%
X63800000Y-55875000D03*
X63800000Y-54300000D03*
%TD*%
%TO.C,D100*%
X111800000Y-80746000D03*
X111800000Y-79171000D03*
%TD*%
D11*
%TO.C,R67*%
X75800000Y-57862500D03*
X75800000Y-59512500D03*
%TD*%
%TO.C,R147*%
X114800000Y-107652500D03*
X114800000Y-109302500D03*
%TD*%
%TO.C,R176*%
X74300000Y-107652500D03*
X74300000Y-109302500D03*
%TD*%
D10*
%TO.C,D7*%
X105800000Y-30787500D03*
X105800000Y-29212500D03*
%TD*%
D11*
%TO.C,R184*%
X95300000Y-107652500D03*
X95300000Y-109302500D03*
%TD*%
D10*
%TO.C,D129*%
X83300000Y-80696000D03*
X83300000Y-79121000D03*
%TD*%
%TO.C,D45*%
X113300000Y-30787500D03*
X113300000Y-29212500D03*
%TD*%
%TO.C,D187*%
X101300000Y-105715000D03*
X101300000Y-104140000D03*
%TD*%
%TO.C,D95*%
X119300000Y-55875000D03*
X119300000Y-54300000D03*
%TD*%
%TO.C,D36*%
X92300000Y-30787500D03*
X92300000Y-29212500D03*
%TD*%
%TO.C,D98*%
X117800000Y-80746000D03*
X117800000Y-79171000D03*
%TD*%
%TO.C,D102*%
X108800000Y-80696000D03*
X108800000Y-79121000D03*
%TD*%
D11*
%TO.C,R163*%
X75800000Y-107652500D03*
X75800000Y-109302500D03*
%TD*%
%TO.C,R118*%
X66800000Y-82633500D03*
X66800000Y-84283500D03*
%TD*%
%TO.C,R61*%
X90800000Y-57862500D03*
X90800000Y-59512500D03*
%TD*%
D10*
%TO.C,D114*%
X78800000Y-80696000D03*
X78800000Y-79121000D03*
%TD*%
D11*
%TO.C,R87*%
X98300000Y-57862500D03*
X98300000Y-59512500D03*
%TD*%
D10*
%TO.C,D112*%
X81800000Y-80696000D03*
X81800000Y-79121000D03*
%TD*%
D11*
%TO.C,R162*%
X78800000Y-107652500D03*
X78800000Y-109302500D03*
%TD*%
D10*
%TO.C,D62*%
X87800000Y-55875000D03*
X87800000Y-54300000D03*
%TD*%
D11*
%TO.C,R1*%
X120800000Y-32675000D03*
X120800000Y-34325000D03*
%TD*%
D10*
%TO.C,D22*%
X66800000Y-30787500D03*
X66800000Y-29212500D03*
%TD*%
%TO.C,D130*%
X86300000Y-80696000D03*
X86300000Y-79121000D03*
%TD*%
%TO.C,D20*%
X72800000Y-30787500D03*
X72800000Y-29212500D03*
%TD*%
%TO.C,D87*%
X98300000Y-55875000D03*
X98300000Y-54300000D03*
%TD*%
D11*
%TO.C,R62*%
X87800000Y-57862500D03*
X87800000Y-59512500D03*
%TD*%
D10*
%TO.C,D108*%
X93800000Y-80696000D03*
X93800000Y-79121000D03*
%TD*%
%TO.C,D68*%
X72800000Y-55875000D03*
X72800000Y-54300000D03*
%TD*%
%TO.C,D137*%
X104300000Y-80696000D03*
X104300000Y-79121000D03*
%TD*%
%TO.C,D186*%
X98300000Y-105715000D03*
X98300000Y-104140000D03*
%TD*%
D11*
%TO.C,R84*%
X92300000Y-57862500D03*
X92300000Y-59512500D03*
%TD*%
D10*
%TO.C,D4*%
X111800000Y-30787500D03*
X111800000Y-29212500D03*
%TD*%
D11*
%TO.C,R81*%
X83300000Y-57862500D03*
X83300000Y-59512500D03*
%TD*%
%TO.C,R19*%
X75800000Y-32712500D03*
X75800000Y-34362500D03*
%TD*%
%TO.C,R12*%
X93800000Y-32675000D03*
X93800000Y-34325000D03*
%TD*%
%TO.C,R88*%
X101300000Y-57862500D03*
X101300000Y-59512500D03*
%TD*%
%TO.C,R72*%
X63800000Y-57862500D03*
X63800000Y-59512500D03*
%TD*%
%TO.C,R168*%
X63800000Y-107652500D03*
X63800000Y-109302500D03*
%TD*%
D10*
%TO.C,D73*%
X65300000Y-55875000D03*
X65300000Y-54300000D03*
%TD*%
%TO.C,D97*%
X120800000Y-80746000D03*
X120800000Y-79171000D03*
%TD*%
D11*
%TO.C,R182*%
X89300000Y-107652500D03*
X89300000Y-109302500D03*
%TD*%
D10*
%TO.C,D176*%
X74300000Y-105715000D03*
X74300000Y-104140000D03*
%TD*%
D11*
%TO.C,R42*%
X107300000Y-32675000D03*
X107300000Y-34325000D03*
%TD*%
D10*
%TO.C,D168*%
X63800000Y-105715000D03*
X63800000Y-104140000D03*
%TD*%
%TO.C,D152*%
X102800000Y-105715000D03*
X102800000Y-104140000D03*
%TD*%
%TO.C,D12*%
X93800000Y-30787500D03*
X93800000Y-29212500D03*
%TD*%
D11*
%TO.C,R48*%
X122300000Y-32712500D03*
X122300000Y-34362500D03*
%TD*%
%TO.C,R98*%
X117800000Y-82633500D03*
X117800000Y-84283500D03*
%TD*%
%TO.C,R187*%
X101300000Y-107652500D03*
X101300000Y-109302500D03*
%TD*%
%TO.C,R130*%
X86300000Y-82633500D03*
X86300000Y-84283500D03*
%TD*%
D10*
%TO.C,D126*%
X77300000Y-80696000D03*
X77300000Y-79121000D03*
%TD*%
D11*
%TO.C,R126*%
X77300000Y-82633500D03*
X77300000Y-84283500D03*
%TD*%
%TO.C,R160*%
X81800000Y-107652500D03*
X81800000Y-109302500D03*
%TD*%
%TO.C,R125*%
X74300000Y-82633500D03*
X74300000Y-84283500D03*
%TD*%
%TO.C,R77*%
X74300000Y-57862500D03*
X74300000Y-59512500D03*
%TD*%
%TO.C,R33*%
X83300000Y-32712500D03*
X83300000Y-34362500D03*
%TD*%
%TO.C,R8*%
X102800000Y-32675000D03*
X102800000Y-34325000D03*
%TD*%
D10*
%TO.C,D70*%
X66800000Y-55875000D03*
X66800000Y-54300000D03*
%TD*%
D11*
%TO.C,R103*%
X105800000Y-82633500D03*
X105800000Y-84283500D03*
%TD*%
%TO.C,R16*%
X81800000Y-32712500D03*
X81800000Y-34362500D03*
%TD*%
D10*
%TO.C,D42*%
X107300000Y-30787500D03*
X107300000Y-29212500D03*
%TD*%
%TO.C,D120*%
X63800000Y-80696000D03*
X63800000Y-79121000D03*
%TD*%
D11*
%TO.C,R188*%
X104300000Y-107652500D03*
X104300000Y-109302500D03*
%TD*%
%TO.C,R105*%
X99800000Y-82633500D03*
X99800000Y-84283500D03*
%TD*%
%TO.C,R127*%
X80300000Y-82633500D03*
X80300000Y-84283500D03*
%TD*%
D10*
%TO.C,D13*%
X90800000Y-30787500D03*
X90800000Y-29212500D03*
%TD*%
D11*
%TO.C,R150*%
X108800000Y-107652500D03*
X108800000Y-109302500D03*
%TD*%
%TO.C,R114*%
X78800000Y-82633500D03*
X78800000Y-84283500D03*
%TD*%
%TO.C,R152*%
X102800000Y-107652500D03*
X102800000Y-109302500D03*
%TD*%
D14*
%TO.C,JP1*%
X59944000Y-34305000D03*
D15*
X59944000Y-33005000D03*
%TD*%
D10*
%TO.C,D49*%
X120800000Y-55875000D03*
X120800000Y-54300000D03*
%TD*%
D11*
%TO.C,R169*%
X65300000Y-107652500D03*
X65300000Y-109302500D03*
%TD*%
D10*
%TO.C,D99*%
X114800000Y-80746000D03*
X114800000Y-79171000D03*
%TD*%
%TO.C,D69*%
X69800000Y-55875000D03*
X69800000Y-54300000D03*
%TD*%
D11*
%TO.C,R100*%
X111800000Y-82633500D03*
X111800000Y-84283500D03*
%TD*%
D10*
%TO.C,D133*%
X95300000Y-80696000D03*
X95300000Y-79121000D03*
%TD*%
%TO.C,D148*%
X111800000Y-105715000D03*
X111800000Y-104140000D03*
%TD*%
%TO.C,D135*%
X98300000Y-80696000D03*
X98300000Y-79121000D03*
%TD*%
D11*
%TO.C,R115*%
X75800000Y-82633500D03*
X75800000Y-84283500D03*
%TD*%
D10*
%TO.C,D163*%
X75800000Y-105715000D03*
X75800000Y-104140000D03*
%TD*%
D11*
%TO.C,R52*%
X111800000Y-57862500D03*
X111800000Y-59512500D03*
%TD*%
%TO.C,R170*%
X116300000Y-107652500D03*
X116300000Y-109302500D03*
%TD*%
%TO.C,R95*%
X119300000Y-57862500D03*
X119300000Y-59512500D03*
%TD*%
%TO.C,R165*%
X69773800Y-107652500D03*
X69773800Y-109302500D03*
%TD*%
%TO.C,R85*%
X95300000Y-57862500D03*
X95300000Y-59512500D03*
%TD*%
D10*
%TO.C,D78*%
X77300000Y-55875000D03*
X77300000Y-54300000D03*
%TD*%
D11*
%TO.C,R104*%
X102800000Y-82633500D03*
X102800000Y-84283500D03*
%TD*%
%TO.C,R41*%
X104300000Y-32675000D03*
X104300000Y-34325000D03*
%TD*%
%TO.C,R43*%
X110300000Y-32675000D03*
X110300000Y-34325000D03*
%TD*%
D10*
%TO.C,D154*%
X96800000Y-105715000D03*
X96800000Y-104140000D03*
%TD*%
%TO.C,D48*%
X122300000Y-30787500D03*
X122300000Y-29212500D03*
%TD*%
%TO.C,D121*%
X65300000Y-80696000D03*
X65300000Y-79121000D03*
%TD*%
D11*
%TO.C,R89*%
X104300000Y-57862500D03*
X104300000Y-59512500D03*
%TD*%
D10*
%TO.C,D188*%
X104300000Y-105715000D03*
X104300000Y-104140000D03*
%TD*%
%TO.C,D24*%
X63800000Y-30787500D03*
X63800000Y-29212500D03*
%TD*%
D11*
%TO.C,R136*%
X101300000Y-82633500D03*
X101300000Y-84283500D03*
%TD*%
D10*
%TO.C,D55*%
X105800000Y-55875000D03*
X105800000Y-54300000D03*
%TD*%
%TO.C,D103*%
X105800000Y-80696000D03*
X105800000Y-79121000D03*
%TD*%
%TO.C,D127*%
X80300000Y-80696000D03*
X80300000Y-79121000D03*
%TD*%
%TO.C,D116*%
X72800000Y-80696000D03*
X72800000Y-79121000D03*
%TD*%
D11*
%TO.C,R151*%
X105800000Y-107652500D03*
X105800000Y-109302500D03*
%TD*%
D10*
%TO.C,D180*%
X83300000Y-105715000D03*
X83300000Y-104140000D03*
%TD*%
%TO.C,D190*%
X110300000Y-105715000D03*
X110300000Y-104140000D03*
%TD*%
%TO.C,D40*%
X101300000Y-30787500D03*
X101300000Y-29212500D03*
%TD*%
D11*
%TO.C,R178*%
X80300000Y-107652500D03*
X80300000Y-109302500D03*
%TD*%
%TO.C,R68*%
X72800000Y-57862500D03*
X72800000Y-59512500D03*
%TD*%
D10*
%TO.C,D104*%
X102800000Y-80696000D03*
X102800000Y-79121000D03*
%TD*%
%TO.C,D37*%
X95300000Y-30787500D03*
X95300000Y-29212500D03*
%TD*%
%TO.C,D50*%
X117800000Y-55875000D03*
X117800000Y-54300000D03*
%TD*%
D11*
%TO.C,R110*%
X87800000Y-82633500D03*
X87800000Y-84283500D03*
%TD*%
%TO.C,R175*%
X71297800Y-107652500D03*
X71297800Y-109302500D03*
%TD*%
D10*
%TO.C,D94*%
X116300000Y-55875000D03*
X116300000Y-54300000D03*
%TD*%
%TO.C,D27*%
X68300000Y-30787500D03*
X68300000Y-29212500D03*
%TD*%
D11*
%TO.C,R25*%
X65300000Y-32712500D03*
X65300000Y-34362500D03*
%TD*%
%TO.C,R180*%
X83300000Y-107652500D03*
X83300000Y-109302500D03*
%TD*%
%TO.C,R123*%
X68300000Y-82633500D03*
X68300000Y-84283500D03*
%TD*%
D10*
%TO.C,D170*%
X116300000Y-105715000D03*
X116300000Y-104140000D03*
%TD*%
D11*
%TO.C,R78*%
X77300000Y-57862500D03*
X77300000Y-59512500D03*
%TD*%
D10*
%TO.C,D184*%
X95300000Y-105715000D03*
X95300000Y-104140000D03*
%TD*%
%TO.C,D90*%
X107300000Y-55875000D03*
X107300000Y-54300000D03*
%TD*%
%TO.C,D91*%
X110300000Y-55875000D03*
X110300000Y-54300000D03*
%TD*%
D11*
%TO.C,R56*%
X102800000Y-57862500D03*
X102800000Y-59512500D03*
%TD*%
%TO.C,R159*%
X84800000Y-107652500D03*
X84800000Y-109302500D03*
%TD*%
%TO.C,R192*%
X113300000Y-107652500D03*
X113300000Y-109302500D03*
%TD*%
D10*
%TO.C,D160*%
X81800000Y-105715000D03*
X81800000Y-104140000D03*
%TD*%
%TO.C,D93*%
X113300000Y-55875000D03*
X113300000Y-54300000D03*
%TD*%
%TO.C,D174*%
X68300000Y-105715000D03*
X68300000Y-104140000D03*
%TD*%
M02*
