%TF.GenerationSoftware,KiCad,Pcbnew,(6.0.5)*%
%TF.CreationDate,2022-07-10T16:44:07-04:00*%
%TF.ProjectId,64-STEPPER-CONTROLLER,36342d53-5445-4505-9045-522d434f4e54,rev?*%
%TF.SameCoordinates,Original*%
%TF.FileFunction,Legend,Top*%
%TF.FilePolarity,Positive*%
%FSLAX46Y46*%
G04 Gerber Fmt 4.6, Leading zero omitted, Abs format (unit mm)*
G04 Created by KiCad (PCBNEW (6.0.5)) date 2022-07-10 16:44:07*
%MOMM*%
%LPD*%
G01*
G04 APERTURE LIST*
%ADD10C,0.150000*%
%ADD11C,0.120000*%
%ADD12C,0.200000*%
G04 APERTURE END LIST*
D10*
X167292380Y-131997380D02*
X167101904Y-131997380D01*
X167006666Y-132045000D01*
X166959047Y-132092619D01*
X166863809Y-132235476D01*
X166816190Y-132425952D01*
X166816190Y-132806904D01*
X166863809Y-132902142D01*
X166911428Y-132949761D01*
X167006666Y-132997380D01*
X167197142Y-132997380D01*
X167292380Y-132949761D01*
X167340000Y-132902142D01*
X167387619Y-132806904D01*
X167387619Y-132568809D01*
X167340000Y-132473571D01*
X167292380Y-132425952D01*
X167197142Y-132378333D01*
X167006666Y-132378333D01*
X166911428Y-132425952D01*
X166863809Y-132473571D01*
X166816190Y-132568809D01*
X168244761Y-132330714D02*
X168244761Y-132997380D01*
X168006666Y-131949761D02*
X167768571Y-132664047D01*
X168387619Y-132664047D01*
X168768571Y-132616428D02*
X169530476Y-132616428D01*
X169959047Y-132949761D02*
X170101904Y-132997380D01*
X170340000Y-132997380D01*
X170435238Y-132949761D01*
X170482857Y-132902142D01*
X170530476Y-132806904D01*
X170530476Y-132711666D01*
X170482857Y-132616428D01*
X170435238Y-132568809D01*
X170340000Y-132521190D01*
X170149523Y-132473571D01*
X170054285Y-132425952D01*
X170006666Y-132378333D01*
X169959047Y-132283095D01*
X169959047Y-132187857D01*
X170006666Y-132092619D01*
X170054285Y-132045000D01*
X170149523Y-131997380D01*
X170387619Y-131997380D01*
X170530476Y-132045000D01*
X170816190Y-131997380D02*
X171387619Y-131997380D01*
X171101904Y-132997380D02*
X171101904Y-131997380D01*
X171720952Y-132473571D02*
X172054285Y-132473571D01*
X172197142Y-132997380D02*
X171720952Y-132997380D01*
X171720952Y-131997380D01*
X172197142Y-131997380D01*
X172625714Y-132997380D02*
X172625714Y-131997380D01*
X173006666Y-131997380D01*
X173101904Y-132045000D01*
X173149523Y-132092619D01*
X173197142Y-132187857D01*
X173197142Y-132330714D01*
X173149523Y-132425952D01*
X173101904Y-132473571D01*
X173006666Y-132521190D01*
X172625714Y-132521190D01*
X173625714Y-132997380D02*
X173625714Y-131997380D01*
X174006666Y-131997380D01*
X174101904Y-132045000D01*
X174149523Y-132092619D01*
X174197142Y-132187857D01*
X174197142Y-132330714D01*
X174149523Y-132425952D01*
X174101904Y-132473571D01*
X174006666Y-132521190D01*
X173625714Y-132521190D01*
X174625714Y-132473571D02*
X174959047Y-132473571D01*
X175101904Y-132997380D02*
X174625714Y-132997380D01*
X174625714Y-131997380D01*
X175101904Y-131997380D01*
X176101904Y-132997380D02*
X175768571Y-132521190D01*
X175530476Y-132997380D02*
X175530476Y-131997380D01*
X175911428Y-131997380D01*
X176006666Y-132045000D01*
X176054285Y-132092619D01*
X176101904Y-132187857D01*
X176101904Y-132330714D01*
X176054285Y-132425952D01*
X176006666Y-132473571D01*
X175911428Y-132521190D01*
X175530476Y-132521190D01*
X176530476Y-132616428D02*
X177292380Y-132616428D01*
X177768571Y-132997380D02*
X177768571Y-131997380D01*
X178006666Y-131997380D01*
X178149523Y-132045000D01*
X178244761Y-132140238D01*
X178292380Y-132235476D01*
X178340000Y-132425952D01*
X178340000Y-132568809D01*
X178292380Y-132759285D01*
X178244761Y-132854523D01*
X178149523Y-132949761D01*
X178006666Y-132997380D01*
X177768571Y-132997380D01*
X179340000Y-132997380D02*
X179006666Y-132521190D01*
X178768571Y-132997380D02*
X178768571Y-131997380D01*
X179149523Y-131997380D01*
X179244761Y-132045000D01*
X179292380Y-132092619D01*
X179340000Y-132187857D01*
X179340000Y-132330714D01*
X179292380Y-132425952D01*
X179244761Y-132473571D01*
X179149523Y-132521190D01*
X178768571Y-132521190D01*
X179768571Y-132997380D02*
X179768571Y-131997380D01*
X180101904Y-131997380D02*
X180435238Y-132997380D01*
X180768571Y-131997380D01*
X181101904Y-132473571D02*
X181435238Y-132473571D01*
X181578095Y-132997380D02*
X181101904Y-132997380D01*
X181101904Y-131997380D01*
X181578095Y-131997380D01*
X182578095Y-132997380D02*
X182244761Y-132521190D01*
X182006666Y-132997380D02*
X182006666Y-131997380D01*
X182387619Y-131997380D01*
X182482857Y-132045000D01*
X182530476Y-132092619D01*
X182578095Y-132187857D01*
X182578095Y-132330714D01*
X182530476Y-132425952D01*
X182482857Y-132473571D01*
X182387619Y-132521190D01*
X182006666Y-132521190D01*
X183006666Y-132616428D02*
X183768571Y-132616428D01*
X184578095Y-132473571D02*
X184720952Y-132521190D01*
X184768571Y-132568809D01*
X184816190Y-132664047D01*
X184816190Y-132806904D01*
X184768571Y-132902142D01*
X184720952Y-132949761D01*
X184625714Y-132997380D01*
X184244761Y-132997380D01*
X184244761Y-131997380D01*
X184578095Y-131997380D01*
X184673333Y-132045000D01*
X184720952Y-132092619D01*
X184768571Y-132187857D01*
X184768571Y-132283095D01*
X184720952Y-132378333D01*
X184673333Y-132425952D01*
X184578095Y-132473571D01*
X184244761Y-132473571D01*
X185435238Y-131997380D02*
X185625714Y-131997380D01*
X185720952Y-132045000D01*
X185816190Y-132140238D01*
X185863809Y-132330714D01*
X185863809Y-132664047D01*
X185816190Y-132854523D01*
X185720952Y-132949761D01*
X185625714Y-132997380D01*
X185435238Y-132997380D01*
X185340000Y-132949761D01*
X185244761Y-132854523D01*
X185197142Y-132664047D01*
X185197142Y-132330714D01*
X185244761Y-132140238D01*
X185340000Y-132045000D01*
X185435238Y-131997380D01*
X186244761Y-132711666D02*
X186720952Y-132711666D01*
X186149523Y-132997380D02*
X186482857Y-131997380D01*
X186816190Y-132997380D01*
X187720952Y-132997380D02*
X187387619Y-132521190D01*
X187149523Y-132997380D02*
X187149523Y-131997380D01*
X187530476Y-131997380D01*
X187625714Y-132045000D01*
X187673333Y-132092619D01*
X187720952Y-132187857D01*
X187720952Y-132330714D01*
X187673333Y-132425952D01*
X187625714Y-132473571D01*
X187530476Y-132521190D01*
X187149523Y-132521190D01*
X188149523Y-132997380D02*
X188149523Y-131997380D01*
X188387619Y-131997380D01*
X188530476Y-132045000D01*
X188625714Y-132140238D01*
X188673333Y-132235476D01*
X188720952Y-132425952D01*
X188720952Y-132568809D01*
X188673333Y-132759285D01*
X188625714Y-132854523D01*
X188530476Y-132949761D01*
X188387619Y-132997380D01*
X188149523Y-132997380D01*
X190482857Y-132997380D02*
X190149523Y-132521190D01*
X189911428Y-132997380D02*
X189911428Y-131997380D01*
X190292380Y-131997380D01*
X190387619Y-132045000D01*
X190435238Y-132092619D01*
X190482857Y-132187857D01*
X190482857Y-132330714D01*
X190435238Y-132425952D01*
X190387619Y-132473571D01*
X190292380Y-132521190D01*
X189911428Y-132521190D01*
X190911428Y-132473571D02*
X191244761Y-132473571D01*
X191387619Y-132997380D02*
X190911428Y-132997380D01*
X190911428Y-131997380D01*
X191387619Y-131997380D01*
X191673333Y-131997380D02*
X192006666Y-132997380D01*
X192340000Y-131997380D01*
X193387619Y-132711666D02*
X193863809Y-132711666D01*
X193292380Y-132997380D02*
X193625714Y-131997380D01*
X193959047Y-132997380D01*
X173792380Y-134083571D02*
X174125714Y-134083571D01*
X174268571Y-134607380D02*
X173792380Y-134607380D01*
X173792380Y-133607380D01*
X174268571Y-133607380D01*
X175173333Y-134607380D02*
X174697142Y-134607380D01*
X174697142Y-133607380D01*
X175982857Y-134607380D02*
X175506666Y-134607380D01*
X175506666Y-133607380D01*
X176316190Y-134607380D02*
X176316190Y-133607380D01*
X176982857Y-133607380D02*
X177173333Y-133607380D01*
X177268571Y-133655000D01*
X177363809Y-133750238D01*
X177411428Y-133940714D01*
X177411428Y-134274047D01*
X177363809Y-134464523D01*
X177268571Y-134559761D01*
X177173333Y-134607380D01*
X176982857Y-134607380D01*
X176887619Y-134559761D01*
X176792380Y-134464523D01*
X176744761Y-134274047D01*
X176744761Y-133940714D01*
X176792380Y-133750238D01*
X176887619Y-133655000D01*
X176982857Y-133607380D01*
X177697142Y-133607380D02*
X178268571Y-133607380D01*
X177982857Y-134607380D02*
X177982857Y-133607380D01*
X179363809Y-134083571D02*
X179697142Y-134083571D01*
X179840000Y-134607380D02*
X179363809Y-134607380D01*
X179363809Y-133607380D01*
X179840000Y-133607380D01*
X180268571Y-134607380D02*
X180268571Y-133607380D01*
X181316190Y-134512142D02*
X181268571Y-134559761D01*
X181125714Y-134607380D01*
X181030476Y-134607380D01*
X180887619Y-134559761D01*
X180792380Y-134464523D01*
X180744761Y-134369285D01*
X180697142Y-134178809D01*
X180697142Y-134035952D01*
X180744761Y-133845476D01*
X180792380Y-133750238D01*
X180887619Y-133655000D01*
X181030476Y-133607380D01*
X181125714Y-133607380D01*
X181268571Y-133655000D01*
X181316190Y-133702619D01*
X181744761Y-134607380D02*
X181744761Y-133607380D01*
X182316190Y-134607380D02*
X181887619Y-134035952D01*
X182316190Y-133607380D02*
X181744761Y-134178809D01*
X182744761Y-134607380D02*
X182744761Y-133607380D01*
X182744761Y-134083571D02*
X183316190Y-134083571D01*
X183316190Y-134607380D02*
X183316190Y-133607380D01*
X183982857Y-133607380D02*
X184173333Y-133607380D01*
X184268571Y-133655000D01*
X184363809Y-133750238D01*
X184411428Y-133940714D01*
X184411428Y-134274047D01*
X184363809Y-134464523D01*
X184268571Y-134559761D01*
X184173333Y-134607380D01*
X183982857Y-134607380D01*
X183887619Y-134559761D01*
X183792380Y-134464523D01*
X183744761Y-134274047D01*
X183744761Y-133940714D01*
X183792380Y-133750238D01*
X183887619Y-133655000D01*
X183982857Y-133607380D01*
X185316190Y-134607380D02*
X184840000Y-134607380D01*
X184840000Y-133607380D01*
X185506666Y-133607380D02*
X186078095Y-133607380D01*
X185792380Y-134607380D02*
X185792380Y-133607380D01*
X186316190Y-133607380D02*
X186982857Y-133607380D01*
X186316190Y-134607380D01*
X186982857Y-134607380D01*
%TO.C,U3*%
X162433095Y-79462380D02*
X162433095Y-80271904D01*
X162480714Y-80367142D01*
X162528333Y-80414761D01*
X162623571Y-80462380D01*
X162814047Y-80462380D01*
X162909285Y-80414761D01*
X162956904Y-80367142D01*
X163004523Y-80271904D01*
X163004523Y-79462380D01*
X163385476Y-79462380D02*
X164004523Y-79462380D01*
X163671190Y-79843333D01*
X163814047Y-79843333D01*
X163909285Y-79890952D01*
X163956904Y-79938571D01*
X164004523Y-80033809D01*
X164004523Y-80271904D01*
X163956904Y-80367142D01*
X163909285Y-80414761D01*
X163814047Y-80462380D01*
X163528333Y-80462380D01*
X163433095Y-80414761D01*
X163385476Y-80367142D01*
%TO.C,U4*%
X124333095Y-59777380D02*
X124333095Y-60586904D01*
X124380714Y-60682142D01*
X124428333Y-60729761D01*
X124523571Y-60777380D01*
X124714047Y-60777380D01*
X124809285Y-60729761D01*
X124856904Y-60682142D01*
X124904523Y-60586904D01*
X124904523Y-59777380D01*
X125809285Y-60110714D02*
X125809285Y-60777380D01*
X125571190Y-59729761D02*
X125333095Y-60444047D01*
X125952142Y-60444047D01*
%TO.C,U2*%
X146463095Y-60412380D02*
X146463095Y-61221904D01*
X146510714Y-61317142D01*
X146558333Y-61364761D01*
X146653571Y-61412380D01*
X146844047Y-61412380D01*
X146939285Y-61364761D01*
X146986904Y-61317142D01*
X147034523Y-61221904D01*
X147034523Y-60412380D01*
X147463095Y-60507619D02*
X147510714Y-60460000D01*
X147605952Y-60412380D01*
X147844047Y-60412380D01*
X147939285Y-60460000D01*
X147986904Y-60507619D01*
X148034523Y-60602857D01*
X148034523Y-60698095D01*
X147986904Y-60840952D01*
X147415476Y-61412380D01*
X148034523Y-61412380D01*
%TO.C,J15*%
X197615276Y-131329580D02*
X197615276Y-132043866D01*
X197567657Y-132186723D01*
X197472419Y-132281961D01*
X197329561Y-132329580D01*
X197234323Y-132329580D01*
X198615276Y-132329580D02*
X198043847Y-132329580D01*
X198329561Y-132329580D02*
X198329561Y-131329580D01*
X198234323Y-131472438D01*
X198139085Y-131567676D01*
X198043847Y-131615295D01*
X199520038Y-131329580D02*
X199043847Y-131329580D01*
X198996228Y-131805771D01*
X199043847Y-131758152D01*
X199139085Y-131710533D01*
X199377180Y-131710533D01*
X199472419Y-131758152D01*
X199520038Y-131805771D01*
X199567657Y-131901009D01*
X199567657Y-132139104D01*
X199520038Y-132234342D01*
X199472419Y-132281961D01*
X199377180Y-132329580D01*
X199139085Y-132329580D01*
X199043847Y-132281961D01*
X198996228Y-132234342D01*
%TO.C,J10*%
X151590476Y-113117380D02*
X151590476Y-113831666D01*
X151542857Y-113974523D01*
X151447619Y-114069761D01*
X151304761Y-114117380D01*
X151209523Y-114117380D01*
X152590476Y-114117380D02*
X152019047Y-114117380D01*
X152304761Y-114117380D02*
X152304761Y-113117380D01*
X152209523Y-113260238D01*
X152114285Y-113355476D01*
X152019047Y-113403095D01*
X153209523Y-113117380D02*
X153304761Y-113117380D01*
X153400000Y-113165000D01*
X153447619Y-113212619D01*
X153495238Y-113307857D01*
X153542857Y-113498333D01*
X153542857Y-113736428D01*
X153495238Y-113926904D01*
X153447619Y-114022142D01*
X153400000Y-114069761D01*
X153304761Y-114117380D01*
X153209523Y-114117380D01*
X153114285Y-114069761D01*
X153066666Y-114022142D01*
X153019047Y-113926904D01*
X152971428Y-113736428D01*
X152971428Y-113498333D01*
X153019047Y-113307857D01*
X153066666Y-113212619D01*
X153114285Y-113165000D01*
X153209523Y-113117380D01*
%TO.C,U1*%
X166243095Y-109307380D02*
X166243095Y-110116904D01*
X166290714Y-110212142D01*
X166338333Y-110259761D01*
X166433571Y-110307380D01*
X166624047Y-110307380D01*
X166719285Y-110259761D01*
X166766904Y-110212142D01*
X166814523Y-110116904D01*
X166814523Y-109307380D01*
X167814523Y-110307380D02*
X167243095Y-110307380D01*
X167528809Y-110307380D02*
X167528809Y-109307380D01*
X167433571Y-109450238D01*
X167338333Y-109545476D01*
X167243095Y-109593095D01*
%TO.C,J13*%
X176990476Y-64857380D02*
X176990476Y-65571666D01*
X176942857Y-65714523D01*
X176847619Y-65809761D01*
X176704761Y-65857380D01*
X176609523Y-65857380D01*
X177990476Y-65857380D02*
X177419047Y-65857380D01*
X177704761Y-65857380D02*
X177704761Y-64857380D01*
X177609523Y-65000238D01*
X177514285Y-65095476D01*
X177419047Y-65143095D01*
X178323809Y-64857380D02*
X178942857Y-64857380D01*
X178609523Y-65238333D01*
X178752380Y-65238333D01*
X178847619Y-65285952D01*
X178895238Y-65333571D01*
X178942857Y-65428809D01*
X178942857Y-65666904D01*
X178895238Y-65762142D01*
X178847619Y-65809761D01*
X178752380Y-65857380D01*
X178466666Y-65857380D01*
X178371428Y-65809761D01*
X178323809Y-65762142D01*
%TO.C,J14*%
X94135676Y-31355180D02*
X94135676Y-32069466D01*
X94088057Y-32212323D01*
X93992819Y-32307561D01*
X93849961Y-32355180D01*
X93754723Y-32355180D01*
X95135676Y-32355180D02*
X94564247Y-32355180D01*
X94849961Y-32355180D02*
X94849961Y-31355180D01*
X94754723Y-31498038D01*
X94659485Y-31593276D01*
X94564247Y-31640895D01*
X95992819Y-31688514D02*
X95992819Y-32355180D01*
X95754723Y-31307561D02*
X95516628Y-32021847D01*
X96135676Y-32021847D01*
%TO.C,U3*%
X132715000Y-83820000D02*
X131445000Y-83820000D01*
X193675000Y-88900000D02*
X132715000Y-88900000D01*
X132715000Y-88900000D02*
X132715000Y-71120000D01*
X137795000Y-83820000D02*
X132715000Y-83820000D01*
X137795000Y-83820000D02*
X137795000Y-76200000D01*
X137795000Y-76200000D02*
X132715000Y-76200000D01*
X132715000Y-71120000D02*
X193675000Y-71120000D01*
X131445000Y-76200000D02*
X132715000Y-76200000D01*
X193675000Y-71120000D02*
X193675000Y-88900000D01*
X131445000Y-83820000D02*
X131445000Y-76200000D01*
%TO.C,U4*%
X129540000Y-56515000D02*
X129540000Y-64135000D01*
X99060000Y-51435000D02*
X134620000Y-51435000D01*
X134620000Y-69215000D02*
X99060000Y-69215000D01*
X134620000Y-56515000D02*
X135890000Y-56515000D01*
X135890000Y-64135000D02*
X134620000Y-64135000D01*
X129540000Y-64135000D02*
X134620000Y-64135000D01*
X134620000Y-51435000D02*
X134620000Y-69215000D01*
X135890000Y-56515000D02*
X135890000Y-64135000D01*
X129540000Y-56515000D02*
X134620000Y-56515000D01*
X99060000Y-69215000D02*
X99060000Y-51435000D01*
D11*
%TO.C,U2*%
X136525000Y-56580000D02*
X136525000Y-64200000D01*
X158115000Y-56580000D02*
X158115000Y-64200000D01*
X154305000Y-66740000D02*
X140335000Y-66740000D01*
D12*
%TO.C,J10*%
X144850000Y-107980000D02*
X144975000Y-107980000D01*
X147575000Y-117730000D02*
X138175000Y-117730000D01*
X144975000Y-107980000D02*
X144975000Y-109680000D01*
X140775000Y-107980000D02*
X140900000Y-107980000D01*
X140775000Y-109680000D02*
X140775000Y-107980000D01*
X136075000Y-109680000D02*
X140775000Y-109680000D01*
X144975000Y-109680000D02*
X149675000Y-109680000D01*
X136075000Y-109680000D02*
X136075000Y-112450000D01*
X149675000Y-109680000D02*
X149675000Y-112450000D01*
X139975000Y-108330000D02*
G75*
G03*
X139975000Y-108330000I-100000J0D01*
G01*
D10*
%TO.C,U1*%
X163830000Y-113665000D02*
X163830000Y-106045000D01*
X194310000Y-118745000D02*
X158750000Y-118745000D01*
X158750000Y-100965000D02*
X194310000Y-100965000D01*
X158750000Y-113665000D02*
X157480000Y-113665000D01*
X157480000Y-106045000D02*
X158750000Y-106045000D01*
X163830000Y-106045000D02*
X158750000Y-106045000D01*
X158750000Y-118745000D02*
X158750000Y-100965000D01*
X157480000Y-113665000D02*
X157480000Y-106045000D01*
X163830000Y-113665000D02*
X158750000Y-113665000D01*
X194310000Y-100965000D02*
X194310000Y-118745000D01*
D11*
%TO.C,J13*%
X181610000Y-67250000D02*
X182940000Y-67250000D01*
X180340000Y-67250000D02*
X159960000Y-67250000D01*
X180340000Y-69910000D02*
X159960000Y-69910000D01*
X180340000Y-67250000D02*
X180340000Y-69910000D01*
X159960000Y-67250000D02*
X159960000Y-69910000D01*
X182940000Y-67250000D02*
X182940000Y-68580000D01*
%TD*%
M02*
