M48
; DRILL file {KiCad (6.0.5)} date Sun Jul 10 16:44:03 2022
; FORMAT={-:-/ absolute / inch / decimal}
; #@! TF.CreationDate,2022-07-10T16:44:03-04:00
; #@! TF.GenerationSoftware,Kicad,Pcbnew,(6.0.5)
; #@! TF.FileFunction,Plated,1,2,PTH
FMAT,2
INCH
; #@! TA.AperFunction,Plated,PTH,ViaDrill
T1C0.0118
; #@! TA.AperFunction,Plated,PTH,ComponentDrill
T2C0.0300
; #@! TA.AperFunction,Plated,PTH,ComponentDrill
T3C0.0315
; #@! TA.AperFunction,Plated,PTH,ComponentDrill
T4C0.0394
; #@! TA.AperFunction,Plated,PTH,ComponentDrill
T5C0.0409
; #@! TA.AperFunction,Plated,PTH,ComponentDrill
T6C0.0433
; #@! TA.AperFunction,Plated,PTH,ComponentDrill
T7C0.0866
%
G90
G05
T1
X3.95Y-3.875
X3.95Y-3.975
X4.05Y-3.875
X4.05Y-3.975
X5.2Y-1.975
X5.3Y-1.975
X5.45Y-2.6
X5.95Y-4.275
X5.95Y-4.375
X6.05Y-4.275
X6.05Y-4.375
X6.15Y-4.275
X6.15Y-4.375
X6.7Y-2.6
X6.7Y-2.975
X6.775Y-2.975
X6.825Y-2.6
X7.525Y-2.725
X7.625Y-2.725
T2
X4.647Y-3.7417
X4.647Y-3.9917
X4.747Y-3.7417
X4.747Y-3.9917
X4.847Y-3.7417
X4.847Y-3.9917
X4.9Y-3.46
X5.0Y-3.46
X5.047Y-3.7417
X5.047Y-3.9917
X5.1Y-3.46
X5.147Y-3.7417
X5.147Y-3.9917
X5.247Y-3.7417
X5.247Y-3.9917
X5.447Y-3.7417
X5.45Y-3.9917
X5.547Y-3.7417
X5.55Y-2.5776
X5.55Y-3.9917
X5.647Y-3.7417
X5.65Y-2.5776
X5.65Y-3.9917
X5.75Y-2.5776
X5.847Y-3.7417
X5.847Y-3.9917
X5.85Y-2.5776
X5.947Y-3.7417
X5.947Y-3.9917
X5.95Y-2.5776
X6.047Y-3.7417
X6.047Y-3.9917
X6.05Y-2.5776
T3
X5.3037Y-3.1
X5.3037Y-3.2
X5.4065Y-4.5051
X5.4065Y-4.5839
X5.8435Y-4.5051
X5.8435Y-4.5839
T4
X6.35Y-2.7
X6.45Y-2.7
X6.55Y-2.7
X6.65Y-2.7
X6.75Y-2.7
X6.85Y-2.7
X6.95Y-2.7
X7.05Y-2.7
X7.15Y-2.7
T5
X3.675Y-1.575
X3.675Y-1.675
X3.675Y-1.775
X3.675Y-1.875
X3.675Y-1.975
X3.675Y-2.075
X3.675Y-2.175
X3.675Y-2.275
X3.675Y-2.375
X3.675Y-2.475
X3.675Y-2.575
X3.675Y-2.675
X3.675Y-2.775
X3.675Y-2.875
X3.675Y-2.975
X3.675Y-3.075
X3.675Y-3.175
X3.675Y-3.275
X3.675Y-3.375
X3.675Y-3.475
X3.675Y-3.575
X3.675Y-3.675
X3.675Y-3.775
X3.675Y-3.875
X3.675Y-3.975
X3.775Y-1.575
X3.775Y-1.675
X3.775Y-1.775
X3.775Y-1.875
X3.775Y-1.975
X3.775Y-2.075
X3.775Y-2.175
X3.775Y-2.275
X3.775Y-2.375
X3.775Y-2.475
X3.775Y-2.575
X3.775Y-2.675
X3.775Y-2.775
X3.775Y-2.875
X3.775Y-2.975
X3.775Y-3.075
X3.775Y-3.175
X3.775Y-3.275
X3.775Y-3.375
X3.775Y-3.475
X3.775Y-3.575
X3.775Y-3.675
X3.775Y-3.775
X3.775Y-3.875
X3.775Y-3.975
X7.775Y-2.725
X7.775Y-2.825
X7.775Y-2.925
X7.775Y-3.025
X7.775Y-3.125
X7.775Y-3.225
X7.775Y-3.325
X7.775Y-3.425
X7.775Y-3.525
X7.775Y-3.625
X7.775Y-3.725
X7.775Y-3.825
X7.775Y-3.925
X7.775Y-4.025
X7.775Y-4.125
X7.775Y-4.225
X7.775Y-4.325
X7.775Y-4.425
X7.775Y-4.525
X7.775Y-4.625
X7.775Y-4.725
X7.775Y-4.825
X7.775Y-4.925
X7.775Y-5.025
X7.775Y-5.125
X7.875Y-2.725
X7.875Y-2.825
X7.875Y-2.925
X7.875Y-3.025
X7.875Y-3.125
X7.875Y-3.225
X7.875Y-3.325
X7.875Y-3.425
X7.875Y-3.525
X7.875Y-3.625
X7.875Y-3.725
X7.875Y-3.825
X7.875Y-3.925
X7.875Y-4.025
X7.875Y-4.125
X7.875Y-4.225
X7.875Y-4.325
X7.875Y-4.425
X7.875Y-4.525
X7.875Y-4.625
X7.875Y-4.725
X7.875Y-4.825
X7.875Y-4.925
X7.875Y-5.025
X7.875Y-5.125
T6
X3.95Y-2.075
X3.95Y-2.675
X4.05Y-2.075
X4.05Y-2.675
X4.15Y-2.075
X4.15Y-2.175
X4.15Y-2.275
X4.15Y-2.375
X4.15Y-2.475
X4.15Y-2.575
X4.15Y-2.675
X4.25Y-2.075
X4.25Y-2.175
X4.25Y-2.275
X4.25Y-2.375
X4.25Y-2.475
X4.25Y-2.575
X4.25Y-2.675
X4.35Y-2.075
X4.35Y-2.675
X4.45Y-2.075
X4.45Y-2.675
X4.55Y-2.075
X4.55Y-2.675
X4.65Y-2.075
X4.65Y-2.675
X4.75Y-2.075
X4.75Y-2.675
X4.85Y-2.075
X4.85Y-2.675
X4.95Y-2.075
X4.95Y-2.675
X5.05Y-2.075
X5.05Y-2.675
X5.15Y-2.075
X5.15Y-2.675
X5.25Y-2.075
X5.25Y-2.675
X5.275Y-2.85
X5.275Y-3.45
X5.375Y-2.85
X5.375Y-3.45
X5.475Y-2.85
X5.475Y-3.45
X5.575Y-2.85
X5.575Y-3.45
X5.675Y-2.85
X5.675Y-3.45
X5.775Y-2.85
X5.775Y-3.45
X5.875Y-2.85
X5.875Y-3.45
X5.975Y-2.85
X5.975Y-3.45
X6.075Y-2.85
X6.075Y-3.45
X6.175Y-2.85
X6.175Y-3.45
X6.275Y-2.85
X6.275Y-3.45
X6.3Y-4.025
X6.3Y-4.625
X6.375Y-2.85
X6.375Y-3.45
X6.4Y-4.025
X6.4Y-4.625
X6.475Y-2.85
X6.475Y-3.45
X6.5Y-4.025
X6.5Y-4.625
X6.575Y-2.85
X6.575Y-3.45
X6.6Y-4.025
X6.6Y-4.625
X6.675Y-2.85
X6.675Y-3.45
X6.7Y-4.025
X6.7Y-4.625
X6.775Y-2.85
X6.775Y-3.45
X6.8Y-4.025
X6.8Y-4.625
X6.875Y-2.85
X6.875Y-3.45
X6.9Y-4.025
X6.9Y-4.625
X6.975Y-2.85
X6.975Y-3.45
X7.0Y-4.025
X7.0Y-4.625
X7.075Y-2.85
X7.075Y-3.45
X7.1Y-4.025
X7.1Y-4.625
X7.175Y-2.85
X7.175Y-3.45
X7.2Y-4.025
X7.2Y-4.625
X7.275Y-2.85
X7.275Y-3.45
X7.3Y-4.025
X7.3Y-4.125
X7.3Y-4.225
X7.3Y-4.325
X7.3Y-4.425
X7.3Y-4.525
X7.3Y-4.625
X7.375Y-2.85
X7.375Y-3.45
X7.4Y-4.025
X7.4Y-4.125
X7.4Y-4.225
X7.4Y-4.325
X7.4Y-4.425
X7.4Y-4.525
X7.4Y-4.625
X7.475Y-2.85
X7.475Y-3.45
X7.5Y-4.025
X7.5Y-4.625
X7.575Y-2.85
X7.575Y-3.45
X7.6Y-4.025
X7.6Y-4.625
T7
X3.738Y-1.382
X7.812Y-5.318
T0
M30
