%TF.GenerationSoftware,KiCad,Pcbnew,(6.0.5)*%
%TF.CreationDate,2022-07-10T16:44:07-04:00*%
%TF.ProjectId,64-STEPPER-CONTROLLER,36342d53-5445-4505-9045-522d434f4e54,rev?*%
%TF.SameCoordinates,Original*%
%TF.FileFunction,Soldermask,Top*%
%TF.FilePolarity,Negative*%
%FSLAX46Y46*%
G04 Gerber Fmt 4.6, Leading zero omitted, Abs format (unit mm)*
G04 Created by KiCad (PCBNEW (6.0.5)) date 2022-07-10 16:44:07*
%MOMM*%
%LPD*%
G01*
G04 APERTURE LIST*
%ADD10C,1.524000*%
%ADD11R,1.600000X1.600000*%
%ADD12C,1.600000*%
%ADD13C,1.300000*%
%ADD14C,3.300000*%
%ADD15C,4.400000*%
%ADD16R,1.250000X3.500000*%
%ADD17C,1.308000*%
%ADD18R,1.700000X1.700000*%
%ADD19O,1.700000X1.700000*%
%ADD20R,1.390000X1.390000*%
%ADD21C,1.390000*%
G04 APERTURE END LIST*
D10*
%TO.C,J3*%
X123115000Y-95040000D03*
X120575000Y-95040000D03*
X118035000Y-95040000D03*
%TD*%
D11*
%TO.C,U3*%
X133985000Y-87630000D03*
D12*
X136525000Y-87630000D03*
X139065000Y-87630000D03*
X141605000Y-87630000D03*
X144145000Y-87630000D03*
X146685000Y-87630000D03*
X149225000Y-87630000D03*
X151765000Y-87630000D03*
X154305000Y-87630000D03*
X156845000Y-87630000D03*
X159385000Y-87630000D03*
X161925000Y-87630000D03*
X164465000Y-87630000D03*
X167005000Y-87630000D03*
X169545000Y-87630000D03*
X172085000Y-87630000D03*
X174625000Y-87630000D03*
X177165000Y-87630000D03*
X179705000Y-87630000D03*
X182245000Y-87630000D03*
X184785000Y-87630000D03*
X187325000Y-87630000D03*
X189865000Y-87630000D03*
X192405000Y-87630000D03*
X192405000Y-72390000D03*
X189865000Y-72390000D03*
X187325000Y-72390000D03*
X184785000Y-72390000D03*
X182245000Y-72390000D03*
X179705000Y-72390000D03*
X177165000Y-72390000D03*
X174625000Y-72390000D03*
X172085000Y-72390000D03*
X169545000Y-72390000D03*
X167005000Y-72390000D03*
X164465000Y-72390000D03*
X161925000Y-72390000D03*
X159385000Y-72390000D03*
X156845000Y-72390000D03*
X154305000Y-72390000D03*
X151765000Y-72390000D03*
X149225000Y-72390000D03*
X146685000Y-72390000D03*
X144145000Y-72390000D03*
X141605000Y-72390000D03*
X139065000Y-72390000D03*
X136525000Y-72390000D03*
X133985000Y-72390000D03*
D13*
X134715000Y-78740000D03*
X134715000Y-81280000D03*
%TD*%
D10*
%TO.C,J7*%
X123115000Y-101390000D03*
X120575000Y-101390000D03*
X118035000Y-101390000D03*
%TD*%
%TO.C,J6*%
X153595000Y-95040000D03*
X151055000Y-95040000D03*
X148515000Y-95040000D03*
%TD*%
D12*
%TO.C,U4*%
X133350000Y-52705000D03*
X130810000Y-52705000D03*
X128270000Y-52705000D03*
X125730000Y-52705000D03*
X123190000Y-52705000D03*
X120650000Y-52705000D03*
X118110000Y-52705000D03*
X115570000Y-52705000D03*
X113030000Y-52705000D03*
X110490000Y-52705000D03*
X107950000Y-52705000D03*
X105410000Y-52705000D03*
X102870000Y-52705000D03*
X100330000Y-52705000D03*
X100330000Y-67945000D03*
X102870000Y-67945000D03*
X105410000Y-67945000D03*
X107950000Y-67945000D03*
X110490000Y-67945000D03*
X113030000Y-67945000D03*
X115570000Y-67945000D03*
X118110000Y-67945000D03*
X120650000Y-67945000D03*
X123190000Y-67945000D03*
X125730000Y-67945000D03*
X128270000Y-67945000D03*
X130810000Y-67945000D03*
X133350000Y-67945000D03*
X105410000Y-65405000D03*
X107950000Y-65405000D03*
X105410000Y-62865000D03*
X107950000Y-62865000D03*
X105410000Y-60325000D03*
X107950000Y-60325000D03*
X105410000Y-57785000D03*
X107950000Y-57785000D03*
X105410000Y-55245000D03*
X107950000Y-55245000D03*
%TD*%
D10*
%TO.C,U2*%
X153670000Y-65470000D03*
X151130000Y-65470000D03*
X148590000Y-65470000D03*
X146050000Y-65470000D03*
X143510000Y-65470000D03*
X140970000Y-65470000D03*
D14*
X155575000Y-56580000D03*
X139065000Y-56580000D03*
%TD*%
D15*
%TO.C,J15*%
X198424800Y-135077200D03*
%TD*%
D10*
%TO.C,J11*%
X153595000Y-101390000D03*
X151055000Y-101390000D03*
X148515000Y-101390000D03*
%TD*%
%TO.C,J12*%
X124460000Y-87884000D03*
X127000000Y-87884000D03*
X129540000Y-87884000D03*
%TD*%
D16*
%TO.C,J10*%
X141875000Y-109680000D03*
X143875000Y-109680000D03*
D17*
X137325000Y-114430000D03*
X137325000Y-116430000D03*
X148425000Y-114430000D03*
X148425000Y-116430000D03*
%TD*%
D10*
%TO.C,J8*%
X133275000Y-101390000D03*
X130735000Y-101390000D03*
X128195000Y-101390000D03*
%TD*%
%TO.C,J4*%
X133275000Y-95040000D03*
X130735000Y-95040000D03*
X128195000Y-95040000D03*
%TD*%
%TO.C,J5*%
X143435000Y-95040000D03*
X140895000Y-95040000D03*
X138355000Y-95040000D03*
%TD*%
D12*
%TO.C,U1*%
X160020000Y-117475000D03*
X162560000Y-117475000D03*
X165100000Y-117475000D03*
X167640000Y-117475000D03*
X170180000Y-117475000D03*
X172720000Y-117475000D03*
X175260000Y-117475000D03*
X177800000Y-117475000D03*
X180340000Y-117475000D03*
X182880000Y-117475000D03*
X185420000Y-117475000D03*
X187960000Y-117475000D03*
X190500000Y-117475000D03*
X193040000Y-117475000D03*
X193040000Y-102235000D03*
X190500000Y-102235000D03*
X187960000Y-102235000D03*
X185420000Y-102235000D03*
X182880000Y-102235000D03*
X180340000Y-102235000D03*
X177800000Y-102235000D03*
X175260000Y-102235000D03*
X172720000Y-102235000D03*
X170180000Y-102235000D03*
X167640000Y-102235000D03*
X165100000Y-102235000D03*
X162560000Y-102235000D03*
X160020000Y-102235000D03*
X187960000Y-104775000D03*
X185420000Y-104775000D03*
X187960000Y-107315000D03*
X185420000Y-107315000D03*
X187960000Y-109855000D03*
X185420000Y-109855000D03*
X187960000Y-112395000D03*
X185420000Y-112395000D03*
X187960000Y-114935000D03*
X185420000Y-114935000D03*
%TD*%
D18*
%TO.C,J13*%
X181610000Y-68580000D03*
D19*
X179070000Y-68580000D03*
X176530000Y-68580000D03*
X173990000Y-68580000D03*
X171450000Y-68580000D03*
X168910000Y-68580000D03*
X166370000Y-68580000D03*
X163830000Y-68580000D03*
X161290000Y-68580000D03*
%TD*%
D10*
%TO.C,J9*%
X143510000Y-101390000D03*
X140970000Y-101390000D03*
X138430000Y-101390000D03*
%TD*%
D15*
%TO.C,J14*%
X94945200Y-35102800D03*
%TD*%
D20*
%TO.C,J2*%
X93345000Y-40005000D03*
D21*
X95885000Y-40005000D03*
X93345000Y-42545000D03*
X95885000Y-42545000D03*
X93345000Y-45085000D03*
X95885000Y-45085000D03*
X93345000Y-47625000D03*
X95885000Y-47625000D03*
X93345000Y-50165000D03*
X95885000Y-50165000D03*
X93345000Y-52705000D03*
X95885000Y-52705000D03*
X93345000Y-55245000D03*
X95885000Y-55245000D03*
X93345000Y-57785000D03*
X95885000Y-57785000D03*
X93345000Y-60325000D03*
X95885000Y-60325000D03*
X93345000Y-62865000D03*
X95885000Y-62865000D03*
X93345000Y-65405000D03*
X95885000Y-65405000D03*
X93345000Y-67945000D03*
X95885000Y-67945000D03*
X93345000Y-70485000D03*
X95885000Y-70485000D03*
X93345000Y-73025000D03*
X95885000Y-73025000D03*
X93345000Y-75565000D03*
X95885000Y-75565000D03*
X93345000Y-78105000D03*
X95885000Y-78105000D03*
X93345000Y-80645000D03*
X95885000Y-80645000D03*
X93345000Y-83185000D03*
X95885000Y-83185000D03*
X93345000Y-85725000D03*
X95885000Y-85725000D03*
X93345000Y-88265000D03*
X95885000Y-88265000D03*
X93345000Y-90805000D03*
X95885000Y-90805000D03*
X93345000Y-93345000D03*
X95885000Y-93345000D03*
X93345000Y-95885000D03*
X95885000Y-95885000D03*
X93345000Y-98425000D03*
X95885000Y-98425000D03*
X93345000Y-100965000D03*
X95885000Y-100965000D03*
%TD*%
D20*
%TO.C,J1*%
X200025000Y-130175000D03*
D21*
X197485000Y-130175000D03*
X200025000Y-127635000D03*
X197485000Y-127635000D03*
X200025000Y-125095000D03*
X197485000Y-125095000D03*
X200025000Y-122555000D03*
X197485000Y-122555000D03*
X200025000Y-120015000D03*
X197485000Y-120015000D03*
X200025000Y-117475000D03*
X197485000Y-117475000D03*
X200025000Y-114935000D03*
X197485000Y-114935000D03*
X200025000Y-112395000D03*
X197485000Y-112395000D03*
X200025000Y-109855000D03*
X197485000Y-109855000D03*
X200025000Y-107315000D03*
X197485000Y-107315000D03*
X200025000Y-104775000D03*
X197485000Y-104775000D03*
X200025000Y-102235000D03*
X197485000Y-102235000D03*
X200025000Y-99695000D03*
X197485000Y-99695000D03*
X200025000Y-97155000D03*
X197485000Y-97155000D03*
X200025000Y-94615000D03*
X197485000Y-94615000D03*
X200025000Y-92075000D03*
X197485000Y-92075000D03*
X200025000Y-89535000D03*
X197485000Y-89535000D03*
X200025000Y-86995000D03*
X197485000Y-86995000D03*
X200025000Y-84455000D03*
X197485000Y-84455000D03*
X200025000Y-81915000D03*
X197485000Y-81915000D03*
X200025000Y-79375000D03*
X197485000Y-79375000D03*
X200025000Y-76835000D03*
X197485000Y-76835000D03*
X200025000Y-74295000D03*
X197485000Y-74295000D03*
X200025000Y-71755000D03*
X197485000Y-71755000D03*
X200025000Y-69215000D03*
X197485000Y-69215000D03*
%TD*%
M02*
