<svg version="1.1" xmlns="http://www.w3.org/2000/svg" xmlns:xlink="http://www.w3.org/1999/xlink" stroke-linecap="round" stroke-linejoin="round" stroke-width="0" fill-rule="evenodd" width="68.7018mm" height="81.07mm" viewBox="74006.98 -107410 68701.8 81070" id="c0GBNFVmyoFlga8ekQgG"><g transform="translate(0,-133750) scale(1,-1)" fill="currentColor" stroke="currentColor"><path d="M 140023.78 -41419.571 140023.78 -42038.619 140404.733 -41705.285 140404.733 -41848.142 140452.352 -41943.38 140499.971 -41991 140595.209 -42038.619 140833.304 -42038.619 140928.542 -41991 140976.161 -41943.38 141023.78 -41848.142 141023.78 -41562.428 140976.161 -41467.19 140928.542 -41419.571 M 140119.019 -42419.571 140071.4 -42467.19 140023.78 -42562.428 140023.78 -42800.523 140071.4 -42895.761 140119.019 -42943.38 140214.257 -42991 140309.495 -42991 140452.352 -42943.38 141023.78 -42371.952 141023.78 -42991 M 140642.828 -43419.571 140642.828 -44181.476 M 140976.161 -44610.047 141023.78 -44752.904 141023.78 -44991 140976.161 -45086.238 140928.542 -45133.857 140833.304 -45181.476 140738.066 -45181.476 140642.828 -45133.857 140595.209 -45086.238 140547.59 -44991 140499.971 -44800.523 140452.352 -44705.285 140404.733 -44657.666 140309.495 -44610.047 140214.257 -44610.047 140119.019 -44657.666 140071.4 -44705.285 140023.78 -44800.523 140023.78 -45038.619 140071.4 -45181.476 M 140023.78 -45467.19 140023.78 -46038.619 M 141023.78 -45752.904 140023.78 -45752.904 M 140499.971 -46371.952 140499.971 -46705.285 M 141023.78 -46848.142 141023.78 -46371.952 140023.78 -46371.952 140023.78 -46848.142 M 141023.78 -47276.714 140023.78 -47276.714 140023.78 -47657.666 140071.4 -47752.904 140119.019 -47800.523 140214.257 -47848.142 140357.114 -47848.142 140452.352 -47800.523 140499.971 -47752.904 140547.59 -47657.666 140547.59 -47276.714 M 141023.78 -48276.714 140023.78 -48276.714 140023.78 -48657.666 140071.4 -48752.904 140119.019 -48800.523 140214.257 -48848.142 140357.114 -48848.142 140452.352 -48800.523 140499.971 -48752.904 140547.59 -48657.666 140547.59 -48276.714 M 140499.971 -49276.714 140499.971 -49610.047 M 141023.78 -49752.904 141023.78 -49276.714 140023.78 -49276.714 140023.78 -49752.904 M 141023.78 -50752.904 140547.59 -50419.571 M 141023.78 -50181.476 140023.78 -50181.476 140023.78 -50562.428 140071.4 -50657.666 140119.019 -50705.285 140214.257 -50752.904 140357.114 -50752.904 140452.352 -50705.285 140499.971 -50657.666 140547.59 -50562.428 140547.59 -50181.476 M 140642.828 -51181.476 140642.828 -51943.38 M 141023.78 -52419.571 140023.78 -52419.571 140023.78 -52657.666 140071.4 -52800.523 140166.638 -52895.761 140261.876 -52943.38 140452.352 -52991 140595.209 -52991 140785.685 -52943.38 140880.923 -52895.761 140976.161 -52800.523 141023.78 -52657.666 141023.78 -52419.571 M 141023.78 -53991 140547.59 -53657.666 M 141023.78 -53419.571 140023.78 -53419.571 140023.78 -53800.523 140071.4 -53895.761 140119.019 -53943.38 140214.257 -53991 140357.114 -53991 140452.352 -53943.38 140499.971 -53895.761 140547.59 -53800.523 140547.59 -53419.571 M 141023.78 -54419.571 140023.78 -54419.571 M 140023.78 -54752.904 141023.78 -55086.238 140023.78 -55419.571 M 140499.971 -55752.904 140499.971 -56086.238 M 141023.78 -56229.095 141023.78 -55752.904 140023.78 -55752.904 140023.78 -56229.095 M 141023.78 -57229.095 140547.59 -56895.761 M 141023.78 -56657.666 140023.78 -56657.666 140023.78 -57038.619 140071.4 -57133.857 140119.019 -57181.476 140214.257 -57229.095 140357.114 -57229.095 140452.352 -57181.476 140499.971 -57133.857 140547.59 -57038.619 140547.59 -56657.666 M 140642.828 -57657.666 140642.828 -58419.571 M 140499.971 -59229.095 140547.59 -59371.952 140595.209 -59419.571 140690.447 -59467.19 140833.304 -59467.19 140928.542 -59419.571 140976.161 -59371.952 141023.78 -59276.714 141023.78 -58895.761 140023.78 -58895.761 140023.78 -59229.095 140071.4 -59324.333 140119.019 -59371.952 140214.257 -59419.571 140309.495 -59419.571 140404.733 -59371.952 140452.352 -59324.333 140499.971 -59229.095 140499.971 -58895.761 M 140023.78 -60086.238 140023.78 -60276.714 140071.4 -60371.952 140166.638 -60467.19 140357.114 -60514.809 140690.447 -60514.809 140880.923 -60467.19 140976.161 -60371.952 141023.78 -60276.714 141023.78 -60086.238 140976.161 -59991 140880.923 -59895.761 140690.447 -59848.142 140357.114 -59848.142 140166.638 -59895.761 140071.4 -59991 140023.78 -60086.238 M 140738.066 -60895.761 140738.066 -61371.952 M 141023.78 -60800.523 140023.78 -61133.857 141023.78 -61467.19 M 141023.78 -62371.952 140547.59 -62038.619 M 141023.78 -61800.523 140023.78 -61800.523 140023.78 -62181.476 140071.4 -62276.714 140119.019 -62324.333 140214.257 -62371.952 140357.114 -62371.952 140452.352 -62324.333 140499.971 -62276.714 140547.59 -62181.476 140547.59 -61800.523 M 141023.78 -62800.523 140023.78 -62800.523 140023.78 -63038.619 140071.4 -63181.476 140166.638 -63276.714 140261.876 -63324.333 140452.352 -63371.952 140595.209 -63371.952 140785.685 -63324.333 140880.923 -63276.714 140976.161 -63181.476 141023.78 -63038.619 141023.78 -62800.523 M 141023.78 -65133.857 140547.59 -64800.523 M 141023.78 -64562.428 140023.78 -64562.428 140023.78 -64943.38 140071.4 -65038.619 140119.019 -65086.238 140214.257 -65133.857 140357.114 -65133.857 140452.352 -65086.238 140499.971 -65038.619 140547.59 -64943.38 140547.59 -64562.428 M 140499.971 -65562.428 140499.971 -65895.761 M 141023.78 -66038.619 141023.78 -65562.428 140023.78 -65562.428 140023.78 -66038.619 M 140023.78 -66324.333 141023.78 -66657.666 140023.78 -66991 M 140738.066 -68038.619 140738.066 -68514.809 M 141023.78 -67943.38 140023.78 -68276.714 141023.78 -68610.047 M 142109.971 -48443.38 142109.971 -48776.714 M 142633.78 -48919.571 142633.78 -48443.38 141633.78 -48443.38 141633.78 -48919.571 M 142633.78 -49824.333 142633.78 -49348.142 141633.78 -49348.142 M 142633.78 -50633.857 142633.78 -50157.666 141633.78 -50157.666 M 142633.78 -50967.19 141633.78 -50967.19 M 141633.78 -51633.857 141633.78 -51824.333 141681.4 -51919.571 141776.638 -52014.809 141967.114 -52062.428 142300.447 -52062.428 142490.923 -52014.809 142586.161 -51919.571 142633.78 -51824.333 142633.78 -51633.857 142586.161 -51538.619 142490.923 -51443.38 142300.447 -51395.761 141967.114 -51395.761 141776.638 -51443.38 141681.4 -51538.619 141633.78 -51633.857 M 141633.78 -52348.142 141633.78 -52919.571 M 142633.78 -52633.857 141633.78 -52633.857 M 142109.971 -54014.809 142109.971 -54348.142 M 142633.78 -54491 142633.78 -54014.809 141633.78 -54014.809 141633.78 -54491 M 142633.78 -54919.571 141633.78 -54919.571 M 142538.542 -55967.19 142586.161 -55919.571 142633.78 -55776.714 142633.78 -55681.476 142586.161 -55538.619 142490.923 -55443.38 142395.685 -55395.761 142205.209 -55348.142 142062.352 -55348.142 141871.876 -55395.761 141776.638 -55443.38 141681.4 -55538.619 141633.78 -55681.476 141633.78 -55776.714 141681.4 -55919.571 141729.019 -55967.19 M 142633.78 -56395.761 141633.78 -56395.761 M 142633.78 -56967.19 142062.352 -56538.619 M 141633.78 -56967.19 142205.209 -56395.761 M 142633.78 -57395.761 141633.78 -57395.761 M 142109.971 -57395.761 142109.971 -57967.19 M 142633.78 -57967.19 141633.78 -57967.19 M 141633.78 -58633.857 141633.78 -58824.333 141681.4 -58919.571 141776.638 -59014.809 141967.114 -59062.428 142300.447 -59062.428 142490.923 -59014.809 142586.161 -58919.571 142633.78 -58824.333 142633.78 -58633.857 142586.161 -58538.619 142490.923 -58443.38 142300.447 -58395.761 141967.114 -58395.761 141776.638 -58443.38 141681.4 -58538.619 141633.78 -58633.857 M 142633.78 -59967.19 142633.78 -59491 141633.78 -59491 M 141633.78 -60157.666 141633.78 -60729.095 M 142633.78 -60443.38 141633.78 -60443.38 M 141633.78 -60967.19 141633.78 -61633.857 142633.78 -60967.19 142633.78 -61633.857 M 82102.38 -103911.904 82911.904 -103911.904 83007.142 -103959.523 83054.761 -104007.142 83102.38 -104102.38 83102.38 -104292.857 83054.761 -104388.095 83007.142 -104435.714 82911.904 -104483.333 82102.38 -104483.333 M 82197.619 -104911.904 82150 -104959.523 82102.38 -105054.761 82102.38 -105292.857 82150 -105388.095 82197.619 -105435.714 82292.857 -105483.333 82388.095 -105483.333 82530.952 -105435.714 83102.38 -104864.285 83102.38 -105483.333 M 82102.38 -106102.38 82102.38 -106197.619 82150 -106292.857 82197.619 -106340.476 82292.857 -106388.095 82483.333 -106435.714 82721.428 -106435.714 82911.904 -106388.095 83007.142 -106340.476 83054.761 -106292.857 83102.38 -106197.619 83102.38 -106102.38 83054.761 -106007.142 83007.142 -105959.523 82911.904 -105911.904 82721.428 -105864.285 82483.333 -105864.285 82292.857 -105911.904 82197.619 -105959.523 82150 -106007.142 82102.38 -106102.38 M 82081.98 -53829.104 82891.504 -53829.104 82986.742 -53876.723 83034.361 -53924.342 83081.98 -54019.58 83081.98 -54210.057 83034.361 -54305.295 82986.742 -54352.914 82891.504 -54400.533 82081.98 -54400.533 M 83081.98 -55400.533 83081.98 -54829.104 M 83081.98 -55114.819 82081.98 -55114.819 82224.838 -55019.58 82320.076 -54924.342 82367.695 -54829.104 M 82081.98 -56019.58 82081.98 -56114.819 82129.6 -56210.057 82177.219 -56257.676 82272.457 -56305.295 82462.933 -56352.914 82701.028 -56352.914 82891.504 -56305.295 82986.742 -56257.676 83034.361 -56210.057 83081.98 -56114.819 83081.98 -56019.58 83034.361 -55924.342 82986.742 -55876.723 82891.504 -55829.104 82701.028 -55781.485 82462.933 -55781.485 82272.457 -55829.104 82177.219 -55876.723 82129.6 -55924.342 82081.98 -56019.58 M 106132.98 -54372.795 106942.504 -54372.795 107037.742 -54420.414 107085.361 -54468.033 107132.98 -54563.271 107132.98 -54753.747 107085.361 -54848.985 107037.742 -54896.604 106942.504 -54944.223 106132.98 -54944.223 M 106132.98 -55848.985 106132.98 -55658.509 106180.6 -55563.271 106228.219 -55515.652 106371.076 -55420.414 106561.552 -55372.795 106942.504 -55372.795 107037.742 -55420.414 107085.361 -55468.033 107132.98 -55563.271 107132.98 -55753.747 107085.361 -55848.985 107037.742 -55896.604 106942.504 -55944.223 106704.409 -55944.223 106609.171 -55896.604 106561.552 -55848.985 106513.933 -55753.747 106513.933 -55563.271 106561.552 -55468.033 106609.171 -55420.414 106704.409 -55372.795 M 98096.38 -29238.095 98905.904 -29238.095 99001.142 -29285.714 99048.761 -29333.333 99096.38 -29428.571 99096.38 -29619.047 99048.761 -29714.285 99001.142 -29761.904 98905.904 -29809.523 98096.38 -29809.523 M 98191.619 -30238.095 98144 -30285.714 98096.38 -30380.952 98096.38 -30619.047 98144 -30714.285 98191.619 -30761.904 98286.857 -30809.523 98382.095 -30809.523 98524.952 -30761.904 99096.38 -30190.476 99096.38 -30809.523 M 106102.38 -103911.904 106911.904 -103911.904 107007.142 -103959.523 107054.761 -104007.142 107102.38 -104102.38 107102.38 -104292.857 107054.761 -104388.095 107007.142 -104435.714 106911.904 -104483.333 106102.38 -104483.333 M 107102.38 -105483.333 107102.38 -104911.904 M 107102.38 -105197.619 106102.38 -105197.619 106245.238 -105102.38 106340.476 -105007.142 106388.095 -104911.904 M 106102.38 -105816.666 106102.38 -106483.333 107102.38 -106054.761 M 98102.38 -78861.904 98911.904 -78861.904 99007.142 -78909.523 99054.761 -78957.142 99102.38 -79052.38 99102.38 -79242.857 99054.761 -79338.095 99007.142 -79385.714 98911.904 -79433.333 98102.38 -79433.333 M 99102.38 -80433.333 99102.38 -79861.904 M 99102.38 -80147.619 98102.38 -80147.619 98245.238 -80052.38 98340.476 -79957.142 98388.095 -79861.904 M 98102.38 -80766.666 98102.38 -81385.714 98483.333 -81052.38 98483.333 -81195.238 98530.952 -81290.476 98578.571 -81338.095 98673.809 -81385.714 98911.904 -81385.714 99007.142 -81338.095 99054.761 -81290.476 99102.38 -81195.238 99102.38 -80909.523 99054.761 -80814.285 99007.142 -80766.666 M 74096.38 -29238.095 74905.904 -29238.095 75001.142 -29285.714 75048.761 -29333.333 75096.38 -29428.571 75096.38 -29619.047 75048.761 -29714.285 75001.142 -29761.904 74905.904 -29809.523 74096.38 -29809.523 M 74096.38 -30761.904 74096.38 -30285.714 74572.571 -30238.095 74524.952 -30285.714 74477.333 -30380.952 74477.333 -30619.047 74524.952 -30714.285 74572.571 -30761.904 74667.809 -30809.523 74905.904 -30809.523 75001.142 -30761.904 75048.761 -30714.285 75096.38 -30619.047 75096.38 -30380.952 75048.761 -30285.714 75001.142 -30238.095 M 74102.38 -78861.904 74911.904 -78861.904 75007.142 -78909.523 75054.761 -78957.142 75102.38 -79052.38 75102.38 -79242.857 75054.761 -79338.095 75007.142 -79385.714 74911.904 -79433.333 74102.38 -79433.333 M 75102.38 -80433.333 75102.38 -79861.904 M 75102.38 -80147.619 74102.38 -80147.619 74245.238 -80052.38 74340.476 -79957.142 74388.095 -79861.904 M 74102.38 -81290.476 74102.38 -81100 74150 -81004.761 74197.619 -80957.142 74340.476 -80861.904 74530.952 -80814.285 74911.904 -80814.285 75007.142 -80861.904 75054.761 -80909.523 75102.38 -81004.761 75102.38 -81195.238 75054.761 -81290.476 75007.142 -81338.095 74911.904 -81385.714 74673.809 -81385.714 74578.571 -81338.095 74530.952 -81290.476 74483.333 -81195.238 74483.333 -81004.761 74530.952 -80909.523 74578.571 -80861.904 74673.809 -80814.285 M 82096.38 -29238.095 82905.904 -29238.095 83001.142 -29285.714 83048.761 -29333.333 83096.38 -29428.571 83096.38 -29619.047 83048.761 -29714.285 83001.142 -29761.904 82905.904 -29809.523 82096.38 -29809.523 M 82429.714 -30714.285 83096.38 -30714.285 M 82048.761 -30476.19 82763.047 -30238.095 82763.047 -30857.142 M 90096.38 -29238.095 90905.904 -29238.095 91001.142 -29285.714 91048.761 -29333.333 91096.38 -29428.571 91096.38 -29619.047 91048.761 -29714.285 91001.142 -29761.904 90905.904 -29809.523 90096.38 -29809.523 M 90096.38 -30190.476 90096.38 -30809.523 90477.333 -30476.19 90477.333 -30619.047 90524.952 -30714.285 90572.571 -30761.904 90667.809 -30809.523 90905.904 -30809.523 91001.142 -30761.904 91048.761 -30714.285 91096.38 -30619.047 91096.38 -30333.333 91048.761 -30238.095 91001.142 -30190.476 M 106102.38 -78911.904 106911.904 -78911.904 107007.142 -78959.523 107054.761 -79007.142 107102.38 -79102.38 107102.38 -79292.857 107054.761 -79388.095 107007.142 -79435.714 106911.904 -79483.333 106102.38 -79483.333 M 107102.38 -80483.333 107102.38 -79911.904 M 107102.38 -80197.619 106102.38 -80197.619 106245.238 -80102.38 106340.476 -80007.142 106388.095 -79911.904 M 106197.619 -80864.285 106150 -80911.904 106102.38 -81007.142 106102.38 -81245.238 106150 -81340.476 106197.619 -81388.095 106292.857 -81435.714 106388.095 -81435.714 106530.952 -81388.095 107102.38 -80816.666 107102.38 -81435.714 M 106096.38 -29238.095 106905.904 -29238.095 107001.142 -29285.714 107048.761 -29333.333 107096.38 -29428.571 107096.38 -29619.047 107048.761 -29714.285 107001.142 -29761.904 106905.904 -29809.523 106096.38 -29809.523 M 107096.38 -30809.523 107096.38 -30238.095 M 107096.38 -30523.809 106096.38 -30523.809 106239.238 -30428.571 106334.476 -30333.333 106382.095 -30238.095 M 82102.38 -78861.904 82911.904 -78861.904 83007.142 -78909.523 83054.761 -78957.142 83102.38 -79052.38 83102.38 -79242.857 83054.761 -79338.095 83007.142 -79385.714 82911.904 -79433.333 82102.38 -79433.333 M 83102.38 -80433.333 83102.38 -79861.904 M 83102.38 -80147.619 82102.38 -80147.619 82245.238 -80052.38 82340.476 -79957.142 82388.095 -79861.904 M 82102.38 -81338.095 82102.38 -80861.904 82578.571 -80814.285 82530.952 -80861.904 82483.333 -80957.142 82483.333 -81195.238 82530.952 -81290.476 82578.571 -81338.095 82673.809 -81385.714 82911.904 -81385.714 83007.142 -81338.095 83054.761 -81290.476 83102.38 -81195.238 83102.38 -80957.142 83054.761 -80861.904 83007.142 -80814.285 M 98102.38 -103911.904 98911.904 -103911.904 99007.142 -103959.523 99054.761 -104007.142 99102.38 -104102.38 99102.38 -104292.857 99054.761 -104388.095 99007.142 -104435.714 98911.904 -104483.333 98102.38 -104483.333 M 99102.38 -105483.333 99102.38 -104911.904 M 99102.38 -105197.619 98102.38 -105197.619 98245.238 -105102.38 98340.476 -105007.142 98388.095 -104911.904 M 98530.952 -106054.761 98483.333 -105959.523 98435.714 -105911.904 98340.476 -105864.285 98292.857 -105864.285 98197.619 -105911.904 98150 -105959.523 98102.38 -106054.761 98102.38 -106245.238 98150 -106340.476 98197.619 -106388.095 98292.857 -106435.714 98340.476 -106435.714 98435.714 -106388.095 98483.333 -106340.476 98530.952 -106245.238 98530.952 -106054.761 98578.571 -105959.523 98626.19 -105911.904 98721.428 -105864.285 98911.904 -105864.285 99007.142 -105911.904 99054.761 -105959.523 99102.38 -106054.761 99102.38 -106245.238 99054.761 -106340.476 99007.142 -106388.095 98911.904 -106435.714 98721.428 -106435.714 98626.19 -106388.095 98578.571 -106340.476 98530.952 -106245.238 M 98081.98 -54305.295 98891.504 -54305.295 98986.742 -54352.914 99034.361 -54400.533 99081.98 -54495.771 99081.98 -54686.247 99034.361 -54781.485 98986.742 -54829.104 98891.504 -54876.723 98081.98 -54876.723 M 98081.98 -55257.676 98081.98 -55924.342 99081.98 -55495.771 M 90102.38 -103911.904 90911.904 -103911.904 91007.142 -103959.523 91054.761 -104007.142 91102.38 -104102.38 91102.38 -104292.857 91054.761 -104388.095 91007.142 -104435.714 90911.904 -104483.333 90102.38 -104483.333 M 91102.38 -105483.333 91102.38 -104911.904 M 91102.38 -105197.619 90102.38 -105197.619 90245.238 -105102.38 90340.476 -105007.142 90388.095 -104911.904 M 91102.38 -105959.523 91102.38 -106150 91054.761 -106245.238 91007.142 -106292.857 90864.285 -106388.095 90673.809 -106435.714 90292.857 -106435.714 90197.619 -106388.095 90150 -106340.476 90102.38 -106245.238 90102.38 -106054.761 90150 -105959.523 90197.619 -105911.904 90292.857 -105864.285 90530.952 -105864.285 90626.19 -105911.904 90673.809 -105959.523 90721.428 -106054.761 90721.428 -106245.238 90673.809 -106340.476 90626.19 -106388.095 90530.952 -106435.714 M 90102.38 -78861.904 90911.904 -78861.904 91007.142 -78909.523 91054.761 -78957.142 91102.38 -79052.38 91102.38 -79242.857 91054.761 -79338.095 91007.142 -79385.714 90911.904 -79433.333 90102.38 -79433.333 M 91102.38 -80433.333 91102.38 -79861.904 M 91102.38 -80147.619 90102.38 -80147.619 90245.238 -80052.38 90340.476 -79957.142 90388.095 -79861.904 M 90435.714 -81290.476 91102.38 -81290.476 M 90054.761 -81052.38 90769.047 -80814.285 90769.047 -81433.333 M 74102.38 -103911.904 74911.904 -103911.904 75007.142 -103959.523 75054.761 -104007.142 75102.38 -104102.38 75102.38 -104292.857 75054.761 -104388.095 75007.142 -104435.714 74911.904 -104483.333 74102.38 -104483.333 M 74197.619 -104911.904 74150 -104959.523 74102.38 -105054.761 74102.38 -105292.857 74150 -105388.095 74197.619 -105435.714 74292.857 -105483.333 74388.095 -105483.333 74530.952 -105435.714 75102.38 -104864.285 75102.38 -105483.333 M 75102.38 -106435.714 75102.38 -105864.285 M 75102.38 -106150 74102.38 -106150 74245.238 -106054.761 74340.476 -105959.523 74388.095 -105864.285 M 74081.98 -53829.104 74891.504 -53829.104 74986.742 -53876.723 75034.361 -53924.342 75081.98 -54019.58 75081.98 -54210.057 75034.361 -54305.295 74986.742 -54352.914 74891.504 -54400.533 74081.98 -54400.533 M 75081.98 -55400.533 75081.98 -54829.104 M 75081.98 -55114.819 74081.98 -55114.819 74224.838 -55019.58 74320.076 -54924.342 74367.695 -54829.104 M 75081.98 -56352.914 75081.98 -55781.485 M 75081.98 -56067.2 74081.98 -56067.2 74224.838 -55971.961 74320.076 -55876.723 74367.695 -55781.485 M 90081.98 -54305.295 90891.504 -54305.295 90986.742 -54352.914 91034.361 -54400.533 91081.98 -54495.771 91081.98 -54686.247 91034.361 -54781.485 90986.742 -54829.104 90891.504 -54876.723 90081.98 -54876.723 M 91081.98 -55400.533 91081.98 -55591.009 91034.361 -55686.247 90986.742 -55733.866 90843.885 -55829.104 90653.409 -55876.723 90272.457 -55876.723 90177.219 -55829.104 90129.6 -55781.485 90081.98 -55686.247 90081.98 -55495.771 90129.6 -55400.533 90177.219 -55352.914 90272.457 -55305.295 90510.552 -55305.295 90605.79 -55352.914 90653.409 -55400.533 90701.028 -55495.771 90701.028 -55686.247 90653.409 -55781.485 90605.79 -55829.104 90510.552 -55876.723" fill="none" stroke-width="150"/><path d="M 88835 -105150 88835 -102950 M 83365 -105150 83365 -107350 M 88835 -105150 88835 -107350 M 83365 -105150 83365 -101550 M 88814.6 -55067.2 88814.6 -57267.2 M 88814.6 -55067.2 88814.6 -52867.2 M 83344.6 -55067.2 83344.6 -51467.2 M 83344.6 -55067.2 83344.6 -57267.2 M 112865.6 -55134.7 112865.6 -52934.7 M 107395.6 -55134.7 107395.6 -51534.7 M 112865.6 -55134.7 112865.6 -57334.7 M 107395.6 -55134.7 107395.6 -57334.7 M 104829 -30000 104829 -32200 M 99359 -30000 99359 -26400 M 104829 -30000 104829 -27800 M 99359 -30000 99359 -32200 M 112835 -105150 112835 -107350 M 107365 -105150 107365 -107350 M 107365 -105150 107365 -101550 M 112835 -105150 112835 -102950 M 99365 -80100 99365 -76500 M 104835 -80100 104835 -82300 M 104835 -80100 104835 -77900 M 99365 -80100 99365 -82300 M 80829 -30000 80829 -27800 M 80829 -30000 80829 -32200 M 75359 -30000 75359 -26400 M 75359 -30000 75359 -32200 M 75365 -80100 75365 -82300 M 75365 -80100 75365 -76500 M 80835 -80100 80835 -77900 M 80835 -80100 80835 -82300 M 83359 -30000 83359 -32200 M 83359 -30000 83359 -26400 M 88829 -30000 88829 -27800 M 88829 -30000 88829 -32200 M 91359 -30000 91359 -26400 M 91359 -30000 91359 -32200 M 96829 -30000 96829 -27800 M 96829 -30000 96829 -32200 M 107365 -80150 107365 -76550 M 107365 -80150 107365 -82350 M 112835 -80150 112835 -77950 M 112835 -80150 112835 -82350 M 112829 -30000 112829 -27800 M 107359 -30000 107359 -26400 M 112829 -30000 112829 -32200 M 107359 -30000 107359 -32200 M 83365 -80100 83365 -82300 M 83365 -80100 83365 -76500 M 88835 -80100 88835 -77900 M 88835 -80100 88835 -82300 M 104835 -105150 104835 -107350 M 99365 -105150 99365 -101550 M 99365 -105150 99365 -107350 M 104835 -105150 104835 -102950 M 104814.6 -55067.2 104814.6 -52867.2 M 104814.6 -55067.2 104814.6 -57267.2 M 99344.6 -55067.2 99344.6 -51467.2 M 99344.6 -55067.2 99344.6 -57267.2 M 91365 -105150 91365 -101550 M 96835 -105150 96835 -102950 M 91365 -105150 91365 -107350 M 96835 -105150 96835 -107350 M 91365 -80100 91365 -76500 M 96835 -80100 96835 -77900 M 96835 -80100 96835 -82300 M 91365 -80100 91365 -82300 M 80835 -105150 80835 -107350 M 80835 -105150 80835 -102950 M 75365 -105150 75365 -107350 M 75365 -105150 75365 -101550 M 80814.6 -55067.2 80814.6 -57267.2 M 75344.6 -55067.2 75344.6 -57267.2 M 75344.6 -55067.2 75344.6 -51467.2 M 80814.6 -55067.2 80814.6 -52867.2 M 96814.6 -55067.2 96814.6 -57267.2 M 96814.6 -55067.2 96814.6 -52867.2 M 91344.6 -55067.2 91344.6 -57267.2 M 91344.6 -55067.2 91344.6 -51467.2" fill="none" stroke-width="120"/></g></svg>