<svg version="1.1" xmlns="http://www.w3.org/2000/svg" xmlns:xlink="http://www.w3.org/1999/xlink" stroke-linecap="round" stroke-linejoin="round" stroke-width="0" fill-rule="evenodd" width="111.715mm" height="99.65mm" viewBox="42250 -116500 111715 99650" id="vJuLiy-FpxmK5zMaHCjl"><defs><circle cx="0" cy="0" r="654" id="vJuLiy-FpxmK5zMaHCjl_pad-10"/><circle cx="0" cy="0" r="725" id="vJuLiy-FpxmK5zMaHCjl_pad-11"/><circle cx="0" cy="0" r="715" id="vJuLiy-FpxmK5zMaHCjl_pad-12"/><circle cx="0" cy="0" r="754" id="vJuLiy-FpxmK5zMaHCjl_pad-13"/><circle cx="0" cy="0" r="2200" id="vJuLiy-FpxmK5zMaHCjl_pad-14"/><rect x="-695" y="-695" width="1390" height="1390" id="vJuLiy-FpxmK5zMaHCjl_pad-15"/><circle cx="0" cy="0" r="695" id="vJuLiy-FpxmK5zMaHCjl_pad-16"/><g id="vJuLiy-FpxmK5zMaHCjl_pad-17"><polygon points="-100,637.5 -100,-637.5 100,-637.5 100,637.5"/><circle cx="-100" cy="637.5" r="100"/><circle cx="-100" cy="-637.5" r="100"/><circle cx="100" cy="-637.5" r="100"/><circle cx="100" cy="637.5" r="100"/><polygon points="0,637.5 0,-637.5 -200,-637.5 -200,637.5"/><polygon points="-100,-737.5 100,-737.5 100,-537.5 -100,-537.5"/><polygon points="200,-637.5 200,637.5 0,637.5 0,-637.5"/><polygon points="100,537.5 -100,537.5 -100,737.5 100,737.5"/></g></defs><g transform="translate(0,-133350) scale(1,-1)" fill="currentColor" stroke="currentColor"><use xlink:href="#vJuLiy-FpxmK5zMaHCjl_pad-10" x="150400" y="-108550"/><use xlink:href="#vJuLiy-FpxmK5zMaHCjl_pad-10" x="152400" y="-108550"/><use xlink:href="#vJuLiy-FpxmK5zMaHCjl_pad-10" x="150400" y="-89450"/><use xlink:href="#vJuLiy-FpxmK5zMaHCjl_pad-10" x="152400" y="-89450"/><use xlink:href="#vJuLiy-FpxmK5zMaHCjl_pad-11" x="58250" y="-44510"/><use xlink:href="#vJuLiy-FpxmK5zMaHCjl_pad-11" x="119750" y="-45510"/><use xlink:href="#vJuLiy-FpxmK5zMaHCjl_pad-12" x="60000" y="-46020"/><use xlink:href="#vJuLiy-FpxmK5zMaHCjl_pad-12" x="60000" y="-43000"/><use xlink:href="#vJuLiy-FpxmK5zMaHCjl_pad-12" x="62000" y="-46020"/><use xlink:href="#vJuLiy-FpxmK5zMaHCjl_pad-12" x="62000" y="-43000"/><use xlink:href="#vJuLiy-FpxmK5zMaHCjl_pad-12" x="64000" y="-46020"/><use xlink:href="#vJuLiy-FpxmK5zMaHCjl_pad-12" x="64000" y="-43000"/><use xlink:href="#vJuLiy-FpxmK5zMaHCjl_pad-12" x="66000" y="-46020"/><use xlink:href="#vJuLiy-FpxmK5zMaHCjl_pad-12" x="66000" y="-43000"/><use xlink:href="#vJuLiy-FpxmK5zMaHCjl_pad-12" x="68000" y="-46020"/><use xlink:href="#vJuLiy-FpxmK5zMaHCjl_pad-12" x="68000" y="-43000"/><use xlink:href="#vJuLiy-FpxmK5zMaHCjl_pad-12" x="70000" y="-46020"/><use xlink:href="#vJuLiy-FpxmK5zMaHCjl_pad-12" x="70000" y="-43000"/><use xlink:href="#vJuLiy-FpxmK5zMaHCjl_pad-12" x="72000" y="-46020"/><use xlink:href="#vJuLiy-FpxmK5zMaHCjl_pad-12" x="72000" y="-43000"/><use xlink:href="#vJuLiy-FpxmK5zMaHCjl_pad-12" x="74000" y="-46020"/><use xlink:href="#vJuLiy-FpxmK5zMaHCjl_pad-12" x="74000" y="-43000"/><use xlink:href="#vJuLiy-FpxmK5zMaHCjl_pad-12" x="76000" y="-46020"/><use xlink:href="#vJuLiy-FpxmK5zMaHCjl_pad-12" x="76000" y="-43000"/><use xlink:href="#vJuLiy-FpxmK5zMaHCjl_pad-12" x="78000" y="-46020"/><use xlink:href="#vJuLiy-FpxmK5zMaHCjl_pad-12" x="78000" y="-43000"/><use xlink:href="#vJuLiy-FpxmK5zMaHCjl_pad-12" x="80000" y="-46020"/><use xlink:href="#vJuLiy-FpxmK5zMaHCjl_pad-12" x="80000" y="-43000"/><use xlink:href="#vJuLiy-FpxmK5zMaHCjl_pad-12" x="82000" y="-46020"/><use xlink:href="#vJuLiy-FpxmK5zMaHCjl_pad-12" x="82000" y="-43000"/><use xlink:href="#vJuLiy-FpxmK5zMaHCjl_pad-12" x="84000" y="-46020"/><use xlink:href="#vJuLiy-FpxmK5zMaHCjl_pad-12" x="84000" y="-43000"/><use xlink:href="#vJuLiy-FpxmK5zMaHCjl_pad-12" x="86000" y="-46020"/><use xlink:href="#vJuLiy-FpxmK5zMaHCjl_pad-12" x="86000" y="-43000"/><use xlink:href="#vJuLiy-FpxmK5zMaHCjl_pad-12" x="88000" y="-46020"/><use xlink:href="#vJuLiy-FpxmK5zMaHCjl_pad-12" x="88000" y="-43000"/><use xlink:href="#vJuLiy-FpxmK5zMaHCjl_pad-12" x="90000" y="-46020"/><use xlink:href="#vJuLiy-FpxmK5zMaHCjl_pad-12" x="90000" y="-43000"/><use xlink:href="#vJuLiy-FpxmK5zMaHCjl_pad-12" x="92000" y="-46020"/><use xlink:href="#vJuLiy-FpxmK5zMaHCjl_pad-12" x="92000" y="-43000"/><use xlink:href="#vJuLiy-FpxmK5zMaHCjl_pad-12" x="94000" y="-46020"/><use xlink:href="#vJuLiy-FpxmK5zMaHCjl_pad-12" x="94000" y="-43000"/><use xlink:href="#vJuLiy-FpxmK5zMaHCjl_pad-12" x="96000" y="-46020"/><use xlink:href="#vJuLiy-FpxmK5zMaHCjl_pad-12" x="96000" y="-43000"/><use xlink:href="#vJuLiy-FpxmK5zMaHCjl_pad-12" x="98000" y="-46020"/><use xlink:href="#vJuLiy-FpxmK5zMaHCjl_pad-12" x="98000" y="-43000"/><use xlink:href="#vJuLiy-FpxmK5zMaHCjl_pad-12" x="100000" y="-46020"/><use xlink:href="#vJuLiy-FpxmK5zMaHCjl_pad-12" x="100000" y="-43000"/><use xlink:href="#vJuLiy-FpxmK5zMaHCjl_pad-12" x="102000" y="-46020"/><use xlink:href="#vJuLiy-FpxmK5zMaHCjl_pad-12" x="102000" y="-43000"/><use xlink:href="#vJuLiy-FpxmK5zMaHCjl_pad-12" x="104000" y="-46020"/><use xlink:href="#vJuLiy-FpxmK5zMaHCjl_pad-12" x="104000" y="-43000"/><use xlink:href="#vJuLiy-FpxmK5zMaHCjl_pad-12" x="106000" y="-46020"/><use xlink:href="#vJuLiy-FpxmK5zMaHCjl_pad-12" x="106000" y="-43000"/><use xlink:href="#vJuLiy-FpxmK5zMaHCjl_pad-12" x="108000" y="-46020"/><use xlink:href="#vJuLiy-FpxmK5zMaHCjl_pad-12" x="108000" y="-43000"/><use xlink:href="#vJuLiy-FpxmK5zMaHCjl_pad-12" x="110000" y="-46020"/><use xlink:href="#vJuLiy-FpxmK5zMaHCjl_pad-12" x="110000" y="-43000"/><use xlink:href="#vJuLiy-FpxmK5zMaHCjl_pad-12" x="112000" y="-46020"/><use xlink:href="#vJuLiy-FpxmK5zMaHCjl_pad-12" x="112000" y="-43000"/><use xlink:href="#vJuLiy-FpxmK5zMaHCjl_pad-12" x="114000" y="-46020"/><use xlink:href="#vJuLiy-FpxmK5zMaHCjl_pad-12" x="114000" y="-43000"/><use xlink:href="#vJuLiy-FpxmK5zMaHCjl_pad-12" x="116000" y="-46020"/><use xlink:href="#vJuLiy-FpxmK5zMaHCjl_pad-12" x="116000" y="-43000"/><use xlink:href="#vJuLiy-FpxmK5zMaHCjl_pad-12" x="118000" y="-46020"/><use xlink:href="#vJuLiy-FpxmK5zMaHCjl_pad-12" x="118000" y="-43000"/><use xlink:href="#vJuLiy-FpxmK5zMaHCjl_pad-13" x="56300" y="-44510"/><use xlink:href="#vJuLiy-FpxmK5zMaHCjl_pad-13" x="121700" y="-44510"/><use xlink:href="#vJuLiy-FpxmK5zMaHCjl_pad-14" x="151765" y="-114300"/><use xlink:href="#vJuLiy-FpxmK5zMaHCjl_pad-11" x="58250" y="-19510"/><use xlink:href="#vJuLiy-FpxmK5zMaHCjl_pad-11" x="119750" y="-20510"/><use xlink:href="#vJuLiy-FpxmK5zMaHCjl_pad-12" x="60000" y="-21020"/><use xlink:href="#vJuLiy-FpxmK5zMaHCjl_pad-12" x="60000" y="-18000"/><use xlink:href="#vJuLiy-FpxmK5zMaHCjl_pad-12" x="62000" y="-21020"/><use xlink:href="#vJuLiy-FpxmK5zMaHCjl_pad-12" x="62000" y="-18000"/><use xlink:href="#vJuLiy-FpxmK5zMaHCjl_pad-12" x="64000" y="-21020"/><use xlink:href="#vJuLiy-FpxmK5zMaHCjl_pad-12" x="64000" y="-18000"/><use xlink:href="#vJuLiy-FpxmK5zMaHCjl_pad-12" x="66000" y="-21020"/><use xlink:href="#vJuLiy-FpxmK5zMaHCjl_pad-12" x="66000" y="-18000"/><use xlink:href="#vJuLiy-FpxmK5zMaHCjl_pad-12" x="68000" y="-21020"/><use xlink:href="#vJuLiy-FpxmK5zMaHCjl_pad-12" x="68000" y="-18000"/><use xlink:href="#vJuLiy-FpxmK5zMaHCjl_pad-12" x="70000" y="-21020"/><use xlink:href="#vJuLiy-FpxmK5zMaHCjl_pad-12" x="70000" y="-18000"/><use xlink:href="#vJuLiy-FpxmK5zMaHCjl_pad-12" x="72000" y="-21020"/><use xlink:href="#vJuLiy-FpxmK5zMaHCjl_pad-12" x="72000" y="-18000"/><use xlink:href="#vJuLiy-FpxmK5zMaHCjl_pad-12" x="74000" y="-21020"/><use xlink:href="#vJuLiy-FpxmK5zMaHCjl_pad-12" x="74000" y="-18000"/><use xlink:href="#vJuLiy-FpxmK5zMaHCjl_pad-12" x="76000" y="-21020"/><use xlink:href="#vJuLiy-FpxmK5zMaHCjl_pad-12" x="76000" y="-18000"/><use xlink:href="#vJuLiy-FpxmK5zMaHCjl_pad-12" x="78000" y="-21020"/><use xlink:href="#vJuLiy-FpxmK5zMaHCjl_pad-12" x="78000" y="-18000"/><use xlink:href="#vJuLiy-FpxmK5zMaHCjl_pad-12" x="80000" y="-21020"/><use xlink:href="#vJuLiy-FpxmK5zMaHCjl_pad-12" x="80000" y="-18000"/><use xlink:href="#vJuLiy-FpxmK5zMaHCjl_pad-12" x="82000" y="-21020"/><use xlink:href="#vJuLiy-FpxmK5zMaHCjl_pad-12" x="82000" y="-18000"/><use xlink:href="#vJuLiy-FpxmK5zMaHCjl_pad-12" x="84000" y="-21020"/><use xlink:href="#vJuLiy-FpxmK5zMaHCjl_pad-12" x="84000" y="-18000"/><use xlink:href="#vJuLiy-FpxmK5zMaHCjl_pad-12" x="86000" y="-21020"/><use xlink:href="#vJuLiy-FpxmK5zMaHCjl_pad-12" x="86000" y="-18000"/><use xlink:href="#vJuLiy-FpxmK5zMaHCjl_pad-12" x="88000" y="-21020"/><use xlink:href="#vJuLiy-FpxmK5zMaHCjl_pad-12" x="88000" y="-18000"/><use xlink:href="#vJuLiy-FpxmK5zMaHCjl_pad-12" x="90000" y="-21020"/><use xlink:href="#vJuLiy-FpxmK5zMaHCjl_pad-12" x="90000" y="-18000"/><use xlink:href="#vJuLiy-FpxmK5zMaHCjl_pad-12" x="92000" y="-21020"/><use xlink:href="#vJuLiy-FpxmK5zMaHCjl_pad-12" x="92000" y="-18000"/><use xlink:href="#vJuLiy-FpxmK5zMaHCjl_pad-12" x="94000" y="-21020"/><use xlink:href="#vJuLiy-FpxmK5zMaHCjl_pad-12" x="94000" y="-18000"/><use xlink:href="#vJuLiy-FpxmK5zMaHCjl_pad-12" x="96000" y="-21020"/><use xlink:href="#vJuLiy-FpxmK5zMaHCjl_pad-12" x="96000" y="-18000"/><use xlink:href="#vJuLiy-FpxmK5zMaHCjl_pad-12" x="98000" y="-21020"/><use xlink:href="#vJuLiy-FpxmK5zMaHCjl_pad-12" x="98000" y="-18000"/><use xlink:href="#vJuLiy-FpxmK5zMaHCjl_pad-12" x="100000" y="-21020"/><use xlink:href="#vJuLiy-FpxmK5zMaHCjl_pad-12" x="100000" y="-18000"/><use xlink:href="#vJuLiy-FpxmK5zMaHCjl_pad-12" x="102000" y="-21020"/><use xlink:href="#vJuLiy-FpxmK5zMaHCjl_pad-12" x="102000" y="-18000"/><use xlink:href="#vJuLiy-FpxmK5zMaHCjl_pad-12" x="104000" y="-21020"/><use xlink:href="#vJuLiy-FpxmK5zMaHCjl_pad-12" x="104000" y="-18000"/><use xlink:href="#vJuLiy-FpxmK5zMaHCjl_pad-12" x="106000" y="-21020"/><use xlink:href="#vJuLiy-FpxmK5zMaHCjl_pad-12" x="106000" y="-18000"/><use xlink:href="#vJuLiy-FpxmK5zMaHCjl_pad-12" x="108000" y="-21020"/><use xlink:href="#vJuLiy-FpxmK5zMaHCjl_pad-12" x="108000" y="-18000"/><use xlink:href="#vJuLiy-FpxmK5zMaHCjl_pad-12" x="110000" y="-21020"/><use xlink:href="#vJuLiy-FpxmK5zMaHCjl_pad-12" x="110000" y="-18000"/><use xlink:href="#vJuLiy-FpxmK5zMaHCjl_pad-12" x="112000" y="-21020"/><use xlink:href="#vJuLiy-FpxmK5zMaHCjl_pad-12" x="112000" y="-18000"/><use xlink:href="#vJuLiy-FpxmK5zMaHCjl_pad-12" x="114000" y="-21020"/><use xlink:href="#vJuLiy-FpxmK5zMaHCjl_pad-12" x="114000" y="-18000"/><use xlink:href="#vJuLiy-FpxmK5zMaHCjl_pad-12" x="116000" y="-21020"/><use xlink:href="#vJuLiy-FpxmK5zMaHCjl_pad-12" x="116000" y="-18000"/><use xlink:href="#vJuLiy-FpxmK5zMaHCjl_pad-12" x="118000" y="-21020"/><use xlink:href="#vJuLiy-FpxmK5zMaHCjl_pad-12" x="118000" y="-18000"/><use xlink:href="#vJuLiy-FpxmK5zMaHCjl_pad-13" x="56300" y="-19510"/><use xlink:href="#vJuLiy-FpxmK5zMaHCjl_pad-13" x="121700" y="-19510"/><use xlink:href="#vJuLiy-FpxmK5zMaHCjl_pad-14" x="151765" y="-19050"/><use xlink:href="#vJuLiy-FpxmK5zMaHCjl_pad-11" x="119750" y="-70510"/><use xlink:href="#vJuLiy-FpxmK5zMaHCjl_pad-11" x="58250" y="-69510"/><use xlink:href="#vJuLiy-FpxmK5zMaHCjl_pad-12" x="60000" y="-71020"/><use xlink:href="#vJuLiy-FpxmK5zMaHCjl_pad-12" x="60000" y="-68000"/><use xlink:href="#vJuLiy-FpxmK5zMaHCjl_pad-12" x="62000" y="-71020"/><use xlink:href="#vJuLiy-FpxmK5zMaHCjl_pad-12" x="62000" y="-68000"/><use xlink:href="#vJuLiy-FpxmK5zMaHCjl_pad-12" x="64000" y="-71020"/><use xlink:href="#vJuLiy-FpxmK5zMaHCjl_pad-12" x="64000" y="-68000"/><use xlink:href="#vJuLiy-FpxmK5zMaHCjl_pad-12" x="66000" y="-71020"/><use xlink:href="#vJuLiy-FpxmK5zMaHCjl_pad-12" x="66000" y="-68000"/><use xlink:href="#vJuLiy-FpxmK5zMaHCjl_pad-12" x="68000" y="-71020"/><use xlink:href="#vJuLiy-FpxmK5zMaHCjl_pad-12" x="68000" y="-68000"/><use xlink:href="#vJuLiy-FpxmK5zMaHCjl_pad-12" x="70000" y="-71020"/><use xlink:href="#vJuLiy-FpxmK5zMaHCjl_pad-12" x="70000" y="-68000"/><use xlink:href="#vJuLiy-FpxmK5zMaHCjl_pad-12" x="72000" y="-71020"/><use xlink:href="#vJuLiy-FpxmK5zMaHCjl_pad-12" x="72000" y="-68000"/><use xlink:href="#vJuLiy-FpxmK5zMaHCjl_pad-12" x="74000" y="-71020"/><use xlink:href="#vJuLiy-FpxmK5zMaHCjl_pad-12" x="74000" y="-68000"/><use xlink:href="#vJuLiy-FpxmK5zMaHCjl_pad-12" x="76000" y="-71020"/><use xlink:href="#vJuLiy-FpxmK5zMaHCjl_pad-12" x="76000" y="-68000"/><use xlink:href="#vJuLiy-FpxmK5zMaHCjl_pad-12" x="78000" y="-71020"/><use xlink:href="#vJuLiy-FpxmK5zMaHCjl_pad-12" x="78000" y="-68000"/><use xlink:href="#vJuLiy-FpxmK5zMaHCjl_pad-12" x="80000" y="-71020"/><use xlink:href="#vJuLiy-FpxmK5zMaHCjl_pad-12" x="80000" y="-68000"/><use xlink:href="#vJuLiy-FpxmK5zMaHCjl_pad-12" x="82000" y="-71020"/><use xlink:href="#vJuLiy-FpxmK5zMaHCjl_pad-12" x="82000" y="-68000"/><use xlink:href="#vJuLiy-FpxmK5zMaHCjl_pad-12" x="84000" y="-71020"/><use xlink:href="#vJuLiy-FpxmK5zMaHCjl_pad-12" x="84000" y="-68000"/><use xlink:href="#vJuLiy-FpxmK5zMaHCjl_pad-12" x="86000" y="-71020"/><use xlink:href="#vJuLiy-FpxmK5zMaHCjl_pad-12" x="86000" y="-68000"/><use xlink:href="#vJuLiy-FpxmK5zMaHCjl_pad-12" x="88000" y="-71020"/><use xlink:href="#vJuLiy-FpxmK5zMaHCjl_pad-12" x="88000" y="-68000"/><use xlink:href="#vJuLiy-FpxmK5zMaHCjl_pad-12" x="90000" y="-71020"/><use xlink:href="#vJuLiy-FpxmK5zMaHCjl_pad-12" x="90000" y="-68000"/><use xlink:href="#vJuLiy-FpxmK5zMaHCjl_pad-12" x="92000" y="-71020"/><use xlink:href="#vJuLiy-FpxmK5zMaHCjl_pad-12" x="92000" y="-68000"/><use xlink:href="#vJuLiy-FpxmK5zMaHCjl_pad-12" x="94000" y="-71020"/><use xlink:href="#vJuLiy-FpxmK5zMaHCjl_pad-12" x="94000" y="-68000"/><use xlink:href="#vJuLiy-FpxmK5zMaHCjl_pad-12" x="96000" y="-71020"/><use xlink:href="#vJuLiy-FpxmK5zMaHCjl_pad-12" x="96000" y="-68000"/><use xlink:href="#vJuLiy-FpxmK5zMaHCjl_pad-12" x="98000" y="-71020"/><use xlink:href="#vJuLiy-FpxmK5zMaHCjl_pad-12" x="98000" y="-68000"/><use xlink:href="#vJuLiy-FpxmK5zMaHCjl_pad-12" x="100000" y="-71020"/><use xlink:href="#vJuLiy-FpxmK5zMaHCjl_pad-12" x="100000" y="-68000"/><use xlink:href="#vJuLiy-FpxmK5zMaHCjl_pad-12" x="102000" y="-71020"/><use xlink:href="#vJuLiy-FpxmK5zMaHCjl_pad-12" x="102000" y="-68000"/><use xlink:href="#vJuLiy-FpxmK5zMaHCjl_pad-12" x="104000" y="-71020"/><use xlink:href="#vJuLiy-FpxmK5zMaHCjl_pad-12" x="104000" y="-68000"/><use xlink:href="#vJuLiy-FpxmK5zMaHCjl_pad-12" x="106000" y="-71020"/><use xlink:href="#vJuLiy-FpxmK5zMaHCjl_pad-12" x="106000" y="-68000"/><use xlink:href="#vJuLiy-FpxmK5zMaHCjl_pad-12" x="108000" y="-71020"/><use xlink:href="#vJuLiy-FpxmK5zMaHCjl_pad-12" x="108000" y="-68000"/><use xlink:href="#vJuLiy-FpxmK5zMaHCjl_pad-12" x="110000" y="-71020"/><use xlink:href="#vJuLiy-FpxmK5zMaHCjl_pad-12" x="110000" y="-68000"/><use xlink:href="#vJuLiy-FpxmK5zMaHCjl_pad-12" x="112000" y="-71020"/><use xlink:href="#vJuLiy-FpxmK5zMaHCjl_pad-12" x="112000" y="-68000"/><use xlink:href="#vJuLiy-FpxmK5zMaHCjl_pad-12" x="114000" y="-71020"/><use xlink:href="#vJuLiy-FpxmK5zMaHCjl_pad-12" x="114000" y="-68000"/><use xlink:href="#vJuLiy-FpxmK5zMaHCjl_pad-12" x="116000" y="-71020"/><use xlink:href="#vJuLiy-FpxmK5zMaHCjl_pad-12" x="116000" y="-68000"/><use xlink:href="#vJuLiy-FpxmK5zMaHCjl_pad-12" x="118000" y="-71020"/><use xlink:href="#vJuLiy-FpxmK5zMaHCjl_pad-12" x="118000" y="-68000"/><use xlink:href="#vJuLiy-FpxmK5zMaHCjl_pad-13" x="56300" y="-69510"/><use xlink:href="#vJuLiy-FpxmK5zMaHCjl_pad-13" x="121700" y="-69510"/><use xlink:href="#vJuLiy-FpxmK5zMaHCjl_pad-14" x="44450" y="-19050"/><use xlink:href="#vJuLiy-FpxmK5zMaHCjl_pad-11" x="58250" y="-94510"/><use xlink:href="#vJuLiy-FpxmK5zMaHCjl_pad-11" x="119750" y="-95510"/><use xlink:href="#vJuLiy-FpxmK5zMaHCjl_pad-12" x="60000" y="-96020"/><use xlink:href="#vJuLiy-FpxmK5zMaHCjl_pad-12" x="60000" y="-93000"/><use xlink:href="#vJuLiy-FpxmK5zMaHCjl_pad-12" x="62000" y="-96020"/><use xlink:href="#vJuLiy-FpxmK5zMaHCjl_pad-12" x="62000" y="-93000"/><use xlink:href="#vJuLiy-FpxmK5zMaHCjl_pad-12" x="64000" y="-96020"/><use xlink:href="#vJuLiy-FpxmK5zMaHCjl_pad-12" x="64000" y="-93000"/><use xlink:href="#vJuLiy-FpxmK5zMaHCjl_pad-12" x="66000" y="-96020"/><use xlink:href="#vJuLiy-FpxmK5zMaHCjl_pad-12" x="66000" y="-93000"/><use xlink:href="#vJuLiy-FpxmK5zMaHCjl_pad-12" x="68000" y="-96020"/><use xlink:href="#vJuLiy-FpxmK5zMaHCjl_pad-12" x="68000" y="-93000"/><use xlink:href="#vJuLiy-FpxmK5zMaHCjl_pad-12" x="70000" y="-96020"/><use xlink:href="#vJuLiy-FpxmK5zMaHCjl_pad-12" x="70000" y="-93000"/><use xlink:href="#vJuLiy-FpxmK5zMaHCjl_pad-12" x="72000" y="-96020"/><use xlink:href="#vJuLiy-FpxmK5zMaHCjl_pad-12" x="72000" y="-93000"/><use xlink:href="#vJuLiy-FpxmK5zMaHCjl_pad-12" x="74000" y="-96020"/><use xlink:href="#vJuLiy-FpxmK5zMaHCjl_pad-12" x="74000" y="-93000"/><use xlink:href="#vJuLiy-FpxmK5zMaHCjl_pad-12" x="76000" y="-96020"/><use xlink:href="#vJuLiy-FpxmK5zMaHCjl_pad-12" x="76000" y="-93000"/><use xlink:href="#vJuLiy-FpxmK5zMaHCjl_pad-12" x="78000" y="-96020"/><use xlink:href="#vJuLiy-FpxmK5zMaHCjl_pad-12" x="78000" y="-93000"/><use xlink:href="#vJuLiy-FpxmK5zMaHCjl_pad-12" x="80000" y="-96020"/><use xlink:href="#vJuLiy-FpxmK5zMaHCjl_pad-12" x="80000" y="-93000"/><use xlink:href="#vJuLiy-FpxmK5zMaHCjl_pad-12" x="82000" y="-96020"/><use xlink:href="#vJuLiy-FpxmK5zMaHCjl_pad-12" x="82000" y="-93000"/><use xlink:href="#vJuLiy-FpxmK5zMaHCjl_pad-12" x="84000" y="-96020"/><use xlink:href="#vJuLiy-FpxmK5zMaHCjl_pad-12" x="84000" y="-93000"/><use xlink:href="#vJuLiy-FpxmK5zMaHCjl_pad-12" x="86000" y="-96020"/><use xlink:href="#vJuLiy-FpxmK5zMaHCjl_pad-12" x="86000" y="-93000"/><use xlink:href="#vJuLiy-FpxmK5zMaHCjl_pad-12" x="88000" y="-96020"/><use xlink:href="#vJuLiy-FpxmK5zMaHCjl_pad-12" x="88000" y="-93000"/><use xlink:href="#vJuLiy-FpxmK5zMaHCjl_pad-12" x="90000" y="-96020"/><use xlink:href="#vJuLiy-FpxmK5zMaHCjl_pad-12" x="90000" y="-93000"/><use xlink:href="#vJuLiy-FpxmK5zMaHCjl_pad-12" x="92000" y="-96020"/><use xlink:href="#vJuLiy-FpxmK5zMaHCjl_pad-12" x="92000" y="-93000"/><use xlink:href="#vJuLiy-FpxmK5zMaHCjl_pad-12" x="94000" y="-96020"/><use xlink:href="#vJuLiy-FpxmK5zMaHCjl_pad-12" x="94000" y="-93000"/><use xlink:href="#vJuLiy-FpxmK5zMaHCjl_pad-12" x="96000" y="-96020"/><use xlink:href="#vJuLiy-FpxmK5zMaHCjl_pad-12" x="96000" y="-93000"/><use xlink:href="#vJuLiy-FpxmK5zMaHCjl_pad-12" x="98000" y="-96020"/><use xlink:href="#vJuLiy-FpxmK5zMaHCjl_pad-12" x="98000" y="-93000"/><use xlink:href="#vJuLiy-FpxmK5zMaHCjl_pad-12" x="100000" y="-96020"/><use xlink:href="#vJuLiy-FpxmK5zMaHCjl_pad-12" x="100000" y="-93000"/><use xlink:href="#vJuLiy-FpxmK5zMaHCjl_pad-12" x="102000" y="-96020"/><use xlink:href="#vJuLiy-FpxmK5zMaHCjl_pad-12" x="102000" y="-93000"/><use xlink:href="#vJuLiy-FpxmK5zMaHCjl_pad-12" x="104000" y="-96020"/><use xlink:href="#vJuLiy-FpxmK5zMaHCjl_pad-12" x="104000" y="-93000"/><use xlink:href="#vJuLiy-FpxmK5zMaHCjl_pad-12" x="106000" y="-96020"/><use xlink:href="#vJuLiy-FpxmK5zMaHCjl_pad-12" x="106000" y="-93000"/><use xlink:href="#vJuLiy-FpxmK5zMaHCjl_pad-12" x="108000" y="-96020"/><use xlink:href="#vJuLiy-FpxmK5zMaHCjl_pad-12" x="108000" y="-93000"/><use xlink:href="#vJuLiy-FpxmK5zMaHCjl_pad-12" x="110000" y="-96020"/><use xlink:href="#vJuLiy-FpxmK5zMaHCjl_pad-12" x="110000" y="-93000"/><use xlink:href="#vJuLiy-FpxmK5zMaHCjl_pad-12" x="112000" y="-96020"/><use xlink:href="#vJuLiy-FpxmK5zMaHCjl_pad-12" x="112000" y="-93000"/><use xlink:href="#vJuLiy-FpxmK5zMaHCjl_pad-12" x="114000" y="-96020"/><use xlink:href="#vJuLiy-FpxmK5zMaHCjl_pad-12" x="114000" y="-93000"/><use xlink:href="#vJuLiy-FpxmK5zMaHCjl_pad-12" x="116000" y="-96020"/><use xlink:href="#vJuLiy-FpxmK5zMaHCjl_pad-12" x="116000" y="-93000"/><use xlink:href="#vJuLiy-FpxmK5zMaHCjl_pad-12" x="118000" y="-96020"/><use xlink:href="#vJuLiy-FpxmK5zMaHCjl_pad-12" x="118000" y="-93000"/><use xlink:href="#vJuLiy-FpxmK5zMaHCjl_pad-13" x="56300" y="-94510"/><use xlink:href="#vJuLiy-FpxmK5zMaHCjl_pad-13" x="121700" y="-94510"/><use xlink:href="#vJuLiy-FpxmK5zMaHCjl_pad-15" x="152670" y="-23907.5"/><use xlink:href="#vJuLiy-FpxmK5zMaHCjl_pad-16" x="150130" y="-23907.5"/><use xlink:href="#vJuLiy-FpxmK5zMaHCjl_pad-16" x="152670" y="-26447.5"/><use xlink:href="#vJuLiy-FpxmK5zMaHCjl_pad-16" x="150130" y="-26447.5"/><use xlink:href="#vJuLiy-FpxmK5zMaHCjl_pad-16" x="152670" y="-28987.5"/><use xlink:href="#vJuLiy-FpxmK5zMaHCjl_pad-16" x="150130" y="-28987.5"/><use xlink:href="#vJuLiy-FpxmK5zMaHCjl_pad-16" x="152670" y="-31527.5"/><use xlink:href="#vJuLiy-FpxmK5zMaHCjl_pad-16" x="150130" y="-31527.5"/><use xlink:href="#vJuLiy-FpxmK5zMaHCjl_pad-16" x="152670" y="-34067.5"/><use xlink:href="#vJuLiy-FpxmK5zMaHCjl_pad-16" x="150130" y="-34067.5"/><use xlink:href="#vJuLiy-FpxmK5zMaHCjl_pad-16" x="152670" y="-36607.5"/><use xlink:href="#vJuLiy-FpxmK5zMaHCjl_pad-16" x="150130" y="-36607.5"/><use xlink:href="#vJuLiy-FpxmK5zMaHCjl_pad-16" x="152670" y="-39147.5"/><use xlink:href="#vJuLiy-FpxmK5zMaHCjl_pad-16" x="150130" y="-39147.5"/><use xlink:href="#vJuLiy-FpxmK5zMaHCjl_pad-16" x="152670" y="-41687.5"/><use xlink:href="#vJuLiy-FpxmK5zMaHCjl_pad-16" x="150130" y="-41687.5"/><use xlink:href="#vJuLiy-FpxmK5zMaHCjl_pad-16" x="152670" y="-44227.5"/><use xlink:href="#vJuLiy-FpxmK5zMaHCjl_pad-16" x="150130" y="-44227.5"/><use xlink:href="#vJuLiy-FpxmK5zMaHCjl_pad-16" x="152670" y="-46767.5"/><use xlink:href="#vJuLiy-FpxmK5zMaHCjl_pad-16" x="150130" y="-46767.5"/><use xlink:href="#vJuLiy-FpxmK5zMaHCjl_pad-16" x="152670" y="-49307.5"/><use xlink:href="#vJuLiy-FpxmK5zMaHCjl_pad-16" x="150130" y="-49307.5"/><use xlink:href="#vJuLiy-FpxmK5zMaHCjl_pad-16" x="152670" y="-51847.5"/><use xlink:href="#vJuLiy-FpxmK5zMaHCjl_pad-16" x="150130" y="-51847.5"/><use xlink:href="#vJuLiy-FpxmK5zMaHCjl_pad-16" x="152670" y="-54387.5"/><use xlink:href="#vJuLiy-FpxmK5zMaHCjl_pad-16" x="150130" y="-54387.5"/><use xlink:href="#vJuLiy-FpxmK5zMaHCjl_pad-16" x="152670" y="-56927.5"/><use xlink:href="#vJuLiy-FpxmK5zMaHCjl_pad-16" x="150130" y="-56927.5"/><use xlink:href="#vJuLiy-FpxmK5zMaHCjl_pad-16" x="152670" y="-59467.5"/><use xlink:href="#vJuLiy-FpxmK5zMaHCjl_pad-16" x="150130" y="-59467.5"/><use xlink:href="#vJuLiy-FpxmK5zMaHCjl_pad-16" x="152670" y="-62007.5"/><use xlink:href="#vJuLiy-FpxmK5zMaHCjl_pad-16" x="150130" y="-62007.5"/><use xlink:href="#vJuLiy-FpxmK5zMaHCjl_pad-16" x="152670" y="-64547.5"/><use xlink:href="#vJuLiy-FpxmK5zMaHCjl_pad-16" x="150130" y="-64547.5"/><use xlink:href="#vJuLiy-FpxmK5zMaHCjl_pad-16" x="152670" y="-67087.5"/><use xlink:href="#vJuLiy-FpxmK5zMaHCjl_pad-16" x="150130" y="-67087.5"/><use xlink:href="#vJuLiy-FpxmK5zMaHCjl_pad-16" x="152670" y="-69627.5"/><use xlink:href="#vJuLiy-FpxmK5zMaHCjl_pad-16" x="150130" y="-69627.5"/><use xlink:href="#vJuLiy-FpxmK5zMaHCjl_pad-16" x="152670" y="-72167.5"/><use xlink:href="#vJuLiy-FpxmK5zMaHCjl_pad-16" x="150130" y="-72167.5"/><use xlink:href="#vJuLiy-FpxmK5zMaHCjl_pad-16" x="152670" y="-74707.5"/><use xlink:href="#vJuLiy-FpxmK5zMaHCjl_pad-16" x="150130" y="-74707.5"/><use xlink:href="#vJuLiy-FpxmK5zMaHCjl_pad-16" x="152670" y="-77247.5"/><use xlink:href="#vJuLiy-FpxmK5zMaHCjl_pad-16" x="150130" y="-77247.5"/><use xlink:href="#vJuLiy-FpxmK5zMaHCjl_pad-16" x="152670" y="-79787.5"/><use xlink:href="#vJuLiy-FpxmK5zMaHCjl_pad-16" x="150130" y="-79787.5"/><use xlink:href="#vJuLiy-FpxmK5zMaHCjl_pad-16" x="152670" y="-82327.5"/><use xlink:href="#vJuLiy-FpxmK5zMaHCjl_pad-16" x="150130" y="-82327.5"/><use xlink:href="#vJuLiy-FpxmK5zMaHCjl_pad-16" x="152670" y="-84867.5"/><use xlink:href="#vJuLiy-FpxmK5zMaHCjl_pad-16" x="150130" y="-84867.5"/><use xlink:href="#vJuLiy-FpxmK5zMaHCjl_pad-14" x="44450" y="-114300"/><use xlink:href="#vJuLiy-FpxmK5zMaHCjl_pad-17" x="83825" y="-102287.5"/><use xlink:href="#vJuLiy-FpxmK5zMaHCjl_pad-17" x="84475" y="-102287.5"/><use xlink:href="#vJuLiy-FpxmK5zMaHCjl_pad-17" x="85125" y="-102287.5"/><use xlink:href="#vJuLiy-FpxmK5zMaHCjl_pad-17" x="85775" y="-102287.5"/><use xlink:href="#vJuLiy-FpxmK5zMaHCjl_pad-17" x="86425" y="-102287.5"/><use xlink:href="#vJuLiy-FpxmK5zMaHCjl_pad-17" x="87075" y="-102287.5"/><use xlink:href="#vJuLiy-FpxmK5zMaHCjl_pad-17" x="87725" y="-102287.5"/><use xlink:href="#vJuLiy-FpxmK5zMaHCjl_pad-17" x="88375" y="-102287.5"/><use xlink:href="#vJuLiy-FpxmK5zMaHCjl_pad-17" x="88375" y="-108012.5"/><use xlink:href="#vJuLiy-FpxmK5zMaHCjl_pad-17" x="87725" y="-108012.5"/><use xlink:href="#vJuLiy-FpxmK5zMaHCjl_pad-17" x="87075" y="-108012.5"/><use xlink:href="#vJuLiy-FpxmK5zMaHCjl_pad-17" x="86425" y="-108012.5"/><use xlink:href="#vJuLiy-FpxmK5zMaHCjl_pad-17" x="85775" y="-108012.5"/><use xlink:href="#vJuLiy-FpxmK5zMaHCjl_pad-17" x="85125" y="-108012.5"/><use xlink:href="#vJuLiy-FpxmK5zMaHCjl_pad-17" x="84475" y="-108012.5"/><use xlink:href="#vJuLiy-FpxmK5zMaHCjl_pad-17" x="83825" y="-108012.5"/><use xlink:href="#vJuLiy-FpxmK5zMaHCjl_pad-17" x="83804.6" y="-52204.7"/><use xlink:href="#vJuLiy-FpxmK5zMaHCjl_pad-17" x="84454.6" y="-52204.7"/><use xlink:href="#vJuLiy-FpxmK5zMaHCjl_pad-17" x="85104.6" y="-52204.7"/><use xlink:href="#vJuLiy-FpxmK5zMaHCjl_pad-17" x="85754.6" y="-52204.7"/><use xlink:href="#vJuLiy-FpxmK5zMaHCjl_pad-17" x="86404.6" y="-52204.7"/><use xlink:href="#vJuLiy-FpxmK5zMaHCjl_pad-17" x="87054.6" y="-52204.7"/><use xlink:href="#vJuLiy-FpxmK5zMaHCjl_pad-17" x="87704.6" y="-52204.7"/><use xlink:href="#vJuLiy-FpxmK5zMaHCjl_pad-17" x="88354.6" y="-52204.7"/><use xlink:href="#vJuLiy-FpxmK5zMaHCjl_pad-17" x="88354.6" y="-57929.7"/><use xlink:href="#vJuLiy-FpxmK5zMaHCjl_pad-17" x="87704.6" y="-57929.7"/><use xlink:href="#vJuLiy-FpxmK5zMaHCjl_pad-17" x="87054.6" y="-57929.7"/><use xlink:href="#vJuLiy-FpxmK5zMaHCjl_pad-17" x="86404.6" y="-57929.7"/><use xlink:href="#vJuLiy-FpxmK5zMaHCjl_pad-17" x="85754.6" y="-57929.7"/><use xlink:href="#vJuLiy-FpxmK5zMaHCjl_pad-17" x="85104.6" y="-57929.7"/><use xlink:href="#vJuLiy-FpxmK5zMaHCjl_pad-17" x="84454.6" y="-57929.7"/><use xlink:href="#vJuLiy-FpxmK5zMaHCjl_pad-17" x="83804.6" y="-57929.7"/><use xlink:href="#vJuLiy-FpxmK5zMaHCjl_pad-17" x="107855.6" y="-52272.2"/><use xlink:href="#vJuLiy-FpxmK5zMaHCjl_pad-17" x="108505.6" y="-52272.2"/><use xlink:href="#vJuLiy-FpxmK5zMaHCjl_pad-17" x="109155.6" y="-52272.2"/><use xlink:href="#vJuLiy-FpxmK5zMaHCjl_pad-17" x="109805.6" y="-52272.2"/><use xlink:href="#vJuLiy-FpxmK5zMaHCjl_pad-17" x="110455.6" y="-52272.2"/><use xlink:href="#vJuLiy-FpxmK5zMaHCjl_pad-17" x="111105.6" y="-52272.2"/><use xlink:href="#vJuLiy-FpxmK5zMaHCjl_pad-17" x="111755.6" y="-52272.2"/><use xlink:href="#vJuLiy-FpxmK5zMaHCjl_pad-17" x="112405.6" y="-52272.2"/><use xlink:href="#vJuLiy-FpxmK5zMaHCjl_pad-17" x="112405.6" y="-57997.2"/><use xlink:href="#vJuLiy-FpxmK5zMaHCjl_pad-17" x="111755.6" y="-57997.2"/><use xlink:href="#vJuLiy-FpxmK5zMaHCjl_pad-17" x="111105.6" y="-57997.2"/><use xlink:href="#vJuLiy-FpxmK5zMaHCjl_pad-17" x="110455.6" y="-57997.2"/><use xlink:href="#vJuLiy-FpxmK5zMaHCjl_pad-17" x="109805.6" y="-57997.2"/><use xlink:href="#vJuLiy-FpxmK5zMaHCjl_pad-17" x="109155.6" y="-57997.2"/><use xlink:href="#vJuLiy-FpxmK5zMaHCjl_pad-17" x="108505.6" y="-57997.2"/><use xlink:href="#vJuLiy-FpxmK5zMaHCjl_pad-17" x="107855.6" y="-57997.2"/><use xlink:href="#vJuLiy-FpxmK5zMaHCjl_pad-17" x="99819" y="-27137.5"/><use xlink:href="#vJuLiy-FpxmK5zMaHCjl_pad-17" x="100469" y="-27137.5"/><use xlink:href="#vJuLiy-FpxmK5zMaHCjl_pad-17" x="101119" y="-27137.5"/><use xlink:href="#vJuLiy-FpxmK5zMaHCjl_pad-17" x="101769" y="-27137.5"/><use xlink:href="#vJuLiy-FpxmK5zMaHCjl_pad-17" x="102419" y="-27137.5"/><use xlink:href="#vJuLiy-FpxmK5zMaHCjl_pad-17" x="103069" y="-27137.5"/><use xlink:href="#vJuLiy-FpxmK5zMaHCjl_pad-17" x="103719" y="-27137.5"/><use xlink:href="#vJuLiy-FpxmK5zMaHCjl_pad-17" x="104369" y="-27137.5"/><use xlink:href="#vJuLiy-FpxmK5zMaHCjl_pad-17" x="104369" y="-32862.5"/><use xlink:href="#vJuLiy-FpxmK5zMaHCjl_pad-17" x="103719" y="-32862.5"/><use xlink:href="#vJuLiy-FpxmK5zMaHCjl_pad-17" x="103069" y="-32862.5"/><use xlink:href="#vJuLiy-FpxmK5zMaHCjl_pad-17" x="102419" y="-32862.5"/><use xlink:href="#vJuLiy-FpxmK5zMaHCjl_pad-17" x="101769" y="-32862.5"/><use xlink:href="#vJuLiy-FpxmK5zMaHCjl_pad-17" x="101119" y="-32862.5"/><use xlink:href="#vJuLiy-FpxmK5zMaHCjl_pad-17" x="100469" y="-32862.5"/><use xlink:href="#vJuLiy-FpxmK5zMaHCjl_pad-17" x="99819" y="-32862.5"/><use xlink:href="#vJuLiy-FpxmK5zMaHCjl_pad-17" x="107825" y="-102287.5"/><use xlink:href="#vJuLiy-FpxmK5zMaHCjl_pad-17" x="108475" y="-102287.5"/><use xlink:href="#vJuLiy-FpxmK5zMaHCjl_pad-17" x="109125" y="-102287.5"/><use xlink:href="#vJuLiy-FpxmK5zMaHCjl_pad-17" x="109775" y="-102287.5"/><use xlink:href="#vJuLiy-FpxmK5zMaHCjl_pad-17" x="110425" y="-102287.5"/><use xlink:href="#vJuLiy-FpxmK5zMaHCjl_pad-17" x="111075" y="-102287.5"/><use xlink:href="#vJuLiy-FpxmK5zMaHCjl_pad-17" x="111725" y="-102287.5"/><use xlink:href="#vJuLiy-FpxmK5zMaHCjl_pad-17" x="112375" y="-102287.5"/><use xlink:href="#vJuLiy-FpxmK5zMaHCjl_pad-17" x="112375" y="-108012.5"/><use xlink:href="#vJuLiy-FpxmK5zMaHCjl_pad-17" x="111725" y="-108012.5"/><use xlink:href="#vJuLiy-FpxmK5zMaHCjl_pad-17" x="111075" y="-108012.5"/><use xlink:href="#vJuLiy-FpxmK5zMaHCjl_pad-17" x="110425" y="-108012.5"/><use xlink:href="#vJuLiy-FpxmK5zMaHCjl_pad-17" x="109775" y="-108012.5"/><use xlink:href="#vJuLiy-FpxmK5zMaHCjl_pad-17" x="109125" y="-108012.5"/><use xlink:href="#vJuLiy-FpxmK5zMaHCjl_pad-17" x="108475" y="-108012.5"/><use xlink:href="#vJuLiy-FpxmK5zMaHCjl_pad-17" x="107825" y="-108012.5"/><use xlink:href="#vJuLiy-FpxmK5zMaHCjl_pad-17" x="99825" y="-77237.5"/><use xlink:href="#vJuLiy-FpxmK5zMaHCjl_pad-17" x="100475" y="-77237.5"/><use xlink:href="#vJuLiy-FpxmK5zMaHCjl_pad-17" x="101125" y="-77237.5"/><use xlink:href="#vJuLiy-FpxmK5zMaHCjl_pad-17" x="101775" y="-77237.5"/><use xlink:href="#vJuLiy-FpxmK5zMaHCjl_pad-17" x="102425" y="-77237.5"/><use xlink:href="#vJuLiy-FpxmK5zMaHCjl_pad-17" x="103075" y="-77237.5"/><use xlink:href="#vJuLiy-FpxmK5zMaHCjl_pad-17" x="103725" y="-77237.5"/><use xlink:href="#vJuLiy-FpxmK5zMaHCjl_pad-17" x="104375" y="-77237.5"/><use xlink:href="#vJuLiy-FpxmK5zMaHCjl_pad-17" x="104375" y="-82962.5"/><use xlink:href="#vJuLiy-FpxmK5zMaHCjl_pad-17" x="103725" y="-82962.5"/><use xlink:href="#vJuLiy-FpxmK5zMaHCjl_pad-17" x="103075" y="-82962.5"/><use xlink:href="#vJuLiy-FpxmK5zMaHCjl_pad-17" x="102425" y="-82962.5"/><use xlink:href="#vJuLiy-FpxmK5zMaHCjl_pad-17" x="101775" y="-82962.5"/><use xlink:href="#vJuLiy-FpxmK5zMaHCjl_pad-17" x="101125" y="-82962.5"/><use xlink:href="#vJuLiy-FpxmK5zMaHCjl_pad-17" x="100475" y="-82962.5"/><use xlink:href="#vJuLiy-FpxmK5zMaHCjl_pad-17" x="99825" y="-82962.5"/><use xlink:href="#vJuLiy-FpxmK5zMaHCjl_pad-17" x="75819" y="-27137.5"/><use xlink:href="#vJuLiy-FpxmK5zMaHCjl_pad-17" x="76469" y="-27137.5"/><use xlink:href="#vJuLiy-FpxmK5zMaHCjl_pad-17" x="77119" y="-27137.5"/><use xlink:href="#vJuLiy-FpxmK5zMaHCjl_pad-17" x="77769" y="-27137.5"/><use xlink:href="#vJuLiy-FpxmK5zMaHCjl_pad-17" x="78419" y="-27137.5"/><use xlink:href="#vJuLiy-FpxmK5zMaHCjl_pad-17" x="79069" y="-27137.5"/><use xlink:href="#vJuLiy-FpxmK5zMaHCjl_pad-17" x="79719" y="-27137.5"/><use xlink:href="#vJuLiy-FpxmK5zMaHCjl_pad-17" x="80369" y="-27137.5"/><use xlink:href="#vJuLiy-FpxmK5zMaHCjl_pad-17" x="80369" y="-32862.5"/><use xlink:href="#vJuLiy-FpxmK5zMaHCjl_pad-17" x="79719" y="-32862.5"/><use xlink:href="#vJuLiy-FpxmK5zMaHCjl_pad-17" x="79069" y="-32862.5"/><use xlink:href="#vJuLiy-FpxmK5zMaHCjl_pad-17" x="78419" y="-32862.5"/><use xlink:href="#vJuLiy-FpxmK5zMaHCjl_pad-17" x="77769" y="-32862.5"/><use xlink:href="#vJuLiy-FpxmK5zMaHCjl_pad-17" x="77119" y="-32862.5"/><use xlink:href="#vJuLiy-FpxmK5zMaHCjl_pad-17" x="76469" y="-32862.5"/><use xlink:href="#vJuLiy-FpxmK5zMaHCjl_pad-17" x="75819" y="-32862.5"/><use xlink:href="#vJuLiy-FpxmK5zMaHCjl_pad-17" x="75825" y="-77237.5"/><use xlink:href="#vJuLiy-FpxmK5zMaHCjl_pad-17" x="76475" y="-77237.5"/><use xlink:href="#vJuLiy-FpxmK5zMaHCjl_pad-17" x="77125" y="-77237.5"/><use xlink:href="#vJuLiy-FpxmK5zMaHCjl_pad-17" x="77775" y="-77237.5"/><use xlink:href="#vJuLiy-FpxmK5zMaHCjl_pad-17" x="78425" y="-77237.5"/><use xlink:href="#vJuLiy-FpxmK5zMaHCjl_pad-17" x="79075" y="-77237.5"/><use xlink:href="#vJuLiy-FpxmK5zMaHCjl_pad-17" x="79725" y="-77237.5"/><use xlink:href="#vJuLiy-FpxmK5zMaHCjl_pad-17" x="80375" y="-77237.5"/><use xlink:href="#vJuLiy-FpxmK5zMaHCjl_pad-17" x="80375" y="-82962.5"/><use xlink:href="#vJuLiy-FpxmK5zMaHCjl_pad-17" x="79725" y="-82962.5"/><use xlink:href="#vJuLiy-FpxmK5zMaHCjl_pad-17" x="79075" y="-82962.5"/><use xlink:href="#vJuLiy-FpxmK5zMaHCjl_pad-17" x="78425" y="-82962.5"/><use xlink:href="#vJuLiy-FpxmK5zMaHCjl_pad-17" x="77775" y="-82962.5"/><use xlink:href="#vJuLiy-FpxmK5zMaHCjl_pad-17" x="77125" y="-82962.5"/><use xlink:href="#vJuLiy-FpxmK5zMaHCjl_pad-17" x="76475" y="-82962.5"/><use xlink:href="#vJuLiy-FpxmK5zMaHCjl_pad-17" x="75825" y="-82962.5"/><use xlink:href="#vJuLiy-FpxmK5zMaHCjl_pad-17" x="83819" y="-27137.5"/><use xlink:href="#vJuLiy-FpxmK5zMaHCjl_pad-17" x="84469" y="-27137.5"/><use xlink:href="#vJuLiy-FpxmK5zMaHCjl_pad-17" x="85119" y="-27137.5"/><use xlink:href="#vJuLiy-FpxmK5zMaHCjl_pad-17" x="85769" y="-27137.5"/><use xlink:href="#vJuLiy-FpxmK5zMaHCjl_pad-17" x="86419" y="-27137.5"/><use xlink:href="#vJuLiy-FpxmK5zMaHCjl_pad-17" x="87069" y="-27137.5"/><use xlink:href="#vJuLiy-FpxmK5zMaHCjl_pad-17" x="87719" y="-27137.5"/><use xlink:href="#vJuLiy-FpxmK5zMaHCjl_pad-17" x="88369" y="-27137.5"/><use xlink:href="#vJuLiy-FpxmK5zMaHCjl_pad-17" x="88369" y="-32862.5"/><use xlink:href="#vJuLiy-FpxmK5zMaHCjl_pad-17" x="87719" y="-32862.5"/><use xlink:href="#vJuLiy-FpxmK5zMaHCjl_pad-17" x="87069" y="-32862.5"/><use xlink:href="#vJuLiy-FpxmK5zMaHCjl_pad-17" x="86419" y="-32862.5"/><use xlink:href="#vJuLiy-FpxmK5zMaHCjl_pad-17" x="85769" y="-32862.5"/><use xlink:href="#vJuLiy-FpxmK5zMaHCjl_pad-17" x="85119" y="-32862.5"/><use xlink:href="#vJuLiy-FpxmK5zMaHCjl_pad-17" x="84469" y="-32862.5"/><use xlink:href="#vJuLiy-FpxmK5zMaHCjl_pad-17" x="83819" y="-32862.5"/><use xlink:href="#vJuLiy-FpxmK5zMaHCjl_pad-17" x="91819" y="-27137.5"/><use xlink:href="#vJuLiy-FpxmK5zMaHCjl_pad-17" x="92469" y="-27137.5"/><use xlink:href="#vJuLiy-FpxmK5zMaHCjl_pad-17" x="93119" y="-27137.5"/><use xlink:href="#vJuLiy-FpxmK5zMaHCjl_pad-17" x="93769" y="-27137.5"/><use xlink:href="#vJuLiy-FpxmK5zMaHCjl_pad-17" x="94419" y="-27137.5"/><use xlink:href="#vJuLiy-FpxmK5zMaHCjl_pad-17" x="95069" y="-27137.5"/><use xlink:href="#vJuLiy-FpxmK5zMaHCjl_pad-17" x="95719" y="-27137.5"/><use xlink:href="#vJuLiy-FpxmK5zMaHCjl_pad-17" x="96369" y="-27137.5"/><use xlink:href="#vJuLiy-FpxmK5zMaHCjl_pad-17" x="96369" y="-32862.5"/><use xlink:href="#vJuLiy-FpxmK5zMaHCjl_pad-17" x="95719" y="-32862.5"/><use xlink:href="#vJuLiy-FpxmK5zMaHCjl_pad-17" x="95069" y="-32862.5"/><use xlink:href="#vJuLiy-FpxmK5zMaHCjl_pad-17" x="94419" y="-32862.5"/><use xlink:href="#vJuLiy-FpxmK5zMaHCjl_pad-17" x="93769" y="-32862.5"/><use xlink:href="#vJuLiy-FpxmK5zMaHCjl_pad-17" x="93119" y="-32862.5"/><use xlink:href="#vJuLiy-FpxmK5zMaHCjl_pad-17" x="92469" y="-32862.5"/><use xlink:href="#vJuLiy-FpxmK5zMaHCjl_pad-17" x="91819" y="-32862.5"/><use xlink:href="#vJuLiy-FpxmK5zMaHCjl_pad-17" x="107825" y="-77287.5"/><use xlink:href="#vJuLiy-FpxmK5zMaHCjl_pad-17" x="108475" y="-77287.5"/><use xlink:href="#vJuLiy-FpxmK5zMaHCjl_pad-17" x="109125" y="-77287.5"/><use xlink:href="#vJuLiy-FpxmK5zMaHCjl_pad-17" x="109775" y="-77287.5"/><use xlink:href="#vJuLiy-FpxmK5zMaHCjl_pad-17" x="110425" y="-77287.5"/><use xlink:href="#vJuLiy-FpxmK5zMaHCjl_pad-17" x="111075" y="-77287.5"/><use xlink:href="#vJuLiy-FpxmK5zMaHCjl_pad-17" x="111725" y="-77287.5"/><use xlink:href="#vJuLiy-FpxmK5zMaHCjl_pad-17" x="112375" y="-77287.5"/><use xlink:href="#vJuLiy-FpxmK5zMaHCjl_pad-17" x="112375" y="-83012.5"/><use xlink:href="#vJuLiy-FpxmK5zMaHCjl_pad-17" x="111725" y="-83012.5"/><use xlink:href="#vJuLiy-FpxmK5zMaHCjl_pad-17" x="111075" y="-83012.5"/><use xlink:href="#vJuLiy-FpxmK5zMaHCjl_pad-17" x="110425" y="-83012.5"/><use xlink:href="#vJuLiy-FpxmK5zMaHCjl_pad-17" x="109775" y="-83012.5"/><use xlink:href="#vJuLiy-FpxmK5zMaHCjl_pad-17" x="109125" y="-83012.5"/><use xlink:href="#vJuLiy-FpxmK5zMaHCjl_pad-17" x="108475" y="-83012.5"/><use xlink:href="#vJuLiy-FpxmK5zMaHCjl_pad-17" x="107825" y="-83012.5"/><use xlink:href="#vJuLiy-FpxmK5zMaHCjl_pad-17" x="107819" y="-27137.5"/><use xlink:href="#vJuLiy-FpxmK5zMaHCjl_pad-17" x="108469" y="-27137.5"/><use xlink:href="#vJuLiy-FpxmK5zMaHCjl_pad-17" x="109119" y="-27137.5"/><use xlink:href="#vJuLiy-FpxmK5zMaHCjl_pad-17" x="109769" y="-27137.5"/><use xlink:href="#vJuLiy-FpxmK5zMaHCjl_pad-17" x="110419" y="-27137.5"/><use xlink:href="#vJuLiy-FpxmK5zMaHCjl_pad-17" x="111069" y="-27137.5"/><use xlink:href="#vJuLiy-FpxmK5zMaHCjl_pad-17" x="111719" y="-27137.5"/><use xlink:href="#vJuLiy-FpxmK5zMaHCjl_pad-17" x="112369" y="-27137.5"/><use xlink:href="#vJuLiy-FpxmK5zMaHCjl_pad-17" x="112369" y="-32862.5"/><use xlink:href="#vJuLiy-FpxmK5zMaHCjl_pad-17" x="111719" y="-32862.5"/><use xlink:href="#vJuLiy-FpxmK5zMaHCjl_pad-17" x="111069" y="-32862.5"/><use xlink:href="#vJuLiy-FpxmK5zMaHCjl_pad-17" x="110419" y="-32862.5"/><use xlink:href="#vJuLiy-FpxmK5zMaHCjl_pad-17" x="109769" y="-32862.5"/><use xlink:href="#vJuLiy-FpxmK5zMaHCjl_pad-17" x="109119" y="-32862.5"/><use xlink:href="#vJuLiy-FpxmK5zMaHCjl_pad-17" x="108469" y="-32862.5"/><use xlink:href="#vJuLiy-FpxmK5zMaHCjl_pad-17" x="107819" y="-32862.5"/><use xlink:href="#vJuLiy-FpxmK5zMaHCjl_pad-17" x="83825" y="-77237.5"/><use xlink:href="#vJuLiy-FpxmK5zMaHCjl_pad-17" x="84475" y="-77237.5"/><use xlink:href="#vJuLiy-FpxmK5zMaHCjl_pad-17" x="85125" y="-77237.5"/><use xlink:href="#vJuLiy-FpxmK5zMaHCjl_pad-17" x="85775" y="-77237.5"/><use xlink:href="#vJuLiy-FpxmK5zMaHCjl_pad-17" x="86425" y="-77237.5"/><use xlink:href="#vJuLiy-FpxmK5zMaHCjl_pad-17" x="87075" y="-77237.5"/><use xlink:href="#vJuLiy-FpxmK5zMaHCjl_pad-17" x="87725" y="-77237.5"/><use xlink:href="#vJuLiy-FpxmK5zMaHCjl_pad-17" x="88375" y="-77237.5"/><use xlink:href="#vJuLiy-FpxmK5zMaHCjl_pad-17" x="88375" y="-82962.5"/><use xlink:href="#vJuLiy-FpxmK5zMaHCjl_pad-17" x="87725" y="-82962.5"/><use xlink:href="#vJuLiy-FpxmK5zMaHCjl_pad-17" x="87075" y="-82962.5"/><use xlink:href="#vJuLiy-FpxmK5zMaHCjl_pad-17" x="86425" y="-82962.5"/><use xlink:href="#vJuLiy-FpxmK5zMaHCjl_pad-17" x="85775" y="-82962.5"/><use xlink:href="#vJuLiy-FpxmK5zMaHCjl_pad-17" x="85125" y="-82962.5"/><use xlink:href="#vJuLiy-FpxmK5zMaHCjl_pad-17" x="84475" y="-82962.5"/><use xlink:href="#vJuLiy-FpxmK5zMaHCjl_pad-17" x="83825" y="-82962.5"/><use xlink:href="#vJuLiy-FpxmK5zMaHCjl_pad-17" x="99825" y="-102287.5"/><use xlink:href="#vJuLiy-FpxmK5zMaHCjl_pad-17" x="100475" y="-102287.5"/><use xlink:href="#vJuLiy-FpxmK5zMaHCjl_pad-17" x="101125" y="-102287.5"/><use xlink:href="#vJuLiy-FpxmK5zMaHCjl_pad-17" x="101775" y="-102287.5"/><use xlink:href="#vJuLiy-FpxmK5zMaHCjl_pad-17" x="102425" y="-102287.5"/><use xlink:href="#vJuLiy-FpxmK5zMaHCjl_pad-17" x="103075" y="-102287.5"/><use xlink:href="#vJuLiy-FpxmK5zMaHCjl_pad-17" x="103725" y="-102287.5"/><use xlink:href="#vJuLiy-FpxmK5zMaHCjl_pad-17" x="104375" y="-102287.5"/><use xlink:href="#vJuLiy-FpxmK5zMaHCjl_pad-17" x="104375" y="-108012.5"/><use xlink:href="#vJuLiy-FpxmK5zMaHCjl_pad-17" x="103725" y="-108012.5"/><use xlink:href="#vJuLiy-FpxmK5zMaHCjl_pad-17" x="103075" y="-108012.5"/><use xlink:href="#vJuLiy-FpxmK5zMaHCjl_pad-17" x="102425" y="-108012.5"/><use xlink:href="#vJuLiy-FpxmK5zMaHCjl_pad-17" x="101775" y="-108012.5"/><use xlink:href="#vJuLiy-FpxmK5zMaHCjl_pad-17" x="101125" y="-108012.5"/><use xlink:href="#vJuLiy-FpxmK5zMaHCjl_pad-17" x="100475" y="-108012.5"/><use xlink:href="#vJuLiy-FpxmK5zMaHCjl_pad-17" x="99825" y="-108012.5"/><use xlink:href="#vJuLiy-FpxmK5zMaHCjl_pad-17" x="99804.6" y="-52204.7"/><use xlink:href="#vJuLiy-FpxmK5zMaHCjl_pad-17" x="100454.6" y="-52204.7"/><use xlink:href="#vJuLiy-FpxmK5zMaHCjl_pad-17" x="101104.6" y="-52204.7"/><use xlink:href="#vJuLiy-FpxmK5zMaHCjl_pad-17" x="101754.6" y="-52204.7"/><use xlink:href="#vJuLiy-FpxmK5zMaHCjl_pad-17" x="102404.6" y="-52204.7"/><use xlink:href="#vJuLiy-FpxmK5zMaHCjl_pad-17" x="103054.6" y="-52204.7"/><use xlink:href="#vJuLiy-FpxmK5zMaHCjl_pad-17" x="103704.6" y="-52204.7"/><use xlink:href="#vJuLiy-FpxmK5zMaHCjl_pad-17" x="104354.6" y="-52204.7"/><use xlink:href="#vJuLiy-FpxmK5zMaHCjl_pad-17" x="104354.6" y="-57929.7"/><use xlink:href="#vJuLiy-FpxmK5zMaHCjl_pad-17" x="103704.6" y="-57929.7"/><use xlink:href="#vJuLiy-FpxmK5zMaHCjl_pad-17" x="103054.6" y="-57929.7"/><use xlink:href="#vJuLiy-FpxmK5zMaHCjl_pad-17" x="102404.6" y="-57929.7"/><use xlink:href="#vJuLiy-FpxmK5zMaHCjl_pad-17" x="101754.6" y="-57929.7"/><use xlink:href="#vJuLiy-FpxmK5zMaHCjl_pad-17" x="101104.6" y="-57929.7"/><use xlink:href="#vJuLiy-FpxmK5zMaHCjl_pad-17" x="100454.6" y="-57929.7"/><use xlink:href="#vJuLiy-FpxmK5zMaHCjl_pad-17" x="99804.6" y="-57929.7"/><use xlink:href="#vJuLiy-FpxmK5zMaHCjl_pad-17" x="91825" y="-102287.5"/><use xlink:href="#vJuLiy-FpxmK5zMaHCjl_pad-17" x="92475" y="-102287.5"/><use xlink:href="#vJuLiy-FpxmK5zMaHCjl_pad-17" x="93125" y="-102287.5"/><use xlink:href="#vJuLiy-FpxmK5zMaHCjl_pad-17" x="93775" y="-102287.5"/><use xlink:href="#vJuLiy-FpxmK5zMaHCjl_pad-17" x="94425" y="-102287.5"/><use xlink:href="#vJuLiy-FpxmK5zMaHCjl_pad-17" x="95075" y="-102287.5"/><use xlink:href="#vJuLiy-FpxmK5zMaHCjl_pad-17" x="95725" y="-102287.5"/><use xlink:href="#vJuLiy-FpxmK5zMaHCjl_pad-17" x="96375" y="-102287.5"/><use xlink:href="#vJuLiy-FpxmK5zMaHCjl_pad-17" x="96375" y="-108012.5"/><use xlink:href="#vJuLiy-FpxmK5zMaHCjl_pad-17" x="95725" y="-108012.5"/><use xlink:href="#vJuLiy-FpxmK5zMaHCjl_pad-17" x="95075" y="-108012.5"/><use xlink:href="#vJuLiy-FpxmK5zMaHCjl_pad-17" x="94425" y="-108012.5"/><use xlink:href="#vJuLiy-FpxmK5zMaHCjl_pad-17" x="93775" y="-108012.5"/><use xlink:href="#vJuLiy-FpxmK5zMaHCjl_pad-17" x="93125" y="-108012.5"/><use xlink:href="#vJuLiy-FpxmK5zMaHCjl_pad-17" x="92475" y="-108012.5"/><use xlink:href="#vJuLiy-FpxmK5zMaHCjl_pad-17" x="91825" y="-108012.5"/><use xlink:href="#vJuLiy-FpxmK5zMaHCjl_pad-17" x="91825" y="-77237.5"/><use xlink:href="#vJuLiy-FpxmK5zMaHCjl_pad-17" x="92475" y="-77237.5"/><use xlink:href="#vJuLiy-FpxmK5zMaHCjl_pad-17" x="93125" y="-77237.5"/><use xlink:href="#vJuLiy-FpxmK5zMaHCjl_pad-17" x="93775" y="-77237.5"/><use xlink:href="#vJuLiy-FpxmK5zMaHCjl_pad-17" x="94425" y="-77237.5"/><use xlink:href="#vJuLiy-FpxmK5zMaHCjl_pad-17" x="95075" y="-77237.5"/><use xlink:href="#vJuLiy-FpxmK5zMaHCjl_pad-17" x="95725" y="-77237.5"/><use xlink:href="#vJuLiy-FpxmK5zMaHCjl_pad-17" x="96375" y="-77237.5"/><use xlink:href="#vJuLiy-FpxmK5zMaHCjl_pad-17" x="96375" y="-82962.5"/><use xlink:href="#vJuLiy-FpxmK5zMaHCjl_pad-17" x="95725" y="-82962.5"/><use xlink:href="#vJuLiy-FpxmK5zMaHCjl_pad-17" x="95075" y="-82962.5"/><use xlink:href="#vJuLiy-FpxmK5zMaHCjl_pad-17" x="94425" y="-82962.5"/><use xlink:href="#vJuLiy-FpxmK5zMaHCjl_pad-17" x="93775" y="-82962.5"/><use xlink:href="#vJuLiy-FpxmK5zMaHCjl_pad-17" x="93125" y="-82962.5"/><use xlink:href="#vJuLiy-FpxmK5zMaHCjl_pad-17" x="92475" y="-82962.5"/><use xlink:href="#vJuLiy-FpxmK5zMaHCjl_pad-17" x="91825" y="-82962.5"/><use xlink:href="#vJuLiy-FpxmK5zMaHCjl_pad-17" x="75825" y="-102287.5"/><use xlink:href="#vJuLiy-FpxmK5zMaHCjl_pad-17" x="76475" y="-102287.5"/><use xlink:href="#vJuLiy-FpxmK5zMaHCjl_pad-17" x="77125" y="-102287.5"/><use xlink:href="#vJuLiy-FpxmK5zMaHCjl_pad-17" x="77775" y="-102287.5"/><use xlink:href="#vJuLiy-FpxmK5zMaHCjl_pad-17" x="78425" y="-102287.5"/><use xlink:href="#vJuLiy-FpxmK5zMaHCjl_pad-17" x="79075" y="-102287.5"/><use xlink:href="#vJuLiy-FpxmK5zMaHCjl_pad-17" x="79725" y="-102287.5"/><use xlink:href="#vJuLiy-FpxmK5zMaHCjl_pad-17" x="80375" y="-102287.5"/><use xlink:href="#vJuLiy-FpxmK5zMaHCjl_pad-17" x="80375" y="-108012.5"/><use xlink:href="#vJuLiy-FpxmK5zMaHCjl_pad-17" x="79725" y="-108012.5"/><use xlink:href="#vJuLiy-FpxmK5zMaHCjl_pad-17" x="79075" y="-108012.5"/><use xlink:href="#vJuLiy-FpxmK5zMaHCjl_pad-17" x="78425" y="-108012.5"/><use xlink:href="#vJuLiy-FpxmK5zMaHCjl_pad-17" x="77775" y="-108012.5"/><use xlink:href="#vJuLiy-FpxmK5zMaHCjl_pad-17" x="77125" y="-108012.5"/><use xlink:href="#vJuLiy-FpxmK5zMaHCjl_pad-17" x="76475" y="-108012.5"/><use xlink:href="#vJuLiy-FpxmK5zMaHCjl_pad-17" x="75825" y="-108012.5"/><use xlink:href="#vJuLiy-FpxmK5zMaHCjl_pad-17" x="75804.6" y="-52204.7"/><use xlink:href="#vJuLiy-FpxmK5zMaHCjl_pad-17" x="76454.6" y="-52204.7"/><use xlink:href="#vJuLiy-FpxmK5zMaHCjl_pad-17" x="77104.6" y="-52204.7"/><use xlink:href="#vJuLiy-FpxmK5zMaHCjl_pad-17" x="77754.6" y="-52204.7"/><use xlink:href="#vJuLiy-FpxmK5zMaHCjl_pad-17" x="78404.6" y="-52204.7"/><use xlink:href="#vJuLiy-FpxmK5zMaHCjl_pad-17" x="79054.6" y="-52204.7"/><use xlink:href="#vJuLiy-FpxmK5zMaHCjl_pad-17" x="79704.6" y="-52204.7"/><use xlink:href="#vJuLiy-FpxmK5zMaHCjl_pad-17" x="80354.6" y="-52204.7"/><use xlink:href="#vJuLiy-FpxmK5zMaHCjl_pad-17" x="80354.6" y="-57929.7"/><use xlink:href="#vJuLiy-FpxmK5zMaHCjl_pad-17" x="79704.6" y="-57929.7"/><use xlink:href="#vJuLiy-FpxmK5zMaHCjl_pad-17" x="79054.6" y="-57929.7"/><use xlink:href="#vJuLiy-FpxmK5zMaHCjl_pad-17" x="78404.6" y="-57929.7"/><use xlink:href="#vJuLiy-FpxmK5zMaHCjl_pad-17" x="77754.6" y="-57929.7"/><use xlink:href="#vJuLiy-FpxmK5zMaHCjl_pad-17" x="77104.6" y="-57929.7"/><use xlink:href="#vJuLiy-FpxmK5zMaHCjl_pad-17" x="76454.6" y="-57929.7"/><use xlink:href="#vJuLiy-FpxmK5zMaHCjl_pad-17" x="75804.6" y="-57929.7"/><use xlink:href="#vJuLiy-FpxmK5zMaHCjl_pad-17" x="91804.6" y="-52204.7"/><use xlink:href="#vJuLiy-FpxmK5zMaHCjl_pad-17" x="92454.6" y="-52204.7"/><use xlink:href="#vJuLiy-FpxmK5zMaHCjl_pad-17" x="93104.6" y="-52204.7"/><use xlink:href="#vJuLiy-FpxmK5zMaHCjl_pad-17" x="93754.6" y="-52204.7"/><use xlink:href="#vJuLiy-FpxmK5zMaHCjl_pad-17" x="94404.6" y="-52204.7"/><use xlink:href="#vJuLiy-FpxmK5zMaHCjl_pad-17" x="95054.6" y="-52204.7"/><use xlink:href="#vJuLiy-FpxmK5zMaHCjl_pad-17" x="95704.6" y="-52204.7"/><use xlink:href="#vJuLiy-FpxmK5zMaHCjl_pad-17" x="96354.6" y="-52204.7"/><use xlink:href="#vJuLiy-FpxmK5zMaHCjl_pad-17" x="96354.6" y="-57929.7"/><use xlink:href="#vJuLiy-FpxmK5zMaHCjl_pad-17" x="95704.6" y="-57929.7"/><use xlink:href="#vJuLiy-FpxmK5zMaHCjl_pad-17" x="95054.6" y="-57929.7"/><use xlink:href="#vJuLiy-FpxmK5zMaHCjl_pad-17" x="94404.6" y="-57929.7"/><use xlink:href="#vJuLiy-FpxmK5zMaHCjl_pad-17" x="93754.6" y="-57929.7"/><use xlink:href="#vJuLiy-FpxmK5zMaHCjl_pad-17" x="93104.6" y="-57929.7"/><use xlink:href="#vJuLiy-FpxmK5zMaHCjl_pad-17" x="92454.6" y="-57929.7"/><use xlink:href="#vJuLiy-FpxmK5zMaHCjl_pad-17" x="91804.6" y="-57929.7"/></g></svg>