<svg version="1.1" xmlns="http://www.w3.org/2000/svg" xmlns:xlink="http://www.w3.org/1999/xlink" stroke-linecap="round" stroke-linejoin="round" stroke-width="0" fill-rule="evenodd" width="4.355in" height="3.85055in" viewBox="1676.05 -4543.3 4355 3850.55" id="WGACRNKzNXKGmpzL2DsB"><defs><circle cx="0" cy="0" r="3.95" id="WGACRNKzNXKGmpzL2DsB_pad-1"/><circle cx="0" cy="0" r="15.75" id="WGACRNKzNXKGmpzL2DsB_pad-2"/><circle cx="0" cy="0" r="15.95" id="WGACRNKzNXKGmpzL2DsB_pad-3"/><circle cx="0" cy="0" r="19.7" id="WGACRNKzNXKGmpzL2DsB_pad-4"/><circle cx="0" cy="0" r="20.45" id="WGACRNKzNXKGmpzL2DsB_pad-5"/><circle cx="0" cy="0" r="43.3" id="WGACRNKzNXKGmpzL2DsB_pad-6"/></defs><g transform="translate(0,-5236.05) scale(1,-1)" fill="currentColor" stroke="currentColor"><use xlink:href="#WGACRNKzNXKGmpzL2DsB_pad-1" x="1680" y="-1195"/><use xlink:href="#WGACRNKzNXKGmpzL2DsB_pad-1" x="1705" y="-1880"/><use xlink:href="#WGACRNKzNXKGmpzL2DsB_pad-1" x="1705" y="-2485"/><use xlink:href="#WGACRNKzNXKGmpzL2DsB_pad-1" x="1705" y="-3920"/><use xlink:href="#WGACRNKzNXKGmpzL2DsB_pad-1" x="1710" y="-3235"/><use xlink:href="#WGACRNKzNXKGmpzL2DsB_pad-1" x="1805" y="-1195"/><use xlink:href="#WGACRNKzNXKGmpzL2DsB_pad-1" x="1830" y="-1880"/><use xlink:href="#WGACRNKzNXKGmpzL2DsB_pad-1" x="1830" y="-2485"/><use xlink:href="#WGACRNKzNXKGmpzL2DsB_pad-1" x="1830" y="-3920"/><use xlink:href="#WGACRNKzNXKGmpzL2DsB_pad-1" x="1835" y="-3235"/><use xlink:href="#WGACRNKzNXKGmpzL2DsB_pad-1" x="1940" y="-1195"/><use xlink:href="#WGACRNKzNXKGmpzL2DsB_pad-1" x="1965" y="-1880"/><use xlink:href="#WGACRNKzNXKGmpzL2DsB_pad-1" x="1965" y="-2485"/><use xlink:href="#WGACRNKzNXKGmpzL2DsB_pad-1" x="1965" y="-3920"/><use xlink:href="#WGACRNKzNXKGmpzL2DsB_pad-1" x="1970" y="-3235"/><use xlink:href="#WGACRNKzNXKGmpzL2DsB_pad-1" x="2265" y="-940"/><use xlink:href="#WGACRNKzNXKGmpzL2DsB_pad-1" x="2265" y="-1075"/><use xlink:href="#WGACRNKzNXKGmpzL2DsB_pad-1" x="2265" y="-1200"/><use xlink:href="#WGACRNKzNXKGmpzL2DsB_pad-1" x="2280" y="-1925"/><use xlink:href="#WGACRNKzNXKGmpzL2DsB_pad-1" x="2280" y="-2060"/><use xlink:href="#WGACRNKzNXKGmpzL2DsB_pad-1" x="2280" y="-2185"/><use xlink:href="#WGACRNKzNXKGmpzL2DsB_pad-1" x="2280" y="-2915"/><use xlink:href="#WGACRNKzNXKGmpzL2DsB_pad-1" x="2280" y="-3050"/><use xlink:href="#WGACRNKzNXKGmpzL2DsB_pad-1" x="2280" y="-3175"/><use xlink:href="#WGACRNKzNXKGmpzL2DsB_pad-1" x="2285" y="-3885"/><use xlink:href="#WGACRNKzNXKGmpzL2DsB_pad-1" x="2285" y="-4020"/><use xlink:href="#WGACRNKzNXKGmpzL2DsB_pad-1" x="2285" y="-4145"/><use xlink:href="#WGACRNKzNXKGmpzL2DsB_pad-1" x="2984.3" y="-3536.2"/><use xlink:href="#WGACRNKzNXKGmpzL2DsB_pad-1" x="2984.3" y="-4516.2"/><use xlink:href="#WGACRNKzNXKGmpzL2DsB_pad-1" x="2985" y="-1565"/><use xlink:href="#WGACRNKzNXKGmpzL2DsB_pad-1" x="2985" y="-2551.2"/><use xlink:href="#WGACRNKzNXKGmpzL2DsB_pad-1" x="3035" y="-1540"/><use xlink:href="#WGACRNKzNXKGmpzL2DsB_pad-1" x="3035" y="-2530"/><use xlink:href="#WGACRNKzNXKGmpzL2DsB_pad-1" x="3035" y="-3505"/><use xlink:href="#WGACRNKzNXKGmpzL2DsB_pad-1" x="3035" y="-4490"/><use xlink:href="#WGACRNKzNXKGmpzL2DsB_pad-1" x="3065" y="-1515"/><use xlink:href="#WGACRNKzNXKGmpzL2DsB_pad-1" x="3065" y="-2505"/><use xlink:href="#WGACRNKzNXKGmpzL2DsB_pad-1" x="3065" y="-3480"/><use xlink:href="#WGACRNKzNXKGmpzL2DsB_pad-1" x="3065" y="-4465"/><use xlink:href="#WGACRNKzNXKGmpzL2DsB_pad-1" x="3090" y="-1490"/><use xlink:href="#WGACRNKzNXKGmpzL2DsB_pad-1" x="3090" y="-2480"/><use xlink:href="#WGACRNKzNXKGmpzL2DsB_pad-1" x="3090" y="-3455"/><use xlink:href="#WGACRNKzNXKGmpzL2DsB_pad-1" x="3090" y="-4440"/><use xlink:href="#WGACRNKzNXKGmpzL2DsB_pad-1" x="3115" y="-1465"/><use xlink:href="#WGACRNKzNXKGmpzL2DsB_pad-1" x="3115" y="-2455"/><use xlink:href="#WGACRNKzNXKGmpzL2DsB_pad-1" x="3115" y="-3430"/><use xlink:href="#WGACRNKzNXKGmpzL2DsB_pad-1" x="3115" y="-4415"/><use xlink:href="#WGACRNKzNXKGmpzL2DsB_pad-1" x="3140" y="-1440"/><use xlink:href="#WGACRNKzNXKGmpzL2DsB_pad-1" x="3140" y="-2430"/><use xlink:href="#WGACRNKzNXKGmpzL2DsB_pad-1" x="3140" y="-3405"/><use xlink:href="#WGACRNKzNXKGmpzL2DsB_pad-1" x="3140" y="-4390"/><use xlink:href="#WGACRNKzNXKGmpzL2DsB_pad-1" x="3300" y="-1565"/><use xlink:href="#WGACRNKzNXKGmpzL2DsB_pad-1" x="3300" y="-2551.2"/><use xlink:href="#WGACRNKzNXKGmpzL2DsB_pad-1" x="3300" y="-3531.2"/><use xlink:href="#WGACRNKzNXKGmpzL2DsB_pad-1" x="3300" y="-4516.2"/><use xlink:href="#WGACRNKzNXKGmpzL2DsB_pad-1" x="3350" y="-1565"/><use xlink:href="#WGACRNKzNXKGmpzL2DsB_pad-1" x="3350" y="-2555"/><use xlink:href="#WGACRNKzNXKGmpzL2DsB_pad-1" x="3350" y="-3530"/><use xlink:href="#WGACRNKzNXKGmpzL2DsB_pad-1" x="3350" y="-4515"/><use xlink:href="#WGACRNKzNXKGmpzL2DsB_pad-1" x="3380" y="-1515"/><use xlink:href="#WGACRNKzNXKGmpzL2DsB_pad-1" x="3380" y="-2505"/><use xlink:href="#WGACRNKzNXKGmpzL2DsB_pad-1" x="3380" y="-3480"/><use xlink:href="#WGACRNKzNXKGmpzL2DsB_pad-1" x="3380" y="-4465"/><use xlink:href="#WGACRNKzNXKGmpzL2DsB_pad-1" x="3405" y="-1490"/><use xlink:href="#WGACRNKzNXKGmpzL2DsB_pad-1" x="3405" y="-2480"/><use xlink:href="#WGACRNKzNXKGmpzL2DsB_pad-1" x="3405" y="-3455"/><use xlink:href="#WGACRNKzNXKGmpzL2DsB_pad-1" x="3405" y="-4440"/><use xlink:href="#WGACRNKzNXKGmpzL2DsB_pad-1" x="3430" y="-1465"/><use xlink:href="#WGACRNKzNXKGmpzL2DsB_pad-1" x="3430" y="-2455"/><use xlink:href="#WGACRNKzNXKGmpzL2DsB_pad-1" x="3430" y="-3430"/><use xlink:href="#WGACRNKzNXKGmpzL2DsB_pad-1" x="3430" y="-4415"/><use xlink:href="#WGACRNKzNXKGmpzL2DsB_pad-1" x="3455" y="-1440"/><use xlink:href="#WGACRNKzNXKGmpzL2DsB_pad-1" x="3455" y="-2430"/><use xlink:href="#WGACRNKzNXKGmpzL2DsB_pad-1" x="3455" y="-3405"/><use xlink:href="#WGACRNKzNXKGmpzL2DsB_pad-1" x="3455" y="-4390"/><use xlink:href="#WGACRNKzNXKGmpzL2DsB_pad-1" x="3475" y="-1540"/><use xlink:href="#WGACRNKzNXKGmpzL2DsB_pad-1" x="3475" y="-2530"/><use xlink:href="#WGACRNKzNXKGmpzL2DsB_pad-1" x="3475" y="-3505"/><use xlink:href="#WGACRNKzNXKGmpzL2DsB_pad-1" x="3475" y="-4490"/><use xlink:href="#WGACRNKzNXKGmpzL2DsB_pad-1" x="3615" y="-1565"/><use xlink:href="#WGACRNKzNXKGmpzL2DsB_pad-1" x="3615" y="-2551.2"/><use xlink:href="#WGACRNKzNXKGmpzL2DsB_pad-1" x="3615" y="-3531.2"/><use xlink:href="#WGACRNKzNXKGmpzL2DsB_pad-1" x="3615" y="-4516.2"/><use xlink:href="#WGACRNKzNXKGmpzL2DsB_pad-1" x="3665" y="-1565"/><use xlink:href="#WGACRNKzNXKGmpzL2DsB_pad-1" x="3665" y="-2555"/><use xlink:href="#WGACRNKzNXKGmpzL2DsB_pad-1" x="3665" y="-3530"/><use xlink:href="#WGACRNKzNXKGmpzL2DsB_pad-1" x="3665" y="-4515"/><use xlink:href="#WGACRNKzNXKGmpzL2DsB_pad-1" x="3695" y="-1515"/><use xlink:href="#WGACRNKzNXKGmpzL2DsB_pad-1" x="3695" y="-2505"/><use xlink:href="#WGACRNKzNXKGmpzL2DsB_pad-1" x="3695" y="-3480"/><use xlink:href="#WGACRNKzNXKGmpzL2DsB_pad-1" x="3695" y="-4465"/><use xlink:href="#WGACRNKzNXKGmpzL2DsB_pad-1" x="3720" y="-1490"/><use xlink:href="#WGACRNKzNXKGmpzL2DsB_pad-1" x="3720" y="-2480"/><use xlink:href="#WGACRNKzNXKGmpzL2DsB_pad-1" x="3720" y="-3455"/><use xlink:href="#WGACRNKzNXKGmpzL2DsB_pad-1" x="3720" y="-4440"/><use xlink:href="#WGACRNKzNXKGmpzL2DsB_pad-1" x="3745" y="-1465"/><use xlink:href="#WGACRNKzNXKGmpzL2DsB_pad-1" x="3745" y="-2455"/><use xlink:href="#WGACRNKzNXKGmpzL2DsB_pad-1" x="3745" y="-3430"/><use xlink:href="#WGACRNKzNXKGmpzL2DsB_pad-1" x="3745" y="-4415"/><use xlink:href="#WGACRNKzNXKGmpzL2DsB_pad-1" x="3770" y="-1440"/><use xlink:href="#WGACRNKzNXKGmpzL2DsB_pad-1" x="3770" y="-2430"/><use xlink:href="#WGACRNKzNXKGmpzL2DsB_pad-1" x="3770" y="-3405"/><use xlink:href="#WGACRNKzNXKGmpzL2DsB_pad-1" x="3770" y="-4390"/><use xlink:href="#WGACRNKzNXKGmpzL2DsB_pad-1" x="3795" y="-1540"/><use xlink:href="#WGACRNKzNXKGmpzL2DsB_pad-1" x="3795" y="-2530"/><use xlink:href="#WGACRNKzNXKGmpzL2DsB_pad-1" x="3795" y="-3505"/><use xlink:href="#WGACRNKzNXKGmpzL2DsB_pad-1" x="3795" y="-4490"/><use xlink:href="#WGACRNKzNXKGmpzL2DsB_pad-1" x="3930" y="-1565"/><use xlink:href="#WGACRNKzNXKGmpzL2DsB_pad-1" x="3930" y="-2551.2"/><use xlink:href="#WGACRNKzNXKGmpzL2DsB_pad-1" x="3930" y="-3531.2"/><use xlink:href="#WGACRNKzNXKGmpzL2DsB_pad-1" x="3930" y="-4516.2"/><use xlink:href="#WGACRNKzNXKGmpzL2DsB_pad-1" x="3980" y="-1565"/><use xlink:href="#WGACRNKzNXKGmpzL2DsB_pad-1" x="3980" y="-2555"/><use xlink:href="#WGACRNKzNXKGmpzL2DsB_pad-1" x="3980" y="-3530"/><use xlink:href="#WGACRNKzNXKGmpzL2DsB_pad-1" x="3980" y="-4515"/><use xlink:href="#WGACRNKzNXKGmpzL2DsB_pad-1" x="4010" y="-1515"/><use xlink:href="#WGACRNKzNXKGmpzL2DsB_pad-1" x="4010" y="-2505"/><use xlink:href="#WGACRNKzNXKGmpzL2DsB_pad-1" x="4010" y="-3480"/><use xlink:href="#WGACRNKzNXKGmpzL2DsB_pad-1" x="4010" y="-4465"/><use xlink:href="#WGACRNKzNXKGmpzL2DsB_pad-1" x="4035" y="-1490"/><use xlink:href="#WGACRNKzNXKGmpzL2DsB_pad-1" x="4035" y="-2480"/><use xlink:href="#WGACRNKzNXKGmpzL2DsB_pad-1" x="4035" y="-3455"/><use xlink:href="#WGACRNKzNXKGmpzL2DsB_pad-1" x="4035" y="-4440"/><use xlink:href="#WGACRNKzNXKGmpzL2DsB_pad-1" x="4060" y="-1465"/><use xlink:href="#WGACRNKzNXKGmpzL2DsB_pad-1" x="4060" y="-2455"/><use xlink:href="#WGACRNKzNXKGmpzL2DsB_pad-1" x="4060" y="-3430"/><use xlink:href="#WGACRNKzNXKGmpzL2DsB_pad-1" x="4060" y="-4415"/><use xlink:href="#WGACRNKzNXKGmpzL2DsB_pad-1" x="4085" y="-1440"/><use xlink:href="#WGACRNKzNXKGmpzL2DsB_pad-1" x="4085" y="-2430"/><use xlink:href="#WGACRNKzNXKGmpzL2DsB_pad-1" x="4085" y="-3405"/><use xlink:href="#WGACRNKzNXKGmpzL2DsB_pad-1" x="4085" y="-4390"/><use xlink:href="#WGACRNKzNXKGmpzL2DsB_pad-1" x="4110" y="-1540"/><use xlink:href="#WGACRNKzNXKGmpzL2DsB_pad-1" x="4110" y="-2530"/><use xlink:href="#WGACRNKzNXKGmpzL2DsB_pad-1" x="4110" y="-3505"/><use xlink:href="#WGACRNKzNXKGmpzL2DsB_pad-1" x="4110" y="-4490"/><use xlink:href="#WGACRNKzNXKGmpzL2DsB_pad-1" x="4245" y="-1565"/><use xlink:href="#WGACRNKzNXKGmpzL2DsB_pad-1" x="4245" y="-2551.2"/><use xlink:href="#WGACRNKzNXKGmpzL2DsB_pad-1" x="4245" y="-3531.2"/><use xlink:href="#WGACRNKzNXKGmpzL2DsB_pad-1" x="4245" y="-4516.2"/><use xlink:href="#WGACRNKzNXKGmpzL2DsB_pad-1" x="4295" y="-1565"/><use xlink:href="#WGACRNKzNXKGmpzL2DsB_pad-1" x="4295" y="-3530"/><use xlink:href="#WGACRNKzNXKGmpzL2DsB_pad-1" x="4295" y="-4515"/><use xlink:href="#WGACRNKzNXKGmpzL2DsB_pad-1" x="4300" y="-2550.2"/><use xlink:href="#WGACRNKzNXKGmpzL2DsB_pad-1" x="4325" y="-1515"/><use xlink:href="#WGACRNKzNXKGmpzL2DsB_pad-1" x="4325" y="-2505"/><use xlink:href="#WGACRNKzNXKGmpzL2DsB_pad-1" x="4325" y="-3480"/><use xlink:href="#WGACRNKzNXKGmpzL2DsB_pad-1" x="4325" y="-4465"/><use xlink:href="#WGACRNKzNXKGmpzL2DsB_pad-1" x="4350" y="-1490"/><use xlink:href="#WGACRNKzNXKGmpzL2DsB_pad-1" x="4350" y="-2480"/><use xlink:href="#WGACRNKzNXKGmpzL2DsB_pad-1" x="4350" y="-3455"/><use xlink:href="#WGACRNKzNXKGmpzL2DsB_pad-1" x="4350" y="-4440"/><use xlink:href="#WGACRNKzNXKGmpzL2DsB_pad-1" x="4375" y="-1465"/><use xlink:href="#WGACRNKzNXKGmpzL2DsB_pad-1" x="4375" y="-2455"/><use xlink:href="#WGACRNKzNXKGmpzL2DsB_pad-1" x="4375" y="-3430"/><use xlink:href="#WGACRNKzNXKGmpzL2DsB_pad-1" x="4375" y="-4415"/><use xlink:href="#WGACRNKzNXKGmpzL2DsB_pad-1" x="4400" y="-1440"/><use xlink:href="#WGACRNKzNXKGmpzL2DsB_pad-1" x="4400" y="-2430"/><use xlink:href="#WGACRNKzNXKGmpzL2DsB_pad-1" x="4400" y="-3405"/><use xlink:href="#WGACRNKzNXKGmpzL2DsB_pad-1" x="4400" y="-4390"/><use xlink:href="#WGACRNKzNXKGmpzL2DsB_pad-1" x="4425" y="-1540"/><use xlink:href="#WGACRNKzNXKGmpzL2DsB_pad-1" x="4425" y="-2530"/><use xlink:href="#WGACRNKzNXKGmpzL2DsB_pad-1" x="4425" y="-3505"/><use xlink:href="#WGACRNKzNXKGmpzL2DsB_pad-1" x="4425" y="-4490"/><use xlink:href="#WGACRNKzNXKGmpzL2DsB_pad-1" x="4890" y="-1515"/><use xlink:href="#WGACRNKzNXKGmpzL2DsB_pad-1" x="4895" y="-4415"/><use xlink:href="#WGACRNKzNXKGmpzL2DsB_pad-1" x="4969" y="-715"/><use xlink:href="#WGACRNKzNXKGmpzL2DsB_pad-1" x="4980" y="-1490"/><use xlink:href="#WGACRNKzNXKGmpzL2DsB_pad-1" x="4990" y="-2505"/><use xlink:href="#WGACRNKzNXKGmpzL2DsB_pad-1" x="4990" y="-3480"/><use xlink:href="#WGACRNKzNXKGmpzL2DsB_pad-1" x="4990" y="-4025"/><use xlink:href="#WGACRNKzNXKGmpzL2DsB_pad-1" x="5020" y="-2480"/><use xlink:href="#WGACRNKzNXKGmpzL2DsB_pad-1" x="5020" y="-3455"/><use xlink:href="#WGACRNKzNXKGmpzL2DsB_pad-1" x="5020" y="-4060"/><use xlink:href="#WGACRNKzNXKGmpzL2DsB_pad-1" x="5045" y="-4415"/><use xlink:href="#WGACRNKzNXKGmpzL2DsB_pad-1" x="5050" y="-1440"/><use xlink:href="#WGACRNKzNXKGmpzL2DsB_pad-1" x="5050" y="-2430"/><use xlink:href="#WGACRNKzNXKGmpzL2DsB_pad-1" x="5050" y="-3405"/><use xlink:href="#WGACRNKzNXKGmpzL2DsB_pad-1" x="5050" y="-4085"/><use xlink:href="#WGACRNKzNXKGmpzL2DsB_pad-1" x="5094" y="-715"/><use xlink:href="#WGACRNKzNXKGmpzL2DsB_pad-1" x="5229" y="-715"/><use xlink:href="#WGACRNKzNXKGmpzL2DsB_pad-1" x="5361" y="-715"/><use xlink:href="#WGACRNKzNXKGmpzL2DsB_pad-1" x="5486" y="-715"/><use xlink:href="#WGACRNKzNXKGmpzL2DsB_pad-1" x="5515" y="-3755"/><use xlink:href="#WGACRNKzNXKGmpzL2DsB_pad-1" x="5515" y="-3795"/><use xlink:href="#WGACRNKzNXKGmpzL2DsB_pad-1" x="5515" y="-3835"/><use xlink:href="#WGACRNKzNXKGmpzL2DsB_pad-1" x="5515" y="-3880"/><use xlink:href="#WGACRNKzNXKGmpzL2DsB_pad-1" x="5515" y="-3920"/><use xlink:href="#WGACRNKzNXKGmpzL2DsB_pad-1" x="5515" y="-3960"/><use xlink:href="#WGACRNKzNXKGmpzL2DsB_pad-1" x="5555" y="-3755"/><use xlink:href="#WGACRNKzNXKGmpzL2DsB_pad-1" x="5555" y="-3795"/><use xlink:href="#WGACRNKzNXKGmpzL2DsB_pad-1" x="5555" y="-3835"/><use xlink:href="#WGACRNKzNXKGmpzL2DsB_pad-1" x="5555" y="-3880"/><use xlink:href="#WGACRNKzNXKGmpzL2DsB_pad-1" x="5555" y="-3920"/><use xlink:href="#WGACRNKzNXKGmpzL2DsB_pad-1" x="5555" y="-3960"/><use xlink:href="#WGACRNKzNXKGmpzL2DsB_pad-1" x="5595" y="-3755"/><use xlink:href="#WGACRNKzNXKGmpzL2DsB_pad-1" x="5595" y="-3795"/><use xlink:href="#WGACRNKzNXKGmpzL2DsB_pad-1" x="5595" y="-3835"/><use xlink:href="#WGACRNKzNXKGmpzL2DsB_pad-1" x="5595" y="-3880"/><use xlink:href="#WGACRNKzNXKGmpzL2DsB_pad-1" x="5595" y="-3920"/><use xlink:href="#WGACRNKzNXKGmpzL2DsB_pad-1" x="5595" y="-3960"/><use xlink:href="#WGACRNKzNXKGmpzL2DsB_pad-1" x="5621" y="-715"/><use xlink:href="#WGACRNKzNXKGmpzL2DsB_pad-1" x="5635" y="-3755"/><use xlink:href="#WGACRNKzNXKGmpzL2DsB_pad-1" x="5635" y="-3795"/><use xlink:href="#WGACRNKzNXKGmpzL2DsB_pad-1" x="5635" y="-3835"/><use xlink:href="#WGACRNKzNXKGmpzL2DsB_pad-1" x="5635" y="-3880"/><use xlink:href="#WGACRNKzNXKGmpzL2DsB_pad-1" x="5635" y="-3920"/><use xlink:href="#WGACRNKzNXKGmpzL2DsB_pad-1" x="5635" y="-3960"/><use xlink:href="#WGACRNKzNXKGmpzL2DsB_pad-1" x="5675" y="-4145"/><use xlink:href="#WGACRNKzNXKGmpzL2DsB_pad-1" x="5675" y="-4210"/><use xlink:href="#WGACRNKzNXKGmpzL2DsB_pad-1" x="5705" y="-4175"/><use xlink:href="#WGACRNKzNXKGmpzL2DsB_pad-1" x="5735" y="-4145"/><use xlink:href="#WGACRNKzNXKGmpzL2DsB_pad-1" x="5735" y="-4210"/><use xlink:href="#WGACRNKzNXKGmpzL2DsB_pad-1" x="5765" y="-4175"/><use xlink:href="#WGACRNKzNXKGmpzL2DsB_pad-1" x="5795" y="-4145"/><use xlink:href="#WGACRNKzNXKGmpzL2DsB_pad-1" x="5795" y="-4210"/><use xlink:href="#WGACRNKzNXKGmpzL2DsB_pad-1" x="5865" y="-3675"/><use xlink:href="#WGACRNKzNXKGmpzL2DsB_pad-1" x="5865" y="-3725"/><use xlink:href="#WGACRNKzNXKGmpzL2DsB_pad-1" x="5865" y="-3830"/><use xlink:href="#WGACRNKzNXKGmpzL2DsB_pad-1" x="5865" y="-3880"/><use xlink:href="#WGACRNKzNXKGmpzL2DsB_pad-1" x="5865" y="-3990"/><use xlink:href="#WGACRNKzNXKGmpzL2DsB_pad-1" x="5865" y="-4040"/><use xlink:href="#WGACRNKzNXKGmpzL2DsB_pad-1" x="5905" y="-3675"/><use xlink:href="#WGACRNKzNXKGmpzL2DsB_pad-1" x="5905" y="-3725"/><use xlink:href="#WGACRNKzNXKGmpzL2DsB_pad-1" x="5905" y="-3830"/><use xlink:href="#WGACRNKzNXKGmpzL2DsB_pad-1" x="5905" y="-3880"/><use xlink:href="#WGACRNKzNXKGmpzL2DsB_pad-1" x="5905" y="-3990"/><use xlink:href="#WGACRNKzNXKGmpzL2DsB_pad-1" x="5905" y="-4040"/><use xlink:href="#WGACRNKzNXKGmpzL2DsB_pad-1" x="5945" y="-3675"/><use xlink:href="#WGACRNKzNXKGmpzL2DsB_pad-1" x="5945" y="-3725"/><use xlink:href="#WGACRNKzNXKGmpzL2DsB_pad-1" x="5945" y="-3830"/><use xlink:href="#WGACRNKzNXKGmpzL2DsB_pad-1" x="5945" y="-3880"/><use xlink:href="#WGACRNKzNXKGmpzL2DsB_pad-1" x="5945" y="-3990"/><use xlink:href="#WGACRNKzNXKGmpzL2DsB_pad-1" x="5945" y="-4040"/><use xlink:href="#WGACRNKzNXKGmpzL2DsB_pad-1" x="5985" y="-3675"/><use xlink:href="#WGACRNKzNXKGmpzL2DsB_pad-1" x="5985" y="-3725"/><use xlink:href="#WGACRNKzNXKGmpzL2DsB_pad-1" x="5985" y="-3830"/><use xlink:href="#WGACRNKzNXKGmpzL2DsB_pad-1" x="5985" y="-3880"/><use xlink:href="#WGACRNKzNXKGmpzL2DsB_pad-1" x="5985" y="-3990"/><use xlink:href="#WGACRNKzNXKGmpzL2DsB_pad-1" x="5985" y="-4040"/><use xlink:href="#WGACRNKzNXKGmpzL2DsB_pad-2" x="5921.3" y="-3521.7"/><use xlink:href="#WGACRNKzNXKGmpzL2DsB_pad-2" x="5921.3" y="-4273.6"/><use xlink:href="#WGACRNKzNXKGmpzL2DsB_pad-2" x="6000" y="-3521.7"/><use xlink:href="#WGACRNKzNXKGmpzL2DsB_pad-2" x="6000" y="-4273.6"/><use xlink:href="#WGACRNKzNXKGmpzL2DsB_pad-3" x="2362.2" y="-708.7"/><use xlink:href="#WGACRNKzNXKGmpzL2DsB_pad-3" x="2362.2" y="-827.6"/><use xlink:href="#WGACRNKzNXKGmpzL2DsB_pad-3" x="2362.2" y="-1692.9"/><use xlink:href="#WGACRNKzNXKGmpzL2DsB_pad-3" x="2362.2" y="-1811.8"/><use xlink:href="#WGACRNKzNXKGmpzL2DsB_pad-3" x="2362.2" y="-2677.2"/><use xlink:href="#WGACRNKzNXKGmpzL2DsB_pad-3" x="2362.2" y="-2796.1"/><use xlink:href="#WGACRNKzNXKGmpzL2DsB_pad-3" x="2362.2" y="-3661.4"/><use xlink:href="#WGACRNKzNXKGmpzL2DsB_pad-3" x="2362.2" y="-3780.3"/><use xlink:href="#WGACRNKzNXKGmpzL2DsB_pad-3" x="2440.9" y="-708.7"/><use xlink:href="#WGACRNKzNXKGmpzL2DsB_pad-3" x="2440.9" y="-827.6"/><use xlink:href="#WGACRNKzNXKGmpzL2DsB_pad-3" x="2440.9" y="-1692.9"/><use xlink:href="#WGACRNKzNXKGmpzL2DsB_pad-3" x="2440.9" y="-1811.8"/><use xlink:href="#WGACRNKzNXKGmpzL2DsB_pad-3" x="2440.9" y="-2677.2"/><use xlink:href="#WGACRNKzNXKGmpzL2DsB_pad-3" x="2440.9" y="-2796.1"/><use xlink:href="#WGACRNKzNXKGmpzL2DsB_pad-3" x="2440.9" y="-3661.4"/><use xlink:href="#WGACRNKzNXKGmpzL2DsB_pad-3" x="2440.9" y="-3780.3"/><use xlink:href="#WGACRNKzNXKGmpzL2DsB_pad-3" x="2519.7" y="-708.7"/><use xlink:href="#WGACRNKzNXKGmpzL2DsB_pad-3" x="2519.7" y="-827.6"/><use xlink:href="#WGACRNKzNXKGmpzL2DsB_pad-3" x="2519.7" y="-1692.9"/><use xlink:href="#WGACRNKzNXKGmpzL2DsB_pad-3" x="2519.7" y="-1811.8"/><use xlink:href="#WGACRNKzNXKGmpzL2DsB_pad-3" x="2519.7" y="-2677.2"/><use xlink:href="#WGACRNKzNXKGmpzL2DsB_pad-3" x="2519.7" y="-2796.1"/><use xlink:href="#WGACRNKzNXKGmpzL2DsB_pad-3" x="2519.7" y="-3661.4"/><use xlink:href="#WGACRNKzNXKGmpzL2DsB_pad-3" x="2519.7" y="-3780.3"/><use xlink:href="#WGACRNKzNXKGmpzL2DsB_pad-3" x="2598.4" y="-708.7"/><use xlink:href="#WGACRNKzNXKGmpzL2DsB_pad-3" x="2598.4" y="-827.6"/><use xlink:href="#WGACRNKzNXKGmpzL2DsB_pad-3" x="2598.4" y="-1692.9"/><use xlink:href="#WGACRNKzNXKGmpzL2DsB_pad-3" x="2598.4" y="-1811.8"/><use xlink:href="#WGACRNKzNXKGmpzL2DsB_pad-3" x="2598.4" y="-2677.2"/><use xlink:href="#WGACRNKzNXKGmpzL2DsB_pad-3" x="2598.4" y="-2796.1"/><use xlink:href="#WGACRNKzNXKGmpzL2DsB_pad-3" x="2598.4" y="-3661.4"/><use xlink:href="#WGACRNKzNXKGmpzL2DsB_pad-3" x="2598.4" y="-3780.3"/><use xlink:href="#WGACRNKzNXKGmpzL2DsB_pad-3" x="2677.2" y="-708.7"/><use xlink:href="#WGACRNKzNXKGmpzL2DsB_pad-3" x="2677.2" y="-827.6"/><use xlink:href="#WGACRNKzNXKGmpzL2DsB_pad-3" x="2677.2" y="-1692.9"/><use xlink:href="#WGACRNKzNXKGmpzL2DsB_pad-3" x="2677.2" y="-1811.8"/><use xlink:href="#WGACRNKzNXKGmpzL2DsB_pad-3" x="2677.2" y="-2677.2"/><use xlink:href="#WGACRNKzNXKGmpzL2DsB_pad-3" x="2677.2" y="-2796.1"/><use xlink:href="#WGACRNKzNXKGmpzL2DsB_pad-3" x="2677.2" y="-3661.4"/><use xlink:href="#WGACRNKzNXKGmpzL2DsB_pad-3" x="2677.2" y="-3780.3"/><use xlink:href="#WGACRNKzNXKGmpzL2DsB_pad-3" x="2755.9" y="-708.7"/><use xlink:href="#WGACRNKzNXKGmpzL2DsB_pad-3" x="2755.9" y="-827.6"/><use xlink:href="#WGACRNKzNXKGmpzL2DsB_pad-3" x="2755.9" y="-1692.9"/><use xlink:href="#WGACRNKzNXKGmpzL2DsB_pad-3" x="2755.9" y="-1811.8"/><use xlink:href="#WGACRNKzNXKGmpzL2DsB_pad-3" x="2755.9" y="-2677.2"/><use xlink:href="#WGACRNKzNXKGmpzL2DsB_pad-3" x="2755.9" y="-2796.1"/><use xlink:href="#WGACRNKzNXKGmpzL2DsB_pad-3" x="2755.9" y="-3661.4"/><use xlink:href="#WGACRNKzNXKGmpzL2DsB_pad-3" x="2755.9" y="-3780.3"/><use xlink:href="#WGACRNKzNXKGmpzL2DsB_pad-3" x="2834.6" y="-708.7"/><use xlink:href="#WGACRNKzNXKGmpzL2DsB_pad-3" x="2834.6" y="-827.6"/><use xlink:href="#WGACRNKzNXKGmpzL2DsB_pad-3" x="2834.6" y="-1692.9"/><use xlink:href="#WGACRNKzNXKGmpzL2DsB_pad-3" x="2834.6" y="-1811.8"/><use xlink:href="#WGACRNKzNXKGmpzL2DsB_pad-3" x="2834.6" y="-2677.2"/><use xlink:href="#WGACRNKzNXKGmpzL2DsB_pad-3" x="2834.6" y="-2796.1"/><use xlink:href="#WGACRNKzNXKGmpzL2DsB_pad-3" x="2834.6" y="-3661.4"/><use xlink:href="#WGACRNKzNXKGmpzL2DsB_pad-3" x="2834.6" y="-3780.3"/><use xlink:href="#WGACRNKzNXKGmpzL2DsB_pad-3" x="2913.4" y="-708.7"/><use xlink:href="#WGACRNKzNXKGmpzL2DsB_pad-3" x="2913.4" y="-827.6"/><use xlink:href="#WGACRNKzNXKGmpzL2DsB_pad-3" x="2913.4" y="-1692.9"/><use xlink:href="#WGACRNKzNXKGmpzL2DsB_pad-3" x="2913.4" y="-1811.8"/><use xlink:href="#WGACRNKzNXKGmpzL2DsB_pad-3" x="2913.4" y="-2677.2"/><use xlink:href="#WGACRNKzNXKGmpzL2DsB_pad-3" x="2913.4" y="-2796.1"/><use xlink:href="#WGACRNKzNXKGmpzL2DsB_pad-3" x="2913.4" y="-3661.4"/><use xlink:href="#WGACRNKzNXKGmpzL2DsB_pad-3" x="2913.4" y="-3780.3"/><use xlink:href="#WGACRNKzNXKGmpzL2DsB_pad-3" x="2992.1" y="-708.7"/><use xlink:href="#WGACRNKzNXKGmpzL2DsB_pad-3" x="2992.1" y="-827.6"/><use xlink:href="#WGACRNKzNXKGmpzL2DsB_pad-3" x="2992.1" y="-1692.9"/><use xlink:href="#WGACRNKzNXKGmpzL2DsB_pad-3" x="2992.1" y="-1811.8"/><use xlink:href="#WGACRNKzNXKGmpzL2DsB_pad-3" x="2992.1" y="-2677.2"/><use xlink:href="#WGACRNKzNXKGmpzL2DsB_pad-3" x="2992.1" y="-2796.1"/><use xlink:href="#WGACRNKzNXKGmpzL2DsB_pad-3" x="2992.1" y="-3661.4"/><use xlink:href="#WGACRNKzNXKGmpzL2DsB_pad-3" x="2992.1" y="-3780.3"/><use xlink:href="#WGACRNKzNXKGmpzL2DsB_pad-3" x="3070.9" y="-708.7"/><use xlink:href="#WGACRNKzNXKGmpzL2DsB_pad-3" x="3070.9" y="-827.6"/><use xlink:href="#WGACRNKzNXKGmpzL2DsB_pad-3" x="3070.9" y="-1692.9"/><use xlink:href="#WGACRNKzNXKGmpzL2DsB_pad-3" x="3070.9" y="-1811.8"/><use xlink:href="#WGACRNKzNXKGmpzL2DsB_pad-3" x="3070.9" y="-2677.2"/><use xlink:href="#WGACRNKzNXKGmpzL2DsB_pad-3" x="3070.9" y="-2796.1"/><use xlink:href="#WGACRNKzNXKGmpzL2DsB_pad-3" x="3070.9" y="-3661.4"/><use xlink:href="#WGACRNKzNXKGmpzL2DsB_pad-3" x="3070.9" y="-3780.3"/><use xlink:href="#WGACRNKzNXKGmpzL2DsB_pad-3" x="3149.6" y="-708.7"/><use xlink:href="#WGACRNKzNXKGmpzL2DsB_pad-3" x="3149.6" y="-827.6"/><use xlink:href="#WGACRNKzNXKGmpzL2DsB_pad-3" x="3149.6" y="-1692.9"/><use xlink:href="#WGACRNKzNXKGmpzL2DsB_pad-3" x="3149.6" y="-1811.8"/><use xlink:href="#WGACRNKzNXKGmpzL2DsB_pad-3" x="3149.6" y="-2677.2"/><use xlink:href="#WGACRNKzNXKGmpzL2DsB_pad-3" x="3149.6" y="-2796.1"/><use xlink:href="#WGACRNKzNXKGmpzL2DsB_pad-3" x="3149.6" y="-3661.4"/><use xlink:href="#WGACRNKzNXKGmpzL2DsB_pad-3" x="3149.6" y="-3780.3"/><use xlink:href="#WGACRNKzNXKGmpzL2DsB_pad-3" x="3228.3" y="-708.7"/><use xlink:href="#WGACRNKzNXKGmpzL2DsB_pad-3" x="3228.3" y="-827.6"/><use xlink:href="#WGACRNKzNXKGmpzL2DsB_pad-3" x="3228.3" y="-1692.9"/><use xlink:href="#WGACRNKzNXKGmpzL2DsB_pad-3" x="3228.3" y="-1811.8"/><use xlink:href="#WGACRNKzNXKGmpzL2DsB_pad-3" x="3228.3" y="-2677.2"/><use xlink:href="#WGACRNKzNXKGmpzL2DsB_pad-3" x="3228.3" y="-2796.1"/><use xlink:href="#WGACRNKzNXKGmpzL2DsB_pad-3" x="3228.3" y="-3661.4"/><use xlink:href="#WGACRNKzNXKGmpzL2DsB_pad-3" x="3228.3" y="-3780.3"/><use xlink:href="#WGACRNKzNXKGmpzL2DsB_pad-3" x="3307.1" y="-708.7"/><use xlink:href="#WGACRNKzNXKGmpzL2DsB_pad-3" x="3307.1" y="-827.6"/><use xlink:href="#WGACRNKzNXKGmpzL2DsB_pad-3" x="3307.1" y="-1692.9"/><use xlink:href="#WGACRNKzNXKGmpzL2DsB_pad-3" x="3307.1" y="-1811.8"/><use xlink:href="#WGACRNKzNXKGmpzL2DsB_pad-3" x="3307.1" y="-2677.2"/><use xlink:href="#WGACRNKzNXKGmpzL2DsB_pad-3" x="3307.1" y="-2796.1"/><use xlink:href="#WGACRNKzNXKGmpzL2DsB_pad-3" x="3307.1" y="-3661.4"/><use xlink:href="#WGACRNKzNXKGmpzL2DsB_pad-3" x="3307.1" y="-3780.3"/><use xlink:href="#WGACRNKzNXKGmpzL2DsB_pad-3" x="3385.8" y="-708.7"/><use xlink:href="#WGACRNKzNXKGmpzL2DsB_pad-3" x="3385.8" y="-827.6"/><use xlink:href="#WGACRNKzNXKGmpzL2DsB_pad-3" x="3385.8" y="-1692.9"/><use xlink:href="#WGACRNKzNXKGmpzL2DsB_pad-3" x="3385.8" y="-1811.8"/><use xlink:href="#WGACRNKzNXKGmpzL2DsB_pad-3" x="3385.8" y="-2677.2"/><use xlink:href="#WGACRNKzNXKGmpzL2DsB_pad-3" x="3385.8" y="-2796.1"/><use xlink:href="#WGACRNKzNXKGmpzL2DsB_pad-3" x="3385.8" y="-3661.4"/><use xlink:href="#WGACRNKzNXKGmpzL2DsB_pad-3" x="3385.8" y="-3780.3"/><use xlink:href="#WGACRNKzNXKGmpzL2DsB_pad-3" x="3464.6" y="-708.7"/><use xlink:href="#WGACRNKzNXKGmpzL2DsB_pad-3" x="3464.6" y="-827.6"/><use xlink:href="#WGACRNKzNXKGmpzL2DsB_pad-3" x="3464.6" y="-1692.9"/><use xlink:href="#WGACRNKzNXKGmpzL2DsB_pad-3" x="3464.6" y="-1811.8"/><use xlink:href="#WGACRNKzNXKGmpzL2DsB_pad-3" x="3464.6" y="-2677.2"/><use xlink:href="#WGACRNKzNXKGmpzL2DsB_pad-3" x="3464.6" y="-2796.1"/><use xlink:href="#WGACRNKzNXKGmpzL2DsB_pad-3" x="3464.6" y="-3661.4"/><use xlink:href="#WGACRNKzNXKGmpzL2DsB_pad-3" x="3464.6" y="-3780.3"/><use xlink:href="#WGACRNKzNXKGmpzL2DsB_pad-3" x="3543.3" y="-708.7"/><use xlink:href="#WGACRNKzNXKGmpzL2DsB_pad-3" x="3543.3" y="-827.6"/><use xlink:href="#WGACRNKzNXKGmpzL2DsB_pad-3" x="3543.3" y="-1692.9"/><use xlink:href="#WGACRNKzNXKGmpzL2DsB_pad-3" x="3543.3" y="-1811.8"/><use xlink:href="#WGACRNKzNXKGmpzL2DsB_pad-3" x="3543.3" y="-2677.2"/><use xlink:href="#WGACRNKzNXKGmpzL2DsB_pad-3" x="3543.3" y="-2796.1"/><use xlink:href="#WGACRNKzNXKGmpzL2DsB_pad-3" x="3543.3" y="-3661.4"/><use xlink:href="#WGACRNKzNXKGmpzL2DsB_pad-3" x="3543.3" y="-3780.3"/><use xlink:href="#WGACRNKzNXKGmpzL2DsB_pad-3" x="3622" y="-708.7"/><use xlink:href="#WGACRNKzNXKGmpzL2DsB_pad-3" x="3622" y="-827.6"/><use xlink:href="#WGACRNKzNXKGmpzL2DsB_pad-3" x="3622" y="-1692.9"/><use xlink:href="#WGACRNKzNXKGmpzL2DsB_pad-3" x="3622" y="-1811.8"/><use xlink:href="#WGACRNKzNXKGmpzL2DsB_pad-3" x="3622" y="-2677.2"/><use xlink:href="#WGACRNKzNXKGmpzL2DsB_pad-3" x="3622" y="-2796.1"/><use xlink:href="#WGACRNKzNXKGmpzL2DsB_pad-3" x="3622" y="-3661.4"/><use xlink:href="#WGACRNKzNXKGmpzL2DsB_pad-3" x="3622" y="-3780.3"/><use xlink:href="#WGACRNKzNXKGmpzL2DsB_pad-3" x="3700.8" y="-708.7"/><use xlink:href="#WGACRNKzNXKGmpzL2DsB_pad-3" x="3700.8" y="-827.6"/><use xlink:href="#WGACRNKzNXKGmpzL2DsB_pad-3" x="3700.8" y="-1692.9"/><use xlink:href="#WGACRNKzNXKGmpzL2DsB_pad-3" x="3700.8" y="-1811.8"/><use xlink:href="#WGACRNKzNXKGmpzL2DsB_pad-3" x="3700.8" y="-2677.2"/><use xlink:href="#WGACRNKzNXKGmpzL2DsB_pad-3" x="3700.8" y="-2796.1"/><use xlink:href="#WGACRNKzNXKGmpzL2DsB_pad-3" x="3700.8" y="-3661.4"/><use xlink:href="#WGACRNKzNXKGmpzL2DsB_pad-3" x="3700.8" y="-3780.3"/><use xlink:href="#WGACRNKzNXKGmpzL2DsB_pad-3" x="3779.5" y="-708.7"/><use xlink:href="#WGACRNKzNXKGmpzL2DsB_pad-3" x="3779.5" y="-827.6"/><use xlink:href="#WGACRNKzNXKGmpzL2DsB_pad-3" x="3779.5" y="-1692.9"/><use xlink:href="#WGACRNKzNXKGmpzL2DsB_pad-3" x="3779.5" y="-1811.8"/><use xlink:href="#WGACRNKzNXKGmpzL2DsB_pad-3" x="3779.5" y="-2677.2"/><use xlink:href="#WGACRNKzNXKGmpzL2DsB_pad-3" x="3779.5" y="-2796.1"/><use xlink:href="#WGACRNKzNXKGmpzL2DsB_pad-3" x="3779.5" y="-3661.4"/><use xlink:href="#WGACRNKzNXKGmpzL2DsB_pad-3" x="3779.5" y="-3780.3"/><use xlink:href="#WGACRNKzNXKGmpzL2DsB_pad-3" x="3858.3" y="-708.7"/><use xlink:href="#WGACRNKzNXKGmpzL2DsB_pad-3" x="3858.3" y="-827.6"/><use xlink:href="#WGACRNKzNXKGmpzL2DsB_pad-3" x="3858.3" y="-1692.9"/><use xlink:href="#WGACRNKzNXKGmpzL2DsB_pad-3" x="3858.3" y="-1811.8"/><use xlink:href="#WGACRNKzNXKGmpzL2DsB_pad-3" x="3858.3" y="-2677.2"/><use xlink:href="#WGACRNKzNXKGmpzL2DsB_pad-3" x="3858.3" y="-2796.1"/><use xlink:href="#WGACRNKzNXKGmpzL2DsB_pad-3" x="3858.3" y="-3661.4"/><use xlink:href="#WGACRNKzNXKGmpzL2DsB_pad-3" x="3858.3" y="-3780.3"/><use xlink:href="#WGACRNKzNXKGmpzL2DsB_pad-3" x="3937" y="-708.7"/><use xlink:href="#WGACRNKzNXKGmpzL2DsB_pad-3" x="3937" y="-827.6"/><use xlink:href="#WGACRNKzNXKGmpzL2DsB_pad-3" x="3937" y="-1692.9"/><use xlink:href="#WGACRNKzNXKGmpzL2DsB_pad-3" x="3937" y="-1811.8"/><use xlink:href="#WGACRNKzNXKGmpzL2DsB_pad-3" x="3937" y="-2677.2"/><use xlink:href="#WGACRNKzNXKGmpzL2DsB_pad-3" x="3937" y="-2796.1"/><use xlink:href="#WGACRNKzNXKGmpzL2DsB_pad-3" x="3937" y="-3661.4"/><use xlink:href="#WGACRNKzNXKGmpzL2DsB_pad-3" x="3937" y="-3780.3"/><use xlink:href="#WGACRNKzNXKGmpzL2DsB_pad-3" x="4015.7" y="-708.7"/><use xlink:href="#WGACRNKzNXKGmpzL2DsB_pad-3" x="4015.7" y="-827.6"/><use xlink:href="#WGACRNKzNXKGmpzL2DsB_pad-3" x="4015.7" y="-1692.9"/><use xlink:href="#WGACRNKzNXKGmpzL2DsB_pad-3" x="4015.7" y="-1811.8"/><use xlink:href="#WGACRNKzNXKGmpzL2DsB_pad-3" x="4015.7" y="-2677.2"/><use xlink:href="#WGACRNKzNXKGmpzL2DsB_pad-3" x="4015.7" y="-2796.1"/><use xlink:href="#WGACRNKzNXKGmpzL2DsB_pad-3" x="4015.7" y="-3661.4"/><use xlink:href="#WGACRNKzNXKGmpzL2DsB_pad-3" x="4015.7" y="-3780.3"/><use xlink:href="#WGACRNKzNXKGmpzL2DsB_pad-3" x="4094.5" y="-708.7"/><use xlink:href="#WGACRNKzNXKGmpzL2DsB_pad-3" x="4094.5" y="-827.6"/><use xlink:href="#WGACRNKzNXKGmpzL2DsB_pad-3" x="4094.5" y="-1692.9"/><use xlink:href="#WGACRNKzNXKGmpzL2DsB_pad-3" x="4094.5" y="-1811.8"/><use xlink:href="#WGACRNKzNXKGmpzL2DsB_pad-3" x="4094.5" y="-2677.2"/><use xlink:href="#WGACRNKzNXKGmpzL2DsB_pad-3" x="4094.5" y="-2796.1"/><use xlink:href="#WGACRNKzNXKGmpzL2DsB_pad-3" x="4094.5" y="-3661.4"/><use xlink:href="#WGACRNKzNXKGmpzL2DsB_pad-3" x="4094.5" y="-3780.3"/><use xlink:href="#WGACRNKzNXKGmpzL2DsB_pad-3" x="4173.2" y="-708.7"/><use xlink:href="#WGACRNKzNXKGmpzL2DsB_pad-3" x="4173.2" y="-827.6"/><use xlink:href="#WGACRNKzNXKGmpzL2DsB_pad-3" x="4173.2" y="-1692.9"/><use xlink:href="#WGACRNKzNXKGmpzL2DsB_pad-3" x="4173.2" y="-1811.8"/><use xlink:href="#WGACRNKzNXKGmpzL2DsB_pad-3" x="4173.2" y="-2677.2"/><use xlink:href="#WGACRNKzNXKGmpzL2DsB_pad-3" x="4173.2" y="-2796.1"/><use xlink:href="#WGACRNKzNXKGmpzL2DsB_pad-3" x="4173.2" y="-3661.4"/><use xlink:href="#WGACRNKzNXKGmpzL2DsB_pad-3" x="4173.2" y="-3780.3"/><use xlink:href="#WGACRNKzNXKGmpzL2DsB_pad-3" x="4252" y="-708.7"/><use xlink:href="#WGACRNKzNXKGmpzL2DsB_pad-3" x="4252" y="-827.6"/><use xlink:href="#WGACRNKzNXKGmpzL2DsB_pad-3" x="4252" y="-1692.9"/><use xlink:href="#WGACRNKzNXKGmpzL2DsB_pad-3" x="4252" y="-1811.8"/><use xlink:href="#WGACRNKzNXKGmpzL2DsB_pad-3" x="4252" y="-2677.2"/><use xlink:href="#WGACRNKzNXKGmpzL2DsB_pad-3" x="4252" y="-2796.1"/><use xlink:href="#WGACRNKzNXKGmpzL2DsB_pad-3" x="4252" y="-3661.4"/><use xlink:href="#WGACRNKzNXKGmpzL2DsB_pad-3" x="4252" y="-3780.3"/><use xlink:href="#WGACRNKzNXKGmpzL2DsB_pad-3" x="4330.7" y="-708.7"/><use xlink:href="#WGACRNKzNXKGmpzL2DsB_pad-3" x="4330.7" y="-827.6"/><use xlink:href="#WGACRNKzNXKGmpzL2DsB_pad-3" x="4330.7" y="-1692.9"/><use xlink:href="#WGACRNKzNXKGmpzL2DsB_pad-3" x="4330.7" y="-1811.8"/><use xlink:href="#WGACRNKzNXKGmpzL2DsB_pad-3" x="4330.7" y="-2677.2"/><use xlink:href="#WGACRNKzNXKGmpzL2DsB_pad-3" x="4330.7" y="-2796.1"/><use xlink:href="#WGACRNKzNXKGmpzL2DsB_pad-3" x="4330.7" y="-3661.4"/><use xlink:href="#WGACRNKzNXKGmpzL2DsB_pad-3" x="4330.7" y="-3780.3"/><use xlink:href="#WGACRNKzNXKGmpzL2DsB_pad-3" x="4409.4" y="-708.7"/><use xlink:href="#WGACRNKzNXKGmpzL2DsB_pad-3" x="4409.4" y="-827.6"/><use xlink:href="#WGACRNKzNXKGmpzL2DsB_pad-3" x="4409.4" y="-1692.9"/><use xlink:href="#WGACRNKzNXKGmpzL2DsB_pad-3" x="4409.4" y="-1811.8"/><use xlink:href="#WGACRNKzNXKGmpzL2DsB_pad-3" x="4409.4" y="-2677.2"/><use xlink:href="#WGACRNKzNXKGmpzL2DsB_pad-3" x="4409.4" y="-2796.1"/><use xlink:href="#WGACRNKzNXKGmpzL2DsB_pad-3" x="4409.4" y="-3661.4"/><use xlink:href="#WGACRNKzNXKGmpzL2DsB_pad-3" x="4409.4" y="-3780.3"/><use xlink:href="#WGACRNKzNXKGmpzL2DsB_pad-3" x="4488.2" y="-708.7"/><use xlink:href="#WGACRNKzNXKGmpzL2DsB_pad-3" x="4488.2" y="-827.6"/><use xlink:href="#WGACRNKzNXKGmpzL2DsB_pad-3" x="4488.2" y="-1692.9"/><use xlink:href="#WGACRNKzNXKGmpzL2DsB_pad-3" x="4488.2" y="-1811.8"/><use xlink:href="#WGACRNKzNXKGmpzL2DsB_pad-3" x="4488.2" y="-2677.2"/><use xlink:href="#WGACRNKzNXKGmpzL2DsB_pad-3" x="4488.2" y="-2796.1"/><use xlink:href="#WGACRNKzNXKGmpzL2DsB_pad-3" x="4488.2" y="-3661.4"/><use xlink:href="#WGACRNKzNXKGmpzL2DsB_pad-3" x="4488.2" y="-3780.3"/><use xlink:href="#WGACRNKzNXKGmpzL2DsB_pad-3" x="4566.9" y="-708.7"/><use xlink:href="#WGACRNKzNXKGmpzL2DsB_pad-3" x="4566.9" y="-827.6"/><use xlink:href="#WGACRNKzNXKGmpzL2DsB_pad-3" x="4566.9" y="-1692.9"/><use xlink:href="#WGACRNKzNXKGmpzL2DsB_pad-3" x="4566.9" y="-1811.8"/><use xlink:href="#WGACRNKzNXKGmpzL2DsB_pad-3" x="4566.9" y="-2677.2"/><use xlink:href="#WGACRNKzNXKGmpzL2DsB_pad-3" x="4566.9" y="-2796.1"/><use xlink:href="#WGACRNKzNXKGmpzL2DsB_pad-3" x="4566.9" y="-3661.4"/><use xlink:href="#WGACRNKzNXKGmpzL2DsB_pad-3" x="4566.9" y="-3780.3"/><use xlink:href="#WGACRNKzNXKGmpzL2DsB_pad-3" x="4645.7" y="-708.7"/><use xlink:href="#WGACRNKzNXKGmpzL2DsB_pad-3" x="4645.7" y="-827.6"/><use xlink:href="#WGACRNKzNXKGmpzL2DsB_pad-3" x="4645.7" y="-1692.9"/><use xlink:href="#WGACRNKzNXKGmpzL2DsB_pad-3" x="4645.7" y="-1811.8"/><use xlink:href="#WGACRNKzNXKGmpzL2DsB_pad-3" x="4645.7" y="-2677.2"/><use xlink:href="#WGACRNKzNXKGmpzL2DsB_pad-3" x="4645.7" y="-2796.1"/><use xlink:href="#WGACRNKzNXKGmpzL2DsB_pad-3" x="4645.7" y="-3661.4"/><use xlink:href="#WGACRNKzNXKGmpzL2DsB_pad-3" x="4645.7" y="-3780.3"/><use xlink:href="#WGACRNKzNXKGmpzL2DsB_pad-4" x="2216.5" y="-768.1"/><use xlink:href="#WGACRNKzNXKGmpzL2DsB_pad-4" x="2216.5" y="-1752.4"/><use xlink:href="#WGACRNKzNXKGmpzL2DsB_pad-4" x="2216.5" y="-2736.6"/><use xlink:href="#WGACRNKzNXKGmpzL2DsB_pad-4" x="2216.5" y="-3720.9"/><use xlink:href="#WGACRNKzNXKGmpzL2DsB_pad-4" x="4791.3" y="-768.1"/><use xlink:href="#WGACRNKzNXKGmpzL2DsB_pad-4" x="4791.3" y="-1752.4"/><use xlink:href="#WGACRNKzNXKGmpzL2DsB_pad-4" x="4791.3" y="-2736.6"/><use xlink:href="#WGACRNKzNXKGmpzL2DsB_pad-4" x="4791.3" y="-3720.9"/><use xlink:href="#WGACRNKzNXKGmpzL2DsB_pad-5" x="5910.6" y="-941.2"/><use xlink:href="#WGACRNKzNXKGmpzL2DsB_pad-5" x="5910.6" y="-1041.2"/><use xlink:href="#WGACRNKzNXKGmpzL2DsB_pad-5" x="5910.6" y="-1141.2"/><use xlink:href="#WGACRNKzNXKGmpzL2DsB_pad-5" x="5910.6" y="-1241.2"/><use xlink:href="#WGACRNKzNXKGmpzL2DsB_pad-5" x="5910.6" y="-1341.2"/><use xlink:href="#WGACRNKzNXKGmpzL2DsB_pad-5" x="5910.6" y="-1441.2"/><use xlink:href="#WGACRNKzNXKGmpzL2DsB_pad-5" x="5910.6" y="-1541.2"/><use xlink:href="#WGACRNKzNXKGmpzL2DsB_pad-5" x="5910.6" y="-1641.2"/><use xlink:href="#WGACRNKzNXKGmpzL2DsB_pad-5" x="5910.6" y="-1741.2"/><use xlink:href="#WGACRNKzNXKGmpzL2DsB_pad-5" x="5910.6" y="-1841.2"/><use xlink:href="#WGACRNKzNXKGmpzL2DsB_pad-5" x="5910.6" y="-1941.2"/><use xlink:href="#WGACRNKzNXKGmpzL2DsB_pad-5" x="5910.6" y="-2041.2"/><use xlink:href="#WGACRNKzNXKGmpzL2DsB_pad-5" x="5910.6" y="-2141.2"/><use xlink:href="#WGACRNKzNXKGmpzL2DsB_pad-5" x="5910.6" y="-2241.2"/><use xlink:href="#WGACRNKzNXKGmpzL2DsB_pad-5" x="5910.6" y="-2341.2"/><use xlink:href="#WGACRNKzNXKGmpzL2DsB_pad-5" x="5910.6" y="-2441.2"/><use xlink:href="#WGACRNKzNXKGmpzL2DsB_pad-5" x="5910.6" y="-2541.2"/><use xlink:href="#WGACRNKzNXKGmpzL2DsB_pad-5" x="5910.6" y="-2641.2"/><use xlink:href="#WGACRNKzNXKGmpzL2DsB_pad-5" x="5910.6" y="-2741.2"/><use xlink:href="#WGACRNKzNXKGmpzL2DsB_pad-5" x="5910.6" y="-2841.2"/><use xlink:href="#WGACRNKzNXKGmpzL2DsB_pad-5" x="5910.6" y="-2941.2"/><use xlink:href="#WGACRNKzNXKGmpzL2DsB_pad-5" x="5910.6" y="-3041.2"/><use xlink:href="#WGACRNKzNXKGmpzL2DsB_pad-5" x="5910.6" y="-3141.2"/><use xlink:href="#WGACRNKzNXKGmpzL2DsB_pad-5" x="5910.6" y="-3241.2"/><use xlink:href="#WGACRNKzNXKGmpzL2DsB_pad-5" x="5910.6" y="-3341.2"/><use xlink:href="#WGACRNKzNXKGmpzL2DsB_pad-5" x="6010.6" y="-941.2"/><use xlink:href="#WGACRNKzNXKGmpzL2DsB_pad-5" x="6010.6" y="-1041.2"/><use xlink:href="#WGACRNKzNXKGmpzL2DsB_pad-5" x="6010.6" y="-1141.2"/><use xlink:href="#WGACRNKzNXKGmpzL2DsB_pad-5" x="6010.6" y="-1241.2"/><use xlink:href="#WGACRNKzNXKGmpzL2DsB_pad-5" x="6010.6" y="-1341.2"/><use xlink:href="#WGACRNKzNXKGmpzL2DsB_pad-5" x="6010.6" y="-1441.2"/><use xlink:href="#WGACRNKzNXKGmpzL2DsB_pad-5" x="6010.6" y="-1541.2"/><use xlink:href="#WGACRNKzNXKGmpzL2DsB_pad-5" x="6010.6" y="-1641.2"/><use xlink:href="#WGACRNKzNXKGmpzL2DsB_pad-5" x="6010.6" y="-1741.2"/><use xlink:href="#WGACRNKzNXKGmpzL2DsB_pad-5" x="6010.6" y="-1841.2"/><use xlink:href="#WGACRNKzNXKGmpzL2DsB_pad-5" x="6010.6" y="-1941.2"/><use xlink:href="#WGACRNKzNXKGmpzL2DsB_pad-5" x="6010.6" y="-2041.2"/><use xlink:href="#WGACRNKzNXKGmpzL2DsB_pad-5" x="6010.6" y="-2141.2"/><use xlink:href="#WGACRNKzNXKGmpzL2DsB_pad-5" x="6010.6" y="-2241.2"/><use xlink:href="#WGACRNKzNXKGmpzL2DsB_pad-5" x="6010.6" y="-2341.2"/><use xlink:href="#WGACRNKzNXKGmpzL2DsB_pad-5" x="6010.6" y="-2441.2"/><use xlink:href="#WGACRNKzNXKGmpzL2DsB_pad-5" x="6010.6" y="-2541.2"/><use xlink:href="#WGACRNKzNXKGmpzL2DsB_pad-5" x="6010.6" y="-2641.2"/><use xlink:href="#WGACRNKzNXKGmpzL2DsB_pad-5" x="6010.6" y="-2741.2"/><use xlink:href="#WGACRNKzNXKGmpzL2DsB_pad-5" x="6010.6" y="-2841.2"/><use xlink:href="#WGACRNKzNXKGmpzL2DsB_pad-5" x="6010.6" y="-2941.2"/><use xlink:href="#WGACRNKzNXKGmpzL2DsB_pad-5" x="6010.6" y="-3041.2"/><use xlink:href="#WGACRNKzNXKGmpzL2DsB_pad-5" x="6010.6" y="-3141.2"/><use xlink:href="#WGACRNKzNXKGmpzL2DsB_pad-5" x="6010.6" y="-3241.2"/><use xlink:href="#WGACRNKzNXKGmpzL2DsB_pad-5" x="6010.6" y="-3341.2"/><use xlink:href="#WGACRNKzNXKGmpzL2DsB_pad-6" x="1750" y="-750"/><use xlink:href="#WGACRNKzNXKGmpzL2DsB_pad-6" x="1750" y="-4500"/><use xlink:href="#WGACRNKzNXKGmpzL2DsB_pad-6" x="5975" y="-750"/><use xlink:href="#WGACRNKzNXKGmpzL2DsB_pad-6" x="5975" y="-4500"/></g></svg>