<svg version="1.1" xmlns="http://www.w3.org/2000/svg" xmlns:xlink="http://www.w3.org/1999/xlink" stroke-linecap="round" stroke-linejoin="round" stroke-width="0" fill-rule="evenodd" width="37.001mm" height="82.35mm" viewBox="75604.6 -108750 37001 82350" id="jfEEpyIpRdfLb3f5ksZ4"><defs><g id="jfEEpyIpRdfLb3f5ksZ4_pad-10"><polygon points="-100,637.5 -100,-637.5 100,-637.5 100,637.5"/><circle cx="-100" cy="637.5" r="100"/><circle cx="-100" cy="-637.5" r="100"/><circle cx="100" cy="-637.5" r="100"/><circle cx="100" cy="637.5" r="100"/><polygon points="0,637.5 0,-637.5 -200,-637.5 -200,637.5"/><polygon points="-100,-737.5 100,-737.5 100,-537.5 -100,-537.5"/><polygon points="200,-637.5 200,637.5 0,637.5 0,-637.5"/><polygon points="100,537.5 -100,537.5 -100,737.5 100,737.5"/></g></defs><g transform="translate(0,-135150) scale(1,-1)" fill="currentColor" stroke="currentColor"><use xlink:href="#jfEEpyIpRdfLb3f5ksZ4_pad-10" x="83825" y="-102287.5"/><use xlink:href="#jfEEpyIpRdfLb3f5ksZ4_pad-10" x="84475" y="-102287.5"/><use xlink:href="#jfEEpyIpRdfLb3f5ksZ4_pad-10" x="85125" y="-102287.5"/><use xlink:href="#jfEEpyIpRdfLb3f5ksZ4_pad-10" x="85775" y="-102287.5"/><use xlink:href="#jfEEpyIpRdfLb3f5ksZ4_pad-10" x="86425" y="-102287.5"/><use xlink:href="#jfEEpyIpRdfLb3f5ksZ4_pad-10" x="87075" y="-102287.5"/><use xlink:href="#jfEEpyIpRdfLb3f5ksZ4_pad-10" x="87725" y="-102287.5"/><use xlink:href="#jfEEpyIpRdfLb3f5ksZ4_pad-10" x="88375" y="-102287.5"/><use xlink:href="#jfEEpyIpRdfLb3f5ksZ4_pad-10" x="88375" y="-108012.5"/><use xlink:href="#jfEEpyIpRdfLb3f5ksZ4_pad-10" x="87725" y="-108012.5"/><use xlink:href="#jfEEpyIpRdfLb3f5ksZ4_pad-10" x="87075" y="-108012.5"/><use xlink:href="#jfEEpyIpRdfLb3f5ksZ4_pad-10" x="86425" y="-108012.5"/><use xlink:href="#jfEEpyIpRdfLb3f5ksZ4_pad-10" x="85775" y="-108012.5"/><use xlink:href="#jfEEpyIpRdfLb3f5ksZ4_pad-10" x="85125" y="-108012.5"/><use xlink:href="#jfEEpyIpRdfLb3f5ksZ4_pad-10" x="84475" y="-108012.5"/><use xlink:href="#jfEEpyIpRdfLb3f5ksZ4_pad-10" x="83825" y="-108012.5"/><use xlink:href="#jfEEpyIpRdfLb3f5ksZ4_pad-10" x="83804.6" y="-52204.7"/><use xlink:href="#jfEEpyIpRdfLb3f5ksZ4_pad-10" x="84454.6" y="-52204.7"/><use xlink:href="#jfEEpyIpRdfLb3f5ksZ4_pad-10" x="85104.6" y="-52204.7"/><use xlink:href="#jfEEpyIpRdfLb3f5ksZ4_pad-10" x="85754.6" y="-52204.7"/><use xlink:href="#jfEEpyIpRdfLb3f5ksZ4_pad-10" x="86404.6" y="-52204.7"/><use xlink:href="#jfEEpyIpRdfLb3f5ksZ4_pad-10" x="87054.6" y="-52204.7"/><use xlink:href="#jfEEpyIpRdfLb3f5ksZ4_pad-10" x="87704.6" y="-52204.7"/><use xlink:href="#jfEEpyIpRdfLb3f5ksZ4_pad-10" x="88354.6" y="-52204.7"/><use xlink:href="#jfEEpyIpRdfLb3f5ksZ4_pad-10" x="88354.6" y="-57929.7"/><use xlink:href="#jfEEpyIpRdfLb3f5ksZ4_pad-10" x="87704.6" y="-57929.7"/><use xlink:href="#jfEEpyIpRdfLb3f5ksZ4_pad-10" x="87054.6" y="-57929.7"/><use xlink:href="#jfEEpyIpRdfLb3f5ksZ4_pad-10" x="86404.6" y="-57929.7"/><use xlink:href="#jfEEpyIpRdfLb3f5ksZ4_pad-10" x="85754.6" y="-57929.7"/><use xlink:href="#jfEEpyIpRdfLb3f5ksZ4_pad-10" x="85104.6" y="-57929.7"/><use xlink:href="#jfEEpyIpRdfLb3f5ksZ4_pad-10" x="84454.6" y="-57929.7"/><use xlink:href="#jfEEpyIpRdfLb3f5ksZ4_pad-10" x="83804.6" y="-57929.7"/><use xlink:href="#jfEEpyIpRdfLb3f5ksZ4_pad-10" x="107855.6" y="-52272.2"/><use xlink:href="#jfEEpyIpRdfLb3f5ksZ4_pad-10" x="108505.6" y="-52272.2"/><use xlink:href="#jfEEpyIpRdfLb3f5ksZ4_pad-10" x="109155.6" y="-52272.2"/><use xlink:href="#jfEEpyIpRdfLb3f5ksZ4_pad-10" x="109805.6" y="-52272.2"/><use xlink:href="#jfEEpyIpRdfLb3f5ksZ4_pad-10" x="110455.6" y="-52272.2"/><use xlink:href="#jfEEpyIpRdfLb3f5ksZ4_pad-10" x="111105.6" y="-52272.2"/><use xlink:href="#jfEEpyIpRdfLb3f5ksZ4_pad-10" x="111755.6" y="-52272.2"/><use xlink:href="#jfEEpyIpRdfLb3f5ksZ4_pad-10" x="112405.6" y="-52272.2"/><use xlink:href="#jfEEpyIpRdfLb3f5ksZ4_pad-10" x="112405.6" y="-57997.2"/><use xlink:href="#jfEEpyIpRdfLb3f5ksZ4_pad-10" x="111755.6" y="-57997.2"/><use xlink:href="#jfEEpyIpRdfLb3f5ksZ4_pad-10" x="111105.6" y="-57997.2"/><use xlink:href="#jfEEpyIpRdfLb3f5ksZ4_pad-10" x="110455.6" y="-57997.2"/><use xlink:href="#jfEEpyIpRdfLb3f5ksZ4_pad-10" x="109805.6" y="-57997.2"/><use xlink:href="#jfEEpyIpRdfLb3f5ksZ4_pad-10" x="109155.6" y="-57997.2"/><use xlink:href="#jfEEpyIpRdfLb3f5ksZ4_pad-10" x="108505.6" y="-57997.2"/><use xlink:href="#jfEEpyIpRdfLb3f5ksZ4_pad-10" x="107855.6" y="-57997.2"/><use xlink:href="#jfEEpyIpRdfLb3f5ksZ4_pad-10" x="99819" y="-27137.5"/><use xlink:href="#jfEEpyIpRdfLb3f5ksZ4_pad-10" x="100469" y="-27137.5"/><use xlink:href="#jfEEpyIpRdfLb3f5ksZ4_pad-10" x="101119" y="-27137.5"/><use xlink:href="#jfEEpyIpRdfLb3f5ksZ4_pad-10" x="101769" y="-27137.5"/><use xlink:href="#jfEEpyIpRdfLb3f5ksZ4_pad-10" x="102419" y="-27137.5"/><use xlink:href="#jfEEpyIpRdfLb3f5ksZ4_pad-10" x="103069" y="-27137.5"/><use xlink:href="#jfEEpyIpRdfLb3f5ksZ4_pad-10" x="103719" y="-27137.5"/><use xlink:href="#jfEEpyIpRdfLb3f5ksZ4_pad-10" x="104369" y="-27137.5"/><use xlink:href="#jfEEpyIpRdfLb3f5ksZ4_pad-10" x="104369" y="-32862.5"/><use xlink:href="#jfEEpyIpRdfLb3f5ksZ4_pad-10" x="103719" y="-32862.5"/><use xlink:href="#jfEEpyIpRdfLb3f5ksZ4_pad-10" x="103069" y="-32862.5"/><use xlink:href="#jfEEpyIpRdfLb3f5ksZ4_pad-10" x="102419" y="-32862.5"/><use xlink:href="#jfEEpyIpRdfLb3f5ksZ4_pad-10" x="101769" y="-32862.5"/><use xlink:href="#jfEEpyIpRdfLb3f5ksZ4_pad-10" x="101119" y="-32862.5"/><use xlink:href="#jfEEpyIpRdfLb3f5ksZ4_pad-10" x="100469" y="-32862.5"/><use xlink:href="#jfEEpyIpRdfLb3f5ksZ4_pad-10" x="99819" y="-32862.5"/><use xlink:href="#jfEEpyIpRdfLb3f5ksZ4_pad-10" x="107825" y="-102287.5"/><use xlink:href="#jfEEpyIpRdfLb3f5ksZ4_pad-10" x="108475" y="-102287.5"/><use xlink:href="#jfEEpyIpRdfLb3f5ksZ4_pad-10" x="109125" y="-102287.5"/><use xlink:href="#jfEEpyIpRdfLb3f5ksZ4_pad-10" x="109775" y="-102287.5"/><use xlink:href="#jfEEpyIpRdfLb3f5ksZ4_pad-10" x="110425" y="-102287.5"/><use xlink:href="#jfEEpyIpRdfLb3f5ksZ4_pad-10" x="111075" y="-102287.5"/><use xlink:href="#jfEEpyIpRdfLb3f5ksZ4_pad-10" x="111725" y="-102287.5"/><use xlink:href="#jfEEpyIpRdfLb3f5ksZ4_pad-10" x="112375" y="-102287.5"/><use xlink:href="#jfEEpyIpRdfLb3f5ksZ4_pad-10" x="112375" y="-108012.5"/><use xlink:href="#jfEEpyIpRdfLb3f5ksZ4_pad-10" x="111725" y="-108012.5"/><use xlink:href="#jfEEpyIpRdfLb3f5ksZ4_pad-10" x="111075" y="-108012.5"/><use xlink:href="#jfEEpyIpRdfLb3f5ksZ4_pad-10" x="110425" y="-108012.5"/><use xlink:href="#jfEEpyIpRdfLb3f5ksZ4_pad-10" x="109775" y="-108012.5"/><use xlink:href="#jfEEpyIpRdfLb3f5ksZ4_pad-10" x="109125" y="-108012.5"/><use xlink:href="#jfEEpyIpRdfLb3f5ksZ4_pad-10" x="108475" y="-108012.5"/><use xlink:href="#jfEEpyIpRdfLb3f5ksZ4_pad-10" x="107825" y="-108012.5"/><use xlink:href="#jfEEpyIpRdfLb3f5ksZ4_pad-10" x="99825" y="-77237.5"/><use xlink:href="#jfEEpyIpRdfLb3f5ksZ4_pad-10" x="100475" y="-77237.5"/><use xlink:href="#jfEEpyIpRdfLb3f5ksZ4_pad-10" x="101125" y="-77237.5"/><use xlink:href="#jfEEpyIpRdfLb3f5ksZ4_pad-10" x="101775" y="-77237.5"/><use xlink:href="#jfEEpyIpRdfLb3f5ksZ4_pad-10" x="102425" y="-77237.5"/><use xlink:href="#jfEEpyIpRdfLb3f5ksZ4_pad-10" x="103075" y="-77237.5"/><use xlink:href="#jfEEpyIpRdfLb3f5ksZ4_pad-10" x="103725" y="-77237.5"/><use xlink:href="#jfEEpyIpRdfLb3f5ksZ4_pad-10" x="104375" y="-77237.5"/><use xlink:href="#jfEEpyIpRdfLb3f5ksZ4_pad-10" x="104375" y="-82962.5"/><use xlink:href="#jfEEpyIpRdfLb3f5ksZ4_pad-10" x="103725" y="-82962.5"/><use xlink:href="#jfEEpyIpRdfLb3f5ksZ4_pad-10" x="103075" y="-82962.5"/><use xlink:href="#jfEEpyIpRdfLb3f5ksZ4_pad-10" x="102425" y="-82962.5"/><use xlink:href="#jfEEpyIpRdfLb3f5ksZ4_pad-10" x="101775" y="-82962.5"/><use xlink:href="#jfEEpyIpRdfLb3f5ksZ4_pad-10" x="101125" y="-82962.5"/><use xlink:href="#jfEEpyIpRdfLb3f5ksZ4_pad-10" x="100475" y="-82962.5"/><use xlink:href="#jfEEpyIpRdfLb3f5ksZ4_pad-10" x="99825" y="-82962.5"/><use xlink:href="#jfEEpyIpRdfLb3f5ksZ4_pad-10" x="75819" y="-27137.5"/><use xlink:href="#jfEEpyIpRdfLb3f5ksZ4_pad-10" x="76469" y="-27137.5"/><use xlink:href="#jfEEpyIpRdfLb3f5ksZ4_pad-10" x="77119" y="-27137.5"/><use xlink:href="#jfEEpyIpRdfLb3f5ksZ4_pad-10" x="77769" y="-27137.5"/><use xlink:href="#jfEEpyIpRdfLb3f5ksZ4_pad-10" x="78419" y="-27137.5"/><use xlink:href="#jfEEpyIpRdfLb3f5ksZ4_pad-10" x="79069" y="-27137.5"/><use xlink:href="#jfEEpyIpRdfLb3f5ksZ4_pad-10" x="79719" y="-27137.5"/><use xlink:href="#jfEEpyIpRdfLb3f5ksZ4_pad-10" x="80369" y="-27137.5"/><use xlink:href="#jfEEpyIpRdfLb3f5ksZ4_pad-10" x="80369" y="-32862.5"/><use xlink:href="#jfEEpyIpRdfLb3f5ksZ4_pad-10" x="79719" y="-32862.5"/><use xlink:href="#jfEEpyIpRdfLb3f5ksZ4_pad-10" x="79069" y="-32862.5"/><use xlink:href="#jfEEpyIpRdfLb3f5ksZ4_pad-10" x="78419" y="-32862.5"/><use xlink:href="#jfEEpyIpRdfLb3f5ksZ4_pad-10" x="77769" y="-32862.5"/><use xlink:href="#jfEEpyIpRdfLb3f5ksZ4_pad-10" x="77119" y="-32862.5"/><use xlink:href="#jfEEpyIpRdfLb3f5ksZ4_pad-10" x="76469" y="-32862.5"/><use xlink:href="#jfEEpyIpRdfLb3f5ksZ4_pad-10" x="75819" y="-32862.5"/><use xlink:href="#jfEEpyIpRdfLb3f5ksZ4_pad-10" x="75825" y="-77237.5"/><use xlink:href="#jfEEpyIpRdfLb3f5ksZ4_pad-10" x="76475" y="-77237.5"/><use xlink:href="#jfEEpyIpRdfLb3f5ksZ4_pad-10" x="77125" y="-77237.5"/><use xlink:href="#jfEEpyIpRdfLb3f5ksZ4_pad-10" x="77775" y="-77237.5"/><use xlink:href="#jfEEpyIpRdfLb3f5ksZ4_pad-10" x="78425" y="-77237.5"/><use xlink:href="#jfEEpyIpRdfLb3f5ksZ4_pad-10" x="79075" y="-77237.5"/><use xlink:href="#jfEEpyIpRdfLb3f5ksZ4_pad-10" x="79725" y="-77237.5"/><use xlink:href="#jfEEpyIpRdfLb3f5ksZ4_pad-10" x="80375" y="-77237.5"/><use xlink:href="#jfEEpyIpRdfLb3f5ksZ4_pad-10" x="80375" y="-82962.5"/><use xlink:href="#jfEEpyIpRdfLb3f5ksZ4_pad-10" x="79725" y="-82962.5"/><use xlink:href="#jfEEpyIpRdfLb3f5ksZ4_pad-10" x="79075" y="-82962.5"/><use xlink:href="#jfEEpyIpRdfLb3f5ksZ4_pad-10" x="78425" y="-82962.5"/><use xlink:href="#jfEEpyIpRdfLb3f5ksZ4_pad-10" x="77775" y="-82962.5"/><use xlink:href="#jfEEpyIpRdfLb3f5ksZ4_pad-10" x="77125" y="-82962.5"/><use xlink:href="#jfEEpyIpRdfLb3f5ksZ4_pad-10" x="76475" y="-82962.5"/><use xlink:href="#jfEEpyIpRdfLb3f5ksZ4_pad-10" x="75825" y="-82962.5"/><use xlink:href="#jfEEpyIpRdfLb3f5ksZ4_pad-10" x="83819" y="-27137.5"/><use xlink:href="#jfEEpyIpRdfLb3f5ksZ4_pad-10" x="84469" y="-27137.5"/><use xlink:href="#jfEEpyIpRdfLb3f5ksZ4_pad-10" x="85119" y="-27137.5"/><use xlink:href="#jfEEpyIpRdfLb3f5ksZ4_pad-10" x="85769" y="-27137.5"/><use xlink:href="#jfEEpyIpRdfLb3f5ksZ4_pad-10" x="86419" y="-27137.5"/><use xlink:href="#jfEEpyIpRdfLb3f5ksZ4_pad-10" x="87069" y="-27137.5"/><use xlink:href="#jfEEpyIpRdfLb3f5ksZ4_pad-10" x="87719" y="-27137.5"/><use xlink:href="#jfEEpyIpRdfLb3f5ksZ4_pad-10" x="88369" y="-27137.5"/><use xlink:href="#jfEEpyIpRdfLb3f5ksZ4_pad-10" x="88369" y="-32862.5"/><use xlink:href="#jfEEpyIpRdfLb3f5ksZ4_pad-10" x="87719" y="-32862.5"/><use xlink:href="#jfEEpyIpRdfLb3f5ksZ4_pad-10" x="87069" y="-32862.5"/><use xlink:href="#jfEEpyIpRdfLb3f5ksZ4_pad-10" x="86419" y="-32862.5"/><use xlink:href="#jfEEpyIpRdfLb3f5ksZ4_pad-10" x="85769" y="-32862.5"/><use xlink:href="#jfEEpyIpRdfLb3f5ksZ4_pad-10" x="85119" y="-32862.5"/><use xlink:href="#jfEEpyIpRdfLb3f5ksZ4_pad-10" x="84469" y="-32862.5"/><use xlink:href="#jfEEpyIpRdfLb3f5ksZ4_pad-10" x="83819" y="-32862.5"/><use xlink:href="#jfEEpyIpRdfLb3f5ksZ4_pad-10" x="91819" y="-27137.5"/><use xlink:href="#jfEEpyIpRdfLb3f5ksZ4_pad-10" x="92469" y="-27137.5"/><use xlink:href="#jfEEpyIpRdfLb3f5ksZ4_pad-10" x="93119" y="-27137.5"/><use xlink:href="#jfEEpyIpRdfLb3f5ksZ4_pad-10" x="93769" y="-27137.5"/><use xlink:href="#jfEEpyIpRdfLb3f5ksZ4_pad-10" x="94419" y="-27137.5"/><use xlink:href="#jfEEpyIpRdfLb3f5ksZ4_pad-10" x="95069" y="-27137.5"/><use xlink:href="#jfEEpyIpRdfLb3f5ksZ4_pad-10" x="95719" y="-27137.5"/><use xlink:href="#jfEEpyIpRdfLb3f5ksZ4_pad-10" x="96369" y="-27137.5"/><use xlink:href="#jfEEpyIpRdfLb3f5ksZ4_pad-10" x="96369" y="-32862.5"/><use xlink:href="#jfEEpyIpRdfLb3f5ksZ4_pad-10" x="95719" y="-32862.5"/><use xlink:href="#jfEEpyIpRdfLb3f5ksZ4_pad-10" x="95069" y="-32862.5"/><use xlink:href="#jfEEpyIpRdfLb3f5ksZ4_pad-10" x="94419" y="-32862.5"/><use xlink:href="#jfEEpyIpRdfLb3f5ksZ4_pad-10" x="93769" y="-32862.5"/><use xlink:href="#jfEEpyIpRdfLb3f5ksZ4_pad-10" x="93119" y="-32862.5"/><use xlink:href="#jfEEpyIpRdfLb3f5ksZ4_pad-10" x="92469" y="-32862.5"/><use xlink:href="#jfEEpyIpRdfLb3f5ksZ4_pad-10" x="91819" y="-32862.5"/><use xlink:href="#jfEEpyIpRdfLb3f5ksZ4_pad-10" x="107825" y="-77287.5"/><use xlink:href="#jfEEpyIpRdfLb3f5ksZ4_pad-10" x="108475" y="-77287.5"/><use xlink:href="#jfEEpyIpRdfLb3f5ksZ4_pad-10" x="109125" y="-77287.5"/><use xlink:href="#jfEEpyIpRdfLb3f5ksZ4_pad-10" x="109775" y="-77287.5"/><use xlink:href="#jfEEpyIpRdfLb3f5ksZ4_pad-10" x="110425" y="-77287.5"/><use xlink:href="#jfEEpyIpRdfLb3f5ksZ4_pad-10" x="111075" y="-77287.5"/><use xlink:href="#jfEEpyIpRdfLb3f5ksZ4_pad-10" x="111725" y="-77287.5"/><use xlink:href="#jfEEpyIpRdfLb3f5ksZ4_pad-10" x="112375" y="-77287.5"/><use xlink:href="#jfEEpyIpRdfLb3f5ksZ4_pad-10" x="112375" y="-83012.5"/><use xlink:href="#jfEEpyIpRdfLb3f5ksZ4_pad-10" x="111725" y="-83012.5"/><use xlink:href="#jfEEpyIpRdfLb3f5ksZ4_pad-10" x="111075" y="-83012.5"/><use xlink:href="#jfEEpyIpRdfLb3f5ksZ4_pad-10" x="110425" y="-83012.5"/><use xlink:href="#jfEEpyIpRdfLb3f5ksZ4_pad-10" x="109775" y="-83012.5"/><use xlink:href="#jfEEpyIpRdfLb3f5ksZ4_pad-10" x="109125" y="-83012.5"/><use xlink:href="#jfEEpyIpRdfLb3f5ksZ4_pad-10" x="108475" y="-83012.5"/><use xlink:href="#jfEEpyIpRdfLb3f5ksZ4_pad-10" x="107825" y="-83012.5"/><use xlink:href="#jfEEpyIpRdfLb3f5ksZ4_pad-10" x="107819" y="-27137.5"/><use xlink:href="#jfEEpyIpRdfLb3f5ksZ4_pad-10" x="108469" y="-27137.5"/><use xlink:href="#jfEEpyIpRdfLb3f5ksZ4_pad-10" x="109119" y="-27137.5"/><use xlink:href="#jfEEpyIpRdfLb3f5ksZ4_pad-10" x="109769" y="-27137.5"/><use xlink:href="#jfEEpyIpRdfLb3f5ksZ4_pad-10" x="110419" y="-27137.5"/><use xlink:href="#jfEEpyIpRdfLb3f5ksZ4_pad-10" x="111069" y="-27137.5"/><use xlink:href="#jfEEpyIpRdfLb3f5ksZ4_pad-10" x="111719" y="-27137.5"/><use xlink:href="#jfEEpyIpRdfLb3f5ksZ4_pad-10" x="112369" y="-27137.5"/><use xlink:href="#jfEEpyIpRdfLb3f5ksZ4_pad-10" x="112369" y="-32862.5"/><use xlink:href="#jfEEpyIpRdfLb3f5ksZ4_pad-10" x="111719" y="-32862.5"/><use xlink:href="#jfEEpyIpRdfLb3f5ksZ4_pad-10" x="111069" y="-32862.5"/><use xlink:href="#jfEEpyIpRdfLb3f5ksZ4_pad-10" x="110419" y="-32862.5"/><use xlink:href="#jfEEpyIpRdfLb3f5ksZ4_pad-10" x="109769" y="-32862.5"/><use xlink:href="#jfEEpyIpRdfLb3f5ksZ4_pad-10" x="109119" y="-32862.5"/><use xlink:href="#jfEEpyIpRdfLb3f5ksZ4_pad-10" x="108469" y="-32862.5"/><use xlink:href="#jfEEpyIpRdfLb3f5ksZ4_pad-10" x="107819" y="-32862.5"/><use xlink:href="#jfEEpyIpRdfLb3f5ksZ4_pad-10" x="83825" y="-77237.5"/><use xlink:href="#jfEEpyIpRdfLb3f5ksZ4_pad-10" x="84475" y="-77237.5"/><use xlink:href="#jfEEpyIpRdfLb3f5ksZ4_pad-10" x="85125" y="-77237.5"/><use xlink:href="#jfEEpyIpRdfLb3f5ksZ4_pad-10" x="85775" y="-77237.5"/><use xlink:href="#jfEEpyIpRdfLb3f5ksZ4_pad-10" x="86425" y="-77237.5"/><use xlink:href="#jfEEpyIpRdfLb3f5ksZ4_pad-10" x="87075" y="-77237.5"/><use xlink:href="#jfEEpyIpRdfLb3f5ksZ4_pad-10" x="87725" y="-77237.5"/><use xlink:href="#jfEEpyIpRdfLb3f5ksZ4_pad-10" x="88375" y="-77237.5"/><use xlink:href="#jfEEpyIpRdfLb3f5ksZ4_pad-10" x="88375" y="-82962.5"/><use xlink:href="#jfEEpyIpRdfLb3f5ksZ4_pad-10" x="87725" y="-82962.5"/><use xlink:href="#jfEEpyIpRdfLb3f5ksZ4_pad-10" x="87075" y="-82962.5"/><use xlink:href="#jfEEpyIpRdfLb3f5ksZ4_pad-10" x="86425" y="-82962.5"/><use xlink:href="#jfEEpyIpRdfLb3f5ksZ4_pad-10" x="85775" y="-82962.5"/><use xlink:href="#jfEEpyIpRdfLb3f5ksZ4_pad-10" x="85125" y="-82962.5"/><use xlink:href="#jfEEpyIpRdfLb3f5ksZ4_pad-10" x="84475" y="-82962.5"/><use xlink:href="#jfEEpyIpRdfLb3f5ksZ4_pad-10" x="83825" y="-82962.5"/><use xlink:href="#jfEEpyIpRdfLb3f5ksZ4_pad-10" x="99825" y="-102287.5"/><use xlink:href="#jfEEpyIpRdfLb3f5ksZ4_pad-10" x="100475" y="-102287.5"/><use xlink:href="#jfEEpyIpRdfLb3f5ksZ4_pad-10" x="101125" y="-102287.5"/><use xlink:href="#jfEEpyIpRdfLb3f5ksZ4_pad-10" x="101775" y="-102287.5"/><use xlink:href="#jfEEpyIpRdfLb3f5ksZ4_pad-10" x="102425" y="-102287.5"/><use xlink:href="#jfEEpyIpRdfLb3f5ksZ4_pad-10" x="103075" y="-102287.5"/><use xlink:href="#jfEEpyIpRdfLb3f5ksZ4_pad-10" x="103725" y="-102287.5"/><use xlink:href="#jfEEpyIpRdfLb3f5ksZ4_pad-10" x="104375" y="-102287.5"/><use xlink:href="#jfEEpyIpRdfLb3f5ksZ4_pad-10" x="104375" y="-108012.5"/><use xlink:href="#jfEEpyIpRdfLb3f5ksZ4_pad-10" x="103725" y="-108012.5"/><use xlink:href="#jfEEpyIpRdfLb3f5ksZ4_pad-10" x="103075" y="-108012.5"/><use xlink:href="#jfEEpyIpRdfLb3f5ksZ4_pad-10" x="102425" y="-108012.5"/><use xlink:href="#jfEEpyIpRdfLb3f5ksZ4_pad-10" x="101775" y="-108012.5"/><use xlink:href="#jfEEpyIpRdfLb3f5ksZ4_pad-10" x="101125" y="-108012.5"/><use xlink:href="#jfEEpyIpRdfLb3f5ksZ4_pad-10" x="100475" y="-108012.5"/><use xlink:href="#jfEEpyIpRdfLb3f5ksZ4_pad-10" x="99825" y="-108012.5"/><use xlink:href="#jfEEpyIpRdfLb3f5ksZ4_pad-10" x="99804.6" y="-52204.7"/><use xlink:href="#jfEEpyIpRdfLb3f5ksZ4_pad-10" x="100454.6" y="-52204.7"/><use xlink:href="#jfEEpyIpRdfLb3f5ksZ4_pad-10" x="101104.6" y="-52204.7"/><use xlink:href="#jfEEpyIpRdfLb3f5ksZ4_pad-10" x="101754.6" y="-52204.7"/><use xlink:href="#jfEEpyIpRdfLb3f5ksZ4_pad-10" x="102404.6" y="-52204.7"/><use xlink:href="#jfEEpyIpRdfLb3f5ksZ4_pad-10" x="103054.6" y="-52204.7"/><use xlink:href="#jfEEpyIpRdfLb3f5ksZ4_pad-10" x="103704.6" y="-52204.7"/><use xlink:href="#jfEEpyIpRdfLb3f5ksZ4_pad-10" x="104354.6" y="-52204.7"/><use xlink:href="#jfEEpyIpRdfLb3f5ksZ4_pad-10" x="104354.6" y="-57929.7"/><use xlink:href="#jfEEpyIpRdfLb3f5ksZ4_pad-10" x="103704.6" y="-57929.7"/><use xlink:href="#jfEEpyIpRdfLb3f5ksZ4_pad-10" x="103054.6" y="-57929.7"/><use xlink:href="#jfEEpyIpRdfLb3f5ksZ4_pad-10" x="102404.6" y="-57929.7"/><use xlink:href="#jfEEpyIpRdfLb3f5ksZ4_pad-10" x="101754.6" y="-57929.7"/><use xlink:href="#jfEEpyIpRdfLb3f5ksZ4_pad-10" x="101104.6" y="-57929.7"/><use xlink:href="#jfEEpyIpRdfLb3f5ksZ4_pad-10" x="100454.6" y="-57929.7"/><use xlink:href="#jfEEpyIpRdfLb3f5ksZ4_pad-10" x="99804.6" y="-57929.7"/><use xlink:href="#jfEEpyIpRdfLb3f5ksZ4_pad-10" x="91825" y="-102287.5"/><use xlink:href="#jfEEpyIpRdfLb3f5ksZ4_pad-10" x="92475" y="-102287.5"/><use xlink:href="#jfEEpyIpRdfLb3f5ksZ4_pad-10" x="93125" y="-102287.5"/><use xlink:href="#jfEEpyIpRdfLb3f5ksZ4_pad-10" x="93775" y="-102287.5"/><use xlink:href="#jfEEpyIpRdfLb3f5ksZ4_pad-10" x="94425" y="-102287.5"/><use xlink:href="#jfEEpyIpRdfLb3f5ksZ4_pad-10" x="95075" y="-102287.5"/><use xlink:href="#jfEEpyIpRdfLb3f5ksZ4_pad-10" x="95725" y="-102287.5"/><use xlink:href="#jfEEpyIpRdfLb3f5ksZ4_pad-10" x="96375" y="-102287.5"/><use xlink:href="#jfEEpyIpRdfLb3f5ksZ4_pad-10" x="96375" y="-108012.5"/><use xlink:href="#jfEEpyIpRdfLb3f5ksZ4_pad-10" x="95725" y="-108012.5"/><use xlink:href="#jfEEpyIpRdfLb3f5ksZ4_pad-10" x="95075" y="-108012.5"/><use xlink:href="#jfEEpyIpRdfLb3f5ksZ4_pad-10" x="94425" y="-108012.5"/><use xlink:href="#jfEEpyIpRdfLb3f5ksZ4_pad-10" x="93775" y="-108012.5"/><use xlink:href="#jfEEpyIpRdfLb3f5ksZ4_pad-10" x="93125" y="-108012.5"/><use xlink:href="#jfEEpyIpRdfLb3f5ksZ4_pad-10" x="92475" y="-108012.5"/><use xlink:href="#jfEEpyIpRdfLb3f5ksZ4_pad-10" x="91825" y="-108012.5"/><use xlink:href="#jfEEpyIpRdfLb3f5ksZ4_pad-10" x="91825" y="-77237.5"/><use xlink:href="#jfEEpyIpRdfLb3f5ksZ4_pad-10" x="92475" y="-77237.5"/><use xlink:href="#jfEEpyIpRdfLb3f5ksZ4_pad-10" x="93125" y="-77237.5"/><use xlink:href="#jfEEpyIpRdfLb3f5ksZ4_pad-10" x="93775" y="-77237.5"/><use xlink:href="#jfEEpyIpRdfLb3f5ksZ4_pad-10" x="94425" y="-77237.5"/><use xlink:href="#jfEEpyIpRdfLb3f5ksZ4_pad-10" x="95075" y="-77237.5"/><use xlink:href="#jfEEpyIpRdfLb3f5ksZ4_pad-10" x="95725" y="-77237.5"/><use xlink:href="#jfEEpyIpRdfLb3f5ksZ4_pad-10" x="96375" y="-77237.5"/><use xlink:href="#jfEEpyIpRdfLb3f5ksZ4_pad-10" x="96375" y="-82962.5"/><use xlink:href="#jfEEpyIpRdfLb3f5ksZ4_pad-10" x="95725" y="-82962.5"/><use xlink:href="#jfEEpyIpRdfLb3f5ksZ4_pad-10" x="95075" y="-82962.5"/><use xlink:href="#jfEEpyIpRdfLb3f5ksZ4_pad-10" x="94425" y="-82962.5"/><use xlink:href="#jfEEpyIpRdfLb3f5ksZ4_pad-10" x="93775" y="-82962.5"/><use xlink:href="#jfEEpyIpRdfLb3f5ksZ4_pad-10" x="93125" y="-82962.5"/><use xlink:href="#jfEEpyIpRdfLb3f5ksZ4_pad-10" x="92475" y="-82962.5"/><use xlink:href="#jfEEpyIpRdfLb3f5ksZ4_pad-10" x="91825" y="-82962.5"/><use xlink:href="#jfEEpyIpRdfLb3f5ksZ4_pad-10" x="75825" y="-102287.5"/><use xlink:href="#jfEEpyIpRdfLb3f5ksZ4_pad-10" x="76475" y="-102287.5"/><use xlink:href="#jfEEpyIpRdfLb3f5ksZ4_pad-10" x="77125" y="-102287.5"/><use xlink:href="#jfEEpyIpRdfLb3f5ksZ4_pad-10" x="77775" y="-102287.5"/><use xlink:href="#jfEEpyIpRdfLb3f5ksZ4_pad-10" x="78425" y="-102287.5"/><use xlink:href="#jfEEpyIpRdfLb3f5ksZ4_pad-10" x="79075" y="-102287.5"/><use xlink:href="#jfEEpyIpRdfLb3f5ksZ4_pad-10" x="79725" y="-102287.5"/><use xlink:href="#jfEEpyIpRdfLb3f5ksZ4_pad-10" x="80375" y="-102287.5"/><use xlink:href="#jfEEpyIpRdfLb3f5ksZ4_pad-10" x="80375" y="-108012.5"/><use xlink:href="#jfEEpyIpRdfLb3f5ksZ4_pad-10" x="79725" y="-108012.5"/><use xlink:href="#jfEEpyIpRdfLb3f5ksZ4_pad-10" x="79075" y="-108012.5"/><use xlink:href="#jfEEpyIpRdfLb3f5ksZ4_pad-10" x="78425" y="-108012.5"/><use xlink:href="#jfEEpyIpRdfLb3f5ksZ4_pad-10" x="77775" y="-108012.5"/><use xlink:href="#jfEEpyIpRdfLb3f5ksZ4_pad-10" x="77125" y="-108012.5"/><use xlink:href="#jfEEpyIpRdfLb3f5ksZ4_pad-10" x="76475" y="-108012.5"/><use xlink:href="#jfEEpyIpRdfLb3f5ksZ4_pad-10" x="75825" y="-108012.5"/><use xlink:href="#jfEEpyIpRdfLb3f5ksZ4_pad-10" x="75804.6" y="-52204.7"/><use xlink:href="#jfEEpyIpRdfLb3f5ksZ4_pad-10" x="76454.6" y="-52204.7"/><use xlink:href="#jfEEpyIpRdfLb3f5ksZ4_pad-10" x="77104.6" y="-52204.7"/><use xlink:href="#jfEEpyIpRdfLb3f5ksZ4_pad-10" x="77754.6" y="-52204.7"/><use xlink:href="#jfEEpyIpRdfLb3f5ksZ4_pad-10" x="78404.6" y="-52204.7"/><use xlink:href="#jfEEpyIpRdfLb3f5ksZ4_pad-10" x="79054.6" y="-52204.7"/><use xlink:href="#jfEEpyIpRdfLb3f5ksZ4_pad-10" x="79704.6" y="-52204.7"/><use xlink:href="#jfEEpyIpRdfLb3f5ksZ4_pad-10" x="80354.6" y="-52204.7"/><use xlink:href="#jfEEpyIpRdfLb3f5ksZ4_pad-10" x="80354.6" y="-57929.7"/><use xlink:href="#jfEEpyIpRdfLb3f5ksZ4_pad-10" x="79704.6" y="-57929.7"/><use xlink:href="#jfEEpyIpRdfLb3f5ksZ4_pad-10" x="79054.6" y="-57929.7"/><use xlink:href="#jfEEpyIpRdfLb3f5ksZ4_pad-10" x="78404.6" y="-57929.7"/><use xlink:href="#jfEEpyIpRdfLb3f5ksZ4_pad-10" x="77754.6" y="-57929.7"/><use xlink:href="#jfEEpyIpRdfLb3f5ksZ4_pad-10" x="77104.6" y="-57929.7"/><use xlink:href="#jfEEpyIpRdfLb3f5ksZ4_pad-10" x="76454.6" y="-57929.7"/><use xlink:href="#jfEEpyIpRdfLb3f5ksZ4_pad-10" x="75804.6" y="-57929.7"/><use xlink:href="#jfEEpyIpRdfLb3f5ksZ4_pad-10" x="91804.6" y="-52204.7"/><use xlink:href="#jfEEpyIpRdfLb3f5ksZ4_pad-10" x="92454.6" y="-52204.7"/><use xlink:href="#jfEEpyIpRdfLb3f5ksZ4_pad-10" x="93104.6" y="-52204.7"/><use xlink:href="#jfEEpyIpRdfLb3f5ksZ4_pad-10" x="93754.6" y="-52204.7"/><use xlink:href="#jfEEpyIpRdfLb3f5ksZ4_pad-10" x="94404.6" y="-52204.7"/><use xlink:href="#jfEEpyIpRdfLb3f5ksZ4_pad-10" x="95054.6" y="-52204.7"/><use xlink:href="#jfEEpyIpRdfLb3f5ksZ4_pad-10" x="95704.6" y="-52204.7"/><use xlink:href="#jfEEpyIpRdfLb3f5ksZ4_pad-10" x="96354.6" y="-52204.7"/><use xlink:href="#jfEEpyIpRdfLb3f5ksZ4_pad-10" x="96354.6" y="-57929.7"/><use xlink:href="#jfEEpyIpRdfLb3f5ksZ4_pad-10" x="95704.6" y="-57929.7"/><use xlink:href="#jfEEpyIpRdfLb3f5ksZ4_pad-10" x="95054.6" y="-57929.7"/><use xlink:href="#jfEEpyIpRdfLb3f5ksZ4_pad-10" x="94404.6" y="-57929.7"/><use xlink:href="#jfEEpyIpRdfLb3f5ksZ4_pad-10" x="93754.6" y="-57929.7"/><use xlink:href="#jfEEpyIpRdfLb3f5ksZ4_pad-10" x="93104.6" y="-57929.7"/><use xlink:href="#jfEEpyIpRdfLb3f5ksZ4_pad-10" x="92454.6" y="-57929.7"/><use xlink:href="#jfEEpyIpRdfLb3f5ksZ4_pad-10" x="91804.6" y="-57929.7"/></g></svg>