<svg version="1.1" xmlns="http://www.w3.org/2000/svg" xmlns:xlink="http://www.w3.org/1999/xlink" stroke-linecap="round" stroke-linejoin="round" stroke-width="0" fill-rule="evenodd" width="84.075mm" height="80.9275mm" viewBox="63325 -109702.5 84075 80927.5" id="Xpjv1HjJNiRdEF-U8W1e"><defs><g id="Xpjv1HjJNiRdEF-U8W1e_pad-10"><polygon points="256.25,-218.75 256.25,218.75 -256.25,218.75 -256.25,-218.75"/><circle cx="256.25" cy="-218.75" r="218.75"/><circle cx="256.25" cy="218.75" r="218.75"/><circle cx="-256.25" cy="218.75" r="218.75"/><circle cx="-256.25" cy="-218.75" r="218.75"/><polygon points="475,-218.75 475,218.75 37.5,218.75 37.5,-218.75"/><polygon points="256.25,0 -256.25,0 -256.25,437.5 256.25,437.5"/><polygon points="-37.5,218.75 -37.5,-218.75 -475,-218.75 -475,218.75"/><polygon points="-256.25,-437.5 256.25,-437.5 256.25,0 -256.25,0"/></g><g id="Xpjv1HjJNiRdEF-U8W1e_pad-11"><polygon points="-275,200 -275,-200 275,-200 275,200"/><circle cx="-275" cy="200" r="200"/><circle cx="-275" cy="-200" r="200"/><circle cx="275" cy="-200" r="200"/><circle cx="275" cy="200" r="200"/><polygon points="-75,200 -75,-200 -475,-200 -475,200"/><polygon points="-275,-400 275,-400 275,0 -275,0"/><polygon points="475,-200 475,200 75,200 75,-200"/><polygon points="275,0 -275,0 -275,400 275,400"/></g><rect x="-1750" y="-625" width="3500" height="1250" id="Xpjv1HjJNiRdEF-U8W1e_pad-12"/></defs><g transform="translate(0,-138477.5) scale(1,-1)" fill="currentColor" stroke="currentColor"><use xlink:href="#Xpjv1HjJNiRdEF-U8W1e_pad-10" x="74300" y="-55875"/><use xlink:href="#Xpjv1HjJNiRdEF-U8W1e_pad-10" x="74300" y="-54300"/><use xlink:href="#Xpjv1HjJNiRdEF-U8W1e_pad-11" x="117800" y="-107652.5"/><use xlink:href="#Xpjv1HjJNiRdEF-U8W1e_pad-11" x="117800" y="-109302.5"/><use xlink:href="#Xpjv1HjJNiRdEF-U8W1e_pad-11" x="107300" y="-107652.5"/><use xlink:href="#Xpjv1HjJNiRdEF-U8W1e_pad-11" x="107300" y="-109302.5"/><use xlink:href="#Xpjv1HjJNiRdEF-U8W1e_pad-11" x="78800" y="-32712.5"/><use xlink:href="#Xpjv1HjJNiRdEF-U8W1e_pad-11" x="78800" y="-34362.5"/><use xlink:href="#Xpjv1HjJNiRdEF-U8W1e_pad-11" x="93800" y="-57862.5"/><use xlink:href="#Xpjv1HjJNiRdEF-U8W1e_pad-11" x="93800" y="-59512.5"/><use xlink:href="#Xpjv1HjJNiRdEF-U8W1e_pad-10" x="99800" y="-105715"/><use xlink:href="#Xpjv1HjJNiRdEF-U8W1e_pad-10" x="99800" y="-104140"/><use xlink:href="#Xpjv1HjJNiRdEF-U8W1e_pad-11" x="98300" y="-32675"/><use xlink:href="#Xpjv1HjJNiRdEF-U8W1e_pad-11" x="98300" y="-34325"/><use xlink:href="#Xpjv1HjJNiRdEF-U8W1e_pad-10" x="80300" y="-30787.5"/><use xlink:href="#Xpjv1HjJNiRdEF-U8W1e_pad-10" x="80300" y="-29212.5"/><use xlink:href="#Xpjv1HjJNiRdEF-U8W1e_pad-12" x="145650" y="-104000"/><use xlink:href="#Xpjv1HjJNiRdEF-U8W1e_pad-12" x="145650" y="-102000"/><use xlink:href="#Xpjv1HjJNiRdEF-U8W1e_pad-12" x="145650" y="-100000"/><use xlink:href="#Xpjv1HjJNiRdEF-U8W1e_pad-12" x="145650" y="-98000"/><use xlink:href="#Xpjv1HjJNiRdEF-U8W1e_pad-12" x="145650" y="-96000"/><use xlink:href="#Xpjv1HjJNiRdEF-U8W1e_pad-12" x="145650" y="-94000"/><use xlink:href="#Xpjv1HjJNiRdEF-U8W1e_pad-11" x="113300" y="-57862.5"/><use xlink:href="#Xpjv1HjJNiRdEF-U8W1e_pad-11" x="113300" y="-59512.5"/><use xlink:href="#Xpjv1HjJNiRdEF-U8W1e_pad-10" x="92300" y="-105715"/><use xlink:href="#Xpjv1HjJNiRdEF-U8W1e_pad-10" x="92300" y="-104140"/><use xlink:href="#Xpjv1HjJNiRdEF-U8W1e_pad-11" x="71300" y="-57862.5"/><use xlink:href="#Xpjv1HjJNiRdEF-U8W1e_pad-11" x="71300" y="-59512.5"/><use xlink:href="#Xpjv1HjJNiRdEF-U8W1e_pad-11" x="107300" y="-57862.5"/><use xlink:href="#Xpjv1HjJNiRdEF-U8W1e_pad-11" x="107300" y="-59512.5"/><use xlink:href="#Xpjv1HjJNiRdEF-U8W1e_pad-10" x="108800" y="-105715"/><use xlink:href="#Xpjv1HjJNiRdEF-U8W1e_pad-10" x="108800" y="-104140"/><use xlink:href="#Xpjv1HjJNiRdEF-U8W1e_pad-11" x="80300" y="-57862.5"/><use xlink:href="#Xpjv1HjJNiRdEF-U8W1e_pad-11" x="80300" y="-59512.5"/><use xlink:href="#Xpjv1HjJNiRdEF-U8W1e_pad-11" x="105800" y="-32675"/><use xlink:href="#Xpjv1HjJNiRdEF-U8W1e_pad-11" x="105800" y="-34325"/><use xlink:href="#Xpjv1HjJNiRdEF-U8W1e_pad-10" x="80300" y="-55875"/><use xlink:href="#Xpjv1HjJNiRdEF-U8W1e_pad-10" x="80300" y="-54300"/><use xlink:href="#Xpjv1HjJNiRdEF-U8W1e_pad-11" x="105800" y="-57862.5"/><use xlink:href="#Xpjv1HjJNiRdEF-U8W1e_pad-11" x="105800" y="-59512.5"/><use xlink:href="#Xpjv1HjJNiRdEF-U8W1e_pad-11" x="78800" y="-57862.5"/><use xlink:href="#Xpjv1HjJNiRdEF-U8W1e_pad-11" x="78800" y="-59512.5"/><use xlink:href="#Xpjv1HjJNiRdEF-U8W1e_pad-11" x="86300" y="-107652.5"/><use xlink:href="#Xpjv1HjJNiRdEF-U8W1e_pad-11" x="86300" y="-109302.5"/><use xlink:href="#Xpjv1HjJNiRdEF-U8W1e_pad-10" x="89300" y="-55875"/><use xlink:href="#Xpjv1HjJNiRdEF-U8W1e_pad-10" x="89300" y="-54300"/><use xlink:href="#Xpjv1HjJNiRdEF-U8W1e_pad-10" x="77300" y="-30787.5"/><use xlink:href="#Xpjv1HjJNiRdEF-U8W1e_pad-10" x="77300" y="-29212.5"/><use xlink:href="#Xpjv1HjJNiRdEF-U8W1e_pad-10" x="71300" y="-105715"/><use xlink:href="#Xpjv1HjJNiRdEF-U8W1e_pad-10" x="71300" y="-104140"/><use xlink:href="#Xpjv1HjJNiRdEF-U8W1e_pad-11" x="90800" y="-32712.5"/><use xlink:href="#Xpjv1HjJNiRdEF-U8W1e_pad-11" x="90800" y="-34362.5"/><use xlink:href="#Xpjv1HjJNiRdEF-U8W1e_pad-11" x="71300" y="-32712.5"/><use xlink:href="#Xpjv1HjJNiRdEF-U8W1e_pad-11" x="71300" y="-34362.5"/><use xlink:href="#Xpjv1HjJNiRdEF-U8W1e_pad-10" x="78800" y="-30787.5"/><use xlink:href="#Xpjv1HjJNiRdEF-U8W1e_pad-10" x="78800" y="-29212.5"/><use xlink:href="#Xpjv1HjJNiRdEF-U8W1e_pad-10" x="107300" y="-105715"/><use xlink:href="#Xpjv1HjJNiRdEF-U8W1e_pad-10" x="107300" y="-104140"/><use xlink:href="#Xpjv1HjJNiRdEF-U8W1e_pad-11" x="122300" y="-82633.5"/><use xlink:href="#Xpjv1HjJNiRdEF-U8W1e_pad-11" x="122300" y="-84283.5"/><use xlink:href="#Xpjv1HjJNiRdEF-U8W1e_pad-11" x="83300" y="-82633.5"/><use xlink:href="#Xpjv1HjJNiRdEF-U8W1e_pad-11" x="83300" y="-84283.5"/><use xlink:href="#Xpjv1HjJNiRdEF-U8W1e_pad-11" x="89281" y="-82633.5"/><use xlink:href="#Xpjv1HjJNiRdEF-U8W1e_pad-11" x="89281" y="-84283.5"/><use xlink:href="#Xpjv1HjJNiRdEF-U8W1e_pad-11" x="92300" y="-107652.5"/><use xlink:href="#Xpjv1HjJNiRdEF-U8W1e_pad-11" x="92300" y="-109302.5"/><use xlink:href="#Xpjv1HjJNiRdEF-U8W1e_pad-10" x="87800" y="-80696"/><use xlink:href="#Xpjv1HjJNiRdEF-U8W1e_pad-10" x="87800" y="-79121"/><use xlink:href="#Xpjv1HjJNiRdEF-U8W1e_pad-10" x="89300" y="-105715"/><use xlink:href="#Xpjv1HjJNiRdEF-U8W1e_pad-10" x="89300" y="-104140"/><use xlink:href="#Xpjv1HjJNiRdEF-U8W1e_pad-11" x="68300" y="-57862.5"/><use xlink:href="#Xpjv1HjJNiRdEF-U8W1e_pad-11" x="68300" y="-59512.5"/><use xlink:href="#Xpjv1HjJNiRdEF-U8W1e_pad-11" x="120800" y="-107652.5"/><use xlink:href="#Xpjv1HjJNiRdEF-U8W1e_pad-11" x="120800" y="-109302.5"/><use xlink:href="#Xpjv1HjJNiRdEF-U8W1e_pad-10" x="114800" y="-55875"/><use xlink:href="#Xpjv1HjJNiRdEF-U8W1e_pad-10" x="114800" y="-54300"/><use xlink:href="#Xpjv1HjJNiRdEF-U8W1e_pad-11" x="66800" y="-57862.5"/><use xlink:href="#Xpjv1HjJNiRdEF-U8W1e_pad-11" x="66800" y="-59512.5"/><use xlink:href="#Xpjv1HjJNiRdEF-U8W1e_pad-10" x="102800" y="-55875"/><use xlink:href="#Xpjv1HjJNiRdEF-U8W1e_pad-10" x="102800" y="-54300"/><use xlink:href="#Xpjv1HjJNiRdEF-U8W1e_pad-10" x="110300" y="-30787.5"/><use xlink:href="#Xpjv1HjJNiRdEF-U8W1e_pad-10" x="110300" y="-29212.5"/><use xlink:href="#Xpjv1HjJNiRdEF-U8W1e_pad-10" x="69800" y="-30787.5"/><use xlink:href="#Xpjv1HjJNiRdEF-U8W1e_pad-10" x="69800" y="-29212.5"/><use xlink:href="#Xpjv1HjJNiRdEF-U8W1e_pad-10" x="120800" y="-105715"/><use xlink:href="#Xpjv1HjJNiRdEF-U8W1e_pad-10" x="120800" y="-104140"/><use xlink:href="#Xpjv1HjJNiRdEF-U8W1e_pad-11" x="87800" y="-107652.5"/><use xlink:href="#Xpjv1HjJNiRdEF-U8W1e_pad-11" x="87800" y="-109302.5"/><use xlink:href="#Xpjv1HjJNiRdEF-U8W1e_pad-10" x="119300" y="-105715"/><use xlink:href="#Xpjv1HjJNiRdEF-U8W1e_pad-10" x="119300" y="-104140"/><use xlink:href="#Xpjv1HjJNiRdEF-U8W1e_pad-10" x="90800" y="-80696"/><use xlink:href="#Xpjv1HjJNiRdEF-U8W1e_pad-10" x="90800" y="-79121"/><use xlink:href="#Xpjv1HjJNiRdEF-U8W1e_pad-10" x="114800" y="-105715"/><use xlink:href="#Xpjv1HjJNiRdEF-U8W1e_pad-10" x="114800" y="-104140"/><use xlink:href="#Xpjv1HjJNiRdEF-U8W1e_pad-11" x="113300" y="-82633.5"/><use xlink:href="#Xpjv1HjJNiRdEF-U8W1e_pad-11" x="113300" y="-84283.5"/><use xlink:href="#Xpjv1HjJNiRdEF-U8W1e_pad-10" x="102800" y="-30787.5"/><use xlink:href="#Xpjv1HjJNiRdEF-U8W1e_pad-10" x="102800" y="-29212.5"/><use xlink:href="#Xpjv1HjJNiRdEF-U8W1e_pad-10" x="96800" y="-80696"/><use xlink:href="#Xpjv1HjJNiRdEF-U8W1e_pad-10" x="96800" y="-79121"/><use xlink:href="#Xpjv1HjJNiRdEF-U8W1e_pad-10" x="83300" y="-30787.5"/><use xlink:href="#Xpjv1HjJNiRdEF-U8W1e_pad-10" x="83300" y="-29212.5"/><use xlink:href="#Xpjv1HjJNiRdEF-U8W1e_pad-11" x="101300" y="-32675"/><use xlink:href="#Xpjv1HjJNiRdEF-U8W1e_pad-11" x="101300" y="-34325"/><use xlink:href="#Xpjv1HjJNiRdEF-U8W1e_pad-11" x="80300" y="-32712.5"/><use xlink:href="#Xpjv1HjJNiRdEF-U8W1e_pad-11" x="80300" y="-34362.5"/><use xlink:href="#Xpjv1HjJNiRdEF-U8W1e_pad-11" x="84800" y="-57862.5"/><use xlink:href="#Xpjv1HjJNiRdEF-U8W1e_pad-11" x="84800" y="-59512.5"/><use xlink:href="#Xpjv1HjJNiRdEF-U8W1e_pad-10" x="86300" y="-30787.5"/><use xlink:href="#Xpjv1HjJNiRdEF-U8W1e_pad-10" x="86300" y="-29212.5"/><use xlink:href="#Xpjv1HjJNiRdEF-U8W1e_pad-11" x="72800" y="-82633.5"/><use xlink:href="#Xpjv1HjJNiRdEF-U8W1e_pad-11" x="72800" y="-84283.5"/><use xlink:href="#Xpjv1HjJNiRdEF-U8W1e_pad-10" x="99800" y="-80696"/><use xlink:href="#Xpjv1HjJNiRdEF-U8W1e_pad-10" x="99800" y="-79121"/><use xlink:href="#Xpjv1HjJNiRdEF-U8W1e_pad-11" x="119300" y="-82633.5"/><use xlink:href="#Xpjv1HjJNiRdEF-U8W1e_pad-11" x="119300" y="-84283.5"/><use xlink:href="#Xpjv1HjJNiRdEF-U8W1e_pad-11" x="71300" y="-82633.5"/><use xlink:href="#Xpjv1HjJNiRdEF-U8W1e_pad-11" x="71300" y="-84283.5"/><use xlink:href="#Xpjv1HjJNiRdEF-U8W1e_pad-11" x="99800" y="-57862.5"/><use xlink:href="#Xpjv1HjJNiRdEF-U8W1e_pad-11" x="99800" y="-59512.5"/><use xlink:href="#Xpjv1HjJNiRdEF-U8W1e_pad-10" x="117800" y="-105715"/><use xlink:href="#Xpjv1HjJNiRdEF-U8W1e_pad-10" x="117800" y="-104140"/><use xlink:href="#Xpjv1HjJNiRdEF-U8W1e_pad-10" x="65300" y="-30787.5"/><use xlink:href="#Xpjv1HjJNiRdEF-U8W1e_pad-10" x="65300" y="-29212.5"/><use xlink:href="#Xpjv1HjJNiRdEF-U8W1e_pad-10" x="65300" y="-105715"/><use xlink:href="#Xpjv1HjJNiRdEF-U8W1e_pad-10" x="65300" y="-104140"/><use xlink:href="#Xpjv1HjJNiRdEF-U8W1e_pad-10" x="96800" y="-55875"/><use xlink:href="#Xpjv1HjJNiRdEF-U8W1e_pad-10" x="96800" y="-54300"/><use xlink:href="#Xpjv1HjJNiRdEF-U8W1e_pad-11" x="107300" y="-82633.5"/><use xlink:href="#Xpjv1HjJNiRdEF-U8W1e_pad-11" x="107300" y="-84283.5"/><use xlink:href="#Xpjv1HjJNiRdEF-U8W1e_pad-11" x="119300" y="-32675"/><use xlink:href="#Xpjv1HjJNiRdEF-U8W1e_pad-11" x="119300" y="-34325"/><use xlink:href="#Xpjv1HjJNiRdEF-U8W1e_pad-11" x="68300" y="-107652.5"/><use xlink:href="#Xpjv1HjJNiRdEF-U8W1e_pad-11" x="68300" y="-109302.5"/><use xlink:href="#Xpjv1HjJNiRdEF-U8W1e_pad-11" x="117800" y="-32675"/><use xlink:href="#Xpjv1HjJNiRdEF-U8W1e_pad-11" x="117800" y="-34325"/><use xlink:href="#Xpjv1HjJNiRdEF-U8W1e_pad-10" x="69800" y="-80696"/><use xlink:href="#Xpjv1HjJNiRdEF-U8W1e_pad-10" x="69800" y="-79121"/><use xlink:href="#Xpjv1HjJNiRdEF-U8W1e_pad-10" x="110300" y="-80696"/><use xlink:href="#Xpjv1HjJNiRdEF-U8W1e_pad-10" x="110300" y="-79121"/><use xlink:href="#Xpjv1HjJNiRdEF-U8W1e_pad-11" x="96774" y="-107652.5"/><use xlink:href="#Xpjv1HjJNiRdEF-U8W1e_pad-11" x="96774" y="-109302.5"/><use xlink:href="#Xpjv1HjJNiRdEF-U8W1e_pad-11" x="92300" y="-32712.5"/><use xlink:href="#Xpjv1HjJNiRdEF-U8W1e_pad-11" x="92300" y="-34362.5"/><use xlink:href="#Xpjv1HjJNiRdEF-U8W1e_pad-10" x="117800" y="-30787.5"/><use xlink:href="#Xpjv1HjJNiRdEF-U8W1e_pad-10" x="117800" y="-29212.5"/><use xlink:href="#Xpjv1HjJNiRdEF-U8W1e_pad-11" x="99800" y="-32675"/><use xlink:href="#Xpjv1HjJNiRdEF-U8W1e_pad-11" x="99800" y="-34325"/><use xlink:href="#Xpjv1HjJNiRdEF-U8W1e_pad-10" x="89300" y="-80696"/><use xlink:href="#Xpjv1HjJNiRdEF-U8W1e_pad-10" x="89300" y="-79121"/><use xlink:href="#Xpjv1HjJNiRdEF-U8W1e_pad-11" x="92300" y="-82633.5"/><use xlink:href="#Xpjv1HjJNiRdEF-U8W1e_pad-11" x="92300" y="-84283.5"/><use xlink:href="#Xpjv1HjJNiRdEF-U8W1e_pad-10" x="84800" y="-30787.5"/><use xlink:href="#Xpjv1HjJNiRdEF-U8W1e_pad-10" x="84800" y="-29212.5"/><use xlink:href="#Xpjv1HjJNiRdEF-U8W1e_pad-10" x="71300" y="-30787.5"/><use xlink:href="#Xpjv1HjJNiRdEF-U8W1e_pad-10" x="71300" y="-29212.5"/><use xlink:href="#Xpjv1HjJNiRdEF-U8W1e_pad-10" x="83300" y="-55875"/><use xlink:href="#Xpjv1HjJNiRdEF-U8W1e_pad-10" x="83300" y="-54300"/><use xlink:href="#Xpjv1HjJNiRdEF-U8W1e_pad-10" x="87800" y="-30787.5"/><use xlink:href="#Xpjv1HjJNiRdEF-U8W1e_pad-10" x="87800" y="-29212.5"/><use xlink:href="#Xpjv1HjJNiRdEF-U8W1e_pad-11" x="117800" y="-57862.5"/><use xlink:href="#Xpjv1HjJNiRdEF-U8W1e_pad-11" x="117800" y="-59512.5"/><use xlink:href="#Xpjv1HjJNiRdEF-U8W1e_pad-11" x="111800" y="-32675"/><use xlink:href="#Xpjv1HjJNiRdEF-U8W1e_pad-11" x="111800" y="-34325"/><use xlink:href="#Xpjv1HjJNiRdEF-U8W1e_pad-10" x="99800" y="-55875"/><use xlink:href="#Xpjv1HjJNiRdEF-U8W1e_pad-10" x="99800" y="-54300"/><use xlink:href="#Xpjv1HjJNiRdEF-U8W1e_pad-11" x="89300" y="-57862.5"/><use xlink:href="#Xpjv1HjJNiRdEF-U8W1e_pad-11" x="89300" y="-59512.5"/><use xlink:href="#Xpjv1HjJNiRdEF-U8W1e_pad-11" x="98300" y="-82633.5"/><use xlink:href="#Xpjv1HjJNiRdEF-U8W1e_pad-11" x="98300" y="-84283.5"/><use xlink:href="#Xpjv1HjJNiRdEF-U8W1e_pad-10" x="90800" y="-105715"/><use xlink:href="#Xpjv1HjJNiRdEF-U8W1e_pad-10" x="90800" y="-104140"/><use xlink:href="#Xpjv1HjJNiRdEF-U8W1e_pad-11" x="90800" y="-82633.5"/><use xlink:href="#Xpjv1HjJNiRdEF-U8W1e_pad-11" x="90800" y="-84283.5"/><use xlink:href="#Xpjv1HjJNiRdEF-U8W1e_pad-11" x="84800" y="-82633.5"/><use xlink:href="#Xpjv1HjJNiRdEF-U8W1e_pad-11" x="84800" y="-84283.5"/><use xlink:href="#Xpjv1HjJNiRdEF-U8W1e_pad-11" x="113300" y="-32675"/><use xlink:href="#Xpjv1HjJNiRdEF-U8W1e_pad-11" x="113300" y="-34325"/><use xlink:href="#Xpjv1HjJNiRdEF-U8W1e_pad-11" x="116300" y="-82633.5"/><use xlink:href="#Xpjv1HjJNiRdEF-U8W1e_pad-11" x="116300" y="-84283.5"/><use xlink:href="#Xpjv1HjJNiRdEF-U8W1e_pad-10" x="114800" y="-30787.5"/><use xlink:href="#Xpjv1HjJNiRdEF-U8W1e_pad-10" x="114800" y="-29212.5"/><use xlink:href="#Xpjv1HjJNiRdEF-U8W1e_pad-10" x="122300" y="-55875"/><use xlink:href="#Xpjv1HjJNiRdEF-U8W1e_pad-10" x="122300" y="-54300"/><use xlink:href="#Xpjv1HjJNiRdEF-U8W1e_pad-11" x="86300" y="-32712.5"/><use xlink:href="#Xpjv1HjJNiRdEF-U8W1e_pad-11" x="86300" y="-34362.5"/><use xlink:href="#Xpjv1HjJNiRdEF-U8W1e_pad-10" x="101300" y="-55875"/><use xlink:href="#Xpjv1HjJNiRdEF-U8W1e_pad-10" x="101300" y="-54300"/><use xlink:href="#Xpjv1HjJNiRdEF-U8W1e_pad-11" x="119300" y="-107652.5"/><use xlink:href="#Xpjv1HjJNiRdEF-U8W1e_pad-11" x="119300" y="-109302.5"/><use xlink:href="#Xpjv1HjJNiRdEF-U8W1e_pad-11" x="90800" y="-107652.5"/><use xlink:href="#Xpjv1HjJNiRdEF-U8W1e_pad-11" x="90800" y="-109302.5"/><use xlink:href="#Xpjv1HjJNiRdEF-U8W1e_pad-10" x="75800" y="-30787.5"/><use xlink:href="#Xpjv1HjJNiRdEF-U8W1e_pad-10" x="75800" y="-29212.5"/><use xlink:href="#Xpjv1HjJNiRdEF-U8W1e_pad-11" x="63800" y="-32712.5"/><use xlink:href="#Xpjv1HjJNiRdEF-U8W1e_pad-11" x="63800" y="-34362.5"/><use xlink:href="#Xpjv1HjJNiRdEF-U8W1e_pad-10" x="87800" y="-105715"/><use xlink:href="#Xpjv1HjJNiRdEF-U8W1e_pad-10" x="87800" y="-104140"/><use xlink:href="#Xpjv1HjJNiRdEF-U8W1e_pad-11" x="69800" y="-32712.5"/><use xlink:href="#Xpjv1HjJNiRdEF-U8W1e_pad-11" x="69800" y="-34362.5"/><use xlink:href="#Xpjv1HjJNiRdEF-U8W1e_pad-11" x="120800" y="-57862.5"/><use xlink:href="#Xpjv1HjJNiRdEF-U8W1e_pad-11" x="120800" y="-59512.5"/><use xlink:href="#Xpjv1HjJNiRdEF-U8W1e_pad-11" x="116300" y="-32675"/><use xlink:href="#Xpjv1HjJNiRdEF-U8W1e_pad-11" x="116300" y="-34325"/><use xlink:href="#Xpjv1HjJNiRdEF-U8W1e_pad-11" x="86300" y="-57862.5"/><use xlink:href="#Xpjv1HjJNiRdEF-U8W1e_pad-11" x="86300" y="-59512.5"/><use xlink:href="#Xpjv1HjJNiRdEF-U8W1e_pad-11" x="110300" y="-57862.5"/><use xlink:href="#Xpjv1HjJNiRdEF-U8W1e_pad-11" x="110300" y="-59512.5"/><use xlink:href="#Xpjv1HjJNiRdEF-U8W1e_pad-10" x="93800" y="-105715"/><use xlink:href="#Xpjv1HjJNiRdEF-U8W1e_pad-10" x="93800" y="-104140"/><use xlink:href="#Xpjv1HjJNiRdEF-U8W1e_pad-10" x="84800" y="-80696"/><use xlink:href="#Xpjv1HjJNiRdEF-U8W1e_pad-10" x="84800" y="-79121"/><use xlink:href="#Xpjv1HjJNiRdEF-U8W1e_pad-10" x="119300" y="-80746"/><use xlink:href="#Xpjv1HjJNiRdEF-U8W1e_pad-10" x="119300" y="-79171"/><use xlink:href="#Xpjv1HjJNiRdEF-U8W1e_pad-10" x="122300" y="-105715"/><use xlink:href="#Xpjv1HjJNiRdEF-U8W1e_pad-10" x="122300" y="-104140"/><use xlink:href="#Xpjv1HjJNiRdEF-U8W1e_pad-10" x="84800" y="-105715"/><use xlink:href="#Xpjv1HjJNiRdEF-U8W1e_pad-10" x="84800" y="-104140"/><use xlink:href="#Xpjv1HjJNiRdEF-U8W1e_pad-10" x="98300" y="-30787.5"/><use xlink:href="#Xpjv1HjJNiRdEF-U8W1e_pad-10" x="98300" y="-29212.5"/><use xlink:href="#Xpjv1HjJNiRdEF-U8W1e_pad-10" x="86300" y="-105715"/><use xlink:href="#Xpjv1HjJNiRdEF-U8W1e_pad-10" x="86300" y="-104140"/><use xlink:href="#Xpjv1HjJNiRdEF-U8W1e_pad-10" x="113300" y="-80746"/><use xlink:href="#Xpjv1HjJNiRdEF-U8W1e_pad-10" x="113300" y="-79171"/><use xlink:href="#Xpjv1HjJNiRdEF-U8W1e_pad-10" x="75800" y="-55875"/><use xlink:href="#Xpjv1HjJNiRdEF-U8W1e_pad-10" x="75800" y="-54300"/><use xlink:href="#Xpjv1HjJNiRdEF-U8W1e_pad-10" x="66800" y="-105715"/><use xlink:href="#Xpjv1HjJNiRdEF-U8W1e_pad-10" x="66800" y="-104140"/><use xlink:href="#Xpjv1HjJNiRdEF-U8W1e_pad-11" x="66800" y="-32712.5"/><use xlink:href="#Xpjv1HjJNiRdEF-U8W1e_pad-11" x="66800" y="-34362.5"/><use xlink:href="#Xpjv1HjJNiRdEF-U8W1e_pad-10" x="72800" y="-105715"/><use xlink:href="#Xpjv1HjJNiRdEF-U8W1e_pad-10" x="72800" y="-104140"/><use xlink:href="#Xpjv1HjJNiRdEF-U8W1e_pad-10" x="80300" y="-105715"/><use xlink:href="#Xpjv1HjJNiRdEF-U8W1e_pad-10" x="80300" y="-104140"/><use xlink:href="#Xpjv1HjJNiRdEF-U8W1e_pad-10" x="89300" y="-30787.5"/><use xlink:href="#Xpjv1HjJNiRdEF-U8W1e_pad-10" x="89300" y="-29212.5"/><use xlink:href="#Xpjv1HjJNiRdEF-U8W1e_pad-10" x="93800" y="-55875"/><use xlink:href="#Xpjv1HjJNiRdEF-U8W1e_pad-10" x="93800" y="-54300"/><use xlink:href="#Xpjv1HjJNiRdEF-U8W1e_pad-11" x="110300" y="-107652.5"/><use xlink:href="#Xpjv1HjJNiRdEF-U8W1e_pad-11" x="110300" y="-109302.5"/><use xlink:href="#Xpjv1HjJNiRdEF-U8W1e_pad-10" x="92300" y="-55875"/><use xlink:href="#Xpjv1HjJNiRdEF-U8W1e_pad-10" x="92300" y="-54300"/><use xlink:href="#Xpjv1HjJNiRdEF-U8W1e_pad-11" x="63800" y="-82633.5"/><use xlink:href="#Xpjv1HjJNiRdEF-U8W1e_pad-11" x="63800" y="-84283.5"/><use xlink:href="#Xpjv1HjJNiRdEF-U8W1e_pad-11" x="114800" y="-32675"/><use xlink:href="#Xpjv1HjJNiRdEF-U8W1e_pad-11" x="114800" y="-34325"/><use xlink:href="#Xpjv1HjJNiRdEF-U8W1e_pad-10" x="95300" y="-55875"/><use xlink:href="#Xpjv1HjJNiRdEF-U8W1e_pad-10" x="95300" y="-54300"/><use xlink:href="#Xpjv1HjJNiRdEF-U8W1e_pad-10" x="90800" y="-55875"/><use xlink:href="#Xpjv1HjJNiRdEF-U8W1e_pad-10" x="90800" y="-54300"/><use xlink:href="#Xpjv1HjJNiRdEF-U8W1e_pad-11" x="93800" y="-107652.5"/><use xlink:href="#Xpjv1HjJNiRdEF-U8W1e_pad-11" x="93800" y="-109302.5"/><use xlink:href="#Xpjv1HjJNiRdEF-U8W1e_pad-10" x="113300" y="-105715"/><use xlink:href="#Xpjv1HjJNiRdEF-U8W1e_pad-10" x="113300" y="-104140"/><use xlink:href="#Xpjv1HjJNiRdEF-U8W1e_pad-10" x="119300" y="-30787.5"/><use xlink:href="#Xpjv1HjJNiRdEF-U8W1e_pad-10" x="119300" y="-29212.5"/><use xlink:href="#Xpjv1HjJNiRdEF-U8W1e_pad-10" x="66800" y="-80696"/><use xlink:href="#Xpjv1HjJNiRdEF-U8W1e_pad-10" x="66800" y="-79121"/><use xlink:href="#Xpjv1HjJNiRdEF-U8W1e_pad-10" x="86300" y="-55875"/><use xlink:href="#Xpjv1HjJNiRdEF-U8W1e_pad-10" x="86300" y="-54300"/><use xlink:href="#Xpjv1HjJNiRdEF-U8W1e_pad-11" x="68300" y="-32712.5"/><use xlink:href="#Xpjv1HjJNiRdEF-U8W1e_pad-11" x="68300" y="-34362.5"/><use xlink:href="#Xpjv1HjJNiRdEF-U8W1e_pad-11" x="72800" y="-107652.5"/><use xlink:href="#Xpjv1HjJNiRdEF-U8W1e_pad-11" x="72800" y="-109302.5"/><use xlink:href="#Xpjv1HjJNiRdEF-U8W1e_pad-10" x="68300" y="-80696"/><use xlink:href="#Xpjv1HjJNiRdEF-U8W1e_pad-10" x="68300" y="-79121"/><use xlink:href="#Xpjv1HjJNiRdEF-U8W1e_pad-11" x="110300" y="-82633.5"/><use xlink:href="#Xpjv1HjJNiRdEF-U8W1e_pad-11" x="110300" y="-84283.5"/><use xlink:href="#Xpjv1HjJNiRdEF-U8W1e_pad-11" x="96800" y="-57862.5"/><use xlink:href="#Xpjv1HjJNiRdEF-U8W1e_pad-11" x="96800" y="-59512.5"/><use xlink:href="#Xpjv1HjJNiRdEF-U8W1e_pad-11" x="96800" y="-82633.5"/><use xlink:href="#Xpjv1HjJNiRdEF-U8W1e_pad-11" x="96800" y="-84283.5"/><use xlink:href="#Xpjv1HjJNiRdEF-U8W1e_pad-11" x="65300" y="-82633.5"/><use xlink:href="#Xpjv1HjJNiRdEF-U8W1e_pad-11" x="65300" y="-84283.5"/><use xlink:href="#Xpjv1HjJNiRdEF-U8W1e_pad-11" x="108800" y="-57862.5"/><use xlink:href="#Xpjv1HjJNiRdEF-U8W1e_pad-11" x="108800" y="-59512.5"/><use xlink:href="#Xpjv1HjJNiRdEF-U8W1e_pad-11" x="72800" y="-32712.5"/><use xlink:href="#Xpjv1HjJNiRdEF-U8W1e_pad-11" x="72800" y="-34362.5"/><use xlink:href="#Xpjv1HjJNiRdEF-U8W1e_pad-11" x="66800" y="-107652.5"/><use xlink:href="#Xpjv1HjJNiRdEF-U8W1e_pad-11" x="66800" y="-109302.5"/><use xlink:href="#Xpjv1HjJNiRdEF-U8W1e_pad-11" x="93800" y="-82633.5"/><use xlink:href="#Xpjv1HjJNiRdEF-U8W1e_pad-11" x="93800" y="-84283.5"/><use xlink:href="#Xpjv1HjJNiRdEF-U8W1e_pad-10" x="108800" y="-55875"/><use xlink:href="#Xpjv1HjJNiRdEF-U8W1e_pad-10" x="108800" y="-54300"/><use xlink:href="#Xpjv1HjJNiRdEF-U8W1e_pad-11" x="81800" y="-57862.5"/><use xlink:href="#Xpjv1HjJNiRdEF-U8W1e_pad-11" x="81800" y="-59512.5"/><use xlink:href="#Xpjv1HjJNiRdEF-U8W1e_pad-11" x="74300" y="-32712.5"/><use xlink:href="#Xpjv1HjJNiRdEF-U8W1e_pad-11" x="74300" y="-34362.5"/><use xlink:href="#Xpjv1HjJNiRdEF-U8W1e_pad-10" x="116300" y="-30787.5"/><use xlink:href="#Xpjv1HjJNiRdEF-U8W1e_pad-10" x="116300" y="-29212.5"/><use xlink:href="#Xpjv1HjJNiRdEF-U8W1e_pad-11" x="95300" y="-32675"/><use xlink:href="#Xpjv1HjJNiRdEF-U8W1e_pad-11" x="95300" y="-34325"/><use xlink:href="#Xpjv1HjJNiRdEF-U8W1e_pad-10" x="75800" y="-80696"/><use xlink:href="#Xpjv1HjJNiRdEF-U8W1e_pad-10" x="75800" y="-79121"/><use xlink:href="#Xpjv1HjJNiRdEF-U8W1e_pad-11" x="69800" y="-57862.5"/><use xlink:href="#Xpjv1HjJNiRdEF-U8W1e_pad-11" x="69800" y="-59512.5"/><use xlink:href="#Xpjv1HjJNiRdEF-U8W1e_pad-11" x="84800" y="-32712.5"/><use xlink:href="#Xpjv1HjJNiRdEF-U8W1e_pad-11" x="84800" y="-34362.5"/><use xlink:href="#Xpjv1HjJNiRdEF-U8W1e_pad-10" x="101300" y="-80696"/><use xlink:href="#Xpjv1HjJNiRdEF-U8W1e_pad-10" x="101300" y="-79121"/><use xlink:href="#Xpjv1HjJNiRdEF-U8W1e_pad-10" x="71300" y="-80696"/><use xlink:href="#Xpjv1HjJNiRdEF-U8W1e_pad-10" x="71300" y="-79121"/><use xlink:href="#Xpjv1HjJNiRdEF-U8W1e_pad-10" x="96800" y="-30787.5"/><use xlink:href="#Xpjv1HjJNiRdEF-U8W1e_pad-10" x="96800" y="-29212.5"/><use xlink:href="#Xpjv1HjJNiRdEF-U8W1e_pad-10" x="120800" y="-30787.5"/><use xlink:href="#Xpjv1HjJNiRdEF-U8W1e_pad-10" x="120800" y="-29212.5"/><use xlink:href="#Xpjv1HjJNiRdEF-U8W1e_pad-10" x="99800" y="-30787.5"/><use xlink:href="#Xpjv1HjJNiRdEF-U8W1e_pad-10" x="99800" y="-29212.5"/><use xlink:href="#Xpjv1HjJNiRdEF-U8W1e_pad-11" x="77300" y="-32712.5"/><use xlink:href="#Xpjv1HjJNiRdEF-U8W1e_pad-11" x="77300" y="-34362.5"/><use xlink:href="#Xpjv1HjJNiRdEF-U8W1e_pad-10" x="78800" y="-105715"/><use xlink:href="#Xpjv1HjJNiRdEF-U8W1e_pad-10" x="78800" y="-104140"/><use xlink:href="#Xpjv1HjJNiRdEF-U8W1e_pad-10" x="116300" y="-80746"/><use xlink:href="#Xpjv1HjJNiRdEF-U8W1e_pad-10" x="116300" y="-79171"/><use xlink:href="#Xpjv1HjJNiRdEF-U8W1e_pad-10" x="107300" y="-80696"/><use xlink:href="#Xpjv1HjJNiRdEF-U8W1e_pad-10" x="107300" y="-79121"/><use xlink:href="#Xpjv1HjJNiRdEF-U8W1e_pad-10" x="104300" y="-55875"/><use xlink:href="#Xpjv1HjJNiRdEF-U8W1e_pad-10" x="104300" y="-54300"/><use xlink:href="#Xpjv1HjJNiRdEF-U8W1e_pad-10" x="74300" y="-80696"/><use xlink:href="#Xpjv1HjJNiRdEF-U8W1e_pad-10" x="74300" y="-79121"/><use xlink:href="#Xpjv1HjJNiRdEF-U8W1e_pad-10" x="111800" y="-55875"/><use xlink:href="#Xpjv1HjJNiRdEF-U8W1e_pad-10" x="111800" y="-54300"/><use xlink:href="#Xpjv1HjJNiRdEF-U8W1e_pad-11" x="116300" y="-57862.5"/><use xlink:href="#Xpjv1HjJNiRdEF-U8W1e_pad-11" x="116300" y="-59512.5"/><use xlink:href="#Xpjv1HjJNiRdEF-U8W1e_pad-10" x="81800" y="-55875"/><use xlink:href="#Xpjv1HjJNiRdEF-U8W1e_pad-10" x="81800" y="-54300"/><use xlink:href="#Xpjv1HjJNiRdEF-U8W1e_pad-10" x="104300" y="-30787.5"/><use xlink:href="#Xpjv1HjJNiRdEF-U8W1e_pad-10" x="104300" y="-29212.5"/><use xlink:href="#Xpjv1HjJNiRdEF-U8W1e_pad-11" x="81800" y="-82633.5"/><use xlink:href="#Xpjv1HjJNiRdEF-U8W1e_pad-11" x="81800" y="-84283.5"/><use xlink:href="#Xpjv1HjJNiRdEF-U8W1e_pad-11" x="108800" y="-32675"/><use xlink:href="#Xpjv1HjJNiRdEF-U8W1e_pad-11" x="108800" y="-34325"/><use xlink:href="#Xpjv1HjJNiRdEF-U8W1e_pad-11" x="120800" y="-82633.5"/><use xlink:href="#Xpjv1HjJNiRdEF-U8W1e_pad-11" x="120800" y="-84283.5"/><use xlink:href="#Xpjv1HjJNiRdEF-U8W1e_pad-11" x="114800" y="-57862.5"/><use xlink:href="#Xpjv1HjJNiRdEF-U8W1e_pad-11" x="114800" y="-59512.5"/><use xlink:href="#Xpjv1HjJNiRdEF-U8W1e_pad-10" x="122300" y="-80746"/><use xlink:href="#Xpjv1HjJNiRdEF-U8W1e_pad-10" x="122300" y="-79171"/><use xlink:href="#Xpjv1HjJNiRdEF-U8W1e_pad-11" x="95300" y="-82633.5"/><use xlink:href="#Xpjv1HjJNiRdEF-U8W1e_pad-11" x="95300" y="-84283.5"/><use xlink:href="#Xpjv1HjJNiRdEF-U8W1e_pad-11" x="98298" y="-107652.5"/><use xlink:href="#Xpjv1HjJNiRdEF-U8W1e_pad-11" x="98298" y="-109302.5"/><use xlink:href="#Xpjv1HjJNiRdEF-U8W1e_pad-11" x="122300" y="-107652.5"/><use xlink:href="#Xpjv1HjJNiRdEF-U8W1e_pad-11" x="122300" y="-109302.5"/><use xlink:href="#Xpjv1HjJNiRdEF-U8W1e_pad-10" x="105800" y="-105715"/><use xlink:href="#Xpjv1HjJNiRdEF-U8W1e_pad-10" x="105800" y="-104140"/><use xlink:href="#Xpjv1HjJNiRdEF-U8W1e_pad-11" x="104300" y="-82633.5"/><use xlink:href="#Xpjv1HjJNiRdEF-U8W1e_pad-11" x="104300" y="-84283.5"/><use xlink:href="#Xpjv1HjJNiRdEF-U8W1e_pad-10" x="78800" y="-55875"/><use xlink:href="#Xpjv1HjJNiRdEF-U8W1e_pad-10" x="78800" y="-54300"/><use xlink:href="#Xpjv1HjJNiRdEF-U8W1e_pad-11" x="87800" y="-32712.5"/><use xlink:href="#Xpjv1HjJNiRdEF-U8W1e_pad-11" x="87800" y="-34362.5"/><use xlink:href="#Xpjv1HjJNiRdEF-U8W1e_pad-11" x="69800" y="-82633.5"/><use xlink:href="#Xpjv1HjJNiRdEF-U8W1e_pad-11" x="69800" y="-84283.5"/><use xlink:href="#Xpjv1HjJNiRdEF-U8W1e_pad-11" x="122300" y="-57862.5"/><use xlink:href="#Xpjv1HjJNiRdEF-U8W1e_pad-11" x="122300" y="-59512.5"/><use xlink:href="#Xpjv1HjJNiRdEF-U8W1e_pad-10" x="92300" y="-80696"/><use xlink:href="#Xpjv1HjJNiRdEF-U8W1e_pad-10" x="92300" y="-79121"/><use xlink:href="#Xpjv1HjJNiRdEF-U8W1e_pad-11" x="65300" y="-57862.5"/><use xlink:href="#Xpjv1HjJNiRdEF-U8W1e_pad-11" x="65300" y="-59512.5"/><use xlink:href="#Xpjv1HjJNiRdEF-U8W1e_pad-10" x="74300" y="-30787.5"/><use xlink:href="#Xpjv1HjJNiRdEF-U8W1e_pad-10" x="74300" y="-29212.5"/><use xlink:href="#Xpjv1HjJNiRdEF-U8W1e_pad-11" x="96800" y="-32675"/><use xlink:href="#Xpjv1HjJNiRdEF-U8W1e_pad-11" x="96800" y="-34325"/><use xlink:href="#Xpjv1HjJNiRdEF-U8W1e_pad-11" x="89300" y="-32712.5"/><use xlink:href="#Xpjv1HjJNiRdEF-U8W1e_pad-11" x="89300" y="-34362.5"/><use xlink:href="#Xpjv1HjJNiRdEF-U8W1e_pad-10" x="77300" y="-105715"/><use xlink:href="#Xpjv1HjJNiRdEF-U8W1e_pad-10" x="77300" y="-104140"/><use xlink:href="#Xpjv1HjJNiRdEF-U8W1e_pad-10" x="108800" y="-30787.5"/><use xlink:href="#Xpjv1HjJNiRdEF-U8W1e_pad-10" x="108800" y="-29212.5"/><use xlink:href="#Xpjv1HjJNiRdEF-U8W1e_pad-10" x="68300" y="-55875"/><use xlink:href="#Xpjv1HjJNiRdEF-U8W1e_pad-10" x="68300" y="-54300"/><use xlink:href="#Xpjv1HjJNiRdEF-U8W1e_pad-11" x="77300" y="-107652.5"/><use xlink:href="#Xpjv1HjJNiRdEF-U8W1e_pad-11" x="77300" y="-109302.5"/><use xlink:href="#Xpjv1HjJNiRdEF-U8W1e_pad-10" x="81800" y="-30787.5"/><use xlink:href="#Xpjv1HjJNiRdEF-U8W1e_pad-10" x="81800" y="-29212.5"/><use xlink:href="#Xpjv1HjJNiRdEF-U8W1e_pad-11" x="111800" y="-107652.5"/><use xlink:href="#Xpjv1HjJNiRdEF-U8W1e_pad-11" x="111800" y="-109302.5"/><use xlink:href="#Xpjv1HjJNiRdEF-U8W1e_pad-11" x="99800" y="-107652.5"/><use xlink:href="#Xpjv1HjJNiRdEF-U8W1e_pad-11" x="99800" y="-109302.5"/><use xlink:href="#Xpjv1HjJNiRdEF-U8W1e_pad-10" x="84800" y="-55875"/><use xlink:href="#Xpjv1HjJNiRdEF-U8W1e_pad-10" x="84800" y="-54300"/><use xlink:href="#Xpjv1HjJNiRdEF-U8W1e_pad-10" x="69800" y="-105715"/><use xlink:href="#Xpjv1HjJNiRdEF-U8W1e_pad-10" x="69800" y="-104140"/><use xlink:href="#Xpjv1HjJNiRdEF-U8W1e_pad-10" x="71300" y="-55875"/><use xlink:href="#Xpjv1HjJNiRdEF-U8W1e_pad-10" x="71300" y="-54300"/><use xlink:href="#Xpjv1HjJNiRdEF-U8W1e_pad-11" x="114800" y="-82633.5"/><use xlink:href="#Xpjv1HjJNiRdEF-U8W1e_pad-11" x="114800" y="-84283.5"/><use xlink:href="#Xpjv1HjJNiRdEF-U8W1e_pad-11" x="108800" y="-82633.5"/><use xlink:href="#Xpjv1HjJNiRdEF-U8W1e_pad-11" x="108800" y="-84283.5"/><use xlink:href="#Xpjv1HjJNiRdEF-U8W1e_pad-10" x="63800" y="-55875"/><use xlink:href="#Xpjv1HjJNiRdEF-U8W1e_pad-10" x="63800" y="-54300"/><use xlink:href="#Xpjv1HjJNiRdEF-U8W1e_pad-10" x="111800" y="-80746"/><use xlink:href="#Xpjv1HjJNiRdEF-U8W1e_pad-10" x="111800" y="-79171"/><use xlink:href="#Xpjv1HjJNiRdEF-U8W1e_pad-11" x="75800" y="-57862.5"/><use xlink:href="#Xpjv1HjJNiRdEF-U8W1e_pad-11" x="75800" y="-59512.5"/><use xlink:href="#Xpjv1HjJNiRdEF-U8W1e_pad-11" x="114800" y="-107652.5"/><use xlink:href="#Xpjv1HjJNiRdEF-U8W1e_pad-11" x="114800" y="-109302.5"/><use xlink:href="#Xpjv1HjJNiRdEF-U8W1e_pad-11" x="74300" y="-107652.5"/><use xlink:href="#Xpjv1HjJNiRdEF-U8W1e_pad-11" x="74300" y="-109302.5"/><use xlink:href="#Xpjv1HjJNiRdEF-U8W1e_pad-10" x="105800" y="-30787.5"/><use xlink:href="#Xpjv1HjJNiRdEF-U8W1e_pad-10" x="105800" y="-29212.5"/><use xlink:href="#Xpjv1HjJNiRdEF-U8W1e_pad-11" x="95300" y="-107652.5"/><use xlink:href="#Xpjv1HjJNiRdEF-U8W1e_pad-11" x="95300" y="-109302.5"/><use xlink:href="#Xpjv1HjJNiRdEF-U8W1e_pad-10" x="83300" y="-80696"/><use xlink:href="#Xpjv1HjJNiRdEF-U8W1e_pad-10" x="83300" y="-79121"/><use xlink:href="#Xpjv1HjJNiRdEF-U8W1e_pad-10" x="113300" y="-30787.5"/><use xlink:href="#Xpjv1HjJNiRdEF-U8W1e_pad-10" x="113300" y="-29212.5"/><use xlink:href="#Xpjv1HjJNiRdEF-U8W1e_pad-10" x="101300" y="-105715"/><use xlink:href="#Xpjv1HjJNiRdEF-U8W1e_pad-10" x="101300" y="-104140"/><use xlink:href="#Xpjv1HjJNiRdEF-U8W1e_pad-10" x="119300" y="-55875"/><use xlink:href="#Xpjv1HjJNiRdEF-U8W1e_pad-10" x="119300" y="-54300"/><use xlink:href="#Xpjv1HjJNiRdEF-U8W1e_pad-10" x="92300" y="-30787.5"/><use xlink:href="#Xpjv1HjJNiRdEF-U8W1e_pad-10" x="92300" y="-29212.5"/><use xlink:href="#Xpjv1HjJNiRdEF-U8W1e_pad-10" x="117800" y="-80746"/><use xlink:href="#Xpjv1HjJNiRdEF-U8W1e_pad-10" x="117800" y="-79171"/><use xlink:href="#Xpjv1HjJNiRdEF-U8W1e_pad-10" x="108800" y="-80696"/><use xlink:href="#Xpjv1HjJNiRdEF-U8W1e_pad-10" x="108800" y="-79121"/><use xlink:href="#Xpjv1HjJNiRdEF-U8W1e_pad-11" x="75800" y="-107652.5"/><use xlink:href="#Xpjv1HjJNiRdEF-U8W1e_pad-11" x="75800" y="-109302.5"/><use xlink:href="#Xpjv1HjJNiRdEF-U8W1e_pad-11" x="66800" y="-82633.5"/><use xlink:href="#Xpjv1HjJNiRdEF-U8W1e_pad-11" x="66800" y="-84283.5"/><use xlink:href="#Xpjv1HjJNiRdEF-U8W1e_pad-11" x="90800" y="-57862.5"/><use xlink:href="#Xpjv1HjJNiRdEF-U8W1e_pad-11" x="90800" y="-59512.5"/><use xlink:href="#Xpjv1HjJNiRdEF-U8W1e_pad-10" x="78800" y="-80696"/><use xlink:href="#Xpjv1HjJNiRdEF-U8W1e_pad-10" x="78800" y="-79121"/><use xlink:href="#Xpjv1HjJNiRdEF-U8W1e_pad-11" x="98300" y="-57862.5"/><use xlink:href="#Xpjv1HjJNiRdEF-U8W1e_pad-11" x="98300" y="-59512.5"/><use xlink:href="#Xpjv1HjJNiRdEF-U8W1e_pad-10" x="81800" y="-80696"/><use xlink:href="#Xpjv1HjJNiRdEF-U8W1e_pad-10" x="81800" y="-79121"/><use xlink:href="#Xpjv1HjJNiRdEF-U8W1e_pad-11" x="78800" y="-107652.5"/><use xlink:href="#Xpjv1HjJNiRdEF-U8W1e_pad-11" x="78800" y="-109302.5"/><use xlink:href="#Xpjv1HjJNiRdEF-U8W1e_pad-10" x="87800" y="-55875"/><use xlink:href="#Xpjv1HjJNiRdEF-U8W1e_pad-10" x="87800" y="-54300"/><use xlink:href="#Xpjv1HjJNiRdEF-U8W1e_pad-11" x="120800" y="-32675"/><use xlink:href="#Xpjv1HjJNiRdEF-U8W1e_pad-11" x="120800" y="-34325"/><use xlink:href="#Xpjv1HjJNiRdEF-U8W1e_pad-10" x="66800" y="-30787.5"/><use xlink:href="#Xpjv1HjJNiRdEF-U8W1e_pad-10" x="66800" y="-29212.5"/><use xlink:href="#Xpjv1HjJNiRdEF-U8W1e_pad-10" x="86300" y="-80696"/><use xlink:href="#Xpjv1HjJNiRdEF-U8W1e_pad-10" x="86300" y="-79121"/><use xlink:href="#Xpjv1HjJNiRdEF-U8W1e_pad-10" x="72800" y="-30787.5"/><use xlink:href="#Xpjv1HjJNiRdEF-U8W1e_pad-10" x="72800" y="-29212.5"/><use xlink:href="#Xpjv1HjJNiRdEF-U8W1e_pad-10" x="98300" y="-55875"/><use xlink:href="#Xpjv1HjJNiRdEF-U8W1e_pad-10" x="98300" y="-54300"/><use xlink:href="#Xpjv1HjJNiRdEF-U8W1e_pad-11" x="87800" y="-57862.5"/><use xlink:href="#Xpjv1HjJNiRdEF-U8W1e_pad-11" x="87800" y="-59512.5"/><use xlink:href="#Xpjv1HjJNiRdEF-U8W1e_pad-10" x="93800" y="-80696"/><use xlink:href="#Xpjv1HjJNiRdEF-U8W1e_pad-10" x="93800" y="-79121"/><use xlink:href="#Xpjv1HjJNiRdEF-U8W1e_pad-10" x="72800" y="-55875"/><use xlink:href="#Xpjv1HjJNiRdEF-U8W1e_pad-10" x="72800" y="-54300"/><use xlink:href="#Xpjv1HjJNiRdEF-U8W1e_pad-10" x="104300" y="-80696"/><use xlink:href="#Xpjv1HjJNiRdEF-U8W1e_pad-10" x="104300" y="-79121"/><use xlink:href="#Xpjv1HjJNiRdEF-U8W1e_pad-10" x="98300" y="-105715"/><use xlink:href="#Xpjv1HjJNiRdEF-U8W1e_pad-10" x="98300" y="-104140"/><use xlink:href="#Xpjv1HjJNiRdEF-U8W1e_pad-11" x="92300" y="-57862.5"/><use xlink:href="#Xpjv1HjJNiRdEF-U8W1e_pad-11" x="92300" y="-59512.5"/><use xlink:href="#Xpjv1HjJNiRdEF-U8W1e_pad-10" x="111800" y="-30787.5"/><use xlink:href="#Xpjv1HjJNiRdEF-U8W1e_pad-10" x="111800" y="-29212.5"/><use xlink:href="#Xpjv1HjJNiRdEF-U8W1e_pad-11" x="83300" y="-57862.5"/><use xlink:href="#Xpjv1HjJNiRdEF-U8W1e_pad-11" x="83300" y="-59512.5"/><use xlink:href="#Xpjv1HjJNiRdEF-U8W1e_pad-11" x="75800" y="-32712.5"/><use xlink:href="#Xpjv1HjJNiRdEF-U8W1e_pad-11" x="75800" y="-34362.5"/><use xlink:href="#Xpjv1HjJNiRdEF-U8W1e_pad-11" x="93800" y="-32675"/><use xlink:href="#Xpjv1HjJNiRdEF-U8W1e_pad-11" x="93800" y="-34325"/><use xlink:href="#Xpjv1HjJNiRdEF-U8W1e_pad-11" x="101300" y="-57862.5"/><use xlink:href="#Xpjv1HjJNiRdEF-U8W1e_pad-11" x="101300" y="-59512.5"/><use xlink:href="#Xpjv1HjJNiRdEF-U8W1e_pad-11" x="63800" y="-57862.5"/><use xlink:href="#Xpjv1HjJNiRdEF-U8W1e_pad-11" x="63800" y="-59512.5"/><use xlink:href="#Xpjv1HjJNiRdEF-U8W1e_pad-11" x="63800" y="-107652.5"/><use xlink:href="#Xpjv1HjJNiRdEF-U8W1e_pad-11" x="63800" y="-109302.5"/><use xlink:href="#Xpjv1HjJNiRdEF-U8W1e_pad-10" x="65300" y="-55875"/><use xlink:href="#Xpjv1HjJNiRdEF-U8W1e_pad-10" x="65300" y="-54300"/><use xlink:href="#Xpjv1HjJNiRdEF-U8W1e_pad-10" x="120800" y="-80746"/><use xlink:href="#Xpjv1HjJNiRdEF-U8W1e_pad-10" x="120800" y="-79171"/><use xlink:href="#Xpjv1HjJNiRdEF-U8W1e_pad-11" x="89300" y="-107652.5"/><use xlink:href="#Xpjv1HjJNiRdEF-U8W1e_pad-11" x="89300" y="-109302.5"/><use xlink:href="#Xpjv1HjJNiRdEF-U8W1e_pad-10" x="74300" y="-105715"/><use xlink:href="#Xpjv1HjJNiRdEF-U8W1e_pad-10" x="74300" y="-104140"/><use xlink:href="#Xpjv1HjJNiRdEF-U8W1e_pad-11" x="107300" y="-32675"/><use xlink:href="#Xpjv1HjJNiRdEF-U8W1e_pad-11" x="107300" y="-34325"/><use xlink:href="#Xpjv1HjJNiRdEF-U8W1e_pad-10" x="63800" y="-105715"/><use xlink:href="#Xpjv1HjJNiRdEF-U8W1e_pad-10" x="63800" y="-104140"/><use xlink:href="#Xpjv1HjJNiRdEF-U8W1e_pad-10" x="102800" y="-105715"/><use xlink:href="#Xpjv1HjJNiRdEF-U8W1e_pad-10" x="102800" y="-104140"/><use xlink:href="#Xpjv1HjJNiRdEF-U8W1e_pad-10" x="93800" y="-30787.5"/><use xlink:href="#Xpjv1HjJNiRdEF-U8W1e_pad-10" x="93800" y="-29212.5"/><use xlink:href="#Xpjv1HjJNiRdEF-U8W1e_pad-11" x="122300" y="-32712.5"/><use xlink:href="#Xpjv1HjJNiRdEF-U8W1e_pad-11" x="122300" y="-34362.5"/><use xlink:href="#Xpjv1HjJNiRdEF-U8W1e_pad-11" x="117800" y="-82633.5"/><use xlink:href="#Xpjv1HjJNiRdEF-U8W1e_pad-11" x="117800" y="-84283.5"/><use xlink:href="#Xpjv1HjJNiRdEF-U8W1e_pad-11" x="101300" y="-107652.5"/><use xlink:href="#Xpjv1HjJNiRdEF-U8W1e_pad-11" x="101300" y="-109302.5"/><use xlink:href="#Xpjv1HjJNiRdEF-U8W1e_pad-11" x="86300" y="-82633.5"/><use xlink:href="#Xpjv1HjJNiRdEF-U8W1e_pad-11" x="86300" y="-84283.5"/><use xlink:href="#Xpjv1HjJNiRdEF-U8W1e_pad-10" x="77300" y="-80696"/><use xlink:href="#Xpjv1HjJNiRdEF-U8W1e_pad-10" x="77300" y="-79121"/><use xlink:href="#Xpjv1HjJNiRdEF-U8W1e_pad-11" x="77300" y="-82633.5"/><use xlink:href="#Xpjv1HjJNiRdEF-U8W1e_pad-11" x="77300" y="-84283.5"/><use xlink:href="#Xpjv1HjJNiRdEF-U8W1e_pad-11" x="81800" y="-107652.5"/><use xlink:href="#Xpjv1HjJNiRdEF-U8W1e_pad-11" x="81800" y="-109302.5"/><use xlink:href="#Xpjv1HjJNiRdEF-U8W1e_pad-11" x="74300" y="-82633.5"/><use xlink:href="#Xpjv1HjJNiRdEF-U8W1e_pad-11" x="74300" y="-84283.5"/><use xlink:href="#Xpjv1HjJNiRdEF-U8W1e_pad-11" x="74300" y="-57862.5"/><use xlink:href="#Xpjv1HjJNiRdEF-U8W1e_pad-11" x="74300" y="-59512.5"/><use xlink:href="#Xpjv1HjJNiRdEF-U8W1e_pad-11" x="83300" y="-32712.5"/><use xlink:href="#Xpjv1HjJNiRdEF-U8W1e_pad-11" x="83300" y="-34362.5"/><use xlink:href="#Xpjv1HjJNiRdEF-U8W1e_pad-11" x="102800" y="-32675"/><use xlink:href="#Xpjv1HjJNiRdEF-U8W1e_pad-11" x="102800" y="-34325"/><use xlink:href="#Xpjv1HjJNiRdEF-U8W1e_pad-10" x="66800" y="-55875"/><use xlink:href="#Xpjv1HjJNiRdEF-U8W1e_pad-10" x="66800" y="-54300"/><use xlink:href="#Xpjv1HjJNiRdEF-U8W1e_pad-11" x="105800" y="-82633.5"/><use xlink:href="#Xpjv1HjJNiRdEF-U8W1e_pad-11" x="105800" y="-84283.5"/><use xlink:href="#Xpjv1HjJNiRdEF-U8W1e_pad-11" x="81800" y="-32712.5"/><use xlink:href="#Xpjv1HjJNiRdEF-U8W1e_pad-11" x="81800" y="-34362.5"/><use xlink:href="#Xpjv1HjJNiRdEF-U8W1e_pad-10" x="107300" y="-30787.5"/><use xlink:href="#Xpjv1HjJNiRdEF-U8W1e_pad-10" x="107300" y="-29212.5"/><use xlink:href="#Xpjv1HjJNiRdEF-U8W1e_pad-10" x="63800" y="-80696"/><use xlink:href="#Xpjv1HjJNiRdEF-U8W1e_pad-10" x="63800" y="-79121"/><use xlink:href="#Xpjv1HjJNiRdEF-U8W1e_pad-11" x="104300" y="-107652.5"/><use xlink:href="#Xpjv1HjJNiRdEF-U8W1e_pad-11" x="104300" y="-109302.5"/><use xlink:href="#Xpjv1HjJNiRdEF-U8W1e_pad-11" x="99800" y="-82633.5"/><use xlink:href="#Xpjv1HjJNiRdEF-U8W1e_pad-11" x="99800" y="-84283.5"/><use xlink:href="#Xpjv1HjJNiRdEF-U8W1e_pad-11" x="80300" y="-82633.5"/><use xlink:href="#Xpjv1HjJNiRdEF-U8W1e_pad-11" x="80300" y="-84283.5"/><use xlink:href="#Xpjv1HjJNiRdEF-U8W1e_pad-10" x="90800" y="-30787.5"/><use xlink:href="#Xpjv1HjJNiRdEF-U8W1e_pad-10" x="90800" y="-29212.5"/><use xlink:href="#Xpjv1HjJNiRdEF-U8W1e_pad-11" x="108800" y="-107652.5"/><use xlink:href="#Xpjv1HjJNiRdEF-U8W1e_pad-11" x="108800" y="-109302.5"/><use xlink:href="#Xpjv1HjJNiRdEF-U8W1e_pad-11" x="78800" y="-82633.5"/><use xlink:href="#Xpjv1HjJNiRdEF-U8W1e_pad-11" x="78800" y="-84283.5"/><use xlink:href="#Xpjv1HjJNiRdEF-U8W1e_pad-11" x="102800" y="-107652.5"/><use xlink:href="#Xpjv1HjJNiRdEF-U8W1e_pad-11" x="102800" y="-109302.5"/><use xlink:href="#Xpjv1HjJNiRdEF-U8W1e_pad-10" x="120800" y="-55875"/><use xlink:href="#Xpjv1HjJNiRdEF-U8W1e_pad-10" x="120800" y="-54300"/><use xlink:href="#Xpjv1HjJNiRdEF-U8W1e_pad-11" x="65300" y="-107652.5"/><use xlink:href="#Xpjv1HjJNiRdEF-U8W1e_pad-11" x="65300" y="-109302.5"/><use xlink:href="#Xpjv1HjJNiRdEF-U8W1e_pad-10" x="114800" y="-80746"/><use xlink:href="#Xpjv1HjJNiRdEF-U8W1e_pad-10" x="114800" y="-79171"/><use xlink:href="#Xpjv1HjJNiRdEF-U8W1e_pad-10" x="69800" y="-55875"/><use xlink:href="#Xpjv1HjJNiRdEF-U8W1e_pad-10" x="69800" y="-54300"/><use xlink:href="#Xpjv1HjJNiRdEF-U8W1e_pad-11" x="111800" y="-82633.5"/><use xlink:href="#Xpjv1HjJNiRdEF-U8W1e_pad-11" x="111800" y="-84283.5"/><use xlink:href="#Xpjv1HjJNiRdEF-U8W1e_pad-10" x="95300" y="-80696"/><use xlink:href="#Xpjv1HjJNiRdEF-U8W1e_pad-10" x="95300" y="-79121"/><use xlink:href="#Xpjv1HjJNiRdEF-U8W1e_pad-10" x="111800" y="-105715"/><use xlink:href="#Xpjv1HjJNiRdEF-U8W1e_pad-10" x="111800" y="-104140"/><use xlink:href="#Xpjv1HjJNiRdEF-U8W1e_pad-10" x="98300" y="-80696"/><use xlink:href="#Xpjv1HjJNiRdEF-U8W1e_pad-10" x="98300" y="-79121"/><use xlink:href="#Xpjv1HjJNiRdEF-U8W1e_pad-11" x="75800" y="-82633.5"/><use xlink:href="#Xpjv1HjJNiRdEF-U8W1e_pad-11" x="75800" y="-84283.5"/><use xlink:href="#Xpjv1HjJNiRdEF-U8W1e_pad-10" x="75800" y="-105715"/><use xlink:href="#Xpjv1HjJNiRdEF-U8W1e_pad-10" x="75800" y="-104140"/><use xlink:href="#Xpjv1HjJNiRdEF-U8W1e_pad-11" x="111800" y="-57862.5"/><use xlink:href="#Xpjv1HjJNiRdEF-U8W1e_pad-11" x="111800" y="-59512.5"/><use xlink:href="#Xpjv1HjJNiRdEF-U8W1e_pad-11" x="116300" y="-107652.5"/><use xlink:href="#Xpjv1HjJNiRdEF-U8W1e_pad-11" x="116300" y="-109302.5"/><use xlink:href="#Xpjv1HjJNiRdEF-U8W1e_pad-11" x="119300" y="-57862.5"/><use xlink:href="#Xpjv1HjJNiRdEF-U8W1e_pad-11" x="119300" y="-59512.5"/><use xlink:href="#Xpjv1HjJNiRdEF-U8W1e_pad-11" x="69773.8" y="-107652.5"/><use xlink:href="#Xpjv1HjJNiRdEF-U8W1e_pad-11" x="69773.8" y="-109302.5"/><use xlink:href="#Xpjv1HjJNiRdEF-U8W1e_pad-11" x="95300" y="-57862.5"/><use xlink:href="#Xpjv1HjJNiRdEF-U8W1e_pad-11" x="95300" y="-59512.5"/><use xlink:href="#Xpjv1HjJNiRdEF-U8W1e_pad-10" x="77300" y="-55875"/><use xlink:href="#Xpjv1HjJNiRdEF-U8W1e_pad-10" x="77300" y="-54300"/><use xlink:href="#Xpjv1HjJNiRdEF-U8W1e_pad-11" x="102800" y="-82633.5"/><use xlink:href="#Xpjv1HjJNiRdEF-U8W1e_pad-11" x="102800" y="-84283.5"/><use xlink:href="#Xpjv1HjJNiRdEF-U8W1e_pad-11" x="104300" y="-32675"/><use xlink:href="#Xpjv1HjJNiRdEF-U8W1e_pad-11" x="104300" y="-34325"/><use xlink:href="#Xpjv1HjJNiRdEF-U8W1e_pad-11" x="110300" y="-32675"/><use xlink:href="#Xpjv1HjJNiRdEF-U8W1e_pad-11" x="110300" y="-34325"/><use xlink:href="#Xpjv1HjJNiRdEF-U8W1e_pad-10" x="96800" y="-105715"/><use xlink:href="#Xpjv1HjJNiRdEF-U8W1e_pad-10" x="96800" y="-104140"/><use xlink:href="#Xpjv1HjJNiRdEF-U8W1e_pad-10" x="122300" y="-30787.5"/><use xlink:href="#Xpjv1HjJNiRdEF-U8W1e_pad-10" x="122300" y="-29212.5"/><use xlink:href="#Xpjv1HjJNiRdEF-U8W1e_pad-10" x="65300" y="-80696"/><use xlink:href="#Xpjv1HjJNiRdEF-U8W1e_pad-10" x="65300" y="-79121"/><use xlink:href="#Xpjv1HjJNiRdEF-U8W1e_pad-11" x="104300" y="-57862.5"/><use xlink:href="#Xpjv1HjJNiRdEF-U8W1e_pad-11" x="104300" y="-59512.5"/><use xlink:href="#Xpjv1HjJNiRdEF-U8W1e_pad-10" x="104300" y="-105715"/><use xlink:href="#Xpjv1HjJNiRdEF-U8W1e_pad-10" x="104300" y="-104140"/><use xlink:href="#Xpjv1HjJNiRdEF-U8W1e_pad-10" x="63800" y="-30787.5"/><use xlink:href="#Xpjv1HjJNiRdEF-U8W1e_pad-10" x="63800" y="-29212.5"/><use xlink:href="#Xpjv1HjJNiRdEF-U8W1e_pad-11" x="101300" y="-82633.5"/><use xlink:href="#Xpjv1HjJNiRdEF-U8W1e_pad-11" x="101300" y="-84283.5"/><use xlink:href="#Xpjv1HjJNiRdEF-U8W1e_pad-10" x="105800" y="-55875"/><use xlink:href="#Xpjv1HjJNiRdEF-U8W1e_pad-10" x="105800" y="-54300"/><use xlink:href="#Xpjv1HjJNiRdEF-U8W1e_pad-10" x="105800" y="-80696"/><use xlink:href="#Xpjv1HjJNiRdEF-U8W1e_pad-10" x="105800" y="-79121"/><use xlink:href="#Xpjv1HjJNiRdEF-U8W1e_pad-10" x="80300" y="-80696"/><use xlink:href="#Xpjv1HjJNiRdEF-U8W1e_pad-10" x="80300" y="-79121"/><use xlink:href="#Xpjv1HjJNiRdEF-U8W1e_pad-10" x="72800" y="-80696"/><use xlink:href="#Xpjv1HjJNiRdEF-U8W1e_pad-10" x="72800" y="-79121"/><use xlink:href="#Xpjv1HjJNiRdEF-U8W1e_pad-11" x="105800" y="-107652.5"/><use xlink:href="#Xpjv1HjJNiRdEF-U8W1e_pad-11" x="105800" y="-109302.5"/><use xlink:href="#Xpjv1HjJNiRdEF-U8W1e_pad-10" x="83300" y="-105715"/><use xlink:href="#Xpjv1HjJNiRdEF-U8W1e_pad-10" x="83300" y="-104140"/><use xlink:href="#Xpjv1HjJNiRdEF-U8W1e_pad-10" x="110300" y="-105715"/><use xlink:href="#Xpjv1HjJNiRdEF-U8W1e_pad-10" x="110300" y="-104140"/><use xlink:href="#Xpjv1HjJNiRdEF-U8W1e_pad-10" x="101300" y="-30787.5"/><use xlink:href="#Xpjv1HjJNiRdEF-U8W1e_pad-10" x="101300" y="-29212.5"/><use xlink:href="#Xpjv1HjJNiRdEF-U8W1e_pad-11" x="80300" y="-107652.5"/><use xlink:href="#Xpjv1HjJNiRdEF-U8W1e_pad-11" x="80300" y="-109302.5"/><use xlink:href="#Xpjv1HjJNiRdEF-U8W1e_pad-11" x="72800" y="-57862.5"/><use xlink:href="#Xpjv1HjJNiRdEF-U8W1e_pad-11" x="72800" y="-59512.5"/><use xlink:href="#Xpjv1HjJNiRdEF-U8W1e_pad-10" x="102800" y="-80696"/><use xlink:href="#Xpjv1HjJNiRdEF-U8W1e_pad-10" x="102800" y="-79121"/><use xlink:href="#Xpjv1HjJNiRdEF-U8W1e_pad-10" x="95300" y="-30787.5"/><use xlink:href="#Xpjv1HjJNiRdEF-U8W1e_pad-10" x="95300" y="-29212.5"/><use xlink:href="#Xpjv1HjJNiRdEF-U8W1e_pad-10" x="117800" y="-55875"/><use xlink:href="#Xpjv1HjJNiRdEF-U8W1e_pad-10" x="117800" y="-54300"/><use xlink:href="#Xpjv1HjJNiRdEF-U8W1e_pad-11" x="87800" y="-82633.5"/><use xlink:href="#Xpjv1HjJNiRdEF-U8W1e_pad-11" x="87800" y="-84283.5"/><use xlink:href="#Xpjv1HjJNiRdEF-U8W1e_pad-11" x="71297.8" y="-107652.5"/><use xlink:href="#Xpjv1HjJNiRdEF-U8W1e_pad-11" x="71297.8" y="-109302.5"/><use xlink:href="#Xpjv1HjJNiRdEF-U8W1e_pad-10" x="116300" y="-55875"/><use xlink:href="#Xpjv1HjJNiRdEF-U8W1e_pad-10" x="116300" y="-54300"/><use xlink:href="#Xpjv1HjJNiRdEF-U8W1e_pad-10" x="68300" y="-30787.5"/><use xlink:href="#Xpjv1HjJNiRdEF-U8W1e_pad-10" x="68300" y="-29212.5"/><use xlink:href="#Xpjv1HjJNiRdEF-U8W1e_pad-11" x="65300" y="-32712.5"/><use xlink:href="#Xpjv1HjJNiRdEF-U8W1e_pad-11" x="65300" y="-34362.5"/><use xlink:href="#Xpjv1HjJNiRdEF-U8W1e_pad-11" x="83300" y="-107652.5"/><use xlink:href="#Xpjv1HjJNiRdEF-U8W1e_pad-11" x="83300" y="-109302.5"/><use xlink:href="#Xpjv1HjJNiRdEF-U8W1e_pad-11" x="68300" y="-82633.5"/><use xlink:href="#Xpjv1HjJNiRdEF-U8W1e_pad-11" x="68300" y="-84283.5"/><use xlink:href="#Xpjv1HjJNiRdEF-U8W1e_pad-10" x="116300" y="-105715"/><use xlink:href="#Xpjv1HjJNiRdEF-U8W1e_pad-10" x="116300" y="-104140"/><use xlink:href="#Xpjv1HjJNiRdEF-U8W1e_pad-11" x="77300" y="-57862.5"/><use xlink:href="#Xpjv1HjJNiRdEF-U8W1e_pad-11" x="77300" y="-59512.5"/><use xlink:href="#Xpjv1HjJNiRdEF-U8W1e_pad-10" x="95300" y="-105715"/><use xlink:href="#Xpjv1HjJNiRdEF-U8W1e_pad-10" x="95300" y="-104140"/><use xlink:href="#Xpjv1HjJNiRdEF-U8W1e_pad-10" x="107300" y="-55875"/><use xlink:href="#Xpjv1HjJNiRdEF-U8W1e_pad-10" x="107300" y="-54300"/><use xlink:href="#Xpjv1HjJNiRdEF-U8W1e_pad-10" x="110300" y="-55875"/><use xlink:href="#Xpjv1HjJNiRdEF-U8W1e_pad-10" x="110300" y="-54300"/><use xlink:href="#Xpjv1HjJNiRdEF-U8W1e_pad-11" x="102800" y="-57862.5"/><use xlink:href="#Xpjv1HjJNiRdEF-U8W1e_pad-11" x="102800" y="-59512.5"/><use xlink:href="#Xpjv1HjJNiRdEF-U8W1e_pad-11" x="84800" y="-107652.5"/><use xlink:href="#Xpjv1HjJNiRdEF-U8W1e_pad-11" x="84800" y="-109302.5"/><use xlink:href="#Xpjv1HjJNiRdEF-U8W1e_pad-11" x="113300" y="-107652.5"/><use xlink:href="#Xpjv1HjJNiRdEF-U8W1e_pad-11" x="113300" y="-109302.5"/><use xlink:href="#Xpjv1HjJNiRdEF-U8W1e_pad-10" x="81800" y="-105715"/><use xlink:href="#Xpjv1HjJNiRdEF-U8W1e_pad-10" x="81800" y="-104140"/><use xlink:href="#Xpjv1HjJNiRdEF-U8W1e_pad-10" x="113300" y="-55875"/><use xlink:href="#Xpjv1HjJNiRdEF-U8W1e_pad-10" x="113300" y="-54300"/><use xlink:href="#Xpjv1HjJNiRdEF-U8W1e_pad-10" x="68300" y="-105715"/><use xlink:href="#Xpjv1HjJNiRdEF-U8W1e_pad-10" x="68300" y="-104140"/></g></svg>