<svg version="1.1" xmlns="http://www.w3.org/2000/svg" xmlns:xlink="http://www.w3.org/1999/xlink" stroke-linecap="round" stroke-linejoin="round" stroke-width="0" fill-rule="evenodd" width="93.196mm" height="71.445239mm" viewBox="110624 -121345 93196 71445.239" id="vzyZYw7f-uLhhu7L3cvl"><defs><rect x="-800" y="-800" width="1600" height="1600" id="vzyZYw7f-uLhhu7L3cvl_pad-13"/><circle cx="0" cy="0" r="800" id="vzyZYw7f-uLhhu7L3cvl_pad-14"/><rect x="-800" y="-800" width="1600" height="1600" rx="800" ry="800" id="vzyZYw7f-uLhhu7L3cvl_pad-15"/><rect x="-850" y="-850" width="1700" height="1700" id="vzyZYw7f-uLhhu7L3cvl_pad-16"/><rect x="-850" y="-850" width="1700" height="1700" rx="850" ry="850" id="vzyZYw7f-uLhhu7L3cvl_pad-17"/><mask id="vzyZYw7f-uLhhu7L3cvl_clear-1" fill="#000" stroke="#000"><g><rect x="110624" y="-113105" width="93196" height="63205.239" fill="#fff"/><path d="M 189270 -116785 128270 -116785 128270 -121285 189270 -121285 189270 -116785" fill="none" stroke-width="120"/><path d="M 189270 -116785 128270 -116785 128270 -121285 189270 -121285 189270 -116785"/><use xlink:href="#vzyZYw7f-uLhhu7L3cvl_pad-13" x="134250" y="-101932.38"/><use xlink:href="#vzyZYw7f-uLhhu7L3cvl_pad-14" x="134250" y="-99432.38"/><use xlink:href="#vzyZYw7f-uLhhu7L3cvl_pad-13" x="189660" y="-84110"/><use xlink:href="#vzyZYw7f-uLhhu7L3cvl_pad-15" x="189660" y="-86650"/><use xlink:href="#vzyZYw7f-uLhhu7L3cvl_pad-15" x="189660" y="-89190"/><use xlink:href="#vzyZYw7f-uLhhu7L3cvl_pad-15" x="189660" y="-91730"/><use xlink:href="#vzyZYw7f-uLhhu7L3cvl_pad-15" x="189660" y="-94270"/><use xlink:href="#vzyZYw7f-uLhhu7L3cvl_pad-15" x="189660" y="-96810"/><use xlink:href="#vzyZYw7f-uLhhu7L3cvl_pad-15" x="189660" y="-99350"/><use xlink:href="#vzyZYw7f-uLhhu7L3cvl_pad-15" x="189660" y="-101890"/><use xlink:href="#vzyZYw7f-uLhhu7L3cvl_pad-15" x="202360" y="-101890"/><use xlink:href="#vzyZYw7f-uLhhu7L3cvl_pad-15" x="202360" y="-99350"/><use xlink:href="#vzyZYw7f-uLhhu7L3cvl_pad-15" x="202360" y="-96810"/><use xlink:href="#vzyZYw7f-uLhhu7L3cvl_pad-15" x="202360" y="-94270"/><use xlink:href="#vzyZYw7f-uLhhu7L3cvl_pad-15" x="202360" y="-91730"/><use xlink:href="#vzyZYw7f-uLhhu7L3cvl_pad-15" x="202360" y="-89190"/><use xlink:href="#vzyZYw7f-uLhhu7L3cvl_pad-15" x="202360" y="-86650"/><use xlink:href="#vzyZYw7f-uLhhu7L3cvl_pad-15" x="202360" y="-84110"/><use xlink:href="#vzyZYw7f-uLhhu7L3cvl_pad-13" x="164993.332" y="-84110"/><use xlink:href="#vzyZYw7f-uLhhu7L3cvl_pad-15" x="164993.332" y="-86650"/><use xlink:href="#vzyZYw7f-uLhhu7L3cvl_pad-15" x="164993.332" y="-89190"/><use xlink:href="#vzyZYw7f-uLhhu7L3cvl_pad-15" x="164993.332" y="-91730"/><use xlink:href="#vzyZYw7f-uLhhu7L3cvl_pad-15" x="164993.332" y="-94270"/><use xlink:href="#vzyZYw7f-uLhhu7L3cvl_pad-15" x="164993.332" y="-96810"/><use xlink:href="#vzyZYw7f-uLhhu7L3cvl_pad-15" x="164993.332" y="-99350"/><use xlink:href="#vzyZYw7f-uLhhu7L3cvl_pad-15" x="164993.332" y="-101890"/><use xlink:href="#vzyZYw7f-uLhhu7L3cvl_pad-15" x="177693.332" y="-101890"/><use xlink:href="#vzyZYw7f-uLhhu7L3cvl_pad-15" x="177693.332" y="-99350"/><use xlink:href="#vzyZYw7f-uLhhu7L3cvl_pad-15" x="177693.332" y="-96810"/><use xlink:href="#vzyZYw7f-uLhhu7L3cvl_pad-15" x="177693.332" y="-94270"/><use xlink:href="#vzyZYw7f-uLhhu7L3cvl_pad-15" x="177693.332" y="-91730"/><use xlink:href="#vzyZYw7f-uLhhu7L3cvl_pad-15" x="177693.332" y="-89190"/><use xlink:href="#vzyZYw7f-uLhhu7L3cvl_pad-15" x="177693.332" y="-86650"/><use xlink:href="#vzyZYw7f-uLhhu7L3cvl_pad-15" x="177693.332" y="-84110"/><use xlink:href="#vzyZYw7f-uLhhu7L3cvl_pad-13" x="164993.332" y="-53110"/><use xlink:href="#vzyZYw7f-uLhhu7L3cvl_pad-15" x="164993.332" y="-55650"/><use xlink:href="#vzyZYw7f-uLhhu7L3cvl_pad-15" x="164993.332" y="-58190"/><use xlink:href="#vzyZYw7f-uLhhu7L3cvl_pad-15" x="164993.332" y="-60730"/><use xlink:href="#vzyZYw7f-uLhhu7L3cvl_pad-15" x="164993.332" y="-63270"/><use xlink:href="#vzyZYw7f-uLhhu7L3cvl_pad-15" x="164993.332" y="-65810"/><use xlink:href="#vzyZYw7f-uLhhu7L3cvl_pad-15" x="164993.332" y="-68350"/><use xlink:href="#vzyZYw7f-uLhhu7L3cvl_pad-15" x="164993.332" y="-70890"/><use xlink:href="#vzyZYw7f-uLhhu7L3cvl_pad-15" x="177693.332" y="-70890"/><use xlink:href="#vzyZYw7f-uLhhu7L3cvl_pad-15" x="177693.332" y="-68350"/><use xlink:href="#vzyZYw7f-uLhhu7L3cvl_pad-15" x="177693.332" y="-65810"/><use xlink:href="#vzyZYw7f-uLhhu7L3cvl_pad-15" x="177693.332" y="-63270"/><use xlink:href="#vzyZYw7f-uLhhu7L3cvl_pad-15" x="177693.332" y="-60730"/><use xlink:href="#vzyZYw7f-uLhhu7L3cvl_pad-15" x="177693.332" y="-58190"/><use xlink:href="#vzyZYw7f-uLhhu7L3cvl_pad-15" x="177693.332" y="-55650"/><use xlink:href="#vzyZYw7f-uLhhu7L3cvl_pad-15" x="177693.332" y="-53110"/><use xlink:href="#vzyZYw7f-uLhhu7L3cvl_pad-16" x="112014" y="-86624"/><use xlink:href="#vzyZYw7f-uLhhu7L3cvl_pad-17" x="112014" y="-89164"/><use xlink:href="#vzyZYw7f-uLhhu7L3cvl_pad-17" x="112014" y="-91704"/><use xlink:href="#vzyZYw7f-uLhhu7L3cvl_pad-17" x="112014" y="-94244"/><use xlink:href="#vzyZYw7f-uLhhu7L3cvl_pad-13" x="140326.666" y="-53110"/><use xlink:href="#vzyZYw7f-uLhhu7L3cvl_pad-15" x="140326.666" y="-55650"/><use xlink:href="#vzyZYw7f-uLhhu7L3cvl_pad-15" x="140326.666" y="-58190"/><use xlink:href="#vzyZYw7f-uLhhu7L3cvl_pad-15" x="140326.666" y="-60730"/><use xlink:href="#vzyZYw7f-uLhhu7L3cvl_pad-15" x="140326.666" y="-63270"/><use xlink:href="#vzyZYw7f-uLhhu7L3cvl_pad-15" x="140326.666" y="-65810"/><use xlink:href="#vzyZYw7f-uLhhu7L3cvl_pad-15" x="140326.666" y="-68350"/><use xlink:href="#vzyZYw7f-uLhhu7L3cvl_pad-15" x="140326.666" y="-70890"/><use xlink:href="#vzyZYw7f-uLhhu7L3cvl_pad-15" x="153026.666" y="-70890"/><use xlink:href="#vzyZYw7f-uLhhu7L3cvl_pad-15" x="153026.666" y="-68350"/><use xlink:href="#vzyZYw7f-uLhhu7L3cvl_pad-15" x="153026.666" y="-65810"/><use xlink:href="#vzyZYw7f-uLhhu7L3cvl_pad-15" x="153026.666" y="-63270"/><use xlink:href="#vzyZYw7f-uLhhu7L3cvl_pad-15" x="153026.666" y="-60730"/><use xlink:href="#vzyZYw7f-uLhhu7L3cvl_pad-15" x="153026.666" y="-58190"/><use xlink:href="#vzyZYw7f-uLhhu7L3cvl_pad-15" x="153026.666" y="-55650"/><use xlink:href="#vzyZYw7f-uLhhu7L3cvl_pad-15" x="153026.666" y="-53110"/><use xlink:href="#vzyZYw7f-uLhhu7L3cvl_pad-13" x="159000" y="-101932.38"/><use xlink:href="#vzyZYw7f-uLhhu7L3cvl_pad-14" x="159000" y="-99432.38"/><use xlink:href="#vzyZYw7f-uLhhu7L3cvl_pad-13" x="140326.666" y="-76240"/><use xlink:href="#vzyZYw7f-uLhhu7L3cvl_pad-14" x="140326.666" y="-78740"/><use xlink:href="#vzyZYw7f-uLhhu7L3cvl_pad-13" x="115660" y="-53110"/><use xlink:href="#vzyZYw7f-uLhhu7L3cvl_pad-15" x="115660" y="-55650"/><use xlink:href="#vzyZYw7f-uLhhu7L3cvl_pad-15" x="115660" y="-58190"/><use xlink:href="#vzyZYw7f-uLhhu7L3cvl_pad-15" x="115660" y="-60730"/><use xlink:href="#vzyZYw7f-uLhhu7L3cvl_pad-15" x="115660" y="-63270"/><use xlink:href="#vzyZYw7f-uLhhu7L3cvl_pad-15" x="115660" y="-65810"/><use xlink:href="#vzyZYw7f-uLhhu7L3cvl_pad-15" x="115660" y="-68350"/><use xlink:href="#vzyZYw7f-uLhhu7L3cvl_pad-15" x="115660" y="-70890"/><use xlink:href="#vzyZYw7f-uLhhu7L3cvl_pad-15" x="128360" y="-70890"/><use xlink:href="#vzyZYw7f-uLhhu7L3cvl_pad-15" x="128360" y="-68350"/><use xlink:href="#vzyZYw7f-uLhhu7L3cvl_pad-15" x="128360" y="-65810"/><use xlink:href="#vzyZYw7f-uLhhu7L3cvl_pad-15" x="128360" y="-63270"/><use xlink:href="#vzyZYw7f-uLhhu7L3cvl_pad-15" x="128360" y="-60730"/><use xlink:href="#vzyZYw7f-uLhhu7L3cvl_pad-15" x="128360" y="-58190"/><use xlink:href="#vzyZYw7f-uLhhu7L3cvl_pad-15" x="128360" y="-55650"/><use xlink:href="#vzyZYw7f-uLhhu7L3cvl_pad-15" x="128360" y="-53110"/><use xlink:href="#vzyZYw7f-uLhhu7L3cvl_pad-13" x="115570" y="-106680"/><use xlink:href="#vzyZYw7f-uLhhu7L3cvl_pad-14" x="115570" y="-109180"/><use xlink:href="#vzyZYw7f-uLhhu7L3cvl_pad-16" x="185928" y="-86624"/><use xlink:href="#vzyZYw7f-uLhhu7L3cvl_pad-17" x="185928" y="-89164"/><use xlink:href="#vzyZYw7f-uLhhu7L3cvl_pad-17" x="185928" y="-91704"/><use xlink:href="#vzyZYw7f-uLhhu7L3cvl_pad-17" x="185928" y="-94244"/><use xlink:href="#vzyZYw7f-uLhhu7L3cvl_pad-16" x="161290" y="-86624"/><use xlink:href="#vzyZYw7f-uLhhu7L3cvl_pad-17" x="161290" y="-89164"/><use xlink:href="#vzyZYw7f-uLhhu7L3cvl_pad-17" x="161290" y="-91704"/><use xlink:href="#vzyZYw7f-uLhhu7L3cvl_pad-17" x="161290" y="-94244"/><use xlink:href="#vzyZYw7f-uLhhu7L3cvl_pad-16" x="112014" y="-58176"/><use xlink:href="#vzyZYw7f-uLhhu7L3cvl_pad-17" x="112014" y="-60716"/><use xlink:href="#vzyZYw7f-uLhhu7L3cvl_pad-17" x="112014" y="-63256"/><use xlink:href="#vzyZYw7f-uLhhu7L3cvl_pad-17" x="112014" y="-65796"/><use xlink:href="#vzyZYw7f-uLhhu7L3cvl_pad-13" x="115570" y="-76200"/><use xlink:href="#vzyZYw7f-uLhhu7L3cvl_pad-14" x="115570" y="-78700"/><use xlink:href="#vzyZYw7f-uLhhu7L3cvl_pad-13" x="140326.666" y="-84110"/><use xlink:href="#vzyZYw7f-uLhhu7L3cvl_pad-15" x="140326.666" y="-86650"/><use xlink:href="#vzyZYw7f-uLhhu7L3cvl_pad-15" x="140326.666" y="-89190"/><use xlink:href="#vzyZYw7f-uLhhu7L3cvl_pad-15" x="140326.666" y="-91730"/><use xlink:href="#vzyZYw7f-uLhhu7L3cvl_pad-15" x="140326.666" y="-94270"/><use xlink:href="#vzyZYw7f-uLhhu7L3cvl_pad-15" x="140326.666" y="-96810"/><use xlink:href="#vzyZYw7f-uLhhu7L3cvl_pad-15" x="140326.666" y="-99350"/><use xlink:href="#vzyZYw7f-uLhhu7L3cvl_pad-15" x="140326.666" y="-101890"/><use xlink:href="#vzyZYw7f-uLhhu7L3cvl_pad-15" x="153026.666" y="-101890"/><use xlink:href="#vzyZYw7f-uLhhu7L3cvl_pad-15" x="153026.666" y="-99350"/><use xlink:href="#vzyZYw7f-uLhhu7L3cvl_pad-15" x="153026.666" y="-96810"/><use xlink:href="#vzyZYw7f-uLhhu7L3cvl_pad-15" x="153026.666" y="-94270"/><use xlink:href="#vzyZYw7f-uLhhu7L3cvl_pad-15" x="153026.666" y="-91730"/><use xlink:href="#vzyZYw7f-uLhhu7L3cvl_pad-15" x="153026.666" y="-89190"/><use xlink:href="#vzyZYw7f-uLhhu7L3cvl_pad-15" x="153026.666" y="-86650"/><use xlink:href="#vzyZYw7f-uLhhu7L3cvl_pad-15" x="153026.666" y="-84110"/><use xlink:href="#vzyZYw7f-uLhhu7L3cvl_pad-16" x="185928" y="-58176"/><use xlink:href="#vzyZYw7f-uLhhu7L3cvl_pad-17" x="185928" y="-60716"/><use xlink:href="#vzyZYw7f-uLhhu7L3cvl_pad-17" x="185928" y="-63256"/><use xlink:href="#vzyZYw7f-uLhhu7L3cvl_pad-17" x="185928" y="-65796"/><use xlink:href="#vzyZYw7f-uLhhu7L3cvl_pad-16" x="136652" y="-58176"/><use xlink:href="#vzyZYw7f-uLhhu7L3cvl_pad-17" x="136652" y="-60716"/><use xlink:href="#vzyZYw7f-uLhhu7L3cvl_pad-17" x="136652" y="-63256"/><use xlink:href="#vzyZYw7f-uLhhu7L3cvl_pad-17" x="136652" y="-65796"/><use xlink:href="#vzyZYw7f-uLhhu7L3cvl_pad-13" x="189660" y="-53110"/><use xlink:href="#vzyZYw7f-uLhhu7L3cvl_pad-15" x="189660" y="-55650"/><use xlink:href="#vzyZYw7f-uLhhu7L3cvl_pad-15" x="189660" y="-58190"/><use xlink:href="#vzyZYw7f-uLhhu7L3cvl_pad-15" x="189660" y="-60730"/><use xlink:href="#vzyZYw7f-uLhhu7L3cvl_pad-15" x="189660" y="-63270"/><use xlink:href="#vzyZYw7f-uLhhu7L3cvl_pad-15" x="189660" y="-65810"/><use xlink:href="#vzyZYw7f-uLhhu7L3cvl_pad-15" x="189660" y="-68350"/><use xlink:href="#vzyZYw7f-uLhhu7L3cvl_pad-15" x="189660" y="-70890"/><use xlink:href="#vzyZYw7f-uLhhu7L3cvl_pad-15" x="202360" y="-70890"/><use xlink:href="#vzyZYw7f-uLhhu7L3cvl_pad-15" x="202360" y="-68350"/><use xlink:href="#vzyZYw7f-uLhhu7L3cvl_pad-15" x="202360" y="-65810"/><use xlink:href="#vzyZYw7f-uLhhu7L3cvl_pad-15" x="202360" y="-63270"/><use xlink:href="#vzyZYw7f-uLhhu7L3cvl_pad-15" x="202360" y="-60730"/><use xlink:href="#vzyZYw7f-uLhhu7L3cvl_pad-15" x="202360" y="-58190"/><use xlink:href="#vzyZYw7f-uLhhu7L3cvl_pad-15" x="202360" y="-55650"/><use xlink:href="#vzyZYw7f-uLhhu7L3cvl_pad-15" x="202360" y="-53110"/><use xlink:href="#vzyZYw7f-uLhhu7L3cvl_pad-13" x="189660" y="-76200"/><use xlink:href="#vzyZYw7f-uLhhu7L3cvl_pad-14" x="189660" y="-78700"/><use xlink:href="#vzyZYw7f-uLhhu7L3cvl_pad-16" x="136652" y="-86624"/><use xlink:href="#vzyZYw7f-uLhhu7L3cvl_pad-17" x="136652" y="-89164"/><use xlink:href="#vzyZYw7f-uLhhu7L3cvl_pad-17" x="136652" y="-91704"/><use xlink:href="#vzyZYw7f-uLhhu7L3cvl_pad-17" x="136652" y="-94244"/><use xlink:href="#vzyZYw7f-uLhhu7L3cvl_pad-13" x="184000" y="-101932.379"/><use xlink:href="#vzyZYw7f-uLhhu7L3cvl_pad-14" x="184000" y="-99432.379"/><use xlink:href="#vzyZYw7f-uLhhu7L3cvl_pad-16" x="161290" y="-58176"/><use xlink:href="#vzyZYw7f-uLhhu7L3cvl_pad-17" x="161290" y="-60716"/><use xlink:href="#vzyZYw7f-uLhhu7L3cvl_pad-17" x="161290" y="-63256"/><use xlink:href="#vzyZYw7f-uLhhu7L3cvl_pad-17" x="161290" y="-65796"/><use xlink:href="#vzyZYw7f-uLhhu7L3cvl_pad-13" x="164993.332" y="-76287.621"/><use xlink:href="#vzyZYw7f-uLhhu7L3cvl_pad-14" x="164993.332" y="-78787.621"/><use xlink:href="#vzyZYw7f-uLhhu7L3cvl_pad-13" x="115660" y="-84110"/><use xlink:href="#vzyZYw7f-uLhhu7L3cvl_pad-15" x="115660" y="-86650"/><use xlink:href="#vzyZYw7f-uLhhu7L3cvl_pad-15" x="115660" y="-89190"/><use xlink:href="#vzyZYw7f-uLhhu7L3cvl_pad-15" x="115660" y="-91730"/><use xlink:href="#vzyZYw7f-uLhhu7L3cvl_pad-15" x="115660" y="-94270"/><use xlink:href="#vzyZYw7f-uLhhu7L3cvl_pad-15" x="115660" y="-96810"/><use xlink:href="#vzyZYw7f-uLhhu7L3cvl_pad-15" x="115660" y="-99350"/><use xlink:href="#vzyZYw7f-uLhhu7L3cvl_pad-15" x="115660" y="-101890"/><use xlink:href="#vzyZYw7f-uLhhu7L3cvl_pad-15" x="128360" y="-101890"/><use xlink:href="#vzyZYw7f-uLhhu7L3cvl_pad-15" x="128360" y="-99350"/><use xlink:href="#vzyZYw7f-uLhhu7L3cvl_pad-15" x="128360" y="-96810"/><use xlink:href="#vzyZYw7f-uLhhu7L3cvl_pad-15" x="128360" y="-94270"/><use xlink:href="#vzyZYw7f-uLhhu7L3cvl_pad-15" x="128360" y="-91730"/><use xlink:href="#vzyZYw7f-uLhhu7L3cvl_pad-15" x="128360" y="-89190"/><use xlink:href="#vzyZYw7f-uLhhu7L3cvl_pad-15" x="128360" y="-86650"/><use xlink:href="#vzyZYw7f-uLhhu7L3cvl_pad-15" x="128360" y="-84110"/></g></mask></defs><g transform="translate(0,-171244.761) scale(1,-1)" fill="currentColor" stroke="currentColor"><g mask="url(#vzyZYw7f-uLhhu7L3cvl_clear-1)"><path d="M 129540 -113030 130810 -110490 M 129540 -113030 128270 -110490" fill="none" stroke-width="150"/><path d="M 140250 -107833.928 140107.142 -107762.5 140035.714 -107691.071 139964.285 -107548.214 139964.285 -107476.785 140035.714 -107333.928 140107.142 -107262.5 140250 -107191.071 140535.714 -107191.071 140678.571 -107262.5 140750 -107333.928 140821.428 -107476.785 140821.428 -107548.214 140750 -107691.071 140678.571 -107762.5 140535.714 -107833.928 140250 -107833.928 140107.142 -107905.357 140035.714 -107976.785 139964.285 -108119.642 139964.285 -108405.357 140035.714 -108548.214 140107.142 -108619.642 140250 -108691.071 140535.714 -108691.071 140678.571 -108619.642 140750 -108548.214 140821.428 -108405.357 140821.428 -108119.642 140750 -107976.785 140678.571 -107905.357 140535.714 -107833.928 M 141464.285 -108119.642 142607.142 -108119.642 M 143250 -108619.642 143464.285 -108691.071 143821.428 -108691.071 143964.285 -108619.642 144035.714 -108548.214 144107.142 -108405.357 144107.142 -108262.5 144035.714 -108119.642 143964.285 -108048.214 143821.428 -107976.785 143535.714 -107905.357 143392.857 -107833.928 143321.428 -107762.5 143250 -107619.642 143250 -107476.785 143321.428 -107333.928 143392.857 -107262.5 143535.714 -107191.071 143892.857 -107191.071 144107.142 -107262.5 M 144535.714 -107191.071 145392.857 -107191.071 M 144964.285 -108691.071 144964.285 -107191.071 M 145892.857 -107905.357 146392.857 -107905.357 M 146607.142 -108691.071 145892.857 -108691.071 145892.857 -107191.071 146607.142 -107191.071 M 147250 -108691.071 147250 -107191.071 147821.428 -107191.071 147964.285 -107262.5 148035.714 -107333.928 148107.142 -107476.785 148107.142 -107691.071 148035.714 -107833.928 147964.285 -107905.357 147821.428 -107976.785 147250 -107976.785 M 148750 -108691.071 148750 -107191.071 149321.428 -107191.071 149464.285 -107262.5 149535.714 -107333.928 149607.142 -107476.785 149607.142 -107691.071 149535.714 -107833.928 149464.285 -107905.357 149321.428 -107976.785 148750 -107976.785 M 150250 -107905.357 150750 -107905.357 M 150964.285 -108691.071 150250 -108691.071 150250 -107191.071 150964.285 -107191.071 M 152464.285 -108691.071 151964.285 -107976.785 M 151607.142 -108691.071 151607.142 -107191.071 152178.571 -107191.071 152321.428 -107262.5 152392.857 -107333.928 152464.285 -107476.785 152464.285 -107691.071 152392.857 -107833.928 152321.428 -107905.357 152178.571 -107976.785 151607.142 -107976.785 M 153107.142 -108119.642 154250 -108119.642 M 154964.285 -108691.071 154964.285 -107191.071 155321.428 -107191.071 155535.714 -107262.5 155678.571 -107405.357 155750 -107548.214 155821.428 -107833.928 155821.428 -108048.214 155750 -108333.928 155678.571 -108476.785 155535.714 -108619.642 155321.428 -108691.071 154964.285 -108691.071 M 157321.428 -108691.071 156821.428 -107976.785 M 156464.285 -108691.071 156464.285 -107191.071 157035.714 -107191.071 157178.571 -107262.5 157250 -107333.928 157321.428 -107476.785 157321.428 -107691.071 157250 -107833.928 157178.571 -107905.357 157035.714 -107976.785 156464.285 -107976.785 M 157964.285 -108691.071 157964.285 -107191.071 M 158464.285 -107191.071 158964.285 -108691.071 159464.285 -107191.071 M 159964.285 -107905.357 160464.285 -107905.357 M 160678.571 -108691.071 159964.285 -108691.071 159964.285 -107191.071 160678.571 -107191.071 M 162178.571 -108691.071 161678.571 -107976.785 M 161321.428 -108691.071 161321.428 -107191.071 161892.857 -107191.071 162035.714 -107262.5 162107.142 -107333.928 162178.571 -107476.785 162178.571 -107691.071 162107.142 -107833.928 162035.714 -107905.357 161892.857 -107976.785 161321.428 -107976.785 M 162821.428 -108119.642 163964.285 -108119.642 M 165535.714 -108548.214 165464.285 -108619.642 165250 -108691.071 165107.142 -108691.071 164892.857 -108619.642 164750 -108476.785 164678.571 -108333.928 164607.142 -108048.214 164607.142 -107833.928 164678.571 -107548.214 164750 -107405.357 164892.857 -107262.5 165107.142 -107191.071 165250 -107191.071 165464.285 -107262.5 165535.714 -107333.928 M 166107.142 -108262.5 166821.428 -108262.5 M 165964.285 -108691.071 166464.285 -107191.071 166964.285 -108691.071 M 168321.428 -108691.071 167821.428 -107976.785 M 167464.285 -108691.071 167464.285 -107191.071 168035.714 -107191.071 168178.571 -107262.5 168250 -107333.928 168321.428 -107476.785 168321.428 -107691.071 168250 -107833.928 168178.571 -107905.357 168035.714 -107976.785 167464.285 -107976.785 M 168964.285 -108691.071 168964.285 -107191.071 169321.428 -107191.071 169535.714 -107262.5 169678.571 -107405.357 169750 -107548.214 169821.428 -107833.928 169821.428 -108048.214 169750 -108333.928 169678.571 -108476.785 169535.714 -108619.642 169321.428 -108691.071 168964.285 -108691.071 M 172464.285 -108691.071 171964.285 -107976.785 M 171607.142 -108691.071 171607.142 -107191.071 172178.571 -107191.071 172321.428 -107262.5 172392.857 -107333.928 172464.285 -107476.785 172464.285 -107691.071 172392.857 -107833.928 172321.428 -107905.357 172178.571 -107976.785 171607.142 -107976.785 M 173107.142 -107905.357 173607.142 -107905.357 M 173821.428 -108691.071 173107.142 -108691.071 173107.142 -107191.071 173821.428 -107191.071 M 174250 -107191.071 174750 -108691.071 175250 -107191.071 M 176821.428 -108262.5 177535.714 -108262.5 M 176678.571 -108691.071 177178.571 -107191.071 177678.571 -108691.071 M 148928.571 -110320.357 149428.571 -110320.357 M 149642.857 -111106.071 148928.571 -111106.071 148928.571 -109606.071 149642.857 -109606.071 M 151000 -111106.071 150285.714 -111106.071 150285.714 -109606.071 M 152214.285 -111106.071 151500 -111106.071 151500 -109606.071 M 152714.285 -111106.071 152714.285 -109606.071 M 153714.285 -109606.071 154000 -109606.071 154142.857 -109677.5 154285.714 -109820.357 154357.142 -110106.071 154357.142 -110606.071 154285.714 -110891.785 154142.857 -111034.642 154000 -111106.071 153714.285 -111106.071 153571.428 -111034.642 153428.571 -110891.785 153357.142 -110606.071 153357.142 -110106.071 153428.571 -109820.357 153571.428 -109677.5 153714.285 -109606.071 M 154785.714 -109606.071 155642.857 -109606.071 M 155214.285 -111106.071 155214.285 -109606.071 M 157285.714 -110320.357 157785.714 -110320.357 M 158000 -111106.071 157285.714 -111106.071 157285.714 -109606.071 158000 -109606.071 M 158642.857 -111106.071 158642.857 -109606.071 M 160214.285 -110963.214 160142.857 -111034.642 159928.571 -111106.071 159785.714 -111106.071 159571.428 -111034.642 159428.571 -110891.785 159357.142 -110748.928 159285.714 -110463.214 159285.714 -110248.928 159357.142 -109963.214 159428.571 -109820.357 159571.428 -109677.5 159785.714 -109606.071 159928.571 -109606.071 160142.857 -109677.5 160214.285 -109748.928 M 160857.142 -111106.071 160857.142 -109606.071 M 161714.285 -111106.071 161071.428 -110248.928 M 161714.285 -109606.071 160857.142 -110463.214 M 162357.142 -111106.071 162357.142 -109606.071 M 162357.142 -110320.357 163214.285 -110320.357 M 163214.285 -111106.071 163214.285 -109606.071 M 164214.285 -109606.071 164500 -109606.071 164642.857 -109677.5 164785.714 -109820.357 164857.142 -110106.071 164857.142 -110606.071 164785.714 -110891.785 164642.857 -111034.642 164500 -111106.071 164214.285 -111106.071 164071.428 -111034.642 163928.571 -110891.785 163857.142 -110606.071 163857.142 -110106.071 163928.571 -109820.357 164071.428 -109677.5 164214.285 -109606.071 M 166214.285 -111106.071 165500 -111106.071 165500 -109606.071 M 166500 -109606.071 167357.142 -109606.071 M 166928.571 -111106.071 166928.571 -109606.071 M 167714.285 -109606.071 168714.285 -109606.071 167714.285 -111106.071 168714.285 -111106.071" fill="none" stroke-width="300"/><path d="M 134046.933 -96623.142 133999.314 -96670.761 133856.457 -96718.38 133761.219 -96718.38 133618.361 -96670.761 133523.123 -96575.523 133475.504 -96480.285 133427.885 -96289.809 133427.885 -96146.952 133475.504 -95956.476 133523.123 -95861.238 133618.361 -95766 133761.219 -95718.38 133856.457 -95718.38 133999.314 -95766 134046.933 -95813.619 M 134904.076 -95718.38 134713.6 -95718.38 134618.361 -95766 134570.742 -95813.619 134475.504 -95956.476 134427.885 -96146.952 134427.885 -96527.904 134475.504 -96623.142 134523.123 -96670.761 134618.361 -96718.38 134808.838 -96718.38 134904.076 -96670.761 134951.695 -96623.142 134999.314 -96527.904 134999.314 -96289.809 134951.695 -96194.571 134904.076 -96146.952 134808.838 -96099.333 134618.361 -96099.333 134523.123 -96146.952 134475.504 -96194.571 134427.885 -96289.809 M 195295.714 -81736.666 195771.904 -81736.666 M 195200.476 -82022.38 195533.809 -81022.38 195867.142 -82022.38 M 196343.333 -81450.952 196248.095 -81403.333 196200.476 -81355.714 196152.857 -81260.476 196152.857 -81212.857 196200.476 -81117.619 196248.095 -81070 196343.333 -81022.38 196533.809 -81022.38 196629.047 -81070 196676.666 -81117.619 196724.285 -81212.857 196724.285 -81260.476 196676.666 -81355.714 196629.047 -81403.333 196533.809 -81450.952 196343.333 -81450.952 196248.095 -81498.571 196200.476 -81546.19 196152.857 -81641.428 196152.857 -81831.904 196200.476 -81927.142 196248.095 -81974.761 196343.333 -82022.38 196533.809 -82022.38 196629.047 -81974.761 196676.666 -81927.142 196724.285 -81831.904 196724.285 -81641.428 196676.666 -81546.19 196629.047 -81498.571 196533.809 -81450.952 M 170629.046 -81736.666 171105.236 -81736.666 M 170533.808 -82022.38 170867.141 -81022.38 171200.474 -82022.38 M 171438.57 -81022.38 172105.236 -81022.38 171676.665 -82022.38 M 170629.046 -50736.666 171105.236 -50736.666 M 170533.808 -51022.38 170867.141 -50022.38 171200.474 -51022.38 M 171438.57 -50022.38 172057.617 -50022.38 171724.284 -50403.333 171867.141 -50403.333 171962.379 -50450.952 172009.998 -50498.571 172057.617 -50593.809 172057.617 -50831.904 172009.998 -50927.142 171962.379 -50974.761 171867.141 -51022.38 171581.427 -51022.38 171486.189 -50974.761 171438.57 -50927.142 M 111680.666 -83746.38 111680.666 -84460.666 111633.047 -84603.523 111537.809 -84698.761 111394.952 -84746.38 111299.714 -84746.38 M 112585.428 -83746.38 112394.952 -83746.38 112299.714 -83794 112252.095 -83841.619 112156.857 -83984.476 112109.238 -84174.952 112109.238 -84555.904 112156.857 -84651.142 112204.476 -84698.761 112299.714 -84746.38 112490.19 -84746.38 112585.428 -84698.761 112633.047 -84651.142 112680.666 -84555.904 112680.666 -84317.809 112633.047 -84222.571 112585.428 -84174.952 112490.19 -84127.333 112299.714 -84127.333 112204.476 -84174.952 112156.857 -84222.571 112109.238 -84317.809 M 145962.38 -50736.666 146438.57 -50736.666 M 145867.142 -51022.38 146200.475 -50022.38 146533.808 -51022.38 M 146819.523 -50117.619 146867.142 -50070 146962.38 -50022.38 147200.475 -50022.38 147295.713 -50070 147343.332 -50117.619 147390.951 -50212.857 147390.951 -50308.095 147343.332 -50450.952 146771.904 -51022.38 147390.951 -51022.38 M 158634.133 -96419.942 158586.514 -96467.561 158443.657 -96515.18 158348.419 -96515.18 158205.561 -96467.561 158110.323 -96372.323 158062.704 -96277.085 158015.085 -96086.609 158015.085 -95943.752 158062.704 -95753.276 158110.323 -95658.038 158205.561 -95562.8 158348.419 -95515.18 158443.657 -95515.18 158586.514 -95562.8 158634.133 -95610.419 M 158967.466 -95515.18 159634.133 -95515.18 159205.561 -96515.18 M 144559.999 -77847.142 144512.38 -77894.761 144369.523 -77942.38 144274.285 -77942.38 144131.427 -77894.761 144036.189 -77799.523 143988.57 -77704.285 143940.951 -77513.809 143940.951 -77370.952 143988.57 -77180.476 144036.189 -77085.238 144131.427 -76990 144274.285 -76942.38 144369.523 -76942.38 144512.38 -76990 144559.999 -77037.619 M 144940.951 -77037.619 144988.57 -76990 145083.808 -76942.38 145321.904 -76942.38 145417.142 -76990 145464.761 -77037.619 145512.38 -77132.857 145512.38 -77228.095 145464.761 -77370.952 144893.332 -77942.38 145512.38 -77942.38 M 121295.714 -50736.666 121771.904 -50736.666 M 121200.476 -51022.38 121533.809 -50022.38 121867.142 -51022.38 M 122724.285 -51022.38 122152.857 -51022.38 M 122438.571 -51022.38 122438.571 -50022.38 122343.333 -50165.238 122248.095 -50260.476 122152.857 -50308.095 M 119803.333 -108287.142 119755.714 -108334.761 119612.857 -108382.38 119517.619 -108382.38 119374.761 -108334.761 119279.523 -108239.523 119231.904 -108144.285 119184.285 -107953.809 119184.285 -107810.952 119231.904 -107620.476 119279.523 -107525.238 119374.761 -107430 119517.619 -107382.38 119612.857 -107382.38 119755.714 -107430 119803.333 -107477.619 M 120708.095 -107382.38 120231.904 -107382.38 120184.285 -107858.571 120231.904 -107810.952 120327.142 -107763.333 120565.238 -107763.333 120660.476 -107810.952 120708.095 -107858.571 120755.714 -107953.809 120755.714 -108191.904 120708.095 -108287.142 120660.476 -108334.761 120565.238 -108382.38 120327.142 -108382.38 120231.904 -108334.761 120184.285 -108287.142 M 185594.666 -83746.38 185594.666 -84460.666 185547.047 -84603.523 185451.809 -84698.761 185308.952 -84746.38 185213.714 -84746.38 M 186118.476 -84746.38 186308.952 -84746.38 186404.19 -84698.761 186451.809 -84651.142 186547.047 -84508.285 186594.666 -84317.809 186594.666 -83936.857 186547.047 -83841.619 186499.428 -83794 186404.19 -83746.38 186213.714 -83746.38 186118.476 -83794 186070.857 -83841.619 186023.238 -83936.857 186023.238 -84174.952 186070.857 -84270.19 186118.476 -84317.809 186213.714 -84365.428 186404.19 -84365.428 186499.428 -84317.809 186547.047 -84270.19 186594.666 -84174.952 M 160956.666 -83746.38 160956.666 -84460.666 160909.047 -84603.523 160813.809 -84698.761 160670.952 -84746.38 160575.714 -84746.38 M 161575.714 -84174.952 161480.476 -84127.333 161432.857 -84079.714 161385.238 -83984.476 161385.238 -83936.857 161432.857 -83841.619 161480.476 -83794 161575.714 -83746.38 161766.19 -83746.38 161861.428 -83794 161909.047 -83841.619 161956.666 -83936.857 161956.666 -83984.476 161909.047 -84079.714 161861.428 -84127.333 161766.19 -84174.952 161575.714 -84174.952 161480.476 -84222.571 161432.857 -84270.19 161385.238 -84365.428 161385.238 -84555.904 161432.857 -84651.142 161480.476 -84698.761 161575.714 -84746.38 161766.19 -84746.38 161861.428 -84698.761 161909.047 -84651.142 161956.666 -84555.904 161956.666 -84365.428 161909.047 -84270.19 161861.428 -84222.571 161766.19 -84174.952 M 111680.666 -55298.38 111680.666 -56012.666 111633.047 -56155.523 111537.809 -56250.761 111394.952 -56298.38 111299.714 -56298.38 M 112109.238 -55393.619 112156.857 -55346 112252.095 -55298.38 112490.19 -55298.38 112585.428 -55346 112633.047 -55393.619 112680.666 -55488.857 112680.666 -55584.095 112633.047 -55726.952 112061.619 -56298.38 112680.666 -56298.38 M 120503.333 -77467.142 120455.714 -77514.761 120312.857 -77562.38 120217.619 -77562.38 120074.761 -77514.761 119979.523 -77419.523 119931.904 -77324.285 119884.285 -77133.809 119884.285 -76990.952 119931.904 -76800.476 119979.523 -76705.238 120074.761 -76610 120217.619 -76562.38 120312.857 -76562.38 120455.714 -76610 120503.333 -76657.619 M 121455.714 -77562.38 120884.285 -77562.38 M 121170 -77562.38 121170 -76562.38 121074.761 -76705.238 120979.523 -76800.476 120884.285 -76848.095 M 145962.38 -81736.666 146438.57 -81736.666 M 145867.142 -82022.38 146200.475 -81022.38 146533.808 -82022.38 M 147295.713 -81022.38 147105.237 -81022.38 147009.999 -81070 146962.38 -81117.619 146867.142 -81260.476 146819.523 -81450.952 146819.523 -81831.904 146867.142 -81927.142 146914.761 -81974.761 147009.999 -82022.38 147200.475 -82022.38 147295.713 -81974.761 147343.332 -81927.142 147390.951 -81831.904 147390.951 -81593.809 147343.332 -81498.571 147295.713 -81450.952 147200.475 -81403.333 147009.999 -81403.333 146914.761 -81450.952 146867.142 -81498.571 146819.523 -81593.809 M 185594.666 -55298.38 185594.666 -56012.666 185547.047 -56155.523 185451.809 -56250.761 185308.952 -56298.38 185213.714 -56298.38 M 186547.047 -55298.38 186070.857 -55298.38 186023.238 -55774.571 186070.857 -55726.952 186166.095 -55679.333 186404.19 -55679.333 186499.428 -55726.952 186547.047 -55774.571 186594.666 -55869.809 186594.666 -56107.904 186547.047 -56203.142 186499.428 -56250.761 186404.19 -56298.38 186166.095 -56298.38 186070.857 -56250.761 186023.238 -56203.142 M 136318.666 -55298.38 136318.666 -56012.666 136271.047 -56155.523 136175.809 -56250.761 136032.952 -56298.38 135937.714 -56298.38 M 136699.619 -55298.38 137318.666 -55298.38 136985.333 -55679.333 137128.19 -55679.333 137223.428 -55726.952 137271.047 -55774.571 137318.666 -55869.809 137318.666 -56107.904 137271.047 -56203.142 137223.428 -56250.761 137128.19 -56298.38 136842.476 -56298.38 136747.238 -56250.761 136699.619 -56203.142 M 195295.714 -50736.666 195771.904 -50736.666 M 195200.476 -51022.38 195533.809 -50022.38 195867.142 -51022.38 M 196629.047 -50355.714 196629.047 -51022.38 M 196390.952 -49974.761 196152.857 -50689.047 196771.904 -50689.047 M 193893.333 -77807.142 193845.714 -77854.761 193702.857 -77902.38 193607.619 -77902.38 193464.761 -77854.761 193369.523 -77759.523 193321.904 -77664.285 193274.285 -77473.809 193274.285 -77330.952 193321.904 -77140.476 193369.523 -77045.238 193464.761 -76950 193607.619 -76902.38 193702.857 -76902.38 193845.714 -76950 193893.333 -76997.619 M 194750.476 -77235.714 194750.476 -77902.38 M 194512.38 -76854.761 194274.285 -77569.047 194893.333 -77569.047 M 136318.666 -83746.38 136318.666 -84460.666 136271.047 -84603.523 136175.809 -84698.761 136032.952 -84746.38 135937.714 -84746.38 M 136699.619 -83746.38 137366.285 -83746.38 136937.714 -84746.38 M 183856.333 -96750.142 183808.714 -96797.761 183665.857 -96845.38 183570.619 -96845.38 183427.761 -96797.761 183332.523 -96702.523 183284.904 -96607.285 183237.285 -96416.809 183237.285 -96273.952 183284.904 -96083.476 183332.523 -95988.238 183427.761 -95893 183570.619 -95845.38 183665.857 -95845.38 183808.714 -95893 183856.333 -95940.619 M 184427.761 -96273.952 184332.523 -96226.333 184284.904 -96178.714 184237.285 -96083.476 184237.285 -96035.857 184284.904 -95940.619 184332.523 -95893 184427.761 -95845.38 184618.238 -95845.38 184713.476 -95893 184761.095 -95940.619 184808.714 -96035.857 184808.714 -96083.476 184761.095 -96178.714 184713.476 -96226.333 184618.238 -96273.952 184427.761 -96273.952 184332.523 -96321.571 184284.904 -96369.19 184237.285 -96464.428 184237.285 -96654.904 184284.904 -96750.142 184332.523 -96797.761 184427.761 -96845.38 184618.238 -96845.38 184713.476 -96797.761 184761.095 -96750.142 184808.714 -96654.904 184808.714 -96464.428 184761.095 -96369.19 184713.476 -96321.571 184618.238 -96273.952 M 160956.666 -55298.38 160956.666 -56012.666 160909.047 -56155.523 160813.809 -56250.761 160670.952 -56298.38 160575.714 -56298.38 M 161861.428 -55631.714 161861.428 -56298.38 M 161623.333 -55250.761 161385.238 -55965.047 162004.285 -55965.047 M 169226.665 -77894.763 169179.046 -77942.382 169036.189 -77990.001 168940.951 -77990.001 168798.093 -77942.382 168702.855 -77847.144 168655.236 -77751.906 168607.617 -77561.43 168607.617 -77418.573 168655.236 -77228.097 168702.855 -77132.859 168798.093 -77037.621 168940.951 -76990.001 169036.189 -76990.001 169179.046 -77037.621 169226.665 -77085.24 M 169559.998 -76990.001 170179.046 -76990.001 169845.712 -77370.954 169988.57 -77370.954 170083.808 -77418.573 170131.427 -77466.192 170179.046 -77561.43 170179.046 -77799.525 170131.427 -77894.763 170083.808 -77942.382 169988.57 -77990.001 169702.855 -77990.001 169607.617 -77942.382 169559.998 -77894.763 M 121295.714 -81736.666 121771.904 -81736.666 M 121200.476 -82022.38 121533.809 -81022.38 121867.142 -82022.38 M 122676.666 -81022.38 122200.476 -81022.38 122152.857 -81498.571 122200.476 -81450.952 122295.714 -81403.333 122533.809 -81403.333 122629.047 -81450.952 122676.666 -81498.571 122724.285 -81593.809 122724.285 -81831.904 122676.666 -81927.142 122629.047 -81974.761 122533.809 -82022.38 122295.714 -82022.38 122200.476 -81974.761 122152.857 -81927.142" fill="none" stroke-width="150"/><path d="M 135290 -98681.38 136798 -98681.38 M 131534 -98921.38 133210 -98921.38 M 131416 -99121.38 133210 -99121.38 M 131702 -98681.38 133210 -98681.38 M 135290 -98761.38 136857 -98761.38 M 135290 -100042.38 137417 -100042.38 M 133191 -97601.38 135309 -97601.38 M 135290 -98601.38 136734 -98601.38 M 131298 -99361.38 133210 -99361.38 M 135290 -98841.38 136914 -98841.38 M 133085 -97641.38 135415 -97641.38 M 135290 -99281.38 137166 -99281.38 M 135290 -98561.38 136700 -98561.38 M 135290 -100402.38 137468 -100402.38 M 135290 -98801.38 136886 -98801.38 M 131734 -98641.38 133210 -98641.38 M 133617 -97481.38 134883 -97481.38 M 131061 -100162.38 133210 -100162.38 M 131614 -98801.38 133210 -98801.38 M 131438 -99081.38 133210 -99081.38 M 131354 -99241.38 133210 -99241.38 M 135290 -99801.38 137360 -99801.38 M 131870 -98481.38 133210 -98481.38 M 131316 -99321.38 133210 -99321.38 M 133310 -97561.38 135190 -97561.38 M 135290 -99881.38 137381 -99881.38 M 131068 -100122.38 133210 -100122.38 M 132113 -98241.38 136387 -98241.38 M 131484 -99001.38 133210 -99001.38 M 132306 -98081.38 136194 -98081.38 M 132360 -98041.38 136140 -98041.38 M 131049 -100242.38 133210 -100242.38 M 131028 -100442.38 133210 -100442.38 M 131248 -99481.38 133210 -99481.38 M 131586 -98841.38 133210 -98841.38 M 132600 -97881.38 135900 -97881.38 M 135290 -99681.38 137324 -99681.38 M 131129 -99841.38 133210 -99841.38 M 135290 -98881.38 136940 -98881.38 M 132900 -97721.38 135600 -97721.38 M 131280 -99401.38 133210 -99401.38 M 135290 -100202.38 137445 -100202.38 M 135290 -99081.38 137062 -99081.38 M 131374 -99201.38 133210 -99201.38 M 131020 -100642.38 137480 -100642.38 M 131264 -99441.38 133210 -99441.38 M 132669 -97841.38 135831 -97841.38 M 131055 -100202.38 133210 -100202.38 M 135290 -98641.38 136766 -98641.38 M 135290 -99521.38 137268 -99521.38 M 135290 -98921.38 136966 -98921.38 M 131834 -98521.38 133210 -98521.38 M 131023 -100522.38 137477 -100522.38 M 131176 -99681.38 133210 -99681.38 M 132255 -98121.38 136245 -98121.38 M 131189 -99641.38 133210 -99641.38 M 135290 -100442.38 137472 -100442.38 M 135290 -100002.38 137409 -100002.38 M 131945 -98401.38 133210 -98401.38 M 132988 -97681.38 135512 -97681.38 M 135290 -99401.38 137220 -99401.38 M 135290 -99641.38 137311 -99641.38 M 131164 -99721.38 133210 -99721.38 M 131032 -100402.38 133210 -100402.38 M 132416 -98001.38 136084 -98001.38 M 132026 -98321.38 136474 -98321.38 M 131560 -98881.38 133210 -98881.38 M 132818 -97761.38 135682 -97761.38 M 135290 -98721.38 136828 -98721.38 M 131100 -99961.38 133210 -99961.38 M 135290 -99601.38 137297 -99601.38 M 135290 -99721.38 137336 -99721.38 M 135290 -99161.38 137106 -99161.38 M 131109 -99921.38 133210 -99921.38 M 132096 -103867.621 132726 -103867.621 M 135290 -98481.38 136630 -98481.38 M 131766 -98601.38 133210 -98601.38 M 135290 -99761.38 137348 -99761.38 M 131232 -99521.38 133210 -99521.38 M 131152 -99761.38 133210 -99761.38 M 135290 -98401.38 136555 -98401.38 M 135290 -99481.38 137252 -99481.38 M 135290 -99361.38 137202 -99361.38 M 132206 -98161.38 136294 -98161.38 M 135290 -100242.38 137451 -100242.38 M 135290 -98961.38 136992 -98961.38 M 135290 -100322.38 137461 -100322.38 M 131643 -98761.38 133210 -98761.38 M 131985 -98361.38 136515 -98361.38 M 135290 -99201.38 137126 -99201.38 M 131035 -100362.38 133210 -100362.38 M 131217 -99561.38 133210 -99561.38 M 135290 -100362.38 137465 -100362.38 M 131672 -98721.38 133210 -98721.38 M 131020 -100602.38 137480 -100602.38 M 135290 -99841.38 137371 -99841.38 M 135290 -99121.38 137084 -99121.38 M 135290 -98441.38 136593 -98441.38 M 135290 -98521.38 136666 -98521.38 M 131091 -100002.38 133210 -100002.38 M 135290 -100162.38 137439 -100162.38 M 135290 -99001.38 137016 -99001.38 M 131075 -100082.38 133210 -100082.38 M 135290 -99321.38 137184 -99321.38 M 131334 -99281.38 133210 -99281.38 M 132741 -97801.38 135759 -97801.38 M 131460 -99041.38 133210 -99041.38 M 131020 -100682.38 137480 -100682.38 M 135290 -99041.38 137040 -99041.38 M 131203 -99601.38 133210 -99601.38 M 131026 -100482.38 137474 -100482.38 M 131083 -100042.38 133210 -100042.38 M 132068 -98281.38 136432 -98281.38 M 131044 -100282.38 133210 -100282.38 M 131394 -99161.38 133210 -99161.38 M 135290 -100122.38 137432 -100122.38 M 132411 -104182.621 132411 -103552.621 M 135290 -99961.38 137400 -99961.38 M 131119 -99881.38 133210 -99881.38 M 135290 -99441.38 137236 -99441.38 M 132536 -97921.38 135964 -97921.38 M 132158 -98201.38 136342 -98201.38 M 135290 -99561.38 137283 -99561.38 M 131508 -98961.38 133210 -98961.38 M 131140 -99801.38 133210 -99801.38 M 132474 -97961.38 136026 -97961.38 M 131800 -98561.38 133210 -98561.38 M 131907 -98441.38 133210 -98441.38 M 135290 -99921.38 137391 -99921.38 M 135290 -100282.38 137456 -100282.38 M 131039 -100322.38 133210 -100322.38 M 133848 -97441.38 134652 -97441.38 M 135290 -100082.38 137425 -100082.38 M 131022 -100562.38 137478 -100562.38 M 135290 -99241.38 137146 -99241.38 M 133448 -97521.38 135052 -97521.38 M 137520 -100682.38 A 3270 3270 0 0 1 130980 -100682.38 3270 3270 0 0 1 137520 -100682.38 M 203760 -82710 190930 -82710 190930 -85380 188260 -85380 M 189660 -82710 188260 -82710 188260 -84110 M 201090 -82710 201090 -103290 M 188260 -103290 203760 -103290 M 188260 -85380 188260 -103290 M 190930 -85380 190930 -103290 M 203760 -103290 203760 -82710 M 166263.332 -85380 166263.332 -103290 M 166263.332 -82710 166263.332 -85380 163593.332 -85380 M 163593.332 -82710 163593.332 -84110 M 179093.332 -82710 166263.332 -82710 M 164993.332 -82710 163593.332 -82710 M 176423.332 -82710 176423.332 -103290 M 163593.332 -85380 163593.332 -103290 M 179093.332 -103290 179093.332 -82710 M 163593.332 -103290 179093.332 -103290 M 166263.332 -54380 166263.332 -72290 M 163593.332 -54380 163593.332 -72290 M 176423.332 -51710 176423.332 -72290 M 179093.332 -72290 179093.332 -51710 M 166263.332 -51710 166263.332 -54380 M 163593.332 -72290 179093.332 -72290 M 166263.332 -54380 163593.332 -54380 M 164993.332 -51710 163593.332 -51710 M 179093.332 -51710 166263.332 -51710 M 163593.332 -51710 163593.332 -53110 M 110684 -95574 113344 -95574 M 110684 -85294 112014 -85294 M 110684 -86624 110684 -85294 M 113344 -87894 113344 -95574 M 110684 -87894 110684 -95574 M 110684 -87894 113344 -87894 M 140326.666 -51710 138926.666 -51710 M 151756.666 -51710 151756.666 -72290 M 154426.666 -72290 154426.666 -51710 141596.666 -51710 M 141596.666 -54380 141596.666 -72290 M 141596.666 -51710 141596.666 -54380 138926.666 -54380 138926.666 -72290 M 138926.666 -51710 138926.666 -53110 M 138926.666 -72290 154426.666 -72290 M 156258 -98961.38 157960 -98961.38 M 156124 -99201.38 157960 -99201.38 M 155772 -100562.38 162228 -100562.38 M 160040 -100362.38 162215 -100362.38 M 160040 -98641.38 161516 -98641.38 M 160040 -100202.38 162195 -100202.38 M 158198 -97521.38 159802 -97521.38 M 160040 -99601.38 162047 -99601.38 M 155953 -99601.38 157960 -99601.38 M 156695 -98401.38 157960 -98401.38 M 155782 -100402.38 157960 -100402.38 M 155879 -99841.38 157960 -99841.38 M 160040 -98521.38 161416 -98521.38 M 155770 -100642.38 162230 -100642.38 M 157568 -97761.38 160432 -97761.38 M 156818 -98281.38 161182 -98281.38 M 156084 -99281.38 157960 -99281.38 M 156048 -99361.38 157960 -99361.38 M 156452 -98681.38 157960 -98681.38 M 156956 -98161.38 161044 -98161.38 M 160040 -98681.38 161548 -98681.38 M 155859 -99921.38 157960 -99921.38 M 160040 -99401.38 161970 -99401.38 M 156584 -98521.38 157960 -98521.38 M 160040 -99121.38 161834 -99121.38 M 156735 -98361.38 161265 -98361.38 M 160040 -100442.38 162222 -100442.38 M 160040 -99881.38 162131 -99881.38 M 156210 -99041.38 157960 -99041.38 M 160040 -99281.38 161916 -99281.38 M 160040 -99921.38 162141 -99921.38 M 160040 -99841.38 162121 -99841.38 M 156393 -98761.38 157960 -98761.38 M 160040 -99721.38 162086 -99721.38 M 160040 -99961.38 162150 -99961.38 M 155811 -100162.38 157960 -100162.38 M 160040 -100122.38 162182 -100122.38 M 156014 -99441.38 157960 -99441.38 M 158060 -97561.38 159940 -97561.38 M 155785 -100362.38 157960 -100362.38 M 157110 -98041.38 160890 -98041.38 M 160040 -100402.38 162218 -100402.38 M 155841 -100002.38 157960 -100002.38 M 160040 -99761.38 162098 -99761.38 M 156188 -99081.38 157960 -99081.38 M 157419 -97841.38 160581 -97841.38 M 160040 -99241.38 161896 -99241.38 M 156846 -103867.621 157476 -103867.621 M 155789 -100322.38 157960 -100322.38 M 156066 -99321.38 157960 -99321.38 M 157056 -98081.38 160944 -98081.38 M 160040 -98841.38 161664 -98841.38 M 160040 -99441.38 161986 -99441.38 M 160040 -99561.38 162033 -99561.38 M 160040 -98401.38 161305 -98401.38 M 155825 -100082.38 157960 -100082.38 M 155902 -99761.38 157960 -99761.38 M 160040 -100082.38 162175 -100082.38 M 160040 -99321.38 161934 -99321.38 M 157161 -104182.621 157161 -103552.621 M 155776 -100482.38 162224 -100482.38 M 155967 -99561.38 157960 -99561.38 M 160040 -100042.38 162167 -100042.38 M 160040 -99201.38 161876 -99201.38 M 160040 -98721.38 161578 -98721.38 M 157491 -97801.38 160509 -97801.38 M 157286 -97921.38 160714 -97921.38 M 160040 -98481.38 161380 -98481.38 M 156336 -98841.38 157960 -98841.38 M 160040 -99001.38 161766 -99001.38 M 156166 -99121.38 157960 -99121.38 M 158598 -97441.38 159402 -97441.38 M 160040 -99161.38 161856 -99161.38 M 157650 -97721.38 160350 -97721.38 M 155869 -99881.38 157960 -99881.38 M 156620 -98481.38 157960 -98481.38 M 156422 -98721.38 157960 -98721.38 M 160040 -99681.38 162074 -99681.38 M 156030 -99401.38 157960 -99401.38 M 160040 -98921.38 161716 -98921.38 M 160040 -100322.38 162211 -100322.38 M 157005 -98121.38 160995 -98121.38 M 156516 -98601.38 157960 -98601.38 M 155773 -100522.38 162227 -100522.38 M 156364 -98801.38 157960 -98801.38 M 160040 -99041.38 161790 -99041.38 M 155799 -100242.38 157960 -100242.38 M 160040 -99081.38 161812 -99081.38 M 156550 -98561.38 157960 -98561.38 M 160040 -99641.38 162061 -99641.38 M 155778 -100442.38 157960 -100442.38 M 155818 -100122.38 157960 -100122.38 M 155805 -100202.38 157960 -100202.38 M 156484 -98641.38 157960 -98641.38 M 156657 -98441.38 157960 -98441.38 M 155982 -99521.38 157960 -99521.38 M 160040 -100162.38 162189 -100162.38 M 158367 -97481.38 159633 -97481.38 M 156284 -98921.38 157960 -98921.38 M 156104 -99241.38 157960 -99241.38 M 155794 -100282.38 157960 -100282.38 M 157738 -97681.38 160262 -97681.38 M 156310 -98881.38 157960 -98881.38 M 155850 -99961.38 157960 -99961.38 M 157941 -97601.38 160059 -97601.38 M 157835 -97641.38 160165 -97641.38 M 156234 -99001.38 157960 -99001.38 M 160040 -98441.38 161343 -98441.38 M 160040 -98601.38 161484 -98601.38 M 160040 -98881.38 161690 -98881.38 M 155998 -99481.38 157960 -99481.38 M 160040 -98961.38 161742 -98961.38 M 160040 -99801.38 162110 -99801.38 M 160040 -99481.38 162002 -99481.38 M 156776 -98321.38 161224 -98321.38 M 156144 -99161.38 157960 -99161.38 M 155939 -99641.38 157960 -99641.38 M 160040 -98561.38 161450 -98561.38 M 160040 -99361.38 161952 -99361.38 M 155926 -99681.38 157960 -99681.38 M 157224 -97961.38 160776 -97961.38 M 160040 -98761.38 161607 -98761.38 M 160040 -99521.38 162018 -99521.38 M 156863 -98241.38 161137 -98241.38 M 155770 -100602.38 162230 -100602.38 M 160040 -100242.38 162201 -100242.38 M 157350 -97881.38 160650 -97881.38 M 160040 -100002.38 162159 -100002.38 M 155833 -100042.38 157960 -100042.38 M 160040 -100282.38 162206 -100282.38 M 155770 -100682.38 162230 -100682.38 M 157166 -98001.38 160834 -98001.38 M 156908 -98201.38 161092 -98201.38 M 160040 -98801.38 161636 -98801.38 M 155914 -99721.38 157960 -99721.38 M 155890 -99801.38 157960 -99801.38 M 162270 -100682.38 A 3270 3270 0 0 1 155730 -100682.38 3270 3270 0 0 1 162270 -100682.38 M 141676.666 -80451 138976.666 -80451 M 139286.666 -78371 137216.666 -78371 M 142508.666 -79891 138144.666 -79891 M 139286.666 -78291 137195.666 -78291 M 139286.666 -78851 137392.666 -78851 M 143424.666 -78411 141366.666 -78411 M 139286.666 -78811 137374.666 -78811 M 142990.666 -79331 141366.666 -79331 M 139286.666 -79571 137842.666 -79571 M 139286.666 -77930 137125.666 -77930 M 139286.666 -79131 137536.666 -79131 M 139286.666 -79091 137514.666 -79091 M 143493.666 -78130 141366.666 -78130 M 143457.666 -78291 141366.666 -78291 M 143476.666 -78211 141366.666 -78211 M 141758.666 -80411 138894.666 -80411 M 139286.666 -78090 137151.666 -78090 M 139286.666 -79331 137662.666 -79331 M 143359.666 -78611 141366.666 -78611 M 139286.666 -78931 137430.666 -78931 M 143501.666 -78090 141366.666 -78090 M 143527.666 -77930 141366.666 -77930 M 139286.666 -79051 137492.666 -79051 M 139286.666 -78050 137144.666 -78050 M 139286.666 -78010 137137.666 -78010 M 139286.666 -79451 137748.666 -79451 M 139286.666 -79491 137778.666 -79491 M 143202.666 -78971 141366.666 -78971 M 139286.666 -78571 137279.666 -78571 M 139286.666 -79531 137810.666 -79531 M 142874.666 -79491 141366.666 -79491 M 143138.666 -79091 141366.666 -79091 M 139286.666 -78531 137265.666 -78531 M 139286.666 -78411 137228.666 -78411 M 142160.666 -80171 138492.666 -80171 M 139286.666 -79731 137983.666 -79731 M 139286.666 -79371 137690.666 -79371 M 143532.666 -77890 141366.666 -77890 M 143260.666 -78851 141366.666 -78851 M 139286.666 -79171 137560.666 -79171 M 139286.666 -79651 137910.666 -79651 M 141835.666 -80371 138817.666 -80371 M 140728.666 -80731 139924.666 -80731 M 143544.666 -77770 141366.666 -77770 M 141588.666 -80491 139064.666 -80491 M 139286.666 -77890 137120.666 -77890 M 139286.666 -78130 137159.666 -78130 M 139286.666 -79691 137946.666 -79691 M 141907.666 -80331 138745.666 -80331 M 139286.666 -78491 137252.666 -78491 M 139286.666 -79011 137470.666 -79011 M 143160.666 -79051 141366.666 -79051 M 142631.666 -79771 141366.666 -79771 M 139286.666 -78971 137450.666 -78971 M 142321.666 -80051 138331.666 -80051 M 143042.666 -79251 141366.666 -79251 M 141128.666 -80651 139524.666 -80651 M 139286.666 -79211 137584.666 -79211 M 143515.666 -78010 141366.666 -78010 M 139286.666 -77730 137104.666 -77730 M 139286.666 -79771 138021.666 -79771 M 140959.666 -80691 139693.666 -80691 M 143068.666 -79211 141366.666 -79211 M 139286.666 -78651 137308.666 -78651 M 143436.666 -78371 141366.666 -78371 M 143373.666 -78571 141366.666 -78571 M 142776.666 -79611 141366.666 -79611 M 143222.666 -78931 141366.666 -78931 M 139286.666 -77810 137111.666 -77810 M 139286.666 -78771 137356.666 -78771 M 139286.666 -78731 137340.666 -78731 M 143116.666 -79131 141366.666 -79131 M 143242.666 -78891 141366.666 -78891 M 142591.666 -79811 138061.666 -79811 M 141976.666 -80291 138676.666 -80291 M 142933.666 -79411 141366.666 -79411 M 142270.666 -80091 138382.666 -80091 M 142102.666 -80211 138550.666 -80211 M 141385.666 -80571 139267.666 -80571 M 142463.666 -79931 138189.666 -79931 M 142040.666 -80251 138612.666 -80251 M 143278.666 -78811 141366.666 -78811 M 143556.666 -77570 137096.666 -77570 M 143467.666 -78251 141366.666 -78251 M 139286.666 -78611 137293.666 -78611 M 143554.666 -77610 137098.666 -77610 M 141266.666 -80611 139386.666 -80611 M 143485.666 -78170 141366.666 -78170 M 139286.666 -78331 137205.666 -78331 M 142165.666 -73989.759 142165.666 -74619.759 M 143387.666 -78531 141366.666 -78531 M 143548.666 -77730 141366.666 -77730 M 143016.666 -79291 141366.666 -79291 M 139286.666 -79611 137876.666 -79611 M 143537.666 -77850 141366.666 -77850 M 143400.666 -78491 141366.666 -78491 M 143182.666 -79011 141366.666 -79011 M 143550.666 -77690 137102.666 -77690 M 142370.666 -80011 138282.666 -80011 M 142669.666 -79731 141366.666 -79731 M 139286.666 -79291 137636.666 -79291 M 139286.666 -78170 137167.666 -78170 M 139286.666 -77770 137108.666 -77770 M 143328.666 -78691 141366.666 -78691 M 142216.666 -80131 138436.666 -80131 M 139286.666 -79251 137610.666 -79251 M 139286.666 -78251 137185.666 -78251 M 142742.666 -79651 141366.666 -79651 M 143541.666 -77810 141366.666 -77810 M 139286.666 -78211 137176.666 -78211 M 143521.666 -77970 141366.666 -77970 M 139286.666 -78451 137240.666 -78451 M 139286.666 -77970 137131.666 -77970 M 143092.666 -79171 141366.666 -79171 M 143553.666 -77650 137099.666 -77650 M 139286.666 -78891 137410.666 -78891 M 142480.666 -74304.759 141850.666 -74304.759 M 141491.666 -80531 139161.666 -80531 M 142550.666 -79851 138102.666 -79851 M 139286.666 -78691 137324.666 -78691 M 143412.666 -78451 141366.666 -78451 M 143312.666 -78731 141366.666 -78731 M 143344.666 -78651 141366.666 -78651 M 142810.666 -79571 141366.666 -79571 M 142962.666 -79371 141366.666 -79371 M 143556.666 -77530 137096.666 -77530 M 143296.666 -78771 141366.666 -78771 M 139286.666 -77850 137115.666 -77850 M 142418.666 -79971 138234.666 -79971 M 143447.666 -78331 141366.666 -78331 M 143556.666 -77490 137096.666 -77490 M 139286.666 -79411 137719.666 -79411 M 143508.666 -78050 141366.666 -78050 M 142904.666 -79451 141366.666 -79451 M 142706.666 -79691 141366.666 -79691 M 142842.666 -79531 141366.666 -79531 M 143596.666 -77490 A 3270 3270 0 0 1 137056.666 -77490 3270 3270 0 0 1 143596.666 -77490 M 114260 -54380 114260 -72290 M 115660 -51710 114260 -51710 M 116930 -54380 116930 -72290 M 127090 -51710 127090 -72290 M 114260 -72290 129760 -72290 M 116930 -51710 116930 -54380 114260 -54380 M 129760 -51710 116930 -51710 M 114260 -51710 114260 -53110 M 129760 -72290 129760 -51710 M 114530 -108570 112403 -108570 M 118404 -109491 116610 -109491 M 118771 -108370 116610 -108370 M 118759 -108450 116610 -108450 M 114530 -108170 112348 -108170 M 114530 -109131 112568 -109131 M 118668 -108851 116610 -108851 M 117404 -110611 113736 -110611 M 114530 -108290 112359 -108290 M 117986 -110091 116610 -110091 M 118286 -109691 116610 -109691 M 114530 -109771 112906 -109771 M 116203 -111131 114937 -111131 M 118260 -109731 116610 -109731 M 118729 -108610 116610 -108610 M 117614 -110451 113526 -110451 M 117794 -110291 113346 -110291 M 116629 -111011 114511 -111011 M 118556 -109171 116610 -109171 M 114530 -108330 112364 -108330 M 117409 -104429.759 117409 -105059.759 M 114530 -108691 112429 -108691 M 114530 -109331 112654 -109331 M 114530 -108450 112381 -108450 M 118781 -108290 116610 -108290 M 114530 -109731 112880 -109731 M 117875 -110211 116610 -110211 M 118792 -108170 116610 -108170 M 118446 -109411 116610 -109411 M 118148 -109891 116610 -109891 M 118745 -108530 116610 -108530 M 116372 -111091 114768 -111091 M 116510 -111051 114630 -111051 M 118701 -108731 116610 -108731 M 118800 -107970 112340 -107970 M 114530 -109651 112828 -109651 M 117002 -110851 114138 -110851 M 114530 -108530 112395 -108530 M 117346 -110651 113794 -110651 M 118336 -109611 116610 -109611 M 114530 -110011 113086 -110011 M 114530 -109291 112636 -109291 M 116832 -110931 114308 -110931 M 117565 -110491 113575 -110491 M 118382 -109531 116610 -109531 M 117220 -110731 113920 -110731 M 114530 -108610 112411 -108610 M 114530 -108891 112484 -108891 M 118776 -108330 116610 -108330 M 118466 -109371 116610 -109371 M 114530 -109811 112934 -109811 M 118540 -109211 116610 -109211 M 114530 -109091 112552 -109091 M 114530 -108651 112420 -108651 M 117514 -110531 113626 -110531 M 117950 -110131 116610 -110131 M 114530 -109851 112963 -109851 M 114530 -108370 112369 -108370 M 114530 -109611 112804 -109611 M 114530 -110051 113120 -110051 M 118617 -109011 116610 -109011 M 114530 -109531 112758 -109531 M 115972 -111171 115168 -111171 M 114530 -109251 112618 -109251 M 118177 -109851 116610 -109851 M 114530 -108971 112509 -108971 M 114530 -109931 113022 -109931 M 114530 -108490 112388 -108490 M 118800 -108010 112340 -108010 M 117284 -110691 113856 -110691 M 118785 -108250 116610 -108250 M 118020 -110051 116610 -110051 M 114530 -108210 112352 -108210 M 118234 -109771 116610 -109771 M 117835 -110251 113305 -110251 M 118086 -109971 116610 -109971 M 118656 -108891 116610 -108891 M 117752 -110331 113388 -110331 M 114530 -108410 112375 -108410 M 114530 -109451 112714 -109451 M 118118 -109931 116610 -109931 M 118752 -108490 116610 -108490 M 116735 -110971 114405 -110971 M 118644 -108931 116610 -108931 M 118206 -109811 116610 -109811 M 114530 -109051 112537 -109051 M 114530 -109411 112694 -109411 M 114530 -109211 112600 -109211 M 114530 -110211 113265 -110211 M 117662 -110411 113478 -110411 M 117913 -110171 116610 -110171 M 114530 -109011 112523 -109011 M 114530 -109491 112736 -109491 M 118800 -107930 112340 -107930 M 114530 -110171 113227 -110171 M 118720 -108651 116610 -108651 M 118504 -109291 116610 -109291 M 118680 -108811 116610 -108811 M 118360 -109571 116610 -109571 M 118631 -108971 116610 -108971 M 118798 -108050 112342 -108050 M 114530 -108731 112439 -108731 M 114530 -109171 112584 -109171 M 118691 -108771 116610 -108771 M 118797 -108090 112343 -108090 M 114530 -108851 112472 -108851 M 116920 -110891 114220 -110891 M 117151 -110771 113989 -110771 M 114530 -109691 112854 -109691 M 114530 -108931 112496 -108931 M 118486 -109331 116610 -109331 M 118737 -108570 116610 -108570 M 114530 -109971 113054 -109971 M 118522 -109251 116610 -109251 M 118588 -109091 116610 -109091 M 118711 -108691 116610 -108691 M 117460 -110571 113680 -110571 M 114530 -109891 112992 -109891 M 114530 -110091 113154 -110091 M 118603 -109051 116610 -109051 M 118794 -108130 112346 -108130 M 118426 -109451 116610 -109451 M 118312 -109651 116610 -109651 M 114530 -110131 113190 -110131 M 118572 -109131 116610 -109131 M 114530 -108250 112355 -108250 M 114530 -109571 112780 -109571 M 117079 -110811 114061 -110811 M 118054 -110011 116610 -110011 M 118788 -108210 116610 -108210 M 117724 -104744.759 117094 -104744.759 M 114530 -109371 112674 -109371 M 118765 -108410 116610 -108410 M 114530 -108811 112460 -108811 M 117707 -110371 113433 -110371 M 114530 -108771 112449 -108771 M 118840 -107930 A 3270 3270 0 0 1 112300 -107930 3270 3270 0 0 1 118840 -107930 M 187258 -87894 187258 -95574 M 184598 -86624 184598 -85294 M 184598 -87894 187258 -87894 M 184598 -95574 187258 -95574 M 184598 -85294 185928 -85294 M 184598 -87894 184598 -95574 M 162620 -87894 162620 -95574 M 159960 -87894 162620 -87894 M 159960 -95574 162620 -95574 M 159960 -87894 159960 -95574 M 159960 -86624 159960 -85294 161290 -85294 M 113344 -59446 113344 -67126 M 110684 -59446 110684 -67126 M 110684 -59446 113344 -59446 M 110684 -67126 113344 -67126 M 110684 -56846 112014 -56846 M 110684 -58176 110684 -56846 M 118680 -78331 116610 -78331 M 118234 -79291 116610 -79291 M 117724 -74264.759 117094 -74264.759 M 114530 -78891 112674 -78891 M 117346 -80171 113794 -80171 M 116920 -80411 114220 -80411 M 117950 -79651 116610 -79651 M 118572 -78651 116610 -78651 M 118177 -79371 116610 -79371 M 117662 -79931 113478 -79931 M 118360 -79091 116610 -79091 M 118426 -78971 116610 -78971 M 117752 -79851 113388 -79851 M 114530 -77970 112381 -77970 M 114530 -79571 113120 -79571 M 114530 -78371 112472 -78371 M 114530 -78851 112654 -78851 M 117220 -80251 113920 -80251 M 114530 -77930 112375 -77930 M 118206 -79331 116610 -79331 M 118486 -78851 116610 -78851 M 118540 -78731 116610 -78731 M 118711 -78211 116610 -78211 M 114530 -78771 112618 -78771 M 114530 -78731 112600 -78731 M 114530 -79531 113086 -79531 M 114530 -79411 112992 -79411 M 117409 -73949.759 117409 -74579.759 M 118792 -77690 116610 -77690 M 114530 -78491 112509 -78491 M 114530 -78050 112395 -78050 M 117707 -79891 113433 -79891 M 114530 -78331 112460 -78331 M 117986 -79611 116610 -79611 M 114530 -77690 112348 -77690 M 118312 -79171 116610 -79171 M 118720 -78171 116610 -78171 M 117614 -79971 113526 -79971 M 118631 -78491 116610 -78491 M 114530 -79051 112758 -79051 M 118588 -78611 116610 -78611 M 118797 -77610 112343 -77610 M 114530 -77890 112369 -77890 M 117404 -80131 113736 -80131 M 114530 -78811 112636 -78811 M 114530 -79691 113227 -79691 M 118729 -78130 116610 -78130 M 118794 -77650 112346 -77650 M 114530 -78971 112714 -78971 M 118522 -78771 116610 -78771 M 114530 -79611 113154 -79611 M 117460 -80091 113680 -80091 M 118765 -77930 116610 -77930 M 114530 -79651 113190 -79651 M 117284 -80211 113856 -80211 M 114530 -78291 112449 -78291 M 118260 -79251 116610 -79251 M 114530 -78211 112429 -78211 M 118054 -79531 116610 -79531 M 114530 -78010 112388 -78010 M 118382 -79051 116610 -79051 M 118745 -78050 116610 -78050 M 115972 -80691 115168 -80691 M 114530 -78691 112584 -78691 M 114530 -78571 112537 -78571 M 114530 -79731 113265 -79731 M 114530 -79171 112828 -79171 M 114530 -79011 112736 -79011 M 114530 -79131 112804 -79131 M 118656 -78411 116610 -78411 M 118701 -78251 116610 -78251 M 118446 -78931 116610 -78931 M 118603 -78571 116610 -78571 M 116203 -80651 114937 -80651 M 117151 -80291 113989 -80291 M 118800 -77530 112340 -77530 M 114530 -77730 112352 -77730 M 118752 -78010 116610 -78010 M 114530 -78130 112411 -78130 M 114530 -79371 112963 -79371 M 118800 -77450 112340 -77450 M 118771 -77890 116610 -77890 M 114530 -77770 112355 -77770 M 114530 -78931 112694 -78931 M 114530 -78451 112496 -78451 M 114530 -77810 112359 -77810 M 114530 -79331 112934 -79331 M 114530 -78090 112403 -78090 M 114530 -79251 112880 -79251 M 117875 -79731 116610 -79731 M 118504 -78811 116610 -78811 M 118691 -78291 116610 -78291 M 118668 -78371 116610 -78371 M 118020 -79571 116610 -79571 M 118781 -77810 116610 -77810 M 118404 -79011 116610 -79011 M 117913 -79691 116610 -79691 M 117514 -80051 113626 -80051 M 116629 -80531 114511 -80531 M 118788 -77730 116610 -77730 M 118644 -78451 116610 -78451 M 118737 -78090 116610 -78090 M 114530 -78611 112552 -78611 M 116735 -80491 114405 -80491 M 117002 -80371 114138 -80371 M 117794 -79811 113346 -79811 M 118336 -79131 116610 -79131 M 118776 -77850 116610 -77850 M 118800 -77490 112340 -77490 M 118785 -77770 116610 -77770 M 114530 -78651 112568 -78651 M 114530 -79291 112906 -79291 M 117835 -79771 113305 -79771 M 114530 -79491 113054 -79491 M 114530 -78411 112484 -78411 M 118556 -78691 116610 -78691 M 118798 -77570 112342 -77570 M 118118 -79451 116610 -79451 M 117565 -80011 113575 -80011 M 118466 -78891 116610 -78891 M 114530 -77850 112364 -77850 M 118148 -79411 116610 -79411 M 117079 -80331 114061 -80331 M 116510 -80571 114630 -80571 M 118086 -79491 116610 -79491 M 116832 -80451 114308 -80451 M 118759 -77970 116610 -77970 M 116372 -80611 114768 -80611 M 114530 -79451 113022 -79451 M 114530 -79091 112780 -79091 M 114530 -78531 112523 -78531 M 114530 -78251 112439 -78251 M 118617 -78531 116610 -78531 M 114530 -78171 112420 -78171 M 118286 -79211 116610 -79211 M 114530 -79211 112854 -79211 M 118840 -77450 A 3270 3270 0 0 1 112300 -77450 3270 3270 0 0 1 118840 -77450 M 151756.666 -82710 151756.666 -103290 M 154426.666 -103290 154426.666 -82710 141596.666 -82710 M 140326.666 -82710 138926.666 -82710 M 141596.666 -82710 141596.666 -85380 141596.666 -103290 M 138926.666 -82710 138926.666 -84110 M 138926.666 -85380 138926.666 -103290 M 141596.666 -85380 138926.666 -85380 M 138926.666 -103290 154426.666 -103290 M 184598 -59446 187258 -59446 M 184598 -56846 185928 -56846 M 187258 -59446 187258 -67126 M 184598 -59446 184598 -67126 M 184598 -58176 184598 -56846 M 184598 -67126 187258 -67126 M 135322 -59446 135322 -67126 M 137982 -59446 137982 -67126 M 135322 -67126 137982 -67126 M 135322 -56846 136652 -56846 M 135322 -59446 137982 -59446 M 135322 -58176 135322 -56846 M 188260 -72290 203760 -72290 203760 -51710 M 188260 -51710 188260 -53110 M 189660 -51710 188260 -51710 M 201090 -51710 201090 -72290 M 188260 -54380 188260 -72290 M 203760 -51710 190930 -51710 190930 -54380 190930 -72290 M 190930 -54380 188260 -54380 M 192801 -78211 190700 -78211 M 188620 -79331 187024 -79331 M 192003 -79691 190700 -79691 M 191884 -79811 187436 -79811 M 192707 -78531 190700 -78531 M 188620 -78090 186493 -78090 M 188620 -78291 186539 -78291 M 188620 -78811 186726 -78811 M 191550 -80091 187770 -80091 M 192887 -77610 186433 -77610 M 190922 -80451 188398 -80451 M 188620 -79691 187317 -79691 M 191925 -79771 187395 -79771 M 191814 -74264.759 191184 -74264.759 M 192855 -77930 190700 -77930 M 188620 -79211 186944 -79211 M 192324 -79291 190700 -79291 M 192494 -79011 190700 -79011 M 191010 -80411 188310 -80411 M 188620 -78931 186784 -78931 M 188620 -77890 186459 -77890 M 188620 -77850 186454 -77850 M 192612 -78771 190700 -78771 M 190293 -80651 189027 -80651 M 188620 -78010 186478 -78010 M 188620 -77690 186438 -77690 M 192144 -79531 190700 -79531 M 188620 -78611 186642 -78611 M 188620 -79131 186894 -79131 M 191797 -79891 187523 -79891 M 192770 -78331 190700 -78331 M 191169 -80331 188151 -80331 M 192376 -79211 190700 -79211 M 192646 -78691 190700 -78691 M 192176 -79491 190700 -79491 M 192076 -79611 190700 -79611 M 191655 -80011 187665 -80011 M 192878 -77730 190700 -77730 M 192472 -79051 190700 -79051 M 188620 -79611 187244 -79611 M 188620 -78891 186764 -78891 M 188620 -79091 186870 -79091 M 188620 -79051 186848 -79051 M 188620 -78331 186550 -78331 M 188620 -78571 186627 -78571 M 192875 -77770 190700 -77770 M 188620 -78691 186674 -78691 M 192849 -77970 190700 -77970 M 192721 -78491 190700 -78491 M 192861 -77890 190700 -77890 M 191704 -79971 187616 -79971 M 192402 -79171 190700 -79171 M 191374 -80211 187946 -80211 M 192827 -78090 190700 -78090 M 192866 -77850 190700 -77850 M 188620 -77770 186445 -77770 M 190462 -80611 188858 -80611 M 188620 -78251 186529 -78251 M 188620 -78451 186586 -78451 M 192426 -79131 190700 -79131 M 188620 -78411 186574 -78411 M 188620 -79251 186970 -79251 M 188620 -77930 186465 -77930 M 188620 -78851 186744 -78851 M 190600 -80571 188720 -80571 M 192835 -78050 190700 -78050 M 191842 -79851 187478 -79851 M 188620 -78971 186804 -78971 M 192810 -78171 190700 -78171 M 192842 -78010 190700 -78010 M 192662 -78651 190700 -78651 M 190062 -80691 189258 -80691 M 191241 -80291 188079 -80291 M 192208 -79451 190700 -79451 M 188620 -79531 187176 -79531 M 192536 -78931 190700 -78931 M 192693 -78571 190700 -78571 M 192888 -77570 186432 -77570 M 188620 -78050 186485 -78050 M 192758 -78371 190700 -78371 M 192678 -78611 190700 -78611 M 192450 -79091 190700 -79091 M 188620 -77730 186442 -77730 M 192556 -78891 190700 -78891 M 188620 -79571 187210 -79571 M 188620 -78651 186658 -78651 M 191499 -73949.759 191499 -74579.759 M 188620 -79451 187112 -79451 M 188620 -77970 186471 -77970 M 188620 -79291 186996 -79291 M 188620 -78731 186690 -78731 M 192781 -78291 190700 -78291 M 191494 -80131 187826 -80131 M 188620 -79371 187053 -79371 M 192890 -77490 186430 -77490 M 192734 -78451 190700 -78451 M 191310 -80251 188010 -80251 M 192350 -79251 190700 -79251 M 192882 -77690 190700 -77690 M 188620 -79011 186826 -79011 M 191436 -80171 187884 -80171 M 192890 -77450 186430 -77450 M 188620 -79491 187144 -79491 M 192594 -78811 190700 -78811 M 192516 -78971 190700 -78971 M 192267 -79371 190700 -79371 M 188620 -79411 187082 -79411 M 192040 -79651 190700 -79651 M 192884 -77650 186436 -77650 M 192296 -79331 190700 -79331 M 192630 -78731 190700 -78731 M 190719 -80531 188601 -80531 M 188620 -78491 186599 -78491 M 188620 -78771 186708 -78771 M 188620 -78531 186613 -78531 M 192110 -79571 190700 -79571 M 191604 -80051 187716 -80051 M 192576 -78851 190700 -78851 M 188620 -78171 186510 -78171 M 191752 -79931 187568 -79931 M 191092 -80371 188228 -80371 M 192238 -79411 190700 -79411 M 192746 -78411 190700 -78411 M 188620 -77810 186449 -77810 M 190825 -80491 188495 -80491 M 192819 -78130 190700 -78130 M 191965 -79731 190700 -79731 M 188620 -78130 186501 -78130 M 192791 -78251 190700 -78251 M 192871 -77810 190700 -77810 M 188620 -79171 186918 -79171 M 188620 -78371 186562 -78371 M 188620 -78211 186519 -78211 M 188620 -79731 187355 -79731 M 188620 -79651 187280 -79651 M 192890 -77530 186430 -77530 M 192930 -77450 A 3270 3270 0 0 1 186390 -77450 3270 3270 0 0 1 192930 -77450 M 135322 -85294 136652 -85294 M 137982 -87894 137982 -95574 M 135322 -87894 137982 -87894 M 135322 -86624 135322 -85294 M 135322 -87894 135322 -95574 137982 -95574 M 185040 -100282.379 187206 -100282.379 M 180833 -100042.379 182960 -100042.379 M 185040 -98961.379 186742 -98961.379 M 180890 -99801.379 182960 -99801.379 M 185040 -98681.379 186548 -98681.379 M 182166 -98001.379 185834 -98001.379 M 183598 -97441.379 184402 -97441.379 M 185040 -100322.379 187211 -100322.379 M 185040 -99921.379 187141 -99921.379 M 183198 -97521.379 184802 -97521.379 M 181846 -103867.62 182476 -103867.62 M 185040 -98401.379 186305 -98401.379 M 185040 -98641.379 186516 -98641.379 M 180789 -100322.379 182960 -100322.379 M 180770 -100642.379 187230 -100642.379 M 180869 -99881.379 182960 -99881.379 M 185040 -98921.379 186716 -98921.379 M 185040 -99201.379 186876 -99201.379 M 180799 -100242.379 182960 -100242.379 M 181310 -98881.379 182960 -98881.379 M 185040 -100042.379 187167 -100042.379 M 180811 -100162.379 182960 -100162.379 M 180953 -99601.379 182960 -99601.379 M 182568 -97761.379 185432 -97761.379 M 185040 -99161.379 186856 -99161.379 M 180794 -100282.379 182960 -100282.379 M 185040 -99441.379 186986 -99441.379 M 181550 -98561.379 182960 -98561.379 M 185040 -99521.379 187018 -99521.379 M 181908 -98201.379 186092 -98201.379 M 182941 -97601.379 185059 -97601.379 M 185040 -99681.379 187074 -99681.379 M 185040 -100122.379 187182 -100122.379 M 180772 -100562.379 187228 -100562.379 M 181695 -98401.379 182960 -98401.379 M 185040 -99361.379 186952 -99361.379 M 183367 -97481.379 184633 -97481.379 M 182738 -97681.379 185262 -97681.379 M 180841 -100002.379 182960 -100002.379 M 181014 -99441.379 182960 -99441.379 M 181234 -99001.379 182960 -99001.379 M 182286 -97921.379 185714 -97921.379 M 181048 -99361.379 182960 -99361.379 M 185040 -100002.379 187159 -100002.379 M 180926 -99681.379 182960 -99681.379 M 181657 -98441.379 182960 -98441.379 M 181422 -98721.379 182960 -98721.379 M 181584 -98521.379 182960 -98521.379 M 181144 -99161.379 182960 -99161.379 M 181956 -98161.379 186044 -98161.379 M 185040 -98881.379 186690 -98881.379 M 185040 -99601.379 187047 -99601.379 M 181364 -98801.379 182960 -98801.379 M 183060 -97561.379 184940 -97561.379 M 181620 -98481.379 182960 -98481.379 M 185040 -99761.379 187098 -99761.379 M 185040 -98441.379 186343 -98441.379 M 181188 -99081.379 182960 -99081.379 M 182005 -98121.379 185995 -98121.379 M 185040 -100082.379 187175 -100082.379 M 185040 -99801.379 187110 -99801.379 M 181104 -99241.379 182960 -99241.379 M 185040 -98481.379 186380 -98481.379 M 182650 -97721.379 185350 -97721.379 M 180998 -99481.379 182960 -99481.379 M 181258 -98961.379 182960 -98961.379 M 180967 -99561.379 182960 -99561.379 M 180825 -100082.379 182960 -100082.379 M 185040 -99561.379 187033 -99561.379 M 185040 -98521.379 186416 -98521.379 M 185040 -99081.379 186812 -99081.379 M 181030 -99401.379 182960 -99401.379 M 180982 -99521.379 182960 -99521.379 M 185040 -99961.379 187150 -99961.379 M 181484 -98641.379 182960 -98641.379 M 185040 -99721.379 187086 -99721.379 M 181863 -98241.379 186137 -98241.379 M 185040 -99841.379 187121 -99841.379 M 180939 -99641.379 182960 -99641.379 M 185040 -98801.379 186636 -98801.379 M 182110 -98041.379 185890 -98041.379 M 180805 -100202.379 182960 -100202.379 M 180776 -100482.379 187224 -100482.379 M 180773 -100522.379 187227 -100522.379 M 180778 -100442.379 182960 -100442.379 M 185040 -99641.379 187061 -99641.379 M 185040 -100362.379 187215 -100362.379 M 180818 -100122.379 182960 -100122.379 M 185040 -99001.379 186766 -99001.379 M 185040 -99041.379 186790 -99041.379 M 181336 -98841.379 182960 -98841.379 M 181124 -99201.379 182960 -99201.379 M 181066 -99321.379 182960 -99321.379 M 182161 -104182.62 182161 -103552.62 M 180770 -100682.379 187230 -100682.379 M 181084 -99281.379 182960 -99281.379 M 180902 -99761.379 182960 -99761.379 M 181452 -98681.379 182960 -98681.379 M 185040 -99241.379 186896 -99241.379 M 185040 -100242.379 187201 -100242.379 M 180770 -100602.379 187230 -100602.379 M 185040 -99281.379 186916 -99281.379 M 181818 -98281.379 186182 -98281.379 M 181210 -99041.379 182960 -99041.379 M 181516 -98601.379 182960 -98601.379 M 182056 -98081.379 185944 -98081.379 M 181166 -99121.379 182960 -99121.379 M 185040 -98561.379 186450 -98561.379 M 185040 -100442.379 187222 -100442.379 M 180859 -99921.379 182960 -99921.379 M 185040 -98601.379 186484 -98601.379 M 185040 -100402.379 187218 -100402.379 M 180914 -99721.379 182960 -99721.379 M 182419 -97841.379 185581 -97841.379 M 185040 -99321.379 186934 -99321.379 M 185040 -99881.379 187131 -99881.379 M 180850 -99961.379 182960 -99961.379 M 185040 -98721.379 186578 -98721.379 M 185040 -100202.379 187195 -100202.379 M 181393 -98761.379 182960 -98761.379 M 180782 -100402.379 182960 -100402.379 M 181735 -98361.379 186265 -98361.379 M 182491 -97801.379 185509 -97801.379 M 181776 -98321.379 186224 -98321.379 M 180879 -99841.379 182960 -99841.379 M 182224 -97961.379 185776 -97961.379 M 185040 -98841.379 186664 -98841.379 M 185040 -99121.379 186834 -99121.379 M 182835 -97641.379 185165 -97641.379 M 185040 -100162.379 187189 -100162.379 M 180785 -100362.379 182960 -100362.379 M 185040 -99401.379 186970 -99401.379 M 181284 -98921.379 182960 -98921.379 M 185040 -98761.379 186607 -98761.379 M 185040 -99481.379 187002 -99481.379 M 182350 -97881.379 185650 -97881.379 M 187270 -100682.379 A 3270 3270 0 0 1 180730 -100682.379 3270 3270 0 0 1 187270 -100682.379 M 159960 -58176 159960 -56846 M 159960 -59446 162620 -59446 M 159960 -67126 162620 -67126 M 159960 -56846 161290 -56846 M 159960 -59446 159960 -67126 M 162620 -59446 162620 -67126 M 163953.332 -78938.621 162077.332 -78938.621 M 168124.332 -78338.621 166033.332 -78338.621 M 168168.332 -78137.621 166033.332 -78137.621 M 167600.332 -79458.621 166033.332 -79458.621 M 167805.332 -79138.621 166033.332 -79138.621 M 163953.332 -79018.621 162117.332 -79018.621 M 167130.332 -79978.621 162856.332 -79978.621 M 167258.332 -79858.621 162728.332 -79858.621 M 168182.332 -78057.621 166033.332 -78057.621 M 167783.332 -79178.621 166033.332 -79178.621 M 163953.332 -79058.621 162137.332 -79058.621 M 168152.332 -78217.621 166033.332 -78217.621 M 166883.332 -80178.621 163103.332 -80178.621 M 166052.332 -80618.621 163934.332 -80618.621 M 165795.332 -80698.621 164191.332 -80698.621 M 163953.332 -78338.621 161862.332 -78338.621 M 163953.332 -78057.621 161804.332 -78057.621 M 168134.332 -78298.621 166033.332 -78298.621 M 163953.332 -78137.621 161818.332 -78137.621 M 167759.332 -79218.621 166033.332 -79218.621 M 163953.332 -78418.621 161883.332 -78418.621 M 167629.332 -79418.621 166033.332 -79418.621 M 167909.332 -78938.621 166033.332 -78938.621 M 163953.332 -78498.621 161907.332 -78498.621 M 167409.332 -79698.621 166033.332 -79698.621 M 168103.332 -78418.621 166033.332 -78418.621 M 163953.332 -77777.621 161771.332 -77777.621 M 167175.332 -79938.621 162811.332 -79938.621 M 167869.332 -79018.621 166033.332 -79018.621 M 163953.332 -78177.621 161826.332 -78177.621 M 163953.332 -77977.621 161792.332 -77977.621 M 163953.332 -78097.621 161811.332 -78097.621 M 163953.332 -78298.621 161852.332 -78298.621 M 165626.332 -80738.621 164360.332 -80738.621 M 163953.332 -79338.621 162303.332 -79338.621 M 166425.332 -80458.621 163561.332 -80458.621 M 163953.332 -77817.621 161775.332 -77817.621 M 163953.332 -77897.621 161782.332 -77897.621 M 163953.332 -79098.621 162159.332 -79098.621 M 163953.332 -78778.621 162007.332 -78778.621 M 167827.332 -79098.621 166033.332 -79098.621 M 163953.332 -79378.621 162329.332 -79378.621 M 163953.332 -79298.621 162277.332 -79298.621 M 163953.332 -78658.621 161960.332 -78658.621 M 167541.332 -79538.621 166033.332 -79538.621 M 163953.332 -79658.621 162543.332 -79658.621 M 163953.332 -78378.621 161872.332 -78378.621 M 167709.332 -79298.621 166033.332 -79298.621 M 167945.332 -78858.621 166033.332 -78858.621 M 163953.332 -79498.621 162415.332 -79498.621 M 163953.332 -79778.621 162650.332 -79778.621 M 166343.332 -80498.621 163643.332 -80498.621 M 168011.332 -78698.621 166033.332 -78698.621 M 166769.332 -80258.621 163217.332 -80258.621 M 166988.332 -80098.621 162998.332 -80098.621 M 163953.332 -78618.621 161946.332 -78618.621 M 166574.332 -80378.621 163412.332 -80378.621 M 167509.332 -79578.621 166033.332 -79578.621 M 168211.332 -77817.621 166033.332 -77817.621 M 168220.332 -77697.621 161766.332 -77697.621 M 167889.332 -78978.621 166033.332 -78978.621 M 166255.332 -80538.621 163731.332 -80538.621 M 163953.332 -78898.621 162059.332 -78898.621 M 168208.332 -77857.621 166033.332 -77857.621 M 168221.332 -77657.621 161765.332 -77657.621 M 167477.332 -79618.621 166033.332 -79618.621 M 168223.332 -77617.621 161763.332 -77617.621 M 163953.332 -79218.621 162227.332 -79218.621 M 166832.332 -74037.38 166832.332 -74667.38 M 167927.332 -78898.621 166033.332 -78898.621 M 166158.332 -80578.621 163828.332 -80578.621 M 167336.332 -79778.621 166033.332 -79778.621 M 163953.332 -79818.621 162688.332 -79818.621 M 168175.332 -78097.621 166033.332 -78097.621 M 168079.332 -78498.621 166033.332 -78498.621 M 163953.332 -78217.621 161834.332 -78217.621 M 163953.332 -78858.621 162041.332 -78858.621 M 163953.332 -79578.621 162477.332 -79578.621 M 163953.332 -78458.621 161895.332 -78458.621 M 163953.332 -78818.621 162023.332 -78818.621 M 168143.332 -78258.621 166033.332 -78258.621 M 163953.332 -78538.621 161919.332 -78538.621 M 163953.332 -79138.621 162181.332 -79138.621 M 166827.332 -80218.621 163159.332 -80218.621 M 166643.332 -80338.621 163343.332 -80338.621 M 163953.332 -79538.621 162445.332 -79538.621 M 167657.332 -79378.621 166033.332 -79378.621 M 167683.332 -79338.621 166033.332 -79338.621 M 168204.332 -77897.621 166033.332 -77897.621 M 168223.332 -77537.621 161763.332 -77537.621 M 166707.332 -80298.621 163279.332 -80298.621 M 163953.332 -78258.621 161843.332 -78258.621 M 168114.332 -78378.621 166033.332 -78378.621 M 168217.332 -77737.621 161769.332 -77737.621 M 167571.332 -79498.621 166033.332 -79498.621 M 168215.332 -77777.621 166033.332 -77777.621 M 168054.332 -78578.621 166033.332 -78578.621 M 167147.332 -74352.38 166517.332 -74352.38 M 163953.332 -79698.621 162577.332 -79698.621 M 167735.332 -79258.621 166033.332 -79258.621 M 167849.332 -79058.621 166033.332 -79058.621 M 167995.332 -78738.621 166033.332 -78738.621 M 163953.332 -79258.621 162251.332 -79258.621 M 167085.332 -80018.621 162901.332 -80018.621 M 165933.332 -80658.621 164053.332 -80658.621 M 163953.332 -78738.621 161991.332 -78738.621 M 167037.332 -80058.621 162949.332 -80058.621 M 168223.332 -77577.621 161763.332 -77577.621 M 163953.332 -78978.621 162097.332 -78978.621 M 167217.332 -79898.621 162769.332 -79898.621 M 168026.332 -78658.621 166033.332 -78658.621 M 167443.332 -79658.621 166033.332 -79658.621 M 167963.332 -78818.621 166033.332 -78818.621 M 163953.332 -77857.621 161778.332 -77857.621 M 168067.332 -78538.621 166033.332 -78538.621 M 166502.332 -80418.621 163484.332 -80418.621 M 165395.332 -80778.621 164591.332 -80778.621 M 167979.332 -78778.621 166033.332 -78778.621 M 163953.332 -79618.621 162509.332 -79618.621 M 168194.332 -77977.621 166033.332 -77977.621 M 163953.332 -77937.621 161787.332 -77937.621 M 167298.332 -79818.621 166033.332 -79818.621 M 163953.332 -79738.621 162613.332 -79738.621 M 168188.332 -78017.621 166033.332 -78017.621 M 168199.332 -77937.621 166033.332 -77937.621 M 163953.332 -79458.621 162386.332 -79458.621 M 163953.332 -79418.621 162357.332 -79418.621 M 166937.332 -80138.621 163049.332 -80138.621 M 163953.332 -78017.621 161798.332 -78017.621 M 163953.332 -79178.621 162203.332 -79178.621 M 168160.332 -78177.621 166033.332 -78177.621 M 168040.332 -78618.621 166033.332 -78618.621 M 163953.332 -78578.621 161932.332 -78578.621 M 167373.332 -79738.621 166033.332 -79738.621 M 168091.332 -78458.621 166033.332 -78458.621 M 163953.332 -78698.621 161975.332 -78698.621 M 168263.332 -77537.621 A 3270 3270 0 0 1 161723.332 -77537.621 3270 3270 0 0 1 168263.332 -77537.621 M 129760 -82710 116930 -82710 M 115660 -82710 114260 -82710 M 116930 -82710 116930 -85380 M 114260 -85380 114260 -103290 129760 -103290 M 116930 -85380 116930 -103290 M 116930 -85380 114260 -85380 M 127090 -82710 127090 -103290 M 129760 -103290 129760 -82710 M 114260 -82710 114260 -84110" fill="none" stroke-width="120"/></g></g></svg>