<svg version="1.1" xmlns="http://www.w3.org/2000/svg" xmlns:xlink="http://www.w3.org/1999/xlink" stroke-linecap="round" stroke-linejoin="round" stroke-width="0" fill-rule="evenodd" width="91.996mm" height="69.035mm" viewBox="111164 -121345 91996 69035" id="KQcWg4UyU2rwxEPIpNnD"><defs><rect x="-800" y="-800" width="1600" height="1600" id="KQcWg4UyU2rwxEPIpNnD_pad-12"/><circle cx="0" cy="0" r="800" id="KQcWg4UyU2rwxEPIpNnD_pad-13"/><rect x="-800" y="-800" width="1600" height="1600" rx="800" ry="800" id="KQcWg4UyU2rwxEPIpNnD_pad-14"/><rect x="-850" y="-850" width="1700" height="1700" id="KQcWg4UyU2rwxEPIpNnD_pad-15"/><rect x="-850" y="-850" width="1700" height="1700" rx="850" ry="850" id="KQcWg4UyU2rwxEPIpNnD_pad-16"/><mask id="KQcWg4UyU2rwxEPIpNnD_clear-1" fill="#000" stroke="#000"><g><rect x="139671.428" y="-111256.071" width="38014.286" height="4215" fill="#fff"/><path d="M 189270 -116785 128270 -116785 128270 -121285 189270 -121285 189270 -116785" fill="none" stroke-width="120"/><path d="M 189270 -116785 128270 -116785 128270 -121285 189270 -121285 189270 -116785"/><use xlink:href="#KQcWg4UyU2rwxEPIpNnD_pad-12" x="134250" y="-101932.38"/><use xlink:href="#KQcWg4UyU2rwxEPIpNnD_pad-13" x="134250" y="-99432.38"/><use xlink:href="#KQcWg4UyU2rwxEPIpNnD_pad-12" x="189660" y="-84110"/><use xlink:href="#KQcWg4UyU2rwxEPIpNnD_pad-14" x="189660" y="-86650"/><use xlink:href="#KQcWg4UyU2rwxEPIpNnD_pad-14" x="189660" y="-89190"/><use xlink:href="#KQcWg4UyU2rwxEPIpNnD_pad-14" x="189660" y="-91730"/><use xlink:href="#KQcWg4UyU2rwxEPIpNnD_pad-14" x="189660" y="-94270"/><use xlink:href="#KQcWg4UyU2rwxEPIpNnD_pad-14" x="189660" y="-96810"/><use xlink:href="#KQcWg4UyU2rwxEPIpNnD_pad-14" x="189660" y="-99350"/><use xlink:href="#KQcWg4UyU2rwxEPIpNnD_pad-14" x="189660" y="-101890"/><use xlink:href="#KQcWg4UyU2rwxEPIpNnD_pad-14" x="202360" y="-101890"/><use xlink:href="#KQcWg4UyU2rwxEPIpNnD_pad-14" x="202360" y="-99350"/><use xlink:href="#KQcWg4UyU2rwxEPIpNnD_pad-14" x="202360" y="-96810"/><use xlink:href="#KQcWg4UyU2rwxEPIpNnD_pad-14" x="202360" y="-94270"/><use xlink:href="#KQcWg4UyU2rwxEPIpNnD_pad-14" x="202360" y="-91730"/><use xlink:href="#KQcWg4UyU2rwxEPIpNnD_pad-14" x="202360" y="-89190"/><use xlink:href="#KQcWg4UyU2rwxEPIpNnD_pad-14" x="202360" y="-86650"/><use xlink:href="#KQcWg4UyU2rwxEPIpNnD_pad-14" x="202360" y="-84110"/><use xlink:href="#KQcWg4UyU2rwxEPIpNnD_pad-12" x="164993.332" y="-84110"/><use xlink:href="#KQcWg4UyU2rwxEPIpNnD_pad-14" x="164993.332" y="-86650"/><use xlink:href="#KQcWg4UyU2rwxEPIpNnD_pad-14" x="164993.332" y="-89190"/><use xlink:href="#KQcWg4UyU2rwxEPIpNnD_pad-14" x="164993.332" y="-91730"/><use xlink:href="#KQcWg4UyU2rwxEPIpNnD_pad-14" x="164993.332" y="-94270"/><use xlink:href="#KQcWg4UyU2rwxEPIpNnD_pad-14" x="164993.332" y="-96810"/><use xlink:href="#KQcWg4UyU2rwxEPIpNnD_pad-14" x="164993.332" y="-99350"/><use xlink:href="#KQcWg4UyU2rwxEPIpNnD_pad-14" x="164993.332" y="-101890"/><use xlink:href="#KQcWg4UyU2rwxEPIpNnD_pad-14" x="177693.332" y="-101890"/><use xlink:href="#KQcWg4UyU2rwxEPIpNnD_pad-14" x="177693.332" y="-99350"/><use xlink:href="#KQcWg4UyU2rwxEPIpNnD_pad-14" x="177693.332" y="-96810"/><use xlink:href="#KQcWg4UyU2rwxEPIpNnD_pad-14" x="177693.332" y="-94270"/><use xlink:href="#KQcWg4UyU2rwxEPIpNnD_pad-14" x="177693.332" y="-91730"/><use xlink:href="#KQcWg4UyU2rwxEPIpNnD_pad-14" x="177693.332" y="-89190"/><use xlink:href="#KQcWg4UyU2rwxEPIpNnD_pad-14" x="177693.332" y="-86650"/><use xlink:href="#KQcWg4UyU2rwxEPIpNnD_pad-14" x="177693.332" y="-84110"/><use xlink:href="#KQcWg4UyU2rwxEPIpNnD_pad-12" x="164993.332" y="-53110"/><use xlink:href="#KQcWg4UyU2rwxEPIpNnD_pad-14" x="164993.332" y="-55650"/><use xlink:href="#KQcWg4UyU2rwxEPIpNnD_pad-14" x="164993.332" y="-58190"/><use xlink:href="#KQcWg4UyU2rwxEPIpNnD_pad-14" x="164993.332" y="-60730"/><use xlink:href="#KQcWg4UyU2rwxEPIpNnD_pad-14" x="164993.332" y="-63270"/><use xlink:href="#KQcWg4UyU2rwxEPIpNnD_pad-14" x="164993.332" y="-65810"/><use xlink:href="#KQcWg4UyU2rwxEPIpNnD_pad-14" x="164993.332" y="-68350"/><use xlink:href="#KQcWg4UyU2rwxEPIpNnD_pad-14" x="164993.332" y="-70890"/><use xlink:href="#KQcWg4UyU2rwxEPIpNnD_pad-14" x="177693.332" y="-70890"/><use xlink:href="#KQcWg4UyU2rwxEPIpNnD_pad-14" x="177693.332" y="-68350"/><use xlink:href="#KQcWg4UyU2rwxEPIpNnD_pad-14" x="177693.332" y="-65810"/><use xlink:href="#KQcWg4UyU2rwxEPIpNnD_pad-14" x="177693.332" y="-63270"/><use xlink:href="#KQcWg4UyU2rwxEPIpNnD_pad-14" x="177693.332" y="-60730"/><use xlink:href="#KQcWg4UyU2rwxEPIpNnD_pad-14" x="177693.332" y="-58190"/><use xlink:href="#KQcWg4UyU2rwxEPIpNnD_pad-14" x="177693.332" y="-55650"/><use xlink:href="#KQcWg4UyU2rwxEPIpNnD_pad-14" x="177693.332" y="-53110"/><use xlink:href="#KQcWg4UyU2rwxEPIpNnD_pad-15" x="112014" y="-86624"/><use xlink:href="#KQcWg4UyU2rwxEPIpNnD_pad-16" x="112014" y="-89164"/><use xlink:href="#KQcWg4UyU2rwxEPIpNnD_pad-16" x="112014" y="-91704"/><use xlink:href="#KQcWg4UyU2rwxEPIpNnD_pad-16" x="112014" y="-94244"/><use xlink:href="#KQcWg4UyU2rwxEPIpNnD_pad-12" x="140326.666" y="-53110"/><use xlink:href="#KQcWg4UyU2rwxEPIpNnD_pad-14" x="140326.666" y="-55650"/><use xlink:href="#KQcWg4UyU2rwxEPIpNnD_pad-14" x="140326.666" y="-58190"/><use xlink:href="#KQcWg4UyU2rwxEPIpNnD_pad-14" x="140326.666" y="-60730"/><use xlink:href="#KQcWg4UyU2rwxEPIpNnD_pad-14" x="140326.666" y="-63270"/><use xlink:href="#KQcWg4UyU2rwxEPIpNnD_pad-14" x="140326.666" y="-65810"/><use xlink:href="#KQcWg4UyU2rwxEPIpNnD_pad-14" x="140326.666" y="-68350"/><use xlink:href="#KQcWg4UyU2rwxEPIpNnD_pad-14" x="140326.666" y="-70890"/><use xlink:href="#KQcWg4UyU2rwxEPIpNnD_pad-14" x="153026.666" y="-70890"/><use xlink:href="#KQcWg4UyU2rwxEPIpNnD_pad-14" x="153026.666" y="-68350"/><use xlink:href="#KQcWg4UyU2rwxEPIpNnD_pad-14" x="153026.666" y="-65810"/><use xlink:href="#KQcWg4UyU2rwxEPIpNnD_pad-14" x="153026.666" y="-63270"/><use xlink:href="#KQcWg4UyU2rwxEPIpNnD_pad-14" x="153026.666" y="-60730"/><use xlink:href="#KQcWg4UyU2rwxEPIpNnD_pad-14" x="153026.666" y="-58190"/><use xlink:href="#KQcWg4UyU2rwxEPIpNnD_pad-14" x="153026.666" y="-55650"/><use xlink:href="#KQcWg4UyU2rwxEPIpNnD_pad-14" x="153026.666" y="-53110"/><use xlink:href="#KQcWg4UyU2rwxEPIpNnD_pad-12" x="159000" y="-101932.38"/><use xlink:href="#KQcWg4UyU2rwxEPIpNnD_pad-13" x="159000" y="-99432.38"/><use xlink:href="#KQcWg4UyU2rwxEPIpNnD_pad-12" x="140326.666" y="-76240"/><use xlink:href="#KQcWg4UyU2rwxEPIpNnD_pad-13" x="140326.666" y="-78740"/><use xlink:href="#KQcWg4UyU2rwxEPIpNnD_pad-12" x="115660" y="-53110"/><use xlink:href="#KQcWg4UyU2rwxEPIpNnD_pad-14" x="115660" y="-55650"/><use xlink:href="#KQcWg4UyU2rwxEPIpNnD_pad-14" x="115660" y="-58190"/><use xlink:href="#KQcWg4UyU2rwxEPIpNnD_pad-14" x="115660" y="-60730"/><use xlink:href="#KQcWg4UyU2rwxEPIpNnD_pad-14" x="115660" y="-63270"/><use xlink:href="#KQcWg4UyU2rwxEPIpNnD_pad-14" x="115660" y="-65810"/><use xlink:href="#KQcWg4UyU2rwxEPIpNnD_pad-14" x="115660" y="-68350"/><use xlink:href="#KQcWg4UyU2rwxEPIpNnD_pad-14" x="115660" y="-70890"/><use xlink:href="#KQcWg4UyU2rwxEPIpNnD_pad-14" x="128360" y="-70890"/><use xlink:href="#KQcWg4UyU2rwxEPIpNnD_pad-14" x="128360" y="-68350"/><use xlink:href="#KQcWg4UyU2rwxEPIpNnD_pad-14" x="128360" y="-65810"/><use xlink:href="#KQcWg4UyU2rwxEPIpNnD_pad-14" x="128360" y="-63270"/><use xlink:href="#KQcWg4UyU2rwxEPIpNnD_pad-14" x="128360" y="-60730"/><use xlink:href="#KQcWg4UyU2rwxEPIpNnD_pad-14" x="128360" y="-58190"/><use xlink:href="#KQcWg4UyU2rwxEPIpNnD_pad-14" x="128360" y="-55650"/><use xlink:href="#KQcWg4UyU2rwxEPIpNnD_pad-14" x="128360" y="-53110"/><use xlink:href="#KQcWg4UyU2rwxEPIpNnD_pad-12" x="115570" y="-106680"/><use xlink:href="#KQcWg4UyU2rwxEPIpNnD_pad-13" x="115570" y="-109180"/><use xlink:href="#KQcWg4UyU2rwxEPIpNnD_pad-15" x="185928" y="-86624"/><use xlink:href="#KQcWg4UyU2rwxEPIpNnD_pad-16" x="185928" y="-89164"/><use xlink:href="#KQcWg4UyU2rwxEPIpNnD_pad-16" x="185928" y="-91704"/><use xlink:href="#KQcWg4UyU2rwxEPIpNnD_pad-16" x="185928" y="-94244"/><use xlink:href="#KQcWg4UyU2rwxEPIpNnD_pad-15" x="161290" y="-86624"/><use xlink:href="#KQcWg4UyU2rwxEPIpNnD_pad-16" x="161290" y="-89164"/><use xlink:href="#KQcWg4UyU2rwxEPIpNnD_pad-16" x="161290" y="-91704"/><use xlink:href="#KQcWg4UyU2rwxEPIpNnD_pad-16" x="161290" y="-94244"/><use xlink:href="#KQcWg4UyU2rwxEPIpNnD_pad-15" x="112014" y="-58176"/><use xlink:href="#KQcWg4UyU2rwxEPIpNnD_pad-16" x="112014" y="-60716"/><use xlink:href="#KQcWg4UyU2rwxEPIpNnD_pad-16" x="112014" y="-63256"/><use xlink:href="#KQcWg4UyU2rwxEPIpNnD_pad-16" x="112014" y="-65796"/><use xlink:href="#KQcWg4UyU2rwxEPIpNnD_pad-12" x="115570" y="-76200"/><use xlink:href="#KQcWg4UyU2rwxEPIpNnD_pad-13" x="115570" y="-78700"/><use xlink:href="#KQcWg4UyU2rwxEPIpNnD_pad-12" x="140326.666" y="-84110"/><use xlink:href="#KQcWg4UyU2rwxEPIpNnD_pad-14" x="140326.666" y="-86650"/><use xlink:href="#KQcWg4UyU2rwxEPIpNnD_pad-14" x="140326.666" y="-89190"/><use xlink:href="#KQcWg4UyU2rwxEPIpNnD_pad-14" x="140326.666" y="-91730"/><use xlink:href="#KQcWg4UyU2rwxEPIpNnD_pad-14" x="140326.666" y="-94270"/><use xlink:href="#KQcWg4UyU2rwxEPIpNnD_pad-14" x="140326.666" y="-96810"/><use xlink:href="#KQcWg4UyU2rwxEPIpNnD_pad-14" x="140326.666" y="-99350"/><use xlink:href="#KQcWg4UyU2rwxEPIpNnD_pad-14" x="140326.666" y="-101890"/><use xlink:href="#KQcWg4UyU2rwxEPIpNnD_pad-14" x="153026.666" y="-101890"/><use xlink:href="#KQcWg4UyU2rwxEPIpNnD_pad-14" x="153026.666" y="-99350"/><use xlink:href="#KQcWg4UyU2rwxEPIpNnD_pad-14" x="153026.666" y="-96810"/><use xlink:href="#KQcWg4UyU2rwxEPIpNnD_pad-14" x="153026.666" y="-94270"/><use xlink:href="#KQcWg4UyU2rwxEPIpNnD_pad-14" x="153026.666" y="-91730"/><use xlink:href="#KQcWg4UyU2rwxEPIpNnD_pad-14" x="153026.666" y="-89190"/><use xlink:href="#KQcWg4UyU2rwxEPIpNnD_pad-14" x="153026.666" y="-86650"/><use xlink:href="#KQcWg4UyU2rwxEPIpNnD_pad-14" x="153026.666" y="-84110"/><use xlink:href="#KQcWg4UyU2rwxEPIpNnD_pad-15" x="185928" y="-58176"/><use xlink:href="#KQcWg4UyU2rwxEPIpNnD_pad-16" x="185928" y="-60716"/><use xlink:href="#KQcWg4UyU2rwxEPIpNnD_pad-16" x="185928" y="-63256"/><use xlink:href="#KQcWg4UyU2rwxEPIpNnD_pad-16" x="185928" y="-65796"/><use xlink:href="#KQcWg4UyU2rwxEPIpNnD_pad-15" x="136652" y="-58176"/><use xlink:href="#KQcWg4UyU2rwxEPIpNnD_pad-16" x="136652" y="-60716"/><use xlink:href="#KQcWg4UyU2rwxEPIpNnD_pad-16" x="136652" y="-63256"/><use xlink:href="#KQcWg4UyU2rwxEPIpNnD_pad-16" x="136652" y="-65796"/><use xlink:href="#KQcWg4UyU2rwxEPIpNnD_pad-12" x="189660" y="-53110"/><use xlink:href="#KQcWg4UyU2rwxEPIpNnD_pad-14" x="189660" y="-55650"/><use xlink:href="#KQcWg4UyU2rwxEPIpNnD_pad-14" x="189660" y="-58190"/><use xlink:href="#KQcWg4UyU2rwxEPIpNnD_pad-14" x="189660" y="-60730"/><use xlink:href="#KQcWg4UyU2rwxEPIpNnD_pad-14" x="189660" y="-63270"/><use xlink:href="#KQcWg4UyU2rwxEPIpNnD_pad-14" x="189660" y="-65810"/><use xlink:href="#KQcWg4UyU2rwxEPIpNnD_pad-14" x="189660" y="-68350"/><use xlink:href="#KQcWg4UyU2rwxEPIpNnD_pad-14" x="189660" y="-70890"/><use xlink:href="#KQcWg4UyU2rwxEPIpNnD_pad-14" x="202360" y="-70890"/><use xlink:href="#KQcWg4UyU2rwxEPIpNnD_pad-14" x="202360" y="-68350"/><use xlink:href="#KQcWg4UyU2rwxEPIpNnD_pad-14" x="202360" y="-65810"/><use xlink:href="#KQcWg4UyU2rwxEPIpNnD_pad-14" x="202360" y="-63270"/><use xlink:href="#KQcWg4UyU2rwxEPIpNnD_pad-14" x="202360" y="-60730"/><use xlink:href="#KQcWg4UyU2rwxEPIpNnD_pad-14" x="202360" y="-58190"/><use xlink:href="#KQcWg4UyU2rwxEPIpNnD_pad-14" x="202360" y="-55650"/><use xlink:href="#KQcWg4UyU2rwxEPIpNnD_pad-14" x="202360" y="-53110"/><use xlink:href="#KQcWg4UyU2rwxEPIpNnD_pad-12" x="189660" y="-76200"/><use xlink:href="#KQcWg4UyU2rwxEPIpNnD_pad-13" x="189660" y="-78700"/><use xlink:href="#KQcWg4UyU2rwxEPIpNnD_pad-15" x="136652" y="-86624"/><use xlink:href="#KQcWg4UyU2rwxEPIpNnD_pad-16" x="136652" y="-89164"/><use xlink:href="#KQcWg4UyU2rwxEPIpNnD_pad-16" x="136652" y="-91704"/><use xlink:href="#KQcWg4UyU2rwxEPIpNnD_pad-16" x="136652" y="-94244"/><use xlink:href="#KQcWg4UyU2rwxEPIpNnD_pad-12" x="184000" y="-101932.379"/><use xlink:href="#KQcWg4UyU2rwxEPIpNnD_pad-13" x="184000" y="-99432.379"/><use xlink:href="#KQcWg4UyU2rwxEPIpNnD_pad-15" x="161290" y="-58176"/><use xlink:href="#KQcWg4UyU2rwxEPIpNnD_pad-16" x="161290" y="-60716"/><use xlink:href="#KQcWg4UyU2rwxEPIpNnD_pad-16" x="161290" y="-63256"/><use xlink:href="#KQcWg4UyU2rwxEPIpNnD_pad-16" x="161290" y="-65796"/><use xlink:href="#KQcWg4UyU2rwxEPIpNnD_pad-12" x="164993.332" y="-76287.621"/><use xlink:href="#KQcWg4UyU2rwxEPIpNnD_pad-13" x="164993.332" y="-78787.621"/><use xlink:href="#KQcWg4UyU2rwxEPIpNnD_pad-12" x="115660" y="-84110"/><use xlink:href="#KQcWg4UyU2rwxEPIpNnD_pad-14" x="115660" y="-86650"/><use xlink:href="#KQcWg4UyU2rwxEPIpNnD_pad-14" x="115660" y="-89190"/><use xlink:href="#KQcWg4UyU2rwxEPIpNnD_pad-14" x="115660" y="-91730"/><use xlink:href="#KQcWg4UyU2rwxEPIpNnD_pad-14" x="115660" y="-94270"/><use xlink:href="#KQcWg4UyU2rwxEPIpNnD_pad-14" x="115660" y="-96810"/><use xlink:href="#KQcWg4UyU2rwxEPIpNnD_pad-14" x="115660" y="-99350"/><use xlink:href="#KQcWg4UyU2rwxEPIpNnD_pad-14" x="115660" y="-101890"/><use xlink:href="#KQcWg4UyU2rwxEPIpNnD_pad-14" x="128360" y="-101890"/><use xlink:href="#KQcWg4UyU2rwxEPIpNnD_pad-14" x="128360" y="-99350"/><use xlink:href="#KQcWg4UyU2rwxEPIpNnD_pad-14" x="128360" y="-96810"/><use xlink:href="#KQcWg4UyU2rwxEPIpNnD_pad-14" x="128360" y="-94270"/><use xlink:href="#KQcWg4UyU2rwxEPIpNnD_pad-14" x="128360" y="-91730"/><use xlink:href="#KQcWg4UyU2rwxEPIpNnD_pad-14" x="128360" y="-89190"/><use xlink:href="#KQcWg4UyU2rwxEPIpNnD_pad-14" x="128360" y="-86650"/><use xlink:href="#KQcWg4UyU2rwxEPIpNnD_pad-14" x="128360" y="-84110"/></g></mask></defs><g transform="translate(0,-173655) scale(1,-1)" fill="currentColor" stroke="currentColor"><g mask="url(#KQcWg4UyU2rwxEPIpNnD_clear-1)"><path d="M 177250 -107833.928 177392.857 -107762.5 177464.285 -107691.071 177535.714 -107548.214 177535.714 -107476.785 177464.285 -107333.928 177392.857 -107262.5 177250 -107191.071 176964.285 -107191.071 176821.428 -107262.5 176750 -107333.928 176678.571 -107476.785 176678.571 -107548.214 176750 -107691.071 176821.428 -107762.5 176964.285 -107833.928 177250 -107833.928 177392.857 -107905.357 177464.285 -107976.785 177535.714 -108119.642 177535.714 -108405.357 177464.285 -108548.214 177392.857 -108619.642 177250 -108691.071 176964.285 -108691.071 176821.428 -108619.642 176750 -108548.214 176678.571 -108405.357 176678.571 -108119.642 176750 -107976.785 176821.428 -107905.357 176964.285 -107833.928 M 176035.714 -108119.642 174892.857 -108119.642 M 174250 -108619.642 174035.714 -108691.071 173678.571 -108691.071 173535.714 -108619.642 173464.285 -108548.214 173392.857 -108405.357 173392.857 -108262.5 173464.285 -108119.642 173535.714 -108048.214 173678.571 -107976.785 173964.285 -107905.357 174107.142 -107833.928 174178.571 -107762.5 174250 -107619.642 174250 -107476.785 174178.571 -107333.928 174107.142 -107262.5 173964.285 -107191.071 173607.142 -107191.071 173392.857 -107262.5 M 172964.285 -107191.071 172107.142 -107191.071 M 172535.714 -108691.071 172535.714 -107191.071 M 171607.142 -107905.357 171107.142 -107905.357 M 170892.857 -108691.071 171607.142 -108691.071 171607.142 -107191.071 170892.857 -107191.071 M 170250 -108691.071 170250 -107191.071 169678.571 -107191.071 169535.714 -107262.5 169464.285 -107333.928 169392.857 -107476.785 169392.857 -107691.071 169464.285 -107833.928 169535.714 -107905.357 169678.571 -107976.785 170250 -107976.785 M 168750 -108691.071 168750 -107191.071 168178.571 -107191.071 168035.714 -107262.5 167964.285 -107333.928 167892.857 -107476.785 167892.857 -107691.071 167964.285 -107833.928 168035.714 -107905.357 168178.571 -107976.785 168750 -107976.785 M 167250 -107905.357 166750 -107905.357 M 166535.714 -108691.071 167250 -108691.071 167250 -107191.071 166535.714 -107191.071 M 165035.714 -108691.071 165535.714 -107976.785 M 165892.857 -108691.071 165892.857 -107191.071 165321.428 -107191.071 165178.571 -107262.5 165107.142 -107333.928 165035.714 -107476.785 165035.714 -107691.071 165107.142 -107833.928 165178.571 -107905.357 165321.428 -107976.785 165892.857 -107976.785 M 164392.857 -108119.642 163250 -108119.642 M 162535.714 -108691.071 162535.714 -107191.071 162178.571 -107191.071 161964.285 -107262.5 161821.428 -107405.357 161750 -107548.214 161678.571 -107833.928 161678.571 -108048.214 161750 -108333.928 161821.428 -108476.785 161964.285 -108619.642 162178.571 -108691.071 162535.714 -108691.071 M 160178.571 -108691.071 160678.571 -107976.785 M 161035.714 -108691.071 161035.714 -107191.071 160464.285 -107191.071 160321.428 -107262.5 160250 -107333.928 160178.571 -107476.785 160178.571 -107691.071 160250 -107833.928 160321.428 -107905.357 160464.285 -107976.785 161035.714 -107976.785 M 159535.714 -108691.071 159535.714 -107191.071 M 159035.714 -107191.071 158535.714 -108691.071 158035.714 -107191.071 M 157535.714 -107905.357 157035.714 -107905.357 M 156821.428 -108691.071 157535.714 -108691.071 157535.714 -107191.071 156821.428 -107191.071 M 155321.428 -108691.071 155821.428 -107976.785 M 156178.571 -108691.071 156178.571 -107191.071 155607.142 -107191.071 155464.285 -107262.5 155392.857 -107333.928 155321.428 -107476.785 155321.428 -107691.071 155392.857 -107833.928 155464.285 -107905.357 155607.142 -107976.785 156178.571 -107976.785 M 154678.571 -108119.642 153535.714 -108119.642 M 151964.285 -108548.214 152035.714 -108619.642 152250 -108691.071 152392.857 -108691.071 152607.142 -108619.642 152750 -108476.785 152821.428 -108333.928 152892.857 -108048.214 152892.857 -107833.928 152821.428 -107548.214 152750 -107405.357 152607.142 -107262.5 152392.857 -107191.071 152250 -107191.071 152035.714 -107262.5 151964.285 -107333.928 M 151392.857 -108262.5 150678.571 -108262.5 M 151535.714 -108691.071 151035.714 -107191.071 150535.714 -108691.071 M 149178.571 -108691.071 149678.571 -107976.785 M 150035.714 -108691.071 150035.714 -107191.071 149464.285 -107191.071 149321.428 -107262.5 149250 -107333.928 149178.571 -107476.785 149178.571 -107691.071 149250 -107833.928 149321.428 -107905.357 149464.285 -107976.785 150035.714 -107976.785 M 148535.714 -108691.071 148535.714 -107191.071 148178.571 -107191.071 147964.285 -107262.5 147821.428 -107405.357 147750 -107548.214 147678.571 -107833.928 147678.571 -108048.214 147750 -108333.928 147821.428 -108476.785 147964.285 -108619.642 148178.571 -108691.071 148535.714 -108691.071 M 145035.714 -108691.071 145535.714 -107976.785 M 145892.857 -108691.071 145892.857 -107191.071 145321.428 -107191.071 145178.571 -107262.5 145107.142 -107333.928 145035.714 -107476.785 145035.714 -107691.071 145107.142 -107833.928 145178.571 -107905.357 145321.428 -107976.785 145892.857 -107976.785 M 144392.857 -107905.357 143892.857 -107905.357 M 143678.571 -108691.071 144392.857 -108691.071 144392.857 -107191.071 143678.571 -107191.071 M 143250 -107191.071 142750 -108691.071 142250 -107191.071 M 140678.571 -108262.5 139964.285 -108262.5 M 140821.428 -108691.071 140321.428 -107191.071 139821.428 -108691.071 M 168571.428 -110320.357 168071.428 -110320.357 M 167857.142 -111106.071 168571.428 -111106.071 168571.428 -109606.071 167857.142 -109606.071 M 166500 -111106.071 167214.285 -111106.071 167214.285 -109606.071 M 165285.714 -111106.071 166000 -111106.071 166000 -109606.071 M 164785.714 -111106.071 164785.714 -109606.071 M 163785.714 -109606.071 163500 -109606.071 163357.142 -109677.5 163214.285 -109820.357 163142.857 -110106.071 163142.857 -110606.071 163214.285 -110891.785 163357.142 -111034.642 163500 -111106.071 163785.714 -111106.071 163928.571 -111034.642 164071.428 -110891.785 164142.857 -110606.071 164142.857 -110106.071 164071.428 -109820.357 163928.571 -109677.5 163785.714 -109606.071 M 162714.285 -109606.071 161857.142 -109606.071 M 162285.714 -111106.071 162285.714 -109606.071 M 160214.285 -110320.357 159714.285 -110320.357 M 159500 -111106.071 160214.285 -111106.071 160214.285 -109606.071 159500 -109606.071 M 158857.142 -111106.071 158857.142 -109606.071 M 157285.714 -110963.214 157357.142 -111034.642 157571.428 -111106.071 157714.285 -111106.071 157928.571 -111034.642 158071.428 -110891.785 158142.857 -110748.928 158214.285 -110463.214 158214.285 -110248.928 158142.857 -109963.214 158071.428 -109820.357 157928.571 -109677.5 157714.285 -109606.071 157571.428 -109606.071 157357.142 -109677.5 157285.714 -109748.928 M 156642.857 -111106.071 156642.857 -109606.071 M 155785.714 -111106.071 156428.571 -110248.928 M 155785.714 -109606.071 156642.857 -110463.214 M 155142.857 -111106.071 155142.857 -109606.071 M 155142.857 -110320.357 154285.714 -110320.357 M 154285.714 -111106.071 154285.714 -109606.071 M 153285.714 -109606.071 153000 -109606.071 152857.142 -109677.5 152714.285 -109820.357 152642.857 -110106.071 152642.857 -110606.071 152714.285 -110891.785 152857.142 -111034.642 153000 -111106.071 153285.714 -111106.071 153428.571 -111034.642 153571.428 -110891.785 153642.857 -110606.071 153642.857 -110106.071 153571.428 -109820.357 153428.571 -109677.5 153285.714 -109606.071 M 151285.714 -111106.071 152000 -111106.071 152000 -109606.071 M 151000 -109606.071 150142.857 -109606.071 M 150571.428 -111106.071 150571.428 -109606.071 M 149785.714 -109606.071 148785.714 -109606.071 149785.714 -111106.071 148785.714 -111106.071" fill="none" stroke-width="300"/></g></g></svg>