<svg version="1.1" xmlns="http://www.w3.org/2000/svg" xmlns:xlink="http://www.w3.org/1999/xlink" stroke-linecap="round" stroke-linejoin="round" stroke-width="0" fill-rule="evenodd" width="3.5923499999999997in" height="2.4288000000000003in" viewBox="4390.3 -4503.95 3592.35 2428.8" id="pVdLQQU40YMBzo26Y0c9"><defs><circle cx="0" cy="0" r="7.85" id="pVdLQQU40YMBzo26Y0c9_pad-1"/><circle cx="0" cy="0" r="15.75" id="pVdLQQU40YMBzo26Y0c9_pad-2"/><circle cx="0" cy="0" r="15.75" id="pVdLQQU40YMBzo26Y0c9_pad-3"/><circle cx="0" cy="0" r="19.7" id="pVdLQQU40YMBzo26Y0c9_pad-4"/></defs><g transform="translate(0,-6579.099999999999) scale(1,-1)" fill="currentColor" stroke="currentColor"><use xlink:href="#pVdLQQU40YMBzo26Y0c9_pad-1" x="7401.6" y="-4448.8"/><use xlink:href="#pVdLQQU40YMBzo26Y0c9_pad-2" x="5157.5" y="-4488.2"/><use xlink:href="#pVdLQQU40YMBzo26Y0c9_pad-2" x="5275.6" y="-4409.4"/><use xlink:href="#pVdLQQU40YMBzo26Y0c9_pad-3" x="4550" y="-3000"/><use xlink:href="#pVdLQQU40YMBzo26Y0c9_pad-3" x="4550" y="-3098.4"/><use xlink:href="#pVdLQQU40YMBzo26Y0c9_pad-3" x="4550" y="-4200"/><use xlink:href="#pVdLQQU40YMBzo26Y0c9_pad-3" x="4550" y="-4298.4"/><use xlink:href="#pVdLQQU40YMBzo26Y0c9_pad-3" x="4553.5" y="-2090.9"/><use xlink:href="#pVdLQQU40YMBzo26Y0c9_pad-3" x="4553.5" y="-2190.9"/><use xlink:href="#pVdLQQU40YMBzo26Y0c9_pad-3" x="4553.5" y="-2290.9"/><use xlink:href="#pVdLQQU40YMBzo26Y0c9_pad-3" x="4553.5" y="-2390.9"/><use xlink:href="#pVdLQQU40YMBzo26Y0c9_pad-3" x="4553.5" y="-2490.9"/><use xlink:href="#pVdLQQU40YMBzo26Y0c9_pad-3" x="4553.5" y="-2590.9"/><use xlink:href="#pVdLQQU40YMBzo26Y0c9_pad-3" x="4553.5" y="-2690.9"/><use xlink:href="#pVdLQQU40YMBzo26Y0c9_pad-3" x="4553.5" y="-2790.9"/><use xlink:href="#pVdLQQU40YMBzo26Y0c9_pad-3" x="4553.5" y="-3311.4"/><use xlink:href="#pVdLQQU40YMBzo26Y0c9_pad-3" x="4553.5" y="-3411.4"/><use xlink:href="#pVdLQQU40YMBzo26Y0c9_pad-3" x="4553.5" y="-3511.4"/><use xlink:href="#pVdLQQU40YMBzo26Y0c9_pad-3" x="4553.5" y="-3611.4"/><use xlink:href="#pVdLQQU40YMBzo26Y0c9_pad-3" x="4553.5" y="-3711.4"/><use xlink:href="#pVdLQQU40YMBzo26Y0c9_pad-3" x="4553.5" y="-3811.4"/><use xlink:href="#pVdLQQU40YMBzo26Y0c9_pad-3" x="4553.5" y="-3911.4"/><use xlink:href="#pVdLQQU40YMBzo26Y0c9_pad-3" x="4553.5" y="-4011.4"/><use xlink:href="#pVdLQQU40YMBzo26Y0c9_pad-3" x="5053.5" y="-2090.9"/><use xlink:href="#pVdLQQU40YMBzo26Y0c9_pad-3" x="5053.5" y="-2190.9"/><use xlink:href="#pVdLQQU40YMBzo26Y0c9_pad-3" x="5053.5" y="-2290.9"/><use xlink:href="#pVdLQQU40YMBzo26Y0c9_pad-3" x="5053.5" y="-2390.9"/><use xlink:href="#pVdLQQU40YMBzo26Y0c9_pad-3" x="5053.5" y="-2490.9"/><use xlink:href="#pVdLQQU40YMBzo26Y0c9_pad-3" x="5053.5" y="-2590.9"/><use xlink:href="#pVdLQQU40YMBzo26Y0c9_pad-3" x="5053.5" y="-2690.9"/><use xlink:href="#pVdLQQU40YMBzo26Y0c9_pad-3" x="5053.5" y="-2790.9"/><use xlink:href="#pVdLQQU40YMBzo26Y0c9_pad-3" x="5053.5" y="-3311.4"/><use xlink:href="#pVdLQQU40YMBzo26Y0c9_pad-3" x="5053.5" y="-3411.4"/><use xlink:href="#pVdLQQU40YMBzo26Y0c9_pad-3" x="5053.5" y="-3511.4"/><use xlink:href="#pVdLQQU40YMBzo26Y0c9_pad-3" x="5053.5" y="-3611.4"/><use xlink:href="#pVdLQQU40YMBzo26Y0c9_pad-3" x="5053.5" y="-3711.4"/><use xlink:href="#pVdLQQU40YMBzo26Y0c9_pad-3" x="5053.5" y="-3811.4"/><use xlink:href="#pVdLQQU40YMBzo26Y0c9_pad-3" x="5053.5" y="-3911.4"/><use xlink:href="#pVdLQQU40YMBzo26Y0c9_pad-3" x="5053.5" y="-4011.4"/><use xlink:href="#pVdLQQU40YMBzo26Y0c9_pad-3" x="5285.4" y="-3914.7"/><use xlink:href="#pVdLQQU40YMBzo26Y0c9_pad-3" x="5285.4" y="-4013.1"/><use xlink:href="#pVdLQQU40YMBzo26Y0c9_pad-3" x="5524.7" y="-2090.9"/><use xlink:href="#pVdLQQU40YMBzo26Y0c9_pad-3" x="5524.7" y="-2190.9"/><use xlink:href="#pVdLQQU40YMBzo26Y0c9_pad-3" x="5524.7" y="-2290.9"/><use xlink:href="#pVdLQQU40YMBzo26Y0c9_pad-3" x="5524.7" y="-2390.9"/><use xlink:href="#pVdLQQU40YMBzo26Y0c9_pad-3" x="5524.7" y="-2490.9"/><use xlink:href="#pVdLQQU40YMBzo26Y0c9_pad-3" x="5524.7" y="-2590.9"/><use xlink:href="#pVdLQQU40YMBzo26Y0c9_pad-3" x="5524.7" y="-2690.9"/><use xlink:href="#pVdLQQU40YMBzo26Y0c9_pad-3" x="5524.7" y="-2790.9"/><use xlink:href="#pVdLQQU40YMBzo26Y0c9_pad-3" x="5524.7" y="-3001.6"/><use xlink:href="#pVdLQQU40YMBzo26Y0c9_pad-3" x="5524.7" y="-3100"/><use xlink:href="#pVdLQQU40YMBzo26Y0c9_pad-3" x="5524.7" y="-3311.4"/><use xlink:href="#pVdLQQU40YMBzo26Y0c9_pad-3" x="5524.7" y="-3411.4"/><use xlink:href="#pVdLQQU40YMBzo26Y0c9_pad-3" x="5524.7" y="-3511.4"/><use xlink:href="#pVdLQQU40YMBzo26Y0c9_pad-3" x="5524.7" y="-3611.4"/><use xlink:href="#pVdLQQU40YMBzo26Y0c9_pad-3" x="5524.7" y="-3711.4"/><use xlink:href="#pVdLQQU40YMBzo26Y0c9_pad-3" x="5524.7" y="-3811.4"/><use xlink:href="#pVdLQQU40YMBzo26Y0c9_pad-3" x="5524.7" y="-3911.4"/><use xlink:href="#pVdLQQU40YMBzo26Y0c9_pad-3" x="5524.7" y="-4011.4"/><use xlink:href="#pVdLQQU40YMBzo26Y0c9_pad-3" x="6024.7" y="-2090.9"/><use xlink:href="#pVdLQQU40YMBzo26Y0c9_pad-3" x="6024.7" y="-2190.9"/><use xlink:href="#pVdLQQU40YMBzo26Y0c9_pad-3" x="6024.7" y="-2290.9"/><use xlink:href="#pVdLQQU40YMBzo26Y0c9_pad-3" x="6024.7" y="-2390.9"/><use xlink:href="#pVdLQQU40YMBzo26Y0c9_pad-3" x="6024.7" y="-2490.9"/><use xlink:href="#pVdLQQU40YMBzo26Y0c9_pad-3" x="6024.7" y="-2590.9"/><use xlink:href="#pVdLQQU40YMBzo26Y0c9_pad-3" x="6024.7" y="-2690.9"/><use xlink:href="#pVdLQQU40YMBzo26Y0c9_pad-3" x="6024.7" y="-2790.9"/><use xlink:href="#pVdLQQU40YMBzo26Y0c9_pad-3" x="6024.7" y="-3311.4"/><use xlink:href="#pVdLQQU40YMBzo26Y0c9_pad-3" x="6024.7" y="-3411.4"/><use xlink:href="#pVdLQQU40YMBzo26Y0c9_pad-3" x="6024.7" y="-3511.4"/><use xlink:href="#pVdLQQU40YMBzo26Y0c9_pad-3" x="6024.7" y="-3611.4"/><use xlink:href="#pVdLQQU40YMBzo26Y0c9_pad-3" x="6024.7" y="-3711.4"/><use xlink:href="#pVdLQQU40YMBzo26Y0c9_pad-3" x="6024.7" y="-3811.4"/><use xlink:href="#pVdLQQU40YMBzo26Y0c9_pad-3" x="6024.7" y="-3911.4"/><use xlink:href="#pVdLQQU40YMBzo26Y0c9_pad-3" x="6024.7" y="-4011.4"/><use xlink:href="#pVdLQQU40YMBzo26Y0c9_pad-3" x="6259.8" y="-3914.7"/><use xlink:href="#pVdLQQU40YMBzo26Y0c9_pad-3" x="6259.8" y="-4013.1"/><use xlink:href="#pVdLQQU40YMBzo26Y0c9_pad-3" x="6495.8" y="-2090.9"/><use xlink:href="#pVdLQQU40YMBzo26Y0c9_pad-3" x="6495.8" y="-2190.9"/><use xlink:href="#pVdLQQU40YMBzo26Y0c9_pad-3" x="6495.8" y="-2290.9"/><use xlink:href="#pVdLQQU40YMBzo26Y0c9_pad-3" x="6495.8" y="-2390.9"/><use xlink:href="#pVdLQQU40YMBzo26Y0c9_pad-3" x="6495.8" y="-2490.9"/><use xlink:href="#pVdLQQU40YMBzo26Y0c9_pad-3" x="6495.8" y="-2590.9"/><use xlink:href="#pVdLQQU40YMBzo26Y0c9_pad-3" x="6495.8" y="-2690.9"/><use xlink:href="#pVdLQQU40YMBzo26Y0c9_pad-3" x="6495.8" y="-2790.9"/><use xlink:href="#pVdLQQU40YMBzo26Y0c9_pad-3" x="6495.8" y="-3003.4"/><use xlink:href="#pVdLQQU40YMBzo26Y0c9_pad-3" x="6495.8" y="-3101.9"/><use xlink:href="#pVdLQQU40YMBzo26Y0c9_pad-3" x="6495.8" y="-3311.4"/><use xlink:href="#pVdLQQU40YMBzo26Y0c9_pad-3" x="6495.8" y="-3411.4"/><use xlink:href="#pVdLQQU40YMBzo26Y0c9_pad-3" x="6495.8" y="-3511.4"/><use xlink:href="#pVdLQQU40YMBzo26Y0c9_pad-3" x="6495.8" y="-3611.4"/><use xlink:href="#pVdLQQU40YMBzo26Y0c9_pad-3" x="6495.8" y="-3711.4"/><use xlink:href="#pVdLQQU40YMBzo26Y0c9_pad-3" x="6495.8" y="-3811.4"/><use xlink:href="#pVdLQQU40YMBzo26Y0c9_pad-3" x="6495.8" y="-3911.4"/><use xlink:href="#pVdLQQU40YMBzo26Y0c9_pad-3" x="6495.8" y="-4011.4"/><use xlink:href="#pVdLQQU40YMBzo26Y0c9_pad-3" x="6995.8" y="-2090.9"/><use xlink:href="#pVdLQQU40YMBzo26Y0c9_pad-3" x="6995.8" y="-2190.9"/><use xlink:href="#pVdLQQU40YMBzo26Y0c9_pad-3" x="6995.8" y="-2290.9"/><use xlink:href="#pVdLQQU40YMBzo26Y0c9_pad-3" x="6995.8" y="-2390.9"/><use xlink:href="#pVdLQQU40YMBzo26Y0c9_pad-3" x="6995.8" y="-2490.9"/><use xlink:href="#pVdLQQU40YMBzo26Y0c9_pad-3" x="6995.8" y="-2590.9"/><use xlink:href="#pVdLQQU40YMBzo26Y0c9_pad-3" x="6995.8" y="-2690.9"/><use xlink:href="#pVdLQQU40YMBzo26Y0c9_pad-3" x="6995.8" y="-2790.9"/><use xlink:href="#pVdLQQU40YMBzo26Y0c9_pad-3" x="6995.8" y="-3311.4"/><use xlink:href="#pVdLQQU40YMBzo26Y0c9_pad-3" x="6995.8" y="-3411.4"/><use xlink:href="#pVdLQQU40YMBzo26Y0c9_pad-3" x="6995.8" y="-3511.4"/><use xlink:href="#pVdLQQU40YMBzo26Y0c9_pad-3" x="6995.8" y="-3611.4"/><use xlink:href="#pVdLQQU40YMBzo26Y0c9_pad-3" x="6995.8" y="-3711.4"/><use xlink:href="#pVdLQQU40YMBzo26Y0c9_pad-3" x="6995.8" y="-3811.4"/><use xlink:href="#pVdLQQU40YMBzo26Y0c9_pad-3" x="6995.8" y="-3911.4"/><use xlink:href="#pVdLQQU40YMBzo26Y0c9_pad-3" x="6995.8" y="-4011.4"/><use xlink:href="#pVdLQQU40YMBzo26Y0c9_pad-3" x="7244.1" y="-3914.7"/><use xlink:href="#pVdLQQU40YMBzo26Y0c9_pad-3" x="7244.1" y="-4013.1"/><use xlink:href="#pVdLQQU40YMBzo26Y0c9_pad-3" x="7466.9" y="-2090.9"/><use xlink:href="#pVdLQQU40YMBzo26Y0c9_pad-3" x="7466.9" y="-2190.9"/><use xlink:href="#pVdLQQU40YMBzo26Y0c9_pad-3" x="7466.9" y="-2290.9"/><use xlink:href="#pVdLQQU40YMBzo26Y0c9_pad-3" x="7466.9" y="-2390.9"/><use xlink:href="#pVdLQQU40YMBzo26Y0c9_pad-3" x="7466.9" y="-2490.9"/><use xlink:href="#pVdLQQU40YMBzo26Y0c9_pad-3" x="7466.9" y="-2590.9"/><use xlink:href="#pVdLQQU40YMBzo26Y0c9_pad-3" x="7466.9" y="-2690.9"/><use xlink:href="#pVdLQQU40YMBzo26Y0c9_pad-3" x="7466.9" y="-2790.9"/><use xlink:href="#pVdLQQU40YMBzo26Y0c9_pad-3" x="7466.9" y="-3000"/><use xlink:href="#pVdLQQU40YMBzo26Y0c9_pad-3" x="7466.9" y="-3098.4"/><use xlink:href="#pVdLQQU40YMBzo26Y0c9_pad-3" x="7466.9" y="-3311.4"/><use xlink:href="#pVdLQQU40YMBzo26Y0c9_pad-3" x="7466.9" y="-3411.4"/><use xlink:href="#pVdLQQU40YMBzo26Y0c9_pad-3" x="7466.9" y="-3511.4"/><use xlink:href="#pVdLQQU40YMBzo26Y0c9_pad-3" x="7466.9" y="-3611.4"/><use xlink:href="#pVdLQQU40YMBzo26Y0c9_pad-3" x="7466.9" y="-3711.4"/><use xlink:href="#pVdLQQU40YMBzo26Y0c9_pad-3" x="7466.9" y="-3811.4"/><use xlink:href="#pVdLQQU40YMBzo26Y0c9_pad-3" x="7466.9" y="-3911.4"/><use xlink:href="#pVdLQQU40YMBzo26Y0c9_pad-3" x="7466.9" y="-4011.4"/><use xlink:href="#pVdLQQU40YMBzo26Y0c9_pad-3" x="7966.9" y="-2090.9"/><use xlink:href="#pVdLQQU40YMBzo26Y0c9_pad-3" x="7966.9" y="-2190.9"/><use xlink:href="#pVdLQQU40YMBzo26Y0c9_pad-3" x="7966.9" y="-2290.9"/><use xlink:href="#pVdLQQU40YMBzo26Y0c9_pad-3" x="7966.9" y="-2390.9"/><use xlink:href="#pVdLQQU40YMBzo26Y0c9_pad-3" x="7966.9" y="-2490.9"/><use xlink:href="#pVdLQQU40YMBzo26Y0c9_pad-3" x="7966.9" y="-2590.9"/><use xlink:href="#pVdLQQU40YMBzo26Y0c9_pad-3" x="7966.9" y="-2690.9"/><use xlink:href="#pVdLQQU40YMBzo26Y0c9_pad-3" x="7966.9" y="-2790.9"/><use xlink:href="#pVdLQQU40YMBzo26Y0c9_pad-3" x="7966.9" y="-3311.4"/><use xlink:href="#pVdLQQU40YMBzo26Y0c9_pad-3" x="7966.9" y="-3411.4"/><use xlink:href="#pVdLQQU40YMBzo26Y0c9_pad-3" x="7966.9" y="-3511.4"/><use xlink:href="#pVdLQQU40YMBzo26Y0c9_pad-3" x="7966.9" y="-3611.4"/><use xlink:href="#pVdLQQU40YMBzo26Y0c9_pad-3" x="7966.9" y="-3711.4"/><use xlink:href="#pVdLQQU40YMBzo26Y0c9_pad-3" x="7966.9" y="-3811.4"/><use xlink:href="#pVdLQQU40YMBzo26Y0c9_pad-3" x="7966.9" y="-3911.4"/><use xlink:href="#pVdLQQU40YMBzo26Y0c9_pad-3" x="7966.9" y="-4011.4"/><use xlink:href="#pVdLQQU40YMBzo26Y0c9_pad-4" x="4410" y="-2290.4"/><use xlink:href="#pVdLQQU40YMBzo26Y0c9_pad-4" x="4410" y="-2390.4"/><use xlink:href="#pVdLQQU40YMBzo26Y0c9_pad-4" x="4410" y="-2490.4"/><use xlink:href="#pVdLQQU40YMBzo26Y0c9_pad-4" x="4410" y="-2590.4"/><use xlink:href="#pVdLQQU40YMBzo26Y0c9_pad-4" x="4410" y="-3410.4"/><use xlink:href="#pVdLQQU40YMBzo26Y0c9_pad-4" x="4410" y="-3510.4"/><use xlink:href="#pVdLQQU40YMBzo26Y0c9_pad-4" x="4410" y="-3610.4"/><use xlink:href="#pVdLQQU40YMBzo26Y0c9_pad-4" x="4410" y="-3710.4"/><use xlink:href="#pVdLQQU40YMBzo26Y0c9_pad-4" x="5380" y="-2290.4"/><use xlink:href="#pVdLQQU40YMBzo26Y0c9_pad-4" x="5380" y="-2390.4"/><use xlink:href="#pVdLQQU40YMBzo26Y0c9_pad-4" x="5380" y="-2490.4"/><use xlink:href="#pVdLQQU40YMBzo26Y0c9_pad-4" x="5380" y="-2590.4"/><use xlink:href="#pVdLQQU40YMBzo26Y0c9_pad-4" x="5380" y="-3410.4"/><use xlink:href="#pVdLQQU40YMBzo26Y0c9_pad-4" x="5380" y="-3510.4"/><use xlink:href="#pVdLQQU40YMBzo26Y0c9_pad-4" x="5380" y="-3610.4"/><use xlink:href="#pVdLQQU40YMBzo26Y0c9_pad-4" x="5380" y="-3710.4"/><use xlink:href="#pVdLQQU40YMBzo26Y0c9_pad-4" x="6350" y="-2290.4"/><use xlink:href="#pVdLQQU40YMBzo26Y0c9_pad-4" x="6350" y="-2390.4"/><use xlink:href="#pVdLQQU40YMBzo26Y0c9_pad-4" x="6350" y="-2490.4"/><use xlink:href="#pVdLQQU40YMBzo26Y0c9_pad-4" x="6350" y="-2590.4"/><use xlink:href="#pVdLQQU40YMBzo26Y0c9_pad-4" x="6350" y="-3410.4"/><use xlink:href="#pVdLQQU40YMBzo26Y0c9_pad-4" x="6350" y="-3510.4"/><use xlink:href="#pVdLQQU40YMBzo26Y0c9_pad-4" x="6350" y="-3610.4"/><use xlink:href="#pVdLQQU40YMBzo26Y0c9_pad-4" x="6350" y="-3710.4"/><use xlink:href="#pVdLQQU40YMBzo26Y0c9_pad-4" x="7320" y="-2290.4"/><use xlink:href="#pVdLQQU40YMBzo26Y0c9_pad-4" x="7320" y="-2390.4"/><use xlink:href="#pVdLQQU40YMBzo26Y0c9_pad-4" x="7320" y="-2490.4"/><use xlink:href="#pVdLQQU40YMBzo26Y0c9_pad-4" x="7320" y="-2590.4"/><use xlink:href="#pVdLQQU40YMBzo26Y0c9_pad-4" x="7320" y="-3410.4"/><use xlink:href="#pVdLQQU40YMBzo26Y0c9_pad-4" x="7320" y="-3510.4"/><use xlink:href="#pVdLQQU40YMBzo26Y0c9_pad-4" x="7320" y="-3610.4"/><use xlink:href="#pVdLQQU40YMBzo26Y0c9_pad-4" x="7320" y="-3710.4"/></g></svg>