<svg version="1.1" xmlns="http://www.w3.org/2000/svg" xmlns:xlink="http://www.w3.org/1999/xlink" stroke-linecap="round" stroke-linejoin="round" stroke-width="0" fill-rule="evenodd" width="91.996mm" height="69.035mm" viewBox="111164 -121345 91996 69035" id="tAXc7B1QFSvK-HdgNxOe"><defs><rect x="-800" y="-800" width="1600" height="1600" id="tAXc7B1QFSvK-HdgNxOe_pad-11"/><circle cx="0" cy="0" r="800" id="tAXc7B1QFSvK-HdgNxOe_pad-12"/><rect x="-800" y="-800" width="1600" height="1600" rx="800" ry="800" id="tAXc7B1QFSvK-HdgNxOe_pad-13"/><rect x="-850" y="-850" width="1700" height="1700" id="tAXc7B1QFSvK-HdgNxOe_pad-14"/><rect x="-850" y="-850" width="1700" height="1700" rx="850" ry="850" id="tAXc7B1QFSvK-HdgNxOe_pad-15"/></defs><g transform="translate(0,-173655) scale(1,-1)" fill="currentColor" stroke="currentColor"><path d="M 189270 -116785 128270 -116785 128270 -121285 189270 -121285 189270 -116785" fill="none" stroke-width="120"/><path d="M 189270 -116785 128270 -116785 128270 -121285 189270 -121285 189270 -116785"/><use xlink:href="#tAXc7B1QFSvK-HdgNxOe_pad-11" x="134250" y="-101932.38"/><use xlink:href="#tAXc7B1QFSvK-HdgNxOe_pad-12" x="134250" y="-99432.38"/><use xlink:href="#tAXc7B1QFSvK-HdgNxOe_pad-11" x="189660" y="-84110"/><use xlink:href="#tAXc7B1QFSvK-HdgNxOe_pad-13" x="189660" y="-86650"/><use xlink:href="#tAXc7B1QFSvK-HdgNxOe_pad-13" x="189660" y="-89190"/><use xlink:href="#tAXc7B1QFSvK-HdgNxOe_pad-13" x="189660" y="-91730"/><use xlink:href="#tAXc7B1QFSvK-HdgNxOe_pad-13" x="189660" y="-94270"/><use xlink:href="#tAXc7B1QFSvK-HdgNxOe_pad-13" x="189660" y="-96810"/><use xlink:href="#tAXc7B1QFSvK-HdgNxOe_pad-13" x="189660" y="-99350"/><use xlink:href="#tAXc7B1QFSvK-HdgNxOe_pad-13" x="189660" y="-101890"/><use xlink:href="#tAXc7B1QFSvK-HdgNxOe_pad-13" x="202360" y="-101890"/><use xlink:href="#tAXc7B1QFSvK-HdgNxOe_pad-13" x="202360" y="-99350"/><use xlink:href="#tAXc7B1QFSvK-HdgNxOe_pad-13" x="202360" y="-96810"/><use xlink:href="#tAXc7B1QFSvK-HdgNxOe_pad-13" x="202360" y="-94270"/><use xlink:href="#tAXc7B1QFSvK-HdgNxOe_pad-13" x="202360" y="-91730"/><use xlink:href="#tAXc7B1QFSvK-HdgNxOe_pad-13" x="202360" y="-89190"/><use xlink:href="#tAXc7B1QFSvK-HdgNxOe_pad-13" x="202360" y="-86650"/><use xlink:href="#tAXc7B1QFSvK-HdgNxOe_pad-13" x="202360" y="-84110"/><use xlink:href="#tAXc7B1QFSvK-HdgNxOe_pad-11" x="164993.332" y="-84110"/><use xlink:href="#tAXc7B1QFSvK-HdgNxOe_pad-13" x="164993.332" y="-86650"/><use xlink:href="#tAXc7B1QFSvK-HdgNxOe_pad-13" x="164993.332" y="-89190"/><use xlink:href="#tAXc7B1QFSvK-HdgNxOe_pad-13" x="164993.332" y="-91730"/><use xlink:href="#tAXc7B1QFSvK-HdgNxOe_pad-13" x="164993.332" y="-94270"/><use xlink:href="#tAXc7B1QFSvK-HdgNxOe_pad-13" x="164993.332" y="-96810"/><use xlink:href="#tAXc7B1QFSvK-HdgNxOe_pad-13" x="164993.332" y="-99350"/><use xlink:href="#tAXc7B1QFSvK-HdgNxOe_pad-13" x="164993.332" y="-101890"/><use xlink:href="#tAXc7B1QFSvK-HdgNxOe_pad-13" x="177693.332" y="-101890"/><use xlink:href="#tAXc7B1QFSvK-HdgNxOe_pad-13" x="177693.332" y="-99350"/><use xlink:href="#tAXc7B1QFSvK-HdgNxOe_pad-13" x="177693.332" y="-96810"/><use xlink:href="#tAXc7B1QFSvK-HdgNxOe_pad-13" x="177693.332" y="-94270"/><use xlink:href="#tAXc7B1QFSvK-HdgNxOe_pad-13" x="177693.332" y="-91730"/><use xlink:href="#tAXc7B1QFSvK-HdgNxOe_pad-13" x="177693.332" y="-89190"/><use xlink:href="#tAXc7B1QFSvK-HdgNxOe_pad-13" x="177693.332" y="-86650"/><use xlink:href="#tAXc7B1QFSvK-HdgNxOe_pad-13" x="177693.332" y="-84110"/><use xlink:href="#tAXc7B1QFSvK-HdgNxOe_pad-11" x="164993.332" y="-53110"/><use xlink:href="#tAXc7B1QFSvK-HdgNxOe_pad-13" x="164993.332" y="-55650"/><use xlink:href="#tAXc7B1QFSvK-HdgNxOe_pad-13" x="164993.332" y="-58190"/><use xlink:href="#tAXc7B1QFSvK-HdgNxOe_pad-13" x="164993.332" y="-60730"/><use xlink:href="#tAXc7B1QFSvK-HdgNxOe_pad-13" x="164993.332" y="-63270"/><use xlink:href="#tAXc7B1QFSvK-HdgNxOe_pad-13" x="164993.332" y="-65810"/><use xlink:href="#tAXc7B1QFSvK-HdgNxOe_pad-13" x="164993.332" y="-68350"/><use xlink:href="#tAXc7B1QFSvK-HdgNxOe_pad-13" x="164993.332" y="-70890"/><use xlink:href="#tAXc7B1QFSvK-HdgNxOe_pad-13" x="177693.332" y="-70890"/><use xlink:href="#tAXc7B1QFSvK-HdgNxOe_pad-13" x="177693.332" y="-68350"/><use xlink:href="#tAXc7B1QFSvK-HdgNxOe_pad-13" x="177693.332" y="-65810"/><use xlink:href="#tAXc7B1QFSvK-HdgNxOe_pad-13" x="177693.332" y="-63270"/><use xlink:href="#tAXc7B1QFSvK-HdgNxOe_pad-13" x="177693.332" y="-60730"/><use xlink:href="#tAXc7B1QFSvK-HdgNxOe_pad-13" x="177693.332" y="-58190"/><use xlink:href="#tAXc7B1QFSvK-HdgNxOe_pad-13" x="177693.332" y="-55650"/><use xlink:href="#tAXc7B1QFSvK-HdgNxOe_pad-13" x="177693.332" y="-53110"/><use xlink:href="#tAXc7B1QFSvK-HdgNxOe_pad-14" x="112014" y="-86624"/><use xlink:href="#tAXc7B1QFSvK-HdgNxOe_pad-15" x="112014" y="-89164"/><use xlink:href="#tAXc7B1QFSvK-HdgNxOe_pad-15" x="112014" y="-91704"/><use xlink:href="#tAXc7B1QFSvK-HdgNxOe_pad-15" x="112014" y="-94244"/><use xlink:href="#tAXc7B1QFSvK-HdgNxOe_pad-11" x="140326.666" y="-53110"/><use xlink:href="#tAXc7B1QFSvK-HdgNxOe_pad-13" x="140326.666" y="-55650"/><use xlink:href="#tAXc7B1QFSvK-HdgNxOe_pad-13" x="140326.666" y="-58190"/><use xlink:href="#tAXc7B1QFSvK-HdgNxOe_pad-13" x="140326.666" y="-60730"/><use xlink:href="#tAXc7B1QFSvK-HdgNxOe_pad-13" x="140326.666" y="-63270"/><use xlink:href="#tAXc7B1QFSvK-HdgNxOe_pad-13" x="140326.666" y="-65810"/><use xlink:href="#tAXc7B1QFSvK-HdgNxOe_pad-13" x="140326.666" y="-68350"/><use xlink:href="#tAXc7B1QFSvK-HdgNxOe_pad-13" x="140326.666" y="-70890"/><use xlink:href="#tAXc7B1QFSvK-HdgNxOe_pad-13" x="153026.666" y="-70890"/><use xlink:href="#tAXc7B1QFSvK-HdgNxOe_pad-13" x="153026.666" y="-68350"/><use xlink:href="#tAXc7B1QFSvK-HdgNxOe_pad-13" x="153026.666" y="-65810"/><use xlink:href="#tAXc7B1QFSvK-HdgNxOe_pad-13" x="153026.666" y="-63270"/><use xlink:href="#tAXc7B1QFSvK-HdgNxOe_pad-13" x="153026.666" y="-60730"/><use xlink:href="#tAXc7B1QFSvK-HdgNxOe_pad-13" x="153026.666" y="-58190"/><use xlink:href="#tAXc7B1QFSvK-HdgNxOe_pad-13" x="153026.666" y="-55650"/><use xlink:href="#tAXc7B1QFSvK-HdgNxOe_pad-13" x="153026.666" y="-53110"/><use xlink:href="#tAXc7B1QFSvK-HdgNxOe_pad-11" x="159000" y="-101932.38"/><use xlink:href="#tAXc7B1QFSvK-HdgNxOe_pad-12" x="159000" y="-99432.38"/><use xlink:href="#tAXc7B1QFSvK-HdgNxOe_pad-11" x="140326.666" y="-76240"/><use xlink:href="#tAXc7B1QFSvK-HdgNxOe_pad-12" x="140326.666" y="-78740"/><use xlink:href="#tAXc7B1QFSvK-HdgNxOe_pad-11" x="115660" y="-53110"/><use xlink:href="#tAXc7B1QFSvK-HdgNxOe_pad-13" x="115660" y="-55650"/><use xlink:href="#tAXc7B1QFSvK-HdgNxOe_pad-13" x="115660" y="-58190"/><use xlink:href="#tAXc7B1QFSvK-HdgNxOe_pad-13" x="115660" y="-60730"/><use xlink:href="#tAXc7B1QFSvK-HdgNxOe_pad-13" x="115660" y="-63270"/><use xlink:href="#tAXc7B1QFSvK-HdgNxOe_pad-13" x="115660" y="-65810"/><use xlink:href="#tAXc7B1QFSvK-HdgNxOe_pad-13" x="115660" y="-68350"/><use xlink:href="#tAXc7B1QFSvK-HdgNxOe_pad-13" x="115660" y="-70890"/><use xlink:href="#tAXc7B1QFSvK-HdgNxOe_pad-13" x="128360" y="-70890"/><use xlink:href="#tAXc7B1QFSvK-HdgNxOe_pad-13" x="128360" y="-68350"/><use xlink:href="#tAXc7B1QFSvK-HdgNxOe_pad-13" x="128360" y="-65810"/><use xlink:href="#tAXc7B1QFSvK-HdgNxOe_pad-13" x="128360" y="-63270"/><use xlink:href="#tAXc7B1QFSvK-HdgNxOe_pad-13" x="128360" y="-60730"/><use xlink:href="#tAXc7B1QFSvK-HdgNxOe_pad-13" x="128360" y="-58190"/><use xlink:href="#tAXc7B1QFSvK-HdgNxOe_pad-13" x="128360" y="-55650"/><use xlink:href="#tAXc7B1QFSvK-HdgNxOe_pad-13" x="128360" y="-53110"/><use xlink:href="#tAXc7B1QFSvK-HdgNxOe_pad-11" x="115570" y="-106680"/><use xlink:href="#tAXc7B1QFSvK-HdgNxOe_pad-12" x="115570" y="-109180"/><use xlink:href="#tAXc7B1QFSvK-HdgNxOe_pad-14" x="185928" y="-86624"/><use xlink:href="#tAXc7B1QFSvK-HdgNxOe_pad-15" x="185928" y="-89164"/><use xlink:href="#tAXc7B1QFSvK-HdgNxOe_pad-15" x="185928" y="-91704"/><use xlink:href="#tAXc7B1QFSvK-HdgNxOe_pad-15" x="185928" y="-94244"/><use xlink:href="#tAXc7B1QFSvK-HdgNxOe_pad-14" x="161290" y="-86624"/><use xlink:href="#tAXc7B1QFSvK-HdgNxOe_pad-15" x="161290" y="-89164"/><use xlink:href="#tAXc7B1QFSvK-HdgNxOe_pad-15" x="161290" y="-91704"/><use xlink:href="#tAXc7B1QFSvK-HdgNxOe_pad-15" x="161290" y="-94244"/><use xlink:href="#tAXc7B1QFSvK-HdgNxOe_pad-14" x="112014" y="-58176"/><use xlink:href="#tAXc7B1QFSvK-HdgNxOe_pad-15" x="112014" y="-60716"/><use xlink:href="#tAXc7B1QFSvK-HdgNxOe_pad-15" x="112014" y="-63256"/><use xlink:href="#tAXc7B1QFSvK-HdgNxOe_pad-15" x="112014" y="-65796"/><use xlink:href="#tAXc7B1QFSvK-HdgNxOe_pad-11" x="115570" y="-76200"/><use xlink:href="#tAXc7B1QFSvK-HdgNxOe_pad-12" x="115570" y="-78700"/><use xlink:href="#tAXc7B1QFSvK-HdgNxOe_pad-11" x="140326.666" y="-84110"/><use xlink:href="#tAXc7B1QFSvK-HdgNxOe_pad-13" x="140326.666" y="-86650"/><use xlink:href="#tAXc7B1QFSvK-HdgNxOe_pad-13" x="140326.666" y="-89190"/><use xlink:href="#tAXc7B1QFSvK-HdgNxOe_pad-13" x="140326.666" y="-91730"/><use xlink:href="#tAXc7B1QFSvK-HdgNxOe_pad-13" x="140326.666" y="-94270"/><use xlink:href="#tAXc7B1QFSvK-HdgNxOe_pad-13" x="140326.666" y="-96810"/><use xlink:href="#tAXc7B1QFSvK-HdgNxOe_pad-13" x="140326.666" y="-99350"/><use xlink:href="#tAXc7B1QFSvK-HdgNxOe_pad-13" x="140326.666" y="-101890"/><use xlink:href="#tAXc7B1QFSvK-HdgNxOe_pad-13" x="153026.666" y="-101890"/><use xlink:href="#tAXc7B1QFSvK-HdgNxOe_pad-13" x="153026.666" y="-99350"/><use xlink:href="#tAXc7B1QFSvK-HdgNxOe_pad-13" x="153026.666" y="-96810"/><use xlink:href="#tAXc7B1QFSvK-HdgNxOe_pad-13" x="153026.666" y="-94270"/><use xlink:href="#tAXc7B1QFSvK-HdgNxOe_pad-13" x="153026.666" y="-91730"/><use xlink:href="#tAXc7B1QFSvK-HdgNxOe_pad-13" x="153026.666" y="-89190"/><use xlink:href="#tAXc7B1QFSvK-HdgNxOe_pad-13" x="153026.666" y="-86650"/><use xlink:href="#tAXc7B1QFSvK-HdgNxOe_pad-13" x="153026.666" y="-84110"/><use xlink:href="#tAXc7B1QFSvK-HdgNxOe_pad-14" x="185928" y="-58176"/><use xlink:href="#tAXc7B1QFSvK-HdgNxOe_pad-15" x="185928" y="-60716"/><use xlink:href="#tAXc7B1QFSvK-HdgNxOe_pad-15" x="185928" y="-63256"/><use xlink:href="#tAXc7B1QFSvK-HdgNxOe_pad-15" x="185928" y="-65796"/><use xlink:href="#tAXc7B1QFSvK-HdgNxOe_pad-14" x="136652" y="-58176"/><use xlink:href="#tAXc7B1QFSvK-HdgNxOe_pad-15" x="136652" y="-60716"/><use xlink:href="#tAXc7B1QFSvK-HdgNxOe_pad-15" x="136652" y="-63256"/><use xlink:href="#tAXc7B1QFSvK-HdgNxOe_pad-15" x="136652" y="-65796"/><use xlink:href="#tAXc7B1QFSvK-HdgNxOe_pad-11" x="189660" y="-53110"/><use xlink:href="#tAXc7B1QFSvK-HdgNxOe_pad-13" x="189660" y="-55650"/><use xlink:href="#tAXc7B1QFSvK-HdgNxOe_pad-13" x="189660" y="-58190"/><use xlink:href="#tAXc7B1QFSvK-HdgNxOe_pad-13" x="189660" y="-60730"/><use xlink:href="#tAXc7B1QFSvK-HdgNxOe_pad-13" x="189660" y="-63270"/><use xlink:href="#tAXc7B1QFSvK-HdgNxOe_pad-13" x="189660" y="-65810"/><use xlink:href="#tAXc7B1QFSvK-HdgNxOe_pad-13" x="189660" y="-68350"/><use xlink:href="#tAXc7B1QFSvK-HdgNxOe_pad-13" x="189660" y="-70890"/><use xlink:href="#tAXc7B1QFSvK-HdgNxOe_pad-13" x="202360" y="-70890"/><use xlink:href="#tAXc7B1QFSvK-HdgNxOe_pad-13" x="202360" y="-68350"/><use xlink:href="#tAXc7B1QFSvK-HdgNxOe_pad-13" x="202360" y="-65810"/><use xlink:href="#tAXc7B1QFSvK-HdgNxOe_pad-13" x="202360" y="-63270"/><use xlink:href="#tAXc7B1QFSvK-HdgNxOe_pad-13" x="202360" y="-60730"/><use xlink:href="#tAXc7B1QFSvK-HdgNxOe_pad-13" x="202360" y="-58190"/><use xlink:href="#tAXc7B1QFSvK-HdgNxOe_pad-13" x="202360" y="-55650"/><use xlink:href="#tAXc7B1QFSvK-HdgNxOe_pad-13" x="202360" y="-53110"/><use xlink:href="#tAXc7B1QFSvK-HdgNxOe_pad-11" x="189660" y="-76200"/><use xlink:href="#tAXc7B1QFSvK-HdgNxOe_pad-12" x="189660" y="-78700"/><use xlink:href="#tAXc7B1QFSvK-HdgNxOe_pad-14" x="136652" y="-86624"/><use xlink:href="#tAXc7B1QFSvK-HdgNxOe_pad-15" x="136652" y="-89164"/><use xlink:href="#tAXc7B1QFSvK-HdgNxOe_pad-15" x="136652" y="-91704"/><use xlink:href="#tAXc7B1QFSvK-HdgNxOe_pad-15" x="136652" y="-94244"/><use xlink:href="#tAXc7B1QFSvK-HdgNxOe_pad-11" x="184000" y="-101932.379"/><use xlink:href="#tAXc7B1QFSvK-HdgNxOe_pad-12" x="184000" y="-99432.379"/><use xlink:href="#tAXc7B1QFSvK-HdgNxOe_pad-14" x="161290" y="-58176"/><use xlink:href="#tAXc7B1QFSvK-HdgNxOe_pad-15" x="161290" y="-60716"/><use xlink:href="#tAXc7B1QFSvK-HdgNxOe_pad-15" x="161290" y="-63256"/><use xlink:href="#tAXc7B1QFSvK-HdgNxOe_pad-15" x="161290" y="-65796"/><use xlink:href="#tAXc7B1QFSvK-HdgNxOe_pad-11" x="164993.332" y="-76287.621"/><use xlink:href="#tAXc7B1QFSvK-HdgNxOe_pad-12" x="164993.332" y="-78787.621"/><use xlink:href="#tAXc7B1QFSvK-HdgNxOe_pad-11" x="115660" y="-84110"/><use xlink:href="#tAXc7B1QFSvK-HdgNxOe_pad-13" x="115660" y="-86650"/><use xlink:href="#tAXc7B1QFSvK-HdgNxOe_pad-13" x="115660" y="-89190"/><use xlink:href="#tAXc7B1QFSvK-HdgNxOe_pad-13" x="115660" y="-91730"/><use xlink:href="#tAXc7B1QFSvK-HdgNxOe_pad-13" x="115660" y="-94270"/><use xlink:href="#tAXc7B1QFSvK-HdgNxOe_pad-13" x="115660" y="-96810"/><use xlink:href="#tAXc7B1QFSvK-HdgNxOe_pad-13" x="115660" y="-99350"/><use xlink:href="#tAXc7B1QFSvK-HdgNxOe_pad-13" x="115660" y="-101890"/><use xlink:href="#tAXc7B1QFSvK-HdgNxOe_pad-13" x="128360" y="-101890"/><use xlink:href="#tAXc7B1QFSvK-HdgNxOe_pad-13" x="128360" y="-99350"/><use xlink:href="#tAXc7B1QFSvK-HdgNxOe_pad-13" x="128360" y="-96810"/><use xlink:href="#tAXc7B1QFSvK-HdgNxOe_pad-13" x="128360" y="-94270"/><use xlink:href="#tAXc7B1QFSvK-HdgNxOe_pad-13" x="128360" y="-91730"/><use xlink:href="#tAXc7B1QFSvK-HdgNxOe_pad-13" x="128360" y="-89190"/><use xlink:href="#tAXc7B1QFSvK-HdgNxOe_pad-13" x="128360" y="-86650"/><use xlink:href="#tAXc7B1QFSvK-HdgNxOe_pad-13" x="128360" y="-84110"/></g></svg>