<svg version="1.1" xmlns="http://www.w3.org/2000/svg" xmlns:xlink="http://www.w3.org/1999/xlink" stroke-linecap="round" stroke-linejoin="round" stroke-width="0" fill-rule="evenodd" width="108.07mm" height="104.3744mm" viewBox="92650 -137277.2 108070 104374.4" id="CnSR2gAxUHW9-XW-dd4W"><defs><circle cx="0" cy="0" r="762" id="CnSR2gAxUHW9-XW-dd4W_pad-10"/><rect x="-800" y="-800" width="1600" height="1600" id="CnSR2gAxUHW9-XW-dd4W_pad-11"/><circle cx="0" cy="0" r="800" id="CnSR2gAxUHW9-XW-dd4W_pad-12"/><circle cx="0" cy="0" r="650" id="CnSR2gAxUHW9-XW-dd4W_pad-13"/><circle cx="0" cy="0" r="1650" id="CnSR2gAxUHW9-XW-dd4W_pad-14"/><circle cx="0" cy="0" r="2200" id="CnSR2gAxUHW9-XW-dd4W_pad-15"/><circle cx="0" cy="0" r="654" id="CnSR2gAxUHW9-XW-dd4W_pad-16"/><rect x="-850" y="-850" width="1700" height="1700" id="CnSR2gAxUHW9-XW-dd4W_pad-17"/><rect x="-850" y="-850" width="1700" height="1700" rx="850" ry="850" id="CnSR2gAxUHW9-XW-dd4W_pad-18"/><rect x="-695" y="-695" width="1390" height="1390" id="CnSR2gAxUHW9-XW-dd4W_pad-19"/><circle cx="0" cy="0" r="695" id="CnSR2gAxUHW9-XW-dd4W_pad-20"/></defs><g transform="translate(0,-170180.00000000003) scale(1,-1)" fill="currentColor" stroke="currentColor"><use xlink:href="#CnSR2gAxUHW9-XW-dd4W_pad-10" x="123115" y="-95040"/><use xlink:href="#CnSR2gAxUHW9-XW-dd4W_pad-10" x="120575" y="-95040"/><use xlink:href="#CnSR2gAxUHW9-XW-dd4W_pad-10" x="118035" y="-95040"/><use xlink:href="#CnSR2gAxUHW9-XW-dd4W_pad-11" x="133985" y="-87630"/><use xlink:href="#CnSR2gAxUHW9-XW-dd4W_pad-12" x="136525" y="-87630"/><use xlink:href="#CnSR2gAxUHW9-XW-dd4W_pad-12" x="139065" y="-87630"/><use xlink:href="#CnSR2gAxUHW9-XW-dd4W_pad-12" x="141605" y="-87630"/><use xlink:href="#CnSR2gAxUHW9-XW-dd4W_pad-12" x="144145" y="-87630"/><use xlink:href="#CnSR2gAxUHW9-XW-dd4W_pad-12" x="146685" y="-87630"/><use xlink:href="#CnSR2gAxUHW9-XW-dd4W_pad-12" x="149225" y="-87630"/><use xlink:href="#CnSR2gAxUHW9-XW-dd4W_pad-12" x="151765" y="-87630"/><use xlink:href="#CnSR2gAxUHW9-XW-dd4W_pad-12" x="154305" y="-87630"/><use xlink:href="#CnSR2gAxUHW9-XW-dd4W_pad-12" x="156845" y="-87630"/><use xlink:href="#CnSR2gAxUHW9-XW-dd4W_pad-12" x="159385" y="-87630"/><use xlink:href="#CnSR2gAxUHW9-XW-dd4W_pad-12" x="161925" y="-87630"/><use xlink:href="#CnSR2gAxUHW9-XW-dd4W_pad-12" x="164465" y="-87630"/><use xlink:href="#CnSR2gAxUHW9-XW-dd4W_pad-12" x="167005" y="-87630"/><use xlink:href="#CnSR2gAxUHW9-XW-dd4W_pad-12" x="169545" y="-87630"/><use xlink:href="#CnSR2gAxUHW9-XW-dd4W_pad-12" x="172085" y="-87630"/><use xlink:href="#CnSR2gAxUHW9-XW-dd4W_pad-12" x="174625" y="-87630"/><use xlink:href="#CnSR2gAxUHW9-XW-dd4W_pad-12" x="177165" y="-87630"/><use xlink:href="#CnSR2gAxUHW9-XW-dd4W_pad-12" x="179705" y="-87630"/><use xlink:href="#CnSR2gAxUHW9-XW-dd4W_pad-12" x="182245" y="-87630"/><use xlink:href="#CnSR2gAxUHW9-XW-dd4W_pad-12" x="184785" y="-87630"/><use xlink:href="#CnSR2gAxUHW9-XW-dd4W_pad-12" x="187325" y="-87630"/><use xlink:href="#CnSR2gAxUHW9-XW-dd4W_pad-12" x="189865" y="-87630"/><use xlink:href="#CnSR2gAxUHW9-XW-dd4W_pad-12" x="192405" y="-87630"/><use xlink:href="#CnSR2gAxUHW9-XW-dd4W_pad-12" x="192405" y="-72390"/><use xlink:href="#CnSR2gAxUHW9-XW-dd4W_pad-12" x="189865" y="-72390"/><use xlink:href="#CnSR2gAxUHW9-XW-dd4W_pad-12" x="187325" y="-72390"/><use xlink:href="#CnSR2gAxUHW9-XW-dd4W_pad-12" x="184785" y="-72390"/><use xlink:href="#CnSR2gAxUHW9-XW-dd4W_pad-12" x="182245" y="-72390"/><use xlink:href="#CnSR2gAxUHW9-XW-dd4W_pad-12" x="179705" y="-72390"/><use xlink:href="#CnSR2gAxUHW9-XW-dd4W_pad-12" x="177165" y="-72390"/><use xlink:href="#CnSR2gAxUHW9-XW-dd4W_pad-12" x="174625" y="-72390"/><use xlink:href="#CnSR2gAxUHW9-XW-dd4W_pad-12" x="172085" y="-72390"/><use xlink:href="#CnSR2gAxUHW9-XW-dd4W_pad-12" x="169545" y="-72390"/><use xlink:href="#CnSR2gAxUHW9-XW-dd4W_pad-12" x="167005" y="-72390"/><use xlink:href="#CnSR2gAxUHW9-XW-dd4W_pad-12" x="164465" y="-72390"/><use xlink:href="#CnSR2gAxUHW9-XW-dd4W_pad-12" x="161925" y="-72390"/><use xlink:href="#CnSR2gAxUHW9-XW-dd4W_pad-12" x="159385" y="-72390"/><use xlink:href="#CnSR2gAxUHW9-XW-dd4W_pad-12" x="156845" y="-72390"/><use xlink:href="#CnSR2gAxUHW9-XW-dd4W_pad-12" x="154305" y="-72390"/><use xlink:href="#CnSR2gAxUHW9-XW-dd4W_pad-12" x="151765" y="-72390"/><use xlink:href="#CnSR2gAxUHW9-XW-dd4W_pad-12" x="149225" y="-72390"/><use xlink:href="#CnSR2gAxUHW9-XW-dd4W_pad-12" x="146685" y="-72390"/><use xlink:href="#CnSR2gAxUHW9-XW-dd4W_pad-12" x="144145" y="-72390"/><use xlink:href="#CnSR2gAxUHW9-XW-dd4W_pad-12" x="141605" y="-72390"/><use xlink:href="#CnSR2gAxUHW9-XW-dd4W_pad-12" x="139065" y="-72390"/><use xlink:href="#CnSR2gAxUHW9-XW-dd4W_pad-12" x="136525" y="-72390"/><use xlink:href="#CnSR2gAxUHW9-XW-dd4W_pad-12" x="133985" y="-72390"/><use xlink:href="#CnSR2gAxUHW9-XW-dd4W_pad-13" x="134715" y="-78740"/><use xlink:href="#CnSR2gAxUHW9-XW-dd4W_pad-13" x="134715" y="-81280"/><use xlink:href="#CnSR2gAxUHW9-XW-dd4W_pad-10" x="123115" y="-101390"/><use xlink:href="#CnSR2gAxUHW9-XW-dd4W_pad-10" x="120575" y="-101390"/><use xlink:href="#CnSR2gAxUHW9-XW-dd4W_pad-10" x="118035" y="-101390"/><use xlink:href="#CnSR2gAxUHW9-XW-dd4W_pad-10" x="153595" y="-95040"/><use xlink:href="#CnSR2gAxUHW9-XW-dd4W_pad-10" x="151055" y="-95040"/><use xlink:href="#CnSR2gAxUHW9-XW-dd4W_pad-10" x="148515" y="-95040"/><use xlink:href="#CnSR2gAxUHW9-XW-dd4W_pad-12" x="133350" y="-52705"/><use xlink:href="#CnSR2gAxUHW9-XW-dd4W_pad-12" x="130810" y="-52705"/><use xlink:href="#CnSR2gAxUHW9-XW-dd4W_pad-12" x="128270" y="-52705"/><use xlink:href="#CnSR2gAxUHW9-XW-dd4W_pad-12" x="125730" y="-52705"/><use xlink:href="#CnSR2gAxUHW9-XW-dd4W_pad-12" x="123190" y="-52705"/><use xlink:href="#CnSR2gAxUHW9-XW-dd4W_pad-12" x="120650" y="-52705"/><use xlink:href="#CnSR2gAxUHW9-XW-dd4W_pad-12" x="118110" y="-52705"/><use xlink:href="#CnSR2gAxUHW9-XW-dd4W_pad-12" x="115570" y="-52705"/><use xlink:href="#CnSR2gAxUHW9-XW-dd4W_pad-12" x="113030" y="-52705"/><use xlink:href="#CnSR2gAxUHW9-XW-dd4W_pad-12" x="110490" y="-52705"/><use xlink:href="#CnSR2gAxUHW9-XW-dd4W_pad-12" x="107950" y="-52705"/><use xlink:href="#CnSR2gAxUHW9-XW-dd4W_pad-12" x="105410" y="-52705"/><use xlink:href="#CnSR2gAxUHW9-XW-dd4W_pad-12" x="102870" y="-52705"/><use xlink:href="#CnSR2gAxUHW9-XW-dd4W_pad-12" x="100330" y="-52705"/><use xlink:href="#CnSR2gAxUHW9-XW-dd4W_pad-12" x="100330" y="-67945"/><use xlink:href="#CnSR2gAxUHW9-XW-dd4W_pad-12" x="102870" y="-67945"/><use xlink:href="#CnSR2gAxUHW9-XW-dd4W_pad-12" x="105410" y="-67945"/><use xlink:href="#CnSR2gAxUHW9-XW-dd4W_pad-12" x="107950" y="-67945"/><use xlink:href="#CnSR2gAxUHW9-XW-dd4W_pad-12" x="110490" y="-67945"/><use xlink:href="#CnSR2gAxUHW9-XW-dd4W_pad-12" x="113030" y="-67945"/><use xlink:href="#CnSR2gAxUHW9-XW-dd4W_pad-12" x="115570" y="-67945"/><use xlink:href="#CnSR2gAxUHW9-XW-dd4W_pad-12" x="118110" y="-67945"/><use xlink:href="#CnSR2gAxUHW9-XW-dd4W_pad-12" x="120650" y="-67945"/><use xlink:href="#CnSR2gAxUHW9-XW-dd4W_pad-12" x="123190" y="-67945"/><use xlink:href="#CnSR2gAxUHW9-XW-dd4W_pad-12" x="125730" y="-67945"/><use xlink:href="#CnSR2gAxUHW9-XW-dd4W_pad-12" x="128270" y="-67945"/><use xlink:href="#CnSR2gAxUHW9-XW-dd4W_pad-12" x="130810" y="-67945"/><use xlink:href="#CnSR2gAxUHW9-XW-dd4W_pad-12" x="133350" y="-67945"/><use xlink:href="#CnSR2gAxUHW9-XW-dd4W_pad-12" x="105410" y="-65405"/><use xlink:href="#CnSR2gAxUHW9-XW-dd4W_pad-12" x="107950" y="-65405"/><use xlink:href="#CnSR2gAxUHW9-XW-dd4W_pad-12" x="105410" y="-62865"/><use xlink:href="#CnSR2gAxUHW9-XW-dd4W_pad-12" x="107950" y="-62865"/><use xlink:href="#CnSR2gAxUHW9-XW-dd4W_pad-12" x="105410" y="-60325"/><use xlink:href="#CnSR2gAxUHW9-XW-dd4W_pad-12" x="107950" y="-60325"/><use xlink:href="#CnSR2gAxUHW9-XW-dd4W_pad-12" x="105410" y="-57785"/><use xlink:href="#CnSR2gAxUHW9-XW-dd4W_pad-12" x="107950" y="-57785"/><use xlink:href="#CnSR2gAxUHW9-XW-dd4W_pad-12" x="105410" y="-55245"/><use xlink:href="#CnSR2gAxUHW9-XW-dd4W_pad-12" x="107950" y="-55245"/><use xlink:href="#CnSR2gAxUHW9-XW-dd4W_pad-10" x="153670" y="-65470"/><use xlink:href="#CnSR2gAxUHW9-XW-dd4W_pad-10" x="151130" y="-65470"/><use xlink:href="#CnSR2gAxUHW9-XW-dd4W_pad-10" x="148590" y="-65470"/><use xlink:href="#CnSR2gAxUHW9-XW-dd4W_pad-10" x="146050" y="-65470"/><use xlink:href="#CnSR2gAxUHW9-XW-dd4W_pad-10" x="143510" y="-65470"/><use xlink:href="#CnSR2gAxUHW9-XW-dd4W_pad-10" x="140970" y="-65470"/><use xlink:href="#CnSR2gAxUHW9-XW-dd4W_pad-14" x="155575" y="-56580"/><use xlink:href="#CnSR2gAxUHW9-XW-dd4W_pad-14" x="139065" y="-56580"/><use xlink:href="#CnSR2gAxUHW9-XW-dd4W_pad-15" x="198424.8" y="-135077.2"/><use xlink:href="#CnSR2gAxUHW9-XW-dd4W_pad-10" x="153595" y="-101390"/><use xlink:href="#CnSR2gAxUHW9-XW-dd4W_pad-10" x="151055" y="-101390"/><use xlink:href="#CnSR2gAxUHW9-XW-dd4W_pad-10" x="148515" y="-101390"/><use xlink:href="#CnSR2gAxUHW9-XW-dd4W_pad-10" x="124460" y="-87884"/><use xlink:href="#CnSR2gAxUHW9-XW-dd4W_pad-10" x="127000" y="-87884"/><use xlink:href="#CnSR2gAxUHW9-XW-dd4W_pad-10" x="129540" y="-87884"/><use xlink:href="#CnSR2gAxUHW9-XW-dd4W_pad-16" x="137325" y="-114430"/><use xlink:href="#CnSR2gAxUHW9-XW-dd4W_pad-16" x="137325" y="-116430"/><use xlink:href="#CnSR2gAxUHW9-XW-dd4W_pad-16" x="148425" y="-114430"/><use xlink:href="#CnSR2gAxUHW9-XW-dd4W_pad-16" x="148425" y="-116430"/><use xlink:href="#CnSR2gAxUHW9-XW-dd4W_pad-10" x="133275" y="-101390"/><use xlink:href="#CnSR2gAxUHW9-XW-dd4W_pad-10" x="130735" y="-101390"/><use xlink:href="#CnSR2gAxUHW9-XW-dd4W_pad-10" x="128195" y="-101390"/><use xlink:href="#CnSR2gAxUHW9-XW-dd4W_pad-10" x="133275" y="-95040"/><use xlink:href="#CnSR2gAxUHW9-XW-dd4W_pad-10" x="130735" y="-95040"/><use xlink:href="#CnSR2gAxUHW9-XW-dd4W_pad-10" x="128195" y="-95040"/><use xlink:href="#CnSR2gAxUHW9-XW-dd4W_pad-10" x="143435" y="-95040"/><use xlink:href="#CnSR2gAxUHW9-XW-dd4W_pad-10" x="140895" y="-95040"/><use xlink:href="#CnSR2gAxUHW9-XW-dd4W_pad-10" x="138355" y="-95040"/><use xlink:href="#CnSR2gAxUHW9-XW-dd4W_pad-12" x="160020" y="-117475"/><use xlink:href="#CnSR2gAxUHW9-XW-dd4W_pad-12" x="162560" y="-117475"/><use xlink:href="#CnSR2gAxUHW9-XW-dd4W_pad-12" x="165100" y="-117475"/><use xlink:href="#CnSR2gAxUHW9-XW-dd4W_pad-12" x="167640" y="-117475"/><use xlink:href="#CnSR2gAxUHW9-XW-dd4W_pad-12" x="170180" y="-117475"/><use xlink:href="#CnSR2gAxUHW9-XW-dd4W_pad-12" x="172720" y="-117475"/><use xlink:href="#CnSR2gAxUHW9-XW-dd4W_pad-12" x="175260" y="-117475"/><use xlink:href="#CnSR2gAxUHW9-XW-dd4W_pad-12" x="177800" y="-117475"/><use xlink:href="#CnSR2gAxUHW9-XW-dd4W_pad-12" x="180340" y="-117475"/><use xlink:href="#CnSR2gAxUHW9-XW-dd4W_pad-12" x="182880" y="-117475"/><use xlink:href="#CnSR2gAxUHW9-XW-dd4W_pad-12" x="185420" y="-117475"/><use xlink:href="#CnSR2gAxUHW9-XW-dd4W_pad-12" x="187960" y="-117475"/><use xlink:href="#CnSR2gAxUHW9-XW-dd4W_pad-12" x="190500" y="-117475"/><use xlink:href="#CnSR2gAxUHW9-XW-dd4W_pad-12" x="193040" y="-117475"/><use xlink:href="#CnSR2gAxUHW9-XW-dd4W_pad-12" x="193040" y="-102235"/><use xlink:href="#CnSR2gAxUHW9-XW-dd4W_pad-12" x="190500" y="-102235"/><use xlink:href="#CnSR2gAxUHW9-XW-dd4W_pad-12" x="187960" y="-102235"/><use xlink:href="#CnSR2gAxUHW9-XW-dd4W_pad-12" x="185420" y="-102235"/><use xlink:href="#CnSR2gAxUHW9-XW-dd4W_pad-12" x="182880" y="-102235"/><use xlink:href="#CnSR2gAxUHW9-XW-dd4W_pad-12" x="180340" y="-102235"/><use xlink:href="#CnSR2gAxUHW9-XW-dd4W_pad-12" x="177800" y="-102235"/><use xlink:href="#CnSR2gAxUHW9-XW-dd4W_pad-12" x="175260" y="-102235"/><use xlink:href="#CnSR2gAxUHW9-XW-dd4W_pad-12" x="172720" y="-102235"/><use xlink:href="#CnSR2gAxUHW9-XW-dd4W_pad-12" x="170180" y="-102235"/><use xlink:href="#CnSR2gAxUHW9-XW-dd4W_pad-12" x="167640" y="-102235"/><use xlink:href="#CnSR2gAxUHW9-XW-dd4W_pad-12" x="165100" y="-102235"/><use xlink:href="#CnSR2gAxUHW9-XW-dd4W_pad-12" x="162560" y="-102235"/><use xlink:href="#CnSR2gAxUHW9-XW-dd4W_pad-12" x="160020" y="-102235"/><use xlink:href="#CnSR2gAxUHW9-XW-dd4W_pad-12" x="187960" y="-104775"/><use xlink:href="#CnSR2gAxUHW9-XW-dd4W_pad-12" x="185420" y="-104775"/><use xlink:href="#CnSR2gAxUHW9-XW-dd4W_pad-12" x="187960" y="-107315"/><use xlink:href="#CnSR2gAxUHW9-XW-dd4W_pad-12" x="185420" y="-107315"/><use xlink:href="#CnSR2gAxUHW9-XW-dd4W_pad-12" x="187960" y="-109855"/><use xlink:href="#CnSR2gAxUHW9-XW-dd4W_pad-12" x="185420" y="-109855"/><use xlink:href="#CnSR2gAxUHW9-XW-dd4W_pad-12" x="187960" y="-112395"/><use xlink:href="#CnSR2gAxUHW9-XW-dd4W_pad-12" x="185420" y="-112395"/><use xlink:href="#CnSR2gAxUHW9-XW-dd4W_pad-12" x="187960" y="-114935"/><use xlink:href="#CnSR2gAxUHW9-XW-dd4W_pad-12" x="185420" y="-114935"/><use xlink:href="#CnSR2gAxUHW9-XW-dd4W_pad-17" x="181610" y="-68580"/><use xlink:href="#CnSR2gAxUHW9-XW-dd4W_pad-18" x="179070" y="-68580"/><use xlink:href="#CnSR2gAxUHW9-XW-dd4W_pad-18" x="176530" y="-68580"/><use xlink:href="#CnSR2gAxUHW9-XW-dd4W_pad-18" x="173990" y="-68580"/><use xlink:href="#CnSR2gAxUHW9-XW-dd4W_pad-18" x="171450" y="-68580"/><use xlink:href="#CnSR2gAxUHW9-XW-dd4W_pad-18" x="168910" y="-68580"/><use xlink:href="#CnSR2gAxUHW9-XW-dd4W_pad-18" x="166370" y="-68580"/><use xlink:href="#CnSR2gAxUHW9-XW-dd4W_pad-18" x="163830" y="-68580"/><use xlink:href="#CnSR2gAxUHW9-XW-dd4W_pad-18" x="161290" y="-68580"/><use xlink:href="#CnSR2gAxUHW9-XW-dd4W_pad-10" x="143510" y="-101390"/><use xlink:href="#CnSR2gAxUHW9-XW-dd4W_pad-10" x="140970" y="-101390"/><use xlink:href="#CnSR2gAxUHW9-XW-dd4W_pad-10" x="138430" y="-101390"/><use xlink:href="#CnSR2gAxUHW9-XW-dd4W_pad-15" x="94945.2" y="-35102.8"/><use xlink:href="#CnSR2gAxUHW9-XW-dd4W_pad-19" x="93345" y="-40005"/><use xlink:href="#CnSR2gAxUHW9-XW-dd4W_pad-20" x="95885" y="-40005"/><use xlink:href="#CnSR2gAxUHW9-XW-dd4W_pad-20" x="93345" y="-42545"/><use xlink:href="#CnSR2gAxUHW9-XW-dd4W_pad-20" x="95885" y="-42545"/><use xlink:href="#CnSR2gAxUHW9-XW-dd4W_pad-20" x="93345" y="-45085"/><use xlink:href="#CnSR2gAxUHW9-XW-dd4W_pad-20" x="95885" y="-45085"/><use xlink:href="#CnSR2gAxUHW9-XW-dd4W_pad-20" x="93345" y="-47625"/><use xlink:href="#CnSR2gAxUHW9-XW-dd4W_pad-20" x="95885" y="-47625"/><use xlink:href="#CnSR2gAxUHW9-XW-dd4W_pad-20" x="93345" y="-50165"/><use xlink:href="#CnSR2gAxUHW9-XW-dd4W_pad-20" x="95885" y="-50165"/><use xlink:href="#CnSR2gAxUHW9-XW-dd4W_pad-20" x="93345" y="-52705"/><use xlink:href="#CnSR2gAxUHW9-XW-dd4W_pad-20" x="95885" y="-52705"/><use xlink:href="#CnSR2gAxUHW9-XW-dd4W_pad-20" x="93345" y="-55245"/><use xlink:href="#CnSR2gAxUHW9-XW-dd4W_pad-20" x="95885" y="-55245"/><use xlink:href="#CnSR2gAxUHW9-XW-dd4W_pad-20" x="93345" y="-57785"/><use xlink:href="#CnSR2gAxUHW9-XW-dd4W_pad-20" x="95885" y="-57785"/><use xlink:href="#CnSR2gAxUHW9-XW-dd4W_pad-20" x="93345" y="-60325"/><use xlink:href="#CnSR2gAxUHW9-XW-dd4W_pad-20" x="95885" y="-60325"/><use xlink:href="#CnSR2gAxUHW9-XW-dd4W_pad-20" x="93345" y="-62865"/><use xlink:href="#CnSR2gAxUHW9-XW-dd4W_pad-20" x="95885" y="-62865"/><use xlink:href="#CnSR2gAxUHW9-XW-dd4W_pad-20" x="93345" y="-65405"/><use xlink:href="#CnSR2gAxUHW9-XW-dd4W_pad-20" x="95885" y="-65405"/><use xlink:href="#CnSR2gAxUHW9-XW-dd4W_pad-20" x="93345" y="-67945"/><use xlink:href="#CnSR2gAxUHW9-XW-dd4W_pad-20" x="95885" y="-67945"/><use xlink:href="#CnSR2gAxUHW9-XW-dd4W_pad-20" x="93345" y="-70485"/><use xlink:href="#CnSR2gAxUHW9-XW-dd4W_pad-20" x="95885" y="-70485"/><use xlink:href="#CnSR2gAxUHW9-XW-dd4W_pad-20" x="93345" y="-73025"/><use xlink:href="#CnSR2gAxUHW9-XW-dd4W_pad-20" x="95885" y="-73025"/><use xlink:href="#CnSR2gAxUHW9-XW-dd4W_pad-20" x="93345" y="-75565"/><use xlink:href="#CnSR2gAxUHW9-XW-dd4W_pad-20" x="95885" y="-75565"/><use xlink:href="#CnSR2gAxUHW9-XW-dd4W_pad-20" x="93345" y="-78105"/><use xlink:href="#CnSR2gAxUHW9-XW-dd4W_pad-20" x="95885" y="-78105"/><use xlink:href="#CnSR2gAxUHW9-XW-dd4W_pad-20" x="93345" y="-80645"/><use xlink:href="#CnSR2gAxUHW9-XW-dd4W_pad-20" x="95885" y="-80645"/><use xlink:href="#CnSR2gAxUHW9-XW-dd4W_pad-20" x="93345" y="-83185"/><use xlink:href="#CnSR2gAxUHW9-XW-dd4W_pad-20" x="95885" y="-83185"/><use xlink:href="#CnSR2gAxUHW9-XW-dd4W_pad-20" x="93345" y="-85725"/><use xlink:href="#CnSR2gAxUHW9-XW-dd4W_pad-20" x="95885" y="-85725"/><use xlink:href="#CnSR2gAxUHW9-XW-dd4W_pad-20" x="93345" y="-88265"/><use xlink:href="#CnSR2gAxUHW9-XW-dd4W_pad-20" x="95885" y="-88265"/><use xlink:href="#CnSR2gAxUHW9-XW-dd4W_pad-20" x="93345" y="-90805"/><use xlink:href="#CnSR2gAxUHW9-XW-dd4W_pad-20" x="95885" y="-90805"/><use xlink:href="#CnSR2gAxUHW9-XW-dd4W_pad-20" x="93345" y="-93345"/><use xlink:href="#CnSR2gAxUHW9-XW-dd4W_pad-20" x="95885" y="-93345"/><use xlink:href="#CnSR2gAxUHW9-XW-dd4W_pad-20" x="93345" y="-95885"/><use xlink:href="#CnSR2gAxUHW9-XW-dd4W_pad-20" x="95885" y="-95885"/><use xlink:href="#CnSR2gAxUHW9-XW-dd4W_pad-20" x="93345" y="-98425"/><use xlink:href="#CnSR2gAxUHW9-XW-dd4W_pad-20" x="95885" y="-98425"/><use xlink:href="#CnSR2gAxUHW9-XW-dd4W_pad-20" x="93345" y="-100965"/><use xlink:href="#CnSR2gAxUHW9-XW-dd4W_pad-20" x="95885" y="-100965"/><use xlink:href="#CnSR2gAxUHW9-XW-dd4W_pad-19" x="200025" y="-130175"/><use xlink:href="#CnSR2gAxUHW9-XW-dd4W_pad-20" x="197485" y="-130175"/><use xlink:href="#CnSR2gAxUHW9-XW-dd4W_pad-20" x="200025" y="-127635"/><use xlink:href="#CnSR2gAxUHW9-XW-dd4W_pad-20" x="197485" y="-127635"/><use xlink:href="#CnSR2gAxUHW9-XW-dd4W_pad-20" x="200025" y="-125095"/><use xlink:href="#CnSR2gAxUHW9-XW-dd4W_pad-20" x="197485" y="-125095"/><use xlink:href="#CnSR2gAxUHW9-XW-dd4W_pad-20" x="200025" y="-122555"/><use xlink:href="#CnSR2gAxUHW9-XW-dd4W_pad-20" x="197485" y="-122555"/><use xlink:href="#CnSR2gAxUHW9-XW-dd4W_pad-20" x="200025" y="-120015"/><use xlink:href="#CnSR2gAxUHW9-XW-dd4W_pad-20" x="197485" y="-120015"/><use xlink:href="#CnSR2gAxUHW9-XW-dd4W_pad-20" x="200025" y="-117475"/><use xlink:href="#CnSR2gAxUHW9-XW-dd4W_pad-20" x="197485" y="-117475"/><use xlink:href="#CnSR2gAxUHW9-XW-dd4W_pad-20" x="200025" y="-114935"/><use xlink:href="#CnSR2gAxUHW9-XW-dd4W_pad-20" x="197485" y="-114935"/><use xlink:href="#CnSR2gAxUHW9-XW-dd4W_pad-20" x="200025" y="-112395"/><use xlink:href="#CnSR2gAxUHW9-XW-dd4W_pad-20" x="197485" y="-112395"/><use xlink:href="#CnSR2gAxUHW9-XW-dd4W_pad-20" x="200025" y="-109855"/><use xlink:href="#CnSR2gAxUHW9-XW-dd4W_pad-20" x="197485" y="-109855"/><use xlink:href="#CnSR2gAxUHW9-XW-dd4W_pad-20" x="200025" y="-107315"/><use xlink:href="#CnSR2gAxUHW9-XW-dd4W_pad-20" x="197485" y="-107315"/><use xlink:href="#CnSR2gAxUHW9-XW-dd4W_pad-20" x="200025" y="-104775"/><use xlink:href="#CnSR2gAxUHW9-XW-dd4W_pad-20" x="197485" y="-104775"/><use xlink:href="#CnSR2gAxUHW9-XW-dd4W_pad-20" x="200025" y="-102235"/><use xlink:href="#CnSR2gAxUHW9-XW-dd4W_pad-20" x="197485" y="-102235"/><use xlink:href="#CnSR2gAxUHW9-XW-dd4W_pad-20" x="200025" y="-99695"/><use xlink:href="#CnSR2gAxUHW9-XW-dd4W_pad-20" x="197485" y="-99695"/><use xlink:href="#CnSR2gAxUHW9-XW-dd4W_pad-20" x="200025" y="-97155"/><use xlink:href="#CnSR2gAxUHW9-XW-dd4W_pad-20" x="197485" y="-97155"/><use xlink:href="#CnSR2gAxUHW9-XW-dd4W_pad-20" x="200025" y="-94615"/><use xlink:href="#CnSR2gAxUHW9-XW-dd4W_pad-20" x="197485" y="-94615"/><use xlink:href="#CnSR2gAxUHW9-XW-dd4W_pad-20" x="200025" y="-92075"/><use xlink:href="#CnSR2gAxUHW9-XW-dd4W_pad-20" x="197485" y="-92075"/><use xlink:href="#CnSR2gAxUHW9-XW-dd4W_pad-20" x="200025" y="-89535"/><use xlink:href="#CnSR2gAxUHW9-XW-dd4W_pad-20" x="197485" y="-89535"/><use xlink:href="#CnSR2gAxUHW9-XW-dd4W_pad-20" x="200025" y="-86995"/><use xlink:href="#CnSR2gAxUHW9-XW-dd4W_pad-20" x="197485" y="-86995"/><use xlink:href="#CnSR2gAxUHW9-XW-dd4W_pad-20" x="200025" y="-84455"/><use xlink:href="#CnSR2gAxUHW9-XW-dd4W_pad-20" x="197485" y="-84455"/><use xlink:href="#CnSR2gAxUHW9-XW-dd4W_pad-20" x="200025" y="-81915"/><use xlink:href="#CnSR2gAxUHW9-XW-dd4W_pad-20" x="197485" y="-81915"/><use xlink:href="#CnSR2gAxUHW9-XW-dd4W_pad-20" x="200025" y="-79375"/><use xlink:href="#CnSR2gAxUHW9-XW-dd4W_pad-20" x="197485" y="-79375"/><use xlink:href="#CnSR2gAxUHW9-XW-dd4W_pad-20" x="200025" y="-76835"/><use xlink:href="#CnSR2gAxUHW9-XW-dd4W_pad-20" x="197485" y="-76835"/><use xlink:href="#CnSR2gAxUHW9-XW-dd4W_pad-20" x="200025" y="-74295"/><use xlink:href="#CnSR2gAxUHW9-XW-dd4W_pad-20" x="197485" y="-74295"/><use xlink:href="#CnSR2gAxUHW9-XW-dd4W_pad-20" x="200025" y="-71755"/><use xlink:href="#CnSR2gAxUHW9-XW-dd4W_pad-20" x="197485" y="-71755"/><use xlink:href="#CnSR2gAxUHW9-XW-dd4W_pad-20" x="200025" y="-69215"/><use xlink:href="#CnSR2gAxUHW9-XW-dd4W_pad-20" x="197485" y="-69215"/></g></svg>