<svg version="1.1" xmlns="http://www.w3.org/2000/svg" xmlns:xlink="http://www.w3.org/1999/xlink" stroke-linecap="round" stroke-linejoin="round" stroke-width="0" fill-rule="evenodd" width="109.29mm" height="97.11438000000001mm" viewBox="92040 -134809.38 109290 97114.38" id="TT_vkrMOAfFQMTarEHLy"><g transform="translate(0,-172504.38) scale(1,-1)" fill="currentColor" stroke="currentColor"><path d="M 193387.619 -132124.38 193578.095 -132124.38 193673.333 -132172 193720.952 -132219.619 193816.19 -132362.476 193863.809 -132552.952 193863.809 -132933.904 193816.19 -133029.142 193768.571 -133076.761 193673.333 -133124.38 193482.857 -133124.38 193387.619 -133076.761 193340 -133029.142 193292.38 -132933.904 193292.38 -132695.809 193340 -132600.571 193387.619 -132552.952 193482.857 -132505.333 193673.333 -132505.333 193768.571 -132552.952 193816.19 -132600.571 193863.809 -132695.809 M 192435.238 -132457.714 192435.238 -133124.38 M 192673.333 -132076.761 192911.428 -132791.047 192292.38 -132791.047 M 191911.428 -132743.428 191149.523 -132743.428 M 190720.952 -133076.761 190578.095 -133124.38 190340 -133124.38 190244.761 -133076.761 190197.142 -133029.142 190149.523 -132933.904 190149.523 -132838.666 190197.142 -132743.428 190244.761 -132695.809 190340 -132648.19 190530.476 -132600.571 190625.714 -132552.952 190673.333 -132505.333 190720.952 -132410.095 190720.952 -132314.857 190673.333 -132219.619 190625.714 -132172 190530.476 -132124.38 190292.38 -132124.38 190149.523 -132172 M 189863.809 -132124.38 189292.38 -132124.38 M 189578.095 -133124.38 189578.095 -132124.38 M 188959.047 -132600.571 188625.714 -132600.571 M 188482.857 -133124.38 188959.047 -133124.38 188959.047 -132124.38 188482.857 -132124.38 M 188054.285 -133124.38 188054.285 -132124.38 187673.333 -132124.38 187578.095 -132172 187530.476 -132219.619 187482.857 -132314.857 187482.857 -132457.714 187530.476 -132552.952 187578.095 -132600.571 187673.333 -132648.19 188054.285 -132648.19 M 187054.285 -133124.38 187054.285 -132124.38 186673.333 -132124.38 186578.095 -132172 186530.476 -132219.619 186482.857 -132314.857 186482.857 -132457.714 186530.476 -132552.952 186578.095 -132600.571 186673.333 -132648.19 187054.285 -132648.19 M 186054.285 -132600.571 185720.952 -132600.571 M 185578.095 -133124.38 186054.285 -133124.38 186054.285 -132124.38 185578.095 -132124.38 M 184578.095 -133124.38 184911.428 -132648.19 M 185149.523 -133124.38 185149.523 -132124.38 184768.571 -132124.38 184673.333 -132172 184625.714 -132219.619 184578.095 -132314.857 184578.095 -132457.714 184625.714 -132552.952 184673.333 -132600.571 184768.571 -132648.19 185149.523 -132648.19 M 184149.523 -132743.428 183387.619 -132743.428 M 182911.428 -133124.38 182911.428 -132124.38 182673.333 -132124.38 182530.476 -132172 182435.238 -132267.238 182387.619 -132362.476 182340 -132552.952 182340 -132695.809 182387.619 -132886.285 182435.238 -132981.523 182530.476 -133076.761 182673.333 -133124.38 182911.428 -133124.38 M 181340 -133124.38 181673.333 -132648.19 M 181911.428 -133124.38 181911.428 -132124.38 181530.476 -132124.38 181435.238 -132172 181387.619 -132219.619 181340 -132314.857 181340 -132457.714 181387.619 -132552.952 181435.238 -132600.571 181530.476 -132648.19 181911.428 -132648.19 M 180911.428 -133124.38 180911.428 -132124.38 M 180578.095 -132124.38 180244.761 -133124.38 179911.428 -132124.38 M 179578.095 -132600.571 179244.761 -132600.571 M 179101.904 -133124.38 179578.095 -133124.38 179578.095 -132124.38 179101.904 -132124.38 M 178101.904 -133124.38 178435.238 -132648.19 M 178673.333 -133124.38 178673.333 -132124.38 178292.38 -132124.38 178197.142 -132172 178149.523 -132219.619 178101.904 -132314.857 178101.904 -132457.714 178149.523 -132552.952 178197.142 -132600.571 178292.38 -132648.19 178673.333 -132648.19 M 177673.333 -132743.428 176911.428 -132743.428 M 176101.904 -132600.571 175959.047 -132648.19 175911.428 -132695.809 175863.809 -132791.047 175863.809 -132933.904 175911.428 -133029.142 175959.047 -133076.761 176054.285 -133124.38 176435.238 -133124.38 176435.238 -132124.38 176101.904 -132124.38 176006.666 -132172 175959.047 -132219.619 175911.428 -132314.857 175911.428 -132410.095 175959.047 -132505.333 176006.666 -132552.952 176101.904 -132600.571 176435.238 -132600.571 M 175244.761 -132124.38 175054.285 -132124.38 174959.047 -132172 174863.809 -132267.238 174816.19 -132457.714 174816.19 -132791.047 174863.809 -132981.523 174959.047 -133076.761 175054.285 -133124.38 175244.761 -133124.38 175340 -133076.761 175435.238 -132981.523 175482.857 -132791.047 175482.857 -132457.714 175435.238 -132267.238 175340 -132172 175244.761 -132124.38 M 174435.238 -132838.666 173959.047 -132838.666 M 174530.476 -133124.38 174197.142 -132124.38 173863.809 -133124.38 M 172959.047 -133124.38 173292.38 -132648.19 M 173530.476 -133124.38 173530.476 -132124.38 173149.523 -132124.38 173054.285 -132172 173006.666 -132219.619 172959.047 -132314.857 172959.047 -132457.714 173006.666 -132552.952 173054.285 -132600.571 173149.523 -132648.19 173530.476 -132648.19 M 172530.476 -133124.38 172530.476 -132124.38 172292.38 -132124.38 172149.523 -132172 172054.285 -132267.238 172006.666 -132362.476 171959.047 -132552.952 171959.047 -132695.809 172006.666 -132886.285 172054.285 -132981.523 172149.523 -133076.761 172292.38 -133124.38 172530.476 -133124.38 M 170197.142 -133124.38 170530.476 -132648.19 M 170768.571 -133124.38 170768.571 -132124.38 170387.619 -132124.38 170292.38 -132172 170244.761 -132219.619 170197.142 -132314.857 170197.142 -132457.714 170244.761 -132552.952 170292.38 -132600.571 170387.619 -132648.19 170768.571 -132648.19 M 169768.571 -132600.571 169435.238 -132600.571 M 169292.38 -133124.38 169768.571 -133124.38 169768.571 -132124.38 169292.38 -132124.38 M 169006.666 -132124.38 168673.333 -133124.38 168340 -132124.38 M 167292.38 -132838.666 166816.19 -132838.666 M 167387.619 -133124.38 167054.285 -132124.38 166720.952 -133124.38 M 186887.619 -134210.571 186554.285 -134210.571 M 186411.428 -134734.38 186887.619 -134734.38 186887.619 -133734.38 186411.428 -133734.38 M 185506.666 -134734.38 185982.857 -134734.38 185982.857 -133734.38 M 184697.142 -134734.38 185173.333 -134734.38 185173.333 -133734.38 M 184363.809 -134734.38 184363.809 -133734.38 M 183697.142 -133734.38 183506.666 -133734.38 183411.428 -133782 183316.19 -133877.238 183268.571 -134067.714 183268.571 -134401.047 183316.19 -134591.523 183411.428 -134686.761 183506.666 -134734.38 183697.142 -134734.38 183792.38 -134686.761 183887.619 -134591.523 183935.238 -134401.047 183935.238 -134067.714 183887.619 -133877.238 183792.38 -133782 183697.142 -133734.38 M 182982.857 -133734.38 182411.428 -133734.38 M 182697.142 -134734.38 182697.142 -133734.38 M 181316.19 -134210.571 180982.857 -134210.571 M 180840 -134734.38 181316.19 -134734.38 181316.19 -133734.38 180840 -133734.38 M 180411.428 -134734.38 180411.428 -133734.38 M 179363.809 -134639.142 179411.428 -134686.761 179554.285 -134734.38 179649.523 -134734.38 179792.38 -134686.761 179887.619 -134591.523 179935.238 -134496.285 179982.857 -134305.809 179982.857 -134162.952 179935.238 -133972.476 179887.619 -133877.238 179792.38 -133782 179649.523 -133734.38 179554.285 -133734.38 179411.428 -133782 179363.809 -133829.619 M 178935.238 -134734.38 178935.238 -133734.38 M 178363.809 -134734.38 178792.38 -134162.952 M 178363.809 -133734.38 178935.238 -134305.809 M 177935.238 -134734.38 177935.238 -133734.38 M 177935.238 -134210.571 177363.809 -134210.571 M 177363.809 -134734.38 177363.809 -133734.38 M 176697.142 -133734.38 176506.666 -133734.38 176411.428 -133782 176316.19 -133877.238 176268.571 -134067.714 176268.571 -134401.047 176316.19 -134591.523 176411.428 -134686.761 176506.666 -134734.38 176697.142 -134734.38 176792.38 -134686.761 176887.619 -134591.523 176935.238 -134401.047 176935.238 -134067.714 176887.619 -133877.238 176792.38 -133782 176697.142 -133734.38 M 175363.809 -134734.38 175840 -134734.38 175840 -133734.38 M 175173.333 -133734.38 174601.904 -133734.38 M 174887.619 -134734.38 174887.619 -133734.38 M 174363.809 -133734.38 173697.142 -133734.38 174363.809 -134734.38 173697.142 -134734.38 M 120408.333 -89992.38 120408.333 -90706.666 120455.952 -90849.523 120551.19 -90944.761 120694.047 -90992.38 120789.285 -90992.38 M 120027.38 -89992.38 119408.333 -89992.38 119741.666 -90373.333 119598.809 -90373.333 119503.571 -90420.952 119455.952 -90468.571 119408.333 -90563.809 119408.333 -90801.904 119455.952 -90897.142 119503.571 -90944.761 119598.809 -90992.38 119884.523 -90992.38 119979.761 -90944.761 120027.38 -90897.142 M 120729.333 -104862.38 120729.333 -105576.666 120776.952 -105719.523 120872.19 -105814.761 121015.047 -105862.38 121110.285 -105862.38 M 120348.38 -104862.38 119681.714 -104862.38 120110.285 -105862.38 M 151463.333 -90257.38 151463.333 -90971.666 151510.952 -91114.523 151606.19 -91209.761 151749.047 -91257.38 151844.285 -91257.38 M 150558.571 -90257.38 150749.047 -90257.38 150844.285 -90305 150891.904 -90352.619 150987.142 -90495.476 151034.761 -90685.952 151034.761 -91066.904 150987.142 -91162.142 150939.523 -91209.761 150844.285 -91257.38 150653.809 -91257.38 150558.571 -91209.761 150510.952 -91162.142 150463.333 -91066.904 150463.333 -90828.809 150510.952 -90733.571 150558.571 -90685.952 150653.809 -90638.333 150844.285 -90638.333 150939.523 -90685.952 150987.142 -90733.571 151034.761 -90828.809 M 152574.523 -104862.38 152574.523 -105576.666 152622.142 -105719.523 152717.38 -105814.761 152860.238 -105862.38 152955.476 -105862.38 M 151574.523 -105862.38 152145.952 -105862.38 M 151860.238 -105862.38 151860.238 -104862.38 151955.476 -105005.238 152050.714 -105100.476 152145.952 -105148.095 M 150622.142 -105862.38 151193.571 -105862.38 M 150907.857 -105862.38 150907.857 -104862.38 151003.095 -105005.238 151098.333 -105100.476 151193.571 -105148.095 M 128063.523 -83018.38 128063.523 -83732.666 128111.142 -83875.523 128206.38 -83970.761 128349.238 -84018.38 128444.476 -84018.38 M 127063.523 -84018.38 127634.952 -84018.38 M 127349.238 -84018.38 127349.238 -83018.38 127444.476 -83161.238 127539.714 -83256.476 127634.952 -83304.095 M 126682.571 -83113.619 126634.952 -83066 126539.714 -83018.38 126301.619 -83018.38 126206.38 -83066 126158.761 -83113.619 126111.142 -83208.857 126111.142 -83304.095 126158.761 -83446.952 126730.19 -84018.38 126111.142 -84018.38 M 131068.333 -104862.38 131068.333 -105576.666 131115.952 -105719.523 131211.19 -105814.761 131354.047 -105862.38 131449.285 -105862.38 M 130449.285 -105290.952 130544.523 -105243.333 130592.142 -105195.714 130639.761 -105100.476 130639.761 -105052.857 130592.142 -104957.619 130544.523 -104910 130449.285 -104862.38 130258.809 -104862.38 130163.571 -104910 130115.952 -104957.619 130068.333 -105052.857 130068.333 -105100.476 130115.952 -105195.714 130163.571 -105243.333 130258.809 -105290.952 130449.285 -105290.952 130544.523 -105338.571 130592.142 -105386.19 130639.761 -105481.428 130639.761 -105671.904 130592.142 -105767.142 130544.523 -105814.761 130449.285 -105862.38 130258.809 -105862.38 130163.571 -105814.761 130115.952 -105767.142 130068.333 -105671.904 130068.333 -105481.428 130115.952 -105386.19 130163.571 -105338.571 130258.809 -105290.952 M 133683.333 -89876.38 133683.333 -90590.666 133730.952 -90733.523 133826.19 -90828.761 133969.047 -90876.38 134064.285 -90876.38 M 132778.571 -90209.714 132778.571 -90876.38 M 133016.666 -89828.761 133254.761 -90543.047 132635.714 -90543.047 M 140728.333 -89992.38 140728.333 -90706.666 140775.952 -90849.523 140871.19 -90944.761 141014.047 -90992.38 141109.285 -90992.38 M 139775.952 -89992.38 140252.142 -89992.38 140299.761 -90468.571 140252.142 -90420.952 140156.904 -90373.333 139918.809 -90373.333 139823.571 -90420.952 139775.952 -90468.571 139728.333 -90563.809 139728.333 -90801.904 139775.952 -90897.142 139823.571 -90944.761 139918.809 -90992.38 140156.904 -90992.38 140252.142 -90944.761 140299.761 -90897.142 M 141378.333 -104862.38 141378.333 -105576.666 141425.952 -105719.523 141521.19 -105814.761 141664.047 -105862.38 141759.285 -105862.38 M 140854.523 -105862.38 140664.047 -105862.38 140568.809 -105814.761 140521.19 -105767.142 140425.952 -105624.285 140378.333 -105433.809 140378.333 -105052.857 140425.952 -104957.619 140473.571 -104910 140568.809 -104862.38 140759.285 -104862.38 140854.523 -104910 140902.142 -104957.619 140949.761 -105052.857 140949.761 -105290.952 140902.142 -105386.19 140854.523 -105433.809 140759.285 -105481.428 140568.809 -105481.428 140473.571 -105433.809 140425.952 -105386.19 140378.333 -105290.952 M 97877.38 -99916.666 98591.666 -99916.666 98734.523 -99869.047 98829.761 -99773.809 98877.38 -99630.952 98877.38 -99535.714 M 97972.619 -100345.238 97925 -100392.857 97877.38 -100488.095 97877.38 -100726.19 97925 -100821.428 97972.619 -100869.047 98067.857 -100916.666 98163.095 -100916.666 98305.952 -100869.047 98877.38 -100297.619 98877.38 -100916.666 M 194397.38 -70151.666 195111.666 -70151.666 195254.523 -70104.047 195349.761 -70008.809 195397.38 -69865.952 195397.38 -69770.714 M 195397.38 -71151.666 195397.38 -70580.238 M 195397.38 -70865.952 194397.38 -70865.952 194540.238 -70770.714 194635.476 -70675.476 194683.095 -70580.238" fill="none" stroke-width="150"/><path d="M 125575 -97540 115575 -97540 115575 -91540 125575 -91540 125575 -97540 M 125575 -103890 115575 -103890 115575 -97890 125575 -97890 125575 -103890 M 156055 -97540 146055 -97540 146055 -91540 156055 -91540 156055 -97540 M 156055 -103890 146055 -103890 146055 -97890 156055 -97890 156055 -103890 M 132000 -90384 122000 -90384 122000 -84384 132000 -84384 132000 -90384 M 135735 -103890 125735 -103890 125735 -97890 135735 -97890 135735 -103890 M 135735 -97540 125735 -97540 125735 -91540 135735 -91540 135735 -97540 M 145895 -97540 135895 -97540 135895 -91540 145895 -91540 145895 -97540 M 145970 -103890 135970 -103890 135970 -97890 145970 -97890 145970 -103890 M 92140 -102425 97090 -102425 M 97090 -38545 92140 -38545 M 97090 -38545 97090 -102425 M 92140 -38545 92140 -102425 M 93445 -37895 A 100 100 0 0 1 93245 -37895 100 100 0 0 1 93445 -37895 M 201230 -67755 196280 -67755 M 196280 -131635 201230 -131635 M 196280 -131635 196280 -67755 M 201230 -131635 201230 -67755 M 200125 -132285 A 100 100 0 0 1 199925 -132285 100 100 0 0 1 200125 -132285" fill="none" stroke-width="200"/></g></svg>