<svg version="1.1" xmlns="http://www.w3.org/2000/svg" xmlns:xlink="http://www.w3.org/1999/xlink" stroke-linecap="round" stroke-linejoin="round" stroke-width="0" fill-rule="evenodd" width="105.96293399999999mm" height="103.449819mm" viewBox="93679.723 -134682.38 105962.934 103449.819" id="sEnP-xD4xOTtl8OURw-a"><g transform="translate(0,-165914.941) scale(1,-1)" fill="currentColor" stroke="currentColor"><path d="M 167292.38 -131997.38 167101.904 -131997.38 167006.666 -132045 166959.047 -132092.619 166863.809 -132235.476 166816.19 -132425.952 166816.19 -132806.904 166863.809 -132902.142 166911.428 -132949.761 167006.666 -132997.38 167197.142 -132997.38 167292.38 -132949.761 167340 -132902.142 167387.619 -132806.904 167387.619 -132568.809 167340 -132473.571 167292.38 -132425.952 167197.142 -132378.333 167006.666 -132378.333 166911.428 -132425.952 166863.809 -132473.571 166816.19 -132568.809 M 168244.761 -132330.714 168244.761 -132997.38 M 168006.666 -131949.761 167768.571 -132664.047 168387.619 -132664.047 M 168768.571 -132616.428 169530.476 -132616.428 M 169959.047 -132949.761 170101.904 -132997.38 170340 -132997.38 170435.238 -132949.761 170482.857 -132902.142 170530.476 -132806.904 170530.476 -132711.666 170482.857 -132616.428 170435.238 -132568.809 170340 -132521.19 170149.523 -132473.571 170054.285 -132425.952 170006.666 -132378.333 169959.047 -132283.095 169959.047 -132187.857 170006.666 -132092.619 170054.285 -132045 170149.523 -131997.38 170387.619 -131997.38 170530.476 -132045 M 170816.19 -131997.38 171387.619 -131997.38 M 171101.904 -132997.38 171101.904 -131997.38 M 171720.952 -132473.571 172054.285 -132473.571 M 172197.142 -132997.38 171720.952 -132997.38 171720.952 -131997.38 172197.142 -131997.38 M 172625.714 -132997.38 172625.714 -131997.38 173006.666 -131997.38 173101.904 -132045 173149.523 -132092.619 173197.142 -132187.857 173197.142 -132330.714 173149.523 -132425.952 173101.904 -132473.571 173006.666 -132521.19 172625.714 -132521.19 M 173625.714 -132997.38 173625.714 -131997.38 174006.666 -131997.38 174101.904 -132045 174149.523 -132092.619 174197.142 -132187.857 174197.142 -132330.714 174149.523 -132425.952 174101.904 -132473.571 174006.666 -132521.19 173625.714 -132521.19 M 174625.714 -132473.571 174959.047 -132473.571 M 175101.904 -132997.38 174625.714 -132997.38 174625.714 -131997.38 175101.904 -131997.38 M 176101.904 -132997.38 175768.571 -132521.19 M 175530.476 -132997.38 175530.476 -131997.38 175911.428 -131997.38 176006.666 -132045 176054.285 -132092.619 176101.904 -132187.857 176101.904 -132330.714 176054.285 -132425.952 176006.666 -132473.571 175911.428 -132521.19 175530.476 -132521.19 M 176530.476 -132616.428 177292.38 -132616.428 M 177768.571 -132997.38 177768.571 -131997.38 178006.666 -131997.38 178149.523 -132045 178244.761 -132140.238 178292.38 -132235.476 178340 -132425.952 178340 -132568.809 178292.38 -132759.285 178244.761 -132854.523 178149.523 -132949.761 178006.666 -132997.38 177768.571 -132997.38 M 179340 -132997.38 179006.666 -132521.19 M 178768.571 -132997.38 178768.571 -131997.38 179149.523 -131997.38 179244.761 -132045 179292.38 -132092.619 179340 -132187.857 179340 -132330.714 179292.38 -132425.952 179244.761 -132473.571 179149.523 -132521.19 178768.571 -132521.19 M 179768.571 -132997.38 179768.571 -131997.38 M 180101.904 -131997.38 180435.238 -132997.38 180768.571 -131997.38 M 181101.904 -132473.571 181435.238 -132473.571 M 181578.095 -132997.38 181101.904 -132997.38 181101.904 -131997.38 181578.095 -131997.38 M 182578.095 -132997.38 182244.761 -132521.19 M 182006.666 -132997.38 182006.666 -131997.38 182387.619 -131997.38 182482.857 -132045 182530.476 -132092.619 182578.095 -132187.857 182578.095 -132330.714 182530.476 -132425.952 182482.857 -132473.571 182387.619 -132521.19 182006.666 -132521.19 M 183006.666 -132616.428 183768.571 -132616.428 M 184578.095 -132473.571 184720.952 -132521.19 184768.571 -132568.809 184816.19 -132664.047 184816.19 -132806.904 184768.571 -132902.142 184720.952 -132949.761 184625.714 -132997.38 184244.761 -132997.38 184244.761 -131997.38 184578.095 -131997.38 184673.333 -132045 184720.952 -132092.619 184768.571 -132187.857 184768.571 -132283.095 184720.952 -132378.333 184673.333 -132425.952 184578.095 -132473.571 184244.761 -132473.571 M 185435.238 -131997.38 185625.714 -131997.38 185720.952 -132045 185816.19 -132140.238 185863.809 -132330.714 185863.809 -132664.047 185816.19 -132854.523 185720.952 -132949.761 185625.714 -132997.38 185435.238 -132997.38 185340 -132949.761 185244.761 -132854.523 185197.142 -132664.047 185197.142 -132330.714 185244.761 -132140.238 185340 -132045 185435.238 -131997.38 M 186244.761 -132711.666 186720.952 -132711.666 M 186149.523 -132997.38 186482.857 -131997.38 186816.19 -132997.38 M 187720.952 -132997.38 187387.619 -132521.19 M 187149.523 -132997.38 187149.523 -131997.38 187530.476 -131997.38 187625.714 -132045 187673.333 -132092.619 187720.952 -132187.857 187720.952 -132330.714 187673.333 -132425.952 187625.714 -132473.571 187530.476 -132521.19 187149.523 -132521.19 M 188149.523 -132997.38 188149.523 -131997.38 188387.619 -131997.38 188530.476 -132045 188625.714 -132140.238 188673.333 -132235.476 188720.952 -132425.952 188720.952 -132568.809 188673.333 -132759.285 188625.714 -132854.523 188530.476 -132949.761 188387.619 -132997.38 188149.523 -132997.38 M 190482.857 -132997.38 190149.523 -132521.19 M 189911.428 -132997.38 189911.428 -131997.38 190292.38 -131997.38 190387.619 -132045 190435.238 -132092.619 190482.857 -132187.857 190482.857 -132330.714 190435.238 -132425.952 190387.619 -132473.571 190292.38 -132521.19 189911.428 -132521.19 M 190911.428 -132473.571 191244.761 -132473.571 M 191387.619 -132997.38 190911.428 -132997.38 190911.428 -131997.38 191387.619 -131997.38 M 191673.333 -131997.38 192006.666 -132997.38 192340 -131997.38 M 193387.619 -132711.666 193863.809 -132711.666 M 193292.38 -132997.38 193625.714 -131997.38 193959.047 -132997.38 M 173792.38 -134083.571 174125.714 -134083.571 M 174268.571 -134607.38 173792.38 -134607.38 173792.38 -133607.38 174268.571 -133607.38 M 175173.333 -134607.38 174697.142 -134607.38 174697.142 -133607.38 M 175982.857 -134607.38 175506.666 -134607.38 175506.666 -133607.38 M 176316.19 -134607.38 176316.19 -133607.38 M 176982.857 -133607.38 177173.333 -133607.38 177268.571 -133655 177363.809 -133750.238 177411.428 -133940.714 177411.428 -134274.047 177363.809 -134464.523 177268.571 -134559.761 177173.333 -134607.38 176982.857 -134607.38 176887.619 -134559.761 176792.38 -134464.523 176744.761 -134274.047 176744.761 -133940.714 176792.38 -133750.238 176887.619 -133655 176982.857 -133607.38 M 177697.142 -133607.38 178268.571 -133607.38 M 177982.857 -134607.38 177982.857 -133607.38 M 179363.809 -134083.571 179697.142 -134083.571 M 179840 -134607.38 179363.809 -134607.38 179363.809 -133607.38 179840 -133607.38 M 180268.571 -134607.38 180268.571 -133607.38 M 181316.19 -134512.142 181268.571 -134559.761 181125.714 -134607.38 181030.476 -134607.38 180887.619 -134559.761 180792.38 -134464.523 180744.761 -134369.285 180697.142 -134178.809 180697.142 -134035.952 180744.761 -133845.476 180792.38 -133750.238 180887.619 -133655 181030.476 -133607.38 181125.714 -133607.38 181268.571 -133655 181316.19 -133702.619 M 181744.761 -134607.38 181744.761 -133607.38 M 182316.19 -134607.38 181887.619 -134035.952 M 182316.19 -133607.38 181744.761 -134178.809 M 182744.761 -134607.38 182744.761 -133607.38 M 182744.761 -134083.571 183316.19 -134083.571 M 183316.19 -134607.38 183316.19 -133607.38 M 183982.857 -133607.38 184173.333 -133607.38 184268.571 -133655 184363.809 -133750.238 184411.428 -133940.714 184411.428 -134274.047 184363.809 -134464.523 184268.571 -134559.761 184173.333 -134607.38 183982.857 -134607.38 183887.619 -134559.761 183792.38 -134464.523 183744.761 -134274.047 183744.761 -133940.714 183792.38 -133750.238 183887.619 -133655 183982.857 -133607.38 M 185316.19 -134607.38 184840 -134607.38 184840 -133607.38 M 185506.666 -133607.38 186078.095 -133607.38 M 185792.38 -134607.38 185792.38 -133607.38 M 186316.19 -133607.38 186982.857 -133607.38 186316.19 -134607.38 186982.857 -134607.38 M 162433.095 -79462.38 162433.095 -80271.904 162480.714 -80367.142 162528.333 -80414.761 162623.571 -80462.38 162814.047 -80462.38 162909.285 -80414.761 162956.904 -80367.142 163004.523 -80271.904 163004.523 -79462.38 M 163385.476 -79462.38 164004.523 -79462.38 163671.19 -79843.333 163814.047 -79843.333 163909.285 -79890.952 163956.904 -79938.571 164004.523 -80033.809 164004.523 -80271.904 163956.904 -80367.142 163909.285 -80414.761 163814.047 -80462.38 163528.333 -80462.38 163433.095 -80414.761 163385.476 -80367.142 M 124333.095 -59777.38 124333.095 -60586.904 124380.714 -60682.142 124428.333 -60729.761 124523.571 -60777.38 124714.047 -60777.38 124809.285 -60729.761 124856.904 -60682.142 124904.523 -60586.904 124904.523 -59777.38 M 125809.285 -60110.714 125809.285 -60777.38 M 125571.19 -59729.761 125333.095 -60444.047 125952.142 -60444.047 M 146463.095 -60412.38 146463.095 -61221.904 146510.714 -61317.142 146558.333 -61364.761 146653.571 -61412.38 146844.047 -61412.38 146939.285 -61364.761 146986.904 -61317.142 147034.523 -61221.904 147034.523 -60412.38 M 147463.095 -60507.619 147510.714 -60460 147605.952 -60412.38 147844.047 -60412.38 147939.285 -60460 147986.904 -60507.619 148034.523 -60602.857 148034.523 -60698.095 147986.904 -60840.952 147415.476 -61412.38 148034.523 -61412.38 M 197615.276 -131329.58 197615.276 -132043.866 197567.657 -132186.723 197472.419 -132281.961 197329.561 -132329.58 197234.323 -132329.58 M 198615.276 -132329.58 198043.847 -132329.58 M 198329.561 -132329.58 198329.561 -131329.58 198234.323 -131472.438 198139.085 -131567.676 198043.847 -131615.295 M 199520.038 -131329.58 199043.847 -131329.58 198996.228 -131805.771 199043.847 -131758.152 199139.085 -131710.533 199377.18 -131710.533 199472.419 -131758.152 199520.038 -131805.771 199567.657 -131901.009 199567.657 -132139.104 199520.038 -132234.342 199472.419 -132281.961 199377.18 -132329.58 199139.085 -132329.58 199043.847 -132281.961 198996.228 -132234.342 M 151590.476 -113117.38 151590.476 -113831.666 151542.857 -113974.523 151447.619 -114069.761 151304.761 -114117.38 151209.523 -114117.38 M 152590.476 -114117.38 152019.047 -114117.38 M 152304.761 -114117.38 152304.761 -113117.38 152209.523 -113260.238 152114.285 -113355.476 152019.047 -113403.095 M 153209.523 -113117.38 153304.761 -113117.38 153400 -113165 153447.619 -113212.619 153495.238 -113307.857 153542.857 -113498.333 153542.857 -113736.428 153495.238 -113926.904 153447.619 -114022.142 153400 -114069.761 153304.761 -114117.38 153209.523 -114117.38 153114.285 -114069.761 153066.666 -114022.142 153019.047 -113926.904 152971.428 -113736.428 152971.428 -113498.333 153019.047 -113307.857 153066.666 -113212.619 153114.285 -113165 153209.523 -113117.38 M 166243.095 -109307.38 166243.095 -110116.904 166290.714 -110212.142 166338.333 -110259.761 166433.571 -110307.38 166624.047 -110307.38 166719.285 -110259.761 166766.904 -110212.142 166814.523 -110116.904 166814.523 -109307.38 M 167814.523 -110307.38 167243.095 -110307.38 M 167528.809 -110307.38 167528.809 -109307.38 167433.571 -109450.238 167338.333 -109545.476 167243.095 -109593.095 M 176990.476 -64857.38 176990.476 -65571.666 176942.857 -65714.523 176847.619 -65809.761 176704.761 -65857.38 176609.523 -65857.38 M 177990.476 -65857.38 177419.047 -65857.38 M 177704.761 -65857.38 177704.761 -64857.38 177609.523 -65000.238 177514.285 -65095.476 177419.047 -65143.095 M 178323.809 -64857.38 178942.857 -64857.38 178609.523 -65238.333 178752.38 -65238.333 178847.619 -65285.952 178895.238 -65333.571 178942.857 -65428.809 178942.857 -65666.904 178895.238 -65762.142 178847.619 -65809.761 178752.38 -65857.38 178466.666 -65857.38 178371.428 -65809.761 178323.809 -65762.142 M 94135.676 -31355.18 94135.676 -32069.466 94088.057 -32212.323 93992.819 -32307.561 93849.961 -32355.18 93754.723 -32355.18 M 95135.676 -32355.18 94564.247 -32355.18 M 94849.961 -32355.18 94849.961 -31355.18 94754.723 -31498.038 94659.485 -31593.276 94564.247 -31640.895 M 95992.819 -31688.514 95992.819 -32355.18 M 95754.723 -31307.561 95516.628 -32021.847 96135.676 -32021.847 M 132715 -83820 131445 -83820 M 193675 -88900 132715 -88900 132715 -71120 M 137795 -83820 132715 -83820 M 137795 -83820 137795 -76200 132715 -76200 M 132715 -71120 193675 -71120 M 131445 -76200 132715 -76200 M 193675 -71120 193675 -88900 M 131445 -83820 131445 -76200 M 129540 -56515 129540 -64135 M 99060 -51435 134620 -51435 M 134620 -69215 99060 -69215 M 134620 -56515 135890 -56515 M 135890 -64135 134620 -64135 M 129540 -64135 134620 -64135 M 134620 -51435 134620 -69215 M 135890 -56515 135890 -64135 M 129540 -56515 134620 -56515 M 99060 -69215 99060 -51435" fill="none" stroke-width="150"/><path d="M 136525 -56580 136525 -64200 M 158115 -56580 158115 -64200 M 154305 -66740 140335 -66740" fill="none" stroke-width="120"/><path d="M 144850 -107980 144975 -107980 M 147575 -117730 138175 -117730 M 144975 -107980 144975 -109680 M 140775 -107980 140900 -107980 M 140775 -109680 140775 -107980 M 136075 -109680 140775 -109680 M 144975 -109680 149675 -109680 M 136075 -109680 136075 -112450 M 149675 -109680 149675 -112450 M 139975 -108330 A 100 100 0 0 1 139775 -108330 100 100 0 0 1 139975 -108330" fill="none" stroke-width="200"/><path d="M 163830 -113665 163830 -106045 M 194310 -118745 158750 -118745 M 158750 -100965 194310 -100965 M 158750 -113665 157480 -113665 M 157480 -106045 158750 -106045 M 163830 -106045 158750 -106045 M 158750 -118745 158750 -100965 M 157480 -113665 157480 -106045 M 163830 -113665 158750 -113665 M 194310 -100965 194310 -118745" fill="none" stroke-width="150"/><path d="M 181610 -67250 182940 -67250 M 180340 -67250 159960 -67250 M 180340 -69910 159960 -69910 M 180340 -67250 180340 -69910 M 159960 -67250 159960 -69910 M 182940 -67250 182940 -68580" fill="none" stroke-width="120"/></g></svg>