<svg version="1.1" xmlns="http://www.w3.org/2000/svg" xmlns:xlink="http://www.w3.org/1999/xlink" stroke-linecap="round" stroke-linejoin="round" stroke-width="0" fill-rule="evenodd" width="4.2409in" height="4.0226in" viewBox="3654.55 -5361.3 4240.9 4022.6" id="pZQ5HATeJRoyKby8PGNY"><defs><circle cx="0" cy="0" r="5.9" id="pZQ5HATeJRoyKby8PGNY_pad-1"/><circle cx="0" cy="0" r="15" id="pZQ5HATeJRoyKby8PGNY_pad-2"/><circle cx="0" cy="0" r="15.75" id="pZQ5HATeJRoyKby8PGNY_pad-3"/><circle cx="0" cy="0" r="19.7" id="pZQ5HATeJRoyKby8PGNY_pad-4"/><circle cx="0" cy="0" r="20.45" id="pZQ5HATeJRoyKby8PGNY_pad-5"/><circle cx="0" cy="0" r="21.65" id="pZQ5HATeJRoyKby8PGNY_pad-6"/><circle cx="0" cy="0" r="43.3" id="pZQ5HATeJRoyKby8PGNY_pad-7"/></defs><g transform="translate(0,-6700) scale(1,-1)" fill="currentColor" stroke="currentColor"><use xlink:href="#pZQ5HATeJRoyKby8PGNY_pad-1" x="3950" y="-3875"/><use xlink:href="#pZQ5HATeJRoyKby8PGNY_pad-1" x="3950" y="-3975"/><use xlink:href="#pZQ5HATeJRoyKby8PGNY_pad-1" x="4050" y="-3875"/><use xlink:href="#pZQ5HATeJRoyKby8PGNY_pad-1" x="4050" y="-3975"/><use xlink:href="#pZQ5HATeJRoyKby8PGNY_pad-1" x="5200" y="-1975"/><use xlink:href="#pZQ5HATeJRoyKby8PGNY_pad-1" x="5300" y="-1975"/><use xlink:href="#pZQ5HATeJRoyKby8PGNY_pad-1" x="5450" y="-2600"/><use xlink:href="#pZQ5HATeJRoyKby8PGNY_pad-1" x="5950" y="-4275"/><use xlink:href="#pZQ5HATeJRoyKby8PGNY_pad-1" x="5950" y="-4375"/><use xlink:href="#pZQ5HATeJRoyKby8PGNY_pad-1" x="6050" y="-4275"/><use xlink:href="#pZQ5HATeJRoyKby8PGNY_pad-1" x="6050" y="-4375"/><use xlink:href="#pZQ5HATeJRoyKby8PGNY_pad-1" x="6150" y="-4275"/><use xlink:href="#pZQ5HATeJRoyKby8PGNY_pad-1" x="6150" y="-4375"/><use xlink:href="#pZQ5HATeJRoyKby8PGNY_pad-1" x="6700" y="-2600"/><use xlink:href="#pZQ5HATeJRoyKby8PGNY_pad-1" x="6700" y="-2975"/><use xlink:href="#pZQ5HATeJRoyKby8PGNY_pad-1" x="6775" y="-2975"/><use xlink:href="#pZQ5HATeJRoyKby8PGNY_pad-1" x="6825" y="-2600"/><use xlink:href="#pZQ5HATeJRoyKby8PGNY_pad-1" x="7525" y="-2725"/><use xlink:href="#pZQ5HATeJRoyKby8PGNY_pad-1" x="7625" y="-2725"/><use xlink:href="#pZQ5HATeJRoyKby8PGNY_pad-2" x="4647" y="-3741.7"/><use xlink:href="#pZQ5HATeJRoyKby8PGNY_pad-2" x="4647" y="-3991.7"/><use xlink:href="#pZQ5HATeJRoyKby8PGNY_pad-2" x="4747" y="-3741.7"/><use xlink:href="#pZQ5HATeJRoyKby8PGNY_pad-2" x="4747" y="-3991.7"/><use xlink:href="#pZQ5HATeJRoyKby8PGNY_pad-2" x="4847" y="-3741.7"/><use xlink:href="#pZQ5HATeJRoyKby8PGNY_pad-2" x="4847" y="-3991.7"/><use xlink:href="#pZQ5HATeJRoyKby8PGNY_pad-2" x="4900" y="-3460"/><use xlink:href="#pZQ5HATeJRoyKby8PGNY_pad-2" x="5000" y="-3460"/><use xlink:href="#pZQ5HATeJRoyKby8PGNY_pad-2" x="5047" y="-3741.7"/><use xlink:href="#pZQ5HATeJRoyKby8PGNY_pad-2" x="5047" y="-3991.7"/><use xlink:href="#pZQ5HATeJRoyKby8PGNY_pad-2" x="5100" y="-3460"/><use xlink:href="#pZQ5HATeJRoyKby8PGNY_pad-2" x="5147" y="-3741.7"/><use xlink:href="#pZQ5HATeJRoyKby8PGNY_pad-2" x="5147" y="-3991.7"/><use xlink:href="#pZQ5HATeJRoyKby8PGNY_pad-2" x="5247" y="-3741.7"/><use xlink:href="#pZQ5HATeJRoyKby8PGNY_pad-2" x="5247" y="-3991.7"/><use xlink:href="#pZQ5HATeJRoyKby8PGNY_pad-2" x="5447" y="-3741.7"/><use xlink:href="#pZQ5HATeJRoyKby8PGNY_pad-2" x="5450" y="-3991.7"/><use xlink:href="#pZQ5HATeJRoyKby8PGNY_pad-2" x="5547" y="-3741.7"/><use xlink:href="#pZQ5HATeJRoyKby8PGNY_pad-2" x="5550" y="-2577.6"/><use xlink:href="#pZQ5HATeJRoyKby8PGNY_pad-2" x="5550" y="-3991.7"/><use xlink:href="#pZQ5HATeJRoyKby8PGNY_pad-2" x="5647" y="-3741.7"/><use xlink:href="#pZQ5HATeJRoyKby8PGNY_pad-2" x="5650" y="-2577.6"/><use xlink:href="#pZQ5HATeJRoyKby8PGNY_pad-2" x="5650" y="-3991.7"/><use xlink:href="#pZQ5HATeJRoyKby8PGNY_pad-2" x="5750" y="-2577.6"/><use xlink:href="#pZQ5HATeJRoyKby8PGNY_pad-2" x="5847" y="-3741.7"/><use xlink:href="#pZQ5HATeJRoyKby8PGNY_pad-2" x="5847" y="-3991.7"/><use xlink:href="#pZQ5HATeJRoyKby8PGNY_pad-2" x="5850" y="-2577.6"/><use xlink:href="#pZQ5HATeJRoyKby8PGNY_pad-2" x="5947" y="-3741.7"/><use xlink:href="#pZQ5HATeJRoyKby8PGNY_pad-2" x="5947" y="-3991.7"/><use xlink:href="#pZQ5HATeJRoyKby8PGNY_pad-2" x="5950" y="-2577.6"/><use xlink:href="#pZQ5HATeJRoyKby8PGNY_pad-2" x="6047" y="-3741.7"/><use xlink:href="#pZQ5HATeJRoyKby8PGNY_pad-2" x="6047" y="-3991.7"/><use xlink:href="#pZQ5HATeJRoyKby8PGNY_pad-2" x="6050" y="-2577.6"/><use xlink:href="#pZQ5HATeJRoyKby8PGNY_pad-3" x="5303.7" y="-3100"/><use xlink:href="#pZQ5HATeJRoyKby8PGNY_pad-3" x="5303.7" y="-3200"/><use xlink:href="#pZQ5HATeJRoyKby8PGNY_pad-3" x="5406.5" y="-4505.1"/><use xlink:href="#pZQ5HATeJRoyKby8PGNY_pad-3" x="5406.5" y="-4583.9"/><use xlink:href="#pZQ5HATeJRoyKby8PGNY_pad-3" x="5843.5" y="-4505.1"/><use xlink:href="#pZQ5HATeJRoyKby8PGNY_pad-3" x="5843.5" y="-4583.9"/><use xlink:href="#pZQ5HATeJRoyKby8PGNY_pad-4" x="6350" y="-2700"/><use xlink:href="#pZQ5HATeJRoyKby8PGNY_pad-4" x="6450" y="-2700"/><use xlink:href="#pZQ5HATeJRoyKby8PGNY_pad-4" x="6550" y="-2700"/><use xlink:href="#pZQ5HATeJRoyKby8PGNY_pad-4" x="6650" y="-2700"/><use xlink:href="#pZQ5HATeJRoyKby8PGNY_pad-4" x="6750" y="-2700"/><use xlink:href="#pZQ5HATeJRoyKby8PGNY_pad-4" x="6850" y="-2700"/><use xlink:href="#pZQ5HATeJRoyKby8PGNY_pad-4" x="6950" y="-2700"/><use xlink:href="#pZQ5HATeJRoyKby8PGNY_pad-4" x="7050" y="-2700"/><use xlink:href="#pZQ5HATeJRoyKby8PGNY_pad-4" x="7150" y="-2700"/><use xlink:href="#pZQ5HATeJRoyKby8PGNY_pad-5" x="3675" y="-1575"/><use xlink:href="#pZQ5HATeJRoyKby8PGNY_pad-5" x="3675" y="-1675"/><use xlink:href="#pZQ5HATeJRoyKby8PGNY_pad-5" x="3675" y="-1775"/><use xlink:href="#pZQ5HATeJRoyKby8PGNY_pad-5" x="3675" y="-1875"/><use xlink:href="#pZQ5HATeJRoyKby8PGNY_pad-5" x="3675" y="-1975"/><use xlink:href="#pZQ5HATeJRoyKby8PGNY_pad-5" x="3675" y="-2075"/><use xlink:href="#pZQ5HATeJRoyKby8PGNY_pad-5" x="3675" y="-2175"/><use xlink:href="#pZQ5HATeJRoyKby8PGNY_pad-5" x="3675" y="-2275"/><use xlink:href="#pZQ5HATeJRoyKby8PGNY_pad-5" x="3675" y="-2375"/><use xlink:href="#pZQ5HATeJRoyKby8PGNY_pad-5" x="3675" y="-2475"/><use xlink:href="#pZQ5HATeJRoyKby8PGNY_pad-5" x="3675" y="-2575"/><use xlink:href="#pZQ5HATeJRoyKby8PGNY_pad-5" x="3675" y="-2675"/><use xlink:href="#pZQ5HATeJRoyKby8PGNY_pad-5" x="3675" y="-2775"/><use xlink:href="#pZQ5HATeJRoyKby8PGNY_pad-5" x="3675" y="-2875"/><use xlink:href="#pZQ5HATeJRoyKby8PGNY_pad-5" x="3675" y="-2975"/><use xlink:href="#pZQ5HATeJRoyKby8PGNY_pad-5" x="3675" y="-3075"/><use xlink:href="#pZQ5HATeJRoyKby8PGNY_pad-5" x="3675" y="-3175"/><use xlink:href="#pZQ5HATeJRoyKby8PGNY_pad-5" x="3675" y="-3275"/><use xlink:href="#pZQ5HATeJRoyKby8PGNY_pad-5" x="3675" y="-3375"/><use xlink:href="#pZQ5HATeJRoyKby8PGNY_pad-5" x="3675" y="-3475"/><use xlink:href="#pZQ5HATeJRoyKby8PGNY_pad-5" x="3675" y="-3575"/><use xlink:href="#pZQ5HATeJRoyKby8PGNY_pad-5" x="3675" y="-3675"/><use xlink:href="#pZQ5HATeJRoyKby8PGNY_pad-5" x="3675" y="-3775"/><use xlink:href="#pZQ5HATeJRoyKby8PGNY_pad-5" x="3675" y="-3875"/><use xlink:href="#pZQ5HATeJRoyKby8PGNY_pad-5" x="3675" y="-3975"/><use xlink:href="#pZQ5HATeJRoyKby8PGNY_pad-5" x="3775" y="-1575"/><use xlink:href="#pZQ5HATeJRoyKby8PGNY_pad-5" x="3775" y="-1675"/><use xlink:href="#pZQ5HATeJRoyKby8PGNY_pad-5" x="3775" y="-1775"/><use xlink:href="#pZQ5HATeJRoyKby8PGNY_pad-5" x="3775" y="-1875"/><use xlink:href="#pZQ5HATeJRoyKby8PGNY_pad-5" x="3775" y="-1975"/><use xlink:href="#pZQ5HATeJRoyKby8PGNY_pad-5" x="3775" y="-2075"/><use xlink:href="#pZQ5HATeJRoyKby8PGNY_pad-5" x="3775" y="-2175"/><use xlink:href="#pZQ5HATeJRoyKby8PGNY_pad-5" x="3775" y="-2275"/><use xlink:href="#pZQ5HATeJRoyKby8PGNY_pad-5" x="3775" y="-2375"/><use xlink:href="#pZQ5HATeJRoyKby8PGNY_pad-5" x="3775" y="-2475"/><use xlink:href="#pZQ5HATeJRoyKby8PGNY_pad-5" x="3775" y="-2575"/><use xlink:href="#pZQ5HATeJRoyKby8PGNY_pad-5" x="3775" y="-2675"/><use xlink:href="#pZQ5HATeJRoyKby8PGNY_pad-5" x="3775" y="-2775"/><use xlink:href="#pZQ5HATeJRoyKby8PGNY_pad-5" x="3775" y="-2875"/><use xlink:href="#pZQ5HATeJRoyKby8PGNY_pad-5" x="3775" y="-2975"/><use xlink:href="#pZQ5HATeJRoyKby8PGNY_pad-5" x="3775" y="-3075"/><use xlink:href="#pZQ5HATeJRoyKby8PGNY_pad-5" x="3775" y="-3175"/><use xlink:href="#pZQ5HATeJRoyKby8PGNY_pad-5" x="3775" y="-3275"/><use xlink:href="#pZQ5HATeJRoyKby8PGNY_pad-5" x="3775" y="-3375"/><use xlink:href="#pZQ5HATeJRoyKby8PGNY_pad-5" x="3775" y="-3475"/><use xlink:href="#pZQ5HATeJRoyKby8PGNY_pad-5" x="3775" y="-3575"/><use xlink:href="#pZQ5HATeJRoyKby8PGNY_pad-5" x="3775" y="-3675"/><use xlink:href="#pZQ5HATeJRoyKby8PGNY_pad-5" x="3775" y="-3775"/><use xlink:href="#pZQ5HATeJRoyKby8PGNY_pad-5" x="3775" y="-3875"/><use xlink:href="#pZQ5HATeJRoyKby8PGNY_pad-5" x="3775" y="-3975"/><use xlink:href="#pZQ5HATeJRoyKby8PGNY_pad-5" x="7775" y="-2725"/><use xlink:href="#pZQ5HATeJRoyKby8PGNY_pad-5" x="7775" y="-2825"/><use xlink:href="#pZQ5HATeJRoyKby8PGNY_pad-5" x="7775" y="-2925"/><use xlink:href="#pZQ5HATeJRoyKby8PGNY_pad-5" x="7775" y="-3025"/><use xlink:href="#pZQ5HATeJRoyKby8PGNY_pad-5" x="7775" y="-3125"/><use xlink:href="#pZQ5HATeJRoyKby8PGNY_pad-5" x="7775" y="-3225"/><use xlink:href="#pZQ5HATeJRoyKby8PGNY_pad-5" x="7775" y="-3325"/><use xlink:href="#pZQ5HATeJRoyKby8PGNY_pad-5" x="7775" y="-3425"/><use xlink:href="#pZQ5HATeJRoyKby8PGNY_pad-5" x="7775" y="-3525"/><use xlink:href="#pZQ5HATeJRoyKby8PGNY_pad-5" x="7775" y="-3625"/><use xlink:href="#pZQ5HATeJRoyKby8PGNY_pad-5" x="7775" y="-3725"/><use xlink:href="#pZQ5HATeJRoyKby8PGNY_pad-5" x="7775" y="-3825"/><use xlink:href="#pZQ5HATeJRoyKby8PGNY_pad-5" x="7775" y="-3925"/><use xlink:href="#pZQ5HATeJRoyKby8PGNY_pad-5" x="7775" y="-4025"/><use xlink:href="#pZQ5HATeJRoyKby8PGNY_pad-5" x="7775" y="-4125"/><use xlink:href="#pZQ5HATeJRoyKby8PGNY_pad-5" x="7775" y="-4225"/><use xlink:href="#pZQ5HATeJRoyKby8PGNY_pad-5" x="7775" y="-4325"/><use xlink:href="#pZQ5HATeJRoyKby8PGNY_pad-5" x="7775" y="-4425"/><use xlink:href="#pZQ5HATeJRoyKby8PGNY_pad-5" x="7775" y="-4525"/><use xlink:href="#pZQ5HATeJRoyKby8PGNY_pad-5" x="7775" y="-4625"/><use xlink:href="#pZQ5HATeJRoyKby8PGNY_pad-5" x="7775" y="-4725"/><use xlink:href="#pZQ5HATeJRoyKby8PGNY_pad-5" x="7775" y="-4825"/><use xlink:href="#pZQ5HATeJRoyKby8PGNY_pad-5" x="7775" y="-4925"/><use xlink:href="#pZQ5HATeJRoyKby8PGNY_pad-5" x="7775" y="-5025"/><use xlink:href="#pZQ5HATeJRoyKby8PGNY_pad-5" x="7775" y="-5125"/><use xlink:href="#pZQ5HATeJRoyKby8PGNY_pad-5" x="7875" y="-2725"/><use xlink:href="#pZQ5HATeJRoyKby8PGNY_pad-5" x="7875" y="-2825"/><use xlink:href="#pZQ5HATeJRoyKby8PGNY_pad-5" x="7875" y="-2925"/><use xlink:href="#pZQ5HATeJRoyKby8PGNY_pad-5" x="7875" y="-3025"/><use xlink:href="#pZQ5HATeJRoyKby8PGNY_pad-5" x="7875" y="-3125"/><use xlink:href="#pZQ5HATeJRoyKby8PGNY_pad-5" x="7875" y="-3225"/><use xlink:href="#pZQ5HATeJRoyKby8PGNY_pad-5" x="7875" y="-3325"/><use xlink:href="#pZQ5HATeJRoyKby8PGNY_pad-5" x="7875" y="-3425"/><use xlink:href="#pZQ5HATeJRoyKby8PGNY_pad-5" x="7875" y="-3525"/><use xlink:href="#pZQ5HATeJRoyKby8PGNY_pad-5" x="7875" y="-3625"/><use xlink:href="#pZQ5HATeJRoyKby8PGNY_pad-5" x="7875" y="-3725"/><use xlink:href="#pZQ5HATeJRoyKby8PGNY_pad-5" x="7875" y="-3825"/><use xlink:href="#pZQ5HATeJRoyKby8PGNY_pad-5" x="7875" y="-3925"/><use xlink:href="#pZQ5HATeJRoyKby8PGNY_pad-5" x="7875" y="-4025"/><use xlink:href="#pZQ5HATeJRoyKby8PGNY_pad-5" x="7875" y="-4125"/><use xlink:href="#pZQ5HATeJRoyKby8PGNY_pad-5" x="7875" y="-4225"/><use xlink:href="#pZQ5HATeJRoyKby8PGNY_pad-5" x="7875" y="-4325"/><use xlink:href="#pZQ5HATeJRoyKby8PGNY_pad-5" x="7875" y="-4425"/><use xlink:href="#pZQ5HATeJRoyKby8PGNY_pad-5" x="7875" y="-4525"/><use xlink:href="#pZQ5HATeJRoyKby8PGNY_pad-5" x="7875" y="-4625"/><use xlink:href="#pZQ5HATeJRoyKby8PGNY_pad-5" x="7875" y="-4725"/><use xlink:href="#pZQ5HATeJRoyKby8PGNY_pad-5" x="7875" y="-4825"/><use xlink:href="#pZQ5HATeJRoyKby8PGNY_pad-5" x="7875" y="-4925"/><use xlink:href="#pZQ5HATeJRoyKby8PGNY_pad-5" x="7875" y="-5025"/><use xlink:href="#pZQ5HATeJRoyKby8PGNY_pad-5" x="7875" y="-5125"/><use xlink:href="#pZQ5HATeJRoyKby8PGNY_pad-6" x="3950" y="-2075"/><use xlink:href="#pZQ5HATeJRoyKby8PGNY_pad-6" x="3950" y="-2675"/><use xlink:href="#pZQ5HATeJRoyKby8PGNY_pad-6" x="4050" y="-2075"/><use xlink:href="#pZQ5HATeJRoyKby8PGNY_pad-6" x="4050" y="-2675"/><use xlink:href="#pZQ5HATeJRoyKby8PGNY_pad-6" x="4150" y="-2075"/><use xlink:href="#pZQ5HATeJRoyKby8PGNY_pad-6" x="4150" y="-2175"/><use xlink:href="#pZQ5HATeJRoyKby8PGNY_pad-6" x="4150" y="-2275"/><use xlink:href="#pZQ5HATeJRoyKby8PGNY_pad-6" x="4150" y="-2375"/><use xlink:href="#pZQ5HATeJRoyKby8PGNY_pad-6" x="4150" y="-2475"/><use xlink:href="#pZQ5HATeJRoyKby8PGNY_pad-6" x="4150" y="-2575"/><use xlink:href="#pZQ5HATeJRoyKby8PGNY_pad-6" x="4150" y="-2675"/><use xlink:href="#pZQ5HATeJRoyKby8PGNY_pad-6" x="4250" y="-2075"/><use xlink:href="#pZQ5HATeJRoyKby8PGNY_pad-6" x="4250" y="-2175"/><use xlink:href="#pZQ5HATeJRoyKby8PGNY_pad-6" x="4250" y="-2275"/><use xlink:href="#pZQ5HATeJRoyKby8PGNY_pad-6" x="4250" y="-2375"/><use xlink:href="#pZQ5HATeJRoyKby8PGNY_pad-6" x="4250" y="-2475"/><use xlink:href="#pZQ5HATeJRoyKby8PGNY_pad-6" x="4250" y="-2575"/><use xlink:href="#pZQ5HATeJRoyKby8PGNY_pad-6" x="4250" y="-2675"/><use xlink:href="#pZQ5HATeJRoyKby8PGNY_pad-6" x="4350" y="-2075"/><use xlink:href="#pZQ5HATeJRoyKby8PGNY_pad-6" x="4350" y="-2675"/><use xlink:href="#pZQ5HATeJRoyKby8PGNY_pad-6" x="4450" y="-2075"/><use xlink:href="#pZQ5HATeJRoyKby8PGNY_pad-6" x="4450" y="-2675"/><use xlink:href="#pZQ5HATeJRoyKby8PGNY_pad-6" x="4550" y="-2075"/><use xlink:href="#pZQ5HATeJRoyKby8PGNY_pad-6" x="4550" y="-2675"/><use xlink:href="#pZQ5HATeJRoyKby8PGNY_pad-6" x="4650" y="-2075"/><use xlink:href="#pZQ5HATeJRoyKby8PGNY_pad-6" x="4650" y="-2675"/><use xlink:href="#pZQ5HATeJRoyKby8PGNY_pad-6" x="4750" y="-2075"/><use xlink:href="#pZQ5HATeJRoyKby8PGNY_pad-6" x="4750" y="-2675"/><use xlink:href="#pZQ5HATeJRoyKby8PGNY_pad-6" x="4850" y="-2075"/><use xlink:href="#pZQ5HATeJRoyKby8PGNY_pad-6" x="4850" y="-2675"/><use xlink:href="#pZQ5HATeJRoyKby8PGNY_pad-6" x="4950" y="-2075"/><use xlink:href="#pZQ5HATeJRoyKby8PGNY_pad-6" x="4950" y="-2675"/><use xlink:href="#pZQ5HATeJRoyKby8PGNY_pad-6" x="5050" y="-2075"/><use xlink:href="#pZQ5HATeJRoyKby8PGNY_pad-6" x="5050" y="-2675"/><use xlink:href="#pZQ5HATeJRoyKby8PGNY_pad-6" x="5150" y="-2075"/><use xlink:href="#pZQ5HATeJRoyKby8PGNY_pad-6" x="5150" y="-2675"/><use xlink:href="#pZQ5HATeJRoyKby8PGNY_pad-6" x="5250" y="-2075"/><use xlink:href="#pZQ5HATeJRoyKby8PGNY_pad-6" x="5250" y="-2675"/><use xlink:href="#pZQ5HATeJRoyKby8PGNY_pad-6" x="5275" y="-2850"/><use xlink:href="#pZQ5HATeJRoyKby8PGNY_pad-6" x="5275" y="-3450"/><use xlink:href="#pZQ5HATeJRoyKby8PGNY_pad-6" x="5375" y="-2850"/><use xlink:href="#pZQ5HATeJRoyKby8PGNY_pad-6" x="5375" y="-3450"/><use xlink:href="#pZQ5HATeJRoyKby8PGNY_pad-6" x="5475" y="-2850"/><use xlink:href="#pZQ5HATeJRoyKby8PGNY_pad-6" x="5475" y="-3450"/><use xlink:href="#pZQ5HATeJRoyKby8PGNY_pad-6" x="5575" y="-2850"/><use xlink:href="#pZQ5HATeJRoyKby8PGNY_pad-6" x="5575" y="-3450"/><use xlink:href="#pZQ5HATeJRoyKby8PGNY_pad-6" x="5675" y="-2850"/><use xlink:href="#pZQ5HATeJRoyKby8PGNY_pad-6" x="5675" y="-3450"/><use xlink:href="#pZQ5HATeJRoyKby8PGNY_pad-6" x="5775" y="-2850"/><use xlink:href="#pZQ5HATeJRoyKby8PGNY_pad-6" x="5775" y="-3450"/><use xlink:href="#pZQ5HATeJRoyKby8PGNY_pad-6" x="5875" y="-2850"/><use xlink:href="#pZQ5HATeJRoyKby8PGNY_pad-6" x="5875" y="-3450"/><use xlink:href="#pZQ5HATeJRoyKby8PGNY_pad-6" x="5975" y="-2850"/><use xlink:href="#pZQ5HATeJRoyKby8PGNY_pad-6" x="5975" y="-3450"/><use xlink:href="#pZQ5HATeJRoyKby8PGNY_pad-6" x="6075" y="-2850"/><use xlink:href="#pZQ5HATeJRoyKby8PGNY_pad-6" x="6075" y="-3450"/><use xlink:href="#pZQ5HATeJRoyKby8PGNY_pad-6" x="6175" y="-2850"/><use xlink:href="#pZQ5HATeJRoyKby8PGNY_pad-6" x="6175" y="-3450"/><use xlink:href="#pZQ5HATeJRoyKby8PGNY_pad-6" x="6275" y="-2850"/><use xlink:href="#pZQ5HATeJRoyKby8PGNY_pad-6" x="6275" y="-3450"/><use xlink:href="#pZQ5HATeJRoyKby8PGNY_pad-6" x="6300" y="-4025"/><use xlink:href="#pZQ5HATeJRoyKby8PGNY_pad-6" x="6300" y="-4625"/><use xlink:href="#pZQ5HATeJRoyKby8PGNY_pad-6" x="6375" y="-2850"/><use xlink:href="#pZQ5HATeJRoyKby8PGNY_pad-6" x="6375" y="-3450"/><use xlink:href="#pZQ5HATeJRoyKby8PGNY_pad-6" x="6400" y="-4025"/><use xlink:href="#pZQ5HATeJRoyKby8PGNY_pad-6" x="6400" y="-4625"/><use xlink:href="#pZQ5HATeJRoyKby8PGNY_pad-6" x="6475" y="-2850"/><use xlink:href="#pZQ5HATeJRoyKby8PGNY_pad-6" x="6475" y="-3450"/><use xlink:href="#pZQ5HATeJRoyKby8PGNY_pad-6" x="6500" y="-4025"/><use xlink:href="#pZQ5HATeJRoyKby8PGNY_pad-6" x="6500" y="-4625"/><use xlink:href="#pZQ5HATeJRoyKby8PGNY_pad-6" x="6575" y="-2850"/><use xlink:href="#pZQ5HATeJRoyKby8PGNY_pad-6" x="6575" y="-3450"/><use xlink:href="#pZQ5HATeJRoyKby8PGNY_pad-6" x="6600" y="-4025"/><use xlink:href="#pZQ5HATeJRoyKby8PGNY_pad-6" x="6600" y="-4625"/><use xlink:href="#pZQ5HATeJRoyKby8PGNY_pad-6" x="6675" y="-2850"/><use xlink:href="#pZQ5HATeJRoyKby8PGNY_pad-6" x="6675" y="-3450"/><use xlink:href="#pZQ5HATeJRoyKby8PGNY_pad-6" x="6700" y="-4025"/><use xlink:href="#pZQ5HATeJRoyKby8PGNY_pad-6" x="6700" y="-4625"/><use xlink:href="#pZQ5HATeJRoyKby8PGNY_pad-6" x="6775" y="-2850"/><use xlink:href="#pZQ5HATeJRoyKby8PGNY_pad-6" x="6775" y="-3450"/><use xlink:href="#pZQ5HATeJRoyKby8PGNY_pad-6" x="6800" y="-4025"/><use xlink:href="#pZQ5HATeJRoyKby8PGNY_pad-6" x="6800" y="-4625"/><use xlink:href="#pZQ5HATeJRoyKby8PGNY_pad-6" x="6875" y="-2850"/><use xlink:href="#pZQ5HATeJRoyKby8PGNY_pad-6" x="6875" y="-3450"/><use xlink:href="#pZQ5HATeJRoyKby8PGNY_pad-6" x="6900" y="-4025"/><use xlink:href="#pZQ5HATeJRoyKby8PGNY_pad-6" x="6900" y="-4625"/><use xlink:href="#pZQ5HATeJRoyKby8PGNY_pad-6" x="6975" y="-2850"/><use xlink:href="#pZQ5HATeJRoyKby8PGNY_pad-6" x="6975" y="-3450"/><use xlink:href="#pZQ5HATeJRoyKby8PGNY_pad-6" x="7000" y="-4025"/><use xlink:href="#pZQ5HATeJRoyKby8PGNY_pad-6" x="7000" y="-4625"/><use xlink:href="#pZQ5HATeJRoyKby8PGNY_pad-6" x="7075" y="-2850"/><use xlink:href="#pZQ5HATeJRoyKby8PGNY_pad-6" x="7075" y="-3450"/><use xlink:href="#pZQ5HATeJRoyKby8PGNY_pad-6" x="7100" y="-4025"/><use xlink:href="#pZQ5HATeJRoyKby8PGNY_pad-6" x="7100" y="-4625"/><use xlink:href="#pZQ5HATeJRoyKby8PGNY_pad-6" x="7175" y="-2850"/><use xlink:href="#pZQ5HATeJRoyKby8PGNY_pad-6" x="7175" y="-3450"/><use xlink:href="#pZQ5HATeJRoyKby8PGNY_pad-6" x="7200" y="-4025"/><use xlink:href="#pZQ5HATeJRoyKby8PGNY_pad-6" x="7200" y="-4625"/><use xlink:href="#pZQ5HATeJRoyKby8PGNY_pad-6" x="7275" y="-2850"/><use xlink:href="#pZQ5HATeJRoyKby8PGNY_pad-6" x="7275" y="-3450"/><use xlink:href="#pZQ5HATeJRoyKby8PGNY_pad-6" x="7300" y="-4025"/><use xlink:href="#pZQ5HATeJRoyKby8PGNY_pad-6" x="7300" y="-4125"/><use xlink:href="#pZQ5HATeJRoyKby8PGNY_pad-6" x="7300" y="-4225"/><use xlink:href="#pZQ5HATeJRoyKby8PGNY_pad-6" x="7300" y="-4325"/><use xlink:href="#pZQ5HATeJRoyKby8PGNY_pad-6" x="7300" y="-4425"/><use xlink:href="#pZQ5HATeJRoyKby8PGNY_pad-6" x="7300" y="-4525"/><use xlink:href="#pZQ5HATeJRoyKby8PGNY_pad-6" x="7300" y="-4625"/><use xlink:href="#pZQ5HATeJRoyKby8PGNY_pad-6" x="7375" y="-2850"/><use xlink:href="#pZQ5HATeJRoyKby8PGNY_pad-6" x="7375" y="-3450"/><use xlink:href="#pZQ5HATeJRoyKby8PGNY_pad-6" x="7400" y="-4025"/><use xlink:href="#pZQ5HATeJRoyKby8PGNY_pad-6" x="7400" y="-4125"/><use xlink:href="#pZQ5HATeJRoyKby8PGNY_pad-6" x="7400" y="-4225"/><use xlink:href="#pZQ5HATeJRoyKby8PGNY_pad-6" x="7400" y="-4325"/><use xlink:href="#pZQ5HATeJRoyKby8PGNY_pad-6" x="7400" y="-4425"/><use xlink:href="#pZQ5HATeJRoyKby8PGNY_pad-6" x="7400" y="-4525"/><use xlink:href="#pZQ5HATeJRoyKby8PGNY_pad-6" x="7400" y="-4625"/><use xlink:href="#pZQ5HATeJRoyKby8PGNY_pad-6" x="7475" y="-2850"/><use xlink:href="#pZQ5HATeJRoyKby8PGNY_pad-6" x="7475" y="-3450"/><use xlink:href="#pZQ5HATeJRoyKby8PGNY_pad-6" x="7500" y="-4025"/><use xlink:href="#pZQ5HATeJRoyKby8PGNY_pad-6" x="7500" y="-4625"/><use xlink:href="#pZQ5HATeJRoyKby8PGNY_pad-6" x="7575" y="-2850"/><use xlink:href="#pZQ5HATeJRoyKby8PGNY_pad-6" x="7575" y="-3450"/><use xlink:href="#pZQ5HATeJRoyKby8PGNY_pad-6" x="7600" y="-4025"/><use xlink:href="#pZQ5HATeJRoyKby8PGNY_pad-6" x="7600" y="-4625"/><use xlink:href="#pZQ5HATeJRoyKby8PGNY_pad-7" x="3738" y="-1382"/><use xlink:href="#pZQ5HATeJRoyKby8PGNY_pad-7" x="7812" y="-5318"/></g></svg>