<svg version="1.1" xmlns="http://www.w3.org/2000/svg" xmlns:xlink="http://www.w3.org/1999/xlink" stroke-linecap="round" stroke-linejoin="round" stroke-width="0" fill-rule="evenodd" width="8.97mm" height="45.383mm" viewBox="179840 -86448 8970 45383" id="J4XI3upy8wALDUV_nPEx"><defs><rect x="-850" y="-850" width="1700" height="1700" rx="850" ry="850" id="J4XI3upy8wALDUV_nPEx_pad-10"/><rect x="-850" y="-850" width="1700" height="1700" id="J4XI3upy8wALDUV_nPEx_pad-11"/><rect x="-500" y="-1575" width="1000" height="3150" id="J4XI3upy8wALDUV_nPEx_pad-12"/></defs><g transform="translate(0,-127513) scale(1,-1)" fill="currentColor" stroke="currentColor"><use xlink:href="#J4XI3upy8wALDUV_nPEx_pad-10" x="187960" y="-57150"/><use xlink:href="#J4XI3upy8wALDUV_nPEx_pad-10" x="187960" y="-54610"/><use xlink:href="#J4XI3upy8wALDUV_nPEx_pad-10" x="187960" y="-52070"/><use xlink:href="#J4XI3upy8wALDUV_nPEx_pad-11" x="187960" y="-49530"/><use xlink:href="#J4XI3upy8wALDUV_nPEx_pad-11" x="187960" y="-77978"/><use xlink:href="#J4XI3upy8wALDUV_nPEx_pad-10" x="187960" y="-80518"/><use xlink:href="#J4XI3upy8wALDUV_nPEx_pad-10" x="187960" y="-83058"/><use xlink:href="#J4XI3upy8wALDUV_nPEx_pad-10" x="187960" y="-85598"/><use xlink:href="#J4XI3upy8wALDUV_nPEx_pad-12" x="180340" y="-42640"/><use xlink:href="#J4XI3upy8wALDUV_nPEx_pad-12" x="182880" y="-42640"/><use xlink:href="#J4XI3upy8wALDUV_nPEx_pad-12" x="185420" y="-42640"/><use xlink:href="#J4XI3upy8wALDUV_nPEx_pad-12" x="187960" y="-42640"/><path d="M 181610 -57150 187960 -57150 M 180340 -55880 181610 -57150 M 180340 -43180 180340 -55880 M 184150 -54610 187960 -54610 M 182880 -53340 184150 -54610 M 182880 -43180 182880 -53340 M 186757.919 -52070 187960 -52070 M 185420 -50732.081 186757.919 -52070 M 185420 -43180 185420 -50732.081 M 187960 -43180 187960 -49530" fill="none" stroke-width="1000"/></g></svg>