<svg version="1.1" xmlns="http://www.w3.org/2000/svg" xmlns:xlink="http://www.w3.org/1999/xlink" stroke-linecap="round" stroke-linejoin="round" stroke-width="0" fill-rule="evenodd" width="9.605mm" height="45.383mm" viewBox="179205 -86448 9605 45383" id="ZW7qisAhG_ok2D0HtIVJ"><defs><rect x="-850" y="-850" width="1700" height="1700" rx="850" ry="850" id="ZW7qisAhG_ok2D0HtIVJ_pad-10"/><rect x="-850" y="-850" width="1700" height="1700" id="ZW7qisAhG_ok2D0HtIVJ_pad-11"/><rect x="-500" y="-1575" width="1000" height="3150" id="ZW7qisAhG_ok2D0HtIVJ_pad-12"/></defs><g transform="translate(0,-127513) scale(1,-1)" fill="currentColor" stroke="currentColor"><use xlink:href="#ZW7qisAhG_ok2D0HtIVJ_pad-10" x="187960" y="-57150"/><use xlink:href="#ZW7qisAhG_ok2D0HtIVJ_pad-10" x="187960" y="-54610"/><use xlink:href="#ZW7qisAhG_ok2D0HtIVJ_pad-10" x="187960" y="-52070"/><use xlink:href="#ZW7qisAhG_ok2D0HtIVJ_pad-11" x="187960" y="-49530"/><use xlink:href="#ZW7qisAhG_ok2D0HtIVJ_pad-11" x="187960" y="-77978"/><use xlink:href="#ZW7qisAhG_ok2D0HtIVJ_pad-10" x="187960" y="-80518"/><use xlink:href="#ZW7qisAhG_ok2D0HtIVJ_pad-10" x="187960" y="-83058"/><use xlink:href="#ZW7qisAhG_ok2D0HtIVJ_pad-10" x="187960" y="-85598"/><use xlink:href="#ZW7qisAhG_ok2D0HtIVJ_pad-12" x="180340" y="-42640"/><use xlink:href="#ZW7qisAhG_ok2D0HtIVJ_pad-12" x="182880" y="-42640"/><use xlink:href="#ZW7qisAhG_ok2D0HtIVJ_pad-12" x="185420" y="-42640"/><use xlink:href="#ZW7qisAhG_ok2D0HtIVJ_pad-12" x="187960" y="-42640"/><path d="M 179705 -79644.96 185658.04 -85598 M 179705 -46355 179705 -79644.96 M 180340 -45720 179705 -46355 M 180340 -43180 180340 -45720 M 185658.04 -85598 187960 -85598 M 181610 -77910.081 186757.919 -83058 M 182880 -45720 181610 -46990 181610 -77910.081 M 182880 -43180 182880 -45720 M 186757.919 -83058 187960 -83058 M 186757.919 -80518 187960 -80518 M 183515 -47625 183515 -77275.081 M 185420 -45720 183515 -47625 M 185420 -43180 185420 -45720 M 183515 -77275.081 186757.919 -80518 M 187198 -77978 187960 -77978 M 185420 -48260 185420 -76200 M 187960 -45720 185420 -48260 M 187960 -43180 187960 -45720 M 185420 -76200 187198 -77978" fill="none" stroke-width="1000"/></g></svg>