<svg version="1.1" xmlns="http://www.w3.org/2000/svg" xmlns:xlink="http://www.w3.org/1999/xlink" stroke-linecap="round" stroke-linejoin="round" stroke-width="0" fill-rule="evenodd" clip-rule="evenodd" id="aQjDWCNiqqRMSODwJfGN_bottom" viewBox="177165 -87757 13335 49657" width="13.335mm" height="49.657mm" class="w-100 h-100"><defs><style>.aQjDWCNiqqRMSODwJfGN_fr4 {color: #666666;}
.aQjDWCNiqqRMSODwJfGN_cu {color: #cccccc;}
.aQjDWCNiqqRMSODwJfGN_cf {color: #cc9933;}
.aQjDWCNiqqRMSODwJfGN_sm {color: #004200; opacity: 0.75;}
.aQjDWCNiqqRMSODwJfGN_ss {color: #ffffff;}
.aQjDWCNiqqRMSODwJfGN_sp {color: #999999;}
.aQjDWCNiqqRMSODwJfGN_out {color: #000000;}</style><rect x="-850" y="-850" width="1700" height="1700" rx="850" ry="850" id="J4XI3upy8wALDUV_nPEx_pad-10"/><rect x="-850" y="-850" width="1700" height="1700" id="J4XI3upy8wALDUV_nPEx_pad-11"/><rect x="-500" y="-1575" width="1000" height="3150" id="J4XI3upy8wALDUV_nPEx_pad-12"/><rect x="-500" y="-1575" width="1000" height="3150" id="X5gDfVtvSUjfe0k9VrMM_pad-10"/><rect x="-850" y="-850" width="1700" height="1700" rx="850" ry="850" id="azdyUpwb4Wlxa0qlZFIf_pad-10"/><rect x="-850" y="-850" width="1700" height="1700" id="azdyUpwb4Wlxa0qlZFIf_pad-11"/><rect x="-500" y="-1575" width="1000" height="3150" id="azdyUpwb4Wlxa0qlZFIf_pad-12"/><circle cx="0" cy="0" r="19.7" id="_JnvqMcnx5qCxiMB435U_pad-1"/><g id="aQjDWCNiqqRMSODwJfGN_bottom_copper"><use xlink:href="#J4XI3upy8wALDUV_nPEx_pad-10" x="187960" y="-57150"/><use xlink:href="#J4XI3upy8wALDUV_nPEx_pad-10" x="187960" y="-54610"/><use xlink:href="#J4XI3upy8wALDUV_nPEx_pad-10" x="187960" y="-52070"/><use xlink:href="#J4XI3upy8wALDUV_nPEx_pad-11" x="187960" y="-49530"/><use xlink:href="#J4XI3upy8wALDUV_nPEx_pad-11" x="187960" y="-77978"/><use xlink:href="#J4XI3upy8wALDUV_nPEx_pad-10" x="187960" y="-80518"/><use xlink:href="#J4XI3upy8wALDUV_nPEx_pad-10" x="187960" y="-83058"/><use xlink:href="#J4XI3upy8wALDUV_nPEx_pad-10" x="187960" y="-85598"/><use xlink:href="#J4XI3upy8wALDUV_nPEx_pad-12" x="180340" y="-42640"/><use xlink:href="#J4XI3upy8wALDUV_nPEx_pad-12" x="182880" y="-42640"/><use xlink:href="#J4XI3upy8wALDUV_nPEx_pad-12" x="185420" y="-42640"/><use xlink:href="#J4XI3upy8wALDUV_nPEx_pad-12" x="187960" y="-42640"/><path d="M 181610 -57150 187960 -57150 M 180340 -55880 181610 -57150 M 180340 -43180 180340 -55880 M 184150 -54610 187960 -54610 M 182880 -53340 184150 -54610 M 182880 -43180 182880 -53340 M 186757.919 -52070 187960 -52070 M 185420 -50732.081 186757.919 -52070 M 185420 -43180 185420 -50732.081 M 187960 -43180 187960 -49530" fill="none" stroke-width="1000"/></g><g id="aQjDWCNiqqRMSODwJfGN_bottom_solderpaste"><use xlink:href="#X5gDfVtvSUjfe0k9VrMM_pad-10" x="180340" y="-42640"/><use xlink:href="#X5gDfVtvSUjfe0k9VrMM_pad-10" x="182880" y="-42640"/><use xlink:href="#X5gDfVtvSUjfe0k9VrMM_pad-10" x="185420" y="-42640"/><use xlink:href="#X5gDfVtvSUjfe0k9VrMM_pad-10" x="187960" y="-42640"/></g><g id="aQjDWCNiqqRMSODwJfGN_bottom_silkscreen"><path d="M 183602.38 -39036.666 184316.666 -39036.666 184459.523 -38989.047 184554.761 -38893.809 184602.38 -38750.952 184602.38 -38655.714 M 183602.38 -39417.619 183602.38 -40036.666 183983.333 -39703.333 183983.333 -39846.19 184030.952 -39941.428 184078.571 -39989.047 184173.809 -40036.666 184411.904 -40036.666 184507.142 -39989.047 184554.761 -39941.428 184602.38 -39846.19 184602.38 -39560.476 184554.761 -39465.238 184507.142 -39417.619" fill="none" stroke-width="150"/></g><g id="aQjDWCNiqqRMSODwJfGN_bottom_soldermask"><use xlink:href="#azdyUpwb4Wlxa0qlZFIf_pad-10" x="187960" y="-57150"/><use xlink:href="#azdyUpwb4Wlxa0qlZFIf_pad-10" x="187960" y="-54610"/><use xlink:href="#azdyUpwb4Wlxa0qlZFIf_pad-10" x="187960" y="-52070"/><use xlink:href="#azdyUpwb4Wlxa0qlZFIf_pad-11" x="187960" y="-49530"/><use xlink:href="#azdyUpwb4Wlxa0qlZFIf_pad-11" x="187960" y="-77978"/><use xlink:href="#azdyUpwb4Wlxa0qlZFIf_pad-10" x="187960" y="-80518"/><use xlink:href="#azdyUpwb4Wlxa0qlZFIf_pad-10" x="187960" y="-83058"/><use xlink:href="#azdyUpwb4Wlxa0qlZFIf_pad-10" x="187960" y="-85598"/><use xlink:href="#azdyUpwb4Wlxa0qlZFIf_pad-12" x="180340" y="-42640"/><use xlink:href="#azdyUpwb4Wlxa0qlZFIf_pad-12" x="182880" y="-42640"/><use xlink:href="#azdyUpwb4Wlxa0qlZFIf_pad-12" x="185420" y="-42640"/><use xlink:href="#azdyUpwb4Wlxa0qlZFIf_pad-12" x="187960" y="-42640"/></g><g id="aQjDWCNiqqRMSODwJfGN_bottom_drill1" transform="scale(25.4,25.4)"><use xlink:href="#_JnvqMcnx5qCxiMB435U_pad-1" x="7400" y="-1950"/><use xlink:href="#_JnvqMcnx5qCxiMB435U_pad-1" x="7400" y="-2050"/><use xlink:href="#_JnvqMcnx5qCxiMB435U_pad-1" x="7400" y="-2150"/><use xlink:href="#_JnvqMcnx5qCxiMB435U_pad-1" x="7400" y="-2250"/><use xlink:href="#_JnvqMcnx5qCxiMB435U_pad-1" x="7400" y="-3070"/><use xlink:href="#_JnvqMcnx5qCxiMB435U_pad-1" x="7400" y="-3170"/><use xlink:href="#_JnvqMcnx5qCxiMB435U_pad-1" x="7400" y="-3270"/><use xlink:href="#_JnvqMcnx5qCxiMB435U_pad-1" x="7400" y="-3370"/></g><clipPath id="aQjDWCNiqqRMSODwJfGN_bottom_outline"><path d="M 177165 -38100 190500 -38100 190500 -87757 177165 -87757 177165 -38100" fill="none" stroke-width="100"/></clipPath><mask id="aQjDWCNiqqRMSODwJfGN_bottom_mech-mask"><g fill="#000" stroke="#000"><rect x="177165" y="-87757" width="13335" height="49657" fill="#fff"/><use xlink:href="#aQjDWCNiqqRMSODwJfGN_bottom_drill1"/></g></mask><mask id="aQjDWCNiqqRMSODwJfGN_bottom_cf-mask"><g fill="#fff" stroke="#fff"><use xlink:href="#aQjDWCNiqqRMSODwJfGN_bottom_soldermask"/></g></mask><mask id="aQjDWCNiqqRMSODwJfGN_bottom_sm-mask"><g fill="#000" stroke="#000"><rect x="177165" y="-87757" width="13335" height="49657" fill="#fff"/><use xlink:href="#aQjDWCNiqqRMSODwJfGN_bottom_soldermask"/></g></mask></defs><g transform="translate(0,-125857) scale(1,-1)"><g mask="url(#aQjDWCNiqqRMSODwJfGN_bottom_mech-mask)" clip-path="url(#aQjDWCNiqqRMSODwJfGN_bottom_outline)" transform="translate(367665,0) scale(-1,1)"><rect x="177165" y="-87757" width="13335" height="49657" fill="currentColor" class="aQjDWCNiqqRMSODwJfGN_fr4"/><use xlink:href="#aQjDWCNiqqRMSODwJfGN_bottom_copper" fill="currentColor" stroke="currentColor" class="aQjDWCNiqqRMSODwJfGN_cu"/><use xlink:href="#aQjDWCNiqqRMSODwJfGN_bottom_copper" fill="currentColor" stroke="currentColor" class="aQjDWCNiqqRMSODwJfGN_cf" mask="url(#aQjDWCNiqqRMSODwJfGN_bottom_cf-mask)"/><g mask="url(#aQjDWCNiqqRMSODwJfGN_bottom_sm-mask)"><rect x="177165" y="-87757" width="13335" height="49657" fill="currentColor" class="aQjDWCNiqqRMSODwJfGN_sm"/><use xlink:href="#aQjDWCNiqqRMSODwJfGN_bottom_silkscreen" fill="currentColor" stroke="currentColor" class="aQjDWCNiqqRMSODwJfGN_ss"/></g><use xlink:href="#aQjDWCNiqqRMSODwJfGN_bottom_solderpaste" fill="currentColor" stroke="currentColor" class="aQjDWCNiqqRMSODwJfGN_sp"/></g></g></svg>