<svg version="1.1" xmlns="http://www.w3.org/2000/svg" xmlns:xlink="http://www.w3.org/1999/xlink" stroke-linecap="round" stroke-linejoin="round" stroke-width="0" fill-rule="evenodd" clip-rule="evenodd" id="aQjDWCNiqqRMSODwJfGN_top" viewBox="177165 -87757 13335 49657" width="13.335mm" height="49.657mm" class="w-100 h-100"><defs><style>.aQjDWCNiqqRMSODwJfGN_fr4 {color: #666666;}
.aQjDWCNiqqRMSODwJfGN_cu {color: #cccccc;}
.aQjDWCNiqqRMSODwJfGN_cf {color: #cc9933;}
.aQjDWCNiqqRMSODwJfGN_sm {color: #004200; opacity: 0.75;}
.aQjDWCNiqqRMSODwJfGN_ss {color: #ffffff;}
.aQjDWCNiqqRMSODwJfGN_sp {color: #999999;}
.aQjDWCNiqqRMSODwJfGN_out {color: #000000;}</style><rect x="-850" y="-850" width="1700" height="1700" rx="850" ry="850" id="NiUSHPDDG9lOY3BfqZFW_pad-10"/><rect x="-850" y="-850" width="1700" height="1700" id="NiUSHPDDG9lOY3BfqZFW_pad-11"/><rect x="-500" y="-1575" width="1000" height="3150" id="NiUSHPDDG9lOY3BfqZFW_pad-12"/><rect x="-850" y="-850" width="1700" height="1700" rx="850" ry="850" id="ZW7qisAhG_ok2D0HtIVJ_pad-10"/><rect x="-850" y="-850" width="1700" height="1700" id="ZW7qisAhG_ok2D0HtIVJ_pad-11"/><rect x="-500" y="-1575" width="1000" height="3150" id="ZW7qisAhG_ok2D0HtIVJ_pad-12"/><rect x="-500" y="-1575" width="1000" height="3150" id="hXVZ2d38obKarq1gEZ7k_pad-10"/><circle cx="0" cy="0" r="19.7" id="_JnvqMcnx5qCxiMB435U_pad-1"/><g id="aQjDWCNiqqRMSODwJfGN_top_soldermask"><use xlink:href="#NiUSHPDDG9lOY3BfqZFW_pad-10" x="187960" y="-57150"/><use xlink:href="#NiUSHPDDG9lOY3BfqZFW_pad-10" x="187960" y="-54610"/><use xlink:href="#NiUSHPDDG9lOY3BfqZFW_pad-10" x="187960" y="-52070"/><use xlink:href="#NiUSHPDDG9lOY3BfqZFW_pad-11" x="187960" y="-49530"/><use xlink:href="#NiUSHPDDG9lOY3BfqZFW_pad-11" x="187960" y="-77978"/><use xlink:href="#NiUSHPDDG9lOY3BfqZFW_pad-10" x="187960" y="-80518"/><use xlink:href="#NiUSHPDDG9lOY3BfqZFW_pad-10" x="187960" y="-83058"/><use xlink:href="#NiUSHPDDG9lOY3BfqZFW_pad-10" x="187960" y="-85598"/><use xlink:href="#NiUSHPDDG9lOY3BfqZFW_pad-12" x="180340" y="-42640"/><use xlink:href="#NiUSHPDDG9lOY3BfqZFW_pad-12" x="182880" y="-42640"/><use xlink:href="#NiUSHPDDG9lOY3BfqZFW_pad-12" x="185420" y="-42640"/><use xlink:href="#NiUSHPDDG9lOY3BfqZFW_pad-12" x="187960" y="-42640"/></g><g id="aQjDWCNiqqRMSODwJfGN_top_copper"><use xlink:href="#ZW7qisAhG_ok2D0HtIVJ_pad-10" x="187960" y="-57150"/><use xlink:href="#ZW7qisAhG_ok2D0HtIVJ_pad-10" x="187960" y="-54610"/><use xlink:href="#ZW7qisAhG_ok2D0HtIVJ_pad-10" x="187960" y="-52070"/><use xlink:href="#ZW7qisAhG_ok2D0HtIVJ_pad-11" x="187960" y="-49530"/><use xlink:href="#ZW7qisAhG_ok2D0HtIVJ_pad-11" x="187960" y="-77978"/><use xlink:href="#ZW7qisAhG_ok2D0HtIVJ_pad-10" x="187960" y="-80518"/><use xlink:href="#ZW7qisAhG_ok2D0HtIVJ_pad-10" x="187960" y="-83058"/><use xlink:href="#ZW7qisAhG_ok2D0HtIVJ_pad-10" x="187960" y="-85598"/><use xlink:href="#ZW7qisAhG_ok2D0HtIVJ_pad-12" x="180340" y="-42640"/><use xlink:href="#ZW7qisAhG_ok2D0HtIVJ_pad-12" x="182880" y="-42640"/><use xlink:href="#ZW7qisAhG_ok2D0HtIVJ_pad-12" x="185420" y="-42640"/><use xlink:href="#ZW7qisAhG_ok2D0HtIVJ_pad-12" x="187960" y="-42640"/><path d="M 179705 -79644.96 185658.04 -85598 M 179705 -46355 179705 -79644.96 M 180340 -45720 179705 -46355 M 180340 -43180 180340 -45720 M 185658.04 -85598 187960 -85598 M 181610 -77910.081 186757.919 -83058 M 182880 -45720 181610 -46990 181610 -77910.081 M 182880 -43180 182880 -45720 M 186757.919 -83058 187960 -83058 M 186757.919 -80518 187960 -80518 M 183515 -47625 183515 -77275.081 M 185420 -45720 183515 -47625 M 185420 -43180 185420 -45720 M 183515 -77275.081 186757.919 -80518 M 187198 -77978 187960 -77978 M 185420 -48260 185420 -76200 M 187960 -45720 185420 -48260 M 187960 -43180 187960 -45720 M 185420 -76200 187198 -77978" fill="none" stroke-width="1000"/></g><g id="aQjDWCNiqqRMSODwJfGN_top_silkscreen"><path d="M 183816.666 -51522.38 183816.666 -52236.666 183769.047 -52379.523 183673.809 -52474.761 183530.952 -52522.38 183435.714 -52522.38 M 184245.238 -51617.619 184292.857 -51570 184388.095 -51522.38 184626.19 -51522.38 184721.428 -51570 184769.047 -51617.619 184816.666 -51712.857 184816.666 -51808.095 184769.047 -51950.952 184197.619 -52522.38 184816.666 -52522.38 M 183816.666 -80097.38 183816.666 -80811.666 183769.047 -80954.523 183673.809 -81049.761 183530.952 -81097.38 183435.714 -81097.38 M 184816.666 -81097.38 184245.238 -81097.38 M 184530.952 -81097.38 184530.952 -80097.38 184435.714 -80240.238 184340.476 -80335.476 184245.238 -80383.095" fill="none" stroke-width="150"/><path d="M 186500 -49170 186850 -49170 M 187960 -48200 189070 -48200 M 177870 -50091.425 186500 -50091.425 M 177870 -58480 186500 -58480 M 189070 -48200 189070 -49530 M 177870 -49973.33 186500 -49973.33 M 177870 -49500.95 186500 -49500.95 M 177870 -48674.285 186500 -48674.285 M 177870 -49855.235 186500 -49855.235 M 186500 -49890 186850 -49890 M 177870 -48910.475 186500 -48910.475 M 186500 -54250 186910 -54250 M 186500 -48200 186500 -58480 M 177870 -49264.76 186500 -49264.76 M 177870 -48200 177870 -58480 M 186500 -51710 186910 -51710 M 177870 -55880 186500 -55880 M 186500 -52430 186910 -52430 M 177870 -50800 186500 -50800 M 177870 -49028.57 186500 -49028.57 M 177870 -53340 186500 -53340 M 177870 -50209.52 186500 -50209.52 M 177870 -48792.38 186500 -48792.38 M 177870 -48556.19 186500 -48556.19 M 177870 -49737.14 186500 -49737.14 M 177870 -50563.805 186500 -50563.805 M 177870 -49619.045 186500 -49619.045 M 177870 -48438.095 186500 -48438.095 M 177870 -48200 186500 -48200 M 177870 -50445.71 186500 -50445.71 M 177870 -50327.615 186500 -50327.615 M 177870 -49146.665 186500 -49146.665 M 177870 -49382.855 186500 -49382.855 M 186500 -57510 186910 -57510 M 186500 -54970 186910 -54970 M 177870 -48320 186500 -48320 M 186500 -56790 186910 -56790 M 177870 -50681.9 186500 -50681.9 M 186500 -85958 186910 -85958 M 177870 -78067.045 186500 -78067.045 M 186500 -78338 186850 -78338 M 177870 -77358.475 186500 -77358.475 M 177870 -78303.235 186500 -78303.235 M 177870 -78893.71 186500 -78893.71 M 177870 -81788 186500 -81788 M 177870 -76648 177870 -86928 M 186500 -80878 186910 -80878 M 177870 -77004.19 186500 -77004.19 M 177870 -78185.14 186500 -78185.14 M 177870 -77830.855 186500 -77830.855 M 177870 -79011.805 186500 -79011.805 M 186500 -80158 186910 -80158 M 177870 -77240.38 186500 -77240.38 M 177870 -77476.57 186500 -77476.57 M 186500 -77618 186850 -77618 M 177870 -86928 186500 -86928 M 186500 -85238 186910 -85238 M 177870 -78657.52 186500 -78657.52 M 186500 -76648 186500 -86928 M 187960 -76648 189070 -76648 M 177870 -77712.76 186500 -77712.76 M 177870 -76648 186500 -76648 M 177870 -77122.285 186500 -77122.285 M 177870 -76768 186500 -76768 M 177870 -76886.095 186500 -76886.095 M 177870 -84328 186500 -84328 M 186500 -83418 186910 -83418 M 177870 -77948.95 186500 -77948.95 M 177870 -79248 186500 -79248 M 177870 -78539.425 186500 -78539.425 M 177870 -78421.33 186500 -78421.33 M 186500 -82698 186910 -82698 M 177870 -79129.9 186500 -79129.9 M 189070 -76648 189070 -77978 M 177870 -77594.665 186500 -77594.665 M 177870 -78775.615 186500 -78775.615 M 189230 -41370 189230 -45180 179070 -45180 179070 -41370" fill="none" stroke-width="120"/></g><g id="aQjDWCNiqqRMSODwJfGN_top_solderpaste"><use xlink:href="#hXVZ2d38obKarq1gEZ7k_pad-10" x="180340" y="-42640"/><use xlink:href="#hXVZ2d38obKarq1gEZ7k_pad-10" x="182880" y="-42640"/><use xlink:href="#hXVZ2d38obKarq1gEZ7k_pad-10" x="185420" y="-42640"/><use xlink:href="#hXVZ2d38obKarq1gEZ7k_pad-10" x="187960" y="-42640"/></g><g id="aQjDWCNiqqRMSODwJfGN_top_drill1" transform="scale(25.4,25.4)"><use xlink:href="#_JnvqMcnx5qCxiMB435U_pad-1" x="7400" y="-1950"/><use xlink:href="#_JnvqMcnx5qCxiMB435U_pad-1" x="7400" y="-2050"/><use xlink:href="#_JnvqMcnx5qCxiMB435U_pad-1" x="7400" y="-2150"/><use xlink:href="#_JnvqMcnx5qCxiMB435U_pad-1" x="7400" y="-2250"/><use xlink:href="#_JnvqMcnx5qCxiMB435U_pad-1" x="7400" y="-3070"/><use xlink:href="#_JnvqMcnx5qCxiMB435U_pad-1" x="7400" y="-3170"/><use xlink:href="#_JnvqMcnx5qCxiMB435U_pad-1" x="7400" y="-3270"/><use xlink:href="#_JnvqMcnx5qCxiMB435U_pad-1" x="7400" y="-3370"/></g><clipPath id="aQjDWCNiqqRMSODwJfGN_top_outline"><path d="M 177165 -38100 190500 -38100 190500 -87757 177165 -87757 177165 -38100" fill="none" stroke-width="100"/></clipPath><mask id="aQjDWCNiqqRMSODwJfGN_top_mech-mask"><g fill="#000" stroke="#000"><rect x="177165" y="-87757" width="13335" height="49657" fill="#fff"/><use xlink:href="#aQjDWCNiqqRMSODwJfGN_top_drill1"/></g></mask><mask id="aQjDWCNiqqRMSODwJfGN_top_cf-mask"><g fill="#fff" stroke="#fff"><use xlink:href="#aQjDWCNiqqRMSODwJfGN_top_soldermask"/></g></mask><mask id="aQjDWCNiqqRMSODwJfGN_top_sm-mask"><g fill="#000" stroke="#000"><rect x="177165" y="-87757" width="13335" height="49657" fill="#fff"/><use xlink:href="#aQjDWCNiqqRMSODwJfGN_top_soldermask"/></g></mask></defs><g transform="translate(0,-125857) scale(1,-1)"><g mask="url(#aQjDWCNiqqRMSODwJfGN_top_mech-mask)" clip-path="url(#aQjDWCNiqqRMSODwJfGN_top_outline)"><rect x="177165" y="-87757" width="13335" height="49657" fill="currentColor" class="aQjDWCNiqqRMSODwJfGN_fr4"/><use xlink:href="#aQjDWCNiqqRMSODwJfGN_top_copper" fill="currentColor" stroke="currentColor" class="aQjDWCNiqqRMSODwJfGN_cu"/><use xlink:href="#aQjDWCNiqqRMSODwJfGN_top_copper" fill="currentColor" stroke="currentColor" class="aQjDWCNiqqRMSODwJfGN_cf" mask="url(#aQjDWCNiqqRMSODwJfGN_top_cf-mask)"/><g mask="url(#aQjDWCNiqqRMSODwJfGN_top_sm-mask)"><rect x="177165" y="-87757" width="13335" height="49657" fill="currentColor" class="aQjDWCNiqqRMSODwJfGN_sm"/><use xlink:href="#aQjDWCNiqqRMSODwJfGN_top_silkscreen" fill="currentColor" stroke="currentColor" class="aQjDWCNiqqRMSODwJfGN_ss"/></g><use xlink:href="#aQjDWCNiqqRMSODwJfGN_top_solderpaste" fill="currentColor" stroke="currentColor" class="aQjDWCNiqqRMSODwJfGN_sp"/></g></g></svg>